<svg xmlns="http://www.w3.org/2000/svg" xmlns:xlink="http://www.w3.org/1999/xlink" viewBox="0 0 592 500"><defs><style>.cls-1,.cls-4,.cls-5{fill:none;}.cls-2{fill:#292947;}.cls-3{fill:#fff;}.cls-12,.cls-4,.cls-5{stroke:#779ce8;stroke-width:0.75px;}.cls-4,.cls-5{stroke-miterlimit:10;}.cls-17,.cls-5{opacity:0.46;}.cls-6{opacity:0.44;}.cls-7{fill:#779ce8;}.cls-8{fill:#407bff;}.cls-16,.cls-20,.cls-9{fill:url(#Unnamed_Pattern);}.cls-10{fill:#d7e4f9;}.cls-11{fill:#cacae6;}.cls-12{fill:#f97d8c;stroke-linejoin:round;}.cls-13{opacity:0.64;}.cls-14{fill:url(#Unnamed_Pattern-3);}.cls-15{fill:#263238;}.cls-16,.cls-18{opacity:0.28;}.cls-19{fill:#f2f0f5;}.cls-20{opacity:0.65;}</style><pattern id="Unnamed_Pattern" data-name="Unnamed Pattern" width="27.84" height="27.84" patternTransform="translate(-204.77 8.65) scale(0.23)" patternUnits="userSpaceOnUse" viewBox="0 0 27.84 27.84"><rect class="cls-1" width="27.84" height="27.84"/><path class="cls-2" d="M29.17,27.84a1.33,1.33,0,1,1-1.32-1.33A1.33,1.33,0,0,1,29.17,27.84Z"/><path class="cls-2" d="M1.33,27.84A1.33,1.33,0,0,1,0,29.17a1.33,1.33,0,0,1,0-2.66A1.33,1.33,0,0,1,1.33,27.84Z"/><path class="cls-2" d="M8.29,27.84A1.33,1.33,0,1,1,7,26.51,1.33,1.33,0,0,1,8.29,27.84Z"/><path class="cls-2" d="M8.29,27.84A1.33,1.33,0,1,1,7,26.51,1.33,1.33,0,0,1,8.29,27.84Z"/><path class="cls-2" d="M15.25,27.84a1.33,1.33,0,1,1-1.33-1.33A1.34,1.34,0,0,1,15.25,27.84Z"/><path class="cls-2" d="M15.25,27.84a1.33,1.33,0,1,1-1.33-1.33A1.34,1.34,0,0,1,15.25,27.84Z"/><path class="cls-2" d="M22.2,27.84a1.33,1.33,0,1,1-1.32-1.33A1.33,1.33,0,0,1,22.2,27.84Z"/><path class="cls-2" d="M22.2,27.84a1.33,1.33,0,1,1-1.32-1.33A1.33,1.33,0,0,1,22.2,27.84Z"/><path class="cls-2" d="M29.16,27.84a1.33,1.33,0,1,1-1.33-1.33A1.34,1.34,0,0,1,29.16,27.84Z"/><path class="cls-2" d="M1.32,27.84A1.33,1.33,0,0,1,0,29.17a1.33,1.33,0,0,1-1.32-1.33A1.33,1.33,0,0,1,0,26.51,1.33,1.33,0,0,1,1.32,27.84Z"/><path class="cls-2" d="M29.17,0a1.33,1.33,0,0,1-1.32,1.33A1.33,1.33,0,0,1,26.52,0a1.33,1.33,0,0,1,1.33-1.33A1.33,1.33,0,0,1,29.17,0Z"/><circle class="cls-2" cx="27.85" cy="8.83" r="1.33"/><circle class="cls-2" cx="27.85" cy="19.23" r="1.33"/><path class="cls-2" d="M1.33,0A1.33,1.33,0,0,1,0,1.33,1.33,1.33,0,0,1-1.32,0,1.33,1.33,0,0,1,0-1.33,1.33,1.33,0,0,1,1.33,0Z"/><path class="cls-2" d="M8.29,0A1.33,1.33,0,0,1,7,1.33,1.33,1.33,0,0,1,5.64,0,1.33,1.33,0,0,1,7-1.33,1.33,1.33,0,0,1,8.29,0Z"/><path class="cls-2" d="M8.29,0A1.33,1.33,0,0,1,7,1.33,1.33,1.33,0,0,1,5.64,0,1.33,1.33,0,0,1,7-1.33,1.33,1.33,0,0,1,8.29,0Z"/><path class="cls-2" d="M15.25,0a1.34,1.34,0,0,1-1.33,1.33A1.34,1.34,0,0,1,12.59,0a1.33,1.33,0,0,1,2.66,0Z"/><path class="cls-2" d="M15.25,0a1.34,1.34,0,0,1-1.33,1.33A1.34,1.34,0,0,1,12.59,0a1.33,1.33,0,0,1,2.66,0Z"/><path class="cls-2" d="M22.2,0a1.33,1.33,0,0,1-1.32,1.33A1.33,1.33,0,0,1,19.55,0a1.33,1.33,0,0,1,1.33-1.33A1.33,1.33,0,0,1,22.2,0Z"/><path class="cls-2" d="M22.2,0a1.33,1.33,0,0,1-1.32,1.33A1.33,1.33,0,0,1,19.55,0a1.33,1.33,0,0,1,1.33-1.33A1.33,1.33,0,0,1,22.2,0Z"/><path class="cls-2" d="M29.16,0a1.34,1.34,0,0,1-1.33,1.33A1.34,1.34,0,0,1,26.5,0a1.33,1.33,0,0,1,2.66,0Z"/><circle class="cls-2" cx="0.01" cy="8.83" r="1.33"/><circle class="cls-2" cx="6.96" cy="8.83" r="1.33"/><circle class="cls-2" cx="6.96" cy="8.83" r="1.33"/><circle class="cls-2" cx="13.92" cy="8.83" r="1.33"/><circle class="cls-2" cx="13.92" cy="8.83" r="1.33"/><circle class="cls-2" cx="20.88" cy="8.83" r="1.33"/><circle class="cls-2" cx="20.88" cy="8.83" r="1.33"/><path class="cls-2" d="M29.16,8.83A1.33,1.33,0,1,1,27.83,7.5,1.33,1.33,0,0,1,29.16,8.83Z"/><circle class="cls-2" cx="0.01" cy="19.23" r="1.33"/><circle class="cls-2" cx="6.96" cy="19.23" r="1.33"/><circle class="cls-2" cx="6.96" cy="19.23" r="1.33"/><circle class="cls-2" cx="13.92" cy="19.23" r="1.33"/><circle class="cls-2" cx="13.92" cy="19.23" r="1.33"/><circle class="cls-2" cx="20.88" cy="19.23" r="1.33"/><circle class="cls-2" cx="20.88" cy="19.23" r="1.33"/><path class="cls-2" d="M29.16,19.23a1.33,1.33,0,1,1-1.33-1.33A1.33,1.33,0,0,1,29.16,19.23Z"/><path class="cls-2" d="M1.32,0A1.33,1.33,0,0,1,0,1.33,1.33,1.33,0,0,1-1.33,0,1.33,1.33,0,0,1,0-1.33,1.33,1.33,0,0,1,1.32,0Z"/><path class="cls-2" d="M1.32,8.83A1.32,1.32,0,0,1,0,10.15,1.32,1.32,0,0,1-1.33,8.83,1.32,1.32,0,0,1,0,7.5,1.32,1.32,0,0,1,1.32,8.83Z"/><path class="cls-2" d="M1.32,19.23A1.32,1.32,0,0,1,0,20.55a1.32,1.32,0,0,1-1.32-1.32A1.33,1.33,0,0,1,0,17.9,1.33,1.33,0,0,1,1.32,19.23Z"/></pattern><pattern id="Unnamed_Pattern-3" data-name="Unnamed Pattern" width="27.84" height="27.84" patternTransform="translate(-217.15 -10.02) scale(0.05)" patternUnits="userSpaceOnUse" viewBox="0 0 27.84 27.84"><rect class="cls-1" width="27.84" height="27.84"/><path class="cls-2" d="M29.17,27.84a1.33,1.33,0,1,1-1.32-1.33A1.33,1.33,0,0,1,29.17,27.84Z"/><path class="cls-2" d="M1.33,27.84A1.33,1.33,0,0,1,0,29.17a1.33,1.33,0,0,1,0-2.66A1.33,1.33,0,0,1,1.33,27.84Z"/><path class="cls-2" d="M8.29,27.84A1.33,1.33,0,1,1,7,26.51,1.33,1.33,0,0,1,8.29,27.84Z"/><path class="cls-2" d="M8.29,27.84A1.33,1.33,0,1,1,7,26.51,1.33,1.33,0,0,1,8.29,27.84Z"/><path class="cls-2" d="M15.25,27.84a1.33,1.33,0,1,1-1.33-1.33A1.34,1.34,0,0,1,15.25,27.84Z"/><path class="cls-2" d="M15.25,27.84a1.33,1.33,0,1,1-1.33-1.33A1.34,1.34,0,0,1,15.25,27.84Z"/><path class="cls-2" d="M22.2,27.84a1.33,1.33,0,1,1-1.32-1.33A1.33,1.33,0,0,1,22.2,27.84Z"/><path class="cls-2" d="M22.2,27.84a1.33,1.33,0,1,1-1.32-1.33A1.33,1.33,0,0,1,22.2,27.84Z"/><path class="cls-2" d="M29.16,27.84a1.33,1.33,0,1,1-1.33-1.33A1.34,1.34,0,0,1,29.16,27.84Z"/><path class="cls-2" d="M1.32,27.84A1.33,1.33,0,0,1,0,29.17a1.33,1.33,0,0,1-1.32-1.33A1.33,1.33,0,0,1,0,26.51,1.33,1.33,0,0,1,1.32,27.84Z"/><path class="cls-2" d="M29.17,0a1.33,1.33,0,0,1-1.32,1.33A1.33,1.33,0,0,1,26.52,0a1.33,1.33,0,0,1,1.33-1.33A1.33,1.33,0,0,1,29.17,0Z"/><circle class="cls-2" cx="27.85" cy="8.83" r="1.33"/><circle class="cls-2" cx="27.85" cy="19.23" r="1.33"/><path class="cls-2" d="M1.33,0A1.33,1.33,0,0,1,0,1.33,1.33,1.33,0,0,1-1.32,0,1.33,1.33,0,0,1,0-1.33,1.33,1.33,0,0,1,1.33,0Z"/><path class="cls-2" d="M8.29,0A1.33,1.33,0,0,1,7,1.33,1.33,1.33,0,0,1,5.64,0,1.33,1.33,0,0,1,7-1.33,1.33,1.33,0,0,1,8.29,0Z"/><path class="cls-2" d="M8.29,0A1.33,1.33,0,0,1,7,1.33,1.33,1.33,0,0,1,5.64,0,1.33,1.33,0,0,1,7-1.33,1.33,1.33,0,0,1,8.29,0Z"/><path class="cls-2" d="M15.25,0a1.34,1.34,0,0,1-1.33,1.33A1.34,1.34,0,0,1,12.59,0a1.33,1.33,0,0,1,2.66,0Z"/><path class="cls-2" d="M15.25,0a1.34,1.34,0,0,1-1.33,1.33A1.34,1.34,0,0,1,12.59,0a1.33,1.33,0,0,1,2.66,0Z"/><path class="cls-2" d="M22.2,0a1.33,1.33,0,0,1-1.32,1.33A1.33,1.33,0,0,1,19.55,0a1.33,1.33,0,0,1,1.33-1.33A1.33,1.33,0,0,1,22.2,0Z"/><path class="cls-2" d="M22.2,0a1.33,1.33,0,0,1-1.32,1.33A1.33,1.33,0,0,1,19.55,0a1.33,1.33,0,0,1,1.33-1.33A1.33,1.33,0,0,1,22.2,0Z"/><path class="cls-2" d="M29.16,0a1.34,1.34,0,0,1-1.33,1.33A1.34,1.34,0,0,1,26.5,0a1.33,1.33,0,0,1,2.66,0Z"/><circle class="cls-2" cx="0.01" cy="8.83" r="1.33"/><circle class="cls-2" cx="6.96" cy="8.83" r="1.33"/><circle class="cls-2" cx="6.96" cy="8.83" r="1.33"/><circle class="cls-2" cx="13.92" cy="8.83" r="1.33"/><circle class="cls-2" cx="13.92" cy="8.83" r="1.33"/><circle class="cls-2" cx="20.88" cy="8.83" r="1.33"/><circle class="cls-2" cx="20.88" cy="8.83" r="1.33"/><path class="cls-2" d="M29.16,8.83A1.33,1.33,0,1,1,27.83,7.5,1.33,1.33,0,0,1,29.16,8.83Z"/><circle class="cls-2" cx="0.01" cy="19.23" r="1.33"/><circle class="cls-2" cx="6.96" cy="19.23" r="1.33"/><circle class="cls-2" cx="6.96" cy="19.23" r="1.33"/><circle class="cls-2" cx="13.92" cy="19.23" r="1.33"/><circle class="cls-2" cx="13.92" cy="19.23" r="1.33"/><circle class="cls-2" cx="20.88" cy="19.23" r="1.33"/><circle class="cls-2" cx="20.88" cy="19.23" r="1.33"/><path class="cls-2" d="M29.16,19.23a1.33,1.33,0,1,1-1.33-1.33A1.33,1.33,0,0,1,29.16,19.23Z"/><path class="cls-2" d="M1.32,0A1.33,1.33,0,0,1,0,1.33,1.33,1.33,0,0,1-1.33,0,1.33,1.33,0,0,1,0-1.33,1.33,1.33,0,0,1,1.32,0Z"/><path class="cls-2" d="M1.32,8.83A1.32,1.32,0,0,1,0,10.15,1.32,1.32,0,0,1-1.33,8.83,1.32,1.32,0,0,1,0,7.5,1.32,1.32,0,0,1,1.32,8.83Z"/><path class="cls-2" d="M1.32,19.23A1.32,1.32,0,0,1,0,20.55a1.32,1.32,0,0,1-1.32-1.32A1.33,1.33,0,0,1,0,17.9,1.33,1.33,0,0,1,1.32,19.23Z"/></pattern></defs><g id="Layer_1" data-name="Layer 1"><rect class="cls-3" x="0.81" y="-24.81" width="672.51" height="557.68"/></g><g id="Layer_4" data-name="Layer 4"><path class="cls-4" d="M253.77,193.14h-3.72a.47.47,0,1,1,0-.93h3.72a.47.47,0,1,1,0,.93Zm-7.45,0H242.6a.47.47,0,1,1,0-.93h3.72a.47.47,0,1,1,0,.93Zm-7.45,0h-3.72a.47.47,0,1,1,0-.93h3.72a.47.47,0,1,1,0,.93Zm-7.45,0H227.7a.47.47,0,1,1,0-.93h3.72a.47.47,0,1,1,0,.93Zm-7.45,0h-3.72a.47.47,0,1,1,0-.93H224a.47.47,0,1,1,0,.93Zm-7.45,0H212.8a.47.47,0,1,1,0-.93h3.72a.47.47,0,1,1,0,.93Zm-7.45,0h-3.72a.47.47,0,1,1,0-.93h3.72a.47.47,0,1,1,0,.93Zm-7.45,0H197.9a.47.47,0,1,1,0-.93h3.72a.47.47,0,1,1,0,.93Zm-7.35-.45a.48.48,0,0,1-.28-.1,2.72,2.72,0,0,1-1.09-2.18v-1.63a.47.47,0,0,1,.93,0v1.63a1.79,1.79,0,0,0,.72,1.44.45.45,0,0,1,.09.65A.47.47,0,0,1,194.27,192.69Zm62.72-.85a.45.45,0,0,1-.2,0,.46.46,0,0,1-.22-.62,1.84,1.84,0,0,0,.17-.77v-2.73a.47.47,0,0,1,.93,0v2.73a2.77,2.77,0,0,1-.26,1.17A.48.48,0,0,1,257,191.84Zm-63.62-6.32a.47.47,0,0,1-.47-.46v-3.73a.47.47,0,0,1,.93,0v3.73A.47.47,0,0,1,193.37,185.52Zm63.83-1.09a.47.47,0,0,1-.46-.47v-3.73a.47.47,0,0,1,.93,0V184A.47.47,0,0,1,257.2,184.43Zm0-7.46a.46.46,0,0,1-.46-.46v-3.73a.47.47,0,0,1,.93,0v3.73A.46.46,0,0,1,257.2,177Zm0-7.45a.46.46,0,0,1-.46-.46v-3.73a.47.47,0,0,1,.93,0v3.73A.46.46,0,0,1,257.2,169.52Zm0-7.45a.46.46,0,0,1-.46-.46v-3.73a.47.47,0,0,1,.93,0v3.73A.46.46,0,0,1,257.2,162.07Zm0-7.45a.46.46,0,0,1-.46-.46v-2.32a2.76,2.76,0,0,1,.51-1.59.47.47,0,0,1,.76.54,1.8,1.8,0,0,0-.34,1.05v2.32A.46.46,0,0,1,257.2,154.62Zm7.57-4.58H261a.47.47,0,0,1,0-.93h3.73a.47.47,0,0,1,0,.93Z"/><path class="cls-4" d="M170.36,198.33a.47.47,0,0,1-.47-.47v-1a.47.47,0,0,1,.93,0v1A.47.47,0,0,1,170.36,198.33Zm0-4.71a.47.47,0,0,1-.47-.46v-3.73a.47.47,0,0,1,.93,0v3.73A.47.47,0,0,1,170.36,193.62Zm0-7.45a.47.47,0,0,1-.47-.46V182a.47.47,0,0,1,.93,0v3.73A.47.47,0,0,1,170.36,186.17Z"/><path class="cls-5" d="M95.82,307.86a.47.47,0,0,1-.46-.47v-2.55a.47.47,0,0,1,.93,0v2.55A.47.47,0,0,1,95.82,307.86Zm0-6.28a.46.46,0,0,1-.46-.46v-3.73a.47.47,0,0,1,.93,0v3.73A.46.46,0,0,1,95.82,301.58Zm0-7.45a.46.46,0,0,1-.46-.46v-3.73a.47.47,0,0,1,.93,0v3.73A.46.46,0,0,1,95.82,294.13Zm0-7.45a.46.46,0,0,1-.46-.46v-3.73a.47.47,0,0,1,.93,0v3.73A.46.46,0,0,1,95.82,286.68Zm0-7.45a.47.47,0,0,1-.46-.46V275a.47.47,0,0,1,.93,0v3.73A.47.47,0,0,1,95.82,279.23Zm0-7.45a.47.47,0,0,1-.46-.46v-3.73a.47.47,0,0,1,.93,0v3.73A.47.47,0,0,1,95.82,271.78Zm0-7.45a.47.47,0,0,1-.46-.46v-3.73a.47.47,0,0,1,.93,0v3.73A.47.47,0,0,1,95.82,264.33Zm0-7.45a.47.47,0,0,1-.46-.46v-3.73a.47.47,0,0,1,.93,0v3.73A.47.47,0,0,1,95.82,256.88Zm0-7.45a.47.47,0,0,1-.46-.46v-3.73a.47.47,0,0,1,.93,0V249A.47.47,0,0,1,95.82,249.43Zm0-7.45a.47.47,0,0,1-.46-.46v-3.73a.47.47,0,0,1,.93,0v3.73A.47.47,0,0,1,95.82,242Zm0-7.45a.47.47,0,0,1-.46-.46v-3.73a.47.47,0,0,1,.93,0v3.73A.47.47,0,0,1,95.82,234.53Zm0-7.45a.47.47,0,0,1-.46-.46v-3.73a.47.47,0,1,1,.93,0v3.73A.47.47,0,0,1,95.82,227.08Zm0-7.45a.47.47,0,0,1-.46-.46v-3.73a.47.47,0,1,1,.93,0v3.73A.47.47,0,0,1,95.82,219.63Zm0-7.45a.47.47,0,0,1-.46-.46V208a.47.47,0,1,1,.93,0v3.73A.47.47,0,0,1,95.82,212.18Zm0-7.45a.47.47,0,0,1-.46-.47v-3.72a.47.47,0,1,1,.93,0v3.72A.47.47,0,0,1,95.82,204.73Zm0-7.45a.47.47,0,0,1-.46-.47v-2a4.58,4.58,0,0,1,.38-1.83.47.47,0,0,1,.62-.24.48.48,0,0,1,.24.62,3.44,3.44,0,0,0-.31,1.45v2A.47.47,0,0,1,95.82,197.28Zm3.11-6a.47.47,0,0,1-.1-.92,4.56,4.56,0,0,1,1-.13h2.78a.47.47,0,0,1,0,.94H99.87a3.84,3.84,0,0,0-.83.09Zm47.12-.11h-2.42a.47.47,0,1,1,0-.94h2v-.83a.45.45,0,0,1,.46-.46.46.46,0,0,1,.47.46v1.3A.47.47,0,0,1,146.05,191.2Zm-6.15,0h-3.72a.47.47,0,1,1,0-.94h3.72a.47.47,0,0,1,0,.94Zm-7.45,0h-3.72a.47.47,0,0,1,0-.94h3.72a.47.47,0,1,1,0,.94Zm-7.45,0h-3.72a.47.47,0,0,1,0-.94H125a.47.47,0,1,1,0,.94Zm-7.45,0h-3.72a.47.47,0,1,1,0-.94h3.72a.47.47,0,0,1,0,.94Zm-7.45,0h-3.73a.47.47,0,0,1,0-.94h3.73a.47.47,0,0,1,0,.94Zm36-5a.46.46,0,0,1-.46-.46V182a.45.45,0,0,1,.46-.46.46.46,0,0,1,.47.46v3.73A.47.47,0,0,1,146.05,186.17Z"/><g class="cls-6"><path class="cls-4" d="M74.78,356.55a1.67,1.67,0,0,1-1.59-1.17l-1.59-5a.71.71,0,0,0-.72-.52,24,24,0,0,1-6-.52.73.73,0,0,0-.79.39l-2.43,4.67a1.68,1.68,0,0,1-2.26.71l-7.23-3.76a1.67,1.67,0,0,1-.71-2.26l2.42-4.67a.71.71,0,0,0-.14-.87,23.61,23.61,0,0,1-3.89-4.63.74.74,0,0,0-.84-.29l-5,1.58a1.67,1.67,0,0,1-2.1-1.09l-2.46-7.77a1.68,1.68,0,0,1,.12-1.28,1.63,1.63,0,0,1,1-.82l5-1.59a.72.72,0,0,0,.51-.72,23.85,23.85,0,0,1,.53-6,.72.72,0,0,0-.39-.8l-4.67-2.43a1.67,1.67,0,0,1-.71-2.26l3.75-7.23a1.67,1.67,0,0,1,2.26-.71l4.67,2.42a.73.73,0,0,0,.88-.14A23.61,23.61,0,0,1,57,305.86a.73.73,0,0,0,.29-.84l-1.59-5a1.69,1.69,0,0,1,1.1-2.1l7.77-2.45a1.67,1.67,0,0,1,2.1,1.09l1.59,5a.7.7,0,0,0,.71.52,23.89,23.89,0,0,1,6,.52.75.75,0,0,0,.8-.39l2.43-4.67a1.67,1.67,0,0,1,2.25-.71l7.24,3.76a1.63,1.63,0,0,1,.82,1,1.61,1.61,0,0,1-.11,1.27L86,307.52a.73.73,0,0,0,.15.87A24.32,24.32,0,0,1,90,313a.72.72,0,0,0,.83.29l5-1.58a1.67,1.67,0,0,1,2.1,1.09l2.46,7.77a1.67,1.67,0,0,1-1.09,2.1l-5,1.59a.73.73,0,0,0-.52.72,23.89,23.89,0,0,1-.52,6,.73.73,0,0,0,.38.8l4.68,2.43a1.67,1.67,0,0,1,.71,2.26l-3.76,7.23a1.68,1.68,0,0,1-2.26.71L88.36,342a.73.73,0,0,0-.87.15,23.9,23.9,0,0,1-4.63,3.89.72.72,0,0,0-.29.84l1.58,5a1.68,1.68,0,0,1-1.09,2.1l-7.77,2.45A1.51,1.51,0,0,1,74.78,356.55Zm-3.87-7.64a1.66,1.66,0,0,1,1.58,1.17l1.58,5a.76.76,0,0,0,.94.49l7.77-2.46a.73.73,0,0,0,.48-.93l-1.58-5a1.66,1.66,0,0,1,.67-1.9,22.77,22.77,0,0,0,4.45-3.74,1.66,1.66,0,0,1,2-.34l4.67,2.43a.75.75,0,0,0,.57.05.72.72,0,0,0,.43-.37l3.76-7.23a.75.75,0,0,0-.31-1l-4.67-2.42a1.67,1.67,0,0,1-.87-1.83,23,23,0,0,0,.5-5.79A1.66,1.66,0,0,1,94,323.39l5-1.59a.73.73,0,0,0,.48-.93l-2.45-7.77a.76.76,0,0,0-.94-.49l-5,1.59a1.67,1.67,0,0,1-1.91-.67,22.48,22.48,0,0,0-3.74-4.45,1.67,1.67,0,0,1-.33-2l2.42-4.67a.71.71,0,0,0,0-.57.75.75,0,0,0-.36-.44L80,297.65a.68.68,0,0,0-.56,0A.75.75,0,0,0,79,298l-2.43,4.67a1.65,1.65,0,0,1-1.82.87A22.91,22.91,0,0,0,69,303a1.67,1.67,0,0,1-1.64-1.17l-1.59-5a.75.75,0,0,0-.93-.49l-7.77,2.46a.73.73,0,0,0-.44.37.73.73,0,0,0,0,.56l1.59,5a1.68,1.68,0,0,1-.68,1.91A22.66,22.66,0,0,0,53,310.38a1.66,1.66,0,0,1-2,.34l-4.67-2.43a.76.76,0,0,0-1,.32l-3.76,7.23a.76.76,0,0,0,.32,1l4.67,2.42a1.67,1.67,0,0,1,.87,1.83,22.46,22.46,0,0,0-.5,5.79,1.67,1.67,0,0,1-1.17,1.64l-5,1.59a.73.73,0,0,0-.49.93l2.46,7.77a.75.75,0,0,0,.93.49l5-1.59a1.66,1.66,0,0,1,1.9.67,22.48,22.48,0,0,0,3.74,4.45,1.66,1.66,0,0,1,.34,2l-2.43,4.67a.75.75,0,0,0,.32,1l7.23,3.76a.75.75,0,0,0,.57.05.79.79,0,0,0,.43-.37l2.43-4.67a1.66,1.66,0,0,1,1.82-.87,22.54,22.54,0,0,0,5.79.5Zm-1-8.64a14.4,14.4,0,1,1,4-.57A14.34,14.34,0,0,1,70,340.27Zm0-27.84a13.67,13.67,0,0,0-3.74.52,13.46,13.46,0,1,0,7.47,25.86h0A13.45,13.45,0,0,0,70,312.43Z"/></g><path class="cls-4" d="M111.71,197.55l.64-4a.6.6,0,0,0-.5-.69l-2.61-.42a.6.6,0,0,1-.51-.52A11.27,11.27,0,0,0,108,189a.62.62,0,0,1,.22-.7l2.14-1.55a.6.6,0,0,0,.13-.85l-2.4-3.31a.61.61,0,0,0-.84-.14L105.14,184a.59.59,0,0,1-.72,0,11.94,11.94,0,0,0-2.54-1.56.6.6,0,0,1-.34-.64l.42-2.61a.62.62,0,0,0-.51-.7l-4-.64a.59.59,0,0,0-.69.5l-.42,2.61a.59.59,0,0,1-.52.5,12.16,12.16,0,0,0-2.9.69.6.6,0,0,1-.7-.21l-1.55-2.14a.61.61,0,0,0-.84-.14L86.47,182a.62.62,0,0,0-.14.85L87.89,185a.62.62,0,0,1,0,.73,11.94,11.94,0,0,0-1.56,2.54.61.61,0,0,1-.64.34l-2.61-.42a.62.62,0,0,0-.7.5l-.64,4a.6.6,0,0,0,.5.7l2.61.42a.57.57,0,0,1,.5.52,11.82,11.82,0,0,0,.7,2.9.6.6,0,0,1-.22.69l-2.14,1.55a.62.62,0,0,0-.14.85l2.4,3.32a.61.61,0,0,0,.85.13l2.14-1.55a.6.6,0,0,1,.73,0,12.36,12.36,0,0,0,2.54,1.56.6.6,0,0,1,.34.64l-.42,2.61a.6.6,0,0,0,.5.69l4,.65a.61.61,0,0,0,.7-.5l.42-2.61a.59.59,0,0,1,.52-.51,11.37,11.37,0,0,0,2.9-.69.6.6,0,0,1,.69.22l1.55,2.14a.61.61,0,0,0,.85.13l3.32-2.4a.59.59,0,0,0,.13-.84l-1.55-2.15a.59.59,0,0,1,0-.72,11.94,11.94,0,0,0,1.56-2.54.59.59,0,0,1,.64-.34l2.61.42A.62.62,0,0,0,111.71,197.55ZM95.8,200a7,7,0,1,1,7.85-4.5A7,7,0,0,1,95.8,200Z"/><path class="cls-4" d="M96.75,208.92h-.17l-4-.65a1.07,1.07,0,0,1-.89-1.22l.42-2.61a.13.13,0,0,0-.07-.15,12.07,12.07,0,0,1-2.64-1.62.12.12,0,0,0-.16,0l-2.15,1.55a1,1,0,0,1-.79.19,1.08,1.08,0,0,1-.7-.43l-2.4-3.31a1.05,1.05,0,0,1-.19-.8,1,1,0,0,1,.43-.7l2.14-1.55a.14.14,0,0,0,0-.16,12,12,0,0,1-.72-3,.12.12,0,0,0-.11-.11l-2.61-.42a1.07,1.07,0,0,1-.89-1.23l.64-4a1.11,1.11,0,0,1,.43-.7,1.08,1.08,0,0,1,.8-.19l2.61.42a.15.15,0,0,0,.15-.07,11.93,11.93,0,0,1,1.62-2.64.17.17,0,0,0,0-.17L86,183.15a1.06,1.06,0,0,1,.24-1.49l3.31-2.4a1.07,1.07,0,0,1,1.5.24l1.55,2.14a.14.14,0,0,0,.16.05,11.91,11.91,0,0,1,3-.72.13.13,0,0,0,.11-.12l.42-2.6a1,1,0,0,1,.43-.7,1,1,0,0,1,.8-.19l4,.64a1.11,1.11,0,0,1,.7.43,1.13,1.13,0,0,1,.19.8l-.42,2.61a.15.15,0,0,0,.07.15,11.93,11.93,0,0,1,2.64,1.62.15.15,0,0,0,.16,0l2.14-1.55a1.07,1.07,0,0,1,1.5.24l2.4,3.31a1,1,0,0,1,.19.8,1.07,1.07,0,0,1-.43.7l-2.14,1.55a.13.13,0,0,0,0,.15,12.55,12.55,0,0,1,.72,3,.13.13,0,0,0,.11.11l2.61.42a1.07,1.07,0,0,1,.89,1.23l-.65,4a1.07,1.07,0,0,1-1.22.89l-2.61-.42a.14.14,0,0,0-.15.07,12.16,12.16,0,0,1-1.62,2.64.12.12,0,0,0,0,.16l1.55,2.14a1.07,1.07,0,0,1-.24,1.5l-3.31,2.4a1.07,1.07,0,0,1-1.5-.24l-1.55-2.14a.14.14,0,0,0-.16,0,12.83,12.83,0,0,1-3,.72.12.12,0,0,0-.11.11L97.81,208a1.06,1.06,0,0,1-1.06.9Zm-7.47-7.22a1.06,1.06,0,0,1,.66.23,11.36,11.36,0,0,0,2.44,1.5,1.09,1.09,0,0,1,.61,1.14l-.42,2.61a.14.14,0,0,0,.12.16l4,.65a.15.15,0,0,0,.16-.12l.42-2.61a1.06,1.06,0,0,1,.93-.89,11.5,11.5,0,0,0,2.78-.66,1.06,1.06,0,0,1,1.24.37l1.55,2.14a.15.15,0,0,0,.2,0l3.31-2.4a.15.15,0,0,0,0-.2l-1.55-2.14a1.07,1.07,0,0,1,0-1.3,11.05,11.05,0,0,0,1.5-2.43,1.06,1.06,0,0,1,1.14-.61l2.61.42a.15.15,0,0,0,.17-.12l.64-4a.15.15,0,0,0-.11-.16l-2.61-.42a1.07,1.07,0,0,1-.9-.94,11.15,11.15,0,0,0-.66-2.78,1.05,1.05,0,0,1,.37-1.23l2.14-1.55a.12.12,0,0,0,.06-.1.14.14,0,0,0,0-.1l-2.4-3.32a.17.17,0,0,0-.2,0l-2.14,1.55a1.07,1.07,0,0,1-1.3,0,11,11,0,0,0-2.43-1.49,1.07,1.07,0,0,1-.61-1.15l.42-2.61a.11.11,0,0,0,0-.1.13.13,0,0,0-.09-.06l-4-.64a.14.14,0,0,0-.16.11L96.76,181a1.07,1.07,0,0,1-.93.9,11.12,11.12,0,0,0-2.79.66,1.06,1.06,0,0,1-1.23-.38L90.26,180a.15.15,0,0,0-.2,0l-3.32,2.4a.17.17,0,0,0,0,.2l1.55,2.14a1.07,1.07,0,0,1,0,1.29,11.31,11.31,0,0,0-1.49,2.44,1.09,1.09,0,0,1-1.15.61L83,188.67a.14.14,0,0,0-.16.12l-.64,4a.14.14,0,0,0,.11.16l2.61.42a1.06,1.06,0,0,1,.9.93,11,11,0,0,0,.66,2.78,1.07,1.07,0,0,1-.38,1.24l-2.14,1.55a.12.12,0,0,0,0,.09.12.12,0,0,0,0,.11l2.4,3.31a.14.14,0,0,0,.09.06.13.13,0,0,0,.11,0l2.14-1.54A1.06,1.06,0,0,1,89.28,201.7Zm7.78-1.14a7.7,7.7,0,0,1-1.35-.12,7.5,7.5,0,1,1,1.35.12Zm0-14a6.52,6.52,0,0,0-1.2,12.94h0a6.52,6.52,0,0,0,2.38-12.83A6.73,6.73,0,0,0,97.08,186.58Z"/><path class="cls-4" d="M429.5,112.77a.47.47,0,0,1-.47-.47v-3.72a.47.47,0,1,1,.93,0v3.72A.47.47,0,0,1,429.5,112.77Zm0-7.45a.47.47,0,0,1-.47-.47v-3.72a.47.47,0,1,1,.93,0v3.72A.47.47,0,0,1,429.5,105.32Zm-2.7-4.75h-3.73a.46.46,0,0,1-.46-.47.45.45,0,0,1,.46-.46h3.73a.46.46,0,0,1,.46.46A.47.47,0,0,1,426.8,100.57Zm-7.45,0h-3.73a.46.46,0,0,1-.46-.47.45.45,0,0,1,.46-.46h3.73a.46.46,0,0,1,.46.46A.47.47,0,0,1,419.35,100.57Zm-7.45,0h-3.73a.47.47,0,0,1-.47-.47.46.46,0,0,1,.47-.46h3.73a.46.46,0,0,1,.46.46A.47.47,0,0,1,411.9,100.57Zm-7.45,0h-3.73a.46.46,0,0,1-.46-.47.45.45,0,0,1,.46-.46h3.73a.46.46,0,0,1,.46.46A.47.47,0,0,1,404.45,100.57Zm-7.45,0h-3.73a.46.46,0,0,1-.46-.47.45.45,0,0,1,.46-.46H397a.46.46,0,0,1,.46.46A.47.47,0,0,1,397,100.57Zm-7.45,0h-2.83a.46.46,0,0,1-.46-.47v-.9a.46.46,0,0,1,.46-.47.47.47,0,0,1,.47.47v.44h2.36a.46.46,0,0,1,.46.46A.47.47,0,0,1,389.55,100.57Zm-56.84-1.73a.46.46,0,0,1-.46-.47V94.65a.46.46,0,0,1,.46-.47.47.47,0,0,1,.47.47v3.72A.47.47,0,0,1,332.71,98.84Zm54-2.9a.46.46,0,0,1-.46-.46V91.75a.46.46,0,0,1,.46-.47.47.47,0,0,1,.47.47v3.73A.47.47,0,0,1,386.72,95.94Zm-54-4.55a.46.46,0,0,1-.46-.47V87.2a.46.46,0,0,1,.46-.47.47.47,0,0,1,.47.47v3.72A.47.47,0,0,1,332.71,91.39Zm54-2.9a.46.46,0,0,1-.46-.47V84.3a.46.46,0,0,1,.46-.47.47.47,0,0,1,.47.47V88A.47.47,0,0,1,386.72,88.49Zm-54-4.55a.46.46,0,0,1-.46-.47V81.09a.46.46,0,0,1,.46-.47h1.34a.47.47,0,0,1,0,.94h-.87v1.91A.47.47,0,0,1,332.71,83.94Zm53.5-2.38h-3.73a.47.47,0,0,1,0-.94h3.73a.47.47,0,0,1,0,.94Zm-7.45,0H375a.47.47,0,0,1,0-.94h3.73a.47.47,0,0,1,0,.94Zm-7.45,0h-3.73a.47.47,0,1,1,0-.94h3.73a.47.47,0,0,1,0,.94Zm-7.45,0h-3.73a.47.47,0,1,1,0-.94h3.73a.47.47,0,0,1,0,.94Zm-7.45,0h-3.73a.47.47,0,0,1,0-.94h3.73a.47.47,0,0,1,0,.94Zm-7.46,0h-3.72a.47.47,0,0,1,0-.94H349a.47.47,0,1,1,0,.94Zm-7.45,0h-3.72a.47.47,0,1,1,0-.94h3.72a.47.47,0,1,1,0,.94Z"/><path class="cls-5" d="M321,94.46a.47.47,0,0,1-.46-.47V90.27a.47.47,0,1,1,.93,0V94A.47.47,0,0,1,321,94.46ZM321,87a.47.47,0,0,1-.46-.47V82.82a.47.47,0,1,1,.93,0v3.72A.47.47,0,0,1,321,87Z"/><path class="cls-5" d="M424.74,115.2a.47.47,0,0,1-.46-.47V111a.47.47,0,1,1,.93,0v3.72A.47.47,0,0,1,424.74,115.2Zm0-7.45a.47.47,0,0,1-.46-.47v-3.72a.47.47,0,1,1,.93,0v3.72A.47.47,0,0,1,424.74,107.75Z"/><path class="cls-4" d="M521.53,268.45a.47.47,0,0,1-.47-.47v-3.73a.47.47,0,0,1,.94,0V268A.47.47,0,0,1,521.53,268.45Zm0-7.46a.46.46,0,0,1-.47-.46V256.8a.47.47,0,0,1,.94,0v3.73A.46.46,0,0,1,521.53,261ZM547,255.25h-1.43a.47.47,0,1,1,0-.93h1V252.5a.47.47,0,1,1,.93,0v2.29A.47.47,0,0,1,547,255.25Zm-5.16,0h-3.72a.47.47,0,1,1,0-.93h3.72a.47.47,0,1,1,0,.93Zm-7.45,0h-3.72a.47.47,0,1,1,0-.93h3.72a.47.47,0,1,1,0,.93Zm-7.45,0h-3.72a.47.47,0,1,1,0-.93H527a.47.47,0,1,1,0,.93Zm20.06-6a.47.47,0,0,1-.46-.47v-3.72a.47.47,0,1,1,.93,0v3.72A.47.47,0,0,1,547,249.24Zm0-7.45a.47.47,0,0,1-.46-.47V237.6a.47.47,0,1,1,.93,0v3.72A.47.47,0,0,1,547,241.79Zm0-7.45a.47.47,0,0,1-.46-.47v-3.72a.47.47,0,1,1,.93,0v3.72A.47.47,0,0,1,547,234.34Zm0-7.45a.47.47,0,0,1-.46-.47v-3.73a.47.47,0,0,1,.93,0v3.73A.47.47,0,0,1,547,226.89Zm0-7.45a.47.47,0,0,1-.46-.47v-3.73a.47.47,0,0,1,.93,0V219A.47.47,0,0,1,547,219.44Zm-1.35-6.1h-3.73a.47.47,0,0,1,0-.93h3.73a.47.47,0,0,1,0,.93Zm-7.45,0h-3.73a.47.47,0,0,1,0-.93h3.73a.47.47,0,0,1,0,.93Z"/><path class="cls-4" d="M324.93,400.22a.47.47,0,0,1-.46-.47v-2.46a.47.47,0,0,1,.93,0v2.46A.47.47,0,0,1,324.93,400.22Zm0-6.19a.47.47,0,0,1-.46-.46v-3.73a.47.47,0,0,1,.93,0v3.73A.47.47,0,0,1,324.93,394Zm0-7.45a.47.47,0,0,1-.46-.46v-1.06h-1.74a.47.47,0,1,1,0-.93h2.2a.47.47,0,0,1,.47.47v1.52A.47.47,0,0,1,324.93,386.58ZM319,385.06h-3.72a.47.47,0,1,1,0-.93H319a.47.47,0,1,1,0,.93Zm-7.45,0h-3.72a.47.47,0,1,1,0-.93h3.72a.47.47,0,1,1,0,.93Zm-7.45,0h-3.72a.47.47,0,1,1,0-.93h3.72a.47.47,0,1,1,0,.93Zm-7.45,0h-3.72a.47.47,0,1,1,0-.93h3.72a.47.47,0,1,1,0,.93Zm-7.45,0h-3.72a.47.47,0,1,1,0-.93h3.72a.47.47,0,1,1,0,.93Zm-7.45,0h-.56a.47.47,0,0,1-.47-.46v-3.16a.47.47,0,1,1,.93,0v2.69h.1a.47.47,0,1,1,0,.93Zm-.56-6.88a.47.47,0,0,1-.47-.47V374a.47.47,0,1,1,.93,0v3.72A.47.47,0,0,1,281.19,378.18Z"/><path class="cls-5" d="M332.06,399.48a.47.47,0,0,1-.46-.47v-3.73a.47.47,0,0,1,.93,0V399A.47.47,0,0,1,332.06,399.48Zm0-7.46a.46.46,0,0,1-.46-.46v-3.73a.47.47,0,0,1,.93,0v3.73A.46.46,0,0,1,332.06,392Zm0-7.45a.46.46,0,0,1-.46-.46v-3.73a.47.47,0,0,1,.93,0v3.73A.46.46,0,0,1,332.06,384.57Zm-1.29-6.15H327a.47.47,0,0,1-.46-.47.46.46,0,0,1,.46-.46h3.73a.46.46,0,0,1,.47.46A.47.47,0,0,1,330.77,378.42Zm-7.45,0h-3.73a.47.47,0,0,1-.46-.47.46.46,0,0,1,.46-.46h3.73a.45.45,0,0,1,.46.46A.46.46,0,0,1,323.32,378.42Zm-7.45,0h-3.73a.47.47,0,0,1-.46-.47.46.46,0,0,1,.46-.46h3.73a.45.45,0,0,1,.46.46A.46.46,0,0,1,315.87,378.42Zm-7.45,0h-3.73a.47.47,0,0,1-.46-.47.46.46,0,0,1,.46-.46h3.73a.45.45,0,0,1,.46.46A.46.46,0,0,1,308.42,378.42Zm-7.45,0h-3.73a.47.47,0,0,1-.46-.47.46.46,0,0,1,.46-.46H301a.45.45,0,0,1,.46.46A.46.46,0,0,1,301,378.42Zm-7.45,0h-3.73a.47.47,0,0,1-.46-.47.46.46,0,0,1,.46-.46h3.73a.45.45,0,0,1,.46.46A.46.46,0,0,1,293.52,378.42Zm-5.2-2.25a.47.47,0,0,1-.47-.47V372a.47.47,0,1,1,.93,0v3.72A.47.47,0,0,1,288.32,376.17Z"/><path class="cls-5" d="M528.44,274a.47.47,0,0,1-.46-.47v-3.72a.47.47,0,1,1,.93,0v3.72A.47.47,0,0,1,528.44,274Zm0-7.45A.47.47,0,0,1,528,266v-3.72a.47.47,0,1,1,.93,0V266A.47.47,0,0,1,528.44,266.51Zm21.31-4.78H546a.45.45,0,0,1-.46-.46.46.46,0,0,1,.46-.47h3.73a.47.47,0,0,1,.46.47A.46.46,0,0,1,549.75,261.73Zm-7.45,0h-3.73a.45.45,0,0,1-.46-.46.46.46,0,0,1,.46-.47h3.73a.47.47,0,0,1,.46.47A.46.46,0,0,1,542.3,261.73Zm-7.45,0h-3.73a.45.45,0,0,1-.46-.46.46.46,0,0,1,.46-.47h3.73a.47.47,0,0,1,.46.47A.46.46,0,0,1,534.85,261.73Zm17.36-1.26a.47.47,0,0,1-.47-.46v-3.73a.47.47,0,0,1,.47-.47.46.46,0,0,1,.46.47V260A.46.46,0,0,1,552.21,260.47Zm0-7.45a.47.47,0,0,1-.47-.47v-3.72a.47.47,0,0,1,.47-.47.46.46,0,0,1,.46.47v3.72A.46.46,0,0,1,552.21,253Zm0-7.45a.47.47,0,0,1-.47-.47v-3.72a.47.47,0,0,1,.47-.47.46.46,0,0,1,.46.47v3.72A.46.46,0,0,1,552.21,245.57Zm0-7.45a.47.47,0,0,1-.47-.47v-3.72a.47.47,0,0,1,.47-.47.46.46,0,0,1,.46.47v3.72A.46.46,0,0,1,552.21,238.12Zm0-7.45a.47.47,0,0,1-.47-.47v-3.72a.47.47,0,0,1,.47-.47.46.46,0,0,1,.46.47v3.72A.46.46,0,0,1,552.21,230.67Zm0-7.45a.47.47,0,0,1-.47-.47V219a.47.47,0,0,1,.47-.47.46.46,0,0,1,.46.47v3.72A.46.46,0,0,1,552.21,223.22Zm0-7.45a.47.47,0,0,1-.47-.47v-3.72a.47.47,0,0,1,.47-.47.46.46,0,0,1,.46.47v3.72A.46.46,0,0,1,552.21,215.77Z"/><path class="cls-4" d="M87.72,290.7a.46.46,0,0,1-.46-.46v-3.73a.46.46,0,0,1,.46-.46.47.47,0,0,1,.47.46v3.73A.47.47,0,0,1,87.72,290.7Zm0-7.45a.46.46,0,0,1-.46-.46v-3.73a.45.45,0,0,1,.46-.46.46.46,0,0,1,.47.46v3.73A.47.47,0,0,1,87.72,283.25Zm0-7.45a.46.46,0,0,1-.46-.46v-3.73a.45.45,0,0,1,.46-.46.46.46,0,0,1,.47.46v3.73A.47.47,0,0,1,87.72,275.8Zm0-7.45a.46.46,0,0,1-.46-.46v-3.73a.45.45,0,0,1,.46-.46.46.46,0,0,1,.47.46v3.73A.47.47,0,0,1,87.72,268.35Zm0-7.45a.46.46,0,0,1-.46-.46v-3.73a.45.45,0,0,1,.46-.46.46.46,0,0,1,.47.46v3.73A.47.47,0,0,1,87.72,260.9Zm0-7.45a.46.46,0,0,1-.46-.46v-3.73a.45.45,0,0,1,.46-.46.46.46,0,0,1,.47.46V253A.47.47,0,0,1,87.72,253.45Zm0-7.45a.46.46,0,0,1-.46-.46v-3.73a.45.45,0,0,1,.46-.46.46.46,0,0,1,.47.46v3.73A.47.47,0,0,1,87.72,246Zm0-7.45a.46.46,0,0,1-.46-.46v-3.73a.45.45,0,0,1,.46-.46.46.46,0,0,1,.47.46v3.73A.47.47,0,0,1,87.72,238.55Zm0-7.45a.46.46,0,0,1-.46-.46v-3.73a.45.45,0,0,1,.46-.46.46.46,0,0,1,.47.46v3.73A.47.47,0,0,1,87.72,231.1Zm0-7.45a.46.46,0,0,1-.46-.46v-3.73a.46.46,0,0,1,.46-.47.47.47,0,0,1,.47.47v3.73A.47.47,0,0,1,87.72,223.65Zm0-7.45a.46.46,0,0,1-.46-.46V212a.46.46,0,0,1,.46-.47.47.47,0,0,1,.47.47v3.73A.47.47,0,0,1,87.72,216.2Z"/><path class="cls-3" d="M258.81,405.3l10.76-39.53H216.89l-10.65,39.55.7,0Z"/><path class="cls-7" d="M206.3,405.79a.52.52,0,0,1-.39-.18.45.45,0,0,1-.12-.41l10.65-39.55a.46.46,0,0,1,.45-.35h52.68a.47.47,0,0,1,.37.19.44.44,0,0,1,.08.4l-10.76,39.54a.46.46,0,0,1-.45.34H206.94l-.62,0Zm10.95-39.56-10.39,38.61h51.6L269,366.23Z"/><path class="cls-8" d="M292.63,408.17l-.55-.3a21.59,21.59,0,0,0-10.41-2.57H206.94l-.7,0c-5.27.22-9.92,2.86-11.8,6.77l-3,6.2H299.17C299.17,414.2,296.61,410.55,292.63,408.17Z"/><polygon class="cls-9" points="268.11 371.12 209.89 392.3 215.51 370.89 268.17 370.89 268.11 371.12"/><path class="cls-3" d="M366.87,370.89H132.5a8.22,8.22,0,0,1-8-8.4v-152a8.22,8.22,0,0,1,8-8.4H366.87a8.22,8.22,0,0,1,8,8.4v152A8.22,8.22,0,0,1,366.87,370.89Z"/><path class="cls-7" d="M366.87,371.36H132.5a8.71,8.71,0,0,1-8.5-8.87v-152a8.7,8.7,0,0,1,8.5-8.86H366.87a8.69,8.69,0,0,1,8.5,8.86v152A8.7,8.7,0,0,1,366.87,371.36ZM132.5,202.54a7.76,7.76,0,0,0-7.56,7.93v152a7.76,7.76,0,0,0,7.56,7.94H366.87a7.77,7.77,0,0,0,7.57-7.94v-152a7.77,7.77,0,0,0-7.57-7.93Z"/><path class="cls-8" d="M124.47,362.49v-152a8.23,8.23,0,0,1,7.91-8.39h-8.27a8.24,8.24,0,0,0-8,8.42V362.81a8.24,8.24,0,0,0,8,8.42H358.49a7.55,7.55,0,0,0,2.24-.34H132.5A8.22,8.22,0,0,1,124.47,362.49Z"/><path class="cls-7" d="M358.49,371.7H124.11a8.71,8.71,0,0,1-8.49-8.89V210.5a8.71,8.71,0,0,1,8.49-8.89h8.27v.93a7.8,7.8,0,0,0-7.45,7.93v152a7.76,7.76,0,0,0,7.56,7.94H363.85l-3,.91A8.07,8.07,0,0,1,358.49,371.7ZM124.11,202.54a7.78,7.78,0,0,0-7.56,8V362.81a7.78,7.78,0,0,0,7.56,8h5.34a8.9,8.9,0,0,1-5.45-8.28v-152a9,9,0,0,1,4.72-7.93Z"/><path class="cls-10" d="M139.76,248V213.86a2.62,2.62,0,0,1,2.62-2.62h216a2.62,2.62,0,0,1,2.62,2.62v127.4H139.76V307.47"/><path class="cls-7" d="M361,341.73H139.76a.47.47,0,0,1-.47-.47V307.47a.46.46,0,0,1,.47-.46.45.45,0,0,1,.46.46V340.8H360.57V213.86a2.16,2.16,0,0,0-2.15-2.16h-216a2.16,2.16,0,0,0-2.16,2.16V248a.46.46,0,0,1-.46.46.47.47,0,0,1-.47-.46V213.86a3.09,3.09,0,0,1,3.09-3.09h216a3.08,3.08,0,0,1,3.08,3.09v127.4A.47.47,0,0,1,361,341.73Z"/><path class="cls-7" d="M139.76,289.62a.46.46,0,0,1-.47-.46V263.75a.47.47,0,0,1,.47-.47.46.46,0,0,1,.46.47v25.41A.45.45,0,0,1,139.76,289.62Z"/><path class="cls-8" d="M366,370H133.49a7.88,7.88,0,0,1-8-7.8v-21H374v21A7.88,7.88,0,0,1,366,370Z"/><path class="cls-3" d="M366,370.51H133.49a8.36,8.36,0,0,1-8.43-8.27v-21a.47.47,0,0,1,.47-.46H374a.47.47,0,0,1,.47.46v21A8.36,8.36,0,0,1,366,370.51ZM126,341.73v20.51a7.43,7.43,0,0,0,7.5,7.34H366a7.43,7.43,0,0,0,7.5-7.34V341.73Z"/><path class="cls-3" d="M255.87,356.31a6.79,6.79,0,1,1-6.78-6.78A6.79,6.79,0,0,1,255.87,356.31Z"/><path class="cls-7" d="M249.09,363.56a7.25,7.25,0,1,1,7.25-7.25A7.26,7.26,0,0,1,249.09,363.56Zm0-13.57a6.32,6.32,0,1,0,6.32,6.32A6.33,6.33,0,0,0,249.09,350Z"/><path class="cls-11" d="M253.09,356.31a4,4,0,1,1-4-4A4,4,0,0,1,253.09,356.31Z"/><path class="cls-7" d="M249.09,360.78a4.47,4.47,0,1,1,4.46-4.47A4.47,4.47,0,0,1,249.09,360.78Zm0-8a3.54,3.54,0,1,0,3.53,3.53A3.54,3.54,0,0,0,249.09,352.78Z"/><path class="cls-11" d="M249.09,208.14h0a1.57,1.57,0,0,1-1.58-1.57h0a1.58,1.58,0,0,1,1.58-1.58h0a1.57,1.57,0,0,1,1.57,1.58h0A1.57,1.57,0,0,1,249.09,208.14Z"/><path class="cls-7" d="M249.09,208.61a2,2,0,1,1,2-2A2,2,0,0,1,249.09,208.61Zm0-3.15a1.11,1.11,0,1,0,1.11,1.11A1.11,1.11,0,0,0,249.09,205.46Z"/><path class="cls-7" d="M170.68,267a.47.47,0,0,1-.47-.47v-11a.47.47,0,0,1,.94,0v11A.47.47,0,0,1,170.68,267Z"/><path class="cls-7" d="M209.89,307.7a.46.46,0,0,1-.46-.47V293.3a.46.46,0,0,1,.46-.47.47.47,0,0,1,.47.47v13.93A.47.47,0,0,1,209.89,307.7Z"/><path class="cls-7" d="M247.32,267a.46.46,0,0,1-.46-.47v-11a.46.46,0,0,1,.46-.46.47.47,0,0,1,.47.46v11A.47.47,0,0,1,247.32,267Z"/><path class="cls-12" d="M209.41,267a.47.47,0,0,1-.47-.47v-11a.47.47,0,0,1,.93,0v11A.47.47,0,0,1,209.41,267Z"/><path class="cls-12" d="M247.21,308a.47.47,0,0,1-.46-.47V293.13a.47.47,0,0,1,.93,0V307.5A.47.47,0,0,1,247.21,308Z"/><path class="cls-12" d="M193.53,318.23h-11a.47.47,0,0,1-.47-.47.46.46,0,0,1,.47-.46h11a.46.46,0,0,1,.46.46A.47.47,0,0,1,193.53,318.23Z"/><rect class="cls-12" x="157.94" y="229.04" width="104.04" height="26.36" rx="1.06"/><path class="cls-7" d="M261,255.86H158.93a1.45,1.45,0,0,1-1.46-1.45V230a1.45,1.45,0,0,1,1.46-1.45H261a1.45,1.45,0,0,1,1.45,1.45v24.38A1.45,1.45,0,0,1,261,255.86ZM158.93,229.51a.52.52,0,0,0-.53.52v24.38a.52.52,0,0,0,.53.52H261a.52.52,0,0,0,.52-.52V230a.52.52,0,0,0-.52-.52Z"/><rect class="cls-3" x="158.17" y="266.75" width="25.89" height="25.89" rx="1.06"/><path class="cls-7" d="M183.07,293.11H159.16a1.45,1.45,0,0,1-1.46-1.45V267.74a1.45,1.45,0,0,1,1.46-1.45h23.91a1.45,1.45,0,0,1,1.46,1.45v23.92A1.45,1.45,0,0,1,183.07,293.11Zm-23.91-25.89a.52.52,0,0,0-.53.52v23.92a.52.52,0,0,0,.53.52h23.91a.52.52,0,0,0,.53-.52V267.74a.52.52,0,0,0-.53-.52Z"/><rect class="cls-7" x="197.01" y="266.75" width="25.89" height="25.89" rx="1.06"/><path class="cls-7" d="M221.91,293.11H198a1.46,1.46,0,0,1-1.46-1.45V267.74a1.46,1.46,0,0,1,1.46-1.45h23.91a1.45,1.45,0,0,1,1.46,1.45v23.92A1.45,1.45,0,0,1,221.91,293.11ZM198,267.22a.52.52,0,0,0-.52.52v23.92a.52.52,0,0,0,.52.52h23.91a.52.52,0,0,0,.53-.52V267.74a.52.52,0,0,0-.53-.52Z"/><rect class="cls-3" x="235.04" y="266.75" width="25.89" height="25.89" rx="1.06"/><path class="cls-7" d="M260,293.11H236a1.45,1.45,0,0,1-1.45-1.45V267.74a1.45,1.45,0,0,1,1.45-1.45H260a1.45,1.45,0,0,1,1.45,1.45v23.92A1.45,1.45,0,0,1,260,293.11ZM236,267.22a.52.52,0,0,0-.52.52v23.92a.52.52,0,0,0,.52.52H260a.52.52,0,0,0,.52-.52V267.74a.52.52,0,0,0-.52-.52Z"/><rect class="cls-3" x="193.77" y="307.9" width="66.58" height="19.88" rx="8.18"/><path class="cls-7" d="M250.42,328.25H203.71a10.41,10.41,0,0,1,0-20.81h46.71a10.41,10.41,0,0,1,0,20.81Zm-46.71-19.88a9.48,9.48,0,0,0,0,18.95h46.71a9.48,9.48,0,0,0,0-18.95Z"/><path class="cls-3" d="M305,287.63H283.45a.47.47,0,0,1,0-.93H305a.47.47,0,0,1,0,.93Z"/><path class="cls-3" d="M340,287.63H313.87a.47.47,0,0,1,0-.93H340a.47.47,0,1,1,0,.93Z"/><path class="cls-3" d="M322.78,322.27H283.45a.47.47,0,0,1,0-.93h39.33a.47.47,0,1,1,0,.93Z"/><path class="cls-3" d="M345.35,299.63h-61.9a.47.47,0,0,1,0-.93h61.9a.47.47,0,1,1,0,.93Z"/><path class="cls-3" d="M303.07,311H283.45a.47.47,0,0,1,0-.93h19.62a.47.47,0,0,1,0,.93Z"/><path class="cls-3" d="M344.81,311H309.1a.47.47,0,1,1,0-.93h35.71a.47.47,0,0,1,0,.93Z"/><path class="cls-7" d="M282.57,228.43h65.32a0,0,0,0,1,0,0v6.29a1.55,1.55,0,0,1-1.55,1.55H284.57a2,2,0,0,1-2-2v-5.84A0,0,0,0,1,282.57,228.43Z" transform="translate(630.45 464.7) rotate(180)"/><path class="cls-3" d="M291.15,233.93a1.67,1.67,0,1,1,1.67-1.67A1.67,1.67,0,0,1,291.15,233.93Zm0-2.41a.74.74,0,1,0,.74.74A.74.74,0,0,0,291.15,231.52Z"/><path class="cls-3" d="M295.85,233.93a1.67,1.67,0,1,1,1.67-1.67A1.67,1.67,0,0,1,295.85,233.93Zm0-2.41a.74.74,0,1,0,.74.74A.74.74,0,0,0,295.85,231.52Z"/><path class="cls-3" d="M286.47,233.93a1.67,1.67,0,1,1,1.68-1.67A1.67,1.67,0,0,1,286.47,233.93Zm0-2.41a.74.74,0,1,0,.74.74A.74.74,0,0,0,286.47,231.52Z"/><rect class="cls-3" x="282.54" y="236.28" width="65.33" height="38.39" rx="0.23" transform="translate(630.4 510.94) rotate(180)"/><path class="cls-7" d="M339.35,246.05H310a.47.47,0,0,1-.46-.47.46.46,0,0,1,.46-.46h29.37a.46.46,0,0,1,.47.46A.47.47,0,0,1,339.35,246.05Z"/><path class="cls-12" d="M320.3,250.5H310a.47.47,0,0,1,0-.93H320.3a.47.47,0,1,1,0,.93Z"/><path class="cls-7" d="M337.07,250.5H324.54a.47.47,0,0,1,0-.93h12.53a.47.47,0,1,1,0,.93Z"/><path class="cls-12" d="M328.81,264H310a.46.46,0,0,1-.46-.46.47.47,0,0,1,.46-.47h18.83a.47.47,0,0,1,.46.47A.46.46,0,0,1,328.81,264Z"/><path class="cls-12" d="M339.61,255.19H310a.47.47,0,0,1,0-.94h29.63a.47.47,0,1,1,0,.94Z"/><path class="cls-7" d="M319.37,259.64H310a.47.47,0,0,1,0-.93h9.39a.47.47,0,1,1,0,.93Z"/><path class="cls-12" d="M339.35,259.64H322.26a.47.47,0,1,1,0-.93h17.09a.47.47,0,1,1,0,.93Z"/><path class="cls-12" d="M289.84,253.91a7.39,7.39,0,0,1,6.08-7.26l-.28-1.69a9.07,9.07,0,0,0-7.43,10.46l1.74-.29A8.26,8.26,0,0,1,289.84,253.91Z"/><path class="cls-3" d="M306.22,254.22a8.77,8.77,0,0,0-.13-1.83h0A8.77,8.77,0,0,1,306.22,254.22Z"/><path class="cls-11" d="M297.22,261.28a7.37,7.37,0,0,1-7.27-6.15l-1.74.29a9.08,9.08,0,0,0,10.46,7.43l-.28-1.67A7.59,7.59,0,0,1,297.22,261.28Z"/><path class="cls-7" d="M306.09,252.39h0A9.06,9.06,0,0,0,295.64,245l.28,1.69a8,8,0,0,1,1.3-.12,7.37,7.37,0,0,1,1.17,14.65l.28,1.67A9.07,9.07,0,0,0,306,256a8.58,8.58,0,0,0,.24-1.77A8.77,8.77,0,0,0,306.09,252.39Z"/><g class="cls-13"><path class="cls-14" d="M538.76,206.52l-4.09-12.92a2,2,0,0,0-2.52-1.32l-8.35,2.64a2,2,0,0,1-2.27-.8,38.88,38.88,0,0,0-6.35-7.55,2,2,0,0,1-.4-2.38l4-7.77a2,2,0,0,0-.86-2.71l-12-6.25a2,2,0,0,0-2.72.85l-4,7.77a2,2,0,0,1-2.18,1,38.8,38.8,0,0,0-9.83-.86,2,2,0,0,1-2-1.4l-2.64-8.35a2,2,0,0,0-2.52-1.31l-12.93,4.09a2,2,0,0,0-1.31,2.52l2.64,8.35a2,2,0,0,1-.8,2.27,38.88,38.88,0,0,0-7.55,6.35,2,2,0,0,1-2.39.4l-7.76-4a2,2,0,0,0-2.72.86L441,198a2,2,0,0,0,.86,2.71l7.77,4a2,2,0,0,1,1,2.17,38.8,38.8,0,0,0-.85,9.83,2,2,0,0,1-1.4,2l-8.35,2.64a2,2,0,0,0-1.31,2.53l4.08,12.92a2,2,0,0,0,2.53,1.31l8.34-2.64a2,2,0,0,1,2.28.8,39.19,39.19,0,0,0,6.34,7.56,2,2,0,0,1,.4,2.38l-4,7.77a2,2,0,0,0,.85,2.71l12,6.25a2,2,0,0,0,2.71-.86l4-7.77a2,2,0,0,1,2.18-1,38.8,38.8,0,0,0,9.83.85,2,2,0,0,1,2,1.41l2.64,8.34a2,2,0,0,0,2.52,1.31l12.93-4.08a2,2,0,0,0,1.31-2.52l-2.64-8.35a2,2,0,0,1,.8-2.28,38.48,38.48,0,0,0,7.55-6.34,2,2,0,0,1,2.38-.4l7.77,4a2,2,0,0,0,2.71-.85l6.25-12a2,2,0,0,0-.85-2.71l-7.77-4a2,2,0,0,1-1-2.18,38.76,38.76,0,0,0,.85-9.82,2,2,0,0,1,1.4-2l8.35-2.64A2,2,0,0,0,538.76,206.52ZM495.26,236a23.16,23.16,0,1,1,16.56-25A23.16,23.16,0,0,1,495.26,236Z"/></g><path class="cls-11" d="M538.76,203.75l-4.09-12.93a2,2,0,0,0-2.52-1.31l-8.35,2.64a2,2,0,0,1-2.27-.8,38.88,38.88,0,0,0-6.35-7.55,2,2,0,0,1-.4-2.38l4-7.77a2,2,0,0,0-.86-2.71l-12-6.26a2,2,0,0,0-2.72.86l-4,7.77a2,2,0,0,1-2.18,1,38.8,38.8,0,0,0-9.83-.85,2,2,0,0,1-2-1.4l-2.64-8.35a2,2,0,0,0-2.52-1.31l-12.93,4.08a2,2,0,0,0-1.31,2.53l2.64,8.34a2,2,0,0,1-.8,2.28,38.53,38.53,0,0,0-7.55,6.35,2,2,0,0,1-2.39.4l-7.76-4a2,2,0,0,0-2.72.86l-6.25,12a2,2,0,0,0,.86,2.72l7.77,4a2,2,0,0,1,1,2.18,38.8,38.8,0,0,0-.85,9.83,2,2,0,0,1-1.4,2l-8.35,2.64a2,2,0,0,0-1.31,2.52l4.08,12.93a2,2,0,0,0,2.53,1.31l8.34-2.64a2,2,0,0,1,2.28.8,38.83,38.83,0,0,0,6.34,7.55,2,2,0,0,1,.4,2.39l-4,7.76a2,2,0,0,0,.85,2.71l12,6.26a2,2,0,0,0,2.71-.86l4-7.77a2,2,0,0,1,2.18-1,38.8,38.8,0,0,0,9.83.85,2,2,0,0,1,2,1.4l2.64,8.35a2,2,0,0,0,2.52,1.31l12.93-4.08a2,2,0,0,0,1.31-2.53l-2.64-8.34a2,2,0,0,1,.8-2.28,38.53,38.53,0,0,0,7.55-6.35,2,2,0,0,1,2.38-.39l7.77,4a2,2,0,0,0,2.71-.86l6.25-12a2,2,0,0,0-.85-2.71l-7.77-4a2,2,0,0,1-1-2.18,38.8,38.8,0,0,0,.85-9.83,2,2,0,0,1,1.4-2l8.35-2.64A2,2,0,0,0,538.76,203.75Zm-43.5,29.51a23.16,23.16,0,1,1,16.56-25A23.16,23.16,0,0,1,495.26,233.26Z"/><path class="cls-12" d="M539,198.91,534.89,186a2,2,0,0,0-2.52-1.31L524,187.31a2,2,0,0,1-2.28-.8A38.84,38.84,0,0,0,515.4,179a2,2,0,0,1-.4-2.38l4-7.77a2,2,0,0,0-.86-2.71l-12-6.25a2,2,0,0,0-2.71.86l-4,7.77a2,2,0,0,1-2.18,1,38.76,38.76,0,0,0-9.82-.85,2,2,0,0,1-2-1.41l-2.63-8.34a2,2,0,0,0-2.53-1.31l-12.92,4.08A2,2,0,0,0,466,164.2l2.63,8.35a2,2,0,0,1-.8,2.28,38.48,38.48,0,0,0-7.55,6.34,2,2,0,0,1-2.38.4l-7.77-4a2,2,0,0,0-2.71.85l-6.25,12a2,2,0,0,0,.86,2.71l7.77,4a2,2,0,0,1,1,2.18,38.31,38.31,0,0,0-.85,9.82,2,2,0,0,1-1.41,2l-8.34,2.64A2,2,0,0,0,439,216.3l4.09,12.92a2,2,0,0,0,2.52,1.32l8.35-2.64a2,2,0,0,1,2.28.8,38.48,38.48,0,0,0,6.34,7.55,2,2,0,0,1,.4,2.38l-4,7.77a2,2,0,0,0,.86,2.71l12,6.25a2,2,0,0,0,2.71-.85l4-7.77a2,2,0,0,1,2.17-1.05,38.88,38.88,0,0,0,9.83.86,2,2,0,0,1,2,1.4l2.63,8.35a2,2,0,0,0,2.53,1.31l12.92-4.09A2,2,0,0,0,511.9,251l-2.63-8.35a2,2,0,0,1,.8-2.27,38.88,38.88,0,0,0,7.55-6.35,2,2,0,0,1,2.38-.4l7.77,4a2,2,0,0,0,2.71-.86l6.25-12a2,2,0,0,0-.86-2.71l-7.77-4a2,2,0,0,1-1-2.18,38.34,38.34,0,0,0,.85-9.83,2,2,0,0,1,1.41-2l8.34-2.64A2,2,0,0,0,539,198.91Zm-43.5,30.8a23.15,23.15,0,1,1,16.56-25A23.15,23.15,0,0,1,495.48,229.71Z"/><path class="cls-7" d="M497.06,258.17a2.48,2.48,0,0,1-2.36-1.73l-2.64-8.35a1.52,1.52,0,0,0-1.5-1.08,39.07,39.07,0,0,1-9.94-.86,1.53,1.53,0,0,0-1.67.8l-4,7.77a2.44,2.44,0,0,1-1.45,1.22,2.48,2.48,0,0,1-1.89-.16l-12-6.26a2.47,2.47,0,0,1-1.06-3.33l4-7.77a1.53,1.53,0,0,0-.31-1.83,39.1,39.1,0,0,1-6.41-7.64,1.53,1.53,0,0,0-1.75-.61L445.71,231a2.47,2.47,0,0,1-3.1-1.61l-4.09-12.93a2.48,2.48,0,0,1,1.62-3.11l8.34-2.64a1.52,1.52,0,0,0,1.08-1.5,39.07,39.07,0,0,1,.86-9.94,1.52,1.52,0,0,0-.8-1.67l-7.77-4a2.46,2.46,0,0,1-1.22-1.46,2.41,2.41,0,0,1,.17-1.88l6.25-12A2.44,2.44,0,0,1,448.5,177a2.48,2.48,0,0,1,1.89.16l7.76,4a1.53,1.53,0,0,0,1.83-.3,38.8,38.8,0,0,1,7.64-6.42,1.53,1.53,0,0,0,.61-1.75l-2.64-8.34a2.49,2.49,0,0,1,1.62-3.11l12.92-4.09a2.48,2.48,0,0,1,3.11,1.62l2.64,8.34a1.53,1.53,0,0,0,1.5,1.08,39,39,0,0,1,9.94.86,1.52,1.52,0,0,0,1.67-.8l4-7.77a2.48,2.48,0,0,1,3.34-1l12,6.25a2.47,2.47,0,0,1,1.06,3.34l-4,7.77a1.53,1.53,0,0,0,.3,1.82,39.2,39.2,0,0,1,6.43,7.64,1.51,1.51,0,0,0,1.74.61l8.35-2.64a2.47,2.47,0,0,1,3.1,1.62l4.09,12.92a2.48,2.48,0,0,1-1.61,3.11l-8.35,2.64a1.53,1.53,0,0,0-1.08,1.5,39.14,39.14,0,0,1-.86,10,1.5,1.5,0,0,0,.8,1.66l7.77,4a2.48,2.48,0,0,1,1,3.34l-6.25,12a2.47,2.47,0,0,1-3.34,1.05l-7.76-4a1.51,1.51,0,0,0-1.83.3,39.5,39.5,0,0,1-7.64,6.42,1.51,1.51,0,0,0-.61,1.74l2.64,8.35a2.49,2.49,0,0,1-1.62,3.11l-12.92,4.08A2.45,2.45,0,0,1,497.06,258.17Zm-6.44-12.09a2.46,2.46,0,0,1,2.33,1.73l2.64,8.35a1.54,1.54,0,0,0,1.94,1l12.92-4.08a1.55,1.55,0,0,0,1-1.94l-2.64-8.35a2.47,2.47,0,0,1,1-2.81,38,38,0,0,0,7.46-6.26,2.46,2.46,0,0,1,2.94-.5l7.77,4a1.56,1.56,0,0,0,1.18.1,1.59,1.59,0,0,0,.91-.76l6.25-12a1.55,1.55,0,0,0-.66-2.08l-7.77-4a2.45,2.45,0,0,1-1.28-2.69,38.63,38.63,0,0,0,.84-9.71,2.47,2.47,0,0,1,1.73-2.43l8.35-2.64a1.53,1.53,0,0,0,1-1.93h0l-4.08-12.93a1.59,1.59,0,0,0-.76-.91,1.56,1.56,0,0,0-1.18-.1l-8.35,2.64a2.45,2.45,0,0,1-2.81-1,37.67,37.67,0,0,0-6.27-7.46,2.46,2.46,0,0,1-.49-2.94l4-7.77a1.54,1.54,0,0,0-.65-2.08l-12-6.25a1.55,1.55,0,0,0-2.09.65l-4,7.77a2.47,2.47,0,0,1-2.69,1.29,38.18,38.18,0,0,0-9.71-.85A2.47,2.47,0,0,1,485,167.4l-2.64-8.35a1.55,1.55,0,0,0-1.94-1l-12.92,4.09a1.5,1.5,0,0,0-.91.76,1.53,1.53,0,0,0-.1,1.17l2.64,8.35a2.47,2.47,0,0,1-1,2.81,37.67,37.67,0,0,0-7.46,6.27,2.46,2.46,0,0,1-2.95.49L450,178a1.56,1.56,0,0,0-2.09.66l-6.25,12a1.55,1.55,0,0,0,.66,2.08l7.77,4a2.44,2.44,0,0,1,1.28,2.69,38.59,38.59,0,0,0-.84,9.71,2.45,2.45,0,0,1-1.73,2.42l-8.34,2.64a1.54,1.54,0,0,0-1,1.94l4.08,12.92a1.54,1.54,0,0,0,1.94,1l8.35-2.64a2.47,2.47,0,0,1,2.81,1,38.25,38.25,0,0,0,6.27,7.46,2.46,2.46,0,0,1,.49,2.94l-4,7.76a1.54,1.54,0,0,0,.65,2.09L472,255a1.56,1.56,0,0,0,2.09-.66l4-7.77a2.47,2.47,0,0,1,2.69-1.28,38.21,38.21,0,0,0,9.71.84Zm-1.58-15a23.58,23.58,0,1,1,6.57-.92l-.13-.45.13.45A23.79,23.79,0,0,1,489,231.08Zm0-46.29a22.65,22.65,0,0,0-22.53,25.37,22.69,22.69,0,1,0,22.53-25.37Z"/><path class="cls-7" d="M476.28,209l0,0a1.12,1.12,0,0,1-.58-1,1.1,1.1,0,0,1,.58-1l6.55-3.41a1.09,1.09,0,0,1,1.61,1,1.07,1.07,0,0,1-.55.93l-4.77,2.5,4.73,2.57a1,1,0,0,1,.58,1,1.09,1.09,0,0,1-1.08,1.1,1,1,0,0,1-.51-.13Z"/><path class="cls-7" d="M485.44,214.81a1.46,1.46,0,0,1,.07-.4L490.16,200a1.37,1.37,0,0,1,1.3-.94,1.4,1.4,0,0,1,1.35,1.49,1.49,1.49,0,0,1-.07.43l-4.65,14.3a1.39,1.39,0,0,1-1.3.95,1.27,1.27,0,0,1-.39-.06A1.43,1.43,0,0,1,485.44,214.81Z"/><path class="cls-7" d="M494.1,205.5a1.07,1.07,0,0,1-.55-.93,1.09,1.09,0,0,1,1.61-1l6.55,3.41a1.13,1.13,0,0,1,.58,1,1.12,1.12,0,0,1-.58,1l-.07,0-6.49,3.52a1,1,0,0,1-.51.13,1.09,1.09,0,0,1-1.08-1.1,1,1,0,0,1,.58-1l4.72-2.57Z"/><path class="cls-3" d="M458.16,201.6h-.1a.47.47,0,0,1-.36-.55,32,32,0,0,1,31.35-25.58h0a.47.47,0,0,1,0,.93,31.74,31.74,0,0,0-8.63,1.23,31.42,31.42,0,0,0-21.81,23.61A.46.46,0,0,1,458.16,201.6Z"/><path class="cls-3" d="M489,239.47a32,32,0,0,1-31.77-28.2.46.46,0,1,1,.92-.11A31.07,31.07,0,1,0,498.3,177.8a.47.47,0,0,1,.27-.89,32,32,0,0,1-.63,61.31A32.64,32.64,0,0,1,489,239.47Z"/><path class="cls-3" d="M489,234a26.55,26.55,0,1,1,7.38-1A26.51,26.51,0,0,1,489,234Zm0-52.4a25.85,25.85,0,1,0,7.18,50.69h0a25.85,25.85,0,0,0-7.18-50.69Z"/><rect class="cls-7" x="467.82" y="149.62" width="4.19" height="18.15" rx="1.72"/><path class="cls-7" d="M470.12,168.24h-.42a2.35,2.35,0,0,1-2.35-2.35V151.51a2.35,2.35,0,0,1,2.35-2.35h.42a2.35,2.35,0,0,1,2.35,2.35v14.38A2.35,2.35,0,0,1,470.12,168.24Zm-.42-18.15a1.42,1.42,0,0,0-1.42,1.42v14.38a1.43,1.43,0,0,0,1.42,1.42h.42a1.42,1.42,0,0,0,1.42-1.42V151.51a1.41,1.41,0,0,0-1.42-1.42Z"/><path class="cls-7" d="M385.66,258.71V131a12.88,12.88,0,0,1,12.88-12.88h-4.38a12.94,12.94,0,0,0-13,12.94V258.65a12.94,12.94,0,0,0,13,12.94h4.38A12.88,12.88,0,0,1,385.66,258.71Z"/><path class="cls-15" d="M398.54,272.06h-4.38a13.42,13.42,0,0,1-13.41-13.41V131.07a13.42,13.42,0,0,1,13.41-13.41h4.38v.93A12.43,12.43,0,0,0,386.13,131v127.7a12.43,12.43,0,0,0,12.41,12.42ZM393.61,118.6a12.49,12.49,0,0,0-11.93,12.47V258.65a12.5,12.5,0,0,0,11.93,12.47,13.39,13.39,0,0,1-8.41-12.41V131A13.39,13.39,0,0,1,393.61,118.6Z"/><path class="cls-11" d="M383.57,156.51h0a1.1,1.1,0,0,1-1.09-1.1v-16a1.09,1.09,0,0,1,1.09-1.09h0a1.09,1.09,0,0,1,1.1,1.09v16A1.1,1.1,0,0,1,383.57,156.51Z"/><path class="cls-7" d="M383.57,157a1.56,1.56,0,0,1-1.56-1.56v-16a1.56,1.56,0,0,1,3.12,0v16A1.56,1.56,0,0,1,383.57,157Zm0-18.15a.63.63,0,0,0-.63.63v16a.63.63,0,1,0,1.26,0v-16A.63.63,0,0,0,383.57,138.82Z"/><path class="cls-11" d="M383.57,180.54h0a1.09,1.09,0,0,1-1.09-1.1V163.49a1.09,1.09,0,0,1,1.09-1.1h0a1.1,1.1,0,0,1,1.1,1.1v15.95A1.1,1.1,0,0,1,383.57,180.54Z"/><path class="cls-7" d="M383.57,181a1.56,1.56,0,0,1-1.56-1.56V163.49a1.56,1.56,0,1,1,3.12,0v15.95A1.56,1.56,0,0,1,383.57,181Zm0-18.15a.64.64,0,0,0-.63.64v15.95a.63.63,0,0,0,1.26,0V163.49A.64.64,0,0,0,383.57,162.85Z"/><path class="cls-8" d="M456.76,118.13H398.54A12.88,12.88,0,0,0,385.66,131v127.7a12.88,12.88,0,0,0,12.88,12.88h58.22a12.88,12.88,0,0,0,12.88-12.88V131A12.88,12.88,0,0,0,456.76,118.13Z"/><path class="cls-7" d="M456.76,272.06H398.54a13.36,13.36,0,0,1-13.34-13.35V131a13.36,13.36,0,0,1,13.34-13.35h58.22A13.36,13.36,0,0,1,470.1,131v127.7A13.36,13.36,0,0,1,456.76,272.06ZM398.54,118.59A12.43,12.43,0,0,0,386.13,131v127.7a12.43,12.43,0,0,0,12.41,12.42h58.22a12.43,12.43,0,0,0,12.41-12.42V131a12.43,12.43,0,0,0-12.41-12.42Z"/><path class="cls-3" d="M427.65,129a2.19,2.19,0,1,1,2.19-2.19A2.19,2.19,0,0,1,427.65,129Zm0-3.68a1.49,1.49,0,1,0,1.49,1.49A1.49,1.49,0,0,0,427.65,125.27Z"/><path class="cls-3" d="M421.63,127.94H413a1.15,1.15,0,0,1,0-2.3h8.59a1.15,1.15,0,0,1,0,2.3Zm-8.59-1.6a.45.45,0,1,0,0,.9h8.59a.45.45,0,0,0,0-.9Z"/><path class="cls-3" d="M442.45,127.94h-8.58a1.15,1.15,0,1,1,0-2.3h8.58a1.15,1.15,0,1,1,0,2.3Zm-8.58-1.6a.45.45,0,0,0,0,.9h8.58a.45.45,0,0,0,0-.9Z"/><rect class="cls-3" x="392.22" y="132.62" width="70.87" height="125.99"/><path class="cls-7" d="M463.08,259.07H392.22a.47.47,0,0,1-.47-.46v-126a.46.46,0,0,1,.47-.46h70.86a.46.46,0,0,1,.47.46v126A.47.47,0,0,1,463.08,259.07Zm-70.4-.93h69.94v-125H392.68Z"/><rect class="cls-7" x="392.7" y="133.09" width="69.9" height="9.68"/><path class="cls-3" d="M445.49,139.45a1.57,1.57,0,1,1,1.57-1.57A1.57,1.57,0,0,1,445.49,139.45Zm0-2.43a.87.87,0,0,0,0,1.73.87.87,0,1,0,0-1.73Z"/><path class="cls-3" d="M451.81,139.45a1.57,1.57,0,1,1,1.57-1.57A1.57,1.57,0,0,1,451.81,139.45Zm0-2.43a.87.87,0,0,0,0,1.73.87.87,0,1,0,0-1.73Z"/><path class="cls-3" d="M458.24,139.45a1.57,1.57,0,1,1,1.56-1.57A1.57,1.57,0,0,1,458.24,139.45Zm0-2.43a.87.87,0,1,0,.87.86A.86.86,0,0,0,458.24,137Z"/><path class="cls-12" d="M425.47,157.66H403.94a.46.46,0,0,1-.47-.46.47.47,0,0,1,.47-.47h21.53a.47.47,0,0,1,.47.47A.46.46,0,0,1,425.47,157.66Z"/><path class="cls-7" d="M438.54,157.66h-7.69a.46.46,0,0,1-.47-.46.47.47,0,0,1,.47-.47h7.69a.47.47,0,0,1,.47.47A.46.46,0,0,1,438.54,157.66Z"/><path class="cls-7" d="M451.74,157.66h-7a.46.46,0,0,1-.47-.46.47.47,0,0,1,.47-.47h7a.47.47,0,0,1,.47.47A.46.46,0,0,1,451.74,157.66Z"/><path class="cls-12" d="M451.74,174.33H430.21a.46.46,0,0,1-.46-.46.47.47,0,0,1,.46-.47h21.53a.47.47,0,0,1,.47.47A.46.46,0,0,1,451.74,174.33Z"/><path class="cls-7" d="M424.84,174.33h-7.7a.46.46,0,0,1-.47-.46.47.47,0,0,1,.47-.47h7.7a.47.47,0,0,1,.46.47A.46.46,0,0,1,424.84,174.33Z"/><path class="cls-7" d="M411,174.33h-7.05a.46.46,0,0,1-.47-.46.47.47,0,0,1,.47-.47H411a.46.46,0,0,1,.46.47A.45.45,0,0,1,411,174.33Z"/><path class="cls-12" d="M415,165.91H403.94a.46.46,0,0,1-.47-.46.47.47,0,0,1,.47-.47H415a.47.47,0,0,1,.47.47A.46.46,0,0,1,415,165.91Z"/><path class="cls-7" d="M438.54,165.91h-18.8a.46.46,0,0,1-.47-.46.47.47,0,0,1,.47-.47h18.8a.47.47,0,0,1,.47.47A.46.46,0,0,1,438.54,165.91Z"/><path class="cls-12" d="M451.74,165.91h-7a.46.46,0,0,1-.47-.46.47.47,0,0,1,.47-.47h7a.47.47,0,0,1,.47.47A.46.46,0,0,1,451.74,165.91Z"/><path class="cls-12" d="M425.47,181.74H403.94a.47.47,0,1,1,0-.93h21.53a.47.47,0,1,1,0,.93Z"/><path class="cls-7" d="M438.54,181.74h-7.69a.47.47,0,1,1,0-.93h7.69a.47.47,0,1,1,0,.93Z"/><path class="cls-12" d="M425.47,208.46H403.94a.47.47,0,1,1,0-.93h21.53a.47.47,0,1,1,0,.93Z"/><path class="cls-7" d="M438.54,208.46h-7.69a.47.47,0,1,1,0-.93h7.69a.47.47,0,1,1,0,.93Z"/><path class="cls-7" d="M451.74,181.74h-7a.47.47,0,1,1,0-.93h7a.47.47,0,1,1,0,.93Z"/><path class="cls-12" d="M451.74,198.41H430.21a.47.47,0,0,1,0-.93h21.53a.47.47,0,1,1,0,.93Z"/><path class="cls-7" d="M424.84,198.41h-7.7a.47.47,0,1,1,0-.93h7.7a.47.47,0,0,1,0,.93Z"/><path class="cls-7" d="M411,198.41h-7.05a.47.47,0,1,1,0-.93H411a.47.47,0,0,1,0,.93Z"/><path class="cls-12" d="M424.84,217.49h-7.7a.46.46,0,0,1-.47-.46.47.47,0,0,1,.47-.47h7.7a.47.47,0,0,1,.46.47A.46.46,0,0,1,424.84,217.49Z"/><path class="cls-12" d="M411,217.49h-7.05a.46.46,0,0,1-.47-.46.47.47,0,0,1,.47-.47H411a.46.46,0,0,1,.46.47A.45.45,0,0,1,411,217.49Z"/><path class="cls-12" d="M415,190H403.94a.47.47,0,1,1,0-.93H415a.47.47,0,1,1,0,.93Z"/><path class="cls-7" d="M438.54,190h-18.8a.47.47,0,1,1,0-.93h18.8a.47.47,0,1,1,0,.93Z"/><path class="cls-12" d="M451.74,190h-7a.47.47,0,1,1,0-.93h7a.47.47,0,1,1,0,.93Z"/><path class="cls-7" d="M422.6,226.36H403.8a.47.47,0,1,1,0-.93h18.8a.47.47,0,1,1,0,.93Z"/><path class="cls-12" d="M410.88,234.67h-7a.47.47,0,1,1,0-.93h7a.47.47,0,1,1,0,.93Z"/><rect class="cls-11" x="59.21" y="321.8" width="102.11" height="72.76" rx="2.03" transform="translate(220.52 716.37) rotate(180)"/><path class="cls-16" d="M61.24,394.56h98a2,2,0,0,0,2-2v-68.7a2,2,0,0,0-2-2h-98a2,2,0,0,0-2,2v68.7A2,2,0,0,0,61.24,394.56Z"/><path class="cls-12" d="M64.93,316.29H167a0,0,0,0,1,0,0v9.84a2.42,2.42,0,0,1-2.42,2.42H68.06a3.13,3.13,0,0,1-3.13-3.13v-9.13A0,0,0,0,1,64.93,316.29Z" transform="translate(231.95 644.84) rotate(180)"/><path class="cls-7" d="M167.49,329h-103V318.55a2.72,2.72,0,0,1,2.72-2.72h96.93a3.38,3.38,0,0,1,3.38,3.38Zm-102.1-.93H166.56v-8.87a2.45,2.45,0,0,0-2.45-2.45H67.18a1.79,1.79,0,0,0-1.79,1.79Z"/><path class="cls-3" d="M78.34,324.63a2.36,2.36,0,1,1,2.35-2.35A2.35,2.35,0,0,1,78.34,324.63Zm0-3.78a1.43,1.43,0,1,0,1.42,1.43A1.42,1.42,0,0,0,78.34,320.85Z"/><path class="cls-3" d="M85.7,324.63A2.36,2.36,0,1,1,88,322.28,2.35,2.35,0,0,1,85.7,324.63Zm0-3.78a1.43,1.43,0,1,0,1.41,1.43A1.42,1.42,0,0,0,85.7,320.85Z"/><path class="cls-3" d="M71,324.63a2.36,2.36,0,1,1,2.35-2.35A2.35,2.35,0,0,1,71,324.63Zm0-3.78a1.43,1.43,0,1,0,1.42,1.43A1.43,1.43,0,0,0,71,320.85Z"/><rect class="cls-3" x="64.89" y="328.55" width="102.11" height="60" rx="0.35" transform="translate(231.88 717.1) rotate(180)"/><path class="cls-7" d="M166.66,389H65.21a.8.8,0,0,1-.79-.8V328.88a.79.79,0,0,1,.79-.79H166.66a.79.79,0,0,1,.8.79v59.34A.8.8,0,0,1,166.66,389Zm-101.31-.94H166.53V329H65.35Z"/><path class="cls-7" d="M153.68,343.57h-45.9a.47.47,0,0,1,0-.94h45.9a.47.47,0,0,1,0,.94Z"/><path class="cls-12" d="M123.91,350.53H107.78a.47.47,0,0,1-.46-.47.46.46,0,0,1,.46-.46h16.13a.46.46,0,0,1,.46.46A.47.47,0,0,1,123.91,350.53Z"/><path class="cls-7" d="M150.12,350.53H130.54a.47.47,0,0,1-.47-.47.46.46,0,0,1,.47-.46h19.58a.45.45,0,0,1,.46.46A.46.46,0,0,1,150.12,350.53Z"/><path class="cls-12" d="M137.2,371.66H107.78a.47.47,0,0,1,0-.93H137.2a.47.47,0,1,1,0,.93Z"/><path class="cls-12" d="M154.09,357.85H107.78a.47.47,0,0,1-.46-.47.46.46,0,0,1,.46-.46h46.31a.46.46,0,0,1,.46.46A.47.47,0,0,1,154.09,357.85Z"/><path class="cls-7" d="M122.45,364.81H107.78a.47.47,0,0,1,0-.93h14.67a.47.47,0,1,1,0,.93Z"/><path class="cls-12" d="M153.68,364.81H127a.47.47,0,1,1,0-.93h26.71a.47.47,0,1,1,0,.93Z"/><path class="cls-12" d="M76.31,356.11a11.53,11.53,0,0,1,9.5-11.34l-.45-2.64a14.19,14.19,0,0,0-11.61,16.35l2.73-.46A11,11,0,0,1,76.31,356.11Z"/><path class="cls-3" d="M101.9,356.61a14,14,0,0,0-.2-2.87h0A14,14,0,0,1,101.9,356.61Z"/><path class="cls-11" d="M87.83,367.63A11.51,11.51,0,0,1,76.48,358l-2.73.46a14.17,14.17,0,0,0,16.35,11.6l-.44-2.6A12.32,12.32,0,0,1,87.83,367.63Z"/><path class="cls-7" d="M101.7,353.74h0a14.17,14.17,0,0,0-16.34-11.61l.45,2.64a12.24,12.24,0,0,1,2-.18,11.52,11.52,0,0,1,1.83,22.89l.44,2.6a14.16,14.16,0,0,0,11.8-13.47A14,14,0,0,0,101.7,353.74Z"/><circle class="cls-7" cx="163.27" cy="322.12" r="16.73"/><path class="cls-7" d="M163.27,339.32a17.2,17.2,0,1,1,17.2-17.2A17.22,17.22,0,0,1,163.27,339.32Zm0-33.47a16.27,16.27,0,1,0,16.27,16.27A16.28,16.28,0,0,0,163.27,305.85Z"/><circle class="cls-7" cx="164.78" cy="320.49" r="16.73"/><path class="cls-7" d="M164.78,337.69a17.2,17.2,0,1,1,17.2-17.2A17.21,17.21,0,0,1,164.78,337.69Zm0-33.47a16.27,16.27,0,1,0,16.27,16.27A16.29,16.29,0,0,0,164.78,304.22Z"/><path class="cls-3" d="M172.48,328.29a7.89,7.89,0,0,0-15.77,0S172.48,328.33,172.48,328.29Z"/><path class="cls-7" d="M165.45,328.78H159.5c-3.25,0-3.25,0-3.25-.48a8.35,8.35,0,1,1,16.7,0C173,328.78,173,328.78,165.45,328.78Zm7-.49h0Zm-15.28-.46c2.3,0,12.55,0,14.81,0a7.42,7.42,0,0,0-14.81,0Z"/><path class="cls-3" d="M160.17,314.84a4.48,4.48,0,1,0,4.48-4.48A4.48,4.48,0,0,0,160.17,314.84Z"/><path class="cls-7" d="M164.65,319.78a4.95,4.95,0,1,1,4.94-4.94A5,5,0,0,1,164.65,319.78Zm0-9a4,4,0,1,0,4,4A4,4,0,0,0,164.65,310.82Z"/><rect class="cls-3" x="270.07" y="126.67" width="75.51" height="49.35"/><path class="cls-7" d="M345.58,176.49H270.07a.47.47,0,0,1-.47-.47V126.67a.46.46,0,0,1,.47-.46h75.51a.45.45,0,0,1,.46.46V176A.46.46,0,0,1,345.58,176.49Zm-75.05-.93h74.58V127.14H270.53Z"/><rect class="cls-7" x="267.57" y="100.92" width="95.07" height="27.61" rx="4.94"/><path class="cls-7" d="M358.05,129H272.17a5.07,5.07,0,0,1-5.06-5.06V105.51a5.07,5.07,0,0,1,5.06-5.06h85.88a5.07,5.07,0,0,1,5.06,5.06v18.42A5.07,5.07,0,0,1,358.05,129Zm-85.88-27.61a4.13,4.13,0,0,0-4.13,4.13v18.42a4.13,4.13,0,0,0,4.13,4.13h85.88a4.13,4.13,0,0,0,4.13-4.13V105.51a4.13,4.13,0,0,0-4.13-4.13Z"/><rect class="cls-7" x="267.57" y="131.08" width="95.07" height="27.61" rx="4.94"/><path class="cls-7" d="M358.05,159.15H272.17a5.07,5.07,0,0,1-5.06-5.06V135.67a5.07,5.07,0,0,1,5.06-5.06h85.88a5.07,5.07,0,0,1,5.06,5.06v18.42A5.07,5.07,0,0,1,358.05,159.15Zm-85.88-27.61a4.13,4.13,0,0,0-4.13,4.13v18.42a4.13,4.13,0,0,0,4.13,4.13h85.88a4.13,4.13,0,0,0,4.13-4.13V135.67a4.13,4.13,0,0,0-4.13-4.13Z"/><rect class="cls-7" x="267.57" y="161.9" width="95.07" height="27.61" rx="4.94"/><path class="cls-7" d="M358.05,190H272.17a5.07,5.07,0,0,1-5.06-5.06V166.5a5.07,5.07,0,0,1,5.06-5.06h85.88a5.07,5.07,0,0,1,5.06,5.06v18.42A5.07,5.07,0,0,1,358.05,190Zm-85.88-27.61A4.13,4.13,0,0,0,268,166.5v18.42a4.14,4.14,0,0,0,4.13,4.13h85.88a4.14,4.14,0,0,0,4.13-4.13V166.5a4.13,4.13,0,0,0-4.13-4.13Z"/><rect class="cls-3" x="282.81" y="100.92" width="84.16" height="27.61" rx="4.64"/><path class="cls-7" d="M362.65,129H287.13a4.8,4.8,0,0,1-4.79-4.79v-19a4.8,4.8,0,0,1,4.79-4.79h75.52a4.8,4.8,0,0,1,4.79,4.79v19A4.8,4.8,0,0,1,362.65,129Zm-75.52-27.61a3.87,3.87,0,0,0-3.86,3.86v19a3.87,3.87,0,0,0,3.86,3.86h75.52a3.86,3.86,0,0,0,3.85-3.86v-19a3.86,3.86,0,0,0-3.85-3.86Z"/><path class="cls-3" d="M300.11,114.72a4.25,4.25,0,1,1-4.24-4.24A4.24,4.24,0,0,1,300.11,114.72Z"/><path class="cls-7" d="M295.87,119.43a4.71,4.71,0,1,1,4.7-4.71A4.71,4.71,0,0,1,295.87,119.43Zm0-8.48a3.78,3.78,0,1,0,3.77,3.77A3.77,3.77,0,0,0,295.87,111Z"/><rect class="cls-3" x="308.92" y="109.23" width="49.9" height="10.98" rx="0.61"/><path class="cls-7" d="M358.25,120.68H309.49a1,1,0,0,1-1-1V109.8a1,1,0,0,1,1-1h48.76a1,1,0,0,1,1,1v9.84A1,1,0,0,1,358.25,120.68Zm-48.76-11a.09.09,0,0,0-.1.1v9.84a.09.09,0,0,0,.1.1h48.76a.09.09,0,0,0,.1-.1V109.8a.09.09,0,0,0-.1-.1Z"/><path class="cls-7" d="M330.21,113.33H313.75a.47.47,0,1,1,0-.93h16.46a.47.47,0,1,1,0,.93Z"/><path class="cls-12" d="M343.35,113.33h-9.87a.47.47,0,0,1,0-.93h9.87a.47.47,0,1,1,0,.93Z"/><path class="cls-12" d="M325,116.91H315.1a.47.47,0,0,1,0-.94H325a.47.47,0,0,1,0,.94Z"/><path class="cls-7" d="M353.14,113.33h-5.8a.47.47,0,0,1,0-.93h5.8a.47.47,0,0,1,0,.93Z"/><path class="cls-7" d="M338.83,117.21H333a.47.47,0,1,1,0-.93h5.79a.47.47,0,1,1,0,.93Z"/><rect class="cls-3" x="282.81" y="131.08" width="84.16" height="27.61" rx="4.64"/><path class="cls-7" d="M362.65,159.15H287.13a4.8,4.8,0,0,1-4.79-4.79v-19a4.8,4.8,0,0,1,4.79-4.79h75.52a4.8,4.8,0,0,1,4.79,4.79v19A4.8,4.8,0,0,1,362.65,159.15Zm-75.52-27.61a3.87,3.87,0,0,0-3.86,3.86v19a3.87,3.87,0,0,0,3.86,3.86h75.52a3.86,3.86,0,0,0,3.85-3.86v-19a3.86,3.86,0,0,0-3.85-3.86Z"/><path class="cls-3" d="M300.11,144.88a4.25,4.25,0,1,1-4.24-4.24A4.24,4.24,0,0,1,300.11,144.88Z"/><path class="cls-7" d="M295.87,149.59a4.71,4.71,0,1,1,4.7-4.71A4.71,4.71,0,0,1,295.87,149.59Zm0-8.48a3.78,3.78,0,1,0,3.77,3.77A3.77,3.77,0,0,0,295.87,141.11Z"/><rect class="cls-3" x="308.92" y="139.39" width="49.9" height="10.98" rx="0.61"/><path class="cls-7" d="M358.25,150.84H309.49a1,1,0,0,1-1-1V140a1,1,0,0,1,1-1h48.76a1,1,0,0,1,1,1v9.84A1,1,0,0,1,358.25,150.84Zm-48.76-11a.09.09,0,0,0-.1.1v9.84a.09.09,0,0,0,.1.1h48.76a.09.09,0,0,0,.1-.1V140a.09.09,0,0,0-.1-.1Z"/><path class="cls-7" d="M330.21,143.49H313.75a.47.47,0,1,1,0-.93h16.46a.47.47,0,1,1,0,.93Z"/><path class="cls-12" d="M343.35,143.49h-9.87a.47.47,0,0,1,0-.93h9.87a.47.47,0,1,1,0,.93Z"/><path class="cls-12" d="M325,147.07H315.1a.47.47,0,0,1,0-.94H325a.47.47,0,0,1,0,.94Z"/><path class="cls-7" d="M353.14,143.49h-5.8a.47.47,0,0,1,0-.93h5.8a.47.47,0,0,1,0,.93Z"/><path class="cls-7" d="M338.83,147.37H333a.47.47,0,1,1,0-.93h5.79a.47.47,0,1,1,0,.93Z"/><rect class="cls-7" x="287.13" y="128.53" width="75.51" height="2.55"/><path class="cls-7" d="M362.65,131.54H287.13a.47.47,0,0,1-.46-.46v-2.55a.47.47,0,0,1,.46-.47h75.52a.47.47,0,0,1,.46.47v2.55A.47.47,0,0,1,362.65,131.54Zm-75-.93h74.58V129H287.6Z"/><rect class="cls-3" x="282.81" y="161.9" width="84.16" height="27.61" rx="4.64"/><path class="cls-7" d="M362.65,190H287.13a4.8,4.8,0,0,1-4.79-4.79v-19a4.8,4.8,0,0,1,4.79-4.79h75.52a4.8,4.8,0,0,1,4.79,4.79v19A4.8,4.8,0,0,1,362.65,190Zm-75.52-27.61a3.87,3.87,0,0,0-3.86,3.86v19a3.87,3.87,0,0,0,3.86,3.86h75.52a3.86,3.86,0,0,0,3.85-3.86v-19a3.86,3.86,0,0,0-3.85-3.86Z"/><path class="cls-3" d="M300.11,175.71a4.25,4.25,0,1,1-4.24-4.24A4.24,4.24,0,0,1,300.11,175.71Z"/><path class="cls-7" d="M295.87,180.41a4.71,4.71,0,1,1,4.7-4.7A4.71,4.71,0,0,1,295.87,180.41Zm0-8.48a3.78,3.78,0,1,0,3.77,3.78A3.78,3.78,0,0,0,295.87,171.93Z"/><rect class="cls-3" x="308.92" y="170.22" width="49.9" height="10.98" rx="0.61"/><path class="cls-7" d="M358.25,181.66H309.49a1,1,0,0,1-1-1v-9.84a1,1,0,0,1,1-1h48.76a1,1,0,0,1,1,1v9.84A1,1,0,0,1,358.25,181.66Zm-48.76-11a.1.1,0,0,0-.1.11v9.84a.1.1,0,0,0,.1.1h48.76a.1.1,0,0,0,.1-.1v-9.84a.1.1,0,0,0-.1-.11Z"/><path class="cls-7" d="M330.21,174.32H313.75a.47.47,0,0,1,0-.94h16.46a.47.47,0,1,1,0,.94Z"/><path class="cls-12" d="M343.35,174.32h-9.87a.47.47,0,0,1,0-.94h9.87a.47.47,0,1,1,0,.94Z"/><path class="cls-12" d="M325,177.89H315.1a.47.47,0,0,1,0-.93H325a.47.47,0,1,1,0,.93Z"/><path class="cls-7" d="M353.14,174.32h-5.8a.47.47,0,0,1,0-.94h5.8a.47.47,0,0,1,0,.94Z"/><path class="cls-7" d="M338.83,178.2H333a.47.47,0,0,1,0-.94h5.79a.47.47,0,0,1,0,.94Z"/><rect class="cls-7" x="287.13" y="159.35" width="75.51" height="2.55"/><path class="cls-7" d="M362.65,162.37H287.13a.47.47,0,0,1-.46-.47v-2.55a.46.46,0,0,1,.46-.46h75.52a.46.46,0,0,1,.46.46v2.55A.47.47,0,0,1,362.65,162.37Zm-75-.93h74.58v-1.62H287.6Z"/><g class="cls-17"><polygon class="cls-4" points="88.19 168.19 71.38 168.19 71.38 153.95 72.31 153.95 72.31 167.26 87.26 167.26 87.26 154.11 88.19 154.11 88.19 168.19"/><rect class="cls-4" x="80.75" y="153.65" width="19.44" height="0.93"/><rect class="cls-4" x="80.75" y="144.41" width="19.44" height="0.93"/><path class="cls-4" d="M71.88,154.58a2.21,2.21,0,1,1,2.21-2.21A2.21,2.21,0,0,1,71.88,154.58Zm0-3.49a1.28,1.28,0,1,0,1.28,1.28A1.28,1.28,0,0,0,71.88,151.09Z"/><path class="cls-4" d="M79.09,156.33a2.21,2.21,0,1,1,2.21-2.2A2.21,2.21,0,0,1,79.09,156.33Zm0-3.48a1.28,1.28,0,1,0,1.28,1.28A1.27,1.27,0,0,0,79.09,152.85Z"/><path class="cls-4" d="M79.09,147.07a2.21,2.21,0,1,1,2.21-2.21A2.21,2.21,0,0,1,79.09,147.07Zm0-3.48a1.28,1.28,0,1,0,1.28,1.27A1.27,1.27,0,0,0,79.09,143.59Z"/></g><path class="cls-11" d="M241.07,149.35c0-.29,0-.59,0-.88-.28-15.64-13.81-28.44-29.31-28.44a29.49,29.49,0,0,0-7.8,1.06,39.81,39.81,0,0,0-76.61,14h-6.68a22,22,0,0,0-22,22v.29a22,22,0,0,0,22,22h94.05C231.35,179.39,242.15,163.62,241.07,149.35Z"/><g class="cls-18"><path class="cls-9" d="M241.07,149.35c0-.29,0-.59,0-.88-.28-15.64-13.81-28.44-29.31-28.44a29.49,29.49,0,0,0-7.8,1.06,39.81,39.81,0,0,0-76.61,14h-6.68a22,22,0,0,0-22,22v.29a22,22,0,0,0,22,22h94.05C231.35,179.39,242.15,163.62,241.07,149.35Z"/></g><path class="cls-7" d="M241.29,144a8.61,8.61,0,0,1,0-.88c-.28-15.64-13.82-28.44-29.31-28.44a29.57,29.57,0,0,0-7.81,1.06,39.81,39.81,0,0,0-76.61,14h-6.67a22,22,0,0,0-22,22v.3a22,22,0,0,0,22,22h94C231.57,174,242.37,158.22,241.29,144Z"/><path class="cls-7" d="M214.93,174.45h-94A22.47,22.47,0,0,1,98.44,152v-.3a22.47,22.47,0,0,1,22.45-22.45h6.22a40.28,40.28,0,0,1,77.34-14.11,29.46,29.46,0,0,1,7.53-1c15.86,0,29.49,13.23,29.77,28.89v.37a4,4,0,0,0,0,.49,29.86,29.86,0,0,1-7.88,22.13A25.63,25.63,0,0,1,214.93,174.45Zm-94-44.27A21.55,21.55,0,0,0,99.37,151.7v.3a21.54,21.54,0,0,0,21.52,21.52h94a24.7,24.7,0,0,0,18.25-8.1A28.92,28.92,0,0,0,240.82,144a5.61,5.61,0,0,1,0-.58v-.33c-.27-15.17-13.48-28-28.84-28a28.9,28.9,0,0,0-7.68,1,.47.47,0,0,1-.56-.27A39.34,39.34,0,0,0,128,129.73a.47.47,0,0,1-.47.45Z"/><path class="cls-3" d="M157.23,173.5a.47.47,0,0,1-.47-.47V146.28a.47.47,0,0,1,.93,0V173A.47.47,0,0,1,157.23,173.5Z"/><path class="cls-3" d="M157.07,158.59H145.8a.46.46,0,0,1-.46-.46v-9.78a.46.46,0,0,1,.46-.47.47.47,0,0,1,.47.47v9.31h10.8a.47.47,0,1,1,0,.93Z"/><path class="cls-3" d="M145.83,148.7a1.9,1.9,0,1,1,1.89-1.89A1.9,1.9,0,0,1,145.83,148.7Zm0-2.86a1,1,0,1,0,1,1A1,1,0,0,0,145.83,145.84Z"/><path class="cls-3" d="M169.93,173.59a.47.47,0,0,1-.47-.47V133.4a.47.47,0,0,1,.94,0v39.72A.47.47,0,0,1,169.93,173.59Z"/><path class="cls-3" d="M157.21,146.48a2.86,2.86,0,1,1,2.86-2.86A2.86,2.86,0,0,1,157.21,146.48Zm0-4.79a1.93,1.93,0,1,0,1.93,1.93A1.92,1.92,0,0,0,157.21,141.69Z"/><path class="cls-3" d="M183,173.5a.47.47,0,0,1-.46-.47V146.28a.47.47,0,0,1,.93,0V173A.47.47,0,0,1,183,173.5Z"/><path class="cls-3" d="M194.46,158.59H183.19a.47.47,0,1,1,0-.93H194v-9.31a.47.47,0,0,1,.94,0v9.78A.47.47,0,0,1,194.46,158.59Z"/><path class="cls-3" d="M194.43,148.7a1.9,1.9,0,1,1,1.9-1.89A1.89,1.89,0,0,1,194.43,148.7Zm0-2.86a1,1,0,1,0,1,1A1,1,0,0,0,194.43,145.84Z"/><path class="cls-3" d="M183.05,146.48a2.86,2.86,0,1,1,2.86-2.86A2.86,2.86,0,0,1,183.05,146.48Zm0-4.79a1.93,1.93,0,1,0,1.93,1.93A1.93,1.93,0,0,0,183.05,141.69Z"/><path class="cls-3" d="M170,133.55a3.31,3.31,0,1,1,3.31-3.31A3.32,3.32,0,0,1,170,133.55Zm0-5.69a2.38,2.38,0,1,0,2.38,2.38A2.38,2.38,0,0,0,170,127.86Z"/><path class="cls-8" d="M343.24,281.81h166.9a4.93,4.93,0,0,1,4.93,4.93V402.29a1.72,1.72,0,0,1-1.72,1.72H340a1.72,1.72,0,0,1-1.72-1.72V286.74A4.93,4.93,0,0,1,343.24,281.81Z"/><path class="cls-19" d="M513.47,404.48H339.92a2.08,2.08,0,0,1-2.08-2.07v-116a5.07,5.07,0,0,1,5.06-5.06H510.48a5.07,5.07,0,0,1,5.06,5.06v116A2.07,2.07,0,0,1,513.47,404.48ZM342.9,282.28a4.13,4.13,0,0,0-4.12,4.13v116a1.14,1.14,0,0,0,1.14,1.14H513.47a1.15,1.15,0,0,0,1.14-1.14v-116a4.13,4.13,0,0,0-4.13-4.13Z"/><rect class="cls-3" x="351.24" y="293.54" width="150.91" height="98.75"/><path class="cls-7" d="M502.15,392.76H351.24a.47.47,0,0,1-.47-.47V293.54a.47.47,0,0,1,.47-.47H502.15a.47.47,0,0,1,.46.47v98.75A.47.47,0,0,1,502.15,392.76Zm-150.45-.93h150V294h-150Z"/><path class="cls-3" d="M426.69,289.63a1.82,1.82,0,1,1,1.82-1.82A1.83,1.83,0,0,1,426.69,289.63Zm0-2.71a.89.89,0,1,0,.89.89A.89.89,0,0,0,426.69,286.92Z"/><path class="cls-11" d="M309.38,403.09H544a0,0,0,0,1,0,0v9.2a6.62,6.62,0,0,1-6.62,6.62H316a6.62,6.62,0,0,1-6.62-6.62v-9.2A0,0,0,0,1,309.38,403.09Z"/><path class="cls-7" d="M537.83,419.38H315.55a6.64,6.64,0,0,1-6.63-6.64v-9.65a.47.47,0,0,1,.46-.47H544a.46.46,0,0,1,.46.47v9.65A6.64,6.64,0,0,1,537.83,419.38Zm-228-15.82v9.18a5.7,5.7,0,0,0,5.7,5.7H537.83a5.7,5.7,0,0,0,5.7-5.7v-9.18Z"/><path class="cls-7" d="M541.76,415.67H311.62a.46.46,0,0,1-.46-.47.45.45,0,0,1,.46-.46H541.76a.46.46,0,0,1,.47.46A.47.47,0,0,1,541.76,415.67Z"/><rect class="cls-3" x="404.3" y="404.08" width="44.78" height="4.94"/><path class="cls-7" d="M449.08,409.49H404.3a.46.46,0,0,1-.46-.47v-4.94a.46.46,0,0,1,.46-.47h44.78a.47.47,0,0,1,.47.47V409A.47.47,0,0,1,449.08,409.49Zm-44.31-.93h43.85v-4H404.77Z"/><rect class="cls-11" x="374.66" y="310.35" width="94.58" height="69.01" rx="1.9" transform="translate(843.9 689.72) rotate(180)"/><path class="cls-12" d="M380,305.12h94.57a0,0,0,0,1,0,0v9.36a2.27,2.27,0,0,1-2.27,2.27H382.9a2.93,2.93,0,0,1-2.93-2.93v-8.69A0,0,0,0,1,380,305.12Z" transform="translate(854.49 621.87) rotate(180)"/><path class="cls-7" d="M475,317.22H379.5v-10a2.58,2.58,0,0,1,2.57-2.58H471.8a3.2,3.2,0,0,1,3.2,3.2Zm-94.57-.93h93.63v-8.43a2.27,2.27,0,0,0-2.26-2.27H382.07a1.65,1.65,0,0,0-1.64,1.65Z"/><path class="cls-3" d="M392.81,313.06a2.26,2.26,0,1,1,2.25-2.26A2.26,2.26,0,0,1,392.81,313.06Zm0-3.58a1.33,1.33,0,1,0,1.32,1.32A1.32,1.32,0,0,0,392.81,309.48Z"/><path class="cls-3" d="M399.78,313.06A2.26,2.26,0,1,1,402,310.8,2.26,2.26,0,0,1,399.78,313.06Zm0-3.58a1.33,1.33,0,1,0,1.33,1.32A1.33,1.33,0,0,0,399.78,309.48Z"/><path class="cls-3" d="M385.88,313.06a2.26,2.26,0,1,1,2.26-2.26A2.26,2.26,0,0,1,385.88,313.06Zm0-3.58a1.33,1.33,0,1,0,1.32,1.32A1.32,1.32,0,0,0,385.88,309.48Z"/><rect class="cls-3" x="379.92" y="316.75" width="94.58" height="56.91" rx="0.33" transform="translate(854.42 690.42) rotate(180)"/><path class="cls-7" d="M474.19,374.13h-94a.77.77,0,0,1-.77-.78V317.06a.77.77,0,0,1,.77-.77h94a.78.78,0,0,1,.78.77v56.29A.78.78,0,0,1,474.19,374.13Zm-93.8-.93H474v-56H380.39Z"/><path class="cls-3" d="M444.88,328.24h20.57a.16.16,0,0,1,.16.16v31.94a.16.16,0,0,1-.16.16H444.88a.17.17,0,0,1-.17-.17V328.41A.17.17,0,0,1,444.88,328.24Z"/><path class="cls-11" d="M465.46,361H444.87a.62.62,0,0,1-.62-.62v-32a.62.62,0,0,1,.62-.62h20.59a.62.62,0,0,1,.62.62v32A.62.62,0,0,1,465.46,361Zm-20.28-.93h20V328.71h-20Z"/><line class="cls-3" x1="445.23" y1="328.86" x2="465.41" y2="360.11"/><path class="cls-11" d="M465.41,360.57a.46.46,0,0,1-.39-.21l-20.18-31.25a.46.46,0,0,1,.78-.5l20.18,31.25a.46.46,0,0,1-.14.64A.43.43,0,0,1,465.41,360.57Z"/><line class="cls-3" x1="465" y1="328.76" x2="444.87" y2="360.52"/><path class="cls-11" d="M444.87,361a.45.45,0,0,1-.25-.07.46.46,0,0,1-.14-.64l20.13-31.76a.46.46,0,1,1,.78.5l-20.13,31.76A.46.46,0,0,1,444.87,361Z"/><path class="cls-7" d="M436,331H392.46a.47.47,0,0,1-.47-.47.46.46,0,0,1,.47-.46H436a.46.46,0,0,1,.47.46A.47.47,0,0,1,436,331Z"/><path class="cls-12" d="M407.75,337.62H392.46a.47.47,0,1,1,0-.93h15.29a.47.47,0,1,1,0,.93Z"/><path class="cls-7" d="M432.61,337.62H414a.47.47,0,1,1,0-.93h18.57a.47.47,0,1,1,0,.93Z"/><path class="cls-12" d="M420.36,357.66h-27.9a.46.46,0,0,1-.47-.46.47.47,0,0,1,.47-.47h27.9a.47.47,0,0,1,.47.47A.46.46,0,0,1,420.36,357.66Z"/><path class="cls-12" d="M436.37,344.56H392.46a.46.46,0,0,1-.47-.46.47.47,0,0,1,.47-.47h43.91a.47.47,0,0,1,.47.47A.46.46,0,0,1,436.37,344.56Z"/><path class="cls-7" d="M406.37,351.17H392.46a.47.47,0,0,1-.47-.47.46.46,0,0,1,.47-.46h13.91a.46.46,0,0,1,.47.46A.47.47,0,0,1,406.37,351.17Z"/><path class="cls-12" d="M436,351.17H410.65a.47.47,0,0,1-.46-.47.46.46,0,0,1,.46-.46H436a.46.46,0,0,1,.47.46A.47.47,0,0,1,436,351.17Z"/><path class="cls-3" d="M415.15,343.36a13.82,13.82,0,0,0-.18-2.71h0A13.82,13.82,0,0,1,415.15,343.36Z"/><path class="cls-11" d="M537.35,284.8c-17.58-.67-23.16-10.95-24-12.63h-.12c-.79,1.68-6.37,12-23.95,12.63,0,0-3.73,36.2,23.48,42.7h1.07C541.07,321,537.35,284.8,537.35,284.8Z"/><path class="cls-11" d="M513.92,328h-1.23c-27.29-6.52-23.87-42.84-23.83-43.2l0-.4.4,0c17.14-.65,22.63-10.41,23.55-12.36l.13-.26h.71l.12.26c.93,1.95,6.41,11.71,23.55,12.36l.41,0,0,.4c0,.36,3.45,36.68-23.83,43.2Zm-1.07-.93h1c24.92-6,23.4-37.83,23.1-41.79-15.84-.73-21.91-9.17-23.58-12.17-1.66,3-7.74,11.44-23.58,12.17C489.46,289.2,488,321,512.85,327Z"/><path class="cls-20" d="M537.35,284.8c-17.58-.67-23.16-10.95-24-12.63h-.12c-.79,1.68-6.37,12-23.95,12.63,0,0-3.73,36.2,23.48,42.7h1.07C541.07,321,537.35,284.8,537.35,284.8Z"/><path class="cls-7" d="M535.48,281.37c-17.6-.67-23.19-11-24-12.65h-.12c-.79,1.68-6.38,12-24,12.65,0,0-3.74,36.26,23.51,42.77H512C539.22,317.63,535.48,281.37,535.48,281.37Z"/><path class="cls-7" d="M512,324.61h-1.08l-.1,0c-27.34-6.53-23.91-42.9-23.88-43.27a.48.48,0,0,1,.45-.42c17.17-.65,22.66-10.42,23.59-12.38a.47.47,0,0,1,.42-.26h.12a.47.47,0,0,1,.42.26c.93,2,6.42,11.73,23.59,12.38a.48.48,0,0,1,.45.42c0,.37,3.46,36.74-23.87,43.27Zm-1-.94h1c24.95-6,23.43-37.9,23.14-41.86-15.87-.74-21.95-9.19-23.62-12.19-1.67,3-7.75,11.45-23.62,12.19C487.52,285.77,486,317.67,511,323.67Z"/><path class="cls-7" d="M494.93,304.88c2.64,6.23,7.44,12,16.06,14h.88c22.1-5.28,19.07-34.7,19.07-34.7-14.28-.54-18.82-8.9-19.46-10.26h-.1a17,17,0,0,1-7.11,7.09"/><path class="cls-3" d="M511.87,319.37h-1c-7.62-1.82-13.14-6.63-16.39-14.3a.47.47,0,0,1,.24-.61.46.46,0,0,1,.61.25c3.13,7.36,8.41,12,15.7,13.74h.76c20-4.82,18.95-30.27,18.7-33.78-12.63-.62-17.62-7.25-19.08-9.8a18.06,18.06,0,0,1-6.93,6.58.46.46,0,0,1-.63-.17.47.47,0,0,1,.17-.64,16.58,16.58,0,0,0,6.92-6.88.47.47,0,0,1,.42-.26h.1a.47.47,0,0,1,.42.26c.75,1.58,5.18,9.47,19.06,10a.48.48,0,0,1,.45.42c0,.3,2.81,29.89-19.44,35.2Z"/><path class="cls-7" d="M496.62,283.71a32.89,32.89,0,0,1-4.7.5,48.79,48.79,0,0,0,.3,10.33"/><path class="cls-3" d="M492.22,295a.46.46,0,0,1-.46-.41,49.17,49.17,0,0,1-.3-10.44.46.46,0,0,1,.44-.42,32.2,32.2,0,0,0,4.63-.49.47.47,0,1,1,.17.92,33.24,33.24,0,0,1-4.35.49,50.55,50.55,0,0,0,.33,9.82.46.46,0,0,1-.4.52Z"/><circle class="cls-7" cx="511.43" cy="298.91" r="11.23"/><path class="cls-3" d="M511.43,310.49A11.58,11.58,0,1,1,523,298.91,11.59,11.59,0,0,1,511.43,310.49Zm0-22.45a10.88,10.88,0,1,0,10.88,10.87A10.89,10.89,0,0,0,511.43,288Z"/><circle class="cls-3" cx="511.43" cy="298.91" r="8.17"/><path class="cls-7" d="M511.43,307.55a8.64,8.64,0,1,1,8.64-8.64A8.65,8.65,0,0,1,511.43,307.55Zm0-16.35a7.71,7.71,0,1,0,7.71,7.71A7.72,7.72,0,0,0,511.43,291.2Z"/><path class="cls-7" d="M511.59,302.4a1.33,1.33,0,0,1-.93-.38l-3.46-3.46a1.32,1.32,0,0,1,1.87-1.87l2.52,2.53,7.45-7.45a1.32,1.32,0,1,1,1.86,1.87L512.52,302A1.32,1.32,0,0,1,511.59,302.4Z"/></g></svg>