<svg id="Layer_1" data-name="Layer 1" xmlns="http://www.w3.org/2000/svg" viewBox="0 0 592 500"><defs><style>.cls-1{fill:#fff;}.cls-2{fill:#d7e4f9;}.cls-3{fill:none;}.cls-4{fill:#263238;}.cls-5{fill:#ff725e;}.cls-6{fill:#455a64;}.cls-7{opacity:0.3;}.cls-8{fill:#ffbf9d;}.cls-9{fill:#ff9a6c;}.cls-10{fill:#779ce8;}.cls-11{fill:#c17560;}.cls-12{fill:#407bff;}</style></defs><rect class="cls-1" x="-20.35" y="-7.38" width="672.51" height="557.68"/><rect class="cls-1" x="-660.71" y="-10.23" width="672.51" height="557.68"/><g id="Background_Complete" data-name="Background Complete"><path class="cls-2" d="M70.4,152.93a15.89,15.89,0,0,1,4.14.16l2.34-3,5.77,2.66-.8,3.76a15.07,15.07,0,0,1,2.81,3l3.81-.5,2.19,6-3.21,2.09a15.46,15.46,0,0,1-.17,4.14l3,2.33-2.67,5.77-3.75-.8a15.34,15.34,0,0,1-3,2.81l.5,3.81-6,2.2-2.09-3.22a15.46,15.46,0,0,1-4.14-.17l-2.34,3-5.77-2.66.8-3.76a15.66,15.66,0,0,1-2.81-3l-3.8.5-2.2-6L56.28,170a15.89,15.89,0,0,1,.16-4.14l-3-2.34,2.66-5.77,3.75.8a16.26,16.26,0,0,1,3-2.81l-.49-3.8,6-2.2,2.08,3.22Zm.49,8.78a6.82,6.82,0,1,0,7.38,3.74A6.83,6.83,0,0,0,70.89,161.71Z"/><path class="cls-2" d="M459.64,98.64a14.7,14.7,0,0,1,4,.16l2.24-2.93,5.55,2.56-.77,3.61a15,15,0,0,1,2.7,2.92l3.66-.48,2.11,5.73-3.09,2a15,15,0,0,1-.16,4l2.92,2.25L476.23,124l-3.61-.76a15.09,15.09,0,0,1-2.93,2.7l.48,3.65-5.72,2.12-2-3.1a14.69,14.69,0,0,1-4-.16l-2.25,2.93-5.54-2.56.77-3.61a14.71,14.71,0,0,1-2.7-2.92l-3.66.48L443,117l3.09-2a15.1,15.1,0,0,1,.16-4l-2.93-2.25,2.56-5.54,3.61.77a15.06,15.06,0,0,1,2.92-2.71l-.48-3.65,5.73-2.11,2,3.09Zm.47,8.44a6.55,6.55,0,1,0,7.09,3.59A6.56,6.56,0,0,0,460.11,107.08Z"/><path class="cls-2" d="M337.44,361.31a15.1,15.1,0,0,1,4,.16l2.25-2.92,5.54,2.55-.77,3.61a14.71,14.71,0,0,1,2.7,2.92l3.66-.48,2.11,5.73-3.09,2a14.7,14.7,0,0,1-.16,4l2.93,2.24L354,386.66l-3.61-.77a15.33,15.33,0,0,1-2.92,2.7l.48,3.66-5.73,2.11-2-3.09a15.56,15.56,0,0,1-4-.16L334,394l-5.55-2.55.77-3.61a15.09,15.09,0,0,1-2.7-2.93l-3.66.48-2.11-5.72,3.09-2a15.56,15.56,0,0,1,.16-4l-2.92-2.25,2.55-5.54,3.61.77a14.49,14.49,0,0,1,2.93-2.7l-.48-3.66,5.72-2.11,2,3.09Zm.47,8.44a6.55,6.55,0,1,0,7.09,3.6A6.55,6.55,0,0,0,337.91,369.75Z"/><path class="cls-2" d="M70.24,353.85a17.39,17.39,0,0,1,4.62.18l2.61-3.4,6.44,3L83,357.8a17.18,17.18,0,0,1,3.14,3.39l4.25-.55,2.45,6.65-3.59,2.34a17.82,17.82,0,0,1-.19,4.62l3.4,2.61-3,6.44-4.2-.89a17.18,17.18,0,0,1-3.39,3.14l.56,4.24-6.66,2.46-2.33-3.6a17.39,17.39,0,0,1-4.62-.18l-2.61,3.4-6.44-3,.89-4.2a17.18,17.18,0,0,1-3.14-3.39l-4.25.56-2.45-6.66,3.59-2.33a17.37,17.37,0,0,1,.18-4.62l-3.4-2.62,3-6.44,4.19.9A17.18,17.18,0,0,1,61.8,357l-.55-4.25,6.65-2.46,2.34,3.6Zm.54,9.8A7.62,7.62,0,1,0,79,367.83,7.62,7.62,0,0,0,70.78,363.65Z"/><path class="cls-2" d="M338,126.66a78.56,78.56,0,0,0-42.62-13.8l-.2-6.17c1,0,24.12-.6,46.35,14.9Z"/><polygon class="cls-2" points="298.56 101.41 299.64 118.05 287.32 110.63 298.56 101.41"/><path class="cls-2" d="M100.51,139.14a78.5,78.5,0,0,1,40.39-19.38l-.63-6.14c-1,.1-24,2.63-43.94,21Z"/><polygon class="cls-2" points="136.26 108.83 137.41 125.47 148.63 116.46 136.26 108.83"/><path class="cls-2" d="M280.08,428.69l-3.43-5.13,1.72,2.56-1.72-2.56c.27-.18,26.56-18.18,30.4-52.31l6.14.69C309,409,281.26,427.91,280.08,428.69Z"/><polygon class="cls-2" points="285.86 431.05 277.07 416.88 271.36 430.09 285.86 431.05"/></g><g id="Gears"><path class="cls-2" d="M325.64,292.9a27.73,27.73,0,0,1,7.35.73l4.48-5.18,10,5.34-1.81,6.6a27.22,27.22,0,0,1,4.68,5.7l6.83-.49,3.28,10.83-5.94,3.39a27.7,27.7,0,0,1-.73,7.34l5.17,4.48-5.33,10-6.6-1.81a27.84,27.84,0,0,1-5.7,4.69l.49,6.82L331,354.6l-3.39-5.94a27.25,27.25,0,0,1-7.34-.73l-4.48,5.18-10-5.34,1.81-6.6a27.58,27.58,0,0,1-4.69-5.7l-6.82.49-3.28-10.83,5.94-3.39a27.69,27.69,0,0,1,.72-7.34l-5.17-4.48,5.34-10,6.6,1.81a27.58,27.58,0,0,1,5.7-4.69l-.49-6.82L322.26,287l3.38,5.94Zm-.05,15.67A12.15,12.15,0,1,0,338.33,316,12.16,12.16,0,0,0,325.59,308.57Z"/><path class="cls-3" d="M325.64,292.9a27.73,27.73,0,0,1,7.35.73l4.48-5.18,10,5.34-1.81,6.6a27.22,27.22,0,0,1,4.68,5.7l6.83-.49,3.28,10.83-5.94,3.39a27.7,27.7,0,0,1-.73,7.34l5.17,4.48-5.33,10-6.6-1.81a27.84,27.84,0,0,1-5.7,4.69l.49,6.82L331,354.6l-3.39-5.94a27.25,27.25,0,0,1-7.34-.73l-4.48,5.18-10-5.34,1.81-6.6a27.58,27.58,0,0,1-4.69-5.7l-6.82.49-3.28-10.83,5.94-3.39a27.69,27.69,0,0,1,.72-7.34l-5.17-4.48,5.34-10,6.6,1.81a27.58,27.58,0,0,1,5.7-4.69l-.49-6.82L322.26,287l3.38,5.94Zm-.05,15.67A12.15,12.15,0,1,0,338.33,316,12.16,12.16,0,0,0,325.59,308.57Z"/><path class="cls-4" d="M325.59,308.57a9.89,9.89,0,0,1,3-.1,12.42,12.42,0,0,1,7.29,3.55,11.73,11.73,0,0,1,2.95,4.85,12,12,0,0,1,.31,6.49l-.21.85c-.09.28-.2.56-.3.84a13.26,13.26,0,0,1-.75,1.63,12.26,12.26,0,0,1-2.28,2.92,12.57,12.57,0,0,1-7,3.32,12.2,12.2,0,0,1-7.56-1.49,12.52,12.52,0,0,1-5-5.17,12.93,12.93,0,0,1-1.31-6.38,12.15,12.15,0,0,1,4.78-8.92,12.64,12.64,0,0,1,3.09-1.73,11.68,11.68,0,0,1,2.16-.55,5.42,5.42,0,0,1,.77-.11,4,4,0,0,1-.75.2,13.68,13.68,0,0,0-2.11.63,12.35,12.35,0,0,0-6,5.22,11.94,11.94,0,0,0-1.56,5.29,12.43,12.43,0,0,0,1.3,6.16,12.14,12.14,0,0,0,4.83,5,11.83,11.83,0,0,0,7.27,1.42,12.19,12.19,0,0,0,6.7-3.18,12.07,12.07,0,0,0,2.21-2.81,11.22,11.22,0,0,0,.73-1.58c.1-.27.21-.53.29-.8l.21-.82a11.68,11.68,0,0,0-.26-6.29,11.55,11.55,0,0,0-2.81-4.73,12.32,12.32,0,0,0-7.08-3.59A20.31,20.31,0,0,0,325.59,308.57Z"/><path class="cls-4" d="M325.64,292.9l-.22-.36-.66-1.12L322.2,287l.08,0-10.82,3.33.08-.12c.16,2.06.33,4.36.51,6.82v.08l-.07,0a27.64,27.64,0,0,0-5.66,4.67l-.07.07-.08,0-6.61-1.8.19-.08-5.32,10,0-.22,5.18,4.47.09.07,0,.12a27.57,27.57,0,0,0-.71,7.29v.12l-.1.06-5.94,3.39.09-.24c1,3.4,2.15,7.07,3.3,10.83l-.22-.15,6.82-.5H303l.07.12a27.92,27.92,0,0,0,4.65,5.65l.1.09,0,.13-1.81,6.6-.12-.26,10,5.34-.28,0,4.48-5.17.09-.11.13,0a27.53,27.53,0,0,0,7.28.72h.15l.07.12,3.38,5.94-.27-.1,10.83-3.29-.16.24c-.16-2.3-.33-4.57-.49-6.82v-.14l.12-.07a27.75,27.75,0,0,0,5.66-4.65l.09-.1.13,0,6.6,1.81-.25.11,5.34-10,.05.27-5.17-4.49-.1-.08,0-.12a27.57,27.57,0,0,0,.73-7.29v-.12l.1-.06,5.95-3.38-.09.22L357,305.66l.18.12-6.82.48h-.1l-.06-.09a27.63,27.63,0,0,0-4.64-5.68l-.07-.06,0-.09c.67-2.39,1.27-4.55,1.83-6.59l.07.16-10-5.37.13,0-4.5,5.15,0,0h0a29.23,29.23,0,0,0-5.5-.76c-.61,0-1.06,0-1.37,0h-.46l.46,0c.3,0,.76,0,1.38,0a27.68,27.68,0,0,1,5.53.69l-.08,0,4.46-5.19.05-.07.08,0,10,5.31.09.05,0,.11c-.55,2-1.14,4.2-1.79,6.6l-.05-.15a27.62,27.62,0,0,1,4.73,5.72l-.16-.07,6.82-.51h.15l0,.14,3.3,10.83,0,.14-.13.08L354.59,320l.1-.18a28,28,0,0,1-.72,7.4l-.07-.21,5.18,4.48.13.11-.08.15q-2.61,4.88-5.33,10l-.09.15-.17,0-6.6-1.81.23-.07a28.32,28.32,0,0,1-5.75,4.73l.11-.21q.24,3.38.49,6.82v.18l-.17.06L331,354.83l-.18.05-.09-.16-3.39-6,.21.12h0a28.36,28.36,0,0,1-7.4-.73l.22-.08-4.47,5.18-.12.14-.17-.09-10-5.34-.16-.09.05-.17c.63-2.28,1.25-4.53,1.81-6.6l.07.22a27.64,27.64,0,0,1-4.72-5.75l.2.11-6.82.49h-.17l-.05-.17-3.28-10.83,0-.16.15-.08,5.94-3.38-.1.18a28.26,28.26,0,0,1,.74-7.39l.06.18-5.17-4.48-.11-.1.07-.13,5.35-10,.07-.12.12,0,6.6,1.82-.15,0a28.08,28.08,0,0,1,5.74-4.69l-.06.12c-.17-2.46-.33-4.75-.48-6.82v-.09l.09,0,10.84-3.25h.06l0,.05q1.62,2.91,2.48,4.43l.63,1.15C325.58,292.76,325.64,292.9,325.64,292.9Z"/><path class="cls-3" d="M325.64,292.9a27.73,27.73,0,0,1,7.35.73l4.48-5.18,10,5.34-1.81,6.6a27.22,27.22,0,0,1,4.68,5.7l6.83-.49,3.28,10.83-5.94,3.39a27.7,27.7,0,0,1-.73,7.34l5.17,4.48-5.33,10-6.6-1.81a27.84,27.84,0,0,1-5.7,4.69l.49,6.82L331,354.6l-3.39-5.94a27.25,27.25,0,0,1-7.34-.73l-4.48,5.18-10-5.34,1.81-6.6a27.58,27.58,0,0,1-4.69-5.7l-6.82.49-3.28-10.83,5.94-3.39a27.69,27.69,0,0,1,.72-7.34l-5.17-4.48,5.34-10,6.6,1.81a27.58,27.58,0,0,1,5.7-4.69l-.49-6.82L322.26,287l3.38,5.94Zm-.05,15.67A12.15,12.15,0,1,0,338.33,316,12.16,12.16,0,0,0,325.59,308.57Z"/><path class="cls-2" d="M137.35,166.46a38,38,0,0,1,10.12.4l5.72-7.44,14.1,6.5-1.95,9.18a38,38,0,0,1,6.87,7.44l9.31-1.22,5.37,14.57L179,201a38.41,38.41,0,0,1-.4,10.12l7.44,5.72L179.55,231l-9.18-2a38.63,38.63,0,0,1-7.43,6.88l1.22,9.3-14.58,5.37-5.11-7.87a38,38,0,0,1-10.12-.4l-5.72,7.45-14.1-6.51,2-9.19a37.7,37.7,0,0,1-6.87-7.43l-9.31,1.22-5.37-14.57,7.87-5.11a38,38,0,0,1,.41-10.12l-7.45-5.72,6.51-14.11,9.18,2a38.08,38.08,0,0,1,7.44-6.88l-1.23-9.3,14.58-5.37,5.11,7.87Zm1.19,21.47a16.67,16.67,0,1,0,18,9.14A16.67,16.67,0,0,0,138.54,187.93Z"/><path class="cls-3" d="M137.35,166.46a38,38,0,0,1,10.12.4l5.72-7.44,14.1,6.5-1.95,9.18a38,38,0,0,1,6.87,7.44l9.31-1.22,5.37,14.57L179,201a38.41,38.41,0,0,1-.4,10.12l7.44,5.72L179.55,231l-9.18-2a38.63,38.63,0,0,1-7.43,6.88l1.22,9.3-14.58,5.37-5.11-7.87a38,38,0,0,1-10.12-.4l-5.72,7.45-14.1-6.51,2-9.19a37.7,37.7,0,0,1-6.87-7.43l-9.31,1.22-5.37-14.57,7.87-5.11a38,38,0,0,1,.41-10.12l-7.45-5.72,6.51-14.11,9.18,2a38.08,38.08,0,0,1,7.44-6.88l-1.23-9.3,14.58-5.37,5.11,7.87Zm1.19,21.47a16.67,16.67,0,1,0,18,9.14A16.67,16.67,0,0,0,138.54,187.93Z"/><path class="cls-4" d="M138.54,187.93s.08,0,.26-.06l.78-.14a16.89,16.89,0,0,1,3.06-.15,17.16,17.16,0,0,1,4.73,1,16.55,16.55,0,0,1,5.5,3.29,16.93,16.93,0,0,1,2.5,2.79,17.09,17.09,0,0,1,2.83,12.42c-.07.39-.14.78-.22,1.18s-.23.77-.34,1.16a17,17,0,0,1-.9,2.29,16.63,16.63,0,0,1-2.87,4.16,17.11,17.11,0,0,1-9.21,5.07,16.67,16.67,0,0,1-10.42-1.42,17.11,17.11,0,0,1-7.22-6.64,17.64,17.64,0,0,1-2.29-8.6,16.55,16.55,0,0,1,5.79-12.57,17.14,17.14,0,0,1,4.07-2.61c.62-.25,1.18-.44,1.66-.62a8.72,8.72,0,0,1,1.25-.33l.77-.18a1.23,1.23,0,0,1,.27,0l-.26.09-.76.22a9.84,9.84,0,0,0-1.23.37l-1.63.65a17.19,17.19,0,0,0-4,2.65,16.43,16.43,0,0,0-5.58,12.37,17.3,17.3,0,0,0,2.28,8.38,16.73,16.73,0,0,0,7,6.45,16.19,16.19,0,0,0,10.13,1.38,16.73,16.73,0,0,0,11.78-9,16.06,16.06,0,0,0,.87-2.23c.12-.38.25-.75.34-1.13s.15-.77.22-1.15a16.11,16.11,0,0,0-.87-8.62,16.34,16.34,0,0,0-1.83-3.53,17.11,17.11,0,0,0-2.43-2.75,16.55,16.55,0,0,0-5.37-3.29,17.11,17.11,0,0,0-4.65-1,17.69,17.69,0,0,0-3,0l-.78.09Z"/><path class="cls-4" d="M137.35,166.46s-.12-.16-.34-.49l-1-1.49-3.85-5.85.08,0-14.55,5.41.07-.13c.38,2.82.79,5.95,1.24,9.31v.08l-.07,0a37.52,37.52,0,0,0-7.39,6.86l-.06.07-.09,0-9.19-1.94.19-.09c-2,4.44-4.22,9.16-6.5,14.11l0-.22c2.31,1.76,4.85,3.71,7.45,5.71l.09.07,0,.11a37.94,37.94,0,0,0-.39,10.07v.12l-.1.07L95,213.41l.08-.24c1.69,4.57,3.52,9.51,5.38,14.57l-.23-.14,9.31-1.23h.13l.08.11a38,38,0,0,0,6.83,7.38l.11.09,0,.13c-.61,2.88-1.28,6-2,9.19l-.13-.26,14.11,6.51-.28.07,5.72-7.45.08-.11.14,0a38,38,0,0,0,10.05.41h.15l.07.12,5.11,7.87-.27-.09L164.07,245l-.15.24q-.61-4.69-1.21-9.3l0-.14.11-.08a37.86,37.86,0,0,0,7.39-6.83l.09-.1.13,0,9.19,2-.25.12q3.33-7.22,6.51-14.1l.07.26-7.45-5.72-.09-.08,0-.12a38.43,38.43,0,0,0,.41-10.07l0-.12.11-.06,7.87-5.11-.08.23-5.35-14.58.19.12-9.31,1.21h-.1l-.06-.09a38.22,38.22,0,0,0-6.83-7.41l-.07-.06,0-.09c.71-3.33,1.35-6.34,2-9.18l.08.16-14.09-6.54.13,0-5.75,7.43,0,0h-.05a39.49,39.49,0,0,0-7.6-.59c-.84,0-1.46.06-1.88.08l-.62,0,.62-.07c.42,0,1-.09,1.89-.12a37.64,37.64,0,0,1,7.62.52l-.07,0,5.69-7.47.05-.06.08,0,14.12,6.48.1,0,0,.11c-.59,2.84-1.23,5.85-1.93,9.19l-.05-.15a38.82,38.82,0,0,1,6.91,7.45l-.16-.07,9.31-1.23.14,0,0,.14c1.71,4.6,3.5,9.44,5.39,14.57l.05.14-.13.09-7.86,5.11.09-.19a38.4,38.4,0,0,1-.4,10.18l-.08-.2,7.45,5.71.14.11-.08.15q-3.17,6.88-6.49,14.11l-.08.16-.17,0-9.19-1.95.22-.07a38.12,38.12,0,0,1-7.47,6.91l.09-.21c.41,3.07.81,6.17,1.22,9.3l0,.18-.17.07-14.58,5.37-.17.06-.1-.15-5.11-7.87.22.1h0a38.13,38.13,0,0,1-10.18-.4l.23-.09c-2,2.56-3.92,5.09-5.72,7.45l-.11.14-.17-.08c-4.85-2.24-9.64-4.44-14.1-6.51l-.17-.07,0-.18c.67-3.17,1.34-6.31,2-9.18l.08.22a38.64,38.64,0,0,1-6.91-7.48l.21.09L100.33,228l-.17,0-.06-.17c-1.86-5.06-3.68-10-5.36-14.57l-.06-.16.14-.09,7.87-5.1-.09.18A38.66,38.66,0,0,1,103,198l.07.19-7.44-5.73-.12-.09.07-.13,6.52-14.09,0-.12.13,0,9.18,2-.15,0a38.38,38.38,0,0,1,7.48-6.89l-.06.13c-.43-3.35-.84-6.49-1.2-9.31v-.09l.09,0,14.58-5.33.06,0,0,.05,3.77,5.87,1,1.51C137.25,166.28,137.35,166.46,137.35,166.46Z"/><path class="cls-3" d="M137.35,166.46a38,38,0,0,1,10.12.4l5.72-7.44,14.1,6.5-1.95,9.18a38,38,0,0,1,6.87,7.44l9.31-1.22,5.37,14.57L179,201a38.41,38.41,0,0,1-.4,10.12l7.44,5.72L179.55,231l-9.18-2a38.63,38.63,0,0,1-7.43,6.88l1.22,9.3-14.58,5.37-5.11-7.87a38,38,0,0,1-10.12-.4l-5.72,7.45-14.1-6.51,2-9.19a37.7,37.7,0,0,1-6.87-7.43l-9.31,1.22-5.37-14.57,7.87-5.11a38,38,0,0,1,.41-10.12l-7.45-5.72,6.51-14.11,9.18,2a38.08,38.08,0,0,1,7.44-6.88l-1.23-9.3,14.58-5.37,5.11,7.87Zm1.19,21.47a16.67,16.67,0,1,0,18,9.14A16.67,16.67,0,0,0,138.54,187.93Z"/><path class="cls-2" d="M180.5,155.9a6.58,6.58,0,0,1,1.72.07l1-1.27,2.4,1.11-.33,1.56a6.74,6.74,0,0,1,1.17,1.27l1.58-.21.91,2.48-1.33.87a6.58,6.58,0,0,1-.07,1.72l1.26,1-1.1,2.4-1.57-.33a6.39,6.39,0,0,1-1.26,1.17l.21,1.58-2.48.91-.87-1.34a6.58,6.58,0,0,1-1.72-.06l-1,1.26-2.4-1.11.34-1.56a6.37,6.37,0,0,1-1.17-1.26l-1.59.2-.91-2.48,1.34-.86a6.66,6.66,0,0,1,.07-1.73l-1.27-1,1.11-2.4,1.56.33a6.69,6.69,0,0,1,1.27-1.16l-.21-1.59,2.48-.91.87,1.34Zm.2,3.65a2.84,2.84,0,1,0,3.07,1.56A2.84,2.84,0,0,0,180.7,159.55Z"/><path class="cls-3" d="M180.5,155.9a6.58,6.58,0,0,1,1.72.07l1-1.27,2.4,1.11-.33,1.56a6.74,6.74,0,0,1,1.17,1.27l1.58-.21.91,2.48-1.33.87a6.58,6.58,0,0,1-.07,1.72l1.26,1-1.1,2.4-1.57-.33a6.39,6.39,0,0,1-1.26,1.17l.21,1.58-2.48.91-.87-1.34a6.58,6.58,0,0,1-1.72-.06l-1,1.26-2.4-1.11.34-1.56a6.37,6.37,0,0,1-1.17-1.26l-1.59.2-.91-2.48,1.34-.86a6.66,6.66,0,0,1,.07-1.73l-1.27-1,1.11-2.4,1.56.33a6.69,6.69,0,0,1,1.27-1.16l-.21-1.59,2.48-.91.87,1.34Zm.2,3.65a2.84,2.84,0,1,0,3.07,1.56A2.84,2.84,0,0,0,180.7,159.55Z"/><path class="cls-4" d="M180.7,159.55a1.34,1.34,0,0,1,.7-.13,2.92,2.92,0,0,1,1.83.7,3,3,0,0,1,1,2.72,3,3,0,0,1-5.63,1,3,3,0,0,1-.05-2.9,2.86,2.86,0,0,1,1.46-1.31,1.36,1.36,0,0,1,.7-.13s-.24.1-.63.3a2.86,2.86,0,0,0-1.24,1.29,2.7,2.7,0,0,0,.13,2.53,2.63,2.63,0,0,0,4.84-.9,2.67,2.67,0,0,0-.79-2.4,2.93,2.93,0,0,0-1.62-.77A5.93,5.93,0,0,1,180.7,159.55Z"/><path class="cls-4" d="M180.5,155.9s-.09-.09-.24-.31l-.69-1,.08,0-2.46,1,.07-.12c.07.48.15,1,.23,1.58v.08l-.07,0a6.26,6.26,0,0,0-1.22,1.15l-.06.07-.09,0-1.57-.31.19-.1c-.35.76-.71,1.57-1.09,2.41l-.06-.22,1.27,1,.09.07,0,.12a6.57,6.57,0,0,0-.05,1.67v.12l-.1.06-1.34.88.08-.25.92,2.48-.23-.14,1.59-.21.13,0,.07.11a6.51,6.51,0,0,0,1.14,1.22l.1.09,0,.13c-.1.49-.21,1-.33,1.56l-.12-.25,2.4,1.1-.28.07c.3-.4.63-.83,1-1.26l.08-.12.14,0a6.5,6.5,0,0,0,1.66.07h0l.22.1h0l0,0,0,0,.06.09.11.17.22.33.43.67-.28-.09,2.48-.91-.14.24-.21-1.58,0-.14.12-.08a6.2,6.2,0,0,0,1.22-1.12l.09-.11.13,0,1.56.33-.25.13c.38-.82.75-1.62,1.12-2.4l.06.26-1.26-1-.1-.07,0-.13a6.2,6.2,0,0,0,.07-1.66v-.13l.1-.06,1.35-.86-.08.22c-.31-.87-.61-1.69-.9-2.48l.19.11-1.58.2h-.1l-.06-.08a6.47,6.47,0,0,0-1.13-1.24l-.07-.06,0-.09c.12-.57.24-1.08.34-1.56l.08.15-2.38-1.13.12,0-1,1.25,0,0h-.05a10.91,10.91,0,0,0-1.7-.14,1.54,1.54,0,0,1,.42-.06,5.78,5.78,0,0,1,1.31.06l-.07,0,1-1.28,0-.07.08,0,2.41,1.08.1,0,0,.11c-.1.48-.21,1-.32,1.56l0-.15a6.48,6.48,0,0,1,1.2,1.29l-.15-.07,1.58-.22.14,0,.05.14.93,2.47,0,.15-.13.08-1.34.88.1-.19a7.12,7.12,0,0,1-.07,1.78l-.08-.2,1.27,1,.14.11-.07.15c-.36.78-.73,1.58-1.1,2.4l-.08.16-.17,0-1.56-.33.22-.08a6.54,6.54,0,0,1-1.31,1.21l.09-.21.21,1.58,0,.18-.18.07-2.48.91-.17.07-.1-.16-.43-.67-.22-.33-.11-.17-.05-.09,0,0,0,0h0l.22.11h0a7.06,7.06,0,0,1-1.79-.08l.23-.08-1,1.26-.11.15-.16-.08-2.4-1.11-.17-.08,0-.17c.12-.54.23-1.07.34-1.56l.07.22a7,7,0,0,1-1.2-1.32l.21.1-1.59.2-.17,0-.06-.16-.9-2.48-.06-.16.14-.09,1.34-.86-.09.19a6.52,6.52,0,0,1,.08-1.78l.07.19-1.26-1-.11-.09.06-.13c.39-.84.77-1.64,1.12-2.4l.06-.12.13,0,1.56.35-.15,0a6.47,6.47,0,0,1,1.3-1.18l-.06.13c-.06-.57-.13-1.11-.18-1.59l0-.1.09,0,2.5-.87,0,0,0,.05.61,1C180.43,155.76,180.5,155.89,180.5,155.9Z"/><path class="cls-3" d="M180.5,155.9a6.58,6.58,0,0,1,1.72.07l1-1.27,2.4,1.11-.33,1.56a6.74,6.74,0,0,1,1.17,1.27l1.58-.21.91,2.48-1.33.87a6.58,6.58,0,0,1-.07,1.72l1.26,1-1.1,2.4-1.57-.33a6.39,6.39,0,0,1-1.26,1.17l.21,1.58-2.48.91-.87-1.34a6.58,6.58,0,0,1-1.72-.06l-1,1.26-2.4-1.11.34-1.56a6.37,6.37,0,0,1-1.17-1.26l-1.59.2-.91-2.48,1.34-.86a6.66,6.66,0,0,1,.07-1.73l-1.27-1,1.11-2.4,1.56.33a6.69,6.69,0,0,1,1.27-1.16l-.21-1.59,2.48-.91.87,1.34Zm.2,3.65a2.84,2.84,0,1,0,3.07,1.56A2.84,2.84,0,0,0,180.7,159.55Z"/><path class="cls-2" d="M204.6,166a11.09,11.09,0,0,1,2.83.55l1.93-1.85,3.69,2.44-1,2.5a10.87,10.87,0,0,1,1.62,2.38l2.67.06.88,4.33-2.43,1.1a10.68,10.68,0,0,1-.55,2.83l1.85,1.93-2.44,3.69-2.5-.94a10.83,10.83,0,0,1-2.38,1.61l-.06,2.67-4.33.89-1.1-2.44a10.44,10.44,0,0,1-2.83-.55L198.57,189l-3.69-2.43,1-2.5a10.7,10.7,0,0,1-1.62-2.39l-2.67-.06-.88-4.33,2.43-1.1a11.26,11.26,0,0,1,.55-2.83l-1.85-1.92,2.44-3.69,2.5.94a10.83,10.83,0,0,1,2.38-1.61l.06-2.67,4.33-.89,1.1,2.43Zm-.59,6.1a4.74,4.74,0,1,0,4.69,3.34A4.74,4.74,0,0,0,204,172.08Z"/><path class="cls-3" d="M204.6,166a11.09,11.09,0,0,1,2.83.55l1.93-1.85,3.69,2.44-1,2.5a10.87,10.87,0,0,1,1.62,2.38l2.67.06.88,4.33-2.43,1.1a10.68,10.68,0,0,1-.55,2.83l1.85,1.93-2.44,3.69-2.5-.94a10.83,10.83,0,0,1-2.38,1.61l-.06,2.67-4.33.89-1.1-2.44a10.44,10.44,0,0,1-2.83-.55L198.57,189l-3.69-2.43,1-2.5a10.7,10.7,0,0,1-1.62-2.39l-2.67-.06-.88-4.33,2.43-1.1a11.26,11.26,0,0,1,.55-2.83l-1.85-1.92,2.44-3.69,2.5.94a10.83,10.83,0,0,1,2.38-1.61l.06-2.67,4.33-.89,1.1,2.43Zm-.59,6.1a4.74,4.74,0,1,0,4.69,3.34A4.74,4.74,0,0,0,204,172.08Z"/><path class="cls-4" d="M204,172.08s.11,0,.31-.05a4.4,4.4,0,0,1,.88.06,4.82,4.82,0,0,1,2.77,1.64,4.91,4.91,0,0,1,.9,4.63,4.94,4.94,0,1,1-8.7-4.39,4.84,4.84,0,0,1,2.66-1.8,4.41,4.41,0,0,1,.88-.11c.2,0,.3,0,.3,0s-.42,0-1.13.27a4.79,4.79,0,0,0-2.44,1.81,4.63,4.63,0,0,0-.48,4.34,4.54,4.54,0,1,0,7.75-4.57,4.83,4.83,0,0,0-2.55-1.66C204.44,172.09,204,172.12,204,172.08Z"/><path class="cls-4" d="M204.6,166s0,0-.08-.14l-.22-.45-.87-1.81.09,0-4.33.93.1-.11c0,.81,0,1.71,0,2.67v.08l-.08,0a11,11,0,0,0-2.34,1.6l-.07.06-.09,0-2.5-.93.2-.06c-.77,1.16-1.58,2.4-2.43,3.7l0-.23,1.86,1.92.08.08,0,.11a11.06,11.06,0,0,0-.53,2.78v.12l-.11.06-2.43,1.1.11-.23c.28,1.36.59,2.83.9,4.33l-.21-.17,2.67.05h.13l.06.12A10.88,10.88,0,0,0,196,184l.09.1-.05.13-.94,2.5-.09-.27,3.69,2.43-.28,0,1.92-1.85.11-.1.13,0a10.32,10.32,0,0,0,2.76.54h0l.2.14h0v0l0,0,0,.08.07.15.14.31.28.61c.18.4.36.81.55,1.21l-.26-.13,4.33-.89-.18.22.06-2.67v-.13l.12-.07a10.42,10.42,0,0,0,2.34-1.57l.1-.09.13,0,2.5.95-.27.08c.84-1.25,1.65-2.48,2.45-3.68l0,.27-1.85-1.94-.08-.09,0-.12a10.37,10.37,0,0,0,.54-2.77v-.12l.11-.05,2.44-1.1-.11.22c-.31-1.53-.6-3-.87-4.34l.17.15-2.67-.07h-.11l0-.09a10.8,10.8,0,0,0-1.58-2.36l-.06-.07,0-.09,1-2.49.05.16-3.67-2.46h.13l-2,1.82,0,0h0a11.07,11.07,0,0,0-2.1-.51,5.34,5.34,0,0,1-.71-.11h.18l.54,0a10.28,10.28,0,0,1,2.13.45l-.07,0c.52-.52,1.15-1.13,1.91-1.87l.05-.06.07,0,3.71,2.4.09.06,0,.11c-.28.77-.59,1.59-.92,2.5l0-.15a11.11,11.11,0,0,1,1.65,2.41l-.15-.09,2.67,0h.14l0,.14c.29,1.37.59,2.8.9,4.32l0,.15-.14.07-2.43,1.11.12-.18a10.85,10.85,0,0,1-.55,2.89l-.05-.21,1.86,1.92.11.13-.09.14-2.43,3.69-.1.15-.16-.06-2.5-.94.23-.05a11,11,0,0,1-2.44,1.65l.13-.19q0,1.32-.06,2.67v.18l-.18,0-4.33.88-.18,0-.08-.17-.55-1.21-.27-.61-.14-.31-.07-.15,0-.08,0,0v0h0l.2.14h0a11.22,11.22,0,0,1-2.89-.56l.23-.06-1.92,1.85-.14.13-.15-.1-3.69-2.44-.15-.1.06-.17,1-2.5,0,.23a11,11,0,0,1-1.64-2.44l.19.12-2.67-.06h-.17l0-.17c-.3-1.5-.6-3-.87-4.33l0-.16.15-.07L193,176l-.12.17a10.75,10.75,0,0,1,.57-2.87l0,.19-1.84-1.94-.1-.1.08-.12,2.45-3.68.07-.11.13,0,2.49,1-.15,0a10.56,10.56,0,0,1,2.42-1.62l-.07.11c0-1,.05-1.85.07-2.66v-.1l.09,0,4.34-.84h.06l0,.05.78,1.82.19.47Z"/><path class="cls-3" d="M204.6,166a11.09,11.09,0,0,1,2.83.55l1.93-1.85,3.69,2.44-1,2.5a10.87,10.87,0,0,1,1.62,2.38l2.67.06.88,4.33-2.43,1.1a10.68,10.68,0,0,1-.55,2.83l1.85,1.93-2.44,3.69-2.5-.94a10.83,10.83,0,0,1-2.38,1.61l-.06,2.67-4.33.89-1.1-2.44a10.44,10.44,0,0,1-2.83-.55L198.57,189l-3.69-2.43,1-2.5a10.7,10.7,0,0,1-1.62-2.39l-2.67-.06-.88-4.33,2.43-1.1a11.26,11.26,0,0,1,.55-2.83l-1.85-1.92,2.44-3.69,2.5.94a10.83,10.83,0,0,1,2.38-1.61l.06-2.67,4.33-.89,1.1,2.43Zm-.59,6.1a4.74,4.74,0,1,0,4.69,3.34A4.74,4.74,0,0,0,204,172.08Z"/><path class="cls-2" d="M206.1,141a9.75,9.75,0,0,1,2.57.5l1.75-1.68,3.35,2.21-.86,2.27a9.75,9.75,0,0,1,1.47,2.17l2.43.05.8,3.94-2.21,1a9.68,9.68,0,0,1-.5,2.57l1.68,1.75-2.21,3.35-2.27-.86a9.75,9.75,0,0,1-2.17,1.47l-.05,2.43-3.94.8-1-2.21a9.75,9.75,0,0,1-2.57-.5l-1.75,1.68-3.35-2.21.86-2.27a10.11,10.11,0,0,1-1.47-2.17l-2.43-.05-.8-3.93,2.21-1a9.6,9.6,0,0,1,.5-2.57l-1.68-1.76,2.21-3.35,2.27.86a10.11,10.11,0,0,1,2.17-1.47l0-2.42,3.94-.81,1,2.21Zm-.54,5.54a4.31,4.31,0,1,0,4.26,3A4.31,4.31,0,0,0,205.56,146.49Z"/><path class="cls-3" d="M206.1,141a9.75,9.75,0,0,1,2.57.5l1.75-1.68,3.35,2.21-.86,2.27a9.75,9.75,0,0,1,1.47,2.17l2.43.05.8,3.94-2.21,1a9.68,9.68,0,0,1-.5,2.57l1.68,1.75-2.21,3.35-2.27-.86a9.75,9.75,0,0,1-2.17,1.47l-.05,2.43-3.94.8-1-2.21a9.75,9.75,0,0,1-2.57-.5l-1.75,1.68-3.35-2.21.86-2.27a10.11,10.11,0,0,1-1.47-2.17l-2.43-.05-.8-3.93,2.21-1a9.6,9.6,0,0,1,.5-2.57l-1.68-1.76,2.21-3.35,2.27.86a10.11,10.11,0,0,1,2.17-1.47l0-2.42,3.94-.81,1,2.21Zm-.54,5.54a4.31,4.31,0,1,0,4.26,3A4.31,4.31,0,0,0,205.56,146.49Z"/><path class="cls-4" d="M205.56,146.49s.09,0,.28-.05a4.24,4.24,0,0,1,.8.05,4.37,4.37,0,0,1,2.52,1.48,4.48,4.48,0,0,1,.83,4.23,4.51,4.51,0,0,1-8.49.27,4.47,4.47,0,0,1,.56-4.27,4.29,4.29,0,0,1,2.43-1.63,3.49,3.49,0,0,1,.79-.1c.19,0,.28,0,.28,0s-.38,0-1,.25a4.37,4.37,0,0,0-2.22,1.65,4.22,4.22,0,0,0-.43,3.92,4.11,4.11,0,1,0,7-4.13,4.44,4.44,0,0,0-2.31-1.51C206,146.51,205.56,146.53,205.56,146.49Z"/><path class="cls-4" d="M206.1,141a2.86,2.86,0,0,1-.28-.53c-.2-.41-.46-.95-.79-1.65l.08,0-3.93.85.1-.11c0,.73,0,1.55,0,2.42v.09l-.08,0a10.11,10.11,0,0,0-2.13,1.46l-.06.06-.09,0-2.28-.84.2-.07-2.2,3.36,0-.22,1.69,1.74.08.09,0,.11a9.8,9.8,0,0,0-.48,2.52v.12l-.11.05-2.21,1,.12-.23c.26,1.24.53,2.57.81,3.94l-.2-.18,2.42.05h.14l.06.12a9.76,9.76,0,0,0,1.43,2.12l.1.1,0,.13c-.27.71-.56,1.49-.86,2.27l-.08-.27,3.35,2.21-.29,0,1.75-1.68.1-.1.14,0a9.63,9.63,0,0,0,2.51.49h0l.2.14h0v0l0,0,0,.07.06.14.13.28.25.55.49,1.11-.25-.13,3.93-.81-.18.22c0-.81,0-1.62,0-2.42v-.14l.13-.06a10,10,0,0,0,2.12-1.43l.1-.09.13,0,2.27.86-.27.09,2.22-3.35,0,.27-1.68-1.76-.09-.09,0-.12a9.71,9.71,0,0,0,.5-2.52v-.12l.11-.05,2.21-1-.11.21c-.28-1.38-.54-2.69-.79-3.93l.17.14-2.42-.06h-.11l0-.09a10.23,10.23,0,0,0-1.43-2.14l-.06-.07,0-.08c.31-.83.6-1.57.87-2.27l.05.16-3.33-2.24h.13l-1.77,1.66,0,0h0a13,13,0,0,0-2.54-.57h.16l.49,0a9.23,9.23,0,0,1,1.94.41h-.07l1.73-1.7.06-.05.07,0,3.37,2.19.09.06,0,.1c-.26.71-.54,1.45-.84,2.28l0-.16a10,10,0,0,1,1.5,2.2l-.15-.1,2.43,0H217l0,.14.82,3.93,0,.15-.14.06-2.21,1,.12-.17a10,10,0,0,1-.5,2.62l0-.21,1.69,1.75.12.12-.1.15-2.2,3.35-.1.15-.17-.06-2.27-.86.23,0A10.11,10.11,0,0,1,210,159.9l.13-.2c0,.8,0,1.61,0,2.42v.19l-.18,0-3.94.81-.18,0-.07-.17c-.17-.37-.34-.73-.5-1.1l-.25-.56-.13-.27-.06-.14,0-.07,0,0v0h0l.19.13h0a9.74,9.74,0,0,1-2.63-.51l.24-.05-1.76,1.68-.13.13-.15-.1-3.35-2.22-.15-.1.06-.17c.3-.78.59-1.56.86-2.27l0,.23a10.28,10.28,0,0,1-1.49-2.22l.19.12-2.43-.05h-.17l0-.17c-.28-1.36-.55-2.69-.8-3.93l0-.16.15-.07,2.21-1-.12.18a10.23,10.23,0,0,1,.52-2.63l0,.2-1.67-1.76-.1-.11.08-.12c.78-1.17,1.52-2.29,2.23-3.34l.07-.11.12.05,2.27.87-.15,0a9.88,9.88,0,0,1,2.2-1.48L201,142c0-.87.05-1.69.07-2.43v-.09l.09,0,4-.76h.06l0,.05.7,1.65Z"/><path class="cls-3" d="M206.1,141a9.75,9.75,0,0,1,2.57.5l1.75-1.68,3.35,2.21-.86,2.27a9.75,9.75,0,0,1,1.47,2.17l2.43.05.8,3.94-2.21,1a9.68,9.68,0,0,1-.5,2.57l1.68,1.75-2.21,3.35-2.27-.86a9.75,9.75,0,0,1-2.17,1.47l-.05,2.43-3.94.8-1-2.21a9.75,9.75,0,0,1-2.57-.5l-1.75,1.68-3.35-2.21.86-2.27a10.11,10.11,0,0,1-1.47-2.17l-2.43-.05-.8-3.93,2.21-1a9.6,9.6,0,0,1,.5-2.57l-1.68-1.76,2.21-3.35,2.27.86a10.11,10.11,0,0,1,2.17-1.47l0-2.42,3.94-.81,1,2.21Zm-.54,5.54a4.31,4.31,0,1,0,4.26,3A4.31,4.31,0,0,0,205.56,146.49Z"/><path class="cls-2" d="M277.7,305.58a9.7,9.7,0,0,1,2.64.1l1.49-1.94,3.68,1.7-.51,2.4a9.52,9.52,0,0,1,1.8,1.94l2.43-.32,1.4,3.8-2.06,1.34a9.7,9.7,0,0,1-.1,2.64l1.94,1.49-1.7,3.68-2.4-.51a10,10,0,0,1-1.94,1.79l.32,2.43-3.81,1.4-1.33-2a10.12,10.12,0,0,1-2.64-.11l-1.49,1.94-3.68-1.69.51-2.4a10.07,10.07,0,0,1-1.8-1.94l-2.43.32-1.4-3.81,2.06-1.33a9.7,9.7,0,0,1,.1-2.64l-1.94-1.5,1.7-3.68,2.4.51a10.34,10.34,0,0,1,1.94-1.79l-.32-2.43,3.8-1.4,1.34,2.06Zm.31,5.6a4.35,4.35,0,1,0,4.71,2.39A4.35,4.35,0,0,0,278,311.18Z"/><path class="cls-3" d="M277.7,305.58a9.7,9.7,0,0,1,2.64.1l1.49-1.94,3.68,1.7-.51,2.4a9.52,9.52,0,0,1,1.8,1.94l2.43-.32,1.4,3.8-2.06,1.34a9.7,9.7,0,0,1-.1,2.64l1.94,1.49-1.7,3.68-2.4-.51a10,10,0,0,1-1.94,1.79l.32,2.43-3.81,1.4-1.33-2a10.12,10.12,0,0,1-2.64-.11l-1.49,1.94-3.68-1.69.51-2.4a10.07,10.07,0,0,1-1.8-1.94l-2.43.32-1.4-3.81,2.06-1.33a9.7,9.7,0,0,1,.1-2.64l-1.94-1.5,1.7-3.68,2.4.51a10.34,10.34,0,0,1,1.94-1.79l-.32-2.43,3.8-1.4,1.34,2.06Zm.31,5.6a4.35,4.35,0,1,0,4.71,2.39A4.35,4.35,0,0,0,278,311.18Z"/><path class="cls-4" d="M278,311.18a2.05,2.05,0,0,1,1.08-.2,4.38,4.38,0,0,1,2.8,1.08,4.6,4.6,0,0,1,1.52,4.17,4.66,4.66,0,0,1-8.64,1.6,4.61,4.61,0,0,1-.08-4.44,4.5,4.5,0,0,1,2.24-2,2.18,2.18,0,0,1,1.08-.2c0,.07-.37.15-1,.45a4.49,4.49,0,0,0-1.9,2,4.16,4.16,0,0,0,.19,3.89,4,4,0,1,0,6.22-5.07,4.42,4.42,0,0,0-2.48-1.18A8.8,8.8,0,0,1,278,311.18Z"/><path class="cls-4" d="M277.7,305.58a2.86,2.86,0,0,1-.37-.48l-1.06-1.52.14.05-3.78,1.46.11-.19c.11.74.22,1.55.35,2.42l0,.13-.11.07a10,10,0,0,0-1.88,1.77l-.09.11-.14,0-2.4-.49.28-.14c-.53,1.17-1.08,2.4-1.67,3.69l-.09-.34,2,1.49.14.1,0,.18a9.41,9.41,0,0,0-.09,2.56v.18l-.15.11-2.05,1.34.12-.38,1.42,3.8-.36-.21,2.43-.33.2,0,.12.16a9.23,9.23,0,0,0,1.74,1.87l.16.14-.05.2c-.15.75-.33,1.57-.5,2.4l-.2-.39,3.69,1.69-.43.11,1.49-1.95.13-.17.21,0a9.79,9.79,0,0,0,2.55.1h0l.33.16h0l0,0,0,.06.09.13.16.26.34.51.66,1-.42-.14,3.81-1.4-.23.38c-.11-.82-.21-1.63-.31-2.43l0-.21.17-.12a9.69,9.69,0,0,0,1.88-1.73l.13-.16.2,0,2.4.52-.38.19c.58-1.26,1.15-2.48,1.71-3.68l.1.4-1.94-1.5-.15-.12,0-.19a9.61,9.61,0,0,0,.12-2.56l0-.18.15-.1,2.06-1.33-.11.35c-.49-1.34-.94-2.6-1.38-3.81l.29.18-2.43.3-.16,0-.08-.13a9.69,9.69,0,0,0-1.74-1.9l-.11-.1,0-.13c.2-.87.37-1.65.54-2.4l.12.24-3.66-1.75.19,0-1.53,1.91,0,.06h-.07a15.25,15.25,0,0,0-2.62-.22,1.92,1.92,0,0,1,.65-.1,8.78,8.78,0,0,1,2,.09l-.11,0c.41-.55.89-1.19,1.46-2l.07-.1.12.06,3.7,1.65.15.07,0,.16c-.15.75-.31,1.54-.49,2.41l-.08-.23a9.51,9.51,0,0,1,1.86,2l-.24-.11,2.42-.33.22,0,.07.21,1.43,3.79.08.22-.2.13-2.05,1.35.14-.29a10,10,0,0,1-.1,2.72l-.12-.3,1.95,1.48.21.16-.11.24c-.55,1.2-1.11,2.43-1.69,3.68l-.11.25-.27-.06-2.4-.5.34-.12a9.9,9.9,0,0,1-2,1.86l.15-.33c.11.8.21,1.61.32,2.43l0,.28-.27.09-3.8,1.41-.27.09-.15-.23-.67-1-.33-.51-.17-.26-.08-.13,0-.06,0,0h0l.33.16h0a10.3,10.3,0,0,1-2.73-.11l.34-.13-1.49,1.94-.17.22-.26-.11-3.68-1.71-.25-.12.06-.27c.18-.82.35-1.64.51-2.39l.12.33a10,10,0,0,1-1.85-2l.32.14-2.43.31-.26,0-.09-.25-1.39-3.81-.09-.24.22-.13,2.06-1.33-.14.29a10.12,10.12,0,0,1,.12-2.72l.11.28-1.93-1.5-.18-.14.09-.2,1.73-3.67.08-.19.2.05,2.39.53-.23.07a10.18,10.18,0,0,1,2-1.81l-.08.2c-.11-.87-.21-1.69-.29-2.43l0-.15.13-.05,3.83-1.33.09,0,0,.08.94,1.54A3.71,3.71,0,0,1,277.7,305.58Z"/><path class="cls-3" d="M277.7,305.58a9.7,9.7,0,0,1,2.64.1l1.49-1.94,3.68,1.7-.51,2.4a9.52,9.52,0,0,1,1.8,1.94l2.43-.32,1.4,3.8-2.06,1.34a9.7,9.7,0,0,1-.1,2.64l1.94,1.49-1.7,3.68-2.4-.51a10,10,0,0,1-1.94,1.79l.32,2.43-3.81,1.4-1.33-2a10.12,10.12,0,0,1-2.64-.11l-1.49,1.94-3.68-1.69.51-2.4a10.07,10.07,0,0,1-1.8-1.94l-2.43.32-1.4-3.81,2.06-1.33a9.7,9.7,0,0,1,.1-2.64l-1.94-1.5,1.7-3.68,2.4.51a10.34,10.34,0,0,1,1.94-1.79l-.32-2.43,3.8-1.4,1.34,2.06Zm.31,5.6a4.35,4.35,0,1,0,4.71,2.39A4.35,4.35,0,0,0,278,311.18Z"/></g><g id="Light_bulb_" data-name="Light bulb
"><path class="cls-5" d="M256.51,88.05a30.78,30.78,0,0,0-30.9-31.76c-17.41.1-31.81,14.49-32.15,32.14A31,31,0,0,0,211,117.23c-.07,3.79-.16,8.06-.16,8.06l27.64-.17s.25-4.52.39-8.56A33,33,0,0,0,256.51,88.05Z"/><path class="cls-2" d="M221.51,125c0-10.37.77-20.74.62-31.1,0-2.1-.09-4.19-.29-6.27-.25-2.61-.8-5.51-3.17-7a4,4,0,0,0-3.5-.41,5.13,5.13,0,0,0-2.54,2.51,13.26,13.26,0,0,0-1.18,7.66,13.77,13.77,0,0,0,8.79,11.39,14.35,14.35,0,0,0,14.5-2.93c3.81-3.59,5.94-9.78,4.21-14.78-.75-2.16-2.57-4.58-5.12-4.28s-3.71,2.78-4.29,5a49,49,0,0,0-1.06,7.82c-.27,3-.46,6-.62,9.06-.33,6.23-.5,12.46-.83,18.69-.07,1.37-.16,2.75-.25,4.12,0,.47.68.44.71,0,.76-11,.73-22.07,1.82-33.07a32.62,32.62,0,0,1,1.2-7.34,5.65,5.65,0,0,1,2-3,3.09,3.09,0,0,1,3.46.06c2.18,1.46,2.84,4.45,2.8,7a14.61,14.61,0,0,1-2.19,7.42,13.52,13.52,0,0,1-13,6.36,12.76,12.76,0,0,1-10.79-8.76,14,14,0,0,1-.46-7.28c.51-2.42,2.08-5.83,5.08-4.92s3.48,4.23,3.73,6.87c.17,1.84.24,3.68.27,5.52.18,9.6-.4,19.22-.58,28.82,0,1,0,2,0,2.92,0,.46.71.43.71,0Z"/><g id="_2gGvdE.tif" data-name="2gGvdE.tif"><path class="cls-6" d="M218,139.21a8.16,8.16,0,0,1,1.78,1.61,1.77,1.77,0,0,0,1.45.69l5.56,0a1.92,1.92,0,0,0,1.57-.85,3.7,3.7,0,0,1,1.93-1.51Z"/></g><path class="cls-4" d="M212.27,123.55c0,.12,1.12,8.91,1.55,12.27a4,4,0,0,0,2.24,3.18,3.71,3.71,0,0,0,1.58.34l12.16-.08s3.18,0,3.94-2.59,2.45-13.28,2.45-13.28Z"/><path class="cls-6" d="M235.26,135l-22.08.23a.58.58,0,0,1-.6-.6v-.07a.64.64,0,0,1,.62-.62l22.08-.23a.59.59,0,0,1,.59.61v.07A.62.62,0,0,1,235.26,135Z"/><path class="cls-6" d="M235.6,132.22l-22.66.23a.58.58,0,0,1-.59-.6v-.07a.62.62,0,0,1,.61-.61l22.66-.24a.59.59,0,0,1,.59.61v.06A.62.62,0,0,1,235.6,132.22Z"/><path class="cls-2" d="M236.11,129.44l-23.58.25a.6.6,0,0,1-.59-.61V129a.63.63,0,0,1,.61-.62l23.58-.25a.59.59,0,0,1,.59.61v.07A.62.62,0,0,1,236.11,129.44Z"/><path class="cls-4" d="M236.11,129.44a.65.65,0,0,0,.44-.23.68.68,0,0,0,.13-.58.55.55,0,0,0-.6-.43l-5.47.09-18.06.21a.52.52,0,0,0-.44.28.6.6,0,0,0,0,.54.47.47,0,0,0,.44.26h.65l2.53,0,4.8,0,8.12-.06,5.47,0H236l-.39,0-1.49,0-5.47.09-8.12.11-4.79.06-2.54,0h-.64a.69.69,0,0,1-.62-.37.66.66,0,0,1-.08-.36.8.8,0,0,1,.08-.37.74.74,0,0,1,.64-.4l18.05-.15,5.47,0a.64.64,0,0,1,.66.51.77.77,0,0,1-.15.62.67.67,0,0,1-.35.2Z"/><path class="cls-6" d="M209.57,118.26c0,.22.39,5.61.6,8.38a3.21,3.21,0,0,0,1.44,2.47l1.22.81,23.52-.16,1.24-.81a3.49,3.49,0,0,0,1.54-2.53l.85-8.37Z"/><g class="cls-7"><path d="M213.57,135.15a34.5,34.5,0,0,0,7.55.5c2.16,0,4.29,0,6.64,0,1.72-.05,3.3-.14,5-.22a4.94,4.94,0,0,0,2-.42Z"/></g><g class="cls-7"><path d="M213.63,132.4a35,35,0,0,0,7.54.5c2.17,0,4.29,0,6.64,0,1.72-.05,3.3-.14,5-.22a5.07,5.07,0,0,0,2-.42Z"/></g><path class="cls-4" d="M238.53,127.57c0,.06-6.29.15-14.05.2s-14,0-14,0,6.29-.15,14.05-.2S238.53,127.51,238.53,127.57Z"/><path class="cls-4" d="M239.82,117.89c0,.07-6.83.19-15.26.28s-15.26.12-15.26,0,6.83-.19,15.26-.28S239.82,117.83,239.82,117.89Z"/><path class="cls-2" d="M219.1,65.7a5.47,5.47,0,0,1,2.19-3.89A9.38,9.38,0,0,1,228,59.59c7.11.41,12,2.61,16.8,8.24,1.63,1.91,3.54,5.43,3.38,8.11a5,5,0,0,1-1.67,3.53c-2.68,2.29-6.37.43-8.53-2-2-2.25-3.6-5.09-6.35-6.29-2.27-1-4.9-.66-7.36-1S219.13,68.23,219.1,65.7Z"/><path class="cls-2" d="M244.48,86.18a4.82,4.82,0,0,1,5-3.07,4.64,4.64,0,0,1,3.15,2.71,4.57,4.57,0,0,1-1.08,4.88,4.14,4.14,0,0,1-4.85.56C245.18,90.35,243.9,87.86,244.48,86.18Z"/></g><g id="Character_2" data-name="Character 2"><path class="cls-4" d="M377.15,141.71a23.71,23.71,0,0,1-.71-5.47h0a16.37,16.37,0,0,1,2.47-8,10.63,10.63,0,0,1,5.46-4.5c2.29-.92,3.57-1.74,6.87-2.13a19.12,19.12,0,0,1,15.33,4.93,14.74,14.74,0,0,1,3.31,4.44c1.42,2.24,10.95,23.82,11.33,36.82.34,11.66,3.83,16.95-1.51,18s-26.49,9.87-31.86,4.69C383.58,186.4,378.9,154.66,377.15,141.71Z"/><path class="cls-8" d="M332.49,161.56s3.3,6.92,4.91,8.16,16.21,4.78,16.16,4.63-3-10-3-10l-5.43-.48-1.53-4.78-2.54-5.45-3-.88Z"/><path class="cls-8" d="M342.15,151.8s-6.13-2.79-6.28-2.75l.12,1.51a4.17,4.17,0,0,0,3.24,3.57l1.12,1.77s-4,6.76-2.65,10,7.45-2,7.45-2-.74-5.72-.75-5.93S342.15,151.8,342.15,151.8Z"/><path class="cls-8" d="M335.87,149.05s-1.53-.1-2,1.06a3.67,3.67,0,0,0,.29,2.61,9.78,9.78,0,0,0,2.05,2.52c.94.64,1.69,1.33,2.43.57,1-1.06.26-1.76.26-1.76Z"/><path class="cls-8" d="M334,152.34a1.91,1.91,0,0,0-1.57,2.89c1.09,2.59,3.68,4,4.93,3.71s1.67-.55,2-1.24-.58-1.56-1.19-1.59S334,152.34,334,152.34Z"/><path class="cls-8" d="M333,154.16a1.71,1.71,0,0,0-1.4,2.59c1,2.32,3.29,3.61,4.41,3.32s1.5-.49,1.81-1.11-.52-1.4-1.07-1.43S333,154.16,333,154.16Z"/><path class="cls-8" d="M332.28,156.75a1.71,1.71,0,0,0-1.41,2.59c1,2.32,3.3,3.61,4.42,3.32s1.49-.49,1.8-1.1-.51-1.41-1.06-1.43S332.28,156.75,332.28,156.75Z"/><path class="cls-9" d="M333.91,152a8.14,8.14,0,0,0,2.58,4.58,8.93,8.93,0,0,0,.91.6,1.61,1.61,0,0,0,1.07.16,1.2,1.2,0,0,0,.79-.6,1.66,1.66,0,0,0,.21-.81,3,3,0,0,0-.28-1.13c-.11-.24-.19-.37-.22-.36a1.29,1.29,0,0,0,.09.41,3.31,3.31,0,0,1,.16,1.07,1.12,1.12,0,0,1-.82,1.1,1.28,1.28,0,0,1-.84-.15c-.27-.16-.58-.37-.86-.57a3.45,3.45,0,0,1-.73-.69l-.54-.82c-.34-.52-.64-1-.87-1.41C334.1,152.52,334,152,333.91,152Z"/><path class="cls-9" d="M332.17,154.44a3.31,3.31,0,0,0,.47,1.23A5.8,5.8,0,0,0,334.8,158a3.78,3.78,0,0,0,3.15.4,1,1,0,0,0,.63-.78c0-.25-.08-.37-.1-.36a1.7,1.7,0,0,1,0,.33.87.87,0,0,1-.59.58,3.79,3.79,0,0,1-2.88-.47,6.42,6.42,0,0,1-2.12-2.15A9.22,9.22,0,0,0,332.17,154.44Z"/><path class="cls-9" d="M331.56,156.75a2.76,2.76,0,0,0,.47,1.16,4.64,4.64,0,0,0,2.29,2,4,4,0,0,0,1.68.25,2.1,2.1,0,0,0,1.31-.48,1.23,1.23,0,0,0,.41-.86c0-.23-.09-.34-.11-.33s0,.12,0,.32a1.19,1.19,0,0,1-.43.68,3.09,3.09,0,0,1-2.7.09,5,5,0,0,1-2.21-1.76C331.8,157.17,331.62,156.73,331.56,156.75Z"/><path class="cls-9" d="M331.4,160.32s.08.32.45.68a3.19,3.19,0,0,0,.73.51,2.45,2.45,0,0,0,1.07.27,1.87,1.87,0,0,0,1.78-.84.79.79,0,0,0,0-.64c-.06-.14-.14-.18-.16-.17a1,1,0,0,1-.07.69,1.78,1.78,0,0,1-1.55.61,3,3,0,0,1-1.65-.62C331.63,160.53,331.44,160.29,331.4,160.32Z"/><path class="cls-8" d="M345.15,163.86c-.06-.43-.74-5.93-.74-5.93l-2.26-6.13-5.8-3.36a2.87,2.87,0,0,0,.18,3.69c1.63,1.93,2.7,2,2.7,2l.44,2.25s-4.53,7.28-.15,11.43l2.54.7Z"/><path class="cls-9" d="M336.34,148.55a1.61,1.61,0,0,0-.27.49,3,3,0,0,0-.23,1.53,4,4,0,0,0,1,2.13,10,10,0,0,0,2.3,1.88l-.07-.1a12.93,12.93,0,0,1,.32,1.33,2.62,2.62,0,0,1,0,.67c0,.06,0,0,0,.11l-.1.16-.18.34a13.25,13.25,0,0,0-1.36,7.08,6.62,6.62,0,0,0,.64,2.11,4,4,0,0,0,.32.51.74.74,0,0,0,.13.16,8.56,8.56,0,0,1-.84-2.81,13.61,13.61,0,0,1,1.43-6.89l.17-.32.09-.16a.57.57,0,0,0,.08-.23,2.54,2.54,0,0,0,0-.79,13.71,13.71,0,0,0-.34-1.37l0-.06-.05,0a10,10,0,0,1-2.26-1.78,3.83,3.83,0,0,1-1-2,3.25,3.25,0,0,1,.12-1.47A2.9,2.9,0,0,0,336.34,148.55Z"/><path class="cls-5" d="M416,173.08c-10.29,7.67-33.54,9.83-37.75,9.84s-34-9.61-34-9.61l3.55-12.07,30.51,7.37,29.78-9.54c6.44-2.06,12.72,4.18,10.31,10.5A8.64,8.64,0,0,1,416,173.08Z"/><path class="cls-4" d="M443.63,228l0,43.06,40.23,29.5-11.74,18.13-47.94-34.14a9.86,9.86,0,0,1-2.92-5.21l-9.68-46.18Z"/><path class="cls-4" d="M426.49,246.84,391,269.34,396.92,324l-18.68,2.75-11-52.86s-2.92-11.16,3.29-17.33c7.31-7.27,32.79-31.41,32.79-31.41l1.77-13.32,22.53-10.08,6,3.61c5.52,4.37,8.95,9.41,9.86,16.4a28.27,28.27,0,0,1,.22,2.91,19.41,19.41,0,0,1-1.34,7.84C439.45,239.69,426.49,246.84,426.49,246.84Z"/><path class="cls-6" d="M391.44,269.55l.16-.09.45-.28,1.73-1.13,6.33-4.19L420.94,250l11.45-7.69,5-3.36a11.64,11.64,0,0,0,2.07-1.8,15.06,15.06,0,0,0,1.58-2,16.58,16.58,0,0,0,2.6-7.1,12.56,12.56,0,0,0,.05-2.78,1.23,1.23,0,0,0,0,.18c0,.14,0,.32,0,.54a17.4,17.4,0,0,1-.15,2,16.64,16.64,0,0,1-2.67,7,16.17,16.17,0,0,1-1.56,1.94,12.11,12.11,0,0,1-2,1.75l-5,3.34-11.46,7.67-20.77,14L393.72,268l-1.7,1.17-.44.32Z"/><path class="cls-8" d="M396.37,126,386,125.9l-2.26,1.18c-5.3,2.06-6.71,9.33-5.09,13.64,1.8,4.8,4.19,10.58,6.3,13.81,4.25,6.49,10.53,4.75,10.53,4.75s2.25,5.82,3.12,8.21L409.79,160l-10.1-32.52A2.7,2.7,0,0,0,396.37,126Z"/><path class="cls-9" d="M395.29,158.26a20.07,20.07,0,0,0,8.5-6.91s-.33,6.15-7.84,8.72Z"/><path class="cls-4" d="M383.51,145.46a1,1,0,0,0,1.28.52,1,1,0,0,0,.56-1.23,1,1,0,0,0-1.27-.51A.94.94,0,0,0,383.51,145.46Z"/><path class="cls-4" d="M381.15,142.49c.16.07.62-.74,1.58-1.17s1.89-.27,1.94-.43-.18-.24-.58-.33a2.77,2.77,0,0,0-1.62.2,2.69,2.69,0,0,0-1.2,1.08C381.08,142.2,381.07,142.46,381.15,142.49Z"/><path class="cls-4" d="M390.46,147.78a7.44,7.44,0,0,0-1.69.42c-.26.09-.52.14-.63,0a1.4,1.4,0,0,1-.17-.81c0-.7-.07-1.43-.11-2.2a35,35,0,0,0-.57-5.65,35.84,35.84,0,0,0,.11,5.68c.06.77.1,1.5.15,2.2a1.55,1.55,0,0,0,.31,1,.66.66,0,0,0,.57.18,1.53,1.53,0,0,0,.44-.13A6.5,6.5,0,0,0,390.46,147.78Z"/><path class="cls-9" d="M394.9,148.78a1.69,1.69,0,0,0-.88-.73,1.66,1.66,0,0,0-1.91.61,2.21,2.21,0,0,0,0,2.24h0a2,2,0,0,0,1.64.27l.26-.09a1.85,1.85,0,0,0,1-.89A1.59,1.59,0,0,0,394.9,148.78Z"/><path class="cls-4" d="M393.6,147.18c-.16.06.31,1.11-.25,2.25s-1.73,1.53-1.68,1.68.34.1.82-.1a2.89,2.89,0,0,0,1.42-1.35,2.44,2.44,0,0,0,.15-1.86C393.9,147.34,393.67,147.14,393.6,147.18Z"/><path class="cls-4" d="M380.16,138.91c.26.16.93-.33,1.83-.64s1.71-.42,1.81-.71-.16-.33-.57-.43a2.76,2.76,0,0,0-1.62.13,2.82,2.82,0,0,0-1.31,1C380.06,138.56,380,138.83,380.16,138.91Z"/><path class="cls-4" d="M393.61,141.09a1,1,0,0,1-.5,1.27.93.93,0,0,1-1.27-.44,1,1,0,0,1,.5-1.27A.93.93,0,0,1,393.61,141.09Z"/><path class="cls-4" d="M394.35,137c-.07.17-1-.06-2,.34s-1.5,1.18-1.65,1.1-.05-.29.17-.65a2.79,2.79,0,0,1,1.27-1,2.53,2.53,0,0,1,1.6-.11C394.19,136.72,394.38,136.9,394.35,137Z"/><path class="cls-4" d="M392.54,134c-.11.3-1,.38-1.87.74s-1.62.83-1.89.66-.09-.35.16-.7a3.23,3.23,0,0,1,3-1.13C392.38,133.71,392.58,133.9,392.54,134Z"/><path class="cls-8" d="M402.75,140.15c-.23-.52-.18-2,.3-2.33,1.27-.83,3.8-1.83,5.39,1.65,2.17,4.75-3.42,6.35-3.49,6.21S403.56,142,402.75,140.15Z"/><path class="cls-9" d="M405.84,143s.11,0,.28,0a.88.88,0,0,0,.62-.27,2.24,2.24,0,0,0,.11-2.27,3,3,0,0,0-.77-1.08,1.07,1.07,0,0,0-.92-.35.47.47,0,0,0-.38.45c0,.16.07.24.05.26s-.14,0-.19-.24a.56.56,0,0,1,.05-.39.7.7,0,0,1,.4-.33,1.3,1.3,0,0,1,1.2.34,3.17,3.17,0,0,1,.9,1.2,2.38,2.38,0,0,1-.27,2.6,1,1,0,0,1-.82.22C405.9,143.06,405.83,143,405.84,143Z"/><path class="cls-4" d="M403.59,137.6l-.75,1.76c-7.31-3.05-22.67-11.84-21.8-11.3a16.74,16.74,0,0,1,7.32-3.77c4.23-.85,12.53-1.76,14.22,3A26.3,26.3,0,0,1,403.59,137.6Z"/><path class="cls-2" d="M395.91,162.51,398,167s-5.34,16-5.67,20.44c-.69,9.17,12.78,24.33,12.78,24.33l26.46-6.52s-5.44-26.22-7.14-32.6c-1.54-5.78-6.86-16.42-14.14-16l-2.52-6.57-11.7,11.61A.69.69,0,0,0,395.91,162.51Z"/><path class="cls-5" d="M410,154.69s6.05,1.47,9.19,5.16,6.32,16.19,7.51,22c.91,4.49,4.62,18.31,4.62,18.31,2.58,3.89,21.88,27.12,20.64,28.95s-28.42,13.18-28.42,13.18-16.38-26.38-18.47-36.42-6.55-23.17-5-35.13a34.41,34.41,0,0,1,8.63-18.51Z"/><g class="cls-7"><path d="M435.51,213.93l-14.68,4.52,4.2,5a1.74,1.74,0,0,0,1.82.33c3.31-1.32,13.52-5.48,13.27-6C439.26,216,435.51,213.93,435.51,213.93Z"/></g><path class="cls-5" d="M435.17,212.47l-14.34,6,3.86,3.51a1.76,1.76,0,0,0,1.83.33c3.3-1.32,13.51-5.48,13.27-6C438.93,214.49,435.17,212.47,435.17,212.47Z"/><path class="cls-4" d="M435.17,212.47l.37.25c.24.15.6.38,1,.69a19.52,19.52,0,0,1,1.59,1.2,7.87,7.87,0,0,1,.88.86,5.21,5.21,0,0,1,.41.52l.17.3,0,0s0,0,0,0,0,0,0,0l-.12.1a22.55,22.55,0,0,1-2.83,1.43c-1.06.47-2.19,1-3.38,1.46l-3.76,1.56-2,.81-1,.41a1.59,1.59,0,0,1-1.63-.17c-.19-.16-.4-.35-.59-.53l-1.16-1-2.22-2-.05.29,10.23-4.34,3-1.29.8-.37.27-.14-.27.09-.8.3-3,1.19-10.34,4.24-.26.1.21.19,2.21,2,1.16,1.06c.2.17.37.35.6.54a1.82,1.82,0,0,0,.8.36,1.93,1.93,0,0,0,1.19-.14l1-.41,2-.82,3.76-1.58c1.19-.51,2.32-1,3.37-1.49a21.25,21.25,0,0,0,2.86-1.51.7.7,0,0,0,.16-.14.25.25,0,0,0,.06-.17.66.66,0,0,0,0-.09l0,0a3.37,3.37,0,0,0-.19-.32,4.7,4.7,0,0,0-.44-.54,9,9,0,0,0-.92-.86c-.62-.49-1.18-.86-1.64-1.16s-.84-.5-1.1-.63A1.77,1.77,0,0,0,435.17,212.47Z"/><path class="cls-4" d="M400.83,186.9s0-.53,0-1.47,0-2.3.1-4a67.33,67.33,0,0,1,1.89-13c.27-1.07.58-2.1.91-3.09.09-.25.18-.49.26-.74l.13-.36,0-.09a.49.49,0,0,0,0-.15c0-.09-.13-.25-.17-.23a.33.33,0,0,0-.15,0,3.05,3.05,0,0,0-.79.18l-.36.13-.17.07-.1,0-.12.09.24.24a14.36,14.36,0,0,0,1.87-1.87c.4-.76.78-1.42,1.19-2.06.8-1.25,1.58-2.32,2.24-3.19s1.21-1.54,1.59-2a5,5,0,0,0,.57-.71l-.18.15-.48.49c-.41.43-1,1.09-1.67,1.94s-1.49,1.91-2.32,3.17c-.41.62-.83,1.33-1.21,2a14.05,14.05,0,0,1-1.82,1.79l.13.16c.16.13.08.09.1.1l0,0,.08,0,.16-.06.34-.12a2.55,2.55,0,0,1,.67-.15h0l0-.08s0,0,0,0h0c-.08-.05-.08,0-.09,0l0,.09-.13.36-.27.74c-.34,1-.66,2-.93,3.12a62,62,0,0,0-1.79,13.06c-.05,1.69,0,3.06,0,4,0,.47.05.83.08,1.08A2,2,0,0,0,400.83,186.9Z"/><path class="cls-4" d="M391.34,311.43l6.6,21.43.16,2.49-32.4.84c.11-2.94,16.7-9.27,16.7-9.27l-4.68-12.28Z"/><path class="cls-6" d="M398.1,335.35l-.16-2.48-31,1.73s-1.43.63-1.24,1.59Z"/><path class="cls-6" d="M382.05,327c0,.15.8.2,1.59.66s1.23,1.09,1.37,1-.12-.92-1.08-1.46S382,326.83,382.05,327Z"/><path class="cls-6" d="M378.75,328.33c0,.15.66.39,1.21,1s.73,1.29.89,1.28.23-.87-.47-1.63S378.75,328.19,378.75,328.33Z"/><path class="cls-6" d="M376.69,332.32c.14,0,.34-.73-.09-1.54s-1.18-1.12-1.24-1,.41.55.75,1.22S376.53,332.31,376.69,332.32Z"/><path class="cls-4" d="M382.05,323.15c.07.14.79-.09,1.69,0s1.6.28,1.68.15-.61-.65-1.66-.68S382,323,382.05,323.15Z"/><path class="cls-4" d="M470.82,294.18l21.73,15.05L472.91,338c-2.48-1.94,2.48-20.38,2.48-20.38l-14.35-9Z"/><path class="cls-6" d="M492.55,309.23l-2.25-1.42-18,28.09s-.34,1.64.6,2.08Z"/><path class="cls-6" d="M475.17,317.55c.13.09.67-.57,1.57-1s1.71-.38,1.74-.55-.87-.48-2,0S475,317.5,475.17,317.55Z"/><path class="cls-6" d="M474.28,321.38c.11.12.75-.34,1.64-.43s1.57.17,1.66,0-.6-.75-1.7-.61S474.16,321.29,474.28,321.38Z"/><path class="cls-6" d="M476.52,325.42c.12-.11-.41-.76-1.39-.89s-1.71.32-1.64.45.74,0,1.54.12S476.41,325.55,476.52,325.42Z"/><path class="cls-5" d="M250.19,155.54a67,67,0,0,1,16.69-6.11l4.3-15.92,27.26,1.12,3,16.22a66.86,66.86,0,0,1,16.14,7.46l14.29-8.21,18.48,20.07L341,183.73a66.6,66.6,0,0,1,6.12,16.7l15.91,4.3L361.87,232l-16.21,3a66.62,66.62,0,0,1-7.47,16.13l8.21,14.29-20.06,18.48-13.57-9.36a66.67,66.67,0,0,1-16.69,6.12l-4.3,15.92-27.26-1.12-3-16.22a66.51,66.51,0,0,1-16.14-7.47l-14.29,8.21-18.48-20.06L222,246.32a66.74,66.74,0,0,1-6.12-16.7L200,225.32l1.13-27.25,16.21-3A66.69,66.69,0,0,1,224.77,179l-8.21-14.29,20.06-18.47,13.57,9.35Zm16.3,34.07a29.27,29.27,0,1,0,35.41,2.76A29.28,29.28,0,0,0,266.49,189.61Z"/><path class="cls-10" d="M250.19,155.54a67,67,0,0,1,16.69-6.11l4.3-15.92,27.26,1.12,3,16.22a66.86,66.86,0,0,1,16.14,7.46l14.29-8.21,18.48,20.07L341,183.73a66.6,66.6,0,0,1,6.12,16.7l15.91,4.3L361.87,232l-16.21,3a66.62,66.62,0,0,1-7.47,16.13l8.21,14.29-20.06,18.48-13.57-9.36a66.67,66.67,0,0,1-16.69,6.12l-4.3,15.92-27.26-1.12-3-16.22a66.51,66.51,0,0,1-16.14-7.47l-14.29,8.21-18.48-20.06L222,246.32a66.74,66.74,0,0,1-6.12-16.7L200,225.32l1.13-27.25,16.21-3A66.69,66.69,0,0,1,224.77,179l-8.21-14.29,20.06-18.47,13.57,9.35Zm16.3,34.07a29.27,29.27,0,1,0,35.41,2.76A29.28,29.28,0,0,0,266.49,189.61Z"/><path class="cls-3" d="M250.19,155.54a67,67,0,0,1,16.69-6.11l4.3-15.92,27.26,1.12,3,16.22a66.86,66.86,0,0,1,16.14,7.46l14.29-8.21,18.48,20.07L341,183.73a66.6,66.6,0,0,1,6.12,16.7l15.91,4.3L361.87,232l-16.21,3a66.62,66.62,0,0,1-7.47,16.13l8.21,14.29-20.06,18.48-13.57-9.36a66.67,66.67,0,0,1-16.69,6.12l-4.3,15.92-27.26-1.12-3-16.22a66.51,66.51,0,0,1-16.14-7.47l-14.29,8.21-18.48-20.06L222,246.32a66.74,66.74,0,0,1-6.12-16.7L200,225.32l1.13-27.25,16.21-3A66.69,66.69,0,0,1,224.77,179l-8.21-14.29,20.06-18.47,13.57,9.35Zm16.3,34.07a29.27,29.27,0,1,0,35.41,2.76A29.28,29.28,0,0,0,266.49,189.61Z"/><path class="cls-4" d="M266.49,189.61s.13-.1.39-.27l1.19-.73a29.31,29.31,0,0,1,4.86-2.24,29.94,29.94,0,0,1,8.34-1.53,29.12,29.12,0,0,1,11.08,1.68l1.48.56,1.48.68.74.35.73.41c.48.29,1,.55,1.46.86a28.2,28.2,0,0,1,5.46,4.54,28.74,28.74,0,0,1,7.38,13.65l.42,2c.11.7.15,1.4.22,2.11a30.58,30.58,0,0,1,.08,4.29,29.42,29.42,0,0,1-1.88,8.63,31.54,31.54,0,0,1-1.91,4.14c-.39.66-.83,1.29-1.25,1.94l-.63,1-.75.9-1.5,1.79L302.16,236l-.86.81-.95.71L298.43,239a29.06,29.06,0,0,1-17.76,4.65,30,30,0,0,1-16.08-5.91L263,236.37c-.53-.44-1-1-1.46-1.42s-.95-.95-1.4-1.45l-1.21-1.56a29.16,29.16,0,0,1-5.88-20,29.31,29.31,0,0,1,3-10.79l.55-1.09c.1-.18.18-.35.27-.53l.32-.49,1.23-1.85a14.83,14.83,0,0,1,1.26-1.6c.42-.49.82-1,1.19-1.41.83-.81,1.61-1.5,2.26-2.12a6.58,6.58,0,0,1,1-.78l.83-.6,1.13-.82c.26-.18.4-.26.4-.26s-.12.11-.37.3l-1.1.85-.82.62a8,8,0,0,0-.94.79c-.64.63-1.4,1.33-2.22,2.15l-1.16,1.41a12.79,12.79,0,0,0-1.24,1.6l-1.2,1.85-.31.48-.27.53q-.25.54-.54,1.08a29.19,29.19,0,0,0-2.94,10.7,28.88,28.88,0,0,0,5.88,19.72l1.2,1.54c.44.49.92.94,1.39,1.42s.91,1,1.43,1.4l1.57,1.3a29.5,29.5,0,0,0,15.85,5.79,28.67,28.67,0,0,0,17.47-4.57l1.89-1.41.94-.7.85-.8,1.69-1.59L305,232.3l.74-.88.62-1c.41-.64.85-1.26,1.24-1.91a30.43,30.43,0,0,0,1.87-4.07,28.89,28.89,0,0,0,1.87-8.5,29.8,29.8,0,0,0-.07-4.23c-.08-.69-.1-1.39-.21-2.07l-.42-2a28.38,28.38,0,0,0-7.24-13.48,28.84,28.84,0,0,0-5.37-4.5c-.47-.3-1-.57-1.44-.85l-.72-.41-.73-.35-1.45-.68-1.47-.56a29.18,29.18,0,0,0-11-1.73,30.34,30.34,0,0,0-8.29,1.44,31.77,31.77,0,0,0-4.88,2.15l-1.2.69Z"/><path class="cls-4" d="M250.19,155.54l-.88-.58-2.59-1.76c-2.29-1.58-5.7-3.91-10.14-6.95h.09l-20,18.51,0-.14,8.23,14.28,0,.07-.05.07a67.14,67.14,0,0,0-7.43,16.1l0,.09-.09,0-16.21,3,.13-.15c-.35,8.58-.71,17.68-1.1,27.25l-.14-.19,15.92,4.3.11,0,0,.11a66.92,66.92,0,0,0,6.11,16.64l0,.11-.07.1c-2.89,4.21-6.09,8.84-9.34,13.57l0-.26,18.48,20.06-.26,0,14.28-8.22.12-.06.11.07A66.88,66.88,0,0,0,261.61,279l.13,0,0,.13c.93,5.08,2,10.62,3,16.22l-.21-.19,27.25,1.12-.23.17c1.35-5,2.82-10.45,4.29-15.92l0-.13.14,0a67.11,67.11,0,0,0,16.62-6.09h0l.12-.07.12.08,13.56,9.36-.29,0,20.06-18.48,0,.29L338,251.21l-.06-.12L338,251a66.74,66.74,0,0,0,7.44-16.08l0-.13.14,0,16.21-3-.18.21q.59-14,1.13-27.25l.16.21L347,200.63l-.13,0,0-.12a66.9,66.9,0,0,0-6.1-16.65l0-.1.07-.1,9.36-13.56v.24c-6.49-7.07-12.63-13.73-18.46-20.08l.22,0-14.3,8.2-.08,0-.09-.06A66.83,66.83,0,0,0,301.37,151l-.09,0,0-.09c-1.07-5.89-2-11.2-3-16.21l.13.11-27.25-1.16.1-.07c-1.73,6.37-3.15,11.58-4.33,15.9v.05h0a67.71,67.71,0,0,0-12.73,4.15c-1.35.6-2.34,1.09-3,1.41l-1,.48s1.25-.73,3.95-2a66.39,66.39,0,0,1,12.73-4.23l-.06.06,4.27-15.93,0-.08h.09l27.25,1.08h.11l0,.11c.92,5,1.91,10.31,3,16.21l-.1-.12a67.21,67.21,0,0,1,16.18,7.47h-.17L331.75,150l.12-.07.1.1L350.46,170l.1.11-.09.13-9.34,13.56v-.2a67,67,0,0,1,6.14,16.74l-.15-.15,15.92,4.29.16,0v.17Q362.66,218,362.09,232v.17l-.18,0-16.21,3,.17-.15a67.06,67.06,0,0,1-7.49,16.19V251q4.07,7.08,8.21,14.29l.09.16-.13.12L326.5,284l-.14.13-.15-.11-13.57-9.35h.23a67.27,67.27,0,0,1-16.74,6.13l.17-.16c-1.47,5.46-2.94,10.88-4.3,15.91l-.05.18h-.18l-27.25-1.12h-.18l0-.18c-1-5.59-2-11.14-3-16.21l.15.17a67.81,67.81,0,0,1-16.19-7.5h.23l-14.29,8.21-.15.08-.12-.13L212.49,260l-.11-.13.1-.13c3.26-4.72,6.45-9.36,9.36-13.56l0,.2a67.4,67.4,0,0,1-6.13-16.74l.14.14-15.91-4.31-.14,0v-.14c.4-9.57.79-18.67,1.14-27.25v-.13l.13,0,16.22-3-.12.11a67.22,67.22,0,0,1,7.5-16.17V179l-8.19-14.3-.05-.08.07-.07,20.09-18.44.05,0,0,0,10.07,7,2.58,1.8Z"/><path class="cls-3" d="M250.19,155.54a67,67,0,0,1,16.69-6.11l4.3-15.92,27.26,1.12,3,16.22a66.86,66.86,0,0,1,16.14,7.46l14.29-8.21,18.48,20.07L341,183.73a66.6,66.6,0,0,1,6.12,16.7l15.91,4.3L361.87,232l-16.21,3a66.62,66.62,0,0,1-7.47,16.13l8.21,14.29-20.06,18.48-13.57-9.36a66.67,66.67,0,0,1-16.69,6.12l-4.3,15.92-27.26-1.12-3-16.22a66.51,66.51,0,0,1-16.14-7.47l-14.29,8.21-18.48-20.06L222,246.32a66.74,66.74,0,0,1-6.12-16.7L200,225.32l1.13-27.25,16.21-3A66.69,66.69,0,0,1,224.77,179l-8.21-14.29,20.06-18.47,13.57,9.35Zm16.3,34.07a29.27,29.27,0,1,0,35.41,2.76A29.28,29.28,0,0,0,266.49,189.61Z"/><rect class="cls-4" x="515.55" y="346.04" width="6.94" height="97.11"/><rect class="cls-4" x="350.71" y="346.04" width="6.94" height="97.11"/><rect class="cls-11" x="336.58" y="336.29" width="204.55" height="9.75"/><path class="cls-2" d="M467.05,321.17h67.82a3.83,3.83,0,0,0,3.83-3.83V268a3.83,3.83,0,0,0-3.83-3.83H467.05a3.83,3.83,0,0,0-3.83,3.83v49.35A3.83,3.83,0,0,0,467.05,321.17Z"/><path class="cls-4" d="M467.05,321.17s-.23,0-.66-.08a3.79,3.79,0,0,1-3.11-3.55c0-1.25,0-2.7,0-4.34,0-6.54,0-16,0-27.69,0-2.92,0-6,0-9.17V269c0-.42,0-.86,0-1.26a3.8,3.8,0,0,1,.31-1.19,3.72,3.72,0,0,1,1.68-1.78,3.57,3.57,0,0,1,1.2-.37,11.25,11.25,0,0,1,1.31,0h67a3.7,3.7,0,0,1,2.79,1.3,3.54,3.54,0,0,1,.73,1.38,5.62,5.62,0,0,1,.14,1.6V288c0,8.41,0,16.53,0,24.26v4.3a7.94,7.94,0,0,1,0,1.39,3.68,3.68,0,0,1-1.34,2.26,3.76,3.76,0,0,1-2.48.79H524l-19.12,0-27.69.06-7.52,0-2,0-.67,0,.67,0,1.95,0,7.53,0,27.69.06,19.12,0h10.66a4,4,0,0,0,2.67-.86,4.07,4.07,0,0,0,1.47-2.45,8.93,8.93,0,0,0,.06-1.45v-4.3c0-7.73,0-15.85,0-24.26V275.18q0-3.26,0-6.56a6.12,6.12,0,0,0-.15-1.69,3.88,3.88,0,0,0-.8-1.53,4.06,4.06,0,0,0-3.07-1.42l-50.29,0h-16.7a10.2,10.2,0,0,0-1.35,0,3.71,3.71,0,0,0-1.3.4,4.06,4.06,0,0,0-1.82,1.93,3.83,3.83,0,0,0-.32,1.28c0,.45,0,.86,0,1.29v2.51c0,1.66,0,3.28,0,4.88,0,3.19,0,6.25,0,9.17,0,11.69,0,21.15.06,27.69,0,1.64,0,3.09,0,4.35a3.91,3.91,0,0,0,1.43,2.79,3.86,3.86,0,0,0,1.78.79,2.63,2.63,0,0,0,.5,0Z"/><polygon class="cls-2" points="492.08 305.46 496.52 334.13 479.28 334.13 479.28 336.51 519.99 336.51 513.94 305.46 492.08 305.46"/><path class="cls-4" d="M492.08,305.46h.4l1.14,0,4.36,0,16,.07-.12-.1,6,31.06.17-.21H479.28l.17.17c0-.8,0-1.59,0-2.38l-.16.17,17.24,0h.17l0-.17c-1.38-8.69-2.51-15.84-3.3-20.82-.41-2.49-.72-4.44-.94-5.78l-.25-1.52-.09-.53s0,.17.06.5.12.85.22,1.5c.19,1.34.48,3.28.85,5.75.76,5,1.85,12.2,3.17,20.94l.14-.16-17.24,0h-.17v.17c0,.79,0,1.58,0,2.38v.17h41.1l0-.21c-2.33-11.9-4.43-22.56-6.09-31l0-.11h-.11l-16.05.07-4.33,0-1.11,0Z"/><g class="cls-7"><polygon points="496.75 336.51 496.52 334.13 479.28 334.13 479.28 336.51 496.75 336.51"/></g><g class="cls-7"><polygon points="492.08 305.46 487.63 321.17 494.51 321.17 492.08 305.46"/></g><rect class="cls-5" x="413.47" y="329.28" width="49.35" height="6.84"/><rect class="cls-2" x="414.28" y="330.14" width="48.54" height="5.11"/><g class="cls-7"><rect x="413.47" y="329.28" width="9.59" height="6.84"/></g><path class="cls-4" d="M414.28,331.25h0Z"/><path class="cls-4" d="M414.28,332.62h0Z"/><rect class="cls-5" x="426.85" y="322.98" width="27.81" height="6.3"/><rect class="cls-5" x="417.56" y="322.98" width="9.29" height="6.26"/><rect class="cls-2" x="417.56" y="323.84" width="8.41" height="4.5"/><g class="cls-7"><rect x="417.56" y="322.98" width="9.29" height="6.26"/></g><path class="cls-4" d="M429.35,327.89v-.68c0-.45,0-1.11,0-2v0l23.21,0h0l0,0v2.65l0,0h-16.5l16.51,0h0v-2.72h0l-23.21,0h0v0c0,.86,0,1.52,0,2v.5A1,1,0,0,0,429.35,327.89Z"/><path class="cls-4" d="M426.84,329.24s0-1.42,0-3.17,0-3.17,0-3.17,0,1.42,0,3.17S426.82,329.24,426.84,329.24Z"/><path class="cls-8" d="M352.16,194.17c-.05-.25-3.17-6.12-3.17-6.12s-3.74-6.29-3.76-6.37-1-1.2-1.22,1.3a7.7,7.7,0,0,0,1.77,4.83l-6.74.95s-2.74.16-2.18,1.71a1.35,1.35,0,0,0-1.43,1.38,2.21,2.21,0,0,0,1.2,1.88s-.24,1.93,1.09,2.33c0,0-.62,1,1.18,2l4.74,1s3.22,3.47,4.7,3.88,8.42-.95,8.42-.95l-1.82-8.57Z"/><path class="cls-5" d="M419.41,168.44c-5.1,11.79-24.19,25.24-27.83,27.34s-34.25,8.61-34.25,8.61l-2.94-12.24,30.12-8.81,21.07-23.1c4.56-5,13.11-2.72,14.17,4A8.71,8.71,0,0,1,419.41,168.44Z"/><path class="cls-4" d="M419.41,168.44a.8.8,0,0,1,.06-.25c0-.16.11-.41.18-.74a9.09,9.09,0,0,0,.07-2.91,8,8,0,0,0-1.9-4.2,8.78,8.78,0,0,0-1-1,8.32,8.32,0,0,0-1.3-.79,7.82,7.82,0,0,0-3.18-.87,8.05,8.05,0,0,0-3.61.55,9,9,0,0,0-3.24,2.34l-6.16,6.8-14.63,16.1,0,0-.06,0-30.12,8.83.16-.28c.08.33.17.68.25,1l2.69,11.2-.27-.18c10.33-2.23,20.06-4.38,28.74-6.72,1.08-.29,2.14-.62,3.18-.94a11.68,11.68,0,0,0,2.91-1.27c1.79-1.12,3.46-2.32,5.06-3.49,3.19-2.35,6-4.68,8.55-6.89a69.39,69.39,0,0,0,10.75-11.5c.57-.73,1-1.46,1.35-2a12.44,12.44,0,0,0,.89-1.56l.51-1c.12-.22.19-.33.19-.33l-.15.34c-.12.25-.27.58-.48,1a12.91,12.91,0,0,1-.85,1.59c-.39.6-.76,1.34-1.32,2.08a68.38,68.38,0,0,1-10.69,11.63c-2.5,2.23-5.35,4.58-8.54,6.95-1.6,1.18-3.26,2.39-5.07,3.53a12.15,12.15,0,0,1-3,1.32c-1.05.33-2.11.66-3.2,1-8.68,2.38-18.41,4.54-28.74,6.78l-.22,0-.06-.22-2.69-11.19c-.08-.36-.17-.72-.25-1l-.05-.22.21-.06,30.13-8.79-.1.06,14.68-16,6.2-6.77a9.15,9.15,0,0,1,3.36-2.4,8.2,8.2,0,0,1,3.74-.54,8.07,8.07,0,0,1,3.27.92,8,8,0,0,1,1.32.83,10.22,10.22,0,0,1,1.06,1,8.14,8.14,0,0,1,1.88,4.32,8.67,8.67,0,0,1-.14,2.95A5.78,5.78,0,0,1,419.41,168.44Z"/><path class="cls-9" d="M337.18,190.55a21.37,21.37,0,0,0,4.18-.06,20.51,20.51,0,0,0,4.14-.48,20.36,20.36,0,0,0-4.17.06A19.86,19.86,0,0,0,337.18,190.55Z"/><path class="cls-9" d="M336.37,193.52a29.75,29.75,0,0,0,8.34-.67,69.84,69.84,0,0,0-8.34.67Z"/><path class="cls-9" d="M337.72,196.06a7.88,7.88,0,0,0,2.8.2,7.32,7.32,0,0,0,2.77-.41,13.48,13.48,0,0,0-2.79,0A11.75,11.75,0,0,0,337.72,196.06Z"/><path class="cls-9" d="M345.62,197.15s.5-.06,1-.65a2.51,2.51,0,0,0,.59-1.27,2.71,2.71,0,0,0-.29-1.73l-.11.3a1.64,1.64,0,0,0,1-1.78,1.65,1.65,0,0,0-.61-1l-.12.34a1.36,1.36,0,0,0,1.06-.56,1.24,1.24,0,0,0,.23-.88c-.07-.52-.34-.7-.36-.68a2.59,2.59,0,0,1,.14.69,1.06,1.06,0,0,1-.25.68,1.08,1.08,0,0,1-.82.37l-.56,0,.44.35a1.26,1.26,0,0,1,.18,1.75,1.31,1.31,0,0,1-.5.38l-.22.09.11.21a2.46,2.46,0,0,1-.14,2.61C346,196.91,345.58,197.09,345.62,197.15Z"/></g><g id="Character_1" data-name="Character 1"><path class="cls-5" d="M210.84,266.26A83.69,83.69,0,0,1,230.17,277l18.62-8.62,21,26.36-13,15.67a80.53,80.53,0,0,1,5.95,21l19.37,6.83-4.15,33.22-20.47,2a81.36,81.36,0,0,1-10.94,19l8.78,18.3-26.83,20.6L212.5,418.6a84.53,84.53,0,0,1-21.39,5.84l-7,19-33.81-4.07-2.07-20.11A84.23,84.23,0,0,1,129,408.54l-18.62,8.63-21-26.37,13-15.67a80.79,80.79,0,0,1-5.94-21l-19.37-6.83,4.15-33.21,20.47-2a81.22,81.22,0,0,1,10.94-19l-8.78-18.29,26.83-20.61,16,12.79A84.53,84.53,0,0,1,168,261.1l7-19,33.81,4.08,2.06,20.11Zm-19.23,42.3c-23.45-6.73-46.36,10-47.05,33.48a36.07,36.07,0,0,0,26,35.31c23.45,6.74,46.37-10,47.05-33.48A36,36,0,0,0,191.61,308.56Z"/><path class="cls-12" d="M210.84,266.26A83.69,83.69,0,0,1,230.17,277l18.62-8.62,21,26.36-13,15.67a80.53,80.53,0,0,1,5.95,21l19.37,6.83-4.15,33.22-20.47,2a81.36,81.36,0,0,1-10.94,19l8.78,18.3-26.83,20.6L212.5,418.6a84.53,84.53,0,0,1-21.39,5.84l-7,19-33.81-4.07-2.07-20.11A84.23,84.23,0,0,1,129,408.54l-18.62,8.63-21-26.37,13-15.67a80.79,80.79,0,0,1-5.94-21l-19.37-6.83,4.15-33.21,20.47-2a81.22,81.22,0,0,1,10.94-19l-8.78-18.29,26.83-20.61,16,12.79A84.53,84.53,0,0,1,168,261.1l7-19,33.81,4.08,2.06,20.11Zm-19.23,42.3c-23.45-6.73-46.36,10-47.05,33.48a36.07,36.07,0,0,0,26,35.31c23.45,6.74,46.37-10,47.05-33.48A36,36,0,0,0,191.61,308.56Z"/><path class="cls-3" d="M210.84,266.26A83.69,83.69,0,0,1,230.17,277l18.62-8.62,21,26.36-13,15.67a80.53,80.53,0,0,1,5.95,21l19.37,6.83-4.15,33.22-20.47,2a81.36,81.36,0,0,1-10.94,19l8.78,18.3-26.83,20.6L212.5,418.6a84.53,84.53,0,0,1-21.39,5.84l-7,19-33.81-4.07-2.07-20.11A84.23,84.23,0,0,1,129,408.54l-18.62,8.63-21-26.37,13-15.67a80.79,80.79,0,0,1-5.94-21l-19.37-6.83,4.15-33.21,20.47-2a81.22,81.22,0,0,1,10.94-19l-8.78-18.29,26.83-20.61,16,12.79A84.53,84.53,0,0,1,168,261.1l7-19,33.81,4.08,2.06,20.11Zm-19.23,42.3c-23.45-6.73-46.36,10-47.05,33.48a36.07,36.07,0,0,0,26,35.31c23.45,6.74,46.37-10,47.05-33.48A36,36,0,0,0,191.61,308.56Z"/><path class="cls-4" d="M191.61,308.56l.57.17,1.64.52A34.82,34.82,0,0,1,208,318.56c.34.38.72.74,1.06,1.16l1,1.26a32.16,32.16,0,0,1,2,2.75,15.34,15.34,0,0,1,.92,1.52l.89,1.58.79,1.69.4.87.34.9c.22.61.45,1.22.68,1.84l.54,1.93.27,1c.06.33.13.67.19,1,.12.68.28,1.37.38,2.06a38,38,0,0,1,.3,4.31,20.58,20.58,0,0,1,0,2.22c0,.75-.07,1.5-.18,2.25a35.93,35.93,0,0,1-2.25,9.14,35.57,35.57,0,0,1-4.91,8.67,36.78,36.78,0,0,1-17.21,12.34,37.65,37.65,0,0,1-22.7.52,35.82,35.82,0,0,1-10.78-63.92A36.72,36.72,0,0,1,182.82,307a40.32,40.32,0,0,1,6.56.93l1.67.45.56.16-.57-.12-1.67-.41a42.7,42.7,0,0,0-6.56-.84,38.17,38.17,0,0,0-10.38,1,37,37,0,0,0-12.51,5.7,36.07,36.07,0,0,0-11,12.44,35.7,35.7,0,0,0,21.73,50.79,37.32,37.32,0,0,0,22.43-.51,36.82,36.82,0,0,0,9.59-5,36.35,36.35,0,0,0,7.43-7.21,34.94,34.94,0,0,0,7.12-17.59c.11-.74.14-1.49.18-2.23a20.22,20.22,0,0,0,0-2.2,35,35,0,0,0-.29-4.26c-.09-.69-.24-1.37-.36-2-.06-.34-.13-.67-.19-1s-.17-.65-.26-1c-.18-.65-.36-1.29-.53-1.92s-.45-1.22-.67-1.83a35.63,35.63,0,0,0-7.27-11.66,37.81,37.81,0,0,0-8.08-6.58,38.87,38.87,0,0,0-6-2.82l-1.63-.57Z"/><path class="cls-4" d="M210.84,266.26s-.05-.43-.14-1.28-.23-2.14-.42-3.83c-.35-3.39-.88-8.42-1.58-15l.06.07-33.81-4,.13-.08c-2.11,5.77-4.44,12.18-6.94,19l0,.07H168a85.11,85.11,0,0,0-21.35,5.85l-.08,0-.07-.05-16-12.78h.2L103.94,274.9l.06-.22c2.71,5.66,5.71,11.9,8.78,18.29l0,.1-.07.09a81.85,81.85,0,0,0-10.9,18.95l0,.11h-.11l-20.47,2,.18-.18c-1.3,10.43-2.7,21.69-4.14,33.22l-.14-.23,19.37,6.83.13,0v.13a81.39,81.39,0,0,0,5.93,21l.06.13-.09.1-13,15.67v-.28l21,26.36-.27-.06,18.62-8.63.13-.05.1.08a84,84,0,0,0,19.26,10.71h0l.12.06,0,.13q1,10.13,2.07,20.12l-.2-.21,33.81,4.08-.24.14,7-19,0-.13.14,0a84.16,84.16,0,0,0,21.33-5.82l.12,0,.1.08,16,12.79h-.27l26.85-20.6-.07.26q-4.46-9.31-8.77-18.3l-.06-.11.08-.1a81.4,81.4,0,0,0,10.92-18.94l0-.1.12,0,20.47-2-.17.16c1.47-11.68,2.85-22.71,4.17-33.21l.11.19-19.36-6.85-.1,0v-.1a81.05,81.05,0,0,0-5.92-21l0-.09.06-.07,13-15.65v.17l-21-26.39.12,0-18.63,8.6,0,0,0,0a85.09,85.09,0,0,0-14.26-8.59c-1.66-.79-2.93-1.32-3.76-1.68l-1.27-.53,1.28.49c.84.35,2.11.87,3.77,1.65A82.91,82.91,0,0,1,230.21,277h-.07l18.61-8.66.07,0,.05.06,21,26.35.06.08-.07.09-13,15.68,0-.16a81.06,81.06,0,0,1,6,21.06l-.11-.14,19.37,6.83.14,0,0,.14c-1.31,10.51-2.68,21.54-4.13,33.22l0,.15h-.15l-20.47,2,.16-.12a82,82,0,0,1-11,19l0-.21,8.79,18.29.07.15-.13.1-26.83,20.61-.14.11-.13-.11-15.95-12.78.22,0a85,85,0,0,1-21.45,5.85l.18-.14-6.95,19-.06.16-.18,0-33.81-4.07-.18,0,0-.18q-1-10-2.07-20.11l.15.19h0a84.25,84.25,0,0,1-19.36-10.77l.23,0-18.62,8.63-.16.07-.11-.13-21-26.37-.12-.14.12-.14,13-15.67,0,.23a81.73,81.73,0,0,1-6-21.08l.14.18L77,347.48l-.16-.06,0-.17C78.29,335.72,79.7,324.47,81,314l0-.16h.17l20.47-2-.16.12a82,82,0,0,1,11-19l0,.2-8.78-18.3-.06-.13.12-.09L130.57,254l.1-.08.1.08,15.94,12.8-.15,0A85,85,0,0,1,168,261l-.1.08c2.51-6.85,4.86-13.25,7-19l0-.08H175l33.8,4.11h.06v.06c.66,6.57,1.17,11.59,1.51,15,.16,1.69.29,3,.38,3.84S210.84,266.26,210.84,266.26Z"/><path class="cls-3" d="M210.84,266.26A83.69,83.69,0,0,1,230.17,277l18.62-8.62,21,26.36-13,15.67a80.53,80.53,0,0,1,5.95,21l19.37,6.83-4.15,33.22-20.47,2a81.36,81.36,0,0,1-10.94,19l8.78,18.3-26.83,20.6L212.5,418.6a84.53,84.53,0,0,1-21.39,5.84l-7,19-33.81-4.07-2.07-20.11A84.23,84.23,0,0,1,129,408.54l-18.62,8.63-21-26.37,13-15.67a80.79,80.79,0,0,1-5.94-21l-19.37-6.83,4.15-33.21,20.47-2a81.22,81.22,0,0,1,10.94-19l-8.78-18.29,26.83-20.61,16,12.79A84.53,84.53,0,0,1,168,261.1l7-19,33.81,4.08,2.06,20.11Zm-19.23,42.3c-23.45-6.73-46.36,10-47.05,33.48a36.07,36.07,0,0,0,26,35.31c23.45,6.74,46.37-10,47.05-33.48A36,36,0,0,0,191.61,308.56Z"/></g></svg>