<svg xmlns="http://www.w3.org/2000/svg" xmlns:xlink="http://www.w3.org/1999/xlink" viewBox="0 0 592 500"><defs><style>.cls-1{fill:none;}.cls-2,.cls-84,.cls-90,.cls-94{fill:#fff;}.cls-3{clip-path:url(#clip-path);}.cls-4{opacity:0.32;}.cls-5{fill:url(#radial-gradient);}.cls-6{fill:url(#radial-gradient-2);}.cls-7{fill:url(#radial-gradient-3);}.cls-8{isolation:isolate;}.cls-9{fill:url(#radial-gradient-4);}.cls-10{fill:url(#radial-gradient-5);}.cls-11{fill:url(#radial-gradient-6);}.cls-12{fill:url(#radial-gradient-7);}.cls-13{fill:url(#radial-gradient-8);}.cls-14{fill:url(#radial-gradient-9);}.cls-15{fill:url(#radial-gradient-10);}.cls-16{fill:url(#radial-gradient-11);}.cls-17{fill:url(#radial-gradient-12);}.cls-18{fill:url(#radial-gradient-13);}.cls-19{fill:url(#radial-gradient-14);}.cls-20{fill:url(#radial-gradient-15);}.cls-21{fill:url(#radial-gradient-16);}.cls-22{fill:url(#radial-gradient-17);}.cls-23{fill:url(#radial-gradient-18);}.cls-24{fill:url(#radial-gradient-19);}.cls-25{fill:url(#radial-gradient-20);}.cls-26{fill:url(#radial-gradient-21);}.cls-27{fill:url(#radial-gradient-22);}.cls-28{fill:url(#radial-gradient-23);}.cls-29{fill:url(#radial-gradient-24);}.cls-30{fill:url(#radial-gradient-25);}.cls-31{fill:url(#radial-gradient-26);}.cls-32{fill:url(#radial-gradient-27);}.cls-33{fill:url(#radial-gradient-28);}.cls-34{fill:url(#radial-gradient-29);}.cls-35{fill:url(#radial-gradient-30);}.cls-36{fill:url(#radial-gradient-31);}.cls-37{fill:url(#radial-gradient-32);}.cls-38{fill:url(#radial-gradient-33);}.cls-39{fill:url(#radial-gradient-34);}.cls-40{fill:url(#radial-gradient-35);}.cls-41{fill:url(#radial-gradient-36);}.cls-42{fill:url(#radial-gradient-37);}.cls-43{fill:url(#radial-gradient-38);}.cls-44{fill:url(#radial-gradient-39);}.cls-45{fill:url(#radial-gradient-40);}.cls-46{fill:url(#radial-gradient-41);}.cls-47{fill:url(#radial-gradient-42);}.cls-48{fill:url(#radial-gradient-43);}.cls-49{fill:url(#radial-gradient-44);}.cls-50{fill:url(#radial-gradient-45);}.cls-51{fill:url(#radial-gradient-46);}.cls-52{fill:url(#radial-gradient-47);}.cls-53{fill:url(#radial-gradient-48);}.cls-54{fill:url(#radial-gradient-49);}.cls-55{fill:url(#radial-gradient-50);}.cls-56{fill:url(#radial-gradient-52);}.cls-57{fill:url(#radial-gradient-53);}.cls-58{fill:url(#radial-gradient-54);}.cls-59{fill:url(#radial-gradient-56);}.cls-60{fill:url(#radial-gradient-57);}.cls-61{fill:url(#radial-gradient-59);}.cls-62{fill:url(#radial-gradient-60);}.cls-63{fill:url(#radial-gradient-61);}.cls-64{fill:url(#radial-gradient-63);}.cls-65{fill:url(#radial-gradient-64);}.cls-66{fill:url(#radial-gradient-65);}.cls-67{fill:url(#radial-gradient-66);}.cls-68{fill:url(#radial-gradient-67);}.cls-69{fill:url(#radial-gradient-68);}.cls-70{fill:url(#radial-gradient-69);}.cls-71{fill:url(#radial-gradient-70);}.cls-72{fill:url(#radial-gradient-71);}.cls-73{fill:url(#radial-gradient-72);}.cls-74{fill:url(#radial-gradient-73);}.cls-75{fill:url(#radial-gradient-74);}.cls-76{fill:url(#radial-gradient-75);}.cls-77{fill:url(#radial-gradient-76);}.cls-78{fill:url(#radial-gradient-77);}.cls-79{fill:url(#radial-gradient-79);}.cls-80{fill:url(#radial-gradient-80);}.cls-81{fill:url(#radial-gradient-84);}.cls-101,.cls-82{fill:#d7e4f9;}.cls-83,.cls-93,.cls-96{fill:#779ce8;}.cls-100,.cls-101,.cls-103,.cls-84,.cls-85,.cls-86,.cls-87,.cls-88,.cls-89,.cls-90,.cls-91,.cls-93,.cls-94,.cls-95,.cls-96,.cls-97,.cls-99{stroke:#779ce8;stroke-width:0.75px;}.cls-100,.cls-101,.cls-84,.cls-93,.cls-97,.cls-99{stroke-miterlimit:10;}.cls-85{fill:#4ea7ea;}.cls-85,.cls-86,.cls-87,.cls-88,.cls-89,.cls-90{stroke-linecap:round;}.cls-103,.cls-85,.cls-86,.cls-87,.cls-88,.cls-89,.cls-90,.cls-91,.cls-94,.cls-95,.cls-96{stroke-linejoin:round;}.cls-100,.cls-86{fill:#55c2f9;}.cls-87{fill:#e7edf7;}.cls-88{fill:#8f65e0;}.cls-89,.cls-99{fill:#b06bf2;}.cls-91,.cls-97,.cls-98{fill:#f97d8c;}.cls-92{fill:#1760fc;}.cls-95{fill:#e24b65;}.cls-102{opacity:0.52;}.cls-103{fill:#ff6e80;}</style><clipPath id="clip-path"><rect class="cls-1" x="25.07" y="224.34" width="494.64" height="250.29"/></clipPath><radialGradient id="radial-gradient" cx="278.25" cy="107.33" r="656.55" gradientTransform="matrix(1, 0, 0, -1, -1.11, 478.3)" gradientUnits="userSpaceOnUse"><stop offset="0" stop-color="#acc3fe"/><stop offset="1" stop-color="#c3d2ff" stop-opacity="0"/></radialGradient><radialGradient id="radial-gradient-2" cx="278.25" cy="107.33" r="656.55" xlink:href="#radial-gradient"/><radialGradient id="radial-gradient-3" cx="278.25" cy="107.33" r="656.55" xlink:href="#radial-gradient"/><radialGradient id="radial-gradient-4" cx="278.25" cy="107.33" r="656.55" xlink:href="#radial-gradient"/><radialGradient id="radial-gradient-5" cx="278.25" cy="107.33" r="656.55" xlink:href="#radial-gradient"/><radialGradient id="radial-gradient-6" cx="278.25" cy="107.33" r="656.55" xlink:href="#radial-gradient"/><radialGradient id="radial-gradient-7" cx="278.25" cy="107.33" r="656.55" xlink:href="#radial-gradient"/><radialGradient id="radial-gradient-8" cx="278.25" cy="107.33" r="656.55" xlink:href="#radial-gradient"/><radialGradient id="radial-gradient-9" cx="278.25" cy="107.33" r="656.55" xlink:href="#radial-gradient"/><radialGradient id="radial-gradient-10" cx="278.25" cy="107.33" r="656.55" xlink:href="#radial-gradient"/><radialGradient id="radial-gradient-11" cx="278.25" cy="107.33" r="656.55" xlink:href="#radial-gradient"/><radialGradient id="radial-gradient-12" cx="278.25" cy="107.33" r="656.55" xlink:href="#radial-gradient"/><radialGradient id="radial-gradient-13" cx="278.25" cy="107.33" r="656.55" xlink:href="#radial-gradient"/><radialGradient id="radial-gradient-14" cx="278.25" cy="107.33" r="656.55" xlink:href="#radial-gradient"/><radialGradient id="radial-gradient-15" cx="278.25" cy="107.33" r="656.55" xlink:href="#radial-gradient"/><radialGradient id="radial-gradient-16" cx="278.25" cy="107.33" r="656.55" xlink:href="#radial-gradient"/><radialGradient id="radial-gradient-17" cx="278.25" cy="107.33" r="656.55" xlink:href="#radial-gradient"/><radialGradient id="radial-gradient-18" cx="278.25" cy="107.33" r="656.55" xlink:href="#radial-gradient"/><radialGradient id="radial-gradient-19" cx="278.25" cy="107.33" r="656.55" xlink:href="#radial-gradient"/><radialGradient id="radial-gradient-20" cx="278.25" cy="107.33" r="656.55" xlink:href="#radial-gradient"/><radialGradient id="radial-gradient-21" cx="278.25" cy="107.33" r="656.55" xlink:href="#radial-gradient"/><radialGradient id="radial-gradient-22" cx="278.25" cy="107.33" r="656.55" xlink:href="#radial-gradient"/><radialGradient id="radial-gradient-23" cx="278.25" cy="107.33" r="656.55" xlink:href="#radial-gradient"/><radialGradient id="radial-gradient-24" cx="278.25" cy="107.33" r="656.55" xlink:href="#radial-gradient"/><radialGradient id="radial-gradient-25" cx="278.25" cy="107.33" r="656.55" xlink:href="#radial-gradient"/><radialGradient id="radial-gradient-26" cx="278.25" cy="107.33" r="656.55" xlink:href="#radial-gradient"/><radialGradient id="radial-gradient-27" cx="278.25" cy="107.33" r="656.55" xlink:href="#radial-gradient"/><radialGradient id="radial-gradient-28" cx="278.25" cy="107.33" r="656.55" xlink:href="#radial-gradient"/><radialGradient id="radial-gradient-29" cx="278.25" cy="107.33" r="656.55" xlink:href="#radial-gradient"/><radialGradient id="radial-gradient-30" cx="278.25" cy="107.33" r="656.55" xlink:href="#radial-gradient"/><radialGradient id="radial-gradient-31" cx="278.25" cy="107.33" r="656.55" xlink:href="#radial-gradient"/><radialGradient id="radial-gradient-32" cx="278.25" cy="107.33" r="656.55" xlink:href="#radial-gradient"/><radialGradient id="radial-gradient-33" cx="278.25" cy="107.33" r="656.55" xlink:href="#radial-gradient"/><radialGradient id="radial-gradient-34" cx="278.25" cy="107.33" r="656.55" xlink:href="#radial-gradient"/><radialGradient id="radial-gradient-35" cx="278.25" cy="107.33" r="656.55" xlink:href="#radial-gradient"/><radialGradient id="radial-gradient-36" cx="278.25" cy="107.33" r="656.55" xlink:href="#radial-gradient"/><radialGradient id="radial-gradient-37" cx="278.25" cy="107.33" r="656.55" xlink:href="#radial-gradient"/><radialGradient id="radial-gradient-38" cx="278.25" cy="107.33" r="656.55" xlink:href="#radial-gradient"/><radialGradient id="radial-gradient-39" cx="278.25" cy="107.33" r="656.55" xlink:href="#radial-gradient"/><radialGradient id="radial-gradient-40" cx="278.25" cy="107.33" r="656.55" xlink:href="#radial-gradient"/><radialGradient id="radial-gradient-41" cx="278.25" cy="107.33" r="656.55" xlink:href="#radial-gradient"/><radialGradient id="radial-gradient-42" cx="278.25" cy="107.33" r="656.55" xlink:href="#radial-gradient"/><radialGradient id="radial-gradient-43" cx="278.25" cy="107.33" r="656.55" xlink:href="#radial-gradient"/><radialGradient id="radial-gradient-44" cx="278.25" cy="107.33" r="656.55" xlink:href="#radial-gradient"/><radialGradient id="radial-gradient-45" cx="278.25" cy="107.33" r="656.55" xlink:href="#radial-gradient"/><radialGradient id="radial-gradient-46" cx="278.25" cy="107.33" r="656.55" xlink:href="#radial-gradient"/><radialGradient id="radial-gradient-47" cx="278.25" cy="107.33" r="656.55" xlink:href="#radial-gradient"/><radialGradient id="radial-gradient-48" cx="278.25" cy="107.33" r="656.55" xlink:href="#radial-gradient"/><radialGradient id="radial-gradient-49" cx="278.25" cy="107.33" r="656.55" xlink:href="#radial-gradient"/><radialGradient id="radial-gradient-50" cx="278.25" cy="107.33" r="656.55" xlink:href="#radial-gradient"/><radialGradient id="radial-gradient-52" cx="278.25" cy="107.33" r="656.55" xlink:href="#radial-gradient"/><radialGradient id="radial-gradient-53" cx="278.25" cy="107.33" r="656.55" xlink:href="#radial-gradient"/><radialGradient id="radial-gradient-54" cx="278.25" cy="107.33" r="656.55" xlink:href="#radial-gradient"/><radialGradient id="radial-gradient-56" cx="278.25" cy="107.33" r="656.56" xlink:href="#radial-gradient"/><radialGradient id="radial-gradient-57" cx="278.25" cy="107.33" r="656.55" xlink:href="#radial-gradient"/><radialGradient id="radial-gradient-59" cx="278.25" cy="107.33" r="656.55" xlink:href="#radial-gradient"/><radialGradient id="radial-gradient-60" cx="278.25" cy="107.33" r="656.55" xlink:href="#radial-gradient"/><radialGradient id="radial-gradient-61" cx="278.25" cy="107.33" r="656.55" xlink:href="#radial-gradient"/><radialGradient id="radial-gradient-63" cx="278.25" cy="107.33" r="656.55" xlink:href="#radial-gradient"/><radialGradient id="radial-gradient-64" cx="278.25" cy="107.33" r="656.55" xlink:href="#radial-gradient"/><radialGradient id="radial-gradient-65" cx="278.25" cy="107.33" r="656.55" xlink:href="#radial-gradient"/><radialGradient id="radial-gradient-66" cx="278.25" cy="107.33" r="656.55" xlink:href="#radial-gradient"/><radialGradient id="radial-gradient-67" cx="278.25" cy="107.33" r="656.55" xlink:href="#radial-gradient"/><radialGradient id="radial-gradient-68" cx="278.25" cy="107.33" r="656.55" xlink:href="#radial-gradient"/><radialGradient id="radial-gradient-69" cx="278.25" cy="107.33" r="656.55" xlink:href="#radial-gradient"/><radialGradient id="radial-gradient-70" cx="278.25" cy="107.33" r="656.55" xlink:href="#radial-gradient"/><radialGradient id="radial-gradient-71" cx="278.25" cy="107.33" r="656.55" xlink:href="#radial-gradient"/><radialGradient id="radial-gradient-72" cx="278.25" cy="107.33" r="656.55" xlink:href="#radial-gradient"/><radialGradient id="radial-gradient-73" cx="278.25" cy="107.33" r="656.55" xlink:href="#radial-gradient"/><radialGradient id="radial-gradient-74" cx="278.25" cy="107.33" r="656.55" xlink:href="#radial-gradient"/><radialGradient id="radial-gradient-75" cx="278.25" cy="107.33" r="656.55" xlink:href="#radial-gradient"/><radialGradient id="radial-gradient-76" cx="278.25" cy="107.33" r="656.55" xlink:href="#radial-gradient"/><radialGradient id="radial-gradient-77" cx="278.25" cy="107.33" r="656.55" xlink:href="#radial-gradient"/><radialGradient id="radial-gradient-79" cx="278.25" cy="107.33" r="656.55" xlink:href="#radial-gradient"/><radialGradient id="radial-gradient-80" cx="278.25" cy="107.33" r="656.55" xlink:href="#radial-gradient"/><radialGradient id="radial-gradient-84" cx="278.25" cy="107.33" r="656.55" xlink:href="#radial-gradient"/></defs><g id="Layer_3" data-name="Layer 3"><rect class="cls-2" x="10.45" y="5.33" width="591.81" height="500"/><g id="OBJECTS"><g class="cls-3"><g class="cls-4"><polygon class="cls-5" points="358.06 298.23 360.34 296.9 400.54 320.12 398.26 321.44 358.06 298.23"/><polygon class="cls-6" points="146.91 420.93 149.19 419.61 189.4 442.82 187.12 444.14 146.91 420.93"/><polygon class="cls-7" points="19.91 347.61 22.19 346.28 61.9 369.21 59.62 370.53 19.91 347.61"/><g class="cls-8"><polygon class="cls-9" points="231.06 224.9 233.34 223.58 273.04 246.5 270.76 247.83 231.06 224.9"/><polygon class="cls-10" points="188.83 249.44 191.11 248.12 230.82 271.04 228.54 272.37 188.83 249.44"/><polygon class="cls-11" points="315.56 273.69 317.84 272.37 358.04 295.58 355.76 296.9 315.56 273.69"/><polygon class="cls-12" points="146.61 273.98 148.89 272.65 188.6 295.58 186.32 296.9 146.61 273.98"/><polygon class="cls-13" points="273.33 298.23 275.62 296.9 315.82 320.12 313.54 321.44 273.33 298.23"/><polygon class="cls-14" points="188.61 298.23 190.89 296.9 231.1 320.12 228.82 321.44 188.61 298.23"/><polygon class="cls-15" points="104.36 298.53 106.67 297.19 146.37 320.12 144.06 321.46 104.36 298.53"/><polygon class="cls-16" points="400.56 322.77 402.84 321.44 443.04 344.65 440.76 345.98 400.56 322.77"/><polygon class="cls-17" points="315.83 322.77 318.11 321.44 358.32 344.65 356.04 345.98 315.83 322.77"/><polygon class="cls-18" points="231.11 322.77 233.39 321.44 273.6 344.65 271.31 345.98 231.11 322.77"/><polygon class="cls-19" points="146.36 322.78 148.67 321.44 188.87 344.65 186.56 346 146.36 322.78"/><polygon class="cls-20" points="62.14 323.07 64.44 321.73 104.15 344.65 101.84 346 62.14 323.07"/><polygon class="cls-21" points="358.33 347.3 360.61 345.98 400.82 369.19 398.54 370.51 358.33 347.3"/><polygon class="cls-22" points="273.61 347.3 275.89 345.98 316.1 369.19 313.81 370.51 273.61 347.3"/><polygon class="cls-23" points="188.86 347.32 191.17 345.98 231.37 369.19 229.06 370.53 188.86 347.32"/><polygon class="cls-24" points="104.14 347.32 106.44 345.98 146.65 369.19 144.34 370.53 104.14 347.32"/><polygon class="cls-25" points="316.11 371.84 318.39 370.51 358.59 393.73 356.31 395.05 316.11 371.84"/><polygon class="cls-26" points="231.36 371.86 233.67 370.52 273.87 393.73 271.56 395.07 231.36 371.86"/><polygon class="cls-27" points="146.64 371.86 148.94 370.52 189.15 393.73 186.84 395.07 146.64 371.86"/><polygon class="cls-28" points="314.79 224.9 275.34 247.83 273.06 249.15 233.11 272.37 230.84 273.69 190.89 296.9 188.61 298.23 148.67 321.44 146.36 322.78 106.44 345.98 104.14 347.32 64.19 370.53 61.91 371.86 22.47 394.78 20.17 393.46 59.62 370.53 61.9 369.21 101.84 346 104.15 344.65 144.07 321.46 146.37 320.12 186.32 296.9 188.6 295.58 228.54 272.37 230.82 271.04 270.76 247.83 273.04 246.5 312.49 223.58 314.79 224.9"/><polygon class="cls-29" points="358.64 396.39 360.92 395.07 401.09 418.26 398.81 419.59 358.64 396.39"/><polygon class="cls-30" points="273.86 396.39 276.17 395.05 316.37 418.26 314.06 419.61 273.86 396.39"/><polygon class="cls-31" points="189.14 396.39 191.44 395.05 231.65 418.26 229.34 419.61 189.14 396.39"/><polygon class="cls-32" points="357.29 249.44 317.84 272.37 315.56 273.69 275.61 296.9 273.33 298.23 233.39 321.44 231.11 322.77 191.17 345.98 188.86 347.32 148.94 370.52 146.64 371.86 106.69 395.07 104.41 396.39 64.97 419.32 62.67 418 102.12 395.07 104.4 393.75 144.34 370.53 146.65 369.19 186.56 346 188.87 344.65 228.82 321.44 231.1 320.12 271.04 296.9 273.32 295.58 313.26 272.37 315.54 271.04 354.99 248.12 357.29 249.44"/><polygon class="cls-33" points="104.41 396.39 106.69 395.07 146.9 418.28 144.62 419.61 104.41 396.39"/><polygon class="cls-34" points="316.39 420.95 318.69 419.61 358.87 442.8 356.56 444.14 316.39 420.95"/><polygon class="cls-35" points="231.64 420.93 233.94 419.59 274.15 442.8 271.84 444.14 231.64 420.93"/><polygon class="cls-36" points="399.79 273.98 360.34 296.9 358.06 298.23 318.11 321.44 315.83 322.77 275.89 345.98 273.61 347.3 233.67 370.52 231.36 371.86 191.44 395.05 189.14 396.39 149.19 419.61 146.91 420.93 107.47 443.86 105.17 442.53 144.62 419.61 146.9 418.28 186.84 395.07 189.15 393.73 229.06 370.53 231.37 369.19 271.31 345.98 273.6 344.65 313.54 321.44 315.82 320.12 355.76 296.9 358.04 295.58 397.49 272.65 399.79 273.98"/><polygon class="cls-37" points="442.29 298.52 402.84 321.44 400.56 322.77 360.61 345.98 358.33 347.3 318.39 370.51 316.11 371.84 276.17 395.05 273.86 396.39 233.94 419.59 231.63 420.93 191.69 444.14 189.41 445.47 149.96 468.39 147.67 467.07 187.12 444.14 189.4 442.82 229.34 419.61 231.65 418.27 271.56 395.07 273.87 393.73 313.81 370.51 316.1 369.19 356.04 345.98 358.32 344.65 398.26 321.44 400.54 320.12 439.99 297.19 442.29 298.52"/><polygon class="cls-38" points="189.41 445.47 191.69 444.14 231.9 467.36 229.62 468.68 189.41 445.47"/><polygon class="cls-39" points="484.81 323.07 445.36 345.99 443.08 347.32 403.14 370.53 400.86 371.86 360.92 395.07 358.64 396.39 318.69 419.61 316.39 420.95 276.47 444.14 274.16 445.49 234.22 468.7 231.94 470.02 192.49 492.95 190.17 491.61 229.62 468.68 231.9 467.36 271.84 444.14 274.15 442.8 314.06 419.61 316.37 418.26 356.31 395.05 358.59 393.73 398.54 370.51 400.82 369.19 440.76 345.98 443.04 344.65 482.49 321.73 484.81 323.07"/></g><polygon class="cls-40" points="443.08 347.32 445.36 345.99 485.54 369.19 483.26 370.51 443.08 347.32"/><polygon class="cls-41" points="400.86 371.86 403.14 370.53 443.32 393.73 441.04 395.05 400.86 371.86"/><polygon class="cls-42" points="274.16 445.48 276.47 444.14 316.65 467.34 314.34 468.68 274.16 445.48"/><polygon class="cls-43" points="231.94 470.02 234.22 468.7 274.4 491.89 272.12 493.22 231.94 470.02"/><polygon class="cls-44" points="527.31 347.61 487.86 370.53 485.58 371.86 445.64 395.07 443.36 396.39 403.42 419.61 401.14 420.93 361.19 444.14 358.88 445.48 318.97 468.68 316.66 470.02 276.72 493.23 274.44 494.56 234.99 517.48 232.67 516.14 272.12 493.22 274.4 491.89 314.34 468.68 316.65 467.34 356.56 444.14 358.87 442.8 398.81 419.59 401.09 418.26 441.04 395.05 443.32 393.73 483.26 370.51 485.54 369.19 524.99 346.26 527.31 347.61"/><polygon class="cls-45" points="487.86 370.53 527.54 393.44 525.26 394.76 485.58 371.86 487.86 370.53"/><polygon class="cls-46" points="273.06 249.15 275.34 247.83 315.54 271.04 313.26 272.37 273.06 249.15"/><polygon class="cls-47" points="445.64 395.07 485.32 417.98 483.04 419.3 443.36 396.39 445.64 395.07"/><polygon class="cls-48" points="230.84 273.69 233.12 272.37 273.32 295.58 271.04 296.9 230.84 273.69"/><polygon class="cls-49" points="403.42 419.61 443.1 442.51 440.81 443.84 401.14 420.93 403.42 419.61"/><polygon class="cls-50" points="361.19 444.14 400.87 467.05 398.56 468.39 358.88 445.48 361.19 444.14"/><polygon class="cls-51" points="318.97 468.68 358.65 491.59 356.34 492.93 316.66 470.02 318.97 468.68"/><polygon class="cls-52" points="276.72 493.23 316.4 516.14 314.12 517.47 274.44 494.56 276.72 493.23"/><polygon class="cls-53" points="61.91 371.86 64.19 370.53 104.4 393.75 102.12 395.07 61.91 371.86"/><path class="cls-54" d="M280.29,243.59c4,2.33,4,6.11,0,8.43a16.08,16.08,0,0,1-14.58,0c-4-2.31-4-6.11,0-8.44A16.08,16.08,0,0,1,280.29,243.59Z"/><path class="cls-55" d="M322.79,268.12c4,2.33,4,6.12,0,8.43a16.08,16.08,0,0,1-14.58,0c-4-2.32-4-6.12,0-8.45A16.14,16.14,0,0,1,322.79,268.12Z"/><path class="cls-45" d="M365.32,292.68c4,2.31,4,6.11,0,8.43a16.11,16.11,0,0,1-14.58,0c-4-2.33-4-6.11,0-8.44A16.07,16.07,0,0,1,365.32,292.68Z"/><path class="cls-56" d="M407.82,317.21c4,2.33,4,6.12,0,8.43a16.08,16.08,0,0,1-14.58,0c-4-2.33-4-6.12,0-8.45A16.1,16.1,0,0,1,407.82,317.21Z"/><path class="cls-57" d="M450.31,341.75c4,2.33,4,6.12.05,8.43a16.08,16.08,0,0,1-14.58,0c-4-2.33-4-6.12,0-8.45A16.08,16.08,0,0,1,450.31,341.75Z"/><path class="cls-58" d="M492.81,366.29c4,2.33,4,6.11.05,8.43a16.08,16.08,0,0,1-14.58,0c-4-2.33-4-6.11,0-8.44A16,16,0,0,1,492.81,366.29Z"/><path class="cls-32" d="M238,268.14c4,2.33,4.06,6.1.05,8.43a16,16,0,0,1-14.56,0c-4-2.31-4.05-6.1,0-8.43A16.08,16.08,0,0,1,238,268.14Z"/><path class="cls-59" d="M280.54,292.68c4,2.33,4.06,6.1,0,8.43a16,16,0,0,1-14.55,0c-4-2.32-4.06-6.1,0-8.43A16,16,0,0,1,280.54,292.68Z"/><path class="cls-60" d="M323.06,317.23c4,2.32,4.06,6.1.05,8.43a16,16,0,0,1-14.55,0c-4-2.33-4.06-6.1-.05-8.43A16,16,0,0,1,323.06,317.23Z"/><path class="cls-43" d="M365.56,341.77c4,2.33,4.06,6.1.05,8.43a16,16,0,0,1-14.55,0c-4-2.33-4.06-6.1-.05-8.43A16,16,0,0,1,365.56,341.77Z"/><path class="cls-61" d="M408.06,366.3c4,2.34,4.06,6.1.05,8.43a16,16,0,0,1-14.55,0c-4-2.33-4.06-6.09-.05-8.43A16,16,0,0,1,408.06,366.3Z"/><path class="cls-62" d="M450.56,390.84c4,2.33,4.06,6.1.05,8.43a16,16,0,0,1-14.55,0c-4-2.33-4.06-6.1-.05-8.43A16,16,0,0,1,450.56,390.84Z"/><path class="cls-63" d="M69.15,366.29c4,2.33,4,6.11,0,8.43a16,16,0,0,1-14.55,0c-4-2.32-4.06-6.1,0-8.43A16.16,16.16,0,0,1,69.15,366.29Z"/><path class="cls-10" d="M111.64,390.83c4,2.33,4,6.11,0,8.43a16,16,0,0,1-14.55,0c-4-2.32-4.06-6.1,0-8.43A16.08,16.08,0,0,1,111.64,390.83Z"/><path class="cls-64" d="M154.17,415.38c4,2.32,4,6.11.05,8.43a16,16,0,0,1-14.55,0c-4-2.33-4.06-6.1,0-8.43A16.08,16.08,0,0,1,154.17,415.38Z"/><path class="cls-65" d="M196.67,439.92c4,2.33,4,6.11.05,8.43a16,16,0,0,1-14.55,0c-4-2.33-4.06-6.1,0-8.43A16,16,0,0,1,196.67,439.92Z"/><path class="cls-66" d="M239.17,464.45c4,2.34,4,6.12.05,8.43a16,16,0,0,1-14.55,0c-4-2.33-4.06-6.09,0-8.43A16.08,16.08,0,0,1,239.17,464.45Z"/><path class="cls-67" d="M281.67,489c4,2.33,4,6.12.05,8.43a16,16,0,0,1-14.55,0c-4-2.33-4.06-6.1-.05-8.43A16.08,16.08,0,0,1,281.67,489Z"/><path class="cls-68" d="M111.37,341.75c4,2.33,4.06,6.1,0,8.43a16,16,0,0,1-14.56,0c-4-2.31-4-6.1,0-8.43A16.08,16.08,0,0,1,111.37,341.75Z"/><path class="cls-69" d="M153.87,366.29c4,2.33,4.06,6.1,0,8.43a16,16,0,0,1-14.56,0c-4-2.32-4.05-6.1,0-8.43A16.08,16.08,0,0,1,153.87,366.29Z"/><path class="cls-70" d="M196.4,390.84c4,2.32,4,6.1,0,8.43a16,16,0,0,1-14.55,0c-4-2.33-4.06-6.1,0-8.43A16,16,0,0,1,196.4,390.84Z"/><path class="cls-71" d="M238.89,415.38c4,2.33,4.06,6.1.05,8.43a16,16,0,0,1-14.55,0c-4-2.33-4.06-6.1,0-8.43A16,16,0,0,1,238.89,415.38Z"/><path class="cls-72" d="M281.39,439.92c4,2.33,4.06,6.1.05,8.43a16,16,0,0,1-14.55,0c-4-2.33-4.06-6.1-.05-8.43A16,16,0,0,1,281.39,439.92Z"/><path class="cls-73" d="M323.89,464.45c4,2.34,4.06,6.1.05,8.43a16,16,0,0,1-14.55,0c-4-2.33-4.06-6.09-.05-8.43A16,16,0,0,1,323.89,464.45Z"/><path class="cls-74" d="M153.59,317.22c4,2.33,4.06,6.09,0,8.43a16,16,0,0,1-14.55,0c-4-2.32-4.06-6.1-.05-8.43A16,16,0,0,1,153.59,317.22Z"/><path class="cls-75" d="M196.09,341.75c4,2.33,4.06,6.1,0,8.43a16,16,0,0,1-14.55,0c-4-2.31-4.06-6.1-.05-8.43A16.08,16.08,0,0,1,196.09,341.75Z"/><path class="cls-76" d="M238.62,366.31c4,2.31,4.06,6.09,0,8.43a16.1,16.1,0,0,1-14.56,0c-4-2.34-4.05-6.1,0-8.43A16,16,0,0,1,238.62,366.31Z"/><path class="cls-77" d="M281.12,390.84c4,2.33,4.06,6.1.05,8.43a16,16,0,0,1-14.56,0c-4-2.33-4.05-6.1,0-8.43A16,16,0,0,1,281.12,390.84Z"/><path class="cls-78" d="M323.62,415.38c4,2.33,4.06,6.1,0,8.43a16,16,0,0,1-14.55,0c-4-2.33-4.06-6.1,0-8.43A16,16,0,0,1,323.62,415.38Z"/><path class="cls-52" d="M366.12,439.92c4,2.33,4.05,6.1,0,8.43a16,16,0,0,1-14.55,0c-4-2.33-4.06-6.1-.05-8.43A16,16,0,0,1,366.12,439.92Z"/><path class="cls-79" d="M195.82,292.68c4,2.33,4.05,6.1,0,8.43a16,16,0,0,1-14.55,0c-4-2.32-4.06-6.1-.05-8.43A16.07,16.07,0,0,1,195.82,292.68Z"/><path class="cls-80" d="M238.31,317.21c4,2.34,4.06,6.1.05,8.43a16,16,0,0,1-14.55,0c-4-2.31-4.06-6.09-.05-8.42A16,16,0,0,1,238.31,317.21Z"/><path class="cls-43" d="M280.84,341.77c4,2.31,4.06,6.1.05,8.43a16.08,16.08,0,0,1-14.55,0c-4-2.33-4.06-6.1,0-8.43A16,16,0,0,1,280.84,341.77Z"/><path class="cls-36" d="M323.34,366.3c4,2.34,4.06,6.1.05,8.43a16,16,0,0,1-14.55,0c-4-2.33-4.06-6.09,0-8.43A16,16,0,0,1,323.34,366.3Z"/><path class="cls-22" d="M365.84,390.84c4,2.33,4.06,6.1.05,8.43a16,16,0,0,1-14.55,0c-4-2.33-4.06-6.1,0-8.43A16,16,0,0,1,365.84,390.84Z"/><path class="cls-81" d="M408.34,415.38c4,2.33,4.06,6.1.05,8.43a16,16,0,0,1-14.55,0c-4-2.33-4.06-6.1,0-8.43A16,16,0,0,1,408.34,415.38Z"/></g></g><path class="cls-82" d="M429.71,316.18C445,325,445,339.24,429.89,348L300.42,423.28c-15.14,8.8-39.76,8.79-55,0L115.11,348c-15.23-8.8-15.32-23.06-.18-31.85L244.4,241c15.13-8.8,39.77-8.8,55,0Z"/><g class="cls-8"><path class="cls-83" d="M445.64,299.78,303.22,382.55c-16.65,9.67-43.73,9.67-60.5,0L99.38,299.78c-8.43-4.87-12.65-11.26-12.63-17.64l0,8.9c0,6.38,4.2,12.78,12.64,17.65l143.34,82.75c16.76,9.68,43.84,9.68,60.49,0L445.6,308.68c8.27-4.8,12.42-11.1,12.43-17.4l0-8.9C458.05,288.68,453.91,295,445.64,299.78Z"/><path class="cls-84" d="M445.44,264.73c16.76,9.68,16.85,25.37.2,35L303.22,382.54c-16.65,9.68-43.73,9.68-60.5,0L99.38,299.78c-16.76-9.67-16.85-25.36-.2-35L241.6,182c16.65-9.68,43.74-9.68,60.5,0Z"/></g><g class="cls-8"><polygon class="cls-85" points="305.17 86.9 310.88 83.59 310.13 88.13 304.42 91.44 305.17 86.9"/><polygon class="cls-86" points="276.23 42.73 281.93 39.42 286.25 40.99 280.54 44.3 276.23 42.73"/><path class="cls-85" d="M291.29,46.76l5.7-3.32c-2.18,1.27-3.53,4-3.54,7.8,0,7.71,5.4,17.11,12.12,21l-5.71,3.32c-6.71-3.88-12.14-13.28-12.11-21C287.76,50.72,289.11,48,291.29,46.76Z"/><path class="cls-85" d="M314.21,73.07l-5.7,3.31c-2.21,1.29-5.27,1.11-8.65-.84l5.71-3.31C308.94,74.17,312,74.36,314.21,73.07Z"/><path class="cls-85" d="M322.8,88.15l-5.71,3.31a8.12,8.12,0,0,0,2.77-2.84l5.7-3.31A8.18,8.18,0,0,1,322.8,88.15Z"/><path class="cls-86" d="M282.7,31.68l5.71-3.32a6.55,6.55,0,0,1,3.68-.84l-5.7,3.32A6.52,6.52,0,0,0,282.7,31.68Z"/><polygon class="cls-86" points="317.33 83.05 323.03 79.73 325.56 85.31 319.86 88.62 317.33 83.05"/><polygon class="cls-85" points="286.39 30.84 292.09 27.52 295.71 32.47 290 35.78 286.39 30.84"/><path class="cls-86" d="M319.26,78.84l5.7-3.32A13.6,13.6,0,0,1,323,79.73l-5.7,3.32A13.71,13.71,0,0,0,319.26,78.84Z"/><path class="cls-86" d="M290,35.78l5.7-3.32a14.2,14.2,0,0,1,4.62.46l-5.7,3.32A13.67,13.67,0,0,0,290,35.78Z"/><path class="cls-86" d="M317.37,60.19l5.7-3.31A41.9,41.9,0,0,1,325,63.3l-5.7,3.31A42.57,42.57,0,0,0,317.37,60.19Z"/><path class="cls-86" d="M305.25,42.36,311,39.05a41,41,0,0,1,4.61,4.86l-5.7,3.31A40.28,40.28,0,0,0,305.25,42.36Z"/><path class="cls-86" d="M323.6,70l5.7-3.31c1.09,4.62,1,8,0,10.44l-5.71,3.32C324.56,77.93,324.68,74.58,323.6,70Z"/><polygon class="cls-85" points="319.28 66.61 324.98 63.3 329.31 66.65 323.6 69.96 319.28 66.61"/><path class="cls-86" d="M295.38,31.69l5.7-3.31a16.11,16.11,0,0,1,4.73,1.84,20.86,20.86,0,0,1,4.36,3.41l-5.7,3.31a21.12,21.12,0,0,0-4.36-3.41A16.61,16.61,0,0,0,295.38,31.69Z"/><polygon class="cls-85" points="304.47 36.94 310.17 33.63 310.96 39.05 305.25 42.36 304.47 36.94"/><polygon class="cls-85" points="319.87 57.47 325.57 54.16 323.07 56.88 317.37 60.19 319.87 57.47"/><polygon class="cls-85" points="309.87 47.22 315.57 43.91 319.16 43.06 313.46 46.37 309.87 47.22"/><path class="cls-87" d="M323.57,80.41l-4.31-1.57a13.6,13.6,0,0,1-1.93,4.21l2.53,5.57c-1.69,2.74-3.89,3.8-6.45,3.68l-3.61-5a13.74,13.74,0,0,1-4.63-.45l-.75,4.55a16.13,16.13,0,0,1-4.73-1.85,20.8,20.8,0,0,1-4.36-3.4l-.78-5.42a41.18,41.18,0,0,1-4.62-4.87l-3.59.85a32.42,32.42,0,0,1-6.41-11.1l2.49-2.72a41.84,41.84,0,0,1-1.9-6.42l-4.32-3.34c-1.08-4.62-1-8,0-10.45l4.31,1.57a14,14,0,0,1,1.93-4.21l-2.53-5.58c1.69-2.74,3.9-3.8,6.45-3.67L290,35.78a13.67,13.67,0,0,1,4.62.46l.76-4.55a16.39,16.39,0,0,1,4.73,1.84,20.86,20.86,0,0,1,4.36,3.41l.79,5.42a41,41,0,0,1,4.61,4.86l3.59-.85a32.59,32.59,0,0,1,6.41,11.1l-2.5,2.72a42.23,42.23,0,0,1,1.91,6.42L323.61,70C324.68,74.58,324.56,77.93,323.57,80.41Zm-23.71-4.87c6.71,3.87,12.17.76,12.2-7s-5.41-17.11-12.12-21-12.17-.76-12.2,7,5.41,17.1,12.12,21"/><path class="cls-86" d="M313.46,46.37l5.7-3.31a32.59,32.59,0,0,1,6.41,11.1l-5.7,3.31A32.59,32.59,0,0,0,313.46,46.37Z"/></g><g class="cls-8"><polygon class="cls-88" points="348.22 61.61 351.7 59.58 351.24 62.36 347.76 64.38 348.22 61.61"/><polygon class="cls-89" points="330.55 34.66 334.03 32.63 336.67 33.59 333.19 35.61 330.55 34.66"/><path class="cls-88" d="M348.46,52.65a16.29,16.29,0,0,1-7.4-12.8c0-2.34.83-4,2.17-4.76l-3.48,2c-1.33.77-2.16,2.42-2.17,4.76a16.29,16.29,0,0,0,7.4,12.8c2.06,1.19,3.93,1.3,5.27.52l3.48-2C352.38,54,350.52,53.84,348.46,52.65Z"/><path class="cls-88" d="M359,62.37l-3.48,2a5,5,0,0,0,1.69-1.73l3.48-2A5,5,0,0,1,359,62.37Z"/><path class="cls-89" d="M334.51,27.91l3.48-2a3.93,3.93,0,0,1,2.24-.52l-3.47,2A3.94,3.94,0,0,0,334.51,27.91Z"/><polygon class="cls-89" points="355.64 59.25 359.12 57.23 360.66 60.63 357.18 62.66 355.64 59.25"/><polygon class="cls-88" points="336.75 27.4 340.24 25.37 342.44 28.39 338.96 30.41 336.75 27.4"/><path class="cls-89" d="M356.81,56.69l3.48-2a8.32,8.32,0,0,1-1.17,2.57l-3.48,2A8.37,8.37,0,0,0,356.81,56.69Z"/><path class="cls-89" d="M339,30.41l3.48-2a8.5,8.5,0,0,1,2.82.28l-3.48,2A8.5,8.5,0,0,0,339,30.41Z"/><path class="cls-89" d="M355.66,45.31l3.48-2a26.38,26.38,0,0,1,1.17,3.91l-3.48,2A26.15,26.15,0,0,0,355.66,45.31Z"/><path class="cls-89" d="M348.27,34.43l3.48-2a24.75,24.75,0,0,1,2.81,3l-3.48,2A24.75,24.75,0,0,0,348.27,34.43Z"/><path class="cls-89" d="M359.46,51.27l3.48-2c.66,2.82.59,4.86,0,6.37l-3.48,2C360.05,56.14,360.12,54.09,359.46,51.27Z"/><polygon class="cls-88" points="356.83 49.22 360.31 47.2 362.94 49.25 359.46 51.27 356.83 49.22"/><path class="cls-89" d="M342.24,27.92l3.48-2A9.7,9.7,0,0,1,348.6,27a12.75,12.75,0,0,1,2.67,2.08l-3.48,2A13,13,0,0,0,345.13,29,9.86,9.86,0,0,0,342.24,27.92Z"/><polygon class="cls-88" points="347.79 31.12 351.27 29.1 351.75 32.41 348.27 34.43 347.79 31.12"/><polygon class="cls-88" points="357.19 43.65 360.67 41.63 359.14 43.29 355.66 45.31 357.19 43.65"/><polygon class="cls-88" points="351.08 37.39 354.56 35.37 356.75 34.85 353.27 36.87 351.08 37.39"/><path class="cls-90" d="M359.45,57.64l-2.64-1a8.37,8.37,0,0,1-1.17,2.56l1.54,3.41a4.15,4.15,0,0,1-3.93,2.24l-2.21-3a8.25,8.25,0,0,1-2.82-.28l-.46,2.78a9.88,9.88,0,0,1-2.89-1.13,12.9,12.9,0,0,1-2.66-2.07l-.48-3.31a25.63,25.63,0,0,1-2.81-3l-2.2.52a19.76,19.76,0,0,1-3.9-6.78L334.34,47a25.24,25.24,0,0,1-1.17-3.91l-2.63-2c-.66-2.82-.59-4.87,0-6.38l2.64,1A8.32,8.32,0,0,1,334.36,33l-1.54-3.4a4.17,4.17,0,0,1,3.94-2.25l2.2,3a8.5,8.5,0,0,1,2.82.28l.46-2.77A9.86,9.86,0,0,1,345.13,29a13,13,0,0,1,2.66,2.08l.48,3.31a24.75,24.75,0,0,1,2.81,3l2.19-.52a19.89,19.89,0,0,1,3.91,6.78l-1.52,1.66a26.38,26.38,0,0,1,1.17,3.91l2.63,2.05C360.12,54.09,360.05,56.14,359.45,57.64Zm-14.47-3c4.09,2.37,7.42.47,7.44-4.24A16.29,16.29,0,0,0,345,37.63c-4.1-2.37-7.43-.47-7.45,4.24a16.29,16.29,0,0,0,7.4,12.8"/><path class="cls-89" d="M353.27,36.87l3.48-2a19.89,19.89,0,0,1,3.91,6.78l-3.48,2A20,20,0,0,0,353.27,36.87Z"/></g><g class="cls-8"><path class="cls-83" d="M399.26,98.36,401.55,97a2.4,2.4,0,0,1,2.4.24l-2.29,1.33A2.4,2.4,0,0,0,399.26,98.36Z"/><path class="cls-83" d="M456.23,168.4l-2.29,1.33a2.34,2.34,0,0,0,1-2.16l2.29-1.33A2.34,2.34,0,0,1,456.23,168.4Z"/><polygon class="cls-83" points="455.02 133.3 457.31 131.97 457.21 166.24 454.93 167.57 455.02 133.3"/><polygon class="cls-83" points="401.66 98.6 403.95 97.27 453.94 126.14 451.65 127.47 401.66 98.6"/><path class="cls-83" d="M451.65,127.47l2.29-1.33a7.39,7.39,0,0,1,3.37,5.83L455,133.3A7.39,7.39,0,0,0,451.65,127.47Z"/><path class="cls-84" d="M451.65,127.47A7.39,7.39,0,0,1,455,133.3l-.09,34.27c0,2.14-1.53,3-3.39,1.92l-50-28.86a7.38,7.38,0,0,1-3.36-5.83l.09-34.26c0-2.15,1.52-3,3.39-1.94Z"/></g><polygon class="cls-91" points="410.85 123.68 410.82 136.9 406.8 134.58 406.84 121.36 410.85 123.68"/><polygon class="cls-92" points="418.54 121.35 418.48 141.32 414.46 139.01 414.52 119.03 418.54 121.35"/><polygon class="cls-91" points="426 129.65 425.96 145.64 421.95 143.33 422 127.33 426 129.65"/><polygon class="cls-92" points="433.52 123.53 433.44 149.96 429.43 147.65 429.5 121.21 433.52 123.53"/><polygon class="cls-92" points="448.76 132.32 448.68 158.76 444.67 156.44 444.74 130.01 448.76 132.32"/><polygon class="cls-91" points="441.17 132 441.11 154.39 437.09 152.07 437.16 129.68 441.17 132"/><polygon class="cls-83" points="418.57 111.39 418.56 112.75 406.16 105.59 406.16 104.23 418.57 111.39"/><polygon class="cls-83" points="449.26 161.56 449.26 162.82 406.79 138.3 406.79 137.04 449.26 161.56"/><g class="cls-8"><polygon class="cls-93" points="417.62 202.72 421.25 200.61 432.36 222.03 428.73 224.14 417.62 202.72"/><path class="cls-92" d="M433.74,221.39l-3.63,2.11c3-1.76,4.95-5.43,5.11-10.62l3.63-2.11C438.69,216,436.76,219.63,433.74,221.39Z"/><path class="cls-92" d="M435.22,212.88c-.19,5.94-2.68,9.89-6.49,11.26l-11.11-21.42Z"/><polygon class="cls-92" points="417.62 202.72 421.25 200.61 438.85 210.77 435.22 212.88 417.62 202.72"/><path class="cls-94" d="M417.68,181.79l-.06,20.93,11.11,21.42c-3,1.11-6.94.57-11.16-1.86C407.84,216.66,400,203,400,191.87S408,176.17,417.68,181.79Z"/><path class="cls-93" d="M405.15,180.56l3.63-2.11c3.2-1.86,7.64-1.6,12.53,1.23l-3.63,2.11C412.79,179,408.35,178.7,405.15,180.56Z"/><polygon class="cls-93" points="417.68 181.79 421.31 179.68 421.25 200.61 417.62 202.72 417.68 181.79"/><path class="cls-91" d="M422.23,176.55c10.63,6.14,19.23,21,19.2,33.26,0,.26,0,.51,0,.74l-19.25-11.12Z"/><path class="cls-95" d="M422.23,176.55l3.63-2.11c10.63,6.14,19.23,21,19.2,33.26,0,.26,0,.51,0,.74l-3.63,2.11c0-.23,0-.48,0-.74C441.46,197.59,432.86,182.69,422.23,176.55Z"/></g><g class="cls-8"><path class="cls-83" d="M194.71,81.41l-2.29-1.33a2.4,2.4,0,0,0-2.4.24l2.29,1.33A2.4,2.4,0,0,1,194.71,81.41Z"/><path class="cls-83" d="M141.12,157.37l2.28,1.33a2.38,2.38,0,0,1-1-2.16l-2.29-1.33A2.34,2.34,0,0,0,141.12,157.37Z"/><polygon class="cls-83" points="142.32 114.4 140.03 113.07 140.13 155.21 142.42 156.54 142.32 114.4"/><polygon class="cls-83" points="192.31 81.65 190.02 80.32 143.4 107.23 145.69 108.56 192.31 81.65"/><path class="cls-83" d="M145.69,108.56l-2.29-1.33a7.46,7.46,0,0,0-3.37,5.84l2.29,1.33A7.46,7.46,0,0,1,145.69,108.56Z"/><path class="cls-84" d="M145.69,108.56a7.46,7.46,0,0,0-3.37,5.84l.1,42.14c0,2.14,1.53,3,3.39,1.92l46.62-26.91a7.41,7.41,0,0,0,3.36-5.82l-.1-42.15c0-2.14-1.51-3-3.38-1.93Z"/></g><path class="cls-96" d="M156,108.12l.23-.13-.06,2.78-.14.07c-.22.13-.43.27-.65.43l-.33.26-.47.43c-2.32,2.26-3.55,5.89-2.74,8.1a2.6,2.6,0,0,0,.25.53c.72,1.2,2.11,1.42,3.63.68l.34-.18.09-.06a7,7,0,0,0,1-.73l.14-.12.22-.21a10.43,10.43,0,0,0,2.7-4.57l2.23-.3a16.19,16.19,0,0,1-4.14,7l-.23.21-.08.08a11.51,11.51,0,0,1-1.85,1.38l-.07,0-.14.08c-2.66,1.48-5.14,1-6.21-1.31l-.13-.33a6.77,6.77,0,0,1-.38-2.3,15.09,15.09,0,0,1,4.59-10.14A11.25,11.25,0,0,1,156,108.12Z"/><path class="cls-83" d="M156,114.3c.79-.46,1.44-.09,1.45.83a3.2,3.2,0,0,1-1.44,2.49c-.8.46-1.45.09-1.46-.82A3.19,3.19,0,0,1,156,114.3Z"/><path class="cls-97" d="M162.5,109.67a9.07,9.07,0,0,1-.07,5.43l-2.23.3a6,6,0,0,0,.05-3.54c-.63-1.71-2.3-2.07-4.09-1.09l.06-2.78C159,106.49,161.53,107,162.5,109.67Z"/><path class="cls-98" d="M156.14,121a7,7,0,0,0,1-.73A7,7,0,0,1,156.14,121Z"/><path class="cls-83" d="M173.82,129.7a8.54,8.54,0,0,0,2.46-2.34A8.54,8.54,0,0,1,173.82,129.7Z"/><path class="cls-83" d="M173.71,123.13c.8-.46,1.45-.09,1.45.83a3.17,3.17,0,0,1-1.44,2.5c-.8.46-1.45.09-1.45-.83A3.18,3.18,0,0,1,173.71,123.13Z"/><path class="cls-99" d="M174.07,116.57c1.94-1,3.83-1,5.1.18,2.28,2.15,1.68,7.43-1.33,11.78-.15.22-.3.43-.46.64a12.86,12.86,0,0,1-3.51,3.24l-.13.08-.1,0c-1.81,1-3.59,1.19-4.9.35l-.24-.17-.09-.08-.15-.13a4.3,4.3,0,0,1-1.11-1.89l2.29-2.09a2.74,2.74,0,0,0,.72,1.24l.26.2.05,0a3,3,0,0,0,3-.12l.25-.14.09-.05a8.67,8.67,0,0,0,2.46-2.34l.12-.18a9.34,9.34,0,0,0,1.77-5.14,3.51,3.51,0,0,0-.9-2.55,2.82,2.82,0,0,0-3.33-.11Z"/><g class="cls-8"><path class="cls-83" d="M174,135.88c.28-.16.51,0,.51.3a1.1,1.1,0,0,1-.5.87l-20.3,11.72c-.29.17-.52,0-.52-.29a1.13,1.13,0,0,1,.51-.88Z"/><path class="cls-83" d="M156.09,133.3c.8-.46,1.45-.09,1.45.83a3.18,3.18,0,0,1-1.44,2.5c-.8.46-1.45.09-1.45-.83A3.17,3.17,0,0,1,156.09,133.3Z"/><path class="cls-98" d="M156.82,123.33c-.23.17-.46.32-.69.46C156.36,123.65,156.59,123.5,156.82,123.33Z"/><path class="cls-96" d="M160.12,138.85a13.5,13.5,0,0,1-4,3.81,6.8,6.8,0,0,1-2.41.89c-2.59.38-4.44-1.44-4.45-4.8a13.3,13.3,0,0,1,1.6-6,14.36,14.36,0,0,1,5.22-5.83v2.74a9.44,9.44,0,0,0-3.41,3.8,8.88,8.88,0,0,0-1,3.89c0,2.19,1.21,3.37,2.9,3.14a4.39,4.39,0,0,0,1.57-.58,8.66,8.66,0,0,0,2.62-2.48l.78.77h0Z"/><path class="cls-83" d="M156.08,129.68l.07,0"/></g><path class="cls-98" d="M158,122.4a10.74,10.74,0,0,1-1.16.93A10.74,10.74,0,0,0,158,122.4Z"/><path class="cls-83" d="M177.38,129.17a12.86,12.86,0,0,1-3.51,3.24A12.86,12.86,0,0,0,177.38,129.17Z"/><g class="cls-8"><path class="cls-96" d="M174,119.38l-.25.13a8.66,8.66,0,0,0-2.68,2.58c-1.52,2.19-2.09,4.75-1.58,6.44l-2.29,2.09c-.78-2.6.1-6.52,2.43-9.9a13.18,13.18,0,0,1,4.1-3.94,3.72,3.72,0,0,1,.39-.21Z"/><path class="cls-83" d="M173.66,104.13c.8-.47,1.45-.1,1.45.82a3.19,3.19,0,0,1-1.45,2.5c-.79.46-1.44.09-1.44-.83A3.14,3.14,0,0,1,173.66,104.13Z"/><path class="cls-96" d="M170.24,104.46a.41.41,0,0,0,0-.09.41.41,0,0,1,0,.09,8.79,8.79,0,0,0-1,3.9c0,2.19,1.21,3.37,2.9,3.13l-.83,3.05.16,0-.16,0c-2.59.37-4.44-1.44-4.45-4.8a13.21,13.21,0,0,1,1.6-6l1.82.71Z"/></g><path class="cls-92" d="M173.64,97.93c3.78-2.18,6.85-.43,6.86,3.91a15,15,0,0,1-6.81,11.8,6.58,6.58,0,0,1-2.43.89l.84-3a4.5,4.5,0,0,0,1.58-.58,9.79,9.79,0,0,0,4.44-7.69c0-2.83-2-4-4.47-2.55a9.35,9.35,0,0,0-3.41,3.79l-1.82-.71A14.27,14.27,0,0,1,173.64,97.93Z"/><path class="cls-83" d="M188.27,91.53c1.06-.61,1.93-.12,1.93,1.1A4.2,4.2,0,0,1,188.29,96c-1.07.61-1.93.12-1.94-1.1A4.27,4.27,0,0,1,188.27,91.53Z"/><path class="cls-83" d="M188.29,99.48c1.07-.61,1.93-.12,1.94,1.11a4.24,4.24,0,0,1-1.92,3.32c-1.07.61-1.93.12-1.94-1.1A4.27,4.27,0,0,1,188.29,99.48Z"/><path class="cls-83" d="M188.32,107.44c1.06-.62,1.93-.12,1.93,1.1a4.24,4.24,0,0,1-1.92,3.32c-1.06.62-1.93.12-1.93-1.1A4.19,4.19,0,0,1,188.32,107.44Z"/><path class="cls-83" d="M188.34,115.39c1.06-.62,1.93-.12,1.93,1.1a4.24,4.24,0,0,1-1.92,3.32c-1.06.62-1.93.12-1.93-1.1A4.24,4.24,0,0,1,188.34,115.39Z"/><path class="cls-100" d="M156.07,126.94c3.78-2.18,6.85-.42,6.86,3.92a14.43,14.43,0,0,1-2.81,8l-1.4-1.41a9.41,9.41,0,0,0,1.83-5.21c0-2.83-2-4-4.47-2.55Z"/><g class="cls-8"><path class="cls-83" d="M194.89,145.59,193,144.48a2,2,0,0,0-2,.19l1.91,1.11A2,2,0,0,1,194.89,145.59Z"/><path class="cls-83" d="M150.16,197.23l1.91,1.11a2,2,0,0,1-.82-1.8l-1.91-1.11A2,2,0,0,0,150.16,197.23Z"/><polygon class="cls-83" points="151.16 173.12 149.25 172.01 149.34 195.43 151.25 196.54 151.16 173.12"/><polygon class="cls-83" points="192.89 145.78 190.98 144.68 152.07 167.14 153.98 168.25 192.89 145.78"/><path class="cls-83" d="M154,168.25l-1.91-1.11a6.21,6.21,0,0,0-2.82,4.87l1.91,1.11A6.21,6.21,0,0,1,154,168.25Z"/><path class="cls-84" d="M154,168.25a6.21,6.21,0,0,0-2.82,4.87l.09,23.42c0,1.79,1.27,2.5,2.83,1.6L193,175.68a6.18,6.18,0,0,0,2.8-4.86l-.08-23.42c0-1.79-1.27-2.52-2.82-1.62Z"/></g><polygon class="cls-83" points="191.91 169.21 191.92 171.57 159.68 190.19 159.67 187.82 191.91 169.21"/><polygon class="cls-83" points="191.88 157.7 191.88 160.06 159.64 178.68 159.64 176.31 191.88 157.7"/><polygon class="cls-83" points="191.89 163.45 191.9 165.82 159.66 184.44 159.65 182.07 191.89 163.45"/><polygon class="cls-83" points="179.55 159.07 179.55 161.44 159.63 172.94 159.62 170.57 179.55 159.07"/><path class="cls-83" d="M157.05,172.51c.35-.2.64,0,.64.37a1.39,1.39,0,0,1-.63,1.09c-.35.2-.64,0-.64-.36A1.42,1.42,0,0,1,157.05,172.51Z"/><path class="cls-83" d="M157.07,178.25c.35-.21.63,0,.64.37a1.41,1.41,0,0,1-.64,1.09c-.35.2-.63,0-.63-.36A1.39,1.39,0,0,1,157.07,178.25Z"/><path class="cls-83" d="M157.09,184c.35-.2.63,0,.63.36a1.39,1.39,0,0,1-.63,1.09c-.35.21-.63,0-.64-.36A1.4,1.4,0,0,1,157.09,184Z"/><path class="cls-83" d="M157.1,189.76c.35-.21.64,0,.64.37a1.4,1.4,0,0,1-.63,1.09c-.35.2-.64,0-.64-.36A1.39,1.39,0,0,1,157.1,189.76Z"/><g class="cls-8"><path class="cls-83" d="M291.21,81.48l9.53-5.54c-9.45,5.5-15.32,17.16-15.37,33.72-.09,33.34,23.44,74.09,52.45,90.84L328.29,206c-29-16.75-52.54-57.5-52.45-90.84C275.89,98.64,281.76,87,291.21,81.48Z"/><path class="cls-83" d="M375.24,204.14l-9.53,5.54c-9.57,5.56-22.82,4.79-37.42-3.64l9.53-5.54C352.42,208.93,365.67,209.7,375.24,204.14Z"/><path class="cls-83" d="M300.74,76c9.57-5.57,22.82-4.8,37.42,3.63l-9.53,5.54c-14.6-8.43-27.85-9.2-37.42-3.64Z"/><path class="cls-83" d="M290.87,80.9l9.53-5.54c9.66-5.61,23-4.84,37.76,3.67l-9.53,5.54C313.9,76.06,300.53,75.29,290.87,80.9Z"/><path class="cls-83" d="M390.61,170.42c-.05,16.56-5.92,28.22-15.36,33.71l-9.54,5.54c9.45-5.49,15.32-17.15,15.37-33.72.09-33.33-23.44-74.08-52.45-90.83l9.53-5.54C367.18,96.33,390.7,137.08,390.61,170.42Z"/><path class="cls-83" d="M328.63,84.57c29.28,16.9,53,58,52.93,91.66s-24,47.26-53.28,30.36-53-58-52.91-91.67S299.36,67.67,328.63,84.57ZM328.29,206c29,16.75,52.69,3.26,52.79-30.09s-23.44-74.08-52.45-90.83-52.69-3.26-52.79,30.08,23.44,74.09,52.45,90.84"/><path class="cls-101" d="M381.07,176C381,209.29,357.3,222.79,328.29,206a89.89,89.89,0,0,1-19.55-15.63c-19.32-20.11-33-49.81-32.9-75.21.1-33.34,23.78-46.83,52.79-30.08a86.32,86.32,0,0,1,16.68,12.76C366.14,118,381.15,149.31,381.07,176Z"/><path class="cls-84" d="M378.18,173.05c-.1,33.35-23.78,46.84-52.79,30.09a86.77,86.77,0,0,1-16.65-12.73c-19.32-20.11-33-49.81-32.9-75.21.1-33.34,23.78-46.83,52.79-30.08a86.32,86.32,0,0,1,16.68,12.76C364.63,118,378.25,147.67,378.18,173.05Z"/><path class="cls-83" d="M375.58,204.72l-9.53,5.54c9.54-5.54,15.46-17.32,15.51-34,.09-33.64-23.65-74.76-52.93-91.66L338.16,79c29.28,16.9,53,58,52.93,91.66C391,187.41,385.12,199.18,375.58,204.72Z"/></g><path class="cls-83" d="M370.07,169.6c0,9.06-2.26,16.28-6.12,21.3-7.33,9.58-20.57,11.19-35.62,2.49-22.95-13.25-41.55-45.47-41.48-71.84,0-11.89,3.86-20.58,10.16-25.33,7.66-5.79,19-5.73,31.59,1.54C351.54,111,370.15,143.24,370.07,169.6Z"/><path class="cls-84" d="M370.07,169.6c0,9.06-2.26,16.28-6.12,21.3-7.67,5.8-19,5.75-31.6-1.53-23-13.25-41.55-45.48-41.47-71.84,0-9.08,2.26-16.29,6.13-21.31,7.66-5.79,19-5.73,31.59,1.54C351.54,111,370.15,143.24,370.07,169.6Z"/><path class="cls-83" d="M330.38,102.19a1.67,1.67,0,0,1,.76,1.31l0,6.63c0,.48-.34.68-.76.43a1.65,1.65,0,0,1-.76-1.31l0-6.62C329.62,102.14,330,102,330.38,102.19Z"/><path class="cls-83" d="M312.54,97.39a1.68,1.68,0,0,1,.66.82l2.86,7.39c.21.55.08,1-.28,1a.7.7,0,0,1-.38-.1,1.61,1.61,0,0,1-.66-.83l-2.87-7.39c-.2-.54-.08-1,.29-1A.7.7,0,0,1,312.54,97.39Z"/><path class="cls-83" d="M299.45,104.85a1.48,1.48,0,0,1,.38.34l5,6.19a1.27,1.27,0,0,1,.27,1.36c-.14.2-.39.21-.66.05a1.31,1.31,0,0,1-.38-.34l-5-6.18a1.27,1.27,0,0,1-.27-1.36C298.93,104.71,299.18,104.7,299.45,104.85Z"/><path class="cls-83" d="M300.37,125.9a1.69,1.69,0,0,1,.76,1.32c0,.48-.34.68-.76.43l-5.77-3.32a1.67,1.67,0,0,1-.75-1.32c0-.48.34-.68.76-.43Z"/><path class="cls-83" d="M304.33,145.38a1.7,1.7,0,0,1,.66.83c.21.54.08,1-.29,1l-5,.43a.59.59,0,0,1-.37-.1,1.62,1.62,0,0,1-.66-.82c-.21-.54-.09-1,.28-1l5-.44A.7.7,0,0,1,304.33,145.38Z"/><path class="cls-83" d="M315.23,164.28a1.34,1.34,0,0,1,.39.34,1.27,1.27,0,0,1,.27,1.35L313,170c-.14.2-.39.21-.66.06a1.31,1.31,0,0,1-.38-.34,1.27,1.27,0,0,1-.27-1.36l2.89-4.07C314.71,164.13,315,164.13,315.23,164.28Z"/><path class="cls-83" d="M330.17,177.51a1.63,1.63,0,0,1,.75,1.31v6.62c0,.49-.35.68-.77.44a1.69,1.69,0,0,1-.76-1.32l0-6.62C329.4,177.46,329.75,177.26,330.17,177.51Z"/><path class="cls-83" d="M345.12,181.54a1.6,1.6,0,0,1,.66.81l2.87,7.4c.21.54.08,1-.28,1a.56.56,0,0,1-.38-.1,1.58,1.58,0,0,1-.66-.82l-2.87-7.4c-.21-.53-.08-1,.29-1A.63.63,0,0,1,345.12,181.54Z"/><path class="cls-83" d="M356.1,175.28a1.27,1.27,0,0,1,.38.33l5,6.2a1.26,1.26,0,0,1,.28,1.35c-.14.21-.4.22-.66.06a1.63,1.63,0,0,1-.39-.33l-5-6.2a1.26,1.26,0,0,1-.28-1.35C355.58,175.14,355.84,175.13,356.1,175.28Z"/><path class="cls-83" d="M365.92,163.74a1.65,1.65,0,0,1,.75,1.32c0,.48-.34.68-.76.43l-5.76-3.32a1.69,1.69,0,0,1-.76-1.32c0-.48.34-.68.76-.43Z"/><path class="cls-83" d="M361.2,140.5a1.72,1.72,0,0,1,.66.82c.21.54.08,1-.29,1l-5,.43a.59.59,0,0,1-.37-.11,1.6,1.6,0,0,1-.66-.81c-.21-.55-.09-1,.28-1l5-.43A.7.7,0,0,1,361.2,140.5Z"/><path class="cls-83" d="M348.19,118a1.48,1.48,0,0,1,.38.34,1.28,1.28,0,0,1,.28,1.36l-2.9,4.06c-.14.21-.4.22-.66.06a1.49,1.49,0,0,1-.66-1.69l2.9-4.07C347.67,117.83,347.93,117.82,348.19,118Z"/><g class="cls-8"><path class="cls-83" d="M324.41,142.26l3.18-1.84a2.43,2.43,0,0,0-1,2.23,7.65,7.65,0,0,0,3.47,6l-3.18,1.85a7.61,7.61,0,0,1-3.46-6A2.43,2.43,0,0,1,324.41,142.26Z"/><path class="cls-83" d="M332.51,148.9l-3.17,1.84a2.45,2.45,0,0,1-2.48-.24l3.18-1.85A2.46,2.46,0,0,0,332.51,148.9Z"/><path class="cls-83" d="M321.87,137.89,325,136c1.29-.74,3.07-.64,5,.5l-3.18,1.84C324.93,137.25,323.15,137.14,321.87,137.89Z"/><path class="cls-83" d="M335.05,153.27l-3.17,1.85c1.26-.74,2.05-2.31,2.05-4.54a15.5,15.5,0,0,0-7-12.2l3.18-1.84a15.49,15.49,0,0,1,7,12.2C337.11,151,336.32,152.53,335.05,153.27Z"/><path class="cls-84" d="M326.89,138.38a15.5,15.5,0,0,1,7,12.2c0,4.49-3.17,6.3-7.08,4a15.53,15.53,0,0,1-7.05-12.2C319.82,137.94,323,136.13,326.89,138.38Zm0,12.12c1.92,1.11,3.48.22,3.49-2a7.63,7.63,0,0,0-3.47-6c-1.92-1.11-3.48-.22-3.49,2a7.65,7.65,0,0,0,3.47,6"/></g><g class="cls-102"><path class="cls-82" d="M251,274.8c10.3,5.95,11.79,21.15,2.62,37.16-10.72,18.73-32,31.48-47.46,28.48a19.13,19.13,0,0,1-6-2.19c-10.3-5.94-11.8-21.14-2.62-37.16,10.72-18.73,32-31.48,47.45-28.48A19.35,19.35,0,0,1,251,274.8Z"/><path class="cls-82" d="M264.85,297.19c7.43,4.29,8.56,15.17,2,26.61-7.68,13.41-23,22.52-34.2,20.35a13.83,13.83,0,0,1-4.38-1.6c-7.43-4.29-8.56-15.17-2-26.61,7.68-13.41,23-22.52,34.2-20.35A14.08,14.08,0,0,1,264.85,297.19Z"/></g><g class="cls-8"><path class="cls-84" d="M249.56,178l6.36-3.7a3.09,3.09,0,0,0-.37.26l-6.35,3.69A2.31,2.31,0,0,1,249.56,178Z"/><path class="cls-96" d="M251.38,181.11l6.35-3.69a1.72,1.72,0,0,0-.69.84,1.89,1.89,0,0,0-.09.21c-.51,1.64.44,4.21,2.11,5.75a4.89,4.89,0,0,0,.91.68,3.22,3.22,0,0,0,1,.4,1.8,1.8,0,0,0,1.21-.19l-6.36,3.7a1.84,1.84,0,0,1-1.2.18,3.18,3.18,0,0,1-1-.39,5.52,5.52,0,0,1-.92-.69c-1.67-1.54-2.61-4.11-2.1-5.74,0-.08.06-.15.08-.22A1.73,1.73,0,0,1,251.38,181.11Z"/><path class="cls-84" d="M259.86,177.58l-6.35,3.69a3.14,3.14,0,0,0-.64-.27l6.36-3.69h0A3.31,3.31,0,0,1,259.86,177.58Z"/><path class="cls-84" d="M259.86,177.58h0l-6.36,3.7h0Z"/><path class="cls-84" d="M253.52,181.28l6.36-3.69.09,0-6.35,3.69Z"/><path class="cls-84" d="M255.86,188.8a1.85,1.85,0,0,0,.79-1.05c.5-1.62-.44-4.19-2.11-5.74a4.46,4.46,0,0,0-.42-.34l-.5-.34a.47.47,0,0,0-.1-.05l-.05,0c-.08-.05-.16-.07-.23-.11l0,0h0l-.16-.06a.44.44,0,0,0-.16-.06l-.09,0-.21,0a1.92,1.92,0,0,0-1.07.12l-.13.08a.57.57,0,0,0-.18.12,1.79,1.79,0,0,0-.51.7,2,2,0,0,0-.08.22c-.5,1.63.43,4.2,2.1,5.74a5.52,5.52,0,0,0,.92.69,3.18,3.18,0,0,0,1,.39,1.62,1.62,0,0,0,.58,0,.47.47,0,0,0,.17,0h.07a.56.56,0,0,0,.18-.07.42.42,0,0,0,.18-.08h0"/><path class="cls-103" d="M259.23,186.86a11.32,11.32,0,0,0-.57-2.12,13.73,13.73,0,0,0-1.88-3.46,11.37,11.37,0,0,0-1-1.2l-.07-.07h0l-.4-.38h0a5.21,5.21,0,0,0-.52-.45,10.05,10.05,0,0,0-1.1-.77,6.76,6.76,0,0,0-.91-.43,4.49,4.49,0,0,0-1.69-.35,2.82,2.82,0,0,0-.41,0l-.27.05-.08,0a.66.66,0,0,0-.2.06l-.13,0h0l-.06,0a2.64,2.64,0,0,0-.29.15,2.29,2.29,0,0,0-.41.28,3.44,3.44,0,0,0-1.05,1.65c-.91,2.95.8,7.62,3.82,10.41a8.69,8.69,0,0,0,1.64,1.22c1.65,1,3.22,1,4.3.26l.06,0a3.13,3.13,0,0,0,.33-.31l0,0a2.72,2.72,0,0,0,.25-.32.16.16,0,0,0,0-.07,2.8,2.8,0,0,0,.25-.41,0,0,0,0,0,0,0c.07-.16.13-.32.19-.5a.94.94,0,0,0,0-.09,3.58,3.58,0,0,0,.09-.35A7.08,7.08,0,0,0,259.23,186.86Z"/><path class="cls-96" d="M255.85,188.81l-.18.08a.83.83,0,0,1-.18.07h-.08a.47.47,0,0,1-.17,0,1.62,1.62,0,0,1-.58,0,3,3,0,0,1-1-.4,4.94,4.94,0,0,1-.92-.68c-1.67-1.54-2.6-4.11-2.1-5.74,0-.08.06-.15.08-.22a1.79,1.79,0,0,1,.51-.7.57.57,0,0,1,.18-.12.46.46,0,0,1,.13-.08,1.83,1.83,0,0,1,1.07-.12l.21,0,.09,0a.44.44,0,0,1,.16.06l.16.06h0l0,0a2.4,2.4,0,0,1,.23.11l.05,0,.1.06.51.34a4.35,4.35,0,0,1,.41.34c1.67,1.54,2.61,4.11,2.11,5.74a1.77,1.77,0,0,1-.79,1.05Z"/><path class="cls-84" d="M253.24,181.14h0l.28.14Z"/><path class="cls-84" d="M253.19,181.12l.05,0h0Z"/><path class="cls-84" d="M253.19,181.12a2.08,2.08,0,0,0-.32-.12A2.08,2.08,0,0,1,253.19,181.12Z"/><path class="cls-84" d="M264,188.24l-6.35,3.69a3.21,3.21,0,0,0,1.39-1.83l6.35-3.69A3.21,3.21,0,0,1,264,188.24Z"/><polygon class="cls-84" points="259.09 190.01 265.44 186.32 265.42 186.41 259.07 190.1 259.09 190.01"/><polygon class="cls-95" points="229.72 115.63 236.07 111.94 259.1 174.26 252.75 177.96 229.72 115.63"/><path class="cls-95" d="M249.56,178l6.36-3.7a3.63,3.63,0,0,1,3.18,0,6.21,6.21,0,0,1,.9.44,9.1,9.1,0,0,1,1.63,1.22,12.58,12.58,0,0,1,1.51,1.67l-6.35,3.7a12,12,0,0,0-1.51-1.67,8.77,8.77,0,0,0-1.64-1.23,6.56,6.56,0,0,0-.89-.43A3.61,3.61,0,0,0,249.56,178Z"/><path class="cls-84" d="M256.79,181.29l6.35-3.7c2.05,2.75,3.06,6.31,2.3,8.73L259.09,190C259.85,187.59,258.84,184,256.79,181.29Z"/><path class="cls-91" d="M219.53,98.11l13.65,17.22-3.46.3,23,62.33a3.44,3.44,0,0,0-3.56.28l-25-62.13-3.66.32Z"/><polygon class="cls-95" points="219.53 98.11 225.88 94.41 239.54 111.64 233.19 115.33 219.53 98.11"/><polygon class="cls-95" points="256.79 181.29 263.14 177.59 294.58 181.75 288.23 185.44 256.79 181.29"/><polygon class="cls-95" points="303.16 193.04 309.51 189.35 299.29 198.44 292.94 202.13 303.16 193.04"/><polygon class="cls-95" points="286.84 180.53 293.2 176.84 309.51 189.35 303.16 193.04 286.84 180.53"/><path class="cls-91" d="M286.84,180.53,303.16,193l-10.22,9.09-1.51-5.33-32.36-6.7c.78-2.51-.23-6.07-2.28-8.81l31.44,4.15Z"/></g><path class="cls-84" d="M237.57,149.67a2.74,2.74,0,0,0,.08-.37,23.88,23.88,0,0,0,.36-4.59c-.13-1.74-.09-3.36-.71-4.06s-.93.5-1,1.88a2.8,2.8,0,0,1-.69,1.89l-2.72-6.75a34.21,34.21,0,0,0-.89,4.05c-.1,1.21-.47,3.73,0,5.21a13.12,13.12,0,0,1,.54,3l-.77,2.09,4.83.93Z"/><path class="cls-84" d="M231.74,151.49a6.84,6.84,0,0,1,.43-1.11,4.82,4.82,0,0,1,3.05.23c1.71.56,2.17,1.67,2.17,2a16.2,16.2,0,0,1-.34,1.81Z"/><path class="cls-92" d="M225.57,162.73s4.64-10.63,5.65-11.19,5.6.24,6.16,2.81-6.39,24.39-7.66,26.18c-.93,1.31-13-3.6-13-3.6S224.88,164.06,225.57,162.73Z"/><path class="cls-84" d="M267.62,195.14s-.5-1.52-.72-2.21-.33-3.28.36-4.1,1.83,3.35,1.83,3.35h0l6.23,1.29a8.24,8.24,0,0,1-1.72,2.63c-.9.67-1.38,1-1.38,1l-.36,1.06-4.41-2Z"/><path class="cls-84" d="M266.57,196.88a6.9,6.9,0,0,1,.43-1.12,4.91,4.91,0,0,1,3.05.23c1.71.57,2.17,1.68,2.17,2a15.76,15.76,0,0,1-.34,1.81Z"/><path class="cls-96" d="M236.58,301.1s1,3.25,2.45,4.16,6,1.09,8.39-2.45,2.45-6.5,5-9.53,3.42-7.07,2.17-8.95-5.14-2.57-10.16,3.48A55.26,55.26,0,0,0,236.58,301.1Z"/><path class="cls-96" d="M216.25,319.87a45.52,45.52,0,0,0,8.9,1.45c3.42,0,5.58,3.42,3.69,5.51-2.05,2.27-5.21,3.16-11.68,3.84s-8.75,1.9-11.64,1.14,0-11,0-11Z"/><path class="cls-101" d="M212.1,228.05s-2.58,11.19,2.26,18.33l10.79,22.33s7.61,29.33,10.8,33c0,0,6.09.3,8.83-4.56s2-5.74,0-11.72c-5.33-15.9-4.87-23.58-5.48-27.69s-6.24-29.67-6.24-29.67Z"/><path class="cls-84" d="M219.06,231.55S218,241.7,222,249.77l-4.43,29.78s-11.87,19.86-13.08,43.74c0,0,3,2.81,8.82.61,3.65-1.37,4.22-2.4,6.54-7.91,5.33-12.63,12.78-25.26,16.74-32.1s9.28-55.23,9.28-55.23Z"/><polygon class="cls-84" points="212.46 220.31 215.46 223.84 220.4 219.53 215.78 215.3 212.46 220.31"/><path class="cls-92" d="M217.1,175.58s-6.18,1.35-6.07,13.12c.07,7,6.41,9.57,9.88,12.35s19.36,9,20.36,8.21,0-6.35-1.93-7.41-9.09-12.64-9.62-12.68-6.4-2.29-6.4-2.29Z"/><path class="cls-84" d="M216.75,236.4a16.87,16.87,0,0,0,12.07,4.3c7.51-.31-8-16.79-8-16.79Z"/><path class="cls-92" d="M249.18,200.05l-1,5.29-.28,1.47-.89,4.77a1,1,0,0,1,0,.18,68.8,68.8,0,0,0-1,8.33c-.07,1-.11,2.1-.12,3.16,0,1.4,0,2.82.09,4.24.23,4.45.46,9.22.4,9.73a10.84,10.84,0,0,1-2.21,5.37,10.43,10.43,0,0,1-7.15,3.75c-.29,0-.59.07-.91.09-8.43.59-15.33-4.6-15.33-4.6l.07-2.71.22-7.78.08-3.1-1,3.19-.84,2.61-1.13,3.51-.54,1.68a53.8,53.8,0,0,1-6.16-5.94,5.34,5.34,0,0,1-1-1.71c-.55-2.19,0-6.25,2.51-14.35,2.05-6.62,2.14-13.27,1.35-21.17-.17-1.79-.4-3.64-.65-5.57-1.23-9.2,1.1-13.71,3.43-14.9h0a3.85,3.85,0,0,1,.66-.25l.25,0c2.6-.34,8,2.12,8,2.12h0c.15,0,1.7.47,3.61,1.08l.85.29c2.6.88,5.53,2,6.4,3.05.5.59,1.53,1.62,2.72,2.78.57.55,1.18,1.14,1.79,1.71,2.28,2.18,4.53,4.25,4.53,4.25l.2.59Z"/><path class="cls-84" d="M248.13,163.07A101.11,101.11,0,0,1,246.5,175c-1,4.09-5.77,3.11-5.77,3.11L239.58,185s-7.82-.24-10.16-5.33l1-4.87s-5.45-7-2.85-13.56,8.49-7.86,12.7-7.38S248.58,157.24,248.13,163.07Z"/><path class="cls-96" d="M248.14,163.76s-.43,2.16-1.93,2.51-1.46.24-1.46.24l-.3,2.84-1.58.36s.1-2.48-1-2.81-1.84,3.13-1.15,4.16a1.56,1.56,0,0,0,1.53.85s-2.1,5.57-5.15,6.27-6.37-1.32-7.69-2.7c-.82-.87-1.12-1.79-2-4.18-.5-1.42-1.84-3.79-1.87-5.77-.08-5.31,2.16-5.59,2.16-5.59s-.7-3.12,3.07-6.27,9.71-3,12.88-.7,3.79.76,7.06,2.08c1.15.46,2.5,3.34,1.62,5.4C252,161.25,251,164.38,248.14,163.76Z"/><path class="cls-84" d="M241.49,186.35s-.33-3.71-.54-4.25-1.18-.91-5.69-2.19-5.6-3.46-6.41-3.84-2.8,1.33-2.8,1.33,1.45,4.65,7.5,6.57S241.49,186.35,241.49,186.35Z"/><path class="cls-92" d="M221.88,225.67h0a.23.23,0,0,1-.18-.26,183.37,183.37,0,0,0,3-25.73c.36-12.32,2.84-17.25,2.95-17.45a.23.23,0,0,1,.3-.1.23.23,0,0,1,.1.31c0,.05-2.55,5.06-2.9,17.26a183.15,183.15,0,0,1-3,25.79A.21.21,0,0,1,221.88,225.67Z"/><path class="cls-96" d="M248.68,205.63l-.38,4.84c-.06.78-.11,1.56-.14,2.33-.39-.34-.78-.68-1.17-1a68.8,68.8,0,0,0-1,8.33,24.38,24.38,0,0,1-5.92-10.87,34.68,34.68,0,0,1-1.14-7.66c0-.31,0-.58,0-.82,0,0,0,0,0,0,0-.75,0-1.18,0-1.18l9.24,5.79Z"/><path class="cls-92" d="M272.08,199.55c-.56-2.57-5.14-3.38-6.15-2.81-.81.44-3.91,7.27-5.14,10h0c-2.3-2.85-9.3-11.46-12.31-14.07a9.8,9.8,0,0,0-2.33-1.54c-3.23-1.55-6.78-.87-7.67,4.1a11.18,11.18,0,0,0,.45,5.46s0,0,0,0c.13.38.27.75.44,1.13a19.68,19.68,0,0,0,1.95,3.54,38.06,38.06,0,0,0,5.67,6.35c.39.36.78.7,1.17,1h0c5.84,5.06,8,8.19,11.9,9.22a5.24,5.24,0,0,0,6.38-3h0C267.73,217.23,272.65,202.12,272.08,199.55Z"/></g></g></svg>