<svg xmlns="http://www.w3.org/2000/svg" viewBox="0 0 592 500"><defs><style>.cls-1,.cls-2,.cls-8{fill:#fff;}.cls-2,.cls-9{stroke:#779ce8;stroke-width:0.75px;}.cls-2{stroke-miterlimit:10;}.cls-3{fill:#f5f5f5;}.cls-4{fill:#ebebeb;}.cls-5{fill:#e0e0e0;}.cls-6{opacity:0.24;}.cls-7{fill:#1760fc;}.cls-8{opacity:0.5;}.cls-11,.cls-16,.cls-8{isolation:isolate;}.cls-9{fill:#f97d8c;stroke-linejoin:round;}.cls-10{fill:#455a64;}.cls-11,.cls-12{opacity:0.2;}.cls-13{fill:#263238;}.cls-14{fill:#ffbe9d;}.cls-15{fill:#779ce8;}.cls-16{opacity:0.3;}.cls-17{fill:#d7e4f9;}</style></defs><g id="Layer_1" data-name="Layer 1"><rect class="cls-1" x="-47.71" y="-19.94" width="672.51" height="557.68"/></g><g id="Layer_3" data-name="Layer 3"><g id="Floor"><path class="cls-2" d="M517.78,451.7c0,.14-102.73.26-229.42.26s-229.45-.12-229.45-.26,102.71-.26,229.45-.26S517.78,451.56,517.78,451.7Z"/></g><g id="Background_Complete" data-name="Background Complete"><polygon class="cls-3" points="453.53 388.55 453.53 411.62 487.28 411.62 524.51 411.62 524.51 388.55 453.53 388.55"/><polygon class="cls-4" points="450.56 382.09 450.56 388.55 526.99 388.55 526.99 382.09 487.28 382.09 450.56 382.09"/><polygon class="cls-5" points="488.77 411.62 524.51 411.62 524.51 388.55 526.99 388.55 526.99 382.09 487.28 382.09 487.28 387.95 488.77 411.62"/><rect class="cls-5" x="463.46" y="392.27" width="14.39" height="3.47"/><rect class="cls-5" x="461.61" y="400.09" width="18.48" height="7.34"/><path class="cls-4" d="M540.09,467.16,538.4,107.94h-7v70.75h-18l-.34-70.75h-6.95v70.75h-61.8l-.34-70.75H437.1v70.75H419.19l-.34-70.75h-7V467.16h8.65L420.32,419H437.1v48.21h8.65L445.52,419h60.67v48.21h8.65L514.61,419h16.83v48.21ZM428.25,371.35,422,344.72H434.8Zm8.85-25v62.9L429.57,377Zm0-91.42-7.53-32.26L437.1,192Zm-1.35,5.78H420.22l8-32.41ZM428.25,217l-7.11-30.49h14.61Zm-1.38,5.63-7.34,29.86L419.24,190ZM420,347.46,426.87,377l-6.62,26.95Zm8.21,35.16,6.64,28.48H421.19Zm-8-45.74-.06-.25-.22.05-.32-68.12H437.1v68.32Zm24.6-68.32h61.38v68.31H445.13Zm77.24-40.26,7.56,32.41H514.08Zm-8.23,22.48-.28-58.93,7.19,30.81ZM531.44,257l-8-34.34,8-32.61Zm0,3.58v.12H531Zm0,87.63v59.07L524.37,377Zm-8.38,23.13-6.22-26.63H529.6ZM522.11,217,515,186.53H529.6Zm9.33,51.53v68.31H515l-.06-.24-.73.17-.32-68.24ZM521.67,377l-7.12,29-.29-60.75Zm1.32,5.64,6.65,28.48H516Zm-16.8-196.08v74.17H444.77l-.35-74.17ZM446.59,411.1h-1.11l-.31-66.38h61V411.1Z"/><polygon class="cls-5" points="446.58 261.06 446.58 252.96 503.85 252.96 504.03 261.06 446.58 261.06"/><path class="cls-1" d="M503.87,254.28s-50.78.37-54.07,1.15c-.71.16-1.43,3.28,0,3.57s54.07.71,54.07.71Z"/><polygon class="cls-4" points="453.24 252.64 453.24 244.53 498.6 244.53 498.74 252.64 453.24 252.64"/><path class="cls-1" d="M498.62,245.85s-40.23.38-42.84,1.15c-.56.17-1.13,3.28,0,3.57s42.84.72,42.84.72Z"/><polygon class="cls-5" points="453.04 244.63 453.04 236.52 498.39 236.52 498.54 244.63 453.04 244.63"/><path class="cls-1" d="M498.42,237.84s-40.23.38-42.84,1.15c-.56.17-1.13,3.29,0,3.57s42.84.72,42.84.72Z"/><rect class="cls-5" x="494.7" y="125.01" width="11.49" height="53.54"/><path class="cls-1" d="M503,165.71a2.28,2.28,0,1,1-2.27-2.28A2.27,2.27,0,0,1,503,165.71Z"/><rect class="cls-1" x="498.82" y="139.19" width="3.52" height="21.88"/><rect class="cls-4" x="483.03" y="125.01" width="11.49" height="53.54"/><circle class="cls-1" cx="489" cy="165.71" r="2.28"/><rect class="cls-1" x="487.15" y="139.19" width="3.52" height="21.88"/><rect class="cls-3" x="471.92" y="125.01" width="11.49" height="53.54"/><path class="cls-1" d="M480.17,165.71a2.28,2.28,0,1,1-2.28-2.28A2.28,2.28,0,0,1,480.17,165.71Z"/><rect class="cls-1" x="476.04" y="139.19" width="3.52" height="21.88"/><rect class="cls-5" x="494.7" y="283.47" width="11.49" height="53.54"/><path class="cls-1" d="M503,324.17a2.28,2.28,0,1,1-2.27-2.28A2.28,2.28,0,0,1,503,324.17Z"/><rect class="cls-1" x="498.82" y="297.66" width="3.52" height="21.88"/><rect class="cls-4" x="483.03" y="283.47" width="11.49" height="53.54"/><path class="cls-1" d="M491.28,324.17a2.28,2.28,0,1,1-2.28-2.28A2.28,2.28,0,0,1,491.28,324.17Z"/><rect class="cls-1" x="487.15" y="297.66" width="3.52" height="21.88"/><rect class="cls-3" x="471.92" y="283.47" width="11.49" height="53.54"/><path class="cls-1" d="M480.17,324.17a2.28,2.28,0,1,1-2.28-2.28A2.28,2.28,0,0,1,480.17,324.17Z"/><rect class="cls-1" x="476.04" y="297.66" width="3.52" height="21.88"/><polygon class="cls-5" points="457.71 177.74 471.51 130.63 466.75 128.54 452.6 176.03 457.71 177.74"/><polygon class="cls-4" points="132.32 180.47 77.22 180.47 77.22 252.32 132.32 253.71 132.32 180.47"/><polygon class="cls-1" points="128.69 183.03 80.47 183.03 80.47 248.19 128.69 249.82 128.69 183.03"/><polygon class="cls-4" points="120.25 194.87 88.25 193.65 88.25 239.2 120.25 239.2 120.25 194.87"/><polygon class="cls-3" points="88.25 239.2 120.25 215.8 88.25 193.65 88.25 239.2"/><path class="cls-3" d="M178.6,456.61c-1.32-1.12-4.25-4.68-2-8.83.83-1.51,2.6-2.27,4.19-2.94a17,17,0,0,0,4.6-2.37c2.49-2.11,3.18-5.61,4.83-8.43,1.9-3.23,5.45-5.65,9.19-5.48,4.29.19,7.87,3.68,9.49,7.65s1.68,8.39,1.71,12.69c0,2.37-.09,5-1.84,6.65s-4,1.49-6.23,1.43l-23.44-.72"/><path class="cls-4" d="M219.65,401h-56l10.09,59.92a6.7,6.7,0,0,0,4.78,5.33l.2.05a4.6,4.6,0,0,0,.5.13,6.12,6.12,0,0,0,1.14.13.13.13,0,0,0,0,.06l.27,0h25a6.84,6.84,0,0,0,1.37-.14,6.73,6.73,0,0,0,5.67-5.86l4.86-41.28.22-1.64h0l1.92-16.35Zm-10.57,38.22h-5.75l.58-17.39h6.66Zm2-17.39h5.51l-2,17.39h-5ZM194.7,458.45l-.35-15.1h8.28l-.5,15.1Zm-8.95-15.1h8.05l.34,15.1h-7.21Zm.62,15.1h-6.74c-.65-4.07-1.48-9.37-2.38-15.1h7.94Zm-1-19.27-1.35-17.39h9.23l.4,17.39Zm8.84,0-.41-17.39h9.5l-.58,17.39Zm-.5-21.56-.38-16.1H204l-.54,16.1Zm-.56,0h-9.46l-1.26-16.1h10.35Zm-10,0h-10c-.36-2.22-.69-4.33-1-6.22-1-6.51-1.44-9-1.65-9.88h11.4Zm.33,4.17,1.36,17.39h-8.28c-.28-1.76-.56-3.55-.84-5.33l-1.91-12.06ZM176,439.18h-5.41l-2.93-17.39h5.58C174.13,427.17,175.07,433.15,176,439.18Zm.65,4.17c.83,5.23,1.64,10.38,2.38,15.1h-5.19l-2.55-15.1Zm26,15.1.5-15.1h5.53l-1.29,15.1Zm1.36-40.83.54-16.1h7.72l-1.38,16.1ZM170,401.52c.22,1.17,1.24,7.5,2.61,16.1H167l-2.72-16.1Zm42.32,56.93H208l1.3-15.1h4.82Zm4.81-40.83h-5.64l1.38-16.1H219Z"/><path class="cls-3" d="M55.42,370.1c1,.17,2.1.42,3.35.54s2.61.34,4.09.4,3,.11,4.71.13a66.73,66.73,0,0,0,10.73-1.09,66.12,66.12,0,0,0,10.36-3c1.54-.63,3-1.2,4.33-1.88s2.55-1.27,3.64-1.89,2.06-1.22,2.91-1.74,1.57-1,2.14-1.42l1.07-.74H51.91v9.92l1,.23C53.6,369.75,54.43,370,55.42,370.1Z"/><path class="cls-3" d="M85.8,462.73A37.2,37.2,0,0,0,75,464.14a28,28,0,0,0-6.18,2.64H110.4c-3.54-.71-7.3-1.59-11.25-2.4A71.49,71.49,0,0,0,85.8,462.73Z"/><path class="cls-3" d="M137,455.94c-4.72-.74-10.42-.18-16.73.41a74.07,74.07,0,0,1-10,.27c-3.46-.14-7-.52-10.66-1-7.25-.91-14.17-1.83-20.48-1.56a44.93,44.93,0,0,0-16.24,3.63,46.19,46.19,0,0,0-9.73,5.69l-1.28,1v2.37H68.25a25.92,25.92,0,0,1,6.57-3.12,36.78,36.78,0,0,1,11-1.57,69,69,0,0,1,13.49,1.6c4.71,1,9.15,2.07,13.22,2.85l1.37.24H147v-7.16A23.6,23.6,0,0,0,137,455.94Z"/><path class="cls-3" d="M62.73,457.26a44.59,44.59,0,0,1,16.4-3.81c6.39-.32,13.35.6,20.6,1.5,3.63.45,7.17.83,10.6,1a73.13,73.13,0,0,0,9.89-.23c6.29-.55,12.06-1.06,16.86-.25a23.44,23.44,0,0,1,9.91,3.81V446.7a30.71,30.71,0,0,0-8.46-1.19c-9.46-.31-22,4.83-36.63,4.48a88,88,0,0,1-20.24-2.46c-6.12-1.46-11.37-3.57-15.93-4.76a36,36,0,0,0-11-1.53c-1.21.06-2.15.17-2.83.27v22.62c.33-.29.7-.59,1.11-.93A43.76,43.76,0,0,1,62.73,457.26Z"/><path class="cls-3" d="M55.57,399.51c2.53.22,6,1.47,10.09,3.31a56.88,56.88,0,0,0,6.8,2.62,43.1,43.1,0,0,0,8.2,1.52,71.77,71.77,0,0,0,19.09-1.18c6.71-1.19,13-2.87,18.81-4.12a112.5,112.5,0,0,1,15.56-2.47,55,55,0,0,1,10.63.18c.91.1,1.65.22,2.25.33V383l-1-.79a63.79,63.79,0,0,0-6.54-4.73,22.55,22.55,0,0,0-11.13-3.7c-4.49-.15-9.25,1.6-13.9,3.87a113.72,113.72,0,0,0-12.77,7.22c-1.85,1.25-3.82,2.36-4.59,4.11a2.27,2.27,0,0,0,.33,2.44,6.1,6.1,0,0,0,2.11,1.44,21.22,21.22,0,0,0,7.71,2.07c1.9.13,3,0,3,.08a3.16,3.16,0,0,1-.77.12,16.84,16.84,0,0,1-2.21.07,20.48,20.48,0,0,1-7.91-1.89A6.59,6.59,0,0,1,97,391.72a2.83,2.83,0,0,1-.46-3c.9-2,3-3.15,4.78-4.43A104.8,104.8,0,0,1,114.14,377c4.68-2.29,9.56-4.08,14.22-3.89A22.76,22.76,0,0,1,139.73,377a53.41,53.41,0,0,1,6.45,4.95c.31.26.57.5.82.72V368.8a39.05,39.05,0,0,0-22.26-4.73,35.67,35.67,0,0,0-9.86,2.3,69.52,69.52,0,0,0-9.75,5,62.86,62.86,0,0,1-9.89,4.93,37.07,37.07,0,0,1-10.12,2c-6.57.38-12.45-.28-17.38-.36a52.14,52.14,0,0,0-11.6.79c-.68.14-1.28.25-1.79.38l-1.29.38a8.69,8.69,0,0,1-1.08.27,5.19,5.19,0,0,1,1-.41l1.27-.44c.51-.15,1.12-.28,1.79-.45a49.39,49.39,0,0,1,11.67-1c5,0,10.84.62,17.33.21a36.93,36.93,0,0,0,9.92-2,63.83,63.83,0,0,0,9.78-4.9,70.19,70.19,0,0,1,9.85-5,36.37,36.37,0,0,1,10.05-2.3,39.84,39.84,0,0,1,17.17,2.47,38.07,38.07,0,0,1,5.14,2.43v-8.9H103c-.29.24-.67.55-1.18.95a24.19,24.19,0,0,1-2.08,1.53c-.84.56-1.77,1.24-2.88,1.85a40.32,40.32,0,0,1-3.64,2c-1.32.71-2.8,1.3-4.34,2a62.76,62.76,0,0,1-10.47,3.06,62.71,62.71,0,0,1-10.85,1.06c-1.68,0-3.28,0-4.76-.2s-2.87-.29-4.12-.49-2.37-.44-3.36-.65a22.91,22.91,0,0,1-2.5-.64l-.93-.28v21.32c.74-.25,1.72-.54,2.92-.83a46.23,46.23,0,0,1,22.74.26,31.57,31.57,0,0,1,3.31,1.06,4.55,4.55,0,0,1,1.17.53c0,.11-1.76-.47-4.6-1.11a53.43,53.43,0,0,0-22.52-.26c-1.24.25-2.25.49-3,.68v8.36A12,12,0,0,1,55.57,399.51ZM114,386.44a2,2,0,0,1,.57-.74,4.13,4.13,0,0,1,1.54-.83,33.27,33.27,0,0,1,12.18-1.33,33.72,33.72,0,0,1,9.75,2.21,30.89,30.89,0,0,1,6,3.1c.67.42,1.14.83,1.48,1.08a2.86,2.86,0,0,1,.48.42,46.24,46.24,0,0,0-8.12-4.14,34.55,34.55,0,0,0-9.63-2,33.66,33.66,0,0,0-11.92,1.36,3.89,3.89,0,0,0-1.29.68c-.36.31-.55.68-.41,1,.25.71,1.51.77,2.46,1l5.76,1.17,9.75,2,6.56,1.42,1.77.43a2.12,2.12,0,0,1,.61.19,1.78,1.78,0,0,1-.63-.05l-1.81-.3-6.6-1.21L122.69,390l-5.77-1.14c-.5-.11-1-.18-1.53-.32a2,2,0,0,1-1.45-1.11A1.41,1.41,0,0,1,114,386.44Zm-42.12,8.22a46.19,46.19,0,0,0,5.67,2.61,42,42,0,0,0,20.2,2.35c8-.94,14.4-5,19.65-6.15a19.93,19.93,0,0,1,6.27-.63,13,13,0,0,1,1.7.25,2.4,2.4,0,0,1,.58.18c0,.07-.82-.12-2.29-.15a21,21,0,0,0-6.14.83,72.27,72.27,0,0,0-8.66,3.26,41.37,41.37,0,0,1-11,3.1,40.79,40.79,0,0,1-20.47-2.58,36.71,36.71,0,0,1-5.62-2.84,13.39,13.39,0,0,1-1.88-1.34A14.72,14.72,0,0,1,71.86,394.66Z"/><path class="cls-3" d="M65.86,442.29c4.61,1.14,9.88,3.2,16,4.61a89.23,89.23,0,0,0,20.09,2.38c14.47.37,27-4.69,36.64-4.26a30,30,0,0,1,8.46,1.32V432.88l-2.84.34c-4,.41-9.61,1.2-15.84,1.33a46.86,46.86,0,0,1-8.77-.62,31.7,31.7,0,0,1-6.91-2,23.12,23.12,0,0,1-4.25-2.32,9.78,9.78,0,0,1-1-.8c-.24-.19-.35-.3-.33-.32a40.92,40.92,0,0,0,5.81,3,34.11,34.11,0,0,0,6.82,1.82,49.38,49.38,0,0,0,8.66.56c6.16-.13,11.75-.84,15.8-1.12l2.88-.21V399.88c-.59-.08-1.35-.17-2.26-.24a59.74,59.74,0,0,0-10.57,0,120.6,120.6,0,0,0-15.47,2.61c-5.77,1.28-12.07,3-18.82,4.18a70.83,70.83,0,0,1-19.27,1.14A44.19,44.19,0,0,1,72.29,406a54.88,54.88,0,0,1-6.83-2.72c-4.06-1.9-7.45-3.2-9.93-3.5a15.7,15.7,0,0,0-3.62-.14v23.1a7.76,7.76,0,0,1,.56-.61c1.84-1.86,5.28-3.57,9.72-4.72s9.92-1.63,15.88-2.4a122.19,122.19,0,0,0,19-4.55,139.31,139.31,0,0,1,19.1-4.76,81.67,81.67,0,0,1,16-.86A77.13,77.13,0,0,1,143,406.1c1.25.24,2.22.45,2.88.62a6.42,6.42,0,0,1,1,.28,4.51,4.51,0,0,1-1-.14c-.66-.13-1.64-.29-2.9-.49a87.82,87.82,0,0,0-10.74-1,83.82,83.82,0,0,0-15.93,1,145.65,145.65,0,0,0-19,4.79,118.56,118.56,0,0,1-19.15,4.52c-6,.74-11.43,1.12-15.85,2.24s-7.81,2.69-9.64,4.43a9.17,9.17,0,0,0-.76.8v9.7l.35.18,2.51,1.34a101.72,101.72,0,0,0,9.54,4.27A93.17,93.17,0,0,0,98,444.79c13.53.16,25.26-4,34.12-4.84a39.41,39.41,0,0,1,10.49.09l1.62.29,1.18.31a6.74,6.74,0,0,1,1,.29,4.77,4.77,0,0,1-1-.15l-1.18-.24-1.62-.23a41.56,41.56,0,0,0-10.4.14c-4.38.51-9.5,1.7-15.23,2.92a90,90,0,0,1-52.81-4.3,85.27,85.27,0,0,1-9.49-4.49l-2.45-1.45-.28-.18v8.41a21.79,21.79,0,0,1,2.81-.39A34.43,34.43,0,0,1,65.86,442.29Zm26.91-21.78A74.69,74.69,0,0,0,82.15,427a2.41,2.41,0,0,0-1.17,1.9,1.85,1.85,0,0,0,1.22,1.49,6.2,6.2,0,0,0,3.47.23,5.94,5.94,0,0,1,2.32.09,2,2,0,0,1,.72.37s-.26-.12-.76-.23a6.06,6.06,0,0,0-2.24,0A6.39,6.39,0,0,1,82,430.7a2.27,2.27,0,0,1-1.5-1.82,2.82,2.82,0,0,1,1.3-2.31,71.47,71.47,0,0,1,10.64-6.64,74.06,74.06,0,0,1,14.37-5.38,72.62,72.62,0,0,1,27.7-1.73c1.77.26,3.37.48,4.75.81s2.58.54,3.54.84l2.2.66a3.19,3.19,0,0,1,.75.27,3.27,3.27,0,0,1-.79-.14l-2.23-.52c-1-.27-2.16-.46-3.54-.72s-3-.48-4.74-.71a75.34,75.34,0,0,0-41.72,7.2Zm10.29,9.06a6.68,6.68,0,0,1-1.65-.08A3,3,0,0,1,99.22,428a2,2,0,0,1-.17-1.73,3.9,3.9,0,0,1,1.23-1.44,27.64,27.64,0,0,1,7.62-4.66,34.65,34.65,0,0,1,10.65-2.45,48.44,48.44,0,0,1,19.5,3.07c2.39.85,4.27,1.67,5.56,2.26.64.3,1.13.54,1.46.72s.5.27.49.29a14.54,14.54,0,0,1-2.06-.76c-1.31-.51-3.21-1.26-5.61-2a50.82,50.82,0,0,0-19.29-2.83,35,35,0,0,0-10.46,2.35,28.74,28.74,0,0,0-7.54,4.43,3.61,3.61,0,0,0-1.13,1.24,1.6,1.6,0,0,0,.09,1.37,2.81,2.81,0,0,0,1.91,1.38c1.35.27,2.17.18,2.16.26A2.06,2.06,0,0,1,103.06,429.57Z"/><path class="cls-4" d="M55.53,399.78c2.49.3,5.88,1.6,9.93,3.5A58.16,58.16,0,0,0,72.29,406a44.19,44.19,0,0,0,8.31,1.61,70.83,70.83,0,0,0,19.27-1.14c6.75-1.2,13-2.9,18.82-4.18a118.88,118.88,0,0,1,15.47-2.61,59.74,59.74,0,0,1,10.57,0c.91.07,1.67.16,2.26.24v-.18c-.59-.11-1.33-.24-2.24-.34a55.1,55.1,0,0,0-10.63-.17,112.5,112.5,0,0,0-15.56,2.47c-5.8,1.25-12.1,2.93-18.81,4.12A71.77,71.77,0,0,1,80.66,407a44.73,44.73,0,0,1-8.2-1.52,58.63,58.63,0,0,1-6.8-2.62c-4.08-1.84-7.56-3.09-10.09-3.32a12.19,12.19,0,0,0-3.66.07v.07A15.7,15.7,0,0,1,55.53,399.78Z"/><path class="cls-4" d="M55.34,370.48c1,.21,2.1.5,3.36.65s2.63.4,4.12.49,3.08.16,4.76.2a62.71,62.71,0,0,0,10.85-1.06A62.76,62.76,0,0,0,88.9,367.7c1.55-.66,3-1.25,4.34-2a40.32,40.32,0,0,0,3.64-2c1.11-.61,2-1.29,2.88-1.85a24.19,24.19,0,0,0,2.08-1.53c.51-.4.9-.71,1.18-.95h-.27l-1.07.73a25.59,25.59,0,0,1-2.14,1.42c-.85.53-1.79,1.17-2.91,1.75s-2.29,1.28-3.64,1.89-2.79,1.24-4.33,1.88a67.22,67.22,0,0,1-10.36,3,66.73,66.73,0,0,1-10.73,1.09c-1.66,0-3.24,0-4.71-.13s-2.84-.24-4.09-.4-2.36-.37-3.35-.54-1.82-.35-2.51-.52l-1-.23v.21l.93.28A20.82,20.82,0,0,0,55.34,370.48Z"/><path class="cls-4" d="M124.68,363.44a36,36,0,0,0-10.05,2.29,69.21,69.21,0,0,0-9.85,5A64.67,64.67,0,0,1,95,375.63a36.54,36.54,0,0,1-9.92,2c-6.49.41-12.38-.19-17.33-.21a49.39,49.39,0,0,0-11.67,1c-.67.17-1.28.3-1.79.45L53,379.3a7.38,7.38,0,0,0-1,.41,6.85,6.85,0,0,0,1.08-.27l1.29-.38c.51-.13,1.11-.23,1.79-.38a52.09,52.09,0,0,1,11.6-.79c4.93.08,10.81.74,17.38.36a37.43,37.43,0,0,0,10.12-2,63.81,63.81,0,0,0,9.89-4.94,70.62,70.62,0,0,1,9.75-5,35.29,35.29,0,0,1,9.86-2.29,39.88,39.88,0,0,1,16.94,2.28A40.36,40.36,0,0,1,147,368.8v-.47a38.82,38.82,0,0,0-5.15-2.43A39.7,39.7,0,0,0,124.68,363.44Z"/><path class="cls-4" d="M139.73,377a22.67,22.67,0,0,0-11.38-3.93c-4.65-.19-9.53,1.6-14.21,3.89a106.13,106.13,0,0,0-12.82,7.32c-1.83,1.27-3.88,2.38-4.78,4.42a2.83,2.83,0,0,0,.46,3,6.62,6.62,0,0,0,2.31,1.55,20.44,20.44,0,0,0,7.91,1.88,19.3,19.3,0,0,0,2.21-.06,2.67,2.67,0,0,0,.76-.13c0-.06-1.06.05-3-.08a21.38,21.38,0,0,1-7.71-2.06,6.27,6.27,0,0,1-2.11-1.45,2.27,2.27,0,0,1-.34-2.44c.78-1.75,2.75-2.85,4.6-4.1a111.32,111.32,0,0,1,12.77-7.23c4.65-2.27,9.41-4,13.9-3.87a22.65,22.65,0,0,1,11.13,3.7,63.79,63.79,0,0,1,6.54,4.73l1,.79v-.27l-.81-.73A53.52,53.52,0,0,0,139.73,377Z"/><path class="cls-4" d="M115.39,388.58c.54.14,1,.21,1.53.32l5.77,1.14,9.78,1.88,6.6,1.21,1.81.3a1.78,1.78,0,0,0,.63.05,2.12,2.12,0,0,0-.61-.19l-1.77-.43-6.56-1.42-9.75-2-5.76-1.17c-1-.23-2.21-.29-2.46-1-.14-.33.05-.7.41-1a3.79,3.79,0,0,1,1.29-.68,33.66,33.66,0,0,1,11.92-1.36,34.55,34.55,0,0,1,9.63,2,46.24,46.24,0,0,1,8.12,4.14,2.86,2.86,0,0,0-.48-.42c-.34-.25-.81-.66-1.48-1.08a30.89,30.89,0,0,0-6-3.1,33.72,33.72,0,0,0-9.75-2.21,33.27,33.27,0,0,0-12.18,1.33,4.13,4.13,0,0,0-1.54.83,2,2,0,0,0-.57.74,1.41,1.41,0,0,0,0,1A2,2,0,0,0,115.39,388.58Z"/><path class="cls-4" d="M66.21,389.46a55.67,55.67,0,0,1,11.25,1.33c2.83.64,4.55,1.22,4.59,1.11a4.55,4.55,0,0,0-1.17-.53,31.57,31.57,0,0,0-3.31-1.06,46.23,46.23,0,0,0-22.74-.26c-1.2.29-2.18.58-2.92.83v.33c.77-.19,1.78-.43,3-.68A55.42,55.42,0,0,1,66.21,389.46Z"/><path class="cls-4" d="M62.31,417.89c4.42-1.12,9.84-1.5,15.85-2.24a118.56,118.56,0,0,0,19.15-4.52,144.06,144.06,0,0,1,19-4.79,83.82,83.82,0,0,1,15.93-1,87.82,87.82,0,0,1,10.74,1c1.26.2,2.24.36,2.9.49a4.53,4.53,0,0,0,1,.14,5.61,5.61,0,0,0-1-.28c-.66-.17-1.63-.38-2.88-.62a77.33,77.33,0,0,0-10.77-1.26,81.67,81.67,0,0,0-16,.86,139.31,139.31,0,0,0-19.1,4.76,122.19,122.19,0,0,1-19,4.55c-6,.77-11.43,1.2-15.88,2.4s-7.88,2.86-9.72,4.71c-.21.21-.39.42-.56.62v.38a10.71,10.71,0,0,1,.75-.8C54.5,420.58,57.91,419,62.31,417.89Z"/><path class="cls-4" d="M71.73,394.9a37.77,37.77,0,0,0,5.62,2.83,40.79,40.79,0,0,0,20.47,2.58,41.37,41.37,0,0,0,11-3.1A72.27,72.27,0,0,1,117.5,394a21.07,21.07,0,0,1,6.14-.83c1.47,0,2.28.21,2.29.15a2.4,2.4,0,0,0-.57-.18,13.62,13.62,0,0,0-1.7-.25,20,20,0,0,0-6.28.63c-5.25,1.14-11.63,5.21-19.65,6.15a42,42,0,0,1-20.2-2.35,45.23,45.23,0,0,1-5.66-2.61,15.1,15.1,0,0,0-2-1.11A13.84,13.84,0,0,0,71.73,394.9Z"/><path class="cls-4" d="M134.49,413.31c1.76.23,3.36.41,4.74.71s2.58.46,3.54.72l2.23.53a2.89,2.89,0,0,0,.79.13,3.9,3.9,0,0,0-.75-.27l-2.2-.65c-1-.31-2.15-.54-3.54-.84s-3-.56-4.75-.82a72.62,72.62,0,0,0-27.7,1.73,74.06,74.06,0,0,0-14.37,5.38,71.47,71.47,0,0,0-10.64,6.64,2.82,2.82,0,0,0-1.3,2.31A2.24,2.24,0,0,0,82,430.7a6.39,6.39,0,0,0,3.67.14,6.53,6.53,0,0,1,2.24,0c.5.11.74.26.76.23a2,2,0,0,0-.72-.37,6.14,6.14,0,0,0-2.32-.09,6.28,6.28,0,0,1-3.47-.22,1.88,1.88,0,0,1-1.22-1.5A2.39,2.39,0,0,1,82.15,427a74.65,74.65,0,0,1,52.34-13.65Z"/><path class="cls-4" d="M99.56,427.85a1.6,1.6,0,0,1-.1-1.37,3.64,3.64,0,0,1,1.14-1.23,28.32,28.32,0,0,1,7.54-4.44,35.34,35.34,0,0,1,10.46-2.35,50.64,50.64,0,0,1,19.29,2.84c2.39.78,4.29,1.53,5.61,2a14,14,0,0,0,2.06.76,1.89,1.89,0,0,0-.49-.29c-.33-.17-.82-.42-1.46-.72-1.29-.59-3.17-1.41-5.56-2.26a48.61,48.61,0,0,0-19.5-3.07,34.94,34.94,0,0,0-10.65,2.45,27.64,27.64,0,0,0-7.62,4.66,3.81,3.81,0,0,0-1.23,1.44,2,2,0,0,0,.16,1.73,3.09,3.09,0,0,0,2.2,1.46,7,7,0,0,0,1.64.07c.38,0,.57-.05.57-.08s-.8,0-2.16-.26A2.81,2.81,0,0,1,99.56,427.85Z"/><path class="cls-4" d="M54.64,434.58a84.67,84.67,0,0,0,9.49,4.48,90.15,90.15,0,0,0,52.81,4.31c5.73-1.22,10.85-2.41,15.23-2.93a41.47,41.47,0,0,1,10.4-.13l1.62.22,1.18.24a5.54,5.54,0,0,0,1,.16,6.23,6.23,0,0,0-.95-.3l-1.17-.3-1.62-.29a39.06,39.06,0,0,0-10.5-.09c-8.85.81-20.59,5-34.11,4.83a92.66,92.66,0,0,1-33.69-6.18,99.55,99.55,0,0,1-9.54-4.26L52.26,433l-.35-.18V433l.28.17Z"/><path class="cls-4" d="M128.31,433.85a48.43,48.43,0,0,1-8.66-.56,32.82,32.82,0,0,1-6.82-1.82,40.92,40.92,0,0,1-5.81-3s.09.13.33.32a9.78,9.78,0,0,0,1,.8,23.12,23.12,0,0,0,4.25,2.32,31.7,31.7,0,0,0,6.91,2,46,46,0,0,0,8.77.62c6.23-.13,11.8-.92,15.84-1.32l2.84-.35v-.36l-2.88.21C140.06,433,134.48,433.72,128.31,433.85Z"/><path class="cls-4" d="M65.73,442.77c4.56,1.19,9.81,3.3,15.93,4.76A88,88,0,0,0,101.9,450c14.61.35,27.17-4.79,36.63-4.48A30.85,30.85,0,0,1,147,446.7v-.36a30,30,0,0,0-8.46-1.32c-9.64-.43-22.17,4.63-36.64,4.26a89.23,89.23,0,0,1-20.09-2.38c-6.07-1.41-11.34-3.47-16-4.61A34.43,34.43,0,0,0,54.72,441a22.09,22.09,0,0,0-2.81.38v.16a26.42,26.42,0,0,1,2.83-.27A36,36,0,0,1,65.73,442.77Z"/><path class="cls-4" d="M62.92,457.72a44.93,44.93,0,0,1,16.24-3.63c6.31-.27,13.23.65,20.48,1.56,3.64.44,7.2.83,10.66,1a72.41,72.41,0,0,0,10-.28c6.31-.58,12-1.14,16.73-.4a23.46,23.46,0,0,1,10,3.68v-.36a23.44,23.44,0,0,0-9.91-3.81c-4.8-.81-10.57-.3-16.86.25a73.13,73.13,0,0,1-9.89.23c-3.43-.15-7-.53-10.6-1-7.24-.9-14.21-1.82-20.6-1.5A44.3,44.3,0,0,0,53,463.19c-.41.34-.78.65-1.11.94v.28l1.28-1A46.19,46.19,0,0,1,62.92,457.72Z"/><path class="cls-4" d="M99.29,463.69a69,69,0,0,0-13.49-1.6,36.83,36.83,0,0,0-11,1.57,25.92,25.92,0,0,0-6.57,3.12h.54A28,28,0,0,1,75,464.14a37.2,37.2,0,0,1,10.83-1.41,71.49,71.49,0,0,1,13.35,1.65c3.95.81,7.7,1.69,11.25,2.4h3.48l-1.37-.24C108.44,465.76,104,464.66,99.29,463.69Z"/><rect class="cls-5" x="51.91" y="393.77" width="68.81" height="1.35"/><rect class="cls-5" x="51.91" y="429.19" width="68.82" height="1.34"/><rect class="cls-5" x="79.61" y="394.44" width="14.53" height="3.08"/><rect class="cls-5" x="79.61" y="359.43" width="14.53" height="3.08"/><rect class="cls-5" x="79.61" y="429.68" width="14.53" height="3.08"/><rect class="cls-4" x="120.72" y="359.43" width="26.27" height="107.41"/><rect class="cls-4" x="51.91" y="315.21" width="9.28" height="44.22"/><rect class="cls-4" x="65.91" y="319.71" width="6.47" height="39.72"/><rect class="cls-5" x="61.19" y="319.71" width="4.71" height="39.72"/><rect class="cls-3" x="72.38" y="324.27" width="4.78" height="35.16"/><rect class="cls-4" x="77.16" y="312.23" width="10.13" height="47.2"/><path class="cls-4" d="M94.43,338.58l-1,4,1,1.43v2.39l-1,2.23,1,.79V355l-1,.63,1,.8v3h51.09v-3.66l-1-1.75,1-8-.8-3.82a9.37,9.37,0,0,1-.79-2.07c0-.47.16-1.59.16-1.59Z"/><g class="cls-6"><polygon class="cls-5" points="120.72 359.43 119.5 353.66 120.72 351.29 120.72 349.01 119.5 347.81 120.72 345.98 120.72 338.58 144.09 338.58 143.93 340.17 144.72 342.24 145.52 346.06 144.56 354.02 145.52 355.77 145.52 359.43 120.72 359.43"/></g></g><g id="Graphics"><rect class="cls-1" x="159.74" y="142.82" width="37.86" height="47.8" transform="translate(-0.68 0.73) rotate(-0.23)"/><path class="cls-2" d="M159.83,190.7l.72,0,2,0,7.69-.09,27.42-.24-.24.24c-.07-13.65-.15-30.09-.24-47.79-.07-.07.54.54.28.29h-5.08l-5,0-9.74,0-18,0,.25-.26c0,14.15,0,26.06,0,34.47,0,4.18,0,7.5,0,9.8,0,1.12,0,2,0,2.61,0,.28,0,.5,0,.68a1,1,0,0,1,0,.24s0-.07,0-.21,0-.38,0-.65c0-.61,0-1.47,0-2.56,0-2.29-.07-5.58-.11-9.75-.07-8.45-.16-20.41-.27-34.63v-.26h.26l18-.1,9.73,0,5,0h5.08l.29.29c.06,17.69.11,34.13.15,47.79v.24H170.12l-7.64,0-2,0Z"/><rect class="cls-2" x="176.37" y="189.55" width="5.25" height="1.27" transform="translate(-0.72 0.68) rotate(-0.22)"/><rect class="cls-7" x="173.17" y="159.54" width="11.48" height="16.59" transform="translate(-0.69 0.73) rotate(-0.23)"/><rect class="cls-8" x="173.17" y="159.54" width="11.48" height="16.59" transform="translate(-0.69 0.73) rotate(-0.23)"/><rect class="cls-2" x="176.93" y="142.17" width="5.25" height="1.09" transform="translate(-0.57 0.72) rotate(-0.23)"/><circle class="cls-7" cx="280.72" cy="113.82" r="25.41"/><path class="cls-1" d="M292.39,114.6a21.49,21.49,0,0,1-3.36.19c-2.1,0-5,.09-8.31.1h-.29V113c0-3.68,0-7,.08-9.42a26.79,26.79,0,0,1,.21-3.9,26.11,26.11,0,0,1,.2,3.9c.06,2.41.09,5.74.09,9.42v1.65l-.29-.29c3.29,0,6.21,0,8.31.1A21.49,21.49,0,0,1,292.39,114.6Z"/><path class="cls-1" d="M280.8,92.59c.16,0,.28,1,.28,2.13s-.13,2.13-.28,2.13-.29-.95-.29-2.13S280.63,92.59,280.8,92.59Z"/><path class="cls-1" d="M292.37,96c.12.12-.46.87-1.28,1.7S289.51,99.1,289.4,99s.46-.87,1.28-1.69S292.26,95.9,292.37,96Z"/><path class="cls-1" d="M299.14,103.41c.07.14-.7.68-1.68,1.27s-1.82,1-1.91.91.6-.79,1.6-1.4S299.07,103.27,299.14,103.41Z"/><path class="cls-1" d="M303.11,114.38a14.75,14.75,0,0,1-5.82,0,14.75,14.75,0,0,1,5.82,0Z"/><path class="cls-1" d="M262.75,114a13.18,13.18,0,0,1-5.5,0,13.18,13.18,0,0,1,5.5,0Z"/><path class="cls-1" d="M265.61,122.16c.1.12-.79,1-2,2s-2.27,1.66-2.36,1.53.79-1,2-2A7.13,7.13,0,0,1,265.61,122.16Z"/><path class="cls-1" d="M272.65,128.48a8.7,8.7,0,0,1-1.31,2.51c-.8,1.33-1.46,2.41-1.61,2.34a6,6,0,0,1,1.12-2.63C271.66,129.34,272.52,128.39,272.65,128.48Z"/><path class="cls-1" d="M280.8,136.63a7.32,7.32,0,0,1-.29-2.91,7.32,7.32,0,0,1,.29-2.91,7.66,7.66,0,0,1,.28,2.91A7.43,7.43,0,0,1,280.8,136.63Z"/><path class="cls-1" d="M293.34,132.75a5.84,5.84,0,0,1-2.48-1.55A6,6,0,0,1,289,129c.13-.11,1.07.78,2.26,1.81S293.43,132.61,293.34,132.75Z"/><path class="cls-1" d="M299.23,126.41c-.12.11-1-.61-2-1.61s-1.72-1.9-1.6-2,1,.6,2,1.6S299.34,126.3,299.23,126.41Z"/><path class="cls-1" d="M265.34,106.17c-.11.11-.92-.51-1.79-1.38s-1.49-1.68-1.38-1.79.92.5,1.79,1.38S265.45,106.05,265.34,106.17Z"/><path class="cls-1" d="M272.6,98.51c-.11.12-.9-.49-1.76-1.34s-1.46-1.64-1.35-1.75.9.48,1.76,1.34S272.72,98.4,272.6,98.51Z"/><rect class="cls-1" x="282.36" y="159.42" width="38.98" height="26.28" transform="translate(-14.94 29.27) rotate(-5.42)"/><path class="cls-2" d="M322.52,183.79a4,4,0,0,1-.07-.49c0-.35-.09-.81-.16-1.39-.13-1.26-.32-3-.56-5.28-.46-4.57-1.12-11.07-1.92-19l.25.2-38.8,3.74.26-.31h0v.19l0,.22,0,.44.08.87c.05.58.11,1.15.16,1.73l.33,3.43c.21,2.26.42,4.5.63,6.69.41,4.37.8,8.58,1.17,12.57l-.29-.24,27.91-2.51,8-.69,2.15-.17.56,0h.2a4.07,4.07,0,0,1-.69.1l-2.09.23-7.94.83-28.06,2.79-.27,0,0-.27c-.39-4-.79-8.19-1.21-12.57-.21-2.19-.43-4.42-.64-6.69q-.17-1.69-.33-3.42c0-.58-.11-1.16-.16-1.74l-.09-.87,0-.43,0-.22v-.19h0c-.23.28.32-.39.27-.32L320,157.41l.23,0,0,.23c.71,8,1.29,14.54,1.69,19.15.19,2.23.34,4,.44,5.23,0,.57.08,1,.1,1.36A1.8,1.8,0,0,1,322.52,183.79Z"/><path class="cls-2" d="M320,157.63a11.48,11.48,0,0,1-1.18,1.48l-3.4,3.91c-2.89,3.29-6.93,7.83-11.46,12.87l-.16.18-.21-.13-1-.66c-6-3.79-11.31-7.25-15.18-9.77l-4.56-3-1.23-.85c-.27-.2-.41-.31-.4-.33a2.79,2.79,0,0,1,.47.23l1.28.76,4.66,2.86c3.92,2.44,9.32,5.84,15.27,9.63l1,.66-.37.05c4.53-5,8.62-9.52,11.59-12.75l3.53-3.78A12.37,12.37,0,0,1,320,157.63Z"/><rect class="cls-7" x="345.82" y="62.5" width="49.21" height="73.25"/><rect class="cls-2" x="345.82" y="62.5" width="49.21" height="73.25"/><path class="cls-2" d="M395.6,136.32H345.25V61.93H395.6Zm-49.21-1.14h48.07V63.07H346.39Z"/><rect class="cls-1" x="350.77" y="67.02" width="39.39" height="64.16"/><rect class="cls-9" x="359.36" y="85.21" width="22.12" height="25.92"/><path class="cls-1" d="M224.33,242.59,196,227.28h0a24.92,24.92,0,0,0,7.9-8.95l10.39-19.91a12.42,12.42,0,0,1,9.86-6.47h0l26.31,14.21h0a16.07,16.07,0,0,0-7.29,6.9l-11.76,21.79a21.8,21.8,0,0,1-7,7.74Z"/><path class="cls-2" d="M224.33,242.59a1.86,1.86,0,0,1,.31-.25c.21-.16.52-.39.92-.72a21.49,21.49,0,0,0,3.19-3.14,23,23,0,0,0,1.88-2.63c.6-1,1.18-2.17,1.84-3.39l4.44-8.32c1.66-3.08,3.46-6.45,5.4-10.07a27.2,27.2,0,0,1,1.59-2.73,16.77,16.77,0,0,1,2.14-2.49,15.82,15.82,0,0,1,2.67-2.06,14.93,14.93,0,0,1,1.52-.83l.05,0h0c0,.94,0,.25,0,.46l-.1,0-.19-.1-.37-.21-.77-.41c-4.06-2.19-8.34-4.48-12.76-6.87-2.21-1.19-4.47-2.4-6.75-3.64l-3.45-1.86-1.75-.94-.11-.06-.05,0,.13,0h0l-.24,0-.48.06c-.32.06-.64.1-1,.19a12.06,12.06,0,0,0-6.47,3.95,15.39,15.39,0,0,0-2,3.21l-1.76,3.37-6.72,12.85a39.77,39.77,0,0,1-3.42,5.86,25,25,0,0,1-4.45,4.61c-.4.33-.82.64-1.23.93l-.16.11-.08.06c0-.8,0-.22,0-.39h0l0,0,.33.18.66.36L199.7,229l4.82,2.62,14.52,8,3.94,2.18,1,.58.34.22a2.21,2.21,0,0,1-.37-.16l-1-.53-4-2.09L204.32,232l-4.83-2.59-2.57-1.38-.66-.36-.33-.17,0,0h0c0-.18,0,.4,0-.41l.08-.05.15-.11c.41-.29.81-.6,1.21-.92a25,25,0,0,0,4.34-4.54,39.89,39.89,0,0,0,3.35-5.81l6.7-12.86,1.75-3.38a15.47,15.47,0,0,1,2.09-3.31,12.64,12.64,0,0,1,6.78-4.14c.33-.09.67-.13,1-.2l.51-.06.25,0h0c-.13,0,.22,0,.19,0l.06,0,.11.06,1.74.94,3.45,1.87,6.75,3.64,12.75,6.91.75.41.38.2.19.11.09,0c0,.21,0-.47,0,.48h0l-.05,0a15.78,15.78,0,0,0-1.46.79,15.55,15.55,0,0,0-2.6,2,16.2,16.2,0,0,0-2.08,2.4,25.79,25.79,0,0,0-1.58,2.68l-5.46,10-4.52,8.28c-.67,1.21-1.26,2.36-1.89,3.38a23,23,0,0,1-1.94,2.63,20.2,20.2,0,0,1-3.29,3.08c-.41.31-.74.54-1,.68A2.18,2.18,0,0,1,224.33,242.59Z"/><path class="cls-2" d="M237.53,213.67c-.05.1-4.7-2.34-10.39-5.44s-10.26-5.7-10.21-5.8,4.71,2.34,10.4,5.44S237.59,213.57,237.53,213.67Z"/><path class="cls-2" d="M236,217.62c-.06.1-4.87-2.42-10.75-5.62s-10.6-5.89-10.55-6,4.87,2.42,10.75,5.63S236,217.53,236,217.62Z"/><path class="cls-2" d="M234.09,221.08c-.05.1-4.86-2.42-10.74-5.63s-10.61-5.89-10.55-6,4.86,2.42,10.74,5.63S234.15,221,234.09,221.08Z"/><path class="cls-2" d="M232.21,224.53c-.05.1-4.86-2.42-10.74-5.63s-10.61-5.88-10.56-6,4.87,2.42,10.75,5.63S232.26,224.43,232.21,224.53Z"/><path class="cls-2" d="M230.33,228c-.06.09-4.87-2.43-10.75-5.63s-10.6-5.89-10.55-6,4.86,2.42,10.75,5.63S230.38,227.89,230.33,228Z"/><path class="cls-2" d="M218.2,225.86a9.64,9.64,0,0,1-1.68-.76c-1-.52-2.41-1.25-3.94-2.08s-2.9-1.61-3.88-2.19a8.76,8.76,0,0,1-1.55-1,8.46,8.46,0,0,1,1.69.75c1,.51,2.41,1.25,3.93,2.08s2.9,1.61,3.88,2.19A7.44,7.44,0,0,1,218.2,225.86Z"/><path class="cls-2" d="M224.91,234.78s.11-.27.22-.78a3.28,3.28,0,0,0-.24-2.1,3.2,3.2,0,0,0-2.42-1.8,3.13,3.13,0,0,0-2.81,5.16,3.19,3.19,0,0,0,2.82,1.07,3.32,3.32,0,0,0,1.9-.94c.36-.37.5-.63.53-.61a1.73,1.73,0,0,1-.42.72,3.29,3.29,0,0,1-2,1.11,3.43,3.43,0,0,1-3.14-1.1,3.49,3.49,0,1,1,5.78-3.73,3.27,3.27,0,0,1,.12,2.26A1.59,1.59,0,0,1,224.91,234.78Z"/><rect class="cls-2" x="222.16" y="196.7" width="1.35" height="9.36" transform="translate(-60.66 300.59) rotate(-61.39)"/><polygon class="cls-7" points="197.45 113.82 190.18 106.09 190.18 131.71 205.63 114.37 197.45 113.82"/><polygon class="cls-8" points="197.45 113.82 190.18 106.09 190.18 131.71 205.63 114.37 197.45 113.82"/><polyline class="cls-7" points="190.35 131.52 199.39 113.95 197.45 113.82 196.27 112.56 190.35 131.52"/><path class="cls-2" d="M197.45,113.82a13.53,13.53,0,0,1-.8,2.72c-.58,1.65-1.43,3.91-2.46,6.38s-2,4.67-2.73,6.26a14,14,0,0,1-1.28,2.53,13.59,13.59,0,0,1,.9-2.69c.63-1.63,1.55-3.87,2.58-6.33l2.61-6.3A14.22,14.22,0,0,1,197.45,113.82Z"/><path class="cls-2" d="M197.39,110.43a6.75,6.75,0,0,1-.21,2.79,7.14,7.14,0,0,1-.77,2.68,6.79,6.79,0,0,1,.2-2.78A7.18,7.18,0,0,1,197.39,110.43Z"/><path class="cls-2" d="M200.3,99.7a6.94,6.94,0,0,1-.52,2.74A7,7,0,0,1,198.7,105a6.84,6.84,0,0,1,.52-2.75A7,7,0,0,1,200.3,99.7Z"/><path class="cls-2" d="M204.39,89.36a6.86,6.86,0,0,1-.82,2.67,7.2,7.2,0,0,1-1.36,2.44A6.9,6.9,0,0,1,203,91.8,7,7,0,0,1,204.39,89.36Z"/><path class="cls-2" d="M209.59,79.53a6.89,6.89,0,0,1-1.11,2.56c-.75,1.34-1.48,2.36-1.62,2.28A7,7,0,0,1,208,81.81C208.73,80.46,209.46,79.44,209.59,79.53Z"/><path class="cls-2" d="M215.84,70.33a6.76,6.76,0,0,1-1.39,2.42c-.89,1.25-1.73,2.18-1.86,2.09A7,7,0,0,1,214,72.41C214.88,71.16,215.71,70.23,215.84,70.33Z"/><path class="cls-2" d="M223.07,61.88c.12.11-.62,1.12-1.65,2.25s-2,2-2.08,1.87.62-1.11,1.65-2.25S223,61.77,223.07,61.88Z"/><path class="cls-2" d="M231.22,54.31c.1.12-.75,1-1.9,2S227.14,58.09,227,58s.74-1,1.9-2S231.11,54.18,231.22,54.31Z"/><path class="cls-2" d="M240.2,47.75c.09.14-.9.9-2.14,1.79a6.9,6.9,0,0,1-2.45,1.35c-.1-.13.85-.94,2.12-1.83A6.26,6.26,0,0,1,240.2,47.75Z"/><path class="cls-2" d="M249.91,42.34a7,7,0,0,1-2.34,1.53,6.87,6.87,0,0,1-2.6,1c-.08-.14,1-.83,2.34-1.54A6.73,6.73,0,0,1,249.91,42.34Z"/><path class="cls-2" d="M260.2,38.12a7.06,7.06,0,0,1-2.5,1.25,6.85,6.85,0,0,1-2.71.7,7.21,7.21,0,0,1,2.5-1.25A6.88,6.88,0,0,1,260.2,38.12Z"/><path class="cls-2" d="M270.91,35.13a7.23,7.23,0,0,1-2.63.95,7.06,7.06,0,0,1-2.77.39,6.76,6.76,0,0,1,2.63-.95A6.86,6.86,0,0,1,270.91,35.13Z"/><path class="cls-2" d="M281.9,33.4a7.15,7.15,0,0,1-2.72.64,7,7,0,0,1-2.8.06,6.88,6.88,0,0,1,2.72-.64A7,7,0,0,1,281.9,33.4Z"/><path class="cls-2" d="M293,33a13.47,13.47,0,0,1-5.56.06,6.89,6.89,0,0,1,2.77-.32A7.08,7.08,0,0,1,293,33Z"/><path class="cls-2" d="M304.09,33.82a7.06,7.06,0,0,1-2.8,0,6.83,6.83,0,0,1-2.73-.59,13.44,13.44,0,0,1,5.53.6Z"/><path class="cls-2" d="M315,36a7,7,0,0,1-2.77-.35,6.89,6.89,0,0,1-2.64-.92,7,7,0,0,1,2.77.35A7.12,7.12,0,0,1,315,36Z"/><path class="cls-2" d="M325.51,39.57a7.22,7.22,0,0,1-2.7-.7,7.06,7.06,0,0,1-2.5-1.25,6.86,6.86,0,0,1,2.7.7A6.62,6.62,0,0,1,325.51,39.57Z"/><path class="cls-2" d="M335.44,44.57a6.86,6.86,0,0,1-2.58-1.09,7.13,7.13,0,0,1-2.29-1.6A6.65,6.65,0,0,1,333.14,43,7,7,0,0,1,335.44,44.57Z"/><path class="cls-2" d="M344.36,51.18A6.89,6.89,0,0,1,342,49.65c-1.19-1-2.07-1.85-2-2a7,7,0,0,1,2.33,1.54C343.59,50.18,344.47,51.07,344.36,51.18Z"/><path class="cls-2" d="M352,59.24c-.14.09-.9-.89-1.87-2.06s-1.75-2.14-1.63-2.26,1.1.69,2.08,1.89A5.46,5.46,0,0,1,352,59.24Z"/><path class="cls-2" d="M323.28,177.45a13.45,13.45,0,0,1-5.55-.32,6.9,6.9,0,0,1,2.79-.13A7,7,0,0,1,323.28,177.45Z"/><path class="cls-2" d="M334.38,176.9a6.66,6.66,0,0,1-2.74.53,6.85,6.85,0,0,1-2.8,0,7,7,0,0,1,2.75-.53A6.85,6.85,0,0,1,334.38,176.9Z"/><path class="cls-2" d="M345.24,174.52a6.91,6.91,0,0,1-2.61,1,6.78,6.78,0,0,1-2.76.44,7,7,0,0,1,2.61-1A7.15,7.15,0,0,1,345.24,174.52Z"/><path class="cls-2" d="M355.38,170c.09.14-.92.9-2.3,1.6a6,6,0,0,1-2.64.94,8.2,8.2,0,0,1,2.38-1.45A7.92,7.92,0,0,1,355.38,170Z"/><path class="cls-2" d="M364.11,163.16c.12.11-.65,1.11-1.81,2.14s-2.22,1.7-2.32,1.57.8-1,1.94-2S364,163.05,364.11,163.16Z"/><path class="cls-2" d="M370.72,154.24a6.13,6.13,0,0,1-1.18,2.55c-.83,1.31-1.7,2.23-1.82,2.14a8,8,0,0,1,1.34-2.45C369.88,155.2,370.57,154.17,370.72,154.24Z"/><path class="cls-2" d="M374.48,143.82a5.84,5.84,0,0,1-.35,2.79,6,6,0,0,1-1.12,2.57,8.25,8.25,0,0,1,.56-2.73A8.83,8.83,0,0,1,374.48,143.82Z"/><path class="cls-2" d="M374.86,135c.16,0,.33.72.37,1.64s-.05,1.66-.21,1.65-.32-.73-.37-1.63S374.71,135,374.86,135Z"/><path class="cls-2" d="M238.35,193.54c.13.11-.57,1.14-1.46,2.38s-1.66,2.22-1.79,2.13a6,6,0,0,1,1.32-2.47C237.33,194.32,238.23,193.44,238.35,193.54Z"/><path class="cls-2" d="M246.33,185.84c.1.13-.81,1-2,2a8.12,8.12,0,0,1-2.24,1.65c-.11-.11.69-1.08,1.87-2.09S246.24,185.71,246.33,185.84Z"/><path class="cls-2" d="M255.84,180.09a7.1,7.1,0,0,1-2.32,1.56,6.84,6.84,0,0,1-2.59,1,7,7,0,0,1,2.32-1.56A6.75,6.75,0,0,1,255.84,180.09Z"/><path class="cls-2" d="M266.37,176.52a8.19,8.19,0,0,1-2.63,1A8,8,0,0,1,261,178a6,6,0,0,1,2.58-1.1A6.24,6.24,0,0,1,266.37,176.52Z"/><path class="cls-2" d="M277.4,175.38a8.05,8.05,0,0,1-2.76.33,8,8,0,0,1-2.78-.08,10.42,10.42,0,0,1,5.54-.25Z"/><path class="cls-2" d="M283.64,175.88a.35.35,0,0,1-.69-.1.36.36,0,0,1,.69.1Z"/><path class="cls-2" d="M252.5,267.66a6.79,6.79,0,0,1,2.5,1.26c1.29.83,2.26,1.61,2.18,1.75a6.79,6.79,0,0,1-2.5-1.26C253.39,268.57,252.41,267.79,252.5,267.66Z"/><path class="cls-2" d="M243.57,261a6.8,6.8,0,0,1,2.36,1.51c1.2.95,2.09,1.82,2,1.95s-1.15-.54-2.36-1.5S243.47,261.15,243.57,261Z"/><path class="cls-2" d="M236.77,252.32a21,21,0,0,1,3,4.7c-.12.1-1-.83-1.82-2.14A6.05,6.05,0,0,1,236.77,252.32Z"/><path class="cls-2" d="M232.52,242.05a13.52,13.52,0,0,1,1.87,5.24,13.37,13.37,0,0,1-1.87-5.24Z"/><g id="Character"><polygon class="cls-10" points="314.9 368.13 312.61 467.14 308.24 467.14 308.52 368.38 314.9 368.13"/><polygon class="cls-10" points="330.67 367.04 351.9 467.14 356.76 467.14 339.09 367.04 330.67 367.04"/><polygon class="cls-10" points="290.87 368.13 267.38 467.14 262.51 467.14 283.83 367.73 290.87 368.13"/><path class="cls-10" d="M352,273.2s23.45-1.34,21.1,25.79-3.68,54.59-12.39,64-96.45,9.72-103.82,2,14.07-7.36,18.09-7.36,28.8,2.34,36.84-18.76S317.81,271.86,352,273.2Z"/><path class="cls-10" d="M353.47,273.22s17.92,3.67,16.24,22.42-6.36,51.57-15.07,59.95-42.82,10.19-61.28,9c-21.44-1.34-35-5.42-35-5.42s-3.91,2.51-2.72,4.14,11.63,8.13,62.29,7,47.14-8.55,49.24-16.72,6.52-51.7,5.91-61.27S367.67,274.9,353.47,273.22Z"/><path class="cls-11" d="M353.47,273.22s17.92,3.67,16.24,22.42-6.36,51.57-15.07,59.95-42.82,10.19-61.28,9c-21.44-1.34-35-5.42-35-5.42s-3.91,2.51-2.72,4.14,11.63,8.13,62.29,7,47.14-8.55,49.24-16.72,6.52-51.7,5.91-61.27S367.67,274.9,353.47,273.22Z"/><path class="cls-10" d="M338.76,309.73a2,2,0,1,0,1.95-2.49A2.26,2.26,0,0,0,338.76,309.73Z"/><path class="cls-10" d="M340.09,298.75a14.13,14.13,0,0,0-.66,3.61,8.56,8.56,0,0,0,.86,3.81,8.3,8.3,0,0,0,1.27,1.9,9.69,9.69,0,0,1,.9,1,2,2,0,0,1,.33,1.49,17.38,17.38,0,0,1-1,2.43,7.88,7.88,0,0,0-.29,2.26,8.48,8.48,0,0,0,1,3.77,14,14,0,0,0,2.26,2.89s-.35-.12-.86-.54a7.66,7.66,0,0,1-1.81-2.12,8.43,8.43,0,0,1-1.19-4,8.13,8.13,0,0,1,.29-2.49,19.41,19.41,0,0,0,.95-2.33c.18-.74-.42-1.27-1-1.89a8.31,8.31,0,0,1-1.36-2.09,8.67,8.67,0,0,1-.77-4.08,8.09,8.09,0,0,1,.62-2.72C339.84,299,340.05,298.73,340.09,298.75Z"/><path class="cls-10" d="M334.78,306.51c.11,0,0,.58.27,1.41a4.94,4.94,0,0,0,1.95,2.63,7.63,7.63,0,0,0,3.19,1.14c.88.13,1.45.15,1.45.25s-.55.24-1.49.22a6.51,6.51,0,0,1-3.52-1.05,4.71,4.71,0,0,1-2-3.08C334.44,307.06,334.71,306.48,334.78,306.51Z"/><g class="cls-12"><path d="M338.76,309.73a2,2,0,1,0,1.95-2.49A2.26,2.26,0,0,0,338.76,309.73Z"/><path d="M340.09,298.75a14.13,14.13,0,0,0-.66,3.61,8.56,8.56,0,0,0,.86,3.81,8.3,8.3,0,0,0,1.27,1.9,9.69,9.69,0,0,1,.9,1,2,2,0,0,1,.33,1.49,17.38,17.38,0,0,1-1,2.43,7.88,7.88,0,0,0-.29,2.26,8.48,8.48,0,0,0,1,3.77,14,14,0,0,0,2.26,2.89s-.35-.12-.86-.54a7.66,7.66,0,0,1-1.81-2.12,8.43,8.43,0,0,1-1.19-4,8.13,8.13,0,0,1,.29-2.49,19.41,19.41,0,0,0,.95-2.33c.18-.74-.42-1.27-1-1.89a8.31,8.31,0,0,1-1.36-2.09,8.67,8.67,0,0,1-.77-4.08,8.09,8.09,0,0,1,.62-2.72C339.84,299,340.05,298.73,340.09,298.75Z"/><path d="M334.78,306.51c.11,0,0,.58.27,1.41a4.94,4.94,0,0,0,1.95,2.63,7.63,7.63,0,0,0,3.19,1.14c.88.13,1.45.15,1.45.25s-.55.24-1.49.22a6.51,6.51,0,0,1-3.52-1.05,4.71,4.71,0,0,1-2-3.08C334.44,307.06,334.71,306.48,334.78,306.51Z"/></g><path class="cls-13" d="M311.87,205.52c-.3-.11-.69-.23-1.2-.37a15.67,15.67,0,0,0-5.33-.47,11.76,11.76,0,0,0-7.24,3.16,10.58,10.58,0,0,0-2.61,4,9,9,0,0,0-.48,2.49c-.06.87.06,1.72,0,2.54a2.82,2.82,0,0,1-.87,2.08,7.1,7.1,0,0,1-2.06,1.14,7.41,7.41,0,0,0-2.13,1.22,6.05,6.05,0,0,0-1.45,1.87,5.84,5.84,0,0,0-.41,4.29,14.36,14.36,0,0,0,1.59,3.36c.27.43.49.84.7,1.24a4.53,4.53,0,0,1,0,1,7.15,7.15,0,0,1-2.11,4,16.65,16.65,0,0,0-2.89,3.56,4,4,0,0,0,.18,4.33c1.12,1.29,3.09,1.29,4.8,1.25a143.85,143.85,0,0,1,17.84,1l4.8-41.37C312.67,205.73,312.27,205.62,311.87,205.52Zm-15,7.32c-.27,1.63,0,3.4-.81,4.86s-2.59,2.33-3.91,3.5a8.13,8.13,0,0,0-2.58,7.46c.12.69.34,1.37.53,2.05l-.06-.11a14.61,14.61,0,0,1-1.49-3.29,5.39,5.39,0,0,1,.42-3.91,5.6,5.6,0,0,1,1.34-1.7,7,7,0,0,1,2-1.11,7.45,7.45,0,0,0,2.22-1.24,3.44,3.44,0,0,0,1.06-2.48c0-.89-.08-1.74,0-2.54A8.3,8.3,0,0,1,296,212a9.86,9.86,0,0,1,2.45-3.77,11.5,11.5,0,0,1,6.9-3.14,14.48,14.48,0,0,1,1.7-.09,12.55,12.55,0,0,0-3.84.72A9.58,9.58,0,0,0,296.89,212.84Z"/><path class="cls-14" d="M305.05,254.45c.35-1.91-.27-9.94-.27-9.94s-7.12-.9-7.43-8.17.42-24,.42-24L310.88,206l11.44,13,.22,35.26Z"/><path class="cls-13" d="M299.61,224.56a.91.91,0,1,0,.92-.92A.92.92,0,0,0,299.61,224.56Z"/><path class="cls-13" d="M298.12,223.53c.11.12.79-.45,1.77-.49s1.7.46,1.8.33-.06-.29-.38-.52a2.32,2.32,0,0,0-1.45-.41,2.28,2.28,0,0,0-1.4.54C298.16,223.24,298.06,223.47,298.12,223.53Z"/><path class="cls-13" d="M310.22,224.56a.91.91,0,1,0,.92-.92A.92.92,0,0,0,310.22,224.56Z"/><path class="cls-13" d="M308.93,223.72c.11.12.79-.46,1.77-.49s1.7.46,1.8.32-.06-.28-.38-.51a2.38,2.38,0,0,0-1.45-.42,2.34,2.34,0,0,0-1.4.55C309,223.43,308.87,223.66,308.93,223.72Z"/><path class="cls-13" d="M305.26,232.11a5.69,5.69,0,0,0-1.59-.24c-.25,0-.48-.07-.53-.25a1.42,1.42,0,0,1,.16-.79c.22-.66.46-1.35.7-2.07a36.77,36.77,0,0,0,1.57-5.38,37.58,37.58,0,0,0-2,5.24c-.23.73-.46,1.42-.67,2.08a1.66,1.66,0,0,0-.12,1.05.61.61,0,0,0,.42.37,1.36,1.36,0,0,0,.43,0A5.78,5.78,0,0,0,305.26,232.11Z"/><path class="cls-7" d="M304.78,244.51a17.43,17.43,0,0,0,9.44-3.09s-2.22,5.29-9.31,4.87Z"/><path class="cls-13" d="M340.16,228.77a3.88,3.88,0,0,1-1.38,0c-.82-1.29-2.3-2.24-3.41-3.41a5.64,5.64,0,0,1,.27-3.17,13.87,13.87,0,0,0,.51-1.72,3.59,3.59,0,0,0-.1-2,5.25,5.25,0,0,0-2.85-2.61c-1-1.36-2.77-2-4-3.16a10.6,10.6,0,0,1-.55-2,13.56,13.56,0,0,0-.85-3.2,6.16,6.16,0,0,0-1.85-2.26,6.39,6.39,0,0,0-3.14-1.29,8.23,8.23,0,0,0-2.56-.86,8.86,8.86,0,0,0-7.47,2.44,15.26,15.26,0,0,0-11.82,1.82,8.94,8.94,0,0,0-3.73,3.78,11.76,11.76,0,0,0-.71,4.73c0,1.15,0,2.3,0,3.45a1.45,1.45,0,0,0,.17.85,1.51,1.51,0,0,0,1.26.47l5.33.2a2,2,0,0,0,1.06-.16,1.88,1.88,0,0,0,.84-1.69c0-.51,0-1.53,0-1.82.24,1.14.46,1.35.63,2.06a2.77,2.77,0,0,0,1.15,1.85,3.2,3.2,0,0,0,1.54.26c.76,0,1.53,0,2.3-.06a1.87,1.87,0,0,0,1.09-.27,1.8,1.8,0,0,0,.4-1.71,11.22,11.22,0,0,1-.36-2.38c.69,1.35,1,3,1.86,3.26a5.75,5.75,0,0,0,2.57-.18c.86-.27,1.46-.49,2.09-.68a5.49,5.49,0,0,1-.27,1c-.64,1.75-2.09,3.43-1.59,5.22.45,1.63,2.3,2.42,3.23,3.83s.81,3.58.2,5.32a51.92,51.92,0,0,0-2,5.15c-.4,1.8-.11,3.94,1.36,5.05a6.7,6.7,0,0,0,4.06.91l12.93.12a7.06,7.06,0,0,0,2.47-.27,2.4,2.4,0,0,0,1.65-1.73,3.08,3.08,0,0,0-1.19-2.57,7.91,7.91,0,0,1-2-2.17c-.68-1.46,0-3.16.73-4.58s1.62-2.94,1.35-4.52a3.57,3.57,0,0,0-.39-1.08,3.94,3.94,0,0,0,1.26-.14,3.17,3.17,0,0,0,1-.5c.2-.16.29-.27.28-.28A6.58,6.58,0,0,1,340.16,228.77Zm-16.52-24.22a6.31,6.31,0,0,1,2,1.11,5.83,5.83,0,0,1,1.66,2.14,13.43,13.43,0,0,1,.77,3.09c0,.22.09.46.14.69-.63-1.08-.94-2.36-1.49-3.51A8.67,8.67,0,0,0,323.64,204.55Zm10,12.27a4.06,4.06,0,0,1,1.85,1.91c.41,1.07,0,2.24-.38,3.32a6,6,0,0,0-.36,2.62,5.36,5.36,0,0,1-.56-1C333.37,221.53,334.43,218.93,333.67,216.82Z"/><path class="cls-7" d="M305.62,234.67a1.88,1.88,0,0,1,1.13-1.39,1.48,1.48,0,0,1,1.25,0,1.08,1.08,0,0,1,.59,1.07,1.26,1.26,0,0,1-1,.93,3.39,3.39,0,0,1-1.45-.09,1,1,0,0,1-.38-.14.36.36,0,0,1-.16-.35"/><path class="cls-13" d="M308,232.07c.08,0,.2.27.17.74a2.61,2.61,0,0,1-.81,1.66,2.57,2.57,0,0,1-1.69.7c-.48,0-.75-.13-.73-.21s1.13-.07,2-.92S307.88,232.07,308,232.07Z"/><path class="cls-14" d="M291.09,257.94s-21.54,18.74-22.1,16.45c-3-12.4-2.17-28.23-1.69-34.29.34-.52.73-1.09,1.19-1.73a8.16,8.16,0,0,1,1.92-1.88,12.53,12.53,0,0,1,2.93-1.64c1-.28,1.16-1.6.29-1.92s-3.62.39-6.17,2.52-1.52-2.93-1.17-4.79,1.14-7.64.66-8.18c-.72-.8-1.73-.16-2,1.7s-1.6,7.38-2.58,7.18.93-9.63.93-9.63.73-2-.39-2.23c-2-.49-3.28,9.65-3.38,10.62-.06.68-1.13.49-1-.23s2.1-9.36.06-9.88c-1.57-.4-1.12,8.34-2.53,9.92s.34-6.68-1.18-7c-.56-.12-1-.13-1.32,4.75a105.54,105.54,0,0,0,.43,11.76c-1.35,13.38-4,54.34,14.54,52.93,21.84-1.66,26.87-18.88,26.87-18.88Z"/><path class="cls-15" d="M351.47,287.69,347.73,269c-2.75-15.34-24.26-16.4-24.26-16.4l-16.87-.27s-11.24-.36-20.24,7-15,13.05-15,13.05l14.12,16.33,8.36-5.52s-3,5.43-2.51,10.06c.47,4.41,5.15,7.85,5.15,7.85l-3.51,37.68,55.11-2.21L341,287.69Z"/><path class="cls-1" d="M348.84,273.08a9.6,9.6,0,0,1-.65,1.37,15.53,15.53,0,0,1-2.69,3.45,15.25,15.25,0,0,1-5.93,3.54,15.67,15.67,0,0,1-9.11.1,13,13,0,0,1-4.75-2.5,7.58,7.58,0,0,1-2.78-5.08,5.82,5.82,0,0,1,2.85-5.41,4.15,4.15,0,0,1,3.33-.22,5.61,5.61,0,0,1,2.69,2.12,6.15,6.15,0,0,1,1.13,3.32,8.15,8.15,0,0,1-.75,3.49,14,14,0,0,1-4.78,5.43,19.45,19.45,0,0,1-14.58,3.14,17.52,17.52,0,0,1-7.09-3.05,12.66,12.66,0,0,1-4.52-6,10,10,0,0,1,.23-7.21,7.13,7.13,0,0,1,5.33-4.31,4.8,4.8,0,0,1,5.35,3.38,4.44,4.44,0,0,1-.56,3.2,6.15,6.15,0,0,1-2.24,2.18,8.89,8.89,0,0,1-5.76.73,29.27,29.27,0,0,1-5.16-1.41,17.6,17.6,0,0,1-7.64-5,10.57,10.57,0,0,1-2.48-6.4,8.08,8.08,0,0,1,1-4.25,5.28,5.28,0,0,1,.91-1.22s-.34.4-.81,1.28a8.27,8.27,0,0,0-.83,4.18,10.42,10.42,0,0,0,2.5,6.2,17.37,17.37,0,0,0,7.54,4.81,29.18,29.18,0,0,0,5.09,1.36,8.53,8.53,0,0,0,5.45-.7,5.67,5.67,0,0,0,2.05-2,3.91,3.91,0,0,0,.49-2.83,4.29,4.29,0,0,0-4.78-3,6.59,6.59,0,0,0-4.89,4,9.56,9.56,0,0,0-.21,6.81,12.09,12.09,0,0,0,4.34,5.68,16.76,16.76,0,0,0,6.85,2.95,18.88,18.88,0,0,0,14.14-3,13.32,13.32,0,0,0,4.6-5.2,7.42,7.42,0,0,0,.71-3.25,5.64,5.64,0,0,0-1-3,5.12,5.12,0,0,0-2.42-1.93A3.62,3.62,0,0,0,326,269a5.35,5.35,0,0,0-2.61,4.94,7.08,7.08,0,0,0,2.6,4.76,12.48,12.48,0,0,0,4.57,2.45,15.44,15.44,0,0,0,8.9,0,15.26,15.26,0,0,0,5.87-3.39,16.76,16.76,0,0,0,2.74-3.35c.25-.42.44-.75.56-1A1.87,1.87,0,0,1,348.84,273.08Z"/><path class="cls-1" d="M346.53,330.33l-.3.13c-.2.07-.5.2-.9.31a15.67,15.67,0,0,1-3.63.63,17.22,17.22,0,0,1-5.78-.67,16.32,16.32,0,0,1-6.68-3.83,17.18,17.18,0,0,1-5.18-13.28,11.54,11.54,0,0,1,1.53-5.36,6.27,6.27,0,0,1,2.1-2.09,5.36,5.36,0,0,1,2.95-.73,4,4,0,0,1,2.83,1.3,4.55,4.55,0,0,1,1.06,3,5.51,5.51,0,0,1-.93,3.08,8.19,8.19,0,0,1-2.3,2.28,15.68,15.68,0,0,1-6.08,2.33,18.47,18.47,0,0,1-12.38-2.5,16.24,16.24,0,0,1-4.52-4.08,11.35,11.35,0,0,1-2.34-5.37,6.91,6.91,0,0,1,1.51-5.35,5.24,5.24,0,0,1,2.25-1.56,4.77,4.77,0,0,1,4.87,1.24,3.6,3.6,0,0,1,.94,2.3,5.32,5.32,0,0,1-2,4,10,10,0,0,1-3.6,2,14.71,14.71,0,0,1-3.59.71,13.75,13.75,0,0,1-5.75-.89,13,13,0,0,1-3.2-1.82c-.34-.25-.56-.48-.73-.62a1.9,1.9,0,0,1-.23-.23s.35.27,1,.76a13.35,13.35,0,0,0,8.85,2.47,13.94,13.94,0,0,0,3.5-.73,9.41,9.41,0,0,0,3.44-1.94,4.86,4.86,0,0,0,1.84-3.7,3.51,3.51,0,0,0-2.82-3.16,4.11,4.11,0,0,0-2.38.07,4.64,4.64,0,0,0-2,1.42,6.41,6.41,0,0,0-1.37,5,10.77,10.77,0,0,0,2.25,5.1,15.64,15.64,0,0,0,4.38,3.94,18,18,0,0,0,12,2.4,15.18,15.18,0,0,0,5.85-2.23,6,6,0,0,0,3-4.89,4,4,0,0,0-.91-2.62,3.43,3.43,0,0,0-2.44-1.12,4.77,4.77,0,0,0-2.65.65,5.81,5.81,0,0,0-1.92,1.9,11.13,11.13,0,0,0-1.48,5.11,17,17,0,0,0,.47,5.07,16.75,16.75,0,0,0,4.5,7.88,16,16,0,0,0,6.48,3.82,17.11,17.11,0,0,0,5.68.75,16.83,16.83,0,0,0,3.6-.51A11.65,11.65,0,0,1,346.53,330.33Z"/><path class="cls-13" d="M327.88,267.8a5.17,5.17,0,0,1,.29,1.2c.18.9.4,2,.65,3.29.57,2.91,1.3,6.68,2.11,10.85s1.49,8.09,1.94,10.89c.22,1.4.37,2.53.47,3.32a5.19,5.19,0,0,1,.07,1.23,5.22,5.22,0,0,1-.3-1.19c-.18-.9-.39-2-.65-3.29-.56-2.91-1.29-6.68-2.1-10.85s-1.5-8.1-1.94-10.89c-.22-1.4-.38-2.54-.47-3.33A5.19,5.19,0,0,1,327.88,267.8Z"/><path class="cls-13" d="M351.81,287.88a90.67,90.67,0,0,1-10.18.32,90.08,90.08,0,0,1-10.18-.25,88.82,88.82,0,0,1,10.18-.33A88.69,88.69,0,0,1,351.81,287.88Z"/><path class="cls-13" d="M285.45,288.68a99,99,0,0,1-7-8.11,102,102,0,0,1-6.56-8.48,98.81,98.81,0,0,1,7,8.11A98.75,98.75,0,0,1,285.45,288.68Z"/><path class="cls-13" d="M322,252.65a10.7,10.7,0,0,1-2.55.28c-1.57.1-3.76.15-6.17.12s-4.59-.17-6.16-.3a10.19,10.19,0,0,1-2.53-.37,11.85,11.85,0,0,1,2.55,0l6.15.13,6.15.06A12,12,0,0,1,322,252.65Z"/><path class="cls-13" d="M291.43,288a10.19,10.19,0,0,1,1-2.27c.38-.74.77-1.54,1.2-2.39s1.07-1.78.83-2.9c-.41-2.24-.8-4.33-1-5.83a11,11,0,0,1-.27-2.45,10.39,10.39,0,0,1,.68,2.37c.33,1.49.79,3.52,1.21,5.84a2.92,2.92,0,0,1-.21,1.78,14,14,0,0,1-.73,1.45l-1.31,2.32A10.62,10.62,0,0,1,291.43,288Z"/><path class="cls-7" d="M246.74,461.12V449.65l20.56-.14.17,17.15-1.28.1c-5.67.36-28.85,1.07-32.65-.1C229.31,465.35,246.74,461.12,246.74,461.12Z"/><path class="cls-13" d="M233.06,465.61c0,.19,7.68.35,17.17.35s17.17-.16,17.17-.35-7.69-.35-17.17-.35S233.06,465.42,233.06,465.61Z"/><path class="cls-13" d="M246.38,463.46c.17-.09,0-.7-.42-1.29s-1-.92-1.11-.79.15.65.55,1.2S246.21,463.55,246.38,463.46Z"/><path class="cls-13" d="M245.07,464.21c.18-.06.09-.74-.32-1.46s-.93-1.14-1.08-1,.1.7.48,1.37S244.89,464.29,245.07,464.21Z"/><path class="cls-13" d="M261.21,465.53c.08.06.38-.25.83-.75a13.21,13.21,0,0,1,1.8-1.81,4.79,4.79,0,0,1,2.22-1c.63-.08,1,0,1.07-.08s-.34-.37-1.08-.41a4.13,4.13,0,0,0-2.64.91,7.63,7.63,0,0,0-1.77,2.07C261.29,465.08,261.13,465.48,261.21,465.53Z"/><path class="cls-13" d="M246.32,461.3c-.1.17.25.56.84.78s1.11.14,1.14-.05-.39-.42-.9-.61S246.42,461.14,246.32,461.3Z"/><path class="cls-13" d="M246.64,460.19c0,.2.53.36,1.23.37s1.24-.14,1.23-.33-.56-.36-1.23-.37S246.66,460,246.64,460.19Z"/><path class="cls-7" d="M290.13,461.12V449.65l20.55-.14.17,17.15-1.27.1c-5.67.36-28.85,1.07-32.65-.1C272.69,465.35,290.13,461.12,290.13,461.12Z"/><path class="cls-13" d="M276.44,465.61c0,.19,7.69.35,17.17.35s17.17-.16,17.17-.35-7.68-.35-17.17-.35S276.44,465.42,276.44,465.61Z"/><path class="cls-13" d="M289.77,463.46c.17-.09,0-.7-.42-1.29s-1-.92-1.11-.79.14.65.55,1.2S289.6,463.55,289.77,463.46Z"/><path class="cls-13" d="M288.46,464.21c.18-.06.08-.74-.32-1.46s-.94-1.14-1.09-1,.11.7.48,1.37S288.28,464.29,288.46,464.21Z"/><path class="cls-13" d="M304.59,465.53c.08.06.39-.25.83-.75a14,14,0,0,1,1.81-1.81,4.79,4.79,0,0,1,2.22-1c.62-.08,1,0,1.07-.08s-.35-.37-1.09-.41a4.09,4.09,0,0,0-2.63.91,7.69,7.69,0,0,0-1.78,2.07C304.67,465.08,304.51,465.48,304.59,465.53Z"/><path class="cls-13" d="M289.71,461.3c-.1.17.25.56.84.78s1.11.14,1.14-.05-.39-.42-.9-.61S289.81,461.14,289.71,461.3Z"/><path class="cls-13" d="M290,460.19c0,.2.53.36,1.22.37s1.25-.14,1.23-.33-.56-.36-1.22-.37S290.05,460,290,460.19Z"/><path class="cls-14" d="M353.76,302.72c-1.09-9-2.29-14.81-2.29-14.81l-19.6.29s1.76,9.9,1.22,12.55c-.48,2.31-38.29,3.84-48.14,4-.58-.44-1.44.3-2.2-.36a7.8,7.8,0,0,1-1.67-2.07,12.05,12.05,0,0,1-1.35-3.05,1,1,0,0,0-1.87-.43c-.39.85.05,3.65,1.92,6.37s-3,1.3-4.83.82-7.43-1.7-8-1.25c-.85.66-.32,1.72,1.49,2.16s7.13,2.14,6.84,3.1-9.4-1.63-9.4-1.63-1.87-.88-2.24.22c-.67,2,9.22,4,10.16,4.16.66.12.38,1.17-.32,1s-9-2.79-9.74-.78c-.54,1.55,8.12,1.73,9.55,3.26s-6.55-.82-7,.67c-.17.56,3.15.82,7.93,1.49A120.84,120.84,0,0,0,289,319c11.08.61,50.23,1.42,58.58.83C357.28,319.09,354.13,305.81,353.76,302.72Z"/><path class="cls-13" d="M263.52,334.44a292.9,292.9,0,0,1,50.76-.64l-21.46,30.8-19.35.07-4.06,94.65H243.74l2.45-105.57a19.94,19.94,0,0,1,17.33-19.31Z"/><path class="cls-11" d="M263.52,334.44a292.9,292.9,0,0,1,50.76-.64l-21.46,30.8-19.35.07-4.06,94.65H243.74l2.45-105.57a19.94,19.94,0,0,1,17.33-19.31Z"/><path class="cls-13" d="M310.65,367S349,369.63,348,335.2c0,0-53.32-6.49-63.54,4.51-8.56,9.22-.73,119.61-.73,119.61l28.51-1.39"/><path class="cls-10" d="M318.62,333.31a3.44,3.44,0,0,1-.76.05l-2.16.09c-1.88.08-4.6.24-8,.47l-5.48.44c-2,.18-4.09.35-6.25.74a40.1,40.1,0,0,0-6.68,1.82c-2.21.85-4.47,2.14-5.54,4.45a22.88,22.88,0,0,0-1.9,7.11,67.89,67.89,0,0,0-.48,6.94c-.1,4.46-.31,8.46-.46,11.82s-.24,6-.32,8c0,.89-.05,1.61-.07,2.16a4.12,4.12,0,0,1-.07.76,4.48,4.48,0,0,1-.05-.76c0-.49,0-1.23,0-2.17,0-1.88,0-4.61.13-8s.26-7.38.34-11.82a63.77,63.77,0,0,1,.45-7,23.34,23.34,0,0,1,1.94-7.31,8,8,0,0,1,2.52-3,14.32,14.32,0,0,1,3.33-1.74,41.59,41.59,0,0,1,6.79-1.82c2.22-.38,4.33-.53,6.31-.69s3.81-.27,5.5-.37c3.36-.18,6.08-.27,8-.29.94,0,1.67,0,2.17,0A4.12,4.12,0,0,1,318.62,333.31Z"/><path class="cls-10" d="M312.5,450.74a4.17,4.17,0,0,1-1.13.17c-.73.07-1.79.16-3.1.25-2.62.19-6.25.4-10.25.6s-7.63.36-10.26.44c-1.32,0-2.38.06-3.11.06a4.73,4.73,0,0,1-1.15-.05,4.28,4.28,0,0,1,1.13-.17c.74-.07,1.8-.16,3.11-.25,2.62-.19,6.24-.4,10.24-.6s7.63-.36,10.26-.44c1.32,0,2.38-.06,3.12-.06A4.11,4.11,0,0,1,312.5,450.74Z"/><path class="cls-10" d="M270.26,452c0,.16-5.95.28-13.3.28s-13.3-.12-13.3-.28,6-.29,13.3-.29S270.26,451.87,270.26,452Z"/><path class="cls-10" d="M282.05,345.78a2,2,0,0,1-.33,0l-.94-.09c-.83-.07-2-.17-3.63-.24s-3.51-.13-5.75,0a33.81,33.81,0,0,0-3.56.36,11.41,11.41,0,0,0-3.75,1.2,3.22,3.22,0,0,0-1.4,1.45,14.15,14.15,0,0,0-.72,2.11,35.07,35.07,0,0,0-.93,4.69c-.32,3.29-.61,6.84-.88,10.57-.53,7.46-.92,15.67-1.23,24.3-.58,17.26-1.24,32.89-1.7,44.19-.25,5.62-.45,10.18-.6,13.39-.08,1.55-.14,2.76-.19,3.64,0,.39-.05.7-.06.94a1.68,1.68,0,0,1,0,.33,1.19,1.19,0,0,1,0-.33v-.95c0-.87.05-2.09.09-3.64.09-3.21.24-7.77.41-13.4.39-11.34.93-26.95,1.53-44.19.31-8.63.72-16.85,1.28-24.32q.42-5.6.93-10.59a33.94,33.94,0,0,1,1-4.74,14.79,14.79,0,0,1,.76-2.18,3.73,3.73,0,0,1,1.57-1.62,11.75,11.75,0,0,1,3.91-1.21,29.62,29.62,0,0,1,3.6-.32c2.26-.07,4.2,0,5.78.12s2.8.25,3.63.36l.94.14A1.09,1.09,0,0,1,282.05,345.78Z"/><path class="cls-10" d="M341.64,334.54a1.44,1.44,0,0,1,0,.39c0,.26-.05.65-.14,1.15a12.39,12.39,0,0,1-1.55,4.16,13,13,0,0,1-5.09,4.81,12.85,12.85,0,0,1-4.21,1.34,44,44,0,0,1-4.93.15H308.16c-1.07,0-2.18,0-3.27,0a8.4,8.4,0,0,0-3.16.75,8.5,8.5,0,0,0-4.47,4.84,9.24,9.24,0,0,0-.52,3.45v3.68c0,5,0,10.09,0,15.34,0,21-.07,40-.09,53.82,0,6.86-.07,12.43-.09,16.31,0,1.9,0,3.39-.05,4.44,0,.48,0,.86,0,1.15a1.93,1.93,0,0,1,0,.39,1.93,1.93,0,0,1,0-.39c0-.29,0-.67,0-1.15,0-1.05,0-2.54-.06-4.44,0-3.88,0-9.45-.09-16.31,0-13.8-.05-32.81-.08-53.82V359.29c0-1.23,0-2.46,0-3.68a9.8,9.8,0,0,1,.56-3.64,9,9,0,0,1,8.13-5.92c1.13,0,2.21,0,3.29,0l6.28,0,11.26.06a43,43,0,0,0,4.88-.1,12.73,12.73,0,0,0,9.16-5.9,13.16,13.16,0,0,0,1.63-4.07c.11-.49.15-.88.2-1.13A1.52,1.52,0,0,1,341.64,334.54Z"/><path class="cls-10" d="M311,359.4a17.11,17.11,0,0,1,0,4.41,16.78,16.78,0,0,1-.53,4.38,16.79,16.79,0,0,1,0-4.41A17,17,0,0,1,311,359.4Z"/><path class="cls-13" d="M151.81,295.82s-1.24-9.82-.26-9.82,1.56,9.82,1.56,9.82h-1.63"/><path class="cls-7" d="M155,295.82s-1.24-9.82-.26-9.82,1.56,9.82,1.56,9.82h-1.63"/><path class="cls-16" d="M155,295.82s-1.24-9.82-.26-9.82,1.56,9.82,1.56,9.82h-1.63"/><path class="cls-13" d="M159.92,295.82s-1.23-9.82-.26-9.82,1.56,9.82,1.56,9.82H159.6"/><path class="cls-10" d="M157.05,296.35s0-9.9,1-9.78.31,9.94.31,9.94l-1.61-.2"/><path class="cls-7" d="M154.05,295.82s-1.23-9.82-.26-9.82,1.56,9.82,1.56,9.82h-1.62"/><path class="cls-8" d="M154.05,295.82s-1.23-9.82-.26-9.82,1.56,9.82,1.56,9.82h-1.62"/><polygon class="cls-7" points="151.61 311.28 149.98 295.82 163.08 295.82 163.08 311.28 151.61 311.28"/><polygon class="cls-15" points="430.24 311.34 140.68 311.34 140.68 319.07 156.17 319.07 148.15 466.63 152.57 466.63 160.59 319.07 414.45 319.07 421.29 466.62 426.18 466.87 418.87 319.07 430.24 319.07 430.24 311.34"/><polygon class="cls-13" points="235.48 265.68 251.54 312.6 324.24 312.6 323.71 310.18 294.31 309.27 280.76 265.65 235.48 265.68"/><path class="cls-1" d="M267.7,287.72c.48,1.92-.34,3.8-1.84,4.2s-3.1-.83-3.58-2.75.35-3.81,1.84-4.21S267.22,285.8,267.7,287.72Z"/><path class="cls-17" d="M408.39,297a6.73,6.73,0,0,0-4.51-1.3c0-.87,0-1.4,0-1.4H379.23s-.77,16.25,11.67,16.82c5.57.26,8.76-2.24,10.58-5.38a12.52,12.52,0,0,0,2.79.34,6.49,6.49,0,0,0,3.88-1.09,4.88,4.88,0,0,0,1.85-4.17A4.78,4.78,0,0,0,408.39,297Zm-1.69,6c-1.05.79-2.93.67-4.16.44a21.28,21.28,0,0,0,1.2-5.34,4.72,4.72,0,0,1,3.08.71,2.4,2.4,0,0,1,.75,2A2.57,2.57,0,0,1,406.7,303Z"/><path class="cls-13" d="M401.81,292.58a3.5,3.5,0,0,1-.59-.69,6.45,6.45,0,0,1-1-2.4,7,7,0,0,1,.36-4.1c.62-1.56,2-2.85,3.45-4.23a10.13,10.13,0,0,0,3.12-5.52,9.57,9.57,0,0,0-1.33-7.05,9.74,9.74,0,0,0-2.74-2.84,14.59,14.59,0,0,0-3.8-1.71,11.41,11.41,0,0,1-4-2,5.9,5.9,0,0,1-1.43-1.88,3.74,3.74,0,0,1-.29-2.41l.09-.34.37.37a3.78,3.78,0,0,0-2.24,3.29,7.65,7.65,0,0,0,.91,4.07c.61,1.28,1.36,2.48,1.92,3.78a8.05,8.05,0,0,1,.77,4.08,5.86,5.86,0,0,1-1.83,3.51,11.41,11.41,0,0,1-3.08,2.05,62.3,62.3,0,0,0-6,2.57A8.3,8.3,0,0,0,381,285a9.15,9.15,0,0,0-.83,3.88,10.57,10.57,0,0,0,.64,3.36s-.05-.06-.12-.2a4.83,4.83,0,0,1-.26-.62,8.13,8.13,0,0,1-.49-2.53,9.18,9.18,0,0,1,.77-4,8.6,8.6,0,0,1,3.55-4.07,58.83,58.83,0,0,1,6-2.65,11.22,11.22,0,0,0,2.94-2,5.27,5.27,0,0,0,1.65-3.2,7.49,7.49,0,0,0-.75-3.8c-.53-1.24-1.29-2.44-1.92-3.76a8.13,8.13,0,0,1-1-4.38,5.37,5.37,0,0,1,.75-2.23,3.7,3.7,0,0,1,1.87-1.54l.53-.18-.16.55-.08.28a4,4,0,0,0,1.54,3.73,11,11,0,0,0,3.82,1.91,15.19,15.19,0,0,1,3.93,1.79,10.43,10.43,0,0,1,2.88,3,10,10,0,0,1,1.34,7.44,10.49,10.49,0,0,1-3.3,5.71c-1.46,1.38-2.83,2.6-3.44,4.06a6.91,6.91,0,0,0-.44,3.93A7.56,7.56,0,0,0,401.81,292.58Z"/><polygon class="cls-13" points="174.56 270.89 174.42 260.26 211.69 263.42 212.75 272.91 174.56 270.89"/><path class="cls-10" d="M178.66,271.12a47.71,47.71,0,0,1-.4-10.5,47.71,47.71,0,0,1,.4,10.5Z"/><path class="cls-10" d="M180.07,260.74a47.3,47.3,0,0,1,.22,10.46,47.3,47.3,0,0,1-.22-10.46Z"/><path class="cls-1" d="M183.46,265.42c6.49.72,14.13,1.13,20.74,1.72"/><path class="cls-10" d="M204.2,267.14a17.72,17.72,0,0,1-3.06-.05c-1.88-.1-4.47-.26-7.34-.47s-5.46-.46-7.33-.69a14.76,14.76,0,0,1-3-.51,17.68,17.68,0,0,1,3,.1l7.33.52c2.87.21,5.46.44,7.33.64A15.15,15.15,0,0,1,204.2,267.14Z"/><path class="cls-10" d="M206.92,272.61a19.8,19.8,0,0,1-.53-4.75,20.33,20.33,0,0,1,.06-4.78,19.52,19.52,0,0,1,.52,4.75A20,20,0,0,1,206.92,272.61Z"/><path class="cls-10" d="M209.21,272.73a40.93,40.93,0,0,1-.94-9.54,39.55,39.55,0,0,1,.94,9.54Z"/><path class="cls-1" d="M189,267.8c4.1.28,7.23.49,10.5.56"/><path class="cls-10" d="M199.49,268.36a23.58,23.58,0,0,1-5.26,0,23.67,23.67,0,0,1-5.24-.57,24.39,24.39,0,0,1,5.26,0A24.52,24.52,0,0,1,199.49,268.36Z"/><polygon class="cls-7" points="181.77 311.48 180.76 300.89 218.16 300.96 220.2 311.34 181.77 311.48"/><polygon class="cls-8" points="181.77 311.48 180.76 300.89 218.16 300.96 220.2 311.34 181.77 311.48"/><rect class="cls-13" x="200.02" y="294.29" width="1.92" height="23.4" transform="translate(-105.35 506.45) rotate(-89.9)"/><polygon class="cls-13" points="176.5 301.78 175.6 291.19 213 291.65 214.74 301.04 176.5 301.78"/><polygon class="cls-1" points="175.72 292.63 176.3 299.78 212.68 299.42 211.52 292.87 175.72 292.63"/><path class="cls-13" d="M209.61,295.8a5.8,5.8,0,0,1-1.32.09l-3.57,0c-3,0-7.2,0-11.8-.12s-8.78-.18-11.8-.29l-3.58-.15a6.14,6.14,0,0,1-1.31-.13,5.74,5.74,0,0,1,1.31-.09l3.58,0c3,0,7.19,0,11.8.11s8.79.18,11.81.29l3.57.15A5.66,5.66,0,0,1,209.61,295.8Z"/><path class="cls-13" d="M209.61,296.7a6.18,6.18,0,0,1-1.32.13l-3.6.14c-3.05.1-7.25.19-11.89.26s-8.85.09-11.89.08l-3.6,0a5.8,5.8,0,0,1-1.32-.09,5.71,5.71,0,0,1,1.32-.14l3.6-.14c3-.09,7.24-.19,11.89-.25s8.84-.1,11.88-.09l3.61,0A6.08,6.08,0,0,1,209.61,296.7Z"/><polygon class="cls-10" points="177.06 291.67 176.36 281.05 213.74 282.23 215.3 291.66 177.06 291.67"/><polygon class="cls-1" points="178.54 290.33 214.91 289.81 213.9 283.2 177.85 282.54 178.54 290.33"/><polygon class="cls-7" points="178.07 281.26 177.73 270.63 215.05 273.07 216.3 282.54 178.07 281.26"/><rect class="cls-13" x="196.63" y="265.29" width="1.92" height="23.39" transform="matrix(0.06, -1, 1, 0.06, -91.62, 456.21)"/><path class="cls-13" d="M214.28,285.92a7,7,0,0,1-1.43.12l-3.9.11c-3.28.07-7.82.11-12.83.13s-9.56,0-12.85,0l-3.89-.08a7.13,7.13,0,0,1-1.43-.1,6.9,6.9,0,0,1,1.43-.12l3.89-.11c3.29-.06,7.83-.11,12.84-.13s9.56,0,12.85,0l3.89.08A7.13,7.13,0,0,1,214.28,285.92Z"/><path class="cls-13" d="M214.7,288a6.35,6.35,0,0,1-1.44.1l-3.92,0c-3.31,0-7.88,0-12.93-.1s-9.62-.16-12.93-.26l-3.91-.15a6.43,6.43,0,0,1-1.44-.13,6.86,6.86,0,0,1,1.44-.09l3.92,0c3.3,0,7.88,0,12.93.09s9.62.17,12.93.27l3.92.14A8.37,8.37,0,0,1,214.7,288Z"/></g></g></g></svg>