<svg id="Layer_1" data-name="Layer 1" xmlns="http://www.w3.org/2000/svg" xmlns:xlink="http://www.w3.org/1999/xlink" viewBox="0 0 592 500"><defs><style>.cls-1{fill:none;}.cls-2{fill:#fff;}.cls-3{fill:#b9c4fd;}.cls-4{fill:#3a3792;}.cls-5{fill:#739dfb;}.cls-6{fill:#f97d8c;stroke:#779ce8;stroke-linejoin:round;stroke-width:0.75px;}.cls-7{clip-path:url(#clip-path);}.cls-8{fill:#adcbfd;}</style><clipPath id="clip-path"><rect class="cls-1" x="46" width="500" height="500"/></clipPath></defs><rect class="cls-2" x="-55.05" y="-14.34" width="672.51" height="557.68"/><rect class="cls-2" x="46" width="500" height="500"/><path class="cls-3" d="M372,391.05a3,3,0,1,1-3-3A3,3,0,0,1,372,391.05Z"/><path class="cls-3" d="M372,325.93a3,3,0,1,1-3-3A3,3,0,0,1,372,325.93Z"/><path class="cls-3" d="M372,423.6a3,3,0,1,1-3-3A3,3,0,0,1,372,423.6Z"/><path class="cls-3" d="M372,358.49a3,3,0,1,1-3-3A3,3,0,0,1,372,358.49Z"/><path class="cls-3" d="M372,456.16a3,3,0,1,1-3-3A3,3,0,0,1,372,456.16Z"/><path class="cls-3" d="M396.39,439.88a3,3,0,1,1-3-3A3,3,0,0,1,396.39,439.88Z"/><path class="cls-3" d="M396.39,407.32a3,3,0,1,1-3-3A3,3,0,0,1,396.39,407.32Z"/><circle class="cls-3" cx="393.42" cy="374.77" r="2.97"/><circle class="cls-3" cx="393.42" cy="342.21" r="2.97"/><path class="cls-3" d="M396.39,309.65a3,3,0,1,1-3-3A3,3,0,0,1,396.39,309.65Z"/><path class="cls-3" d="M420.81,456.16a3,3,0,1,1-3-3A3,3,0,0,1,420.81,456.16Z"/><path class="cls-3" d="M420.81,325.93a3,3,0,1,1-3-3A3,3,0,0,1,420.81,325.93Z"/><path class="cls-3" d="M420.81,358.49a3,3,0,1,1-3-3A3,3,0,0,1,420.81,358.49Z"/><path class="cls-3" d="M420.81,423.6a3,3,0,1,1-3-3A3,3,0,0,1,420.81,423.6Z"/><path class="cls-3" d="M420.81,391.05a3,3,0,1,1-3-3A3,3,0,0,1,420.81,391.05Z"/><path class="cls-3" d="M445.23,439.88a3,3,0,1,1-3-3A3,3,0,0,1,445.23,439.88Z"/><circle class="cls-3" cx="442.26" cy="342.21" r="2.97"/><path class="cls-3" d="M445.23,407.32a3,3,0,1,1-3-3A3,3,0,0,1,445.23,407.32Z"/><circle class="cls-3" cx="442.26" cy="374.77" r="2.97"/><path class="cls-3" d="M469.65,325.93a3,3,0,1,1-3-3A3,3,0,0,1,469.65,325.93Z"/><path class="cls-3" d="M469.65,423.6a3,3,0,1,1-3-3A3,3,0,0,1,469.65,423.6Z"/><path class="cls-3" d="M445.23,309.65a3,3,0,1,1-3-3A3,3,0,0,1,445.23,309.65Z"/><path class="cls-3" d="M469.65,456.16a3,3,0,1,1-3-3A3,3,0,0,1,469.65,456.16Z"/><path class="cls-3" d="M469.65,391.05a3,3,0,1,1-3-3A3,3,0,0,1,469.65,391.05Z"/><path class="cls-3" d="M469.65,358.49a3,3,0,1,1-3-3A3,3,0,0,1,469.65,358.49Z"/><path class="cls-3" d="M494.06,439.88a3,3,0,1,1-3-3A3,3,0,0,1,494.06,439.88Z"/><path class="cls-3" d="M494.06,407.32a3,3,0,1,1-3-3A3,3,0,0,1,494.06,407.32Z"/><path class="cls-3" d="M494.06,374.77a3,3,0,1,1-3-3A3,3,0,0,1,494.06,374.77Z"/><path class="cls-3" d="M494.06,342.21a3,3,0,1,1-3-3A3,3,0,0,1,494.06,342.21Z"/><path class="cls-3" d="M494.06,309.65a3,3,0,1,1-3-3A3,3,0,0,1,494.06,309.65Z"/><path class="cls-3" d="M518.48,358.49a3,3,0,1,1-3-3A3,3,0,0,1,518.48,358.49Z"/><path class="cls-3" d="M518.48,423.6a3,3,0,1,1-3-3A3,3,0,0,1,518.48,423.6Z"/><path class="cls-3" d="M518.48,325.93a3,3,0,1,1-3-3A3,3,0,0,1,518.48,325.93Z"/><circle class="cls-3" cx="515.51" cy="456.16" r="2.97"/><path class="cls-3" d="M518.48,391.05a3,3,0,1,1-3-3A3,3,0,0,1,518.48,391.05Z"/><path class="cls-4" d="M390.21,164.28H352.76a1.5,1.5,0,0,1,0-3h35.95V79a1.5,1.5,0,0,1,3,0v83.75A1.5,1.5,0,0,1,390.21,164.28Z"/><path class="cls-4" d="M416.14,132.06H390.21a1.5,1.5,0,0,1,0-3h24.43v-33a1.5,1.5,0,0,1,3,0v34.48A1.5,1.5,0,0,1,416.14,132.06Z"/><path class="cls-4" d="M451.35,226.45h-37a1.51,1.51,0,0,1-1.5-1.5V196.17H373.74a1.5,1.5,0,0,1,0-3h40.62a1.5,1.5,0,0,1,1.5,1.5v28.78h35.49a1.5,1.5,0,0,1,0,3Z"/><path class="cls-4" d="M399.61,196.06a1.5,1.5,0,0,1-1.5-1.5V173.73a1.5,1.5,0,0,1,1.5-1.5h36.11V155.39a1.5,1.5,0,0,1,3,0v18.34a1.5,1.5,0,0,1-1.5,1.5H401.11v19.33A1.5,1.5,0,0,1,399.61,196.06Z"/><path class="cls-4" d="M390.21,114.82H359.52a1.5,1.5,0,0,1-1.5-1.5V87.56a1.5,1.5,0,0,1,3,0v24.26h29.19a1.5,1.5,0,0,1,0,3Z"/><path class="cls-4" d="M249.72,164.28H178.18a1.5,1.5,0,0,1-1.5-1.5V105a1.5,1.5,0,0,1,3,0v56.24h70a1.5,1.5,0,0,1,0,3Z"/><path class="cls-4" d="M211.17,141.32h-33a1.5,1.5,0,0,1,0-3h31.49V106.83a1.5,1.5,0,0,1,3,0v33A1.5,1.5,0,0,1,211.17,141.32Z"/><path class="cls-4" d="M178.18,154.51H135.93a1.5,1.5,0,0,1-1.5-1.5V123.32a1.5,1.5,0,0,1,3,0v28.19h40.75a1.5,1.5,0,0,1,0,3Z"/><path class="cls-4" d="M184.85,219.9H139.26a1.5,1.5,0,0,1,0-3h44.09V196.69a1.5,1.5,0,0,1,1.5-1.5h36.3a1.5,1.5,0,1,1,0,3h-34.8V218.4A1.5,1.5,0,0,1,184.85,219.9Z"/><path class="cls-4" d="M160.76,219.9a1.5,1.5,0,0,1-1.5-1.5V188.68a1.5,1.5,0,0,1,3,0V218.4A1.5,1.5,0,0,1,160.76,219.9Z"/><path class="cls-4" d="M449.5,217.2c-9.65,0-9.67,15,0,15S459.17,217.2,449.5,217.2Z"/><path class="cls-4" d="M437.64,148.63c-9.65,0-9.67,15,0,15S447.31,148.63,437.64,148.63Z"/><path class="cls-4" d="M416.14,87.84c-9.65,0-9.67,15,0,15S425.81,87.84,416.14,87.84Z"/><path class="cls-4" d="M390.57,70.42c-9.66,0-9.67,15,0,15S400.23,70.42,390.57,70.42Z"/><path class="cls-4" d="M359.43,83.76c-9.65,0-9.67,15,0,15S369.1,83.76,359.43,83.76Z"/><path class="cls-4" d="M211.63,98.68c-9.65,0-9.67,15,0,15S221.3,98.68,211.63,98.68Z"/><path class="cls-4" d="M178.55,96.73c-9.65,0-9.67,15,0,15S188.22,96.73,178.55,96.73Z"/><path class="cls-4" d="M135.74,112.86c-9.65,0-9.67,15,0,15S145.41,112.86,135.74,112.86Z"/><path class="cls-4" d="M161,182.36c-9.65,0-9.67,15,0,15S170.71,182.36,161,182.36Z"/><path class="cls-4" d="M141,210.57c-9.65,0-9.67,15,0,15S150.69,210.57,141,210.57Z"/><path class="cls-5" d="M364.55,188.52a25.44,25.44,0,0,1-2.75,45.08,22.55,22.55,0,0,1,0,4.11,23.3,23.3,0,0,1-31.69,19.8,21.77,21.77,0,0,1-20.25,13.75h-.16a13.94,13.94,0,0,1-13.71-14V119.35a13.89,13.89,0,0,1,11.24-13.75,19.36,19.36,0,0,1,22.63,16.06q1-.09,2.07-.09A22.44,22.44,0,0,1,354.39,144a23.1,23.1,0,0,1-.39,4.2,25.88,25.88,0,0,1,10.55,40.31Z"/><path class="cls-5" d="M238,148a23.1,23.1,0,0,1-.39-4.2,22.44,22.44,0,0,1,22.45-22.44q1.05,0,2.07.09a19.36,19.36,0,0,1,22.63-16.06A13.89,13.89,0,0,1,296,119.11V257a14,14,0,0,1-13.71,14h-.16a21.77,21.77,0,0,1-20.25-13.75,23.32,23.32,0,0,1-31.69-19.81,22.44,22.44,0,0,1,0-4.1,25.44,25.44,0,0,1-2.75-45.08A25.88,25.88,0,0,1,238,148Z"/><path class="cls-4" d="M309.87,272.26h-.16a15,15,0,0,1-14.71-15V119.35a14.84,14.84,0,0,1,12.06-14.73,20.63,20.63,0,0,1,3.67-.34,20.25,20.25,0,0,1,20,16.32c.39,0,.8,0,1.24,0A23.47,23.47,0,0,1,355.39,144a23.81,23.81,0,0,1-.27,3.59A26.87,26.87,0,0,1,366,188.26a26.44,26.44,0,0,1-3.16,46,22.43,22.43,0,0,1,0,3.58,24.3,24.3,0,0,1-32.13,21A22.66,22.66,0,0,1,309.87,272.26Zm.86-166a18.45,18.45,0,0,0-3.31.31A12.84,12.84,0,0,0,297,119.35V257.24a13,13,0,0,0,12.72,13h.15a20.65,20.65,0,0,0,19.32-13.12,1,1,0,0,1,1.29-.56,22.32,22.32,0,0,0,30.34-19,21.54,21.54,0,0,0,0-3.93,1,1,0,0,1,.59-1A24.45,24.45,0,0,0,364,189.37a1,1,0,0,1-.47-.68,1,1,0,0,1,.21-.8,24.88,24.88,0,0,0-10.14-38.75A1,1,0,0,1,353,148a21.44,21.44,0,0,0-21.07-25.46,19.36,19.36,0,0,0-2,.09,1,1,0,0,1-1.09-.84A18.26,18.26,0,0,0,310.73,106.28Z"/><path class="cls-4" d="M282.13,272a22.65,22.65,0,0,1-20.81-13.49,24.22,24.22,0,0,1-9.19,1.29,24.48,24.48,0,0,1-22.94-22.27,22.29,22.29,0,0,1,0-3.57A26.44,26.44,0,0,1,226,188a26.87,26.87,0,0,1,10.89-40.66,23.81,23.81,0,0,1-.27-3.59,23.47,23.47,0,0,1,23.45-23.44c.42,0,.84,0,1.24,0a20.25,20.25,0,0,1,20-16.32,20.87,20.87,0,0,1,3.67.33A14.87,14.87,0,0,1,297,119.11V257a15,15,0,0,1-14.71,15Zm-20.25-15.75a1,1,0,0,1,.93.63A20.65,20.65,0,0,0,282.13,270h.16A13,13,0,0,0,295,257V119.11a12.86,12.86,0,0,0-10.42-12.77,18.61,18.61,0,0,0-3.31-.3,18.26,18.26,0,0,0-18.15,15.54,1,1,0,0,1-1.09.84c-.62-.06-1.28-.09-2-.09A21.44,21.44,0,0,0,239,147.79a1,1,0,0,1-.62,1.11,24.88,24.88,0,0,0-10.14,38.75,1,1,0,0,1,.21.8,1,1,0,0,1-.47.68,24.45,24.45,0,0,0,2.64,43.32,1,1,0,0,1,.59,1,21.32,21.32,0,0,0,0,3.91,22.46,22.46,0,0,0,21,20.45,22,22,0,0,0,9.28-1.48A1,1,0,0,1,261.88,256.27Z"/><path class="cls-4" d="M234.71,195.67a.94.94,0,0,1-.55-.17,36,36,0,0,1-7.48-6.43,1,1,0,0,1,1.55-1.27,34.42,34.42,0,0,0,7,6,1,1,0,0,1-.55,1.83Z"/><path class="cls-4" d="M277.84,194.41c-21.84,0-27.4-15.42-27.46-15.58a1,1,0,0,1,1.89-.65c.23.65,5.73,15.65,28.7,14.12a1,1,0,1,1,.13,2C280,194.38,278.89,194.41,277.84,194.41Z"/><path class="cls-4" d="M244.91,209.45h-.61a1,1,0,0,1,.17-2c.61.05,14.81,1,19.43-16.53a1,1,0,1,1,1.93.51C261.33,208.47,247.93,209.45,244.91,209.45Z"/><path class="cls-4" d="M272,149.68a1,1,0,0,1-1-.81c-.07-.39-1.76-9.57,3.23-16.68,2.83-4,7.23-6.56,13.08-7.49a1,1,0,0,1,.31,2c-5.28.84-9.23,3.08-11.74,6.65-4.51,6.4-2.93,15.08-2.91,15.17a1,1,0,0,1-.8,1.17Z"/><path class="cls-4" d="M277,131.56a1,1,0,0,1-.76-.35c-7.4-8.53-14-8.63-14.1-8.63a1,1,0,0,1,0-2h0c.31,0,7.62.11,15.61,9.32a1,1,0,0,1-.75,1.66Z"/><path class="cls-4" d="M252.24,149.68a1.13,1.13,0,0,1-.36-.06,20.41,20.41,0,0,0-13.52-.56,1,1,0,0,1-.72-1.86,22.13,22.13,0,0,1,15,.55,1,1,0,0,1,.57,1.29A1,1,0,0,1,252.24,149.68Z"/><path class="cls-4" d="M261.88,258.42a1,1,0,0,1-.38-1.92c.06,0,5.74-2.37,7.93-5.19a1,1,0,1,1,1.58,1.23c-2.52,3.24-8.5,5.71-8.76,5.81A1,1,0,0,1,261.88,258.42Z"/><path class="cls-4" d="M230.2,234.52a1,1,0,0,1-1-.93,23.62,23.62,0,0,1,1.49-9,1,1,0,0,1,1.88.68,22.31,22.31,0,0,0-1.38,8.16,1,1,0,0,1-.93,1.07Z"/><path class="cls-4" d="M279.5,255.9c-4,0-13.85-1.6-17.6-16.66a1,1,0,0,1,1.94-.48c4.26,17.12,16.5,15.15,17,15.05a1,1,0,0,1,1.16.81,1,1,0,0,1-.8,1.16A10,10,0,0,1,279.5,255.9Z"/><path class="cls-4" d="M296,174.73c-18.24,0-20.85-11.49-20.95-12a1,1,0,0,1,2-.42h0c.09.43,2.45,10.4,19,10.4a1,1,0,0,1,0,2Z"/><path class="cls-4" d="M357.29,195.91a1,1,0,0,1-.55-1.83,34.42,34.42,0,0,0,7-6,1,1,0,1,1,1.55,1.27,35.55,35.55,0,0,1-7.48,6.44A1,1,0,0,1,357.29,195.91Z"/><path class="cls-4" d="M314.16,194.65c-1.05,0-2.14,0-3.26-.11a1,1,0,0,1,.13-2c23,1.52,28.47-13.49,28.7-14.13a1,1,0,0,1,1.89.65C341.56,179.24,336,194.65,314.16,194.65Z"/><path class="cls-4" d="M347.09,209.7c-3,0-16.42-1-20.92-18a1,1,0,0,1,1.93-.51c4.62,17.51,18.83,16.58,19.43,16.54a1,1,0,1,1,.17,2S347.47,209.7,347.09,209.7Z"/><path class="cls-4" d="M320,149.93l-.19,0a1,1,0,0,1-.8-1.17c0-.09,1.6-8.76-2.91-15.17-2.51-3.57-6.46-5.81-11.74-6.65a1,1,0,1,1,.31-2c5.85.93,10.25,3.45,13.08,7.48,5,7.11,3.3,16.3,3.23,16.68A1,1,0,0,1,320,149.93Z"/><path class="cls-4" d="M315,131.8a1,1,0,0,1-.75-1.65c8-9.22,15.3-9.33,15.61-9.33h0a1,1,0,0,1,0,2c-.1,0-6.78.19-14.11,8.64A1,1,0,0,1,315,131.8Z"/><path class="cls-4" d="M339.76,149.93a1,1,0,0,1-.36-1.94,22.13,22.13,0,0,1,15-.55,1,1,0,0,1-.72,1.87,20.51,20.51,0,0,0-13.52.55A.92.92,0,0,1,339.76,149.93Z"/><path class="cls-4" d="M330.12,258.67a1,1,0,0,1-.37-.08c-.26-.1-6.24-2.56-8.76-5.81a1,1,0,0,1,1.58-1.23c2.19,2.83,7.87,5.17,7.93,5.19a1,1,0,0,1-.38,1.93Z"/><path class="cls-4" d="M310.51,257.72a10,10,0,0,1-1.72-.12,1,1,0,0,1,.36-2c.52.09,12.76,2.06,17-15.06a1,1,0,0,1,1.95.48C324.36,256.12,314.51,257.72,310.51,257.72Z"/><path class="cls-4" d="M296,175a1,1,0,0,1,0-2c16.54,0,18.9-10,19-10.39a1,1,0,0,1,1.19-.77A1,1,0,0,1,317,163C316.85,163.48,314.24,175,296,175Z"/><circle class="cls-2" cx="296" cy="191.79" r="38.79" transform="translate(-48.92 265.48) rotate(-45)"/><path class="cls-4" d="M296,231.58a39.79,39.79,0,1,1,39.78-39.79A39.84,39.84,0,0,1,296,231.58ZM296,154a37.79,37.79,0,1,0,37.78,37.78A37.83,37.83,0,0,0,296,154Z"/><path class="cls-6" d="M313,213.74l3.67,4.81a34.76,34.76,0,0,0,10.42-13.17l-5.5-2.47A27.9,27.9,0,0,0,324,192.1l6,.15a33.66,33.66,0,0,0-3.8-16.38l-5.31,2.75a30.34,30.34,0,0,0-2.62-4.12A29.28,29.28,0,0,0,314,170l3.85-4.62a33.69,33.69,0,0,0-15.15-7.22l-1.18,5.9a27.84,27.84,0,0,0-11.1,0l-1.19-5.91a33.47,33.47,0,0,0-15.11,7.32l3.87,4.62a28.34,28.34,0,0,0-6.91,8.69L265.69,176a33.57,33.57,0,0,0-3.7,16.37l6-.14A27.58,27.58,0,0,0,270.5,203L265,205.5a34.13,34.13,0,0,0,10.5,13.13l3.62-4.81a27.57,27.57,0,0,0,10,4.76l-1.47,5.88a34.28,34.28,0,0,0,16.78,0L303,218.58A28,28,0,0,0,313,213.74ZM280.89,203a19,19,0,1,1,26.6,3.59A19,19,0,0,1,280.89,203Z"/><polygon class="cls-5" points="292.43 203.61 281.2 192.34 286.51 187.05 292.44 193.01 305.51 179.98 310.8 185.29 292.43 203.61"/><path class="cls-4" d="M292.43,204.61h0a1,1,0,0,1-.71-.3l-11.23-11.26a1,1,0,0,1-.29-.71,1,1,0,0,1,.29-.7l5.31-5.3a.87.87,0,0,1,.71-.29,1,1,0,0,1,.71.3l5.23,5.24,12.35-12.32a1,1,0,0,1,.71-.29h0a1,1,0,0,1,.7.29l5.3,5.31a1,1,0,0,1,0,1.42l-18.36,18.31A1,1,0,0,1,292.43,204.61Zm-9.81-12.26,9.81,9.84,16.95-16.9-3.88-3.89-12.35,12.31a1,1,0,0,1-.7.3h0a1,1,0,0,1-.7-.3l-5.23-5.24Z"/><g class="cls-7"><path class="cls-2" d="M559.84,182.94l14.44,117.62L428.88,363a21.79,21.79,0,0,1-15.77.56l-4.72-1.64a10.82,10.82,0,0,0,.66-3.71c.14-35.63-19.59-46.44-29.09-49.58a21.82,21.82,0,0,1,10-18.31Z"/><path class="cls-5" d="M380,308.65c9.5,3.14,29.23,14,29.09,49.58a10.82,10.82,0,0,1-.66,3.71,11.17,11.17,0,0,1-3.79,5.15l-9.66,7.31c4.88-9.51,7.53-22.64-.25-38.06-7.4-14.68-17.91-21.64-27.17-24.87l3.67-2A11.06,11.06,0,0,1,380,308.65Z"/><path class="cls-8" d="M394.94,374.4a53.09,53.09,0,0,1-8.78,12.24c-.19-.16-.38-.32-.58-.47l-39.21-30.64a16.4,16.4,0,0,0,19.79-12.95,34,34,0,0,0,.58-6.23,33.5,33.5,0,0,0-14.48-27.53,47.94,47.94,0,0,1,15.26,2.65c9.26,3.23,19.77,10.19,27.17,24.87C402.47,351.76,399.82,364.89,394.94,374.4Z"/><path class="cls-8" d="M352.26,308.82a33.5,33.5,0,0,1,14.48,27.53,34,34,0,0,1-.58,6.23,16.4,16.4,0,0,1-19.79,12.95l-32.15-25.12.07-.21.06,0s15.33-9.56,15.24-28.45l9.28,1.59A33.11,33.11,0,0,1,352.26,308.82Z"/><path class="cls-2" d="M387.8,403.33a12.26,12.26,0,0,1-17.15,2.22l-3.52-2.75a12.19,12.19,0,0,1-11.85,15.26,12.61,12.61,0,0,1-3-.38,12.09,12.09,0,0,1-2.48,8.31,12.3,12.3,0,0,1-14.66,3.71,11.14,11.14,0,0,1-1.2,1.89,12.28,12.28,0,0,1-17.15,2.23l-2.17-1.69,6-7.39a12.23,12.23,0,0,0-13.33-19.31,12.35,12.35,0,0,0,.78-4.32,12.21,12.21,0,0,0-17.52-11,13.06,13.06,0,0,0,.11-1.65,12.22,12.22,0,0,0-21.73-7.71l-4.21,5.2c0-.41.06-.81.06-1.22A12.22,12.22,0,0,0,243,377l-6,7.49a12.35,12.35,0,0,0-2.19,4.12l-.52-.17c-17-8.61-23.45-18.62-23.45-18.62l-22-11.71c9.22-9.3,31.47-34.2,34.6-60.8l15.34,6.81s25.76-4.45,45.55,0l-35.37,29.35a6,6,0,0,0,.21,9.5c5.75,4.24,16.08,8.69,30.89,3.13,24.05-9,26.27-18.49,26.27-18.49l8,2.62-.07.21,32.15,25.12,39.21,30.64c.2.15.39.31.58.47A12.27,12.27,0,0,1,387.8,403.33Z"/><path class="cls-8" d="M329.59,301.77c.09,18.89-15.24,28.45-15.24,28.45l-.06,0-8-2.62s2.72-18.59-17.75-27A16.39,16.39,0,0,1,301.77,297Z"/><path class="cls-8" d="M322.75,420.52a12.25,12.25,0,0,1-2.22,4.22l-6,7.39L310,437.84a12.24,12.24,0,0,1-21.65-9.06,11.89,11.89,0,0,0,2.85-2.56l14.11-17.43a12.2,12.2,0,0,0,1.93-3.36,12.26,12.26,0,0,1,15.55,15.09Z"/><path class="cls-8" d="M308,401.11a12.35,12.35,0,0,1-.78,4.32,12.2,12.2,0,0,1-1.93,3.36l-14.11,17.43a11.89,11.89,0,0,1-2.85,2.56,12.22,12.22,0,0,1-18.88-10.27,13.06,13.06,0,0,1,.11-1.65,12.16,12.16,0,0,0,4.2-3.32l14.12-17.44a12.13,12.13,0,0,0,2.6-6,12.21,12.21,0,0,1,17.52,11Z"/><path class="cls-8" d="M288.54,300.56c20.47,8.43,17.75,27,17.75,27S304.07,337,280,346.07c-14.81,5.56-25.14,1.11-30.89-3.13a6,6,0,0,1-.21-9.5l35.37-29.35Z"/><path class="cls-8" d="M290.57,388.42a13.06,13.06,0,0,1-.11,1.65,12.13,12.13,0,0,1-2.6,6l-14.12,17.44A12.22,12.22,0,0,1,252,405.82a12.52,12.52,0,0,1,.36-3,12,12,0,0,0,3.55-3l6.05-7.5a12.12,12.12,0,0,0,2.65-6.45l4.21-5.2a12.22,12.22,0,0,1,21.73,7.71Z"/><path class="cls-8" d="M264.69,384.69c0,.41,0,.81-.06,1.22a12.12,12.12,0,0,1-2.65,6.45l-6.05,7.5a12,12,0,0,1-3.55,3,12.23,12.23,0,0,1-15.46-18.38l6-7.49a12.22,12.22,0,0,1,21.73,7.72Z"/><path class="cls-5" d="M223.4,297.28c-3.13,26.6-25.38,51.5-34.6,60.8-2.46,2.48-4,3.85-4,3.85l-14.09-6c-6.34,11.66-25.94,4.94-25.94,4.94L33.21,333.84V196.69S188.89,259.33,200,265.26s9.5,20.39,9.5,20.39l14.22,7.59C223.67,294.59,223.56,295.94,223.4,297.28Z"/><path class="cls-4" d="M420.28,365.79a22.77,22.77,0,0,1-7.5-1.27l-4.71-1.64a1,1,0,0,1-.62-1.29,9.72,9.72,0,0,0,.6-3.36c.14-35.37-19.81-45.8-28.4-48.63a1,1,0,0,1-.69-1,22.72,22.72,0,0,1,10.41-19.15L559.31,182.1a1,1,0,0,1,1.38.31,1,1,0,0,1-.31,1.38L390.45,291.18A20.71,20.71,0,0,0,381,307.94c9.33,3.29,29.21,14.53,29.07,50.29a11.9,11.9,0,0,1-.41,3.08l3.8,1.32a20.75,20.75,0,0,0,15.05-.53l145.4-62.46a1,1,0,0,1,.79,1.84l-145.4,62.46A22.83,22.83,0,0,1,420.28,365.79Z"/><path class="cls-4" d="M394.94,375.4a1,1,0,0,1-.64-.24,1,1,0,0,1-.25-1.22c6.19-12.06,6.11-24.56-.25-37.15-6.13-12.16-15.08-20.36-26.61-24.38a1,1,0,0,1-.66-.86,1,1,0,0,1,.52-1l3.67-2a12.07,12.07,0,0,1,9.56-.9h0c9,3,29.92,13.85,29.77,50.53a11.77,11.77,0,0,1-.72,4,12.13,12.13,0,0,1-4.12,5.6l-9.66,7.31A1,1,0,0,1,394.94,375.4Zm-25-64.1c11,4.43,19.66,12.69,25.66,24.59s6.57,23.88,1.92,35.31l6.49-4.91a10.17,10.17,0,0,0,3.45-4.69,9.82,9.82,0,0,0,.6-3.37c.14-35.37-19.81-45.8-28.4-48.63a10.08,10.08,0,0,0-8,.75Z"/><path class="cls-4" d="M386.16,387.64a1,1,0,0,1-.64-.24L385,387l-39.23-30.66a1,1,0,0,1,.84-1.76,15.4,15.4,0,0,0,18.58-12.16,33.28,33.28,0,0,0,.56-6,32.44,32.44,0,0,0-14-26.71,1,1,0,0,1,.56-1.82h0a49.1,49.1,0,0,1,15.58,2.7c12,4.2,21.37,12.73,27.74,25.37,6.56,13,6.65,26.48.24,39a54.34,54.34,0,0,1-8.94,12.48A1,1,0,0,1,386.16,387.64ZM349.82,357l36.25,28.33a52.2,52.2,0,0,0,8-11.34h0c6.19-12.06,6.11-24.56-.25-37.15-6.13-12.16-15.08-20.36-26.61-24.38A47.26,47.26,0,0,0,355.41,310a34.42,34.42,0,0,1,12.33,26.4,35.55,35.55,0,0,1-.59,6.41A17.44,17.44,0,0,1,349.82,357Z"/><path class="cls-4" d="M340,431.74a13.22,13.22,0,0,1-5.34-1.13,1,1,0,0,1,.81-1.83,11.19,11.19,0,0,0,15.74-11,1,1,0,0,1,.35-.84,1,1,0,0,1,.89-.2,11.67,11.67,0,0,0,2.8.35,11.19,11.19,0,0,0,10.88-14,1,1,0,0,1,.43-1.08,1,1,0,0,1,1.16.05l3.52,2.75a11.26,11.26,0,0,0,15.74-2,11.25,11.25,0,0,0-1.51-15.33L385,387l-71.38-55.78a.88.88,0,0,1-.23-.24l-6.49-2.13c-1.28,2.77-6.51,10.66-26.51,18.18-15,5.64-25.6,1.34-31.84-3.26a6.93,6.93,0,0,1-2.82-5.42,7,7,0,0,1,2.57-5.65l33.77-28c-19.08-3.64-42.9.39-43.15.43a.94.94,0,0,1-.57-.07l-14.12-6.27c-3.6,25.48-24,49.11-33.77,59.09l20.78,11.08a1,1,0,0,1,.37.34c.06.1,6.46,9.7,22.54,18a13.37,13.37,0,0,1,2-3.42l6-7.49a13.22,13.22,0,0,1,23.42,6.78l2.47-3a13.22,13.22,0,0,1,23.5,8.34v.13A13.2,13.2,0,0,1,309,401.11a13.61,13.61,0,0,1-.32,2.92,13.16,13.16,0,0,1,10.69,2.72,1,1,0,1,1-1.26,1.55,11.2,11.2,0,0,0-10.58-1.92,1,1,0,0,1-1-.26,1,1,0,0,1-.21-1,11.42,11.42,0,0,0,.71-4A11.21,11.21,0,0,0,290.89,391a1,1,0,0,1-1-.09,1,1,0,0,1-.41-.94,11.74,11.74,0,0,0,.1-1.52,11.22,11.22,0,0,0-19.95-7.08l-4.21,5.2a1,1,0,0,1-1.77-.73c0-.38.05-.75.05-1.12a11.22,11.22,0,0,0-19.95-7.09l-6,7.49a11.2,11.2,0,0,0-2,3.78,1,1,0,0,1-1.27.66l-.52-.17-.14-.06c-15.81-8-22.6-17.18-23.69-18.75L188.33,359a1,1,0,0,1-.52-.73,1,1,0,0,1,.28-.86c9.29-9.37,31.24-34,34.32-60.21a1,1,0,0,1,.5-.75,1,1,0,0,1,.9-.05l15.07,6.69c3-.48,27-4.12,45.63.06a1,1,0,0,1,.76.74,1,1,0,0,1-.34,1l-35.37,29.35a5.06,5.06,0,0,0-1.84,4.06,4.94,4.94,0,0,0,2,3.86c5.83,4.31,15.77,8.32,29.94,3,23.06-8.67,25.63-17.7,25.65-17.79a1.05,1.05,0,0,1,.49-.64,1,1,0,0,1,.8-.07l8,2.62a1,1,0,0,1,.58.5,1.18,1.18,0,0,1,.07.2l70.94,55.43c.2.15.4.32.61.49a13.23,13.23,0,0,1-8.71,23.21,13.07,13.07,0,0,1-8.06-2.74l-1.54-1.2a13.19,13.19,0,0,1-13.22,13.92,13.86,13.86,0,0,1-2-.16A13.14,13.14,0,0,1,340,431.74Z"/><path class="cls-4" d="M350.09,357a17.64,17.64,0,0,1-3.94-.45,1,1,0,0,1-.39-.19l-32.15-25.12a1,1,0,0,1-.33-1.1l.07-.21a1,1,0,0,1,.5-.58l.18-.07c1.8-1.22,14.64-10.55,14.56-27.46A1,1,0,0,1,329,301a1,1,0,0,1,.81-.22l9.28,1.59A33.82,33.82,0,0,1,352.83,308a34.42,34.42,0,0,1,14.91,28.35,35.55,35.55,0,0,1-.59,6.41A17.44,17.44,0,0,1,350.09,357Zm-3.28-2.35a15.41,15.41,0,0,0,18.37-12.21,33.28,33.28,0,0,0,.56-6,32.44,32.44,0,0,0-14-26.71h0a31.87,31.87,0,0,0-13-5.3L330.58,303c-.46,15.71-11.41,25-14.74,27.45Z"/><path class="cls-4" d="M324.18,437.34a13.13,13.13,0,0,1-8.05-2.73L314,432.92a1,1,0,0,1-.38-.68,1,1,0,0,1,.21-.74l6-7.39a11.19,11.19,0,0,0,2-3.86v0a11.41,11.41,0,0,0,.44-3.15,11.21,11.21,0,0,0-4.15-8.76,1,1,0,0,1,1.26-1.55,13.17,13.17,0,0,1,4.89,10.31,13.68,13.68,0,0,1-.35,3.06l11.8,8.77a1,1,0,0,1,.3,1.25,12.13,12.13,0,0,1-1.31,2.06A13.15,13.15,0,0,1,324.18,437.34ZM316,432l1.37,1.07a11.27,11.27,0,0,0,15.74-2,10.64,10.64,0,0,0,.7-1l-10.56-7.85a13.42,13.42,0,0,1-1.93,3.24Z"/><path class="cls-4" d="M314.35,331.22a.87.87,0,0,1-.32-.06l-8-2.63a1,1,0,0,1-.68-1.1c.11-.73,2.34-17.93-17.14-25.95a1,1,0,0,1-.6-.77,1,1,0,0,1,.35-.92,17.34,17.34,0,0,1,14-3.76l27.82,4.75a1,1,0,0,1,.83,1C330.69,321,315,331,314.88,331.07A1,1,0,0,1,314.35,331.22Zm-7-4.35,6.84,2.24c2.28-1.59,14.06-10.58,14.39-26.5l-27-4.61a15.4,15.4,0,0,0-11.09,2.33C307.36,308.15,307.58,323.15,307.36,326.87Z"/><path class="cls-4" d="M300.42,443.36a13.19,13.19,0,0,1-13.18-13.23,13.39,13.39,0,0,1,.08-1.46,1,1,0,0,1,.45-.74,10.77,10.77,0,0,0,2.61-2.34l14.12-17.43a11.47,11.47,0,0,0,1.77-3.09,1,1,0,0,1,.62-.59,13.26,13.26,0,0,1,16.82,16.32h0a13.17,13.17,0,0,1-2.4,4.57l-10.57,13.09a13.1,13.1,0,0,1-8.9,4.82A13.67,13.67,0,0,1,300.42,443.36Zm-11.15-14c0,.25,0,.51,0,.79a11.23,11.23,0,0,0,19.95,7.08l10.56-13.1a11.11,11.11,0,0,0,2-3.88,11.22,11.22,0,0,0-13.84-14,13.2,13.2,0,0,1-1.9,3.18l-14.11,17.43A13.14,13.14,0,0,1,289.27,429.34Zm33.48-8.82h0Z"/><path class="cls-4" d="M281.64,431.75a13.23,13.23,0,0,1-13.21-13.24,13.88,13.88,0,0,1,.12-1.78,1,1,0,0,1,.56-.77,11.27,11.27,0,0,0,3.86-3l14.12-17.44a11.21,11.21,0,0,0,2.38-5.54,1,1,0,0,1,.56-.77,13.33,13.33,0,0,1,14.06,1.64,13.34,13.34,0,0,1,4.05,15,13.5,13.5,0,0,1-2.09,3.64l-14.11,17.43a13,13,0,0,1-3.09,2.77A13.32,13.32,0,0,1,281.64,431.75ZM270.48,417.5c0,.35-.05.68-.05,1a11.22,11.22,0,0,0,17.34,9.43,11,11,0,0,0,2.61-2.35l14.12-17.43a11.47,11.47,0,0,0,1.77-3.09,11.32,11.32,0,0,0,.71-4,11.2,11.2,0,0,0-15.61-10.35,13.2,13.2,0,0,1-2.73,6l-14.12,17.44A12.88,12.88,0,0,1,270.48,417.5Z"/><path class="cls-4" d="M266.61,349.69a30,30,0,0,1-18.07-5.95,6.93,6.93,0,0,1-2.82-5.42,7,7,0,0,1,2.57-5.65l39.62-32.88a1,1,0,0,1,1-.16c20.95,8.63,18.39,27.9,18.36,28.09-.11.49-2.63,10.16-26.9,19.28A39,39,0,0,1,266.61,349.69Zm22.11-48-39.16,32.5a5.06,5.06,0,0,0-1.84,4.06,4.94,4.94,0,0,0,2,3.86c5.83,4.31,15.77,8.32,29.94,3,23.06-8.67,25.63-17.7,25.65-17.79C305.41,326.71,307.59,309.83,288.72,301.71Z"/><path class="cls-4" d="M264.25,419.05A13.17,13.17,0,0,1,251,405.82a13.45,13.45,0,0,1,.39-3.22,1.05,1.05,0,0,1,.49-.64,10.93,10.93,0,0,0,3.26-2.73l6-7.5a11.09,11.09,0,0,0,2.44-5.92.93.93,0,0,1,.22-.53l4.21-5.2a13.22,13.22,0,0,1,23.5,8.34,13.67,13.67,0,0,1-.11,1.77,13.22,13.22,0,0,1-2.82,6.54l-14.12,17.44a13.13,13.13,0,0,1-10.27,4.88Zm-11-15.56a11.37,11.37,0,0,0-.24,2.33,11.24,11.24,0,0,0,20,7.09l14.12-17.44a11.21,11.21,0,0,0,2.38-5.54,11.48,11.48,0,0,0,.1-1.51,11.22,11.22,0,0,0-19.95-7.08l-4,5a13.14,13.14,0,0,1-2.83,6.68l-6.05,7.49A13,13,0,0,1,253.26,403.49Z"/><path class="cls-4" d="M246.45,405.36a13.15,13.15,0,0,1-13.24-13.22,13.16,13.16,0,0,1,2.94-8.31l6-7.49a13.22,13.22,0,0,1,23.51,8.35c0,.44,0,.87-.06,1.31a13.15,13.15,0,0,1-2.87,7l-6.05,7.49a12.7,12.7,0,0,1-3.85,3.23A13.14,13.14,0,0,1,246.45,405.36Zm6-31.92a11.23,11.23,0,0,0-8.75,4.16l-6,7.49a11.27,11.27,0,0,0,1.66,15.8A11.34,11.34,0,0,0,251.9,402a10.93,10.93,0,0,0,3.26-2.73l6-7.5a11.09,11.09,0,0,0,2.44-5.92c0-.38.05-.75.05-1.12a11.19,11.19,0,0,0-11.2-11.25Z"/><path class="cls-4" d="M156.62,363.84a41.55,41.55,0,0,1-12.16-2L33,334.81a1,1,0,1,1,.47-1.94L145,359.92c.27.08,19,6.33,24.83-4.45a1,1,0,0,1,1.26-.44l13.5,5.72c.63-.58,1.85-1.74,3.48-3.38,9.29-9.37,31.24-34,34.32-60.21.13-1.1.23-2.22.29-3.34L209,286.53a1,1,0,0,1-.52-1c0-.14,1.4-13.86-9-19.4-10.94-5.84-165.14-67.9-166.7-68.53a1,1,0,1,1,.75-1.85c6.36,2.56,155.85,62.73,166.89,68.61,10.31,5.51,10.27,17.65,10.08,20.7l13.64,7.28a1,1,0,0,1,.53.93c-.06,1.38-.17,2.76-.33,4.12-3.16,26.83-25.45,51.86-34.89,61.38-2.45,2.47-4,3.84-4,3.89a1,1,0,0,1-1.06.18l-13.28-5.64C167.85,362.42,162,363.84,156.62,363.84Z"/><path class="cls-4" d="M367.13,403.8a1,1,0,0,1-1-.78,16.62,16.62,0,0,0-4.46-8l-35.94-30.23a1,1,0,0,1,1.29-1.53L363,393.48a18.33,18.33,0,0,1,5.11,9.09,1,1,0,0,1-.75,1.2A.91.91,0,0,1,367.13,403.8Z"/><path class="cls-4" d="M352.23,418.67h-.05a1,1,0,0,1-.95-1,1.3,1.3,0,0,0,0-.26,8.93,8.93,0,0,0-3.35-6.91L311.5,380.94a1,1,0,0,1,1.26-1.55l36.39,29.52a10.94,10.94,0,0,1,4.09,8.45c0,.24,0,.37,0,.37A1,1,0,0,1,352.23,418.67Z"/><path class="cls-4" d="M390.34,314.5a1,1,0,0,1-1-.84c0-.13-1.92-12.84,9.8-18.8l166.28-95.08a1,1,0,0,1,1,1.73L400.1,296.62c-10.45,5.31-8.85,16.26-8.78,16.72a1,1,0,0,1-.83,1.15Z"/><path class="cls-4" d="M172.3,352.9a1,1,0,0,1-.61-.21,1,1,0,0,1-.17-1.4c.27-.35,27.33-35.05,34.28-63a1,1,0,0,1,1.22-.73,1,1,0,0,1,.72,1.21c-7.05,28.38-34.37,63.41-34.65,63.76A1,1,0,0,1,172.3,352.9Z"/><path class="cls-4" d="M264.69,344.56a1,1,0,0,1-.18-2c.25-.05,25.25-4.77,32.85-18.45a1,1,0,0,1,1.75,1c-8.06,14.51-33.17,19.25-34.24,19.45Z"/><path class="cls-4" d="M426.11,357a1,1,0,0,1-.4-1.92l86.45-38.23a1,1,0,1,1,.81,1.82l-86.46,38.24A.93.93,0,0,1,426.11,357Z"/><path class="cls-4" d="M523.13,314.5a1,1,0,0,1-.93-.62,1,1,0,0,1,.55-1.31l39.75-16.22a1,1,0,0,1,1.31.55,1,1,0,0,1-.55,1.3l-39.75,16.22A.9.9,0,0,1,523.13,314.5Z"/><path class="cls-4" d="M410.41,306.18a4.95,4.95,0,1,1,4.95-4.95A5,5,0,0,1,410.41,306.18Zm0-7.9a3,3,0,1,0,2.95,3A3,3,0,0,0,410.41,298.28Z"/><path class="cls-4" d="M437.22,290.12a4.95,4.95,0,1,1,4.95-4.95A5,5,0,0,1,437.22,290.12Zm0-7.9a2.95,2.95,0,1,0,2.95,2.95A3,3,0,0,0,437.22,282.22Z"/><path class="cls-4" d="M464.6,275.27a4.95,4.95,0,1,1,4.95-4.95A5,5,0,0,1,464.6,275.27Zm0-7.89a2.95,2.95,0,1,0,2.95,2.94A2.95,2.95,0,0,0,464.6,267.38Z"/><path class="cls-4" d="M491.4,259.22a5,5,0,1,1,5-5A5,5,0,0,1,491.4,259.22Zm0-7.9a3,3,0,1,0,3,3A3,3,0,0,0,491.4,251.32Z"/><path class="cls-4" d="M515.4,246.15a5,5,0,1,1,5-5A5,5,0,0,1,515.4,246.15Zm0-7.9a2.95,2.95,0,1,0,3,2.95A2.95,2.95,0,0,0,515.4,238.25Z"/><path class="cls-4" d="M542.2,230.09a5,5,0,1,1,4.95-5A5,5,0,0,1,542.2,230.09Zm0-7.9a2.95,2.95,0,1,0,2.95,2.95A3,3,0,0,0,542.2,222.19Z"/></g><path class="cls-5" d="M128.25,450.8l5.18,3.33a35.53,35.53,0,0,0,5.37-16.21l-6.12-.44a28.24,28.24,0,0,0-1.42-11.18l5.8-2A34.17,34.17,0,0,0,127.73,410l-4.12,4.48a30.5,30.5,0,0,0-3.93-3,29.58,29.58,0,0,0-5.72-2.84l2.07-5.75a34.33,34.33,0,0,0-17-1.63l.93,6.05a28.06,28.06,0,0,0-10.59,3.88L86.18,406A34,34,0,0,0,74.3,418.21l5.3,3.06A28.75,28.75,0,0,0,76,432L70,431.22a34,34,0,0,0,2.17,16.92l5.71-2.24A28.12,28.12,0,0,0,84,455.36l-4.38,4.27a34.93,34.93,0,0,0,14.6,8.89L96,462.66a28,28,0,0,0,11.21,1.06l.65,6.13a34.87,34.87,0,0,0,16-5.89l-3.45-5A28.41,28.41,0,0,0,128.25,450.8Zm-33.44-.6a17.56,17.56,0,1,1,24.24-5.3A17.57,17.57,0,0,1,94.81,450.2Z"/><path class="cls-4" d="M176.87,473.1a1,1,0,0,1-1-.9l-.33-3.18a20,20,0,0,1-6-.58l-.94,3a1,1,0,0,1-.49.6,1,1,0,0,1-.76.06A24.73,24.73,0,0,1,157,465.86a1,1,0,0,1,0-1.41l2.26-2.22a20.09,20.09,0,0,1-3.3-5.1l-3,1.17a1,1,0,0,1-1.29-.57,24,24,0,0,1-1.53-12,1,1,0,0,1,1.11-.86l3.15.39a20.37,20.37,0,0,1,1.93-5.76l-2.76-1.59a1,1,0,0,1-.37-1.36,23.92,23.92,0,0,1,8.42-8.68,1,1,0,0,1,1.37.33l1.66,2.72a19.74,19.74,0,0,1,5.7-2.09l-.48-3.14a1,1,0,0,1,.83-1.14,24.33,24.33,0,0,1,12,1.15,1,1,0,0,1,.57.52,1,1,0,0,1,0,.76l-1.08,3a19.63,19.63,0,0,1,3.15,1.65,21,21,0,0,1,2.05,1.5l2.14-2.32a1,1,0,0,1,1.4-.07,24.15,24.15,0,0,1,6.61,10.13,1,1,0,0,1,0,.77,1,1,0,0,1-.58.51l-3,1a20.1,20.1,0,0,1,.77,6l3.17.22a1,1,0,0,1,.69.35,1,1,0,0,1,.24.73,25,25,0,0,1-3.8,11.45,1,1,0,0,1-.63.45,1,1,0,0,1-.75-.14L191,460.54a20,20,0,0,1-4.24,4.37l1.8,2.63a1,1,0,0,1,.16.75,1,1,0,0,1-.43.64A24.67,24.67,0,0,1,177,473.09Zm-.44-6.16a1,1,0,0,1,.63.22,1,1,0,0,1,.36.67l.33,3.15a22.58,22.58,0,0,0,8.58-3.16l-1.77-2.59a1,1,0,0,1-.15-.75,1,1,0,0,1,.42-.64,17.89,17.89,0,0,0,5-5.21,1,1,0,0,1,.63-.43,1,1,0,0,1,.76.13l2.64,1.7a23,23,0,0,0,2.88-8.67l-3.13-.23a1,1,0,0,1-.93-1.07,18,18,0,0,0-.91-7.19,1,1,0,0,1,.05-.76,1,1,0,0,1,.58-.51l3-1a22.46,22.46,0,0,0-5-7.68l-2.12,2.3a1,1,0,0,1-1.4.07,19.81,19.81,0,0,0-2.54-2,18.13,18.13,0,0,0-3.69-1.83,1,1,0,0,1-.59-1.28l1.06-2.94a22.32,22.32,0,0,0-9.1-.88l.48,3.1a1,1,0,0,1-.18.75,1,1,0,0,1-.66.39,18.19,18.19,0,0,0-6.81,2.5,1,1,0,0,1-1.38-.33l-1.64-2.68a22,22,0,0,0-6.36,6.56l2.72,1.57a1,1,0,0,1,.37,1.37,18.43,18.43,0,0,0-2.3,6.88,1,1,0,0,1-1.12.87l-3.1-.39a22,22,0,0,0,1.16,9.06l2.93-1.15a1,1,0,0,1,.77,0,1.05,1.05,0,0,1,.53.55,18,18,0,0,0,3.94,6.09,1,1,0,0,1,.28.71,1,1,0,0,1-.3.7l-2.24,2.19a23,23,0,0,0,7.82,4.74l.92-3a1,1,0,0,1,1.24-.66,17.92,17.92,0,0,0,7.21.68Z"/><path class="cls-4" d="M174.42,461.65a12.77,12.77,0,0,1-6.93-2,12.91,12.91,0,1,1,9.72,1.74A13.24,13.24,0,0,1,174.42,461.65Zm.07-23.82a11.11,11.11,0,0,0-2.35.25,10.92,10.92,0,1,0,2.35-.25Z"/><path class="cls-3" d="M168.72,397.91l2.65,1.7a18.08,18.08,0,0,0,2.74-8.29L171,391.1a14.53,14.53,0,0,0-.73-5.71l3-1a17.46,17.46,0,0,0-4.77-7.32l-2.11,2.28a16.65,16.65,0,0,0-2-1.54,15.27,15.27,0,0,0-2.92-1.45l1.06-2.94a17.55,17.55,0,0,0-8.68-.83l.47,3.09a14.55,14.55,0,0,0-5.41,2L147.23,375a17.26,17.26,0,0,0-6.07,6.26l2.71,1.57a14.53,14.53,0,0,0-1.83,5.46l-3.1-.38a17.33,17.33,0,0,0,1.11,8.64L143,395.4a14.46,14.46,0,0,0,3.12,4.84l-2.23,2.18a17.92,17.92,0,0,0,7.46,4.54l.91-3a14.55,14.55,0,0,0,5.73.54l.33,3.13a17.87,17.87,0,0,0,8.19-3l-1.77-2.58A14.54,14.54,0,0,0,168.72,397.91Zm-17.08-.31A9,9,0,1,1,164,394.89,9,9,0,0,1,151.64,397.6Z"/><path class="cls-5" d="M515.46,138.05l5.12,3.2a34.52,34.52,0,0,0,5.09-16l-6-.36a27.69,27.69,0,0,0-1.52-11l5.67-2a33.38,33.38,0,0,0-9.32-14l-4,4.44a31.09,31.09,0,0,0-3.89-2.92A28.71,28.71,0,0,0,501,96.8l2-5.68a33.73,33.73,0,0,0-16.7-1.4l1,5.93a27.84,27.84,0,0,0-10.36,3.93l-3.19-5.1a33.25,33.25,0,0,0-11.54,12.17l5.25,2.95A28.14,28.14,0,0,0,464,120.14l-6-.67a33.51,33.51,0,0,0,2.32,16.6l5.59-2.27A27.48,27.48,0,0,0,472,143l-4.25,4.25a34.21,34.21,0,0,0,14.44,8.56l1.69-5.77a27.38,27.38,0,0,0,11,.91l.7,6a34.3,34.3,0,0,0,15.66-6l-3.45-4.93A27.66,27.66,0,0,0,515.46,138.05Zm-32.85-.21a17.25,17.25,0,1,1,23.75-5.49A17.27,17.27,0,0,1,482.61,137.84Z"/><path class="cls-4" d="M503.83,72.44a1,1,0,0,1-1-.89l-.29-2.83a18.15,18.15,0,0,1-5.38-.52l-.84,2.7a1,1,0,0,1-.49.6,1,1,0,0,1-.76.06,22.66,22.66,0,0,1-9.46-5.76,1,1,0,0,1,0-1.41l2-2a18.31,18.31,0,0,1-2.93-4.53l-2.64,1a1,1,0,0,1-1.29-.56,22.11,22.11,0,0,1-1.41-11,1,1,0,0,1,1.12-.86l2.8.35A18.51,18.51,0,0,1,485,41.73l-2.45-1.41a1,1,0,0,1-.37-1.36,22,22,0,0,1,7.72-8,1,1,0,0,1,1.37.34l1.46,2.41a18.64,18.64,0,0,1,5.09-1.86l-.43-2.78a1,1,0,0,1,.83-1.14,22.31,22.31,0,0,1,11,1.05,1,1,0,0,1,.61,1.28L508.89,33a18.88,18.88,0,0,1,2.81,1.5,17.66,17.66,0,0,1,1.81,1.32l1.9-2.06a1,1,0,0,1,1.4-.07,22,22,0,0,1,6.05,9.28,1,1,0,0,1,0,.77,1,1,0,0,1-.58.51l-2.67.9a18.7,18.7,0,0,1,.69,5.36l2.81.21a1,1,0,0,1,.68.34,1,1,0,0,1,.24.73,22.77,22.77,0,0,1-3.48,10.49,1,1,0,0,1-.63.44,1,1,0,0,1-.75-.13L516.75,61A18.56,18.56,0,0,1,513,64.9l1.59,2.33a1,1,0,0,1-.26,1.39,22.71,22.71,0,0,1-10.38,3.81Zm-.4-5.8a1,1,0,0,1,.62.22,1,1,0,0,1,.37.67l.3,2.79a20.74,20.74,0,0,0,7.62-2.81l-1.56-2.29a1,1,0,0,1,.26-1.39,16.56,16.56,0,0,0,4.59-4.73,1,1,0,0,1,.63-.44,1,1,0,0,1,.75.14l2.33,1.5a20.84,20.84,0,0,0,2.56-7.71l-2.76-.2a1,1,0,0,1-.92-1.07,16.51,16.51,0,0,0-.84-6.54,1,1,0,0,1,0-.76,1,1,0,0,1,.58-.51l2.61-.88a20.29,20.29,0,0,0-4.42-6.83l-1.87,2a1,1,0,0,1-1.41.07,17.07,17.07,0,0,0-2.3-1.77,16.9,16.9,0,0,0-3.35-1.67,1,1,0,0,1-.59-1.27l.93-2.6a20.22,20.22,0,0,0-8.09-.78l.42,2.75a1,1,0,0,1-.18.74,1,1,0,0,1-.66.4A16.24,16.24,0,0,0,492.91,36a1,1,0,0,1-1.38-.33l-1.44-2.38a20.07,20.07,0,0,0-5.66,5.84l2.41,1.39a1,1,0,0,1,.37,1.36,16.68,16.68,0,0,0-2.09,6.26A1,1,0,0,1,484,49l-2.75-.34a20.27,20.27,0,0,0,1,8.06l2.6-1a1,1,0,0,1,.76,0,1,1,0,0,1,.53.56,16.24,16.24,0,0,0,3.57,5.52,1,1,0,0,1,0,1.41l-2,1.94a20.75,20.75,0,0,0,7,4.22l.81-2.64a1,1,0,0,1,1.24-.67,16.26,16.26,0,0,0,6.55.63Z"/><path class="cls-3" d="M460.21,63.08l3.89,2.5a26.61,26.61,0,0,0,4-12.18l-4.6-.33a21.14,21.14,0,0,0-1.07-8.4l4.36-1.47a25.6,25.6,0,0,0-7-10.76l-3.1,3.36a24.12,24.12,0,0,0-3-2.27,22.54,22.54,0,0,0-4.29-2.13L451,27.07a26,26,0,0,0-12.76-1.22L439,30.4a21.32,21.32,0,0,0-8,2.91l-2.4-3.93a25.51,25.51,0,0,0-8.93,9.21l4,2.3a21.73,21.73,0,0,0-2.69,8l-4.56-.57A25.66,25.66,0,0,0,418,61.08l4.3-1.68a21.16,21.16,0,0,0,4.6,7.11l-3.29,3.21a26.28,26.28,0,0,0,11,6.67L436,72a21,21,0,0,0,8.42.8l.49,4.61a26.33,26.33,0,0,0,12-4.43l-2.6-3.8A21.18,21.18,0,0,0,460.21,63.08Zm-25.12-.45a13.2,13.2,0,1,1,18.21-4A13.2,13.2,0,0,1,435.09,62.63Z"/></svg>