<svg xmlns="http://www.w3.org/2000/svg" viewBox="0 0 592 500"><defs><style>.cls-1,.cls-7{fill:#fff;}.cls-2{fill:#d7e4f9;}.cls-3{opacity:0.95;}.cls-4{fill:#84524d;}.cls-5{fill:none;stroke:#407bff;}.cls-5,.cls-7{stroke-miterlimit:10;}.cls-6{fill:#407bff;}.cls-7{stroke:#417ae0;stroke-width:2px;}.cls-8{fill:#c6a695;}.cls-9{fill:#363e44;}.cls-10{fill:#779ce8;}.cls-11{fill:#f97d8c;stroke:#779ce8;stroke-linejoin:round;stroke-width:0.75px;}.cls-12{fill:#d87355;}.cls-13{fill:#8b865c;}</style></defs><g id="Layer_1" data-name="Layer 1"><rect class="cls-1" x="-56.5" y="-36.56" width="672.51" height="557.68"/><rect class="cls-1" x="586.8" y="-45.34" width="672.51" height="557.68"/></g><g id="Layer_4" data-name="Layer 4"><g id="Illustration"><g id="Project_initiation" data-name="Project initiation"><circle class="cls-2" cx="296.1" cy="250" r="214.11"/><g class="cls-3"><path class="cls-4" d="M414,319.07h-.15l-38.56-.3a18.9,18.9,0,0,1-18.74-19l.14-17a18.92,18.92,0,0,1,18.9-18.75h.15l38.55.3a18.88,18.88,0,0,1,18.74,19l-.14,17.05A18.92,18.92,0,0,1,414,319.07Zm-.14-1H414a17.89,17.89,0,0,0,17.86-17.72l.14-17a17.86,17.86,0,0,0-17.72-18l-38.55-.3h-.14a17.89,17.89,0,0,0-17.87,17.73l-.14,17a17.86,17.86,0,0,0,17.72,18Z"/><rect class="cls-5" x="314.84" y="268.63" width="161.3" height="225.78" transform="translate(10.9 774.02) rotate(-89.55)"/><path class="cls-6" d="M395,392.3a.56.56,0,0,1-.32-.11l-98.61-77a.51.51,0,1,1,.63-.81L395,391.13l98.49-75.31a.52.52,0,0,1,.73.1.51.51,0,0,1-.1.72l-98.81,75.55A.45.45,0,0,1,395,392.3Z"/><rect class="cls-6" x="387.03" y="374.07" width="16.79" height="31.82" transform="translate(2.37 782.35) rotate(-89.55)"/></g><rect class="cls-7" x="283.79" y="253.91" width="109.35" height="47.94"/><path class="cls-8" d="M300.11,346.27c0,1.07.26,39,.26,39l-21.24-1-11.92-38Z"/><path class="cls-1" d="M302,381.67l-24.76-.32-13.74,44.52s37.8,12.23,37.88,11.43S302,381.67,302,381.67Z"/><path class="cls-9" d="M294.3,394.7h-10a.52.52,0,1,1,0-1h10a.52.52,0,1,1,0,1Z"/><path class="cls-9" d="M294.3,400.94h-9.89a.52.52,0,1,1,0-1h9.89a.52.52,0,1,1,0,1Z"/><path class="cls-7" d="M304.37,352.75h-39l-11.13-56.54a23.83,23.83,0,0,1,21.92-28.38l21.28-1.3Z"/><polygon class="cls-8" points="421.66 278.36 394.92 304.17 372.26 287.24 394.09 257.14 421.66 278.36"/><polygon class="cls-1" points="399.81 300.32 386.17 331.34 348.35 306.61 374.84 282.01 399.81 300.32"/><path class="cls-7" d="M421.66,284.16,388.38,260.3l20-30.77a24.79,24.79,0,0,1,36.44-5.74h0a24.79,24.79,0,0,1,1.37,37.28Z"/><path class="cls-9" d="M387.56,302.52a.53.53,0,0,1-.27-.08l-11.23-7.13a.51.51,0,0,1-.16-.71.52.52,0,0,1,.71-.16l11.23,7.13a.52.52,0,0,1,.16.71A.54.54,0,0,1,387.56,302.52Z"/><path class="cls-9" d="M385.13,306.08a.48.48,0,0,1-.28-.08l-11.23-7.13a.51.51,0,0,1,.55-.87l11.23,7.13a.52.52,0,0,1,.16.71A.5.5,0,0,1,385.13,306.08Z"/><path class="cls-1" d="M386,259.46s-44,.34-77.75.84l7.36-69.54s33.5-12.55,70.57-10.16Z"/><path class="cls-6" d="M325.09,187.25l-7.27,74.91-62.54,1.42s-2.64-25.22,20.08-50.64a60.76,60.76,0,0,1,18.78-14.11C302,195,314.92,189.12,325.09,187.25Z"/><path class="cls-6" d="M373.9,180l-2.44,79.94s60,16.05,60-24c0-17.17-4.69-29.85-9.42-38.26a32.61,32.61,0,0,0-22.09-16A95.39,95.39,0,0,0,373.9,180Z"/><path class="cls-9" d="M399.81,220.81a.51.51,0,0,1-.5-.38l-2.71-10.19a.51.51,0,1,1,1-.27l2.72,10.19a.51.51,0,0,1-.37.63A.3.3,0,0,1,399.81,220.81Z"/><path class="cls-9" d="M423.37,233.07a.54.54,0,0,1-.48-.31c-.22-.51-5.57-12.34-21.4-10.87a.51.51,0,1,1-.09-1c16.59-1.54,22.38,11.35,22.44,11.48a.53.53,0,0,1-.27.68A.79.79,0,0,1,423.37,233.07Z"/><path class="cls-8" d="M311.91,239.81c3-2,14.29-12.23,20.93-9.72s10.6,9.39,12,16.41l-.05.07a14,14,0,0,1-3.84,7c-2.72,2.56-4.63,1.94-7.92,4.2-5.55,3.81-5.46,9.47-7.79,8.94-1.59-.37-1.78-3.66-1.17-6.71s2.34-4.9,1.94-5.24-2,1.65-4.07,4c-1,1.08-1.85,5.73-4.1,5.55-1.8-.14-2.11-5.2,0-9.08,1.48-2.75,4.31-3.85,4-4.33s-1.9.34-3.16,1.36c-2.08,1.69-3,6.43-5.09,6.23s-2.22-4.61-.52-8.31c1.43-3.12,4.64-4.19,4.26-4.79-.26-.42-1.8-.24-4.76,1.08-2.48,1.09-6.58,4.82-8.11,2.41C303.13,246.82,307.34,242.8,311.91,239.81Z"/><path class="cls-8" d="M398.43,225.61a17.43,17.43,0,0,1,14.11,11.53c2,5.91,1.84,13.31-7.24,19.09-18,11.45-66.82-8.3-66.82-8.3l-9.15-18.14C351.75,224.39,376.51,222.56,398.43,225.61Z"/><path class="cls-9" d="M243.47,266.09a9.26,9.26,0,0,0,8.39,5.34h57.79l-25.88-55.31H220.09Z"/><path class="cls-9" d="M347.58,265.88h0a5.58,5.58,0,0,1-5.58,5.58H288.72l-2.61-5.58Z"/><path class="cls-8" d="M227.09,242.05c.2,2.07.54,3.74,4.13,3.38s9.08-2.58,8.88-4.66-6-3.2-9.62-2.85S226.88,240,227.09,242.05Z"/><path class="cls-8" d="M242.55,246.1c-.21-2.07-6-3.2-9.62-2.85s-3.6,2.06-3.39,4.13Z"/><path class="cls-4" d="M229.54,247.38c.2,2.08.54,3.74,4.13,3.39s9.08-2.59,8.88-4.67Z"/><path class="cls-8" d="M245,251.44c-.21-2.08-6-3.21-9.62-2.85s-3.6,2-3.4,4.12Z"/><path class="cls-4" d="M232,252.71c.21,2.08.55,3.74,4.14,3.39s9.08-2.59,8.88-4.66Z"/><path class="cls-8" d="M244.7,256.26c-.16-1.65-4.78-2.54-7.64-2.26s-2.86,1.63-2.7,3.28Z"/><path class="cls-8" d="M234.36,257.27c.16,1.65.43,3,3.29,2.7s7.21-2.06,7-3.71Z"/><path class="cls-8" d="M361.69,157.33c-1.47,2-1.29,4.59.39,5.84s4.24.65,5.71-1.32,1.29-4.6-.4-5.85S363.15,155.35,361.69,157.33Z"/><path class="cls-8" d="M343.59,156.41c1.25,2.11.81,4.7-1,5.77s-4.28.22-5.54-1.9-.82-4.7,1-5.77S342.33,154.29,343.59,156.41Z"/><path class="cls-8" d="M353.52,190.93h0a8,8,0,0,0,7.6-8.33L360.38,160l-15.92.73.74,22.61A8,8,0,0,0,353.52,190.93Z"/><path class="cls-9" d="M350.67,178.23c12.77.75,13.25-20.57,13.25-20.57l-22.64-.77S338.28,177.5,350.67,178.23Z"/><circle class="cls-9" cx="359.53" cy="151.48" r="8.12"/><path class="cls-8" d="M341.52,158.53c-.36,7.09,4.24,3.36,10.28,3.67s11.23,4.54,11.59-2.56-4.24-11.15-10.28-11.46S341.88,151.43,341.52,158.53Z"/><path class="cls-9" d="M341.52,162.49a.52.52,0,0,1-.51-.42,15.77,15.77,0,0,1-.22-3.57,15.08,15.08,0,0,1,.48-3.15.52.52,0,1,1,1,.26,14.4,14.4,0,0,0-.45,2.94,14.18,14.18,0,0,0,.21,3.33.52.52,0,0,1-.42.6Z"/><path class="cls-9" d="M363.06,163.51l-.14,0a.53.53,0,0,1-.36-.64,14.31,14.31,0,0,0,.37-6.27.52.52,0,0,1,.43-.59.51.51,0,0,1,.59.43,15.5,15.5,0,0,1-.39,6.71A.53.53,0,0,1,363.06,163.51Z"/><path class="cls-9" d="M351.7,163a.56.56,0,0,1-.32-.11,1.62,1.62,0,0,1-.74-1.21,1.49,1.49,0,0,1,.35-.91,1.23,1.23,0,0,0,.26-.49,1.05,1.05,0,0,0-.06-.6.52.52,0,0,1,1-.34,2.08,2.08,0,0,1,.09,1.15,2.17,2.17,0,0,1-.43.89c-.11.15-.16.22-.15.28s0,.18.33.41a.52.52,0,0,1,.1.73A.54.54,0,0,1,351.7,163Z"/><path class="cls-2" d="M353.4,166.13h-.28a.52.52,0,0,1,.09-1,2.54,2.54,0,0,0,1.54-.38,2.38,2.38,0,0,0,.77-.81.51.51,0,0,1,.71-.18.5.5,0,0,1,.18.7,3.4,3.4,0,0,1-1.1,1.16A3.58,3.58,0,0,1,353.4,166.13Z"/><path class="cls-9" d="M364.84,155.92s-5.85.86-11.92-6.28c0,0-11.26,14.72-19.92-3,0,0,5.07,2.24,7.8-1.3,4.33-5.63,14.72-10.18,18.84.22Z"/><path class="cls-2" d="M345.27,156.75h0c0,.05,0,.12.1.13a1.2,1.2,0,0,1,.13.31c.08.16.33,0,.25-.13s.31.11.48.18c.51.23,1,.44,1.57.63l.74.25a5.53,5.53,0,0,0,.92.28,7.23,7.23,0,0,1,1,1.28,7.26,7.26,0,0,1-2.28.39.07.07,0,0,0,0,0,10.67,10.67,0,0,0-3-.89,7,7,0,0,1-1.85-2A6.85,6.85,0,0,1,345.27,156.75Z"/><path class="cls-9" d="M347.41,157a5.59,5.59,0,0,1,2.08,1.37,2.3,2.3,0,0,1-.86,1.43,3,3,0,0,1-.38.24,5.44,5.44,0,0,1-1.82-.29,4.81,4.81,0,0,1-1.21-.64,2.28,2.28,0,0,1,.08-2.39A5.29,5.29,0,0,1,347.41,157Z"/><path class="cls-2" d="M359.62,157.67h0c0,.05-.06.12-.12.12a1.35,1.35,0,0,0-.16.29c-.09.15-.33,0-.23-.15s-.33.08-.5.13c-.53.18-1.07.33-1.62.47l-.77.18a6,6,0,0,1-.94.18,6.79,6.79,0,0,0-1.12,1.17,7,7,0,0,0,2.22.62s0,0,0-.05a10.82,10.82,0,0,1,3.07-.58,7.09,7.09,0,0,0,2.05-1.81A7,7,0,0,0,359.62,157.67Z"/><path class="cls-9" d="M357.47,157.73a5.66,5.66,0,0,0-2.21,1.16,2.35,2.35,0,0,0,.71,1.51,2.19,2.19,0,0,0,.35.27,5.09,5.09,0,0,0,1.85-.1,5,5,0,0,0,1.26-.51,2.29,2.29,0,0,0,.17-2.39A5.51,5.51,0,0,0,357.47,157.73Z"/><path class="cls-2" d="M137.88,206l0,34.55a34.75,34.75,0,0,0,35,34.52h0a34.73,34.73,0,0,0,34.86-34.6l0-34.56Z"/><path class="cls-9" d="M172.83,275.59a35.28,35.28,0,0,1-35.42-35l0-34.56a.51.51,0,0,1,.52-.52l69.82-.09h0a.51.51,0,0,1,.51.52l0,34.55a34.66,34.66,0,0,1-10.35,24.82,35.36,35.36,0,0,1-25,10.3ZM138.4,206.52l0,34a34.26,34.26,0,0,0,34.39,34h0a34.34,34.34,0,0,0,24.31-10,33.68,33.68,0,0,0,10-24.08l0-34Z"/><path class="cls-9" d="M172.59,252.87c-13.66,0-33.73-1.38-33.74-5.21a.51.51,0,0,1,.52-.51h0a.51.51,0,0,1,.51.51c0,.53,2,1.79,9.37,2.83a182.13,182.13,0,0,0,23.6,1.35,177.1,177.1,0,0,0,23.59-1.41c7.41-1.06,9.36-2.33,9.36-2.85a.52.52,0,0,1,.52-.52h0a.51.51,0,0,1,.51.52c0,.59,0,2.41-10.24,3.87a179.46,179.46,0,0,1-23.74,1.42Z"/><path class="cls-9" d="M172.57,237.72c-13.66,0-33.73-1.38-33.74-5.2a.52.52,0,0,1,.52-.52h0a.51.51,0,0,1,.51.52c0,.52,2,1.78,9.37,2.82a178.53,178.53,0,0,0,23.6,1.35,177.1,177.1,0,0,0,23.59-1.41c7.41-1.06,9.36-2.33,9.36-2.85a.52.52,0,0,1,.52-.52h0a.51.51,0,0,1,.51.52c0,3.85-20.32,5.28-34,5.29Z"/><ellipse class="cls-1" cx="172.69" cy="132.59" rx="90.38" ry="89.47"/><path class="cls-6" d="M172.69,222.57c-50.07,0-90.83-40.28-90.9-89.86a88.91,88.91,0,0,1,26.55-63.66,90.74,90.74,0,0,1,64.23-26.44h.12c50.07,0,90.83,40.29,90.9,89.87a88.94,88.94,0,0,1-26.54,63.66,90.75,90.75,0,0,1-64.24,26.43Zm0-178.93h-.11a89.72,89.72,0,0,0-63.52,26.14,87.91,87.91,0,0,0-26.23,62.93c.06,49,40.37,88.83,89.86,88.83h.12a89.75,89.75,0,0,0,63.51-26.13,87.93,87.93,0,0,0,26.24-62.93C262.49,83.47,222.19,43.64,172.69,43.64Z"/><path class="cls-6" d="M172.37,202.42c-1.84,0-3.7-.07-5.57-.22A71,71,0,0,1,118,177.48a69.7,69.7,0,0,1-16.68-51.08c3-38.79,37.38-67.89,76.55-64.88a71,71,0,0,1,48.83,24.73,69.69,69.69,0,0,1,16.68,51.08l-.52,0,.52,0C240.45,174.26,209.17,202.42,172.37,202.42Zm-.1-140.08c-36.27,0-67.1,27.74-70,64.14a68.64,68.64,0,0,0,16.43,50.32,69.91,69.91,0,0,0,48.13,24.37q2.76.21,5.49.21c36.27,0,67.09-27.74,69.95-64.13a68.7,68.7,0,0,0-16.43-50.33,70,70,0,0,0-48.13-24.37C175.92,62.41,174.08,62.34,172.27,62.34Z"/><path class="cls-10" d="M176.4,79.85c-29-2.23-54.35,19.25-56.61,48s19.44,53.82,48.45,56.05,54.35-19.24,56.6-48S205.41,82.08,176.4,79.85Zm-6.53,83.22a31.31,31.31,0,1,1,34-28.78A31.41,31.41,0,0,1,169.87,163.07Z"/><ellipse class="cls-11" cx="172.32" cy="131.86" rx="14.16" ry="14.02"/><polygon class="cls-6" points="252.71 70.31 207.28 107.42 201.69 103.68 247.12 66.57 252.71 70.31"/><polygon class="cls-9" points="200.63 111.78 171.14 133.11 197.89 108.49 200.63 111.78"/><polygon class="cls-11" points="268.52 53.73 251.4 67.7 249.55 55.84 266.66 41.86 268.52 53.73"/><polygon class="cls-11" points="269.81 55.28 252.69 69.25 264.1 73.32 281.22 59.34 269.81 55.28"/><polygon class="cls-12" points="204.74 112.03 202.41 113.93 196.1 106.35 198.43 104.45 204.74 112.03"/><polygon class="cls-2" points="207.06 110.13 204.74 112.03 198.43 104.45 200.75 102.55 207.06 110.13"/><path class="cls-9" d="M160.71,200.82a.51.51,0,0,1-.47-.32l-28.49-66a.51.51,0,0,1,.27-.68.51.51,0,0,1,.67.27l28.49,66a.5.5,0,0,1-.27.68A.46.46,0,0,1,160.71,200.82Z"/><path class="cls-9" d="M184.85,200.78a.48.48,0,0,1-.2,0,.51.51,0,0,1-.27-.67L212.69,134a.52.52,0,0,1,.68-.27.51.51,0,0,1,.27.67l-28.31,66.11A.52.52,0,0,1,184.85,200.78Z"/><path class="cls-1" d="M337.65,91.15a23.79,23.79,0,1,1,23.8-23.79A23.81,23.81,0,0,1,337.65,91.15Zm0-46.55a22.76,22.76,0,1,0,22.76,22.76A22.79,22.79,0,0,0,337.65,44.6Z"/><path class="cls-1" d="M337.65,67.51c-7.4,0-12.2,2.83-12.2,7.37a13.78,13.78,0,0,0,24.41,0C349.86,70.58,344.58,67.51,337.65,67.51Z"/><circle class="cls-1" cx="337.65" cy="57.68" r="6.3"/><path class="cls-1" d="M300.21,136.73A23.79,23.79,0,1,1,324,112.94,23.82,23.82,0,0,1,300.21,136.73Zm0-46.55A22.76,22.76,0,1,0,323,112.94,22.79,22.79,0,0,0,300.21,90.18Z"/><path class="cls-1" d="M300.21,113.08c-7.41,0-12.21,2.84-12.21,7.38a13.79,13.79,0,0,0,24.42,0C312.42,116.16,307.13,113.08,300.21,113.08Z"/><circle class="cls-1" cx="300.21" cy="103.25" r="6.3"/><path class="cls-1" d="M375.12,132.58a23.79,23.79,0,1,1,23.8-23.79A23.81,23.81,0,0,1,375.12,132.58Zm0-46.55a22.76,22.76,0,1,0,22.76,22.76A22.79,22.79,0,0,0,375.12,86Z"/><path class="cls-1" d="M375.12,108.93c-7.4,0-12.21,2.84-12.21,7.38a13.79,13.79,0,0,0,24.42,0C387.33,112,382.05,108.93,375.12,108.93Z"/><circle class="cls-1" cx="375.12" cy="99.1" r="6.3"/><path class="cls-13" d="M245.6,392.12H82.7v-106H245.6Zm-161.87-1H244.56V287.18H83.73Z"/><rect class="cls-10" x="102.65" y="309.64" width="65.14" height="55.79"/><rect class="cls-2" x="94.86" y="301.86" width="65.14" height="55.79"/><path class="cls-13" d="M233.43,310h-58.3a.52.52,0,1,1,0-1h58.3a.52.52,0,0,1,0,1Z"/><path class="cls-13" d="M221.05,322H175.13a.52.52,0,0,1,0-1h45.92a.52.52,0,0,1,0,1Z"/><path class="cls-13" d="M228.78,332.8H175.13a.52.52,0,1,1,0-1h53.65a.52.52,0,1,1,0,1Z"/><path class="cls-13" d="M212,344.18H175.13a.52.52,0,1,1,0-1H212a.52.52,0,1,1,0,1Z"/><path class="cls-10" d="M119.76,318.7a12.58,12.58,0,0,1,3.16-1.08l-.41-5.8a17.83,17.83,0,0,0-5.33,1.71,18,18,0,0,0-8.79,9.66l5.57,1.64A12.36,12.36,0,0,1,119.76,318.7Z"/><path class="cls-10" d="M113.64,333.88a12.39,12.39,0,0,1-.54-6.13l-5.57-1.64a18.08,18.08,0,0,0,.91,10.37Z"/><path class="cls-11" d="M142.14,323l-5.2,2.6a12.36,12.36,0,0,1-21.94,11l-5.2,2.61A18.14,18.14,0,0,0,142.14,323Z"/><path class="cls-10" d="M126,317.42a12.36,12.36,0,0,1,9.63,5.49l5.2-2.6a18.19,18.19,0,0,0-15.24-8.7Z"/><rect class="cls-2" x="146.31" y="406.94" width="22.78" height="55.4"/><rect class="cls-10" x="176.53" y="394.65" width="22.78" height="67.69"/><rect class="cls-6" x="206.75" y="379.33" width="22.78" height="83.01"/><path class="cls-11" d="M216.51,382l-5.69-25.1-22.41,12.66,5.73,2.54A47.67,47.67,0,0,1,182,390.42c-13.49,12.6-29.89,12.87-33.74,12.83,2.76,1.12,22.07,8.54,41.67-1.95a49.11,49.11,0,0,0,20.77-21.88Z"/></g></g></g></svg>