<svg xmlns="http://www.w3.org/2000/svg" xmlns:xlink="http://www.w3.org/1999/xlink" viewBox="0 0 500 500"><defs><style>.cls-1{fill:none;}.cls-2,.cls-79,.cls-85,.cls-89{fill:#fff;}.cls-3{clip-path:url(#clip-path);}.cls-4{opacity:0.32;}.cls-5{fill:url(#radial-gradient);}.cls-6{fill:url(#radial-gradient-2);}.cls-7{fill:url(#radial-gradient-3);}.cls-8{isolation:isolate;}.cls-9{fill:url(#radial-gradient-4);}.cls-10{fill:url(#radial-gradient-5);}.cls-11{fill:url(#radial-gradient-6);}.cls-12{fill:url(#radial-gradient-7);}.cls-13{fill:url(#radial-gradient-8);}.cls-14{fill:url(#radial-gradient-9);}.cls-15{fill:url(#radial-gradient-10);}.cls-16{fill:url(#radial-gradient-11);}.cls-17{fill:url(#radial-gradient-12);}.cls-18{fill:url(#radial-gradient-13);}.cls-19{fill:url(#radial-gradient-14);}.cls-20{fill:url(#radial-gradient-15);}.cls-21{fill:url(#radial-gradient-16);}.cls-22{fill:url(#radial-gradient-17);}.cls-23{fill:url(#radial-gradient-18);}.cls-24{fill:url(#radial-gradient-19);}.cls-25{fill:url(#radial-gradient-20);}.cls-26{fill:url(#radial-gradient-21);}.cls-27{fill:url(#radial-gradient-22);}.cls-28{fill:url(#radial-gradient-23);}.cls-29{fill:url(#radial-gradient-24);}.cls-30{fill:url(#radial-gradient-25);}.cls-31{fill:url(#radial-gradient-26);}.cls-32{fill:url(#radial-gradient-27);}.cls-33{fill:url(#radial-gradient-28);}.cls-34{fill:url(#radial-gradient-29);}.cls-35{fill:url(#radial-gradient-30);}.cls-36{fill:url(#radial-gradient-31);}.cls-37{fill:url(#radial-gradient-32);}.cls-38{fill:url(#radial-gradient-33);}.cls-39{fill:url(#radial-gradient-34);}.cls-40{fill:url(#radial-gradient-35);}.cls-41{fill:url(#radial-gradient-36);}.cls-42{fill:url(#radial-gradient-37);}.cls-43{fill:url(#radial-gradient-38);}.cls-44{fill:url(#radial-gradient-39);}.cls-45{fill:url(#radial-gradient-40);}.cls-46{fill:url(#radial-gradient-42);}.cls-47{fill:url(#radial-gradient-43);}.cls-48{fill:url(#radial-gradient-44);}.cls-49{fill:url(#radial-gradient-45);}.cls-50{fill:url(#radial-gradient-46);}.cls-51{fill:url(#radial-gradient-47);}.cls-52{fill:url(#radial-gradient-48);}.cls-53{fill:url(#radial-gradient-49);}.cls-54{fill:url(#radial-gradient-51);}.cls-55{fill:url(#radial-gradient-52);}.cls-56{fill:url(#radial-gradient-53);}.cls-57{fill:url(#radial-gradient-55);}.cls-58{fill:url(#radial-gradient-56);}.cls-59{fill:url(#radial-gradient-58);}.cls-60{fill:url(#radial-gradient-59);}.cls-61{fill:url(#radial-gradient-60);}.cls-62{fill:url(#radial-gradient-62);}.cls-63{fill:url(#radial-gradient-64);}.cls-64{fill:url(#radial-gradient-65);}.cls-65{fill:url(#radial-gradient-66);}.cls-66{fill:url(#radial-gradient-67);}.cls-67{fill:url(#radial-gradient-68);}.cls-68{fill:url(#radial-gradient-69);}.cls-69{fill:url(#radial-gradient-71);}.cls-70{fill:url(#radial-gradient-72);}.cls-71{fill:url(#radial-gradient-73);}.cls-72{fill:url(#radial-gradient-74);}.cls-73{fill:url(#radial-gradient-75);}.cls-74{fill:url(#radial-gradient-77);}.cls-75{fill:url(#radial-gradient-78);}.cls-76{fill:url(#radial-gradient-82);}.cls-77,.cls-96{fill:#d7e4f9;}.cls-78,.cls-88,.cls-91{fill:#779ce8;}.cls-79,.cls-80,.cls-81,.cls-82,.cls-83,.cls-84,.cls-85,.cls-86,.cls-88,.cls-89,.cls-90,.cls-91,.cls-92,.cls-94,.cls-95,.cls-96,.cls-98{stroke:#779ce8;stroke-width:0.75px;}.cls-79,.cls-88,.cls-92,.cls-94,.cls-95,.cls-96{stroke-miterlimit:10;}.cls-80{fill:#4ea7ea;}.cls-80,.cls-81,.cls-82,.cls-83,.cls-84,.cls-85{stroke-linecap:round;}.cls-80,.cls-81,.cls-82,.cls-83,.cls-84,.cls-85,.cls-86,.cls-89,.cls-90,.cls-91,.cls-98{stroke-linejoin:round;}.cls-81,.cls-95{fill:#55c2f9;}.cls-82{fill:#e7edf7;}.cls-83{fill:#8f65e0;}.cls-84,.cls-94{fill:#b06bf2;}.cls-86,.cls-92,.cls-93{fill:#f97d8c;}.cls-87{fill:#1760fc;}.cls-90{fill:#e24b65;}.cls-97{opacity:0.52;}.cls-98{fill:#ff6e80;}</style><clipPath id="clip-path"><rect class="cls-1" y="246.63" width="500" height="253"/></clipPath><radialGradient id="radial-gradient" cx="255.52" cy="105.95" r="663.67" gradientTransform="matrix(1, 0, 0, -1, -0.65, 500.8)" gradientUnits="userSpaceOnUse"><stop offset="0" stop-color="#acc3fe"/><stop offset="1" stop-color="#c3d2ff" stop-opacity="0"/></radialGradient><radialGradient id="radial-gradient-2" cx="255.52" cy="105.95" r="663.67" xlink:href="#radial-gradient"/><radialGradient id="radial-gradient-3" cx="255.52" cy="105.95" r="663.67" xlink:href="#radial-gradient"/><radialGradient id="radial-gradient-4" cx="255.52" cy="105.95" r="663.67" xlink:href="#radial-gradient"/><radialGradient id="radial-gradient-5" cx="255.52" cy="105.95" r="663.67" xlink:href="#radial-gradient"/><radialGradient id="radial-gradient-6" cx="255.52" cy="105.95" r="663.67" xlink:href="#radial-gradient"/><radialGradient id="radial-gradient-7" cx="255.52" cy="105.95" r="663.67" xlink:href="#radial-gradient"/><radialGradient id="radial-gradient-8" cx="255.52" cy="105.95" r="663.67" xlink:href="#radial-gradient"/><radialGradient id="radial-gradient-9" cx="255.52" cy="105.95" r="663.67" xlink:href="#radial-gradient"/><radialGradient id="radial-gradient-10" cx="255.52" cy="105.95" r="663.67" xlink:href="#radial-gradient"/><radialGradient id="radial-gradient-11" cx="255.52" cy="105.95" r="663.67" xlink:href="#radial-gradient"/><radialGradient id="radial-gradient-12" cx="255.52" cy="105.95" r="663.67" xlink:href="#radial-gradient"/><radialGradient id="radial-gradient-13" cx="255.52" cy="105.95" r="663.66" xlink:href="#radial-gradient"/><radialGradient id="radial-gradient-14" cx="255.52" cy="105.95" r="663.66" xlink:href="#radial-gradient"/><radialGradient id="radial-gradient-15" cx="255.52" cy="105.95" r="663.67" xlink:href="#radial-gradient"/><radialGradient id="radial-gradient-16" cx="255.52" cy="105.95" r="663.67" xlink:href="#radial-gradient"/><radialGradient id="radial-gradient-17" cx="255.52" cy="105.95" r="663.67" xlink:href="#radial-gradient"/><radialGradient id="radial-gradient-18" cx="255.52" cy="105.95" r="663.67" xlink:href="#radial-gradient"/><radialGradient id="radial-gradient-19" cx="255.52" cy="105.95" r="663.67" xlink:href="#radial-gradient"/><radialGradient id="radial-gradient-20" cx="255.52" cy="105.95" r="663.66" xlink:href="#radial-gradient"/><radialGradient id="radial-gradient-21" cx="255.52" cy="105.95" r="663.67" xlink:href="#radial-gradient"/><radialGradient id="radial-gradient-22" cx="255.52" cy="105.95" r="663.66" xlink:href="#radial-gradient"/><radialGradient id="radial-gradient-23" cx="255.52" cy="105.95" r="663.67" xlink:href="#radial-gradient"/><radialGradient id="radial-gradient-24" cx="255.52" cy="105.95" r="663.67" xlink:href="#radial-gradient"/><radialGradient id="radial-gradient-25" cx="255.52" cy="105.95" r="663.67" xlink:href="#radial-gradient"/><radialGradient id="radial-gradient-26" cx="255.52" cy="105.95" r="663.67" xlink:href="#radial-gradient"/><radialGradient id="radial-gradient-27" cx="255.52" cy="105.95" r="663.67" xlink:href="#radial-gradient"/><radialGradient id="radial-gradient-28" cx="255.52" cy="105.95" r="663.67" xlink:href="#radial-gradient"/><radialGradient id="radial-gradient-29" cx="255.52" cy="105.95" r="663.67" xlink:href="#radial-gradient"/><radialGradient id="radial-gradient-30" cx="255.52" cy="105.95" r="663.67" xlink:href="#radial-gradient"/><radialGradient id="radial-gradient-31" cx="255.52" cy="105.95" r="663.67" xlink:href="#radial-gradient"/><radialGradient id="radial-gradient-32" cx="255.52" cy="105.95" r="663.67" xlink:href="#radial-gradient"/><radialGradient id="radial-gradient-33" cx="255.52" cy="105.95" r="663.67" xlink:href="#radial-gradient"/><radialGradient id="radial-gradient-34" cx="255.52" cy="105.95" r="663.67" xlink:href="#radial-gradient"/><radialGradient id="radial-gradient-35" cx="255.52" cy="105.95" r="663.67" xlink:href="#radial-gradient"/><radialGradient id="radial-gradient-36" cx="255.52" cy="105.95" r="663.67" xlink:href="#radial-gradient"/><radialGradient id="radial-gradient-37" cx="255.52" cy="105.95" r="663.67" xlink:href="#radial-gradient"/><radialGradient id="radial-gradient-38" cx="255.52" cy="105.95" r="663.67" xlink:href="#radial-gradient"/><radialGradient id="radial-gradient-39" cx="255.52" cy="105.95" r="663.67" xlink:href="#radial-gradient"/><radialGradient id="radial-gradient-40" cx="255.52" cy="105.95" r="663.67" xlink:href="#radial-gradient"/><radialGradient id="radial-gradient-42" cx="255.52" cy="105.95" r="663.67" xlink:href="#radial-gradient"/><radialGradient id="radial-gradient-43" cx="255.52" cy="105.95" r="663.67" xlink:href="#radial-gradient"/><radialGradient id="radial-gradient-44" cx="255.52" cy="105.95" r="663.67" xlink:href="#radial-gradient"/><radialGradient id="radial-gradient-45" cx="255.52" cy="105.95" r="663.67" xlink:href="#radial-gradient"/><radialGradient id="radial-gradient-46" cx="255.52" cy="105.95" r="663.67" xlink:href="#radial-gradient"/><radialGradient id="radial-gradient-47" cx="255.52" cy="105.95" r="663.67" xlink:href="#radial-gradient"/><radialGradient id="radial-gradient-48" cx="255.52" cy="105.95" r="663.67" xlink:href="#radial-gradient"/><radialGradient id="radial-gradient-49" cx="255.52" cy="105.95" r="663.67" xlink:href="#radial-gradient"/><radialGradient id="radial-gradient-51" cx="255.52" cy="105.95" r="663.67" xlink:href="#radial-gradient"/><radialGradient id="radial-gradient-52" cx="255.52" cy="105.95" r="663.67" xlink:href="#radial-gradient"/><radialGradient id="radial-gradient-53" cx="255.52" cy="105.95" r="663.66" xlink:href="#radial-gradient"/><radialGradient id="radial-gradient-55" cx="255.52" cy="105.95" r="663.67" xlink:href="#radial-gradient"/><radialGradient id="radial-gradient-56" cx="255.52" cy="105.95" r="663.67" xlink:href="#radial-gradient"/><radialGradient id="radial-gradient-58" cx="255.52" cy="105.95" r="663.67" xlink:href="#radial-gradient"/><radialGradient id="radial-gradient-59" cx="255.52" cy="105.95" r="663.67" xlink:href="#radial-gradient"/><radialGradient id="radial-gradient-60" cx="255.52" cy="105.95" r="663.67" xlink:href="#radial-gradient"/><radialGradient id="radial-gradient-62" cx="255.52" cy="105.95" r="663.67" xlink:href="#radial-gradient"/><radialGradient id="radial-gradient-64" cx="255.52" cy="105.95" r="663.66" xlink:href="#radial-gradient"/><radialGradient id="radial-gradient-65" cx="255.52" cy="105.95" r="663.67" xlink:href="#radial-gradient"/><radialGradient id="radial-gradient-66" cx="255.52" cy="105.95" r="663.66" xlink:href="#radial-gradient"/><radialGradient id="radial-gradient-67" cx="255.52" cy="105.95" r="663.67" xlink:href="#radial-gradient"/><radialGradient id="radial-gradient-68" cx="255.52" cy="105.95" r="663.67" xlink:href="#radial-gradient"/><radialGradient id="radial-gradient-69" cx="255.52" cy="105.95" r="663.67" xlink:href="#radial-gradient"/><radialGradient id="radial-gradient-71" cx="255.52" cy="105.95" r="663.67" xlink:href="#radial-gradient"/><radialGradient id="radial-gradient-72" cx="255.52" cy="105.95" r="663.66" xlink:href="#radial-gradient"/><radialGradient id="radial-gradient-73" cx="255.52" cy="105.95" r="663.67" xlink:href="#radial-gradient"/><radialGradient id="radial-gradient-74" cx="255.52" cy="105.95" r="663.66" xlink:href="#radial-gradient"/><radialGradient id="radial-gradient-75" cx="255.52" cy="105.95" r="663.67" xlink:href="#radial-gradient"/><radialGradient id="radial-gradient-77" cx="255.52" cy="105.95" r="663.67" xlink:href="#radial-gradient"/><radialGradient id="radial-gradient-78" cx="255.52" cy="105.95" r="663.67" xlink:href="#radial-gradient"/><radialGradient id="radial-gradient-82" cx="255.52" cy="105.95" r="663.67" xlink:href="#radial-gradient"/></defs><g id="Layer_3" data-name="Layer 3"><g id="BACKGROUND"><rect class="cls-2" y="-0.37" width="500" height="500"/></g><g id="OBJECTS"><g class="cls-3"><g class="cls-4"><polygon class="cls-5" points="336.59 321.32 338.9 319.98 379.54 343.44 377.23 344.78 336.59 321.32"/><polygon class="cls-6" points="123.16 445.35 125.47 444.01 166.11 467.48 163.8 468.81 123.16 445.35"/><polygon class="cls-7" points="-5.22 371.23 -2.91 369.89 37.23 393.07 34.92 394.4 -5.22 371.23"/><g class="cls-8"><polygon class="cls-9" points="208.22 247.2 210.52 245.86 250.66 269.03 248.35 270.37 208.22 247.2"/><polygon class="cls-10" points="165.53 272 167.84 270.66 207.98 293.84 205.67 295.18 165.53 272"/><polygon class="cls-11" points="293.63 296.51 295.94 295.18 336.58 318.64 334.27 319.98 293.63 296.51"/><polygon class="cls-12" points="122.85 296.81 125.16 295.47 165.3 318.64 162.99 319.98 122.85 296.81"/><polygon class="cls-13" points="250.95 321.32 253.26 319.98 293.9 343.44 291.59 344.78 250.95 321.32"/><polygon class="cls-14" points="165.31 321.32 167.62 319.98 208.26 343.44 205.95 344.78 165.31 321.32"/><polygon class="cls-15" points="80.14 321.63 82.48 320.27 122.61 343.44 120.28 344.8 80.14 321.63"/><polygon class="cls-16" points="379.55 346.12 381.86 344.78 422.5 368.25 420.19 369.58 379.55 346.12"/><polygon class="cls-17" points="293.91 346.12 296.22 344.78 336.86 368.25 334.55 369.58 293.91 346.12"/><polygon class="cls-18" points="208.27 346.12 210.58 344.78 251.22 368.25 248.91 369.58 208.27 346.12"/><polygon class="cls-19" points="122.6 346.14 124.94 344.78 165.57 368.25 163.24 369.6 122.6 346.14"/><polygon class="cls-20" points="37.47 346.43 39.8 345.07 79.93 368.25 77.6 369.6 37.47 346.43"/><polygon class="cls-21" points="336.87 370.92 339.18 369.58 379.82 393.05 377.51 394.39 336.87 370.92"/><polygon class="cls-22" points="251.23 370.93 253.54 369.58 294.18 393.05 291.87 394.39 251.23 370.93"/><polygon class="cls-23" points="165.56 370.94 167.9 369.59 208.53 393.05 206.2 394.4 165.56 370.94"/><polygon class="cls-24" points="79.92 370.94 82.25 369.59 122.89 393.05 120.56 394.4 79.92 370.94"/><polygon class="cls-25" points="294.19 395.73 296.5 394.39 337.14 417.85 334.83 419.19 294.19 395.73"/><polygon class="cls-26" points="208.52 395.74 210.85 394.39 251.5 417.85 249.16 419.21 208.52 395.74"/><polygon class="cls-27" points="122.88 395.74 125.21 394.39 165.85 417.85 163.52 419.21 122.88 395.74"/><polygon class="cls-28" points="292.85 247.2 252.98 270.37 250.67 271.71 210.3 295.18 207.99 296.51 167.62 319.98 165.31 321.32 124.94 344.78 122.6 346.14 82.25 369.59 79.92 370.94 39.55 394.4 37.24 395.75 -2.63 418.92 -4.96 417.58 34.92 394.41 37.23 393.07 77.6 369.6 79.93 368.25 120.28 344.8 122.61 343.44 162.99 319.98 165.3 318.64 205.67 295.18 207.98 293.84 248.35 270.37 250.66 269.03 290.53 245.86 292.85 247.2"/><polygon class="cls-29" points="337.18 420.55 339.48 419.21 380.1 442.65 377.79 443.99 337.18 420.55"/><polygon class="cls-30" points="251.48 420.55 253.81 419.19 294.45 442.65 292.12 444.01 251.48 420.55"/><polygon class="cls-31" points="165.84 420.55 168.17 419.19 208.81 442.65 206.48 444.01 165.84 420.55"/><polygon class="cls-32" points="335.81 272 295.94 295.18 293.63 296.51 253.26 319.98 250.95 321.32 210.58 344.78 208.27 346.12 167.9 369.59 165.56 370.94 125.21 394.39 122.88 395.75 82.51 419.21 80.2 420.55 40.33 443.72 38.01 442.38 77.88 419.21 80.19 417.87 120.56 394.4 122.89 393.05 163.24 369.6 165.57 368.25 205.95 344.78 208.26 343.44 248.63 319.98 250.94 318.64 291.31 295.18 293.62 293.84 333.49 270.66 335.81 272"/><polygon class="cls-33" points="80.2 420.55 82.51 419.21 123.15 442.67 120.84 444.01 80.2 420.55"/><polygon class="cls-34" points="294.47 445.37 296.8 444.01 337.42 467.46 335.08 468.81 294.47 445.37"/><polygon class="cls-35" points="208.8 445.35 211.13 444 251.77 467.46 249.44 468.81 208.8 445.35"/><polygon class="cls-36" points="378.77 296.81 338.9 319.98 336.59 321.32 296.22 344.78 293.91 346.12 253.54 369.58 251.23 370.93 210.85 394.39 208.52 395.74 168.17 419.19 165.84 420.55 125.47 444.01 123.16 445.35 83.28 468.52 80.97 467.19 120.84 444.01 123.15 442.67 163.52 419.21 165.85 417.85 206.2 394.4 208.53 393.05 248.91 369.58 251.22 368.25 291.59 344.78 293.9 343.44 334.27 319.98 336.58 318.64 376.45 295.47 378.77 296.81"/><polygon class="cls-37" points="421.73 321.61 381.86 344.78 379.55 346.12 339.18 369.58 336.87 370.92 296.5 394.39 294.19 395.73 253.81 419.19 251.48 420.55 211.13 444 208.8 445.35 168.43 468.81 166.12 470.15 126.25 493.33 123.92 491.99 163.8 468.81 166.11 467.48 206.48 444.01 208.81 442.66 249.16 419.21 251.5 417.85 291.87 394.39 294.18 393.05 334.55 369.58 336.86 368.25 377.23 344.78 379.54 343.44 419.41 320.27 421.73 321.61"/><polygon class="cls-38" points="166.12 470.15 168.43 468.81 209.07 492.28 206.76 493.62 166.12 470.15"/><polygon class="cls-39" points="464.72 346.43 424.85 369.6 422.54 370.94 382.16 394.4 379.86 395.74 339.48 419.21 337.18 420.55 296.8 444.01 294.47 445.37 254.12 468.81 251.79 470.17 211.41 493.63 209.11 494.97 169.23 518.15 166.88 516.79 206.76 493.62 209.07 492.28 249.44 468.81 251.77 467.46 292.12 444.01 294.45 442.65 334.83 419.19 337.14 417.85 377.51 394.39 379.82 393.05 420.19 369.58 422.5 368.25 462.37 345.07 464.72 346.43"/></g><polygon class="cls-40" points="422.54 370.94 424.85 369.6 465.46 393.05 463.15 394.39 422.54 370.94"/><polygon class="cls-41" points="379.86 395.74 382.16 394.4 422.78 417.85 420.47 419.19 379.86 395.74"/><polygon class="cls-42" points="251.79 470.17 254.12 468.81 294.73 492.26 292.4 493.62 251.79 470.17"/><polygon class="cls-43" points="209.11 494.97 211.41 493.63 252.03 517.08 249.72 518.42 209.11 494.97"/><polygon class="cls-44" points="507.68 371.23 467.81 394.4 465.5 395.74 425.12 419.21 422.82 420.55 382.44 444.01 380.14 445.35 339.76 468.81 337.43 470.17 297.08 493.62 294.75 494.97 254.37 518.44 252.07 519.78 212.19 542.95 209.84 541.59 249.72 518.42 252.03 517.08 292.4 493.62 294.73 492.26 335.08 468.81 337.42 467.46 377.79 443.99 380.1 442.65 420.47 419.19 422.78 417.85 463.15 394.39 465.46 393.05 505.33 369.88 507.68 371.23"/><polygon class="cls-45" points="467.81 394.4 507.91 417.56 505.61 418.9 465.5 395.74 467.81 394.4"/><polygon class="cls-36" points="250.67 271.71 252.98 270.37 293.62 293.84 291.31 295.18 250.67 271.71"/><polygon class="cls-46" points="425.12 419.21 465.23 442.36 462.93 443.7 422.82 420.55 425.12 419.21"/><polygon class="cls-47" points="207.99 296.51 210.3 295.18 250.94 318.64 248.63 319.98 207.99 296.51"/><polygon class="cls-48" points="382.44 444.01 422.55 467.17 420.25 468.51 380.14 445.35 382.44 444.01"/><polygon class="cls-49" points="339.76 468.81 379.87 491.97 377.54 493.33 337.43 470.17 339.76 468.81"/><polygon class="cls-50" points="297.08 493.62 337.19 516.77 334.86 518.13 294.75 494.97 297.08 493.62"/><polygon class="cls-51" points="37.24 395.75 39.55 394.4 80.19 417.87 77.88 419.21 37.24 395.75"/><path class="cls-52" d="M258,266.09c4.08,2.35,4.08,6.18,0,8.52a16.26,16.26,0,0,1-14.74,0c-4-2.34-4.07-6.18,0-8.53A16.29,16.29,0,0,1,258,266.09Z"/><path class="cls-53" d="M300.94,290.89c4.08,2.35,4.08,6.18.05,8.52a16.26,16.26,0,0,1-14.74,0c-4.05-2.34-4.07-6.18,0-8.53A16.29,16.29,0,0,1,300.94,290.89Z"/><path class="cls-45" d="M343.93,315.71c4.05,2.34,4.07,6.18.05,8.52a16.32,16.32,0,0,1-14.74,0c-4.08-2.35-4.07-6.18,0-8.53A16.23,16.23,0,0,1,343.93,315.71Z"/><path class="cls-54" d="M386.89,340.51c4.08,2.36,4.07,6.18.05,8.52a16.26,16.26,0,0,1-14.74,0c-4.08-2.36-4.07-6.18,0-8.54A16.23,16.23,0,0,1,386.89,340.51Z"/><path class="cls-55" d="M429.85,365.31c4.08,2.36,4.07,6.18,0,8.52a16.23,16.23,0,0,1-14.74,0c-4.08-2.36-4.07-6.18,0-8.54A16.26,16.26,0,0,1,429.85,365.31Z"/><path class="cls-56" d="M472.81,390.12c4.08,2.35,4.07,6.18.05,8.52a16.26,16.26,0,0,1-14.74,0c-4.08-2.35-4.07-6.18,0-8.53A16.23,16.23,0,0,1,472.81,390.12Z"/><path class="cls-32" d="M215.27,290.9c4.08,2.36,4.11,6.17,0,8.53a16.23,16.23,0,0,1-14.71,0c-4.05-2.34-4.1-6.17-.05-8.53A16.26,16.26,0,0,1,215.27,290.9Z"/><path class="cls-57" d="M258.23,315.71c4.08,2.35,4.1,6.16,0,8.52a16.23,16.23,0,0,1-14.71,0c-4-2.34-4.1-6.17,0-8.52A16.23,16.23,0,0,1,258.23,315.71Z"/><path class="cls-58" d="M301.22,340.53c4,2.34,4.1,6.16,0,8.52a16.26,16.26,0,0,1-14.71,0c-4.08-2.36-4.1-6.17-.05-8.52A16.17,16.17,0,0,1,301.22,340.53Z"/><path class="cls-43" d="M344.18,365.33c4.08,2.36,4.1,6.16.05,8.52a16.17,16.17,0,0,1-14.71,0c-4.08-2.36-4.1-6.16,0-8.52A16.17,16.17,0,0,1,344.18,365.33Z"/><path class="cls-59" d="M387.14,390.13c4.08,2.36,4.1,6.17.05,8.52a16.17,16.17,0,0,1-14.71,0c-4.08-2.35-4.1-6.16-.05-8.52A16.23,16.23,0,0,1,387.14,390.13Z"/><path class="cls-60" d="M430.1,414.94c4.08,2.35,4.1,6.16,0,8.52a16.23,16.23,0,0,1-14.71,0c-4.08-2.36-4.1-6.17-.05-8.52A16.17,16.17,0,0,1,430.1,414.94Z"/><path class="cls-61" d="M44.55,390.12c4.08,2.35,4.07,6.18.05,8.52a16.23,16.23,0,0,1-14.71,0c-4.05-2.34-4.1-6.17-.05-8.52A16.29,16.29,0,0,1,44.55,390.12Z"/><path class="cls-10" d="M87.51,414.92c4.08,2.36,4.07,6.18,0,8.52a16.17,16.17,0,0,1-14.71,0c-4.06-2.34-4.1-6.16,0-8.52A16.29,16.29,0,0,1,87.51,414.92Z"/><path class="cls-62" d="M130.5,439.74c4.05,2.34,4.07,6.18.05,8.52a16.23,16.23,0,0,1-14.71,0c-4.08-2.35-4.11-6.16,0-8.52A16.23,16.23,0,0,1,130.5,439.74Z"/><path class="cls-5" d="M173.46,464.54c4.08,2.36,4.07,6.18,0,8.52a16.17,16.17,0,0,1-14.71,0c-4.09-2.35-4.11-6.16-.05-8.52A16.26,16.26,0,0,1,173.46,464.54Z"/><path class="cls-63" d="M216.42,489.35c4.08,2.35,4.07,6.18.05,8.52a16.23,16.23,0,0,1-14.71,0c-4.08-2.36-4.11-6.17,0-8.52A16.23,16.23,0,0,1,216.42,489.35Z"/><path class="cls-64" d="M87.23,365.31c4.08,2.36,4.1,6.17,0,8.53a16.23,16.23,0,0,1-14.71,0c-4-2.34-4.1-6.17,0-8.53A16.26,16.26,0,0,1,87.23,365.31Z"/><path class="cls-65" d="M130.19,390.12c4.08,2.35,4.1,6.16.05,8.52a16.23,16.23,0,0,1-14.71,0c-4-2.34-4.1-6.17,0-8.52A16.23,16.23,0,0,1,130.19,390.12Z"/><path class="cls-66" d="M173.18,414.94c4,2.34,4.1,6.16,0,8.52a16.26,16.26,0,0,1-14.71,0c-4.08-2.36-4.11-6.17-.05-8.52A16.17,16.17,0,0,1,173.18,414.94Z"/><path class="cls-67" d="M216.14,439.74c4.08,2.36,4.1,6.16.05,8.52a16.17,16.17,0,0,1-14.71,0c-4.08-2.36-4.1-6.17,0-8.52A16.17,16.17,0,0,1,216.14,439.74Z"/><path class="cls-68" d="M259.1,464.54c4.08,2.36,4.1,6.17,0,8.52a16.17,16.17,0,0,1-14.71,0c-4.08-2.35-4.11-6.16-.05-8.52A16.23,16.23,0,0,1,259.1,464.54Z"/><path class="cls-6" d="M302.06,489.35c4.08,2.35,4.1,6.16.05,8.52a16.23,16.23,0,0,1-14.71,0c-4.08-2.36-4.1-6.17,0-8.52A16.17,16.17,0,0,1,302.06,489.35Z"/><path class="cls-69" d="M129.91,340.51c4.08,2.36,4.1,6.17.05,8.52a16.17,16.17,0,0,1-14.71,0c-4-2.34-4.1-6.16,0-8.52A16.26,16.26,0,0,1,129.91,340.51Z"/><path class="cls-70" d="M172.87,365.31c4.08,2.36,4.1,6.17,0,8.53a16.23,16.23,0,0,1-14.71,0c-4.05-2.34-4.1-6.17-.05-8.53A16.26,16.26,0,0,1,172.87,365.31Z"/><path class="cls-71" d="M215.86,390.13c4,2.34,4.1,6.17,0,8.52a16.23,16.23,0,0,1-14.71,0c-4.08-2.35-4.1-6.16,0-8.52A16.23,16.23,0,0,1,215.86,390.13Z"/><path class="cls-72" d="M258.82,414.94c4.08,2.35,4.1,6.16.05,8.52a16.23,16.23,0,0,1-14.71,0c-4.08-2.36-4.1-6.17,0-8.52A16.17,16.17,0,0,1,258.82,414.94Z"/><path class="cls-73" d="M301.78,439.74c4.08,2.36,4.1,6.16.05,8.52a16.17,16.17,0,0,1-14.71,0c-4.08-2.36-4.1-6.17-.05-8.52A16.17,16.17,0,0,1,301.78,439.74Z"/><path class="cls-50" d="M344.74,464.54c4.08,2.36,4.1,6.17.05,8.52a16.17,16.17,0,0,1-14.71,0c-4.08-2.35-4.1-6.16-.05-8.52A16.23,16.23,0,0,1,344.74,464.54Z"/><path class="cls-74" d="M172.59,315.71c4.08,2.35,4.11,6.16,0,8.52a16.23,16.23,0,0,1-14.71,0c-4.05-2.34-4.1-6.17-.05-8.52A16.23,16.23,0,0,1,172.59,315.71Z"/><path class="cls-75" d="M215.55,340.51c4.08,2.36,4.1,6.16,0,8.52a16.17,16.17,0,0,1-14.71,0c-4-2.34-4.1-6.16,0-8.52A16.23,16.23,0,0,1,215.55,340.51Z"/><path class="cls-43" d="M258.54,365.33c4,2.34,4.1,6.16,0,8.52a16.23,16.23,0,0,1-14.71,0c-4.08-2.36-4.1-6.16,0-8.52A16.17,16.17,0,0,1,258.54,365.33Z"/><path class="cls-36" d="M301.5,390.13c4.08,2.36,4.1,6.17.05,8.52a16.17,16.17,0,0,1-14.71,0c-4.08-2.35-4.1-6.16,0-8.52A16.23,16.23,0,0,1,301.5,390.13Z"/><path class="cls-22" d="M344.46,414.94c4.08,2.35,4.1,6.16.05,8.52a16.23,16.23,0,0,1-14.71,0c-4.08-2.36-4.1-6.17-.05-8.52A16.17,16.17,0,0,1,344.46,414.94Z"/><path class="cls-76" d="M387.42,439.74c4.08,2.35,4.1,6.16.05,8.52a16.17,16.17,0,0,1-14.71,0c-4.08-2.36-4.1-6.16-.05-8.52A16.17,16.17,0,0,1,387.42,439.74Z"/></g></g><path class="cls-77" d="M409,339.46c15.41,8.9,15.49,23.32.18,32.21L278.33,447.73c-15.3,8.89-40.19,8.88-55.59,0L91,371.67c-15.41-8.89-15.49-23.31-.19-32.2L221.7,263.41c15.3-8.89,40.2-8.89,55.6,0Z"/><g class="cls-8"><path class="cls-78" d="M425.12,322.89l-144,83.66c-16.83,9.78-44.21,9.78-61.15,0L75.12,322.89C66.59,318,62.33,311.5,62.35,305.05l0,9c0,6.45,4.24,12.92,12.77,17.84L220,415.54c16.95,9.78,44.32,9.79,61.16,0l144-83.66c8.36-4.86,12.54-11.22,12.56-17.59l0-9C437.67,311.67,433.49,318,425.12,322.89Z"/><path class="cls-79" d="M424.92,287.46c16.95,9.78,17,25.65.2,35.43l-144,83.66c-16.83,9.78-44.21,9.78-61.15,0L75.12,322.89c-17-9.78-17-25.64-.21-35.42l144-83.66c16.83-9.78,44.22-9.78,61.16,0Z"/></g><g class="cls-8"><polygon class="cls-80" points="283.14 107.7 288.9 104.35 288.14 108.94 282.38 112.29 283.14 107.7"/><polygon class="cls-81" points="253.88 63.05 259.64 59.7 264 61.29 258.24 64.64 253.88 63.05"/><path class="cls-80" d="M269.1,67.12l5.77-3.35c-2.21,1.28-3.58,4-3.59,7.88,0,7.8,5.46,17.3,12.25,21.22l-5.76,3.35C271,92.3,265.5,82.8,265.52,75,265.53,71.13,266.9,68.4,269.1,67.12Z"/><path class="cls-80" d="M292.27,93.72l-5.76,3.35c-2.24,1.3-5.33,1.12-8.74-.85l5.76-3.35C287,94.84,290,95,292.27,93.72Z"/><path class="cls-80" d="M301,109l-5.76,3.35a8.18,8.18,0,0,0,2.79-2.87l5.76-3.35A8.18,8.18,0,0,1,301,109Z"/><path class="cls-81" d="M260.42,51.88l5.77-3.35a6.54,6.54,0,0,1,3.72-.85L264.15,51A6.56,6.56,0,0,0,260.42,51.88Z"/><polygon class="cls-81" points="295.43 103.8 301.19 100.45 303.74 106.09 297.98 109.44 295.43 103.8"/><polygon class="cls-80" points="264.15 51.03 269.91 47.68 273.57 52.67 267.8 56.02 264.15 51.03"/><path class="cls-81" d="M297.37,99.55l5.77-3.35a14,14,0,0,1-1.95,4.25l-5.76,3.35A13.74,13.74,0,0,0,297.37,99.55Z"/><path class="cls-81" d="M267.8,56l5.77-3.35a14.19,14.19,0,0,1,4.66.47l-5.76,3.35A14.27,14.27,0,0,0,267.8,56Z"/><path class="cls-81" d="M295.46,80.7l5.77-3.35a42.35,42.35,0,0,1,1.93,6.49l-5.77,3.35A40.94,40.94,0,0,0,295.46,80.7Z"/><path class="cls-81" d="M283.22,62.68,289,59.33a41.17,41.17,0,0,1,4.67,4.91l-5.77,3.35A41.1,41.1,0,0,0,283.22,62.68Z"/><path class="cls-81" d="M301.77,90.58l5.76-3.35c1.09,4.67,1,8.06,0,10.56l-5.76,3.35C302.73,98.64,302.86,95.25,301.77,90.58Z"/><polygon class="cls-80" points="297.39 87.19 303.16 83.84 307.53 87.23 301.76 90.58 297.39 87.19"/><path class="cls-81" d="M273.23,51.9,279,48.55a16.26,16.26,0,0,1,4.78,1.85,21.61,21.61,0,0,1,4.41,3.45l-5.77,3.35A21.34,21.34,0,0,0,278,53.75,16,16,0,0,0,273.23,51.9Z"/><polygon class="cls-80" points="282.42 57.2 288.19 53.85 288.98 59.33 283.22 62.68 282.42 57.2"/><polygon class="cls-80" points="297.99 77.95 303.75 74.6 301.23 77.35 295.46 80.7 297.99 77.95"/><polygon class="cls-80" points="287.88 67.59 293.65 64.24 297.27 63.38 291.51 66.73 287.88 67.59"/><path class="cls-82" d="M301.74,101.14l-4.37-1.59a13.74,13.74,0,0,1-1.94,4.25l2.55,5.64c-1.71,2.77-3.93,3.84-6.52,3.72l-3.65-5a14,14,0,0,1-4.67-.46l-.76,4.6a16.53,16.53,0,0,1-4.79-1.87,21.5,21.5,0,0,1-4.4-3.44l-.8-5.48a41.2,41.2,0,0,1-4.66-4.92l-3.63.86a33,33,0,0,1-6.48-11.22l2.52-2.75A41.85,41.85,0,0,1,258.22,77l-4.37-3.38c-1.1-4.68-1-8.07,0-10.56l4.36,1.58a13.75,13.75,0,0,1,1.95-4.25l-2.56-5.65c1.71-2.77,3.94-3.84,6.52-3.71l3.65,5a14.25,14.25,0,0,1,4.67.47l.77-4.59A16.26,16.26,0,0,1,278,53.75a21.61,21.61,0,0,1,4.41,3.45l.79,5.48a41.17,41.17,0,0,1,4.67,4.91l3.62-.86A32.8,32.8,0,0,1,298,78l-2.52,2.75a42,42,0,0,1,1.93,6.49l4.37,3.38C302.86,95.25,302.73,98.64,301.74,101.14Zm-24-4.92c6.78,3.91,12.3.77,12.32-7S284.63,71.89,277.85,68s-12.31-.77-12.33,7S271,92.3,277.77,96.22"/><path class="cls-81" d="M291.51,66.73l5.76-3.35a33,33,0,0,1,6.48,11.22L298,78A33.15,33.15,0,0,0,291.51,66.73Z"/></g><g class="cls-8"><polygon class="cls-83" points="326.65 82.13 330.17 80.09 329.7 82.89 326.19 84.94 326.65 82.13"/><polygon class="cls-84" points="308.79 54.89 312.31 52.84 314.97 53.81 311.45 55.86 308.79 54.89"/><path class="cls-83" d="M326.89,73.08a16.49,16.49,0,0,1-7.48-12.94c0-2.37.85-4,2.19-4.81l-3.52,2c-1.34.78-2.18,2.45-2.18,4.81a16.44,16.44,0,0,0,7.47,12.94c2.08,1.21,4,1.32,5.34.53l3.51-2.05C330.86,74.39,329,74.28,326.89,73.08Z"/><path class="cls-83" d="M337.52,82.9l-3.52,2a4.93,4.93,0,0,0,1.7-1.75l3.52-2A5,5,0,0,1,337.52,82.9Z"/><path class="cls-84" d="M312.79,48.07l3.51-2a4.06,4.06,0,0,1,2.28-.51l-3.52,2A4,4,0,0,0,312.79,48.07Z"/><polygon class="cls-84" points="334.15 79.75 337.66 77.71 339.22 81.15 335.7 83.19 334.15 79.75"/><polygon class="cls-83" points="315.06 47.55 318.58 45.51 320.81 48.55 317.29 50.6 315.06 47.55"/><path class="cls-84" d="M335.33,77.16l3.52-2a8.52,8.52,0,0,1-1.19,2.6l-3.51,2A8.34,8.34,0,0,0,335.33,77.16Z"/><path class="cls-84" d="M317.29,50.6l3.52-2.05a8.38,8.38,0,0,1,2.84.29l-3.51,2A8.7,8.7,0,0,0,317.29,50.6Z"/><path class="cls-84" d="M334.17,65.66l3.52-2a26.19,26.19,0,0,1,1.18,4l-3.52,2.05A25.53,25.53,0,0,0,334.17,65.66Z"/><path class="cls-84" d="M326.7,54.66l3.51-2a25.33,25.33,0,0,1,2.85,3l-3.52,2A25.36,25.36,0,0,0,326.7,54.66Z"/><path class="cls-84" d="M338,71.68l3.51-2c.67,2.85.59,4.92,0,6.44l-3.51,2C338.6,76.6,338.68,74.53,338,71.68Z"/><polygon class="cls-83" points="335.35 69.61 338.87 67.57 341.53 69.64 338.01 71.68 335.35 69.61"/><path class="cls-84" d="M320.6,48.08l3.52-2A9.79,9.79,0,0,1,327,47.17a12.89,12.89,0,0,1,2.69,2.1l-3.52,2a13,13,0,0,0-2.69-2.11A10.06,10.06,0,0,0,320.6,48.08Z"/><polygon class="cls-83" points="326.21 51.32 329.73 49.27 330.21 52.62 326.7 54.66 326.21 51.32"/><polygon class="cls-83" points="335.71 63.98 339.23 61.94 337.69 63.61 334.17 65.66 335.71 63.98"/><polygon class="cls-83" points="329.55 57.66 333.06 55.61 335.27 55.09 331.76 57.13 329.55 57.66"/><path class="cls-85" d="M338,78.13l-2.66-1a8.36,8.36,0,0,1-1.19,2.59l1.56,3.44a4.21,4.21,0,0,1-4,2.27l-2.23-3a8.42,8.42,0,0,1-2.85-.28l-.46,2.8a10,10,0,0,1-2.93-1.13,13.25,13.25,0,0,1-2.68-2.1l-.49-3.35a25.47,25.47,0,0,1-2.85-3l-2.21.53A20,20,0,0,1,311.08,69l1.54-1.68a24.48,24.48,0,0,1-1.18-4l-2.67-2.06c-.66-2.85-.58-4.92,0-6.44l2.66,1a8.52,8.52,0,0,1,1.19-2.6l-1.56-3.44a4.21,4.21,0,0,1,4-2.27l2.23,3.05a8.7,8.7,0,0,1,2.85.28l.46-2.8a10.06,10.06,0,0,1,2.92,1.13,13,13,0,0,1,2.69,2.11l.49,3.34a25.36,25.36,0,0,1,2.84,3l2.22-.53A20.13,20.13,0,0,1,335.71,64l-1.54,1.68a25.53,25.53,0,0,1,1.18,4L338,71.68C338.68,74.53,338.6,76.6,338,78.13Zm-14.63-3c4.14,2.39,7.51.47,7.52-4.28a16.49,16.49,0,0,0-7.47-13c-4.14-2.39-7.51-.47-7.52,4.29a16.44,16.44,0,0,0,7.47,12.94"/><path class="cls-84" d="M331.76,57.13l3.51-2a19.92,19.92,0,0,1,4,6.85l-3.52,2A20.13,20.13,0,0,0,331.76,57.13Z"/></g><g class="cls-8"><path class="cls-78" d="M378.24,119.29l2.32-1.35a2.41,2.41,0,0,1,2.42.24l-2.31,1.35A2.41,2.41,0,0,0,378.24,119.29Z"/><path class="cls-78" d="M435.83,190.08l-2.31,1.35a2.39,2.39,0,0,0,1-2.19l2.31-1.34A2.37,2.37,0,0,1,435.83,190.08Z"/><polygon class="cls-78" points="434.61 154.6 436.92 153.26 436.82 187.9 434.51 189.24 434.61 154.6"/><polygon class="cls-78" points="380.67 119.53 382.98 118.18 433.52 147.36 431.2 148.7 380.67 119.53"/><path class="cls-78" d="M431.2,148.7l2.32-1.34a7.51,7.51,0,0,1,3.4,5.9l-2.31,1.34A7.51,7.51,0,0,0,431.2,148.7Z"/><path class="cls-79" d="M431.2,148.7a7.49,7.49,0,0,1,3.41,5.9l-.1,34.64c0,2.17-1.54,3-3.43,1.95L380.55,162a7.46,7.46,0,0,1-3.4-5.89l.1-34.64c0-2.16,1.53-3,3.42-2Z"/></g><polygon class="cls-86" points="389.96 144.88 389.92 158.24 385.87 155.9 385.9 142.53 389.96 144.88"/><polygon class="cls-87" points="397.73 142.52 397.67 162.71 393.61 160.37 393.67 140.18 397.73 142.52"/><polygon class="cls-86" points="405.28 150.91 405.23 167.08 401.18 164.74 401.22 148.57 405.28 150.91"/><polygon class="cls-87" points="412.87 144.72 412.8 171.45 408.74 169.1 408.81 142.38 412.87 144.72"/><polygon class="cls-87" points="428.28 153.62 428.2 180.34 424.14 178 424.22 151.27 428.28 153.62"/><polygon class="cls-86" points="420.61 153.29 420.54 175.92 416.49 173.58 416.55 150.95 420.61 153.29"/><polygon class="cls-78" points="397.76 132.46 397.75 133.83 385.21 126.59 385.22 125.22 397.76 132.46"/><polygon class="cls-78" points="428.79 183.17 428.78 184.44 385.85 159.65 385.86 158.39 428.79 183.17"/><g class="cls-8"><polygon class="cls-88" points="396.81 224.77 400.47 222.64 411.7 244.3 408.03 246.43 396.81 224.77"/><path class="cls-87" d="M413.09,243.65l-3.67,2.13c3.06-1.78,5-5.49,5.17-10.74l3.67-2.13C418.1,238.16,416.15,241.87,413.09,243.65Z"/><path class="cls-87" d="M414.59,235c-.19,6-2.7,10-6.56,11.39L396.8,224.77Z"/><polygon class="cls-87" points="396.81 224.77 400.47 222.64 418.26 232.91 414.59 235.04 396.81 224.77"/><path class="cls-89" d="M396.86,203.62l-.06,21.15L408,246.43c-3.08,1.12-7,.58-11.28-1.88C386.91,238.87,379,225.1,379,213.81S387,197.94,396.86,203.62Z"/><path class="cls-88" d="M384.2,202.38l3.67-2.14c3.23-1.88,7.72-1.61,12.66,1.24l-3.67,2.14C391.92,200.76,387.43,200.49,384.2,202.38Z"/><polygon class="cls-88" points="396.87 203.62 400.53 201.48 400.47 222.64 396.81 224.77 396.87 203.62"/><path class="cls-86" d="M401.46,198.32c10.75,6.21,19.44,21.27,19.41,33.62,0,.26,0,.52,0,.75l-19.46-11.24Z"/><path class="cls-90" d="M401.46,198.32l3.67-2.13c10.75,6.21,19.44,21.27,19.41,33.62,0,.26,0,.52,0,.75l-3.67,2.13c0-.23,0-.49,0-.75C420.9,219.59,412.21,204.53,401.46,198.32Z"/></g><g class="cls-8"><path class="cls-78" d="M171.47,102.15l-2.31-1.34a2.39,2.39,0,0,0-2.42.24l2.31,1.34A2.39,2.39,0,0,1,171.47,102.15Z"/><path class="cls-78" d="M117.3,178.93l2.31,1.35a2.39,2.39,0,0,1-1-2.19l-2.31-1.34A2.37,2.37,0,0,0,117.3,178.93Z"/><polygon class="cls-78" points="118.52 135.49 116.21 134.15 116.31 176.75 118.62 178.09 118.52 135.49"/><polygon class="cls-78" points="169.05 102.39 166.74 101.05 119.61 128.25 121.93 129.6 169.05 102.39"/><path class="cls-78" d="M121.93,129.6l-2.32-1.35a7.51,7.51,0,0,0-3.4,5.9l2.31,1.35A7.52,7.52,0,0,1,121.93,129.6Z"/><path class="cls-79" d="M121.93,129.6a7.52,7.52,0,0,0-3.41,5.89l.1,42.6c0,2.17,1.54,3,3.43,1.95l47.12-27.21a7.49,7.49,0,0,0,3.4-5.88l-.1-42.6c0-2.17-1.53-3-3.42-2Z"/></g><path class="cls-91" d="M132.34,129.15l.23-.13-.07,2.8-.14.08a7.46,7.46,0,0,0-.65.44l-.33.26c-.16.13-.32.28-.48.43-2.35,2.29-3.59,6-2.77,8.19a2.6,2.6,0,0,0,.25.53c.73,1.21,2.14,1.44,3.67.69.12-.05.23-.12.35-.18l.09-.06a7.84,7.84,0,0,0,1-.74l.14-.12.22-.21a10.66,10.66,0,0,0,2.73-4.62l2.25-.3a16.31,16.31,0,0,1-4.18,7.08l-.23.21-.08.08a10.52,10.52,0,0,1-1.88,1.4l-.07,0-.13.08c-2.7,1.5-5.21,1.06-6.28-1.32,0-.11-.09-.22-.14-.34a6.9,6.9,0,0,1-.38-2.33,15.25,15.25,0,0,1,4.64-10.24A11.53,11.53,0,0,1,132.34,129.15Z"/><path class="cls-78" d="M132.38,135.39c.81-.46,1.47-.09,1.47.84a3.19,3.19,0,0,1-1.46,2.52c-.81.47-1.46.1-1.47-.83A3.23,3.23,0,0,1,132.38,135.39Z"/><path class="cls-92" d="M138.91,130.71a9.15,9.15,0,0,1-.07,5.5l-2.25.3a6,6,0,0,0,0-3.58c-.64-1.73-2.32-2.09-4.14-1.11l.07-2.8C135.36,127.5,137.94,128.06,138.91,130.71Z"/><path class="cls-93" d="M132.49,142.2a7.2,7.2,0,0,0,1-.74A7.84,7.84,0,0,1,132.49,142.2Z"/><path class="cls-78" d="M150.36,151a8.69,8.69,0,0,0,2.48-2.36A8.69,8.69,0,0,1,150.36,151Z"/><path class="cls-78" d="M150.25,144.32c.81-.46,1.46-.09,1.47.84a3.19,3.19,0,0,1-1.46,2.52c-.81.47-1.47.1-1.47-.83A3.23,3.23,0,0,1,150.25,144.32Z"/><path class="cls-94" d="M150.61,137.69c2-1,3.87-1,5.15.18,2.31,2.18,1.71,7.52-1.33,11.92l-.47.64a13,13,0,0,1-3.55,3.27l-.13.08-.1.06c-1.83,1-3.63,1.2-5,.35L145,154l-.09-.08-.15-.13a4.24,4.24,0,0,1-1.12-1.91l2.31-2.11a2.79,2.79,0,0,0,.73,1.25,1.71,1.71,0,0,0,.26.21l.05,0a3,3,0,0,0,3-.13l.26-.14.09,0a8.69,8.69,0,0,0,2.48-2.36c0-.06.09-.12.13-.19a9.52,9.52,0,0,0,1.79-5.19,3.51,3.51,0,0,0-.92-2.57,2.82,2.82,0,0,0-3.35-.12Z"/><g class="cls-8"><path class="cls-78" d="M150.58,157.21c.29-.16.52,0,.52.3a1.16,1.16,0,0,1-.51.89l-20.52,11.84c-.29.17-.52,0-.52-.29a1.13,1.13,0,0,1,.51-.89Z"/><path class="cls-78" d="M132.44,154.61c.8-.47,1.46-.09,1.46.84a3.24,3.24,0,0,1-1.45,2.52c-.81.46-1.47.09-1.47-.84A3.19,3.19,0,0,1,132.44,154.61Z"/><path class="cls-93" d="M133.18,144.53a8.17,8.17,0,0,1-.7.45A8.17,8.17,0,0,0,133.18,144.53Z"/><path class="cls-91" d="M136.51,160.22a13.79,13.79,0,0,1-4,3.85A7.07,7.07,0,0,1,130,165c-2.62.38-4.48-1.45-4.49-4.85a13.49,13.49,0,0,1,1.61-6.05,14.55,14.55,0,0,1,5.27-5.88V151a9.53,9.53,0,0,0-3.44,3.83,9,9,0,0,0-1,3.94c0,2.21,1.22,3.41,2.93,3.17a4.48,4.48,0,0,0,1.59-.58,8.87,8.87,0,0,0,2.64-2.52l.79.79h0Z"/><path class="cls-78" d="M132.43,151l.07,0"/></g><path class="cls-93" d="M134.35,143.58a12.2,12.2,0,0,1-1.17.95A12.2,12.2,0,0,0,134.35,143.58Z"/><path class="cls-78" d="M154,150.43a13,13,0,0,1-3.55,3.27A12.81,12.81,0,0,0,154,150.43Z"/><g class="cls-8"><path class="cls-91" d="M150.49,140.53l-.26.14a8.67,8.67,0,0,0-2.7,2.6c-1.53,2.21-2.11,4.8-1.6,6.51l-2.31,2.11c-.79-2.62.1-6.59,2.46-10a13.36,13.36,0,0,1,4.13-4l.4-.21Z"/><path class="cls-78" d="M150.19,125.11c.81-.47,1.47-.09,1.47.84a3.23,3.23,0,0,1-1.46,2.52c-.8.47-1.46.09-1.46-.83A3.24,3.24,0,0,1,150.19,125.11Z"/><path class="cls-91" d="M146.74,125.45a.7.7,0,0,1,.06-.09.7.7,0,0,0-.06.09,8.84,8.84,0,0,0-1.05,3.94c0,2.22,1.22,3.41,2.93,3.17l-.84,3.08.16,0-.16,0c-2.62.37-4.48-1.45-4.49-4.85a13.4,13.4,0,0,1,1.61-6.06l1.84.72Z"/></g><path class="cls-87" d="M150.18,118.85c3.82-2.21,6.92-.43,6.93,4a15.17,15.17,0,0,1-6.89,11.93,6.63,6.63,0,0,1-2.45.9l.85-3.07a4.5,4.5,0,0,0,1.6-.59,10,10,0,0,0,4.49-7.78c0-2.86-2-4-4.52-2.58a9.44,9.44,0,0,0-3.45,3.84l-1.84-.72A14.44,14.44,0,0,1,150.18,118.85Z"/><path class="cls-78" d="M165,112.38c1.07-.62,1.95-.12,1.95,1.12a4.25,4.25,0,0,1-1.94,3.36c-1.07.62-1.95.12-1.95-1.12A4.25,4.25,0,0,1,165,112.38Z"/><path class="cls-78" d="M165,120.42c1.08-.62,1.95-.12,1.95,1.11a4.24,4.24,0,0,1-1.94,3.36c-1.07.62-1.95.13-1.95-1.11A4.3,4.3,0,0,1,165,120.42Z"/><path class="cls-78" d="M165,128.46c1.08-.62,2-.12,2,1.11a4.29,4.29,0,0,1-1.94,3.36c-1.08.62-1.95.12-2-1.11A4.3,4.3,0,0,1,165,128.46Z"/><path class="cls-78" d="M165,136.5c1.07-.62,2-.12,2,1.11a4.3,4.3,0,0,1-1.94,3.36c-1.08.62-2,.12-2-1.11A4.24,4.24,0,0,1,165,136.5Z"/><path class="cls-95" d="M132.42,148.18c3.82-2.21,6.92-.43,6.93,3.95a14.62,14.62,0,0,1-2.84,8.09l-1.41-1.43a9.62,9.62,0,0,0,1.85-5.27c0-2.86-2-4-4.52-2.57Z"/><g class="cls-8"><path class="cls-78" d="M171.65,167l-1.93-1.12a2,2,0,0,0-2,.2l1.93,1.12A2,2,0,0,1,171.65,167Z"/><path class="cls-78" d="M126.44,219.23l1.93,1.12a2,2,0,0,1-.83-1.83l-1.93-1.12A2,2,0,0,0,126.44,219.23Z"/><polygon class="cls-78" points="127.46 194.85 125.53 193.73 125.61 217.4 127.54 218.52 127.46 194.85"/><polygon class="cls-78" points="169.63 167.22 167.7 166.1 128.37 188.81 130.3 189.93 169.63 167.22"/><path class="cls-78" d="M130.3,189.93l-1.93-1.12a6.26,6.26,0,0,0-2.84,4.92l1.93,1.12A6.26,6.26,0,0,1,130.3,189.93Z"/><path class="cls-79" d="M130.3,189.93a6.26,6.26,0,0,0-2.84,4.92l.08,23.67c0,1.81,1.29,2.54,2.86,1.63l39.33-22.71a6.24,6.24,0,0,0,2.84-4.91l-.08-23.67c0-1.81-1.28-2.55-2.86-1.64Z"/></g><polygon class="cls-78" points="168.65 190.9 168.65 193.29 136.06 212.1 136.06 209.72 168.65 190.9"/><polygon class="cls-78" points="168.61 179.27 168.62 181.65 136.03 200.47 136.02 198.08 168.61 179.27"/><polygon class="cls-78" points="168.63 185.08 168.63 187.48 136.04 206.29 136.04 203.9 168.63 185.08"/><polygon class="cls-78" points="156.15 180.65 156.15 183.05 136.01 194.68 136.01 192.28 156.15 180.65"/><path class="cls-78" d="M133.41,194.24c.35-.2.64,0,.64.37a1.38,1.38,0,0,1-.63,1.1c-.36.21-.65,0-.65-.36A1.43,1.43,0,0,1,133.41,194.24Z"/><path class="cls-78" d="M133.43,200c.35-.21.64,0,.64.37a1.42,1.42,0,0,1-.64,1.11c-.35.2-.64,0-.64-.37A1.39,1.39,0,0,1,133.43,200Z"/><path class="cls-78" d="M133.44,205.86c.36-.2.65,0,.65.37a1.41,1.41,0,0,1-.64,1.1c-.36.21-.64,0-.65-.36A1.43,1.43,0,0,1,133.44,205.86Z"/><path class="cls-78" d="M133.46,211.67c.35-.21.64,0,.64.37a1.44,1.44,0,0,1-.63,1.11c-.36.2-.65,0-.65-.37A1.43,1.43,0,0,1,133.46,211.67Z"/><g class="cls-8"><path class="cls-78" d="M269,102.22l9.63-5.6c-9.55,5.56-15.48,17.35-15.53,34.09-.09,33.7,23.69,74.89,53,91.82l-9.63,5.6c-29.33-16.93-53.11-58.12-53-91.83C253.54,119.56,259.47,107.77,269,102.22Z"/><path class="cls-78" d="M354,226.21l-9.63,5.6c-9.68,5.62-23.07,4.84-37.83-3.68l9.63-5.6C330.89,231.05,344.29,231.83,354,226.21Z"/><path class="cls-78" d="M278.65,96.63c9.68-5.63,23.07-4.85,37.83,3.67l-9.63,5.6c-14.76-8.52-28.16-9.3-37.83-3.67Z"/><path class="cls-78" d="M268.68,101.63l9.63-5.6c9.77-5.67,23.28-4.88,38.17,3.71l-9.63,5.6C292,96.74,278.44,96,268.68,101.63Z"/><path class="cls-78" d="M369.5,192.12c-.05,16.74-6,28.53-15.53,34.08l-9.64,5.6c9.56-5.55,15.49-17.34,15.53-34.08.1-33.7-23.68-74.89-53-91.82l9.63-5.6C345.81,117.23,369.59,158.43,369.5,192.12Z"/><path class="cls-78" d="M306.85,105.34c29.6,17.09,53.59,58.66,53.5,92.66s-24.25,47.77-53.85,30.68S252.91,170,253,136,277.26,88.26,306.85,105.34Zm-.35,122.79c29.33,16.93,53.27,3.29,53.36-30.41s-23.69-74.89-53-91.82-53.27-3.29-53.36,30.4,23.69,74.9,53,91.83"/><path class="cls-96" d="M359.86,197.72c-.09,33.7-24,47.34-53.36,30.41a90.65,90.65,0,0,1-19.75-15.79c-19.54-20.33-33.34-50.36-33.27-76,.1-33.7,24-47.34,53.37-30.41a87.74,87.74,0,0,1,16.86,12.89C344.77,139.09,359.94,170.79,359.86,197.72Z"/><path class="cls-79" d="M356.93,194.78c-.1,33.71-24,47.35-53.36,30.41a87.36,87.36,0,0,1-16.82-12.85c-19.54-20.33-33.34-50.36-33.27-76,.1-33.7,24-47.34,53.37-30.41a87.43,87.43,0,0,1,16.86,12.89C343.24,139.12,357,169.13,356.93,194.78Z"/><path class="cls-78" d="M354.31,226.8l-9.64,5.59c9.64-5.6,15.63-17.5,15.68-34.39.09-34-23.9-75.57-53.5-92.66l9.63-5.6c29.6,17.09,53.6,58.66,53.5,92.66C369.93,209.29,364,221.19,354.31,226.8Z"/></g><path class="cls-78" d="M348.73,191.3c0,9.16-2.28,16.45-6.19,21.52-7.4,9.69-20.78,11.31-36,2.53-23.19-13.4-42-46-41.93-72.62,0-12,3.9-20.81,10.27-25.61,7.75-5.85,19.2-5.79,31.93,1.56C330,132.08,348.82,164.65,348.73,191.3Z"/><path class="cls-79" d="M348.73,191.3c0,9.16-2.28,16.45-6.19,21.52-7.74,5.87-19.2,5.82-31.94-1.54-23.19-13.39-42-46-41.91-72.62,0-9.17,2.28-16.46,6.19-21.54,7.75-5.85,19.2-5.79,31.93,1.56C330,132.08,348.82,164.65,348.73,191.3Z"/><path class="cls-78" d="M308.61,123.16a1.67,1.67,0,0,1,.77,1.32l0,6.7c0,.49-.34.68-.77.44a1.69,1.69,0,0,1-.77-1.33l0-6.69C307.84,123.11,308.19,122.91,308.61,123.16Z"/><path class="cls-78" d="M290.58,118.3a1.71,1.71,0,0,1,.67.83l2.89,7.48c.21.54.09,1-.28,1a.67.67,0,0,1-.39-.11,1.73,1.73,0,0,1-.67-.83l-2.89-7.48c-.21-.54-.08-1,.28-1A.71.71,0,0,1,290.58,118.3Z"/><path class="cls-78" d="M277.35,125.85a1.31,1.31,0,0,1,.38.34l5,6.25a1.31,1.31,0,0,1,.29,1.38.48.48,0,0,1-.67.05,1.23,1.23,0,0,1-.39-.34l-5-6.25a1.31,1.31,0,0,1-.28-1.38C276.82,125.7,277.08,125.69,277.35,125.85Z"/><path class="cls-78" d="M278.28,147.12a1.69,1.69,0,0,1,.77,1.33c0,.49-.35.69-.77.44l-5.83-3.36a1.72,1.72,0,0,1-.77-1.33c0-.49.35-.68.78-.44Z"/><path class="cls-78" d="M282.28,166.82a1.62,1.62,0,0,1,.67.83c.21.55.08,1-.29,1l-5.05.44a.7.7,0,0,1-.38-.1,1.62,1.62,0,0,1-.67-.83c-.21-.55-.08-1,.28-1l5.06-.44A.64.64,0,0,1,282.28,166.82Z"/><path class="cls-78" d="M293.31,185.92a1.31,1.31,0,0,1,.38.34,1.29,1.29,0,0,1,.28,1.37L291,191.74c-.14.21-.4.22-.67.06a1.31,1.31,0,0,1-.38-.34,1.27,1.27,0,0,1-.28-1.37l2.93-4.12C292.78,185.77,293,185.76,293.31,185.92Z"/><path class="cls-78" d="M308.4,199.29a1.7,1.7,0,0,1,.77,1.33l0,6.69c0,.49-.35.69-.78.44a1.71,1.71,0,0,1-.76-1.33l0-6.69C307.63,199.24,308,199,308.4,199.29Z"/><path class="cls-78" d="M323.52,203.36a1.67,1.67,0,0,1,.67.83l2.89,7.47c.22.55.09,1-.28,1.05a.71.71,0,0,1-.39-.1,1.66,1.66,0,0,1-.66-.83l-2.9-7.48c-.21-.54-.09-1,.29-1A.7.7,0,0,1,323.52,203.36Z"/><path class="cls-78" d="M334.62,197a1.27,1.27,0,0,1,.38.33l5,6.27a1.3,1.3,0,0,1,.29,1.37.5.5,0,0,1-.68.06,1.48,1.48,0,0,1-.38-.34l-5-6.27a1.28,1.28,0,0,1-.28-1.36C334.09,196.89,334.35,196.88,334.62,197Z"/><path class="cls-78" d="M344.54,185.38a1.69,1.69,0,0,1,.76,1.33c0,.48-.34.68-.77.44l-5.82-3.37a1.68,1.68,0,0,1-.77-1.33c0-.48.35-.68.77-.44Z"/><path class="cls-78" d="M339.77,161.88a1.69,1.69,0,0,1,.66.83c.22.55.09,1-.28,1l-5.06.43a.7.7,0,0,1-.38-.1,1.7,1.7,0,0,1-.66-.83c-.22-.55-.09-1,.28-1l5.05-.43A.73.73,0,0,1,339.77,161.88Z"/><path class="cls-78" d="M326.62,139.11a1.48,1.48,0,0,1,.38.34,1.3,1.3,0,0,1,.29,1.37l-2.93,4.11a.47.47,0,0,1-.67.06,1.3,1.3,0,0,1-.39-.33,1.31,1.31,0,0,1-.28-1.38l2.93-4.11A.49.49,0,0,1,326.62,139.11Z"/><g class="cls-8"><path class="cls-78" d="M302.58,163.66l3.21-1.86a2.44,2.44,0,0,0-1,2.25,7.7,7.7,0,0,0,3.5,6.07L305.06,172a7.71,7.71,0,0,1-3.5-6.07A2.47,2.47,0,0,1,302.58,163.66Z"/><path class="cls-78" d="M310.77,170.37l-3.21,1.86a2.49,2.49,0,0,1-2.5-.24l3.21-1.87A2.47,2.47,0,0,0,310.77,170.37Z"/><path class="cls-78" d="M300,159.24l3.21-1.86c1.3-.76,3.1-.65,5.08.49l-3.21,1.87C303.11,158.59,301.31,158.49,300,159.24Z"/><path class="cls-78" d="M313.34,174.79l-3.21,1.87c1.28-.75,2.07-2.33,2.08-4.59a15.69,15.69,0,0,0-7.12-12.33l3.21-1.87a15.69,15.69,0,0,1,7.12,12.34C315.41,172.46,314.62,174,313.34,174.79Z"/><path class="cls-79" d="M305.09,159.74a15.69,15.69,0,0,1,7.12,12.33c0,4.54-3.21,6.36-7.16,4.08a15.63,15.63,0,0,1-7.12-12.33C297.94,159.29,301.15,157.46,305.09,159.74Zm0,12.25c1.94,1.12,3.52.22,3.52-2a7.71,7.71,0,0,0-3.5-6.07c-1.94-1.12-3.52-.22-3.52,2a7.69,7.69,0,0,0,3.5,6.07"/></g><g class="cls-97"><path class="cls-77" d="M228.42,297.63c10.41,6,11.92,21.38,2.65,37.57-10.84,18.93-32.32,31.82-48,28.79a19.33,19.33,0,0,1-6.05-2.21c-10.42-6-11.93-21.38-2.66-37.57,10.84-18.93,32.32-31.82,48-28.79A19.54,19.54,0,0,1,228.42,297.63Z"/><path class="cls-77" d="M242.38,320.26c7.51,4.34,8.64,15.34,2,26.91-7.76,13.56-23.23,22.76-34.56,20.57a14.05,14.05,0,0,1-4.43-1.62c-7.51-4.33-8.65-15.33-2-26.9,7.77-13.56,23.24-22.76,34.57-20.57A14.48,14.48,0,0,1,242.38,320.26Z"/></g><g class="cls-8"><path class="cls-79" d="M226.92,199.77l6.43-3.73a2.45,2.45,0,0,0-.37.26L226.55,200A3.09,3.09,0,0,1,226.92,199.77Z"/><path class="cls-91" d="M228.76,202.94l6.42-3.74a1.71,1.71,0,0,0-.7.85l-.09.22c-.51,1.65.44,4.25,2.13,5.8a5.47,5.47,0,0,0,.92.7,3.13,3.13,0,0,0,1.06.39,1.75,1.75,0,0,0,1.21-.18l-6.42,3.73a1.77,1.77,0,0,1-1.22.18,3,3,0,0,1-1-.39,5.14,5.14,0,0,1-.92-.69c-1.69-1.56-2.64-4.16-2.13-5.81a1.45,1.45,0,0,1,.09-.22A1.65,1.65,0,0,1,228.76,202.94Z"/><path class="cls-79" d="M237.33,199.36l-6.42,3.73a3.14,3.14,0,0,0-.64-.27l6.42-3.73h0A3.14,3.14,0,0,1,237.33,199.36Z"/><path class="cls-79" d="M237.33,199.36h0l-6.43,3.73h0Z"/><path class="cls-79" d="M230.92,203.1l6.43-3.73.09,0L231,203.15Z"/><path class="cls-79" d="M233.29,210.71a1.84,1.84,0,0,0,.8-1.07c.51-1.64-.45-4.24-2.14-5.8a3.47,3.47,0,0,0-.42-.34,5.16,5.16,0,0,0-.51-.35l-.1-.05,0,0a2.4,2.4,0,0,0-.23-.11l0,0h0l-.16-.06a.52.52,0,0,0-.16-.06l-.09,0-.21-.05a1.88,1.88,0,0,0-1.09.12l-.14.08-.18.12a1.83,1.83,0,0,0-.51.71c0,.07-.06.15-.08.22-.51,1.65.44,4.25,2.12,5.8a5.15,5.15,0,0,0,.93.7,3.35,3.35,0,0,0,1,.4,2.35,2.35,0,0,0,.59,0,.57.57,0,0,0,.18,0l.07,0,.18-.06.18-.08h0"/><path class="cls-98" d="M236.69,208.74a11.72,11.72,0,0,0-.57-2.14,14,14,0,0,0-1.9-3.49,13,13,0,0,0-1-1.22s0,0-.07-.07h0l-.41-.39h0a5.5,5.5,0,0,0-.53-.45,9,9,0,0,0-1.11-.78,8.38,8.38,0,0,0-.91-.44,4.83,4.83,0,0,0-1.71-.35,2.73,2.73,0,0,0-.41,0,1.26,1.26,0,0,0-.28,0l-.08,0-.21.06-.13.05h0l-.06,0-.29.14a2.5,2.5,0,0,0-.41.29,3.5,3.5,0,0,0-1.07,1.66c-.92,3,.81,7.71,3.87,10.53a8.89,8.89,0,0,0,1.65,1.24c1.67,1,3.26,1.05,4.35.25l.06,0a3.13,3.13,0,0,0,.33-.31l0,0c.09-.1.17-.2.26-.32s0,0,0-.07a4.23,4.23,0,0,0,.25-.42v0c.07-.15.13-.32.2-.5s0-.06,0-.09a2.37,2.37,0,0,0,.09-.36A7.22,7.22,0,0,0,236.69,208.74Z"/><path class="cls-91" d="M233.27,210.72l-.18.08-.18.06-.07,0a.57.57,0,0,1-.18,0,2.35,2.35,0,0,1-.59,0,3.35,3.35,0,0,1-1-.4,5.15,5.15,0,0,1-.93-.7c-1.68-1.55-2.63-4.15-2.12-5.8,0-.07.06-.15.08-.22a1.83,1.83,0,0,1,.51-.71.76.76,0,0,1,.19-.12.46.46,0,0,1,.13-.08,1.89,1.89,0,0,1,1.09-.12l.21.05.09,0a.52.52,0,0,1,.16.06l.16.06h0l0,0a2.4,2.4,0,0,1,.23.11l0,0,.1.05a5.16,5.16,0,0,1,.51.35,3.47,3.47,0,0,1,.42.34c1.69,1.56,2.65,4.16,2.14,5.8a1.84,1.84,0,0,1-.8,1.07Z"/><path class="cls-79" d="M230.64,203h0l.28.14Z"/><path class="cls-79" d="M230.59,202.94l0,0h0Z"/><path class="cls-79" d="M230.59,202.94l-.32-.12Z"/><path class="cls-79" d="M241.55,210.14l-6.43,3.73a3.24,3.24,0,0,0,1.41-1.85l6.42-3.73A3.27,3.27,0,0,1,241.55,210.14Z"/><polygon class="cls-79" points="236.55 211.93 242.98 208.19 242.95 208.29 236.53 212.02 236.55 211.93"/><polygon class="cls-90" points="206.86 136.74 213.29 133.01 236.56 196.01 230.14 199.74 206.86 136.74"/><path class="cls-90" d="M226.92,199.77l6.43-3.73a3.68,3.68,0,0,1,3.22,0,6.76,6.76,0,0,1,.9.44,8.89,8.89,0,0,1,1.65,1.24,11.74,11.74,0,0,1,1.53,1.69l-6.43,3.73a12.83,12.83,0,0,0-1.52-1.69,9.36,9.36,0,0,0-1.65-1.24,8.38,8.38,0,0,0-.91-.44A3.68,3.68,0,0,0,226.92,199.77Z"/><path class="cls-79" d="M234.22,203.11l6.43-3.73c2.07,2.77,3.09,6.37,2.33,8.81l-6.43,3.74C237.32,209.48,236.3,205.89,234.22,203.11Z"/><path class="cls-86" d="M196.56,119l13.81,17.41-3.51.3,23.28,63a3.47,3.47,0,0,0-3.59.29l-25.3-62.8-3.7.32Z"/><polygon class="cls-90" points="196.56 119.03 202.99 115.3 216.79 132.71 210.37 136.44 196.56 119.03"/><polygon class="cls-90" points="234.22 203.11 240.65 199.38 272.43 203.58 266.01 207.31 234.22 203.11"/><polygon class="cls-90" points="281.1 214.99 287.52 211.26 277.19 220.45 270.77 224.18 281.1 214.99"/><polygon class="cls-90" points="264.61 202.34 271.03 198.61 287.52 211.26 281.1 214.99 264.61 202.34"/><path class="cls-86" d="M264.61,202.34,281.1,215l-10.33,9.19-1.52-5.39L236.53,212c.79-2.54-.23-6.13-2.31-8.91l31.79,4.2Z"/></g><path class="cls-79" d="M214.8,171.15c0-.13.06-.25.09-.38a25.2,25.2,0,0,0,.36-4.63c-.14-1.77-.09-3.4-.73-4.11s-.93.51-1,1.9a2.86,2.86,0,0,1-.69,1.91L210,159a34.18,34.18,0,0,0-.9,4.1c-.1,1.22-.47,3.76,0,5.26a12.83,12.83,0,0,1,.54,3l-.77,2.1,4.88.95Z"/><path class="cls-79" d="M208.9,173a7.06,7.06,0,0,1,.44-1.12,4.84,4.84,0,0,1,3.08.23c1.74.57,2.2,1.69,2.2,2.07a16.27,16.27,0,0,1-.34,1.83Z"/><path class="cls-87" d="M202.67,184.36s4.69-10.76,5.72-11.32,5.65.24,6.22,2.84-6.46,24.65-7.74,26.46c-1,1.33-13.11-3.63-13.11-3.63S202,185.69,202.67,184.36Z"/><path class="cls-79" d="M245.18,217.11l-.74-2.23c-.22-.69-.32-3.32.37-4.15s1.85,3.39,1.85,3.39h0l6.3,1.3a8.26,8.26,0,0,1-1.74,2.66c-.91.68-1.4,1-1.4,1l-.36,1.07-4.45-2Z"/><path class="cls-79" d="M244.11,218.87a7.33,7.33,0,0,1,.43-1.13,5,5,0,0,1,3.09.23c1.73.57,2.19,1.7,2.19,2.08a16.91,16.91,0,0,1-.33,1.82Z"/><path class="cls-91" d="M213.8,324.22s1,3.29,2.48,4.21,6.05,1.1,8.48-2.48,2.48-6.57,5.07-9.63,3.46-7.15,2.19-9.06-5.19-2.59-10.26,3.52A56,56,0,0,0,213.8,324.22Z"/><path class="cls-91" d="M193.25,343.19a45.9,45.9,0,0,0,9,1.47c3.46,0,5.65,3.46,3.74,5.57-2.08,2.3-5.27,3.19-11.81,3.88s-8.84,1.93-11.76,1.16,0-11.15,0-11.15Z"/><path class="cls-96" d="M189.06,250.38s-2.61,11.31,2.27,18.53l10.91,22.57s7.69,29.65,10.92,33.34c0,0,6.16.31,8.92-4.62s2-5.8,0-11.84c-5.38-16.07-4.92-23.84-5.53-28s-6.31-30-6.31-30Z"/><path class="cls-79" d="M196.09,253.92S195,264.18,199,272.33l-4.47,30.11s-12,20.07-13.23,44.21c0,0,3,2.84,8.92.62,3.69-1.38,4.26-2.43,6.61-8,5.39-12.76,12.92-25.53,16.92-32.45S223.16,251,223.16,251Z"/><polygon class="cls-79" points="189.42 242.56 192.45 246.12 197.44 241.77 192.77 237.49 189.42 242.56"/><path class="cls-87" d="M194.11,197.34s-6.25,1.37-6.14,13.26c.07,7.07,6.48,9.67,10,12.48s19.57,9.13,20.58,8.31,0-6.42-1.95-7.5-9.19-12.77-9.73-12.81-6.47-2.32-6.47-2.32Z"/><path class="cls-79" d="M193.76,258.82A17.06,17.06,0,0,0,206,263.17c7.6-.32-8.13-17-8.13-17Z"/><path class="cls-87" d="M226.54,222.08l-1,5.34-.29,1.48-.9,4.83,0,.19a67.87,67.87,0,0,0-1,8.42c-.07,1-.11,2.12-.11,3.19,0,1.42,0,2.85.08,4.28.23,4.5.46,9.32.41,9.84a10.93,10.93,0,0,1-2.24,5.42,10.47,10.47,0,0,1-7.22,3.79,9,9,0,0,1-.92.09c-8.53.61-15.5-4.64-15.5-4.64l.07-2.75.22-7.86.08-3.13-1,3.23-.85,2.63L195.17,260l-.55,1.7a54.89,54.89,0,0,1-6.22-6,5.37,5.37,0,0,1-1-1.73c-.56-2.22,0-6.32,2.54-14.51,2.07-6.69,2.16-13.41,1.36-21.4-.18-1.81-.41-3.68-.66-5.63-1.24-9.29,1.11-13.86,3.47-15.06h0a4.19,4.19,0,0,1,.66-.25l.26,0c2.62-.35,8.13,2.14,8.13,2.14h0c.15,0,1.72.47,3.64,1.09l.87.29c2.62.9,5.58,2.07,6.46,3.09.51.59,1.55,1.63,2.75,2.81.58.55,1.19,1.15,1.81,1.73,2.31,2.2,4.58,4.29,4.58,4.29l.2.6Z"/><path class="cls-79" d="M225.47,184.69a102.5,102.5,0,0,1-1.65,12.06c-1,4.14-5.83,3.15-5.83,3.15l-1.16,6.92s-7.9-.24-10.27-5.38l1-4.92s-5.51-7.07-2.88-13.71,8.58-7.95,12.83-7.47S225.93,178.8,225.47,184.69Z"/><path class="cls-91" d="M225.48,185.39s-.43,2.19-1.95,2.54-1.48.24-1.48.24l-.3,2.88-1.59.36s.1-2.51-1-2.84-1.87,3.16-1.17,4.2a1.61,1.61,0,0,0,1.55.87s-2.12,5.62-5.21,6.33-6.43-1.34-7.76-2.73c-.84-.88-1.14-1.81-2-4.23-.51-1.43-1.86-3.83-1.89-5.83-.08-5.37,2.18-5.65,2.18-5.65s-.7-3.15,3.11-6.34,9.81-3,13-.7,3.84.76,7.15,2.1c1.15.47,2.52,3.38,1.63,5.46C229.4,182.86,228.35,186,225.48,185.39Z"/><path class="cls-79" d="M218.76,208.22s-.33-3.74-.54-4.29-1.19-.92-5.76-2.21-5.65-3.5-6.47-3.88-2.83,1.34-2.83,1.34,1.46,4.71,7.58,6.64S218.76,208.22,218.76,208.22Z"/><path class="cls-87" d="M198.94,248h0a.21.21,0,0,1-.18-.26,186.68,186.68,0,0,0,3-26c.36-12.46,2.87-17.44,3-17.65a.23.23,0,0,1,.41.21s-2.58,5.12-2.93,17.45a187,187,0,0,1-3,26.08A.25.25,0,0,1,198.94,248Z"/><path class="cls-91" d="M226,227.72l-.38,4.89c-.07.79-.11,1.57-.14,2.35l-1.19-1a69.81,69.81,0,0,0-1,8.42,24.88,24.88,0,0,1-6-11,35.43,35.43,0,0,1-1.14-7.75c0-.31,0-.58,0-.83,0,0,0,0,0,0,0-.75,0-1.19,0-1.19l9.34,5.85Z"/><path class="cls-87" d="M249.69,221.57c-.57-2.6-5.2-3.41-6.23-2.84-.81.45-4,7.35-5.19,10.15h0c-2.33-2.88-9.4-11.58-12.44-14.23a10.5,10.5,0,0,0-2.35-1.55c-3.27-1.57-6.86-.88-7.76,4.14a11.19,11.19,0,0,0,.46,5.52s0,0,0,0c.13.39.27.76.43,1.14a20.47,20.47,0,0,0,2,3.58,38.94,38.94,0,0,0,5.73,6.43l1.19,1.05h0c5.89,5.12,8.08,8.28,12,9.33a5.29,5.29,0,0,0,6.44-3h0C245.29,239.44,250.26,224.17,249.69,221.57Z"/></g></g></svg>