<svg xmlns="http://www.w3.org/2000/svg" viewBox="0 0 592 500"><defs><style>.cls-1{fill:#fff;}.cls-2{fill:#d7e4f9;}.cls-3{fill:#263238;}.cls-4{fill:#f97d8c;}.cls-4,.cls-5{stroke:#779ce8;stroke-linejoin:round;stroke-width:0.75px;}.cls-5{fill:#e7edf7;stroke-linecap:round;}.cls-6{opacity:0.3;}.cls-7{fill:#779ce8;}.cls-8{fill:#455a64;}.cls-9{fill:#407bff;}.cls-10{opacity:0.2;}</style></defs><g id="Layer_1" data-name="Layer 1"><rect class="cls-1" x="-657.12" y="-45.34" width="672.51" height="557.68"/><rect class="cls-1" x="-19.9" y="-26.1" width="672.51" height="557.68"/></g><g id="Layer_3" data-name="Layer 3"><g id="Background_Complete" data-name="Background Complete"><rect class="cls-2" x="307.65" y="447.79" width="64.93" height="13.34"/><path class="cls-2" d="M368.81,446.64s-14.4-15.11-16.95-31.81c-2.43-15.88-3.08-27.13-3.08-27.13H331.91s-.65,11.25-3.08,27.13c-2.56,16.7-17,31.81-17,31.81l28.47-.41Z"/><path class="cls-2" d="M372.48,449.46H307.26a1.45,1.45,0,0,1-1.45-1.45v-.44a1.45,1.45,0,0,1,1.45-1.45h65.22a1.45,1.45,0,0,1,1.45,1.45V448A1.45,1.45,0,0,1,372.48,449.46Z"/><path class="cls-2" d="M351.84,388.42h-23a2,2,0,0,1-2-2v-.63a2,2,0,0,1,2-2h23a2,2,0,0,1,2,2v.63A2,2,0,0,1,351.84,388.42Z"/><path class="cls-2" d="M355,383.71H325.49a1.9,1.9,0,0,1-1.9-1.9v-.59a1.9,1.9,0,0,1,1.9-1.9H355a1.9,1.9,0,0,1,1.9,1.9v.59A1.9,1.9,0,0,1,355,383.71Z"/><circle class="cls-2" cx="340.34" cy="364.96" r="15.78"/><path class="cls-2" d="M352,388.42c0,.14-5.08.26-11.35.26s-11.36-.12-11.36-.26,5.08-.26,11.36-.26S352,388.28,352,388.42Z"/><path class="cls-2" d="M353.36,383.71c0,.14-6.1.25-13.61.25s-13.62-.11-13.62-.25,6.1-.26,13.62-.26S353.36,383.56,353.36,383.71Z"/><path class="cls-2" d="M350.07,379.14a89.33,89.33,0,0,1-9.73.26,89.33,89.33,0,0,1-9.73-.26,94.29,94.29,0,0,1,9.73-.25A94.29,94.29,0,0,1,350.07,379.14Z"/><path class="cls-2" d="M366.82,446.12c0,.14-13.17.25-29.42.25s-29.42-.11-29.42-.25,13.17-.26,29.42-.26S366.82,446,366.82,446.12Z"/><path class="cls-2" d="M373,449.46c0,.14-14.73.26-32.9.26s-32.9-.12-32.9-.26,14.73-.26,32.9-.26S373,449.32,373,449.46Z"/><rect class="cls-2" x="407.72" y="451.52" width="46.63" height="9.58"/><path class="cls-2" d="M451.65,450.7s-10.34-10.86-12.18-22.85c-1.74-11.41-2.21-19.49-2.21-19.49H425.14s-.46,8.08-2.21,19.49c-1.83,12-12.18,22.85-12.18,22.85l20.45-.29Z"/><path class="cls-2" d="M454.13,452.72H407.6a1.2,1.2,0,0,1-1.2-1.2h0a1.2,1.2,0,0,1,1.2-1.2h46.53a1.2,1.2,0,0,1,1.2,1.2h0A1.2,1.2,0,0,1,454.13,452.72Z"/><path class="cls-2" d="M439.23,408.88H423.17a1.69,1.69,0,0,1-1.69-1.69h0a1.68,1.68,0,0,1,1.69-1.69h16.06a1.69,1.69,0,0,1,1.7,1.69h0A1.7,1.7,0,0,1,439.23,408.88Z"/><path class="cls-2" d="M441.53,405.5H420.75a1.58,1.58,0,0,1-1.58-1.58h0a1.57,1.57,0,0,1,1.58-1.57h20.78a1.57,1.57,0,0,1,1.57,1.57h0A1.57,1.57,0,0,1,441.53,405.5Z"/><circle class="cls-2" cx="431.2" cy="392.03" r="11.34"/><path class="cls-2" d="M439.54,408.88a151.26,151.26,0,0,1-16.31,0,151.26,151.26,0,0,1,16.31,0Z"/><path class="cls-2" d="M440.55,405.5c0,.12-4.38.22-9.78.22s-9.77-.1-9.77-.22,4.37-.23,9.77-.23S440.55,405.37,440.55,405.5Z"/><path class="cls-2" d="M438.19,402.22a111.16,111.16,0,0,1-14,0,111.16,111.16,0,0,1,14,0Z"/><path class="cls-2" d="M450.22,450.32c0,.12-9.46.22-21.13.22s-21.13-.1-21.13-.22,9.46-.22,21.13-.22S450.22,450.2,450.22,450.32Z"/><path class="cls-2" d="M454.66,452.72c0,.12-10.58.22-23.62.22s-23.63-.1-23.63-.22S418,452.5,431,452.5,454.66,452.6,454.66,452.72Z"/><path class="cls-2" d="M274.1,381.32l6.5-2.11-1-11.25-6.78-.9a27.46,27.46,0,0,0-3.42-6.52l3.1-6.09-8.69-7.23-5.42,4.16a27.46,27.46,0,0,0-7-2.18l-2.11-6.5-11.26,1-.89,6.77a27.87,27.87,0,0,0-6.52,3.43l-6.09-3.1-7.23,8.69,4.16,5.42a27.76,27.76,0,0,0-2.19,7l-6.5,2.11,1,11.25,6.77.9a27.5,27.5,0,0,0,3.43,6.52l-3.1,6.09,8.69,7.23,5.42-4.16a27.39,27.39,0,0,0,7,2.18l2.11,6.5,11.26-1,.89-6.77a27.56,27.56,0,0,0,6.53-3.43l6.08,3.1,7.23-8.69-4.15-5.42A27.34,27.34,0,0,0,274.1,381.32ZM256.3,384a12.12,12.12,0,1,1-1.57-17.08A12.12,12.12,0,0,1,256.3,384Z"/><path class="cls-2" d="M465.2,151.33l3.54-1.16-.56-6.14-3.7-.48a15.12,15.12,0,0,0-1.86-3.56l1.69-3.32-4.74-3.95-3,2.27a15.24,15.24,0,0,0-3.84-1.19l-1.15-3.54-6.14.56-.49,3.69a15.15,15.15,0,0,0-3.56,1.87l-3.32-1.69-3.94,4.74,2.27,3a14.61,14.61,0,0,0-1.19,3.84l-3.55,1.15.56,6.14,3.7.48a15.15,15.15,0,0,0,1.87,3.56l-1.69,3.32,4.74,4,2.95-2.27a15.24,15.24,0,0,0,3.84,1.19l1.15,3.55,6.14-.57.49-3.69a15.15,15.15,0,0,0,3.56-1.87l3.32,1.69,3.94-4.74-2.26-3A15,15,0,0,0,465.2,151.33Zm-9.72,1.46a6.61,6.61,0,1,1-.85-9.31A6.6,6.6,0,0,1,455.48,152.79Z"/><path class="cls-2" d="M186.86,87.65l3.92-1.27-.63-6.79-4.08-.54A17.07,17.07,0,0,0,184,75.11l1.87-3.67-5.24-4.36-3.27,2.51a17,17,0,0,0-4.24-1.32l-1.28-3.92-6.79.62-.54,4.09a17,17,0,0,0-3.93,2.07l-3.67-1.87-4.36,5.24,2.5,3.27A16.52,16.52,0,0,0,153.74,82l-3.92,1.28.62,6.79,4.08.54a17,17,0,0,0,2.07,3.93l-1.87,3.67,5.24,4.36,3.27-2.5a16.71,16.71,0,0,0,4.25,1.31l1.27,3.92,6.79-.62.54-4.08A17.07,17.07,0,0,0,180,98.54l3.67,1.87,4.36-5.24-2.51-3.27A17.15,17.15,0,0,0,186.86,87.65Zm-10.74,1.62a7.32,7.32,0,1,1-1-10.3A7.31,7.31,0,0,1,176.12,89.27Z"/><path class="cls-2" d="M151.89,341.13l3.5-1.14-.56-6.07-3.65-.48a14.63,14.63,0,0,0-1.85-3.52l1.68-3.28-4.69-3.9L143.4,325a14.93,14.93,0,0,0-3.8-1.18l-1.14-3.51-6.07.56-.48,3.65a15.19,15.19,0,0,0-3.52,1.85l-3.28-1.67-3.9,4.69,2.24,2.92a14.86,14.86,0,0,0-1.18,3.79l-3.5,1.14.55,6.07,3.66.49a15,15,0,0,0,1.85,3.52l-1.68,3.28,4.69,3.9,2.92-2.25a14.93,14.93,0,0,0,3.8,1.18l1.14,3.51,6.07-.56.48-3.65a14.82,14.82,0,0,0,3.52-1.85l3.28,1.67,3.9-4.69-2.24-2.92A14.74,14.74,0,0,0,151.89,341.13Zm-9.61,1.45a6.54,6.54,0,1,1-.84-9.21A6.54,6.54,0,0,1,142.28,342.58Z"/><path class="cls-2" d="M274.71,432.78l2,1,2.39-2.86-1.38-1.79a9.22,9.22,0,0,0,.73-2.32l2.14-.7-.34-3.71-2.23-.3a9.41,9.41,0,0,0-1.14-2.15l1-2-2.87-2.38L273.26,417a9.2,9.2,0,0,0-2.32-.72l-.7-2.14-3.71.34-.29,2.23a9,9,0,0,0-2.15,1.13l-2-1-2.39,2.86,1.37,1.79a9.15,9.15,0,0,0-.72,2.33l-2.14.69.34,3.72,2.23.29a9.79,9.79,0,0,0,1.13,2.15l-1,2,2.87,2.38,1.79-1.37a9.22,9.22,0,0,0,2.32.73l.69,2.14,3.72-.34.29-2.24A8.82,8.82,0,0,0,274.71,432.78Zm-4.78-3.53a4,4,0,1,1,3.62-4.34A4,4,0,0,1,269.93,429.25Z"/><path class="cls-2" d="M459.67,356.31l2,1,2.39-2.87-1.37-1.79a9.2,9.2,0,0,0,.72-2.32l2.14-.7-.34-3.71-2.23-.29a9,9,0,0,0-1.13-2.15l1-2L460,339.11l-1.79,1.37a9.08,9.08,0,0,0-2.32-.72l-.69-2.14-3.72.34-.29,2.23a9.21,9.21,0,0,0-2.15,1.14l-2-1-2.39,2.87L446,345a9.22,9.22,0,0,0-.73,2.32l-2.14.7.34,3.71,2.23.29a9,9,0,0,0,1.14,2.15l-1,2,2.87,2.39,1.79-1.37a9.2,9.2,0,0,0,2.32.72l.7,2.14,3.71-.34.29-2.23A9.28,9.28,0,0,0,459.67,356.31Zm-4.78-3.52a4,4,0,1,1,3.61-4.35A4,4,0,0,1,454.89,352.79Z"/><path class="cls-2" d="M77.6,314.73l2,1L82,312.88l-1.37-1.79a9.2,9.2,0,0,0,.72-2.32l2.14-.69-.34-3.72-2.23-.29a9.36,9.36,0,0,0-1.13-2.15l1-2-2.87-2.39-1.79,1.37a9.62,9.62,0,0,0-2.32-.72L73.14,296l-3.72.34-.29,2.23A9,9,0,0,0,67,299.74l-2-1-2.39,2.87L64,303.37a9.62,9.62,0,0,0-.72,2.32l-2.14.7.34,3.71,2.23.29a9.28,9.28,0,0,0,1.14,2.16l-1,2,2.87,2.39,1.79-1.37a9.2,9.2,0,0,0,2.32.72l.7,2.14,3.71-.34.29-2.23A9.36,9.36,0,0,0,77.6,314.73Zm-4.78-3.53a4,4,0,1,1,3.62-4.35A4,4,0,0,1,72.82,311.2Z"/><path class="cls-2" d="M337.33,86.06l2,1,2.39-2.86-1.38-1.79a9.22,9.22,0,0,0,.73-2.32l2.14-.7-.34-3.71-2.24-.3a9,9,0,0,0-1.13-2.15l1-2-2.87-2.38-1.79,1.37a8.81,8.81,0,0,0-2.32-.72l-.7-2.15-3.71.34-.3,2.24a9,9,0,0,0-2.15,1.13l-2-1-2.38,2.86,1.37,1.79A9.2,9.2,0,0,0,323,77l-2.14.7.34,3.71,2.23.3a9.38,9.38,0,0,0,1.13,2.15l-1,2,2.87,2.38,1.78-1.37a8.77,8.77,0,0,0,2.33.72l.69,2.15,3.72-.34.29-2.24A9.18,9.18,0,0,0,337.33,86.06Zm-4.78-3.53a4,4,0,1,1,3.62-4.35A4,4,0,0,1,332.55,82.53Z"/><path class="cls-2" d="M386.61,306.22l3-1-.47-5.2-3.13-.41a12.38,12.38,0,0,0-1.58-3l1.43-2.81-4-3.34-2.5,1.92a12.74,12.74,0,0,0-3.25-1l-1-3-5.19.48L369.5,292a13,13,0,0,0-3,1.59l-2.81-1.44-3.33,4,1.92,2.5a12.62,12.62,0,0,0-1,3.25l-3,1,.47,5.2,3.13.41a13.12,13.12,0,0,0,1.58,3L362,314.31l4,3.34,2.5-1.92a12.74,12.74,0,0,0,3.25,1l1,3,5.19-.48.42-3.13a12.38,12.38,0,0,0,3-1.58l2.81,1.43,3.34-4-1.92-2.5A13.15,13.15,0,0,0,386.61,306.22Zm-8.22,1.24a5.6,5.6,0,1,1-.73-7.88A5.6,5.6,0,0,1,378.39,307.46Z"/><path class="cls-2" d="M103.88,192.65l2.58-.84-.41-4.47-2.69-.36a11.06,11.06,0,0,0-1.36-2.59l1.23-2.42-3.46-2.88-2.15,1.65a11.19,11.19,0,0,0-2.8-.86L94,177.29l-4.47.41-.36,2.7a10.7,10.7,0,0,0-2.59,1.36l-2.42-1.23L81.26,184l1.65,2.16a11.25,11.25,0,0,0-.86,2.79l-2.59.84.41,4.48,2.7.35a10.58,10.58,0,0,0,1.36,2.6l-1.23,2.42,3.45,2.87,2.16-1.65a10.87,10.87,0,0,0,2.79.87l.84,2.58,4.48-.41.35-2.69a10.93,10.93,0,0,0,2.6-1.36l2.42,1.23,2.87-3.46L103,195.45A10.82,10.82,0,0,0,103.88,192.65Zm-7.08,1.07a4.82,4.82,0,1,1-.62-6.79A4.81,4.81,0,0,1,96.8,193.72Z"/></g><g id="Floor"><path class="cls-3" d="M483,459.35c0,.14-96.46.26-215.44.26s-215.46-.12-215.46-.26,96.45-.26,215.46-.26S483,459.21,483,459.35Z"/></g><g id="Speech_Bubble_4" data-name="Speech Bubble 4"><path class="cls-2" d="M403.22,271.15A28.6,28.6,0,1,0,413.06,245c-2.52-.72-6.73-1.66-6.48-.61a19.75,19.75,0,0,0,2,5.4C403.73,255.79,402,262.92,403.22,271.15Z"/><path class="cls-3" d="M403.22,271.15s0-.13-.07-.39-.1-.65-.17-1.14a32,32,0,0,1-.21-4.47,26.51,26.51,0,0,1,1.16-7,26.06,26.06,0,0,1,4.51-8.42v.18a12.48,12.48,0,0,1-1.22-2.67c-.17-.48-.31-1-.45-1.47-.07-.24-.14-.5-.2-.75l-.1-.38c0-.07,0-.12,0-.2a.4.4,0,0,1,0-.3.66.66,0,0,1,.43-.28,2.22,2.22,0,0,1,.43-.06,5.76,5.76,0,0,1,.83,0c.55.05,1.09.14,1.64.24,1.09.21,2.2.48,3.31.8l-.16,0a28.67,28.67,0,0,1,11.05-5.8,29.14,29.14,0,0,1,13.89-.27,11.4,11.4,0,0,1,1.78.47c.58.18,1.19.34,1.77.56a31,31,0,0,1,3.44,1.55,28,28,0,0,1,6.29,4.46l1.41,1.38c.45.48.85,1,1.29,1.51l.63.77.57.82c.37.56.78,1.1,1.12,1.68a31.31,31.31,0,0,1,3.17,7.5,30.58,30.58,0,0,1,.87,9.49,27.61,27.61,0,0,1-2.17,9,28.66,28.66,0,0,1-26.2,17.64,28.15,28.15,0,0,1-13.33-3.12,29,29,0,0,1-8.87-7,29.49,29.49,0,0,1-2.73-3.79,28,28,0,0,1-1.76-3.5c-.22-.55-.45-1.05-.62-1.55s-.3-1-.43-1.4l-.36-1.2c-.08-.37-.14-.71-.2-1l-.26-1.38c-.05-.32-.07-.48-.07-.48s0,.16.12.47l.3,1.37c.07.3.14.64.22,1s.24.76.38,1.19.28.89.44,1.39.42,1,.65,1.52a27.87,27.87,0,0,0,1.77,3.47,31.28,31.28,0,0,0,2.74,3.73,29,29,0,0,0,8.83,6.91,28,28,0,0,0,13.18,3,28.28,28.28,0,0,0,25.8-17.44,27.25,27.25,0,0,0,2.12-8.86,29.92,29.92,0,0,0-.85-9.34,30.72,30.72,0,0,0-3.12-7.38c-.34-.57-.74-1.1-1.1-1.65l-.56-.81-.63-.76c-.43-.5-.82-1-1.27-1.49l-1.38-1.36a27.52,27.52,0,0,0-6.2-4.39,27,27,0,0,0-3.38-1.54c-.57-.21-1.16-.37-1.74-.55a12.24,12.24,0,0,0-1.75-.47,28.83,28.83,0,0,0-13.69.24,28.26,28.26,0,0,0-10.93,5.69l-.07.06-.09,0c-1.11-.31-2.2-.59-3.28-.8-.54-.1-1.08-.2-1.61-.25a5.11,5.11,0,0,0-.78,0c-.24,0-.54.06-.59.16s0,0,0,.09,0,.12,0,.18l.09.38c.07.25.13.5.2.75.13.49.28,1,.44,1.44a12.17,12.17,0,0,0,1.17,2.61l.06.09-.07.09a26,26,0,0,0-4.52,8.3,27.05,27.05,0,0,0-1.22,7,36.53,36.53,0,0,0,.13,4.46c.06.49.1.87.13,1.15A3.83,3.83,0,0,1,403.22,271.15Z"/><path class="cls-2" d="M452.86,246.38a28.6,28.6,0,0,1-23,49.88A28.62,28.62,0,0,0,461.77,300c2.3,1.25,6.2,3.09,6.19,2a19.81,19.81,0,0,0-.75-5.7c6-4.82,9.31-11.39,9.89-19.69A28.59,28.59,0,0,0,452.86,246.38Z"/><path class="cls-3" d="M452.86,246.38l1.21.21c.41.07.93.16,1.53.28l2,.59a27.86,27.86,0,0,1,11.47,7.09,29.34,29.34,0,0,1,5.47,7.83,28.67,28.67,0,0,1,2.73,10.77,30.88,30.88,0,0,1-1.87,12.36,25.9,25.9,0,0,1-3.21,5.93,27.39,27.39,0,0,1-4.87,5.06l.07-.25a12.81,12.81,0,0,1,.62,3.05c.06.52.09,1,.11,1.57l0,.79c0,.14,0,.25,0,.41a.53.53,0,0,1-.4.47,2,2,0,0,1-.89,0l-.79-.23c-.51-.18-1-.39-1.51-.61-1-.44-2-.92-2.92-1.45h.21a28.84,28.84,0,0,1-32.17-3.79l-.57-.5.75.11a28.49,28.49,0,0,0,26-9.84,28.79,28.79,0,0,0,5.72-11A29.1,29.1,0,0,0,460,256.12a28.27,28.27,0,0,0-3.4-5.64,29.69,29.69,0,0,0-2.74-3.1c-.59-.58-.87-.85-1-1l.3.24c.18.17.45.37.79.7a27.44,27.44,0,0,1,2.82,3.06,28.19,28.19,0,0,1,3.47,5.65,27.37,27.37,0,0,1,2.4,8.51,28.2,28.2,0,0,1-.7,10.79,29.11,29.11,0,0,1-5.76,11.11,28.81,28.81,0,0,1-26.37,10l.18-.39a28.41,28.41,0,0,0,31.68,3.73l.1-.06.11.06q1.42.78,2.88,1.44c.49.21,1,.41,1.48.58a3.51,3.51,0,0,0,1.42.28c.08,0,.06,0,.07-.08v-.37l0-.79c0-.51-.06-1-.11-1.54a11.89,11.89,0,0,0-.59-2.94l-.05-.14.12-.1a27.47,27.47,0,0,0,4.8-5,25.43,25.43,0,0,0,3.16-5.83,30.55,30.55,0,0,0,1.89-12.19,28.6,28.6,0,0,0-2.66-10.66,29.54,29.54,0,0,0-5.37-7.78,31.54,31.54,0,0,0-6.07-4.76,30.73,30.73,0,0,0-5.26-2.37l-2-.62-1.47-.33Z"/><path class="cls-3" d="M423.52,267.26a3.69,3.69,0,1,1-3.69-3.69A3.69,3.69,0,0,1,423.52,267.26Z"/><circle class="cls-3" cx="431.12" cy="267.26" r="3.69"/><circle class="cls-3" cx="442.42" cy="267.26" r="3.69"/></g><g id="Speech_Bubble_3" data-name="Speech Bubble 3"><path class="cls-2" d="M443.81,210.91a30.16,30.16,0,1,0-10-27.74c-2.51,1.15-6.54,3.27-5.62,3.94a21,21,0,0,0,5.28,3Q433.84,202.3,443.81,210.91Z"/><path class="cls-3" d="M443.81,210.91l-.32-.26-.92-.81a34.74,34.74,0,0,1-3.22-3.44,28.11,28.11,0,0,1-3.89-6.46,27.58,27.58,0,0,1-2.13-9.84l.11.14a13,13,0,0,1-2.81-1.31c-.45-.27-.91-.56-1.36-.87l-.67-.46-.34-.25-.18-.13a.46.46,0,0,1-.16-.26.67.67,0,0,1,.15-.51,2.51,2.51,0,0,1,.3-.34,7.23,7.23,0,0,1,.69-.55c.47-.33,1-.63,1.48-.92,1-.58,2.1-1.12,3.21-1.63l-.1.13a30.27,30.27,0,0,1,4.9-12.21,30.9,30.9,0,0,1,11-9.71,13.36,13.36,0,0,1,1.75-.83c.6-.26,1.19-.54,1.81-.77a32.24,32.24,0,0,1,3.82-1.1,29.87,29.87,0,0,1,8.1-.72l2.07.14c.69.08,1.37.23,2.07.34l1,.18,1,.27c.68.2,1.37.35,2,.58a32.54,32.54,0,0,1,7.68,3.86,32.13,32.13,0,0,1,7.18,7,29,29,0,0,1,4.41,8.7,30.22,30.22,0,0,1-9,32.07,29.72,29.72,0,0,1-12.83,6.62,30.67,30.67,0,0,1-11.93.42,31.55,31.55,0,0,1-4.78-1.17,28,28,0,0,1-3.8-1.62c-.55-.28-1.09-.53-1.56-.8l-1.3-.84-1.12-.71-.85-.69-1.16-.93c-.26-.21-.38-.33-.38-.33a4.87,4.87,0,0,1,.41.29l1.18.9.87.67,1.12.69,1.31.81c.47.27,1,.51,1.56.79a29.94,29.94,0,0,0,3.79,1.57,32.53,32.53,0,0,0,4.75,1.12,30.59,30.59,0,0,0,11.82-.48,29.43,29.43,0,0,0,12.65-6.59,29.86,29.86,0,0,0,8.8-31.65,28.67,28.67,0,0,0-4.35-8.57,31.87,31.87,0,0,0-7.08-6.92,32.29,32.29,0,0,0-7.56-3.8c-.66-.23-1.34-.38-2-.57l-1-.27-1-.18c-.68-.11-1.35-.25-2-.33l-2.05-.15a29,29,0,0,0-8,.71,31.77,31.77,0,0,0-3.76,1.08c-.61.22-1.19.5-1.79.75a12.93,12.93,0,0,0-1.72.82,30.56,30.56,0,0,0-10.84,9.56,30,30,0,0,0-4.88,12v.1l-.09,0c-1.1.5-2.17,1-3.18,1.6a16.27,16.27,0,0,0-1.46.9,5.63,5.63,0,0,0-.65.51c-.19.17-.39.42-.36.55a.1.1,0,0,0,.05.07s.11.08.16.12l.33.24.67.47c.44.31.89.6,1.34.87a12.76,12.76,0,0,0,2.73,1.29l.1,0v.1a27.49,27.49,0,0,0,2,9.76,28.72,28.72,0,0,0,3.8,6.45,40.47,40.47,0,0,0,3.16,3.49l.89.83C443.72,210.81,443.81,210.91,443.81,210.91Z"/><path class="cls-4" d="M454.79,207.94a5.55,5.55,0,0,0,1-2,2.7,2.7,0,0,1,.31-.72l8.72,7.17a1.52,1.52,0,0,0,2.12-.21l7.45-9.08-1-.84a2.3,2.3,0,0,0-.8-.43,5.12,5.12,0,0,1-1.67-.9,5,5,0,1,1,7.66-6,2.47,2.47,0,0,0,.65.85l.73.59,7.58-9.16a1.84,1.84,0,0,0-.26-2.6l-8.08-6.66.52-.62.18-.21a6,6,0,0,0,3.17-2,6.07,6.07,0,1,0-9.39-7.71,5.94,5.94,0,0,0-1.29,2.83,2.36,2.36,0,0,1-.28.42l-.66.8-9-7.41a1.84,1.84,0,0,0-2.6.25l-20.63,25.11a1.5,1.5,0,0,0,.21,2.12l9.19,7.55a2.9,2.9,0,0,1-.54.31,5.52,5.52,0,0,0-2.5,2.3,5.61,5.61,0,0,0,9.21,6.32Z"/></g><g id="Speech_Bubble_2" data-name="Speech Bubble 2"><path class="cls-2" d="M440.11,124.23a30.15,30.15,0,1,0-29.34-2.91c0,2.76.14,7.31,1.14,6.77a20.89,20.89,0,0,0,5-3.48Q428,129.51,440.11,124.23Z"/><path class="cls-3" d="M440.11,124.23a4.07,4.07,0,0,1-.37.18l-1.12.48a35.51,35.51,0,0,1-4.5,1.43,27.78,27.78,0,0,1-7.5.73,27.43,27.43,0,0,1-9.8-2.31l.17,0a12.85,12.85,0,0,1-2.39,2c-.44.29-.9.58-1.37.85l-.71.41-.36.2a1.24,1.24,0,0,1-.2.1.46.46,0,0,1-.31,0,.67.67,0,0,1-.39-.36,2.53,2.53,0,0,1-.18-.42,6.53,6.53,0,0,1-.2-.85c-.1-.57-.15-1.15-.2-1.74-.08-1.17-.1-2.37-.08-3.59l.07.15a30.32,30.32,0,0,1-8.91-9.68,30.77,30.77,0,0,1-4.05-14.08,12.56,12.56,0,0,1,0-1.94c0-.65,0-1.3.09-2a33.53,33.53,0,0,1,.65-3.93,29.39,29.39,0,0,1,2.83-7.62l1-1.81c.37-.59.8-1.14,1.19-1.72l.61-.86.69-.8c.47-.53.9-1.09,1.4-1.59a30.19,30.19,0,0,1,16.21-8.74,29.09,29.09,0,0,1,9.75-.23,30.15,30.15,0,0,1,25.09,21.89,29.72,29.72,0,0,1,.46,14.42,30.43,30.43,0,0,1-4.75,11,32.1,32.1,0,0,1-3.11,3.82,29.47,29.47,0,0,1-3.1,2.74c-.49.37-.94.75-1.4,1.06l-1.31.81-1.12.7-1,.48-1.34.64-.46.2.44-.24,1.32-.68,1-.5,1.11-.71,1.29-.83c.45-.31.9-.7,1.39-1.07a31.64,31.64,0,0,0,3.05-2.75,32.58,32.58,0,0,0,3.05-3.81,30.24,30.24,0,0,0,4.64-10.87,29.34,29.34,0,0,0-.5-14.26A29.83,29.83,0,0,0,432.08,67a28.78,28.78,0,0,0-9.61.23,32,32,0,0,0-9.29,3.42,32.32,32.32,0,0,0-6.68,5.19c-.49.5-.92,1-1.38,1.57l-.68.79-.59.84c-.39.57-.81,1.12-1.18,1.7l-1,1.78A28.91,28.91,0,0,0,398.87,90a32.56,32.56,0,0,0-.65,3.87c-.06.64-.06,1.29-.09,1.93a13.53,13.53,0,0,0,0,1.91,30.4,30.4,0,0,0,4,13.89,29.94,29.94,0,0,0,8.77,9.59l.08,0v.09c0,1.22,0,2.41.07,3.57,0,.58.1,1.15.19,1.7a6.83,6.83,0,0,0,.18.81c.07.24.22.53.34.56s0,0,.09,0l.18-.09.36-.2.71-.4c.47-.28.92-.55,1.35-.84a12.72,12.72,0,0,0,2.34-1.91l.08-.08.1,0a27.6,27.6,0,0,0,9.69,2.35,28.6,28.6,0,0,0,7.45-.66,36.25,36.25,0,0,0,4.5-1.35l1.14-.44C440,124.27,440.11,124.23,440.11,124.23Z"/><rect class="cls-2" x="399.95" y="74.79" width="56.24" height="44.96" transform="translate(-9.07 57.14) rotate(-7.56)"/><path class="cls-3" d="M453,71.29l-.28,0-.78.11-3,.43L437.5,73.45l-40.23,5.44.18-.23c1.77,13.26,3.79,28.47,5.93,44.56h0l-.25-.19,55.75-7.36-.16.21c-1.74-13.41-3.18-24.53-4.19-32.32-.49-3.89-.88-6.94-1.15-9-.13-1-.23-1.84-.29-2.39s-.09-.84-.09-.84l.12.79c.08.55.19,1.33.33,2.35.29,2.09.71,5.12,1.25,9,1.06,7.81,2.57,19,4.39,32.41l0,.19-.19,0-55.74,7.44-.23,0,0-.23h0c-2.12-16.09-4.13-31.3-5.88-44.57l0-.2.2,0,40.38-5.25L449,71.77l3-.37.76-.09A1,1,0,0,1,453,71.29Z"/><rect class="cls-5" x="401.89" y="77.63" width="52.28" height="39.3" transform="translate(-9.08 57.13) rotate(-7.56)"/><g class="cls-6"><polygon points="404.71 120.19 419.6 93.58 432.82 107.24 439.36 98.13 456.54 113.32 404.71 120.19"/></g><g class="cls-6"><path d="M435.18,88.49A4.12,4.12,0,1,1,430.56,85,4.11,4.11,0,0,1,435.18,88.49Z"/></g></g><g id="Speech_Bubble_1" data-name="Speech Bubble 1"><path class="cls-2" d="M149.31,121.75a38.13,38.13,0,1,0-6.88,36.66c3.47.36,9.22.62,8.65-.7-.46-1.06-2.05-4.74-3.85-6.64Q154.66,137.54,149.31,121.75Z"/><path class="cls-3" d="M149.31,121.75s.07.17.18.49.27.83.48,1.47a47.35,47.35,0,0,1,1.29,5.83,35.8,35.8,0,0,1,.09,9.52,34.82,34.82,0,0,1-4,12.08l0-.16a16.12,16.12,0,0,1,2.22,3.22c.32.58.63,1.19.92,1.81.15.31.29.63.44,1l.21.47.11.26a.52.52,0,0,1,0,.35.78.78,0,0,1-.47.43,2.52,2.52,0,0,1-.53.17,9.87,9.87,0,0,1-1.09.16c-.73.06-1.46.06-2.2,0-1.49,0-3-.13-4.54-.28l.14-.06a38.13,38.13,0,0,1-13.16,10.15,38.81,38.81,0,0,1-18.15,3.55,18.38,18.38,0,0,1-2.44-.2c-.81-.12-1.64-.19-2.45-.33a39.85,39.85,0,0,1-4.86-1.25A37.31,37.31,0,0,1,92.21,166l-2.16-1.49c-.7-.53-1.36-1.12-2-1.69L87,162l-.93-1c-.61-.64-1.27-1.25-1.85-1.93A39.31,39.31,0,0,1,81,154.78a37.11,37.11,0,0,1-6-17,36.59,36.59,0,0,1,.77-12.29,38.4,38.4,0,0,1,11.57-19.9,10.07,10.07,0,0,1,1-.91l1.08-.87,1.08-.86c.37-.27.76-.5,1.14-.75.76-.49,1.51-1,2.27-1.46l2.37-1.22a13.07,13.07,0,0,1,1.19-.58l1.21-.48c.82-.31,1.61-.66,2.42-.92l2.45-.69c.41-.11.81-.24,1.22-.33l1.23-.21,2.42-.42,2.42-.18,1.19-.08c.39,0,.79,0,1.18,0l2.33.06c.76,0,1.51.17,2.26.25s1.49.15,2.21.31l2.14.48,1,.24c.35.1.68.22,1,.33a38.47,38.47,0,0,1,13.27,7.16,40.31,40.31,0,0,1,4.47,4.33l1.71,2.15a19.15,19.15,0,0,1,1.4,2c.42.66.85,1.27,1.19,1.88s.61,1.2.88,1.73.53,1,.76,1.5.35.9.5,1.29l.67,1.75c.15.4.21.61.21.61s-.09-.2-.25-.59l-.71-1.74-.51-1.28-.78-1.48-.9-1.72c-.34-.6-.77-1.2-1.19-1.86a20.3,20.3,0,0,0-1.42-2l-1.71-2.13a40.09,40.09,0,0,0-4.47-4.28,38.53,38.53,0,0,0-13.2-7.06l-1-.32-1-.23L120,96.56c-.72-.16-1.46-.2-2.2-.31s-1.48-.23-2.25-.24l-2.3-.05c-.39,0-.78,0-1.17,0l-1.18.09-2.4.18-2.4.42-1.22.21c-.4.09-.8.22-1.2.33l-2.43.69c-.8.26-1.59.61-2.39.92l-1.21.47c-.4.15-.77.39-1.17.58l-2.34,1.21c-.76.46-1.5,1-2.26,1.45-.37.25-.76.48-1.12.75l-1.06.85-1.07.86a9,9,0,0,0-1,.9,38.05,38.05,0,0,0-11.44,19.71,36.36,36.36,0,0,0-.75,12.16,40.46,40.46,0,0,0,3.29,12.11,41.61,41.61,0,0,0,2.63,4.72,39.75,39.75,0,0,0,3.19,4.29c.58.67,1.23,1.27,1.83,1.91l.92,1,1,.85c.67.55,1.32,1.14,2,1.67l2.14,1.47a37.05,37.05,0,0,0,9.18,4.35,39.51,39.51,0,0,0,4.81,1.24c.81.15,1.62.22,2.43.33a17.82,17.82,0,0,0,2.41.21,38.66,38.66,0,0,0,18-3.49,38,38,0,0,0,13.06-10l.06-.07h.08c1.53.16,3,.26,4.51.29.73,0,1.46,0,2.17,0a7.18,7.18,0,0,0,1-.15c.32-.07.7-.2.78-.4s0-.22-.1-.39l-.21-.48-.43-.94c-.29-.62-.6-1.22-.91-1.8a16.52,16.52,0,0,0-2.16-3.17l-.07-.07.05-.09a34.94,34.94,0,0,0,4-12,36.25,36.25,0,0,0,0-9.48,46.29,46.29,0,0,0-1.22-5.82c-.19-.65-.34-1.14-.44-1.48S149.31,121.75,149.31,121.75Z"/><path class="cls-7" d="M133.74,126.47a21.26,21.26,0,1,0-29.85,19.94c.06,2.51.13,5.36.13,5.36l18.62-.44s0-3,0-5.7A21.25,21.25,0,0,0,133.74,126.47Z"/><path class="cls-2" d="M111.6,152.26c-.21-7.28.06-14.57-.29-21.85-.07-1.44-.17-2.89-.36-4.32-.27-2-.85-4.2-2.82-5.2s-3.76.15-4.6,2a9.64,9.64,0,0,0-.56,5.64,10.34,10.34,0,0,0,7,8.07,10.35,10.35,0,0,0,13.07-13,4.75,4.75,0,0,0-3.33-3.26c-2.11-.32-3.43,1.51-3.93,3.3a27.44,27.44,0,0,0-.69,5.86c-.13,2.12-.19,4.24-.23,6.36-.09,4.35-.07,8.7-.15,13,0,1,0,2-.09,3,0,.79,1.2,1,1.23.17.27-7.61,0-15.24.49-22.85a24.13,24.13,0,0,1,.63-5.23,3.36,3.36,0,0,1,1.54-2.27,1.93,1.93,0,0,1,2,.31,5.54,5.54,0,0,1,1.79,4.18,9.53,9.53,0,0,1-1.17,5,9.09,9.09,0,0,1-16.36-1,9.32,9.32,0,0,1-.58-5c.25-1.58,1.23-4,3.28-3.21,1.82.75,2.14,3,2.34,4.7.16,1.3.24,2.62.31,3.93.32,6.62.15,13.24.25,19.86,0,.67,0,1.33,0,2s1.25.64,1.23-.15Z"/><path class="cls-3" d="M106,145.66l-.25-.07c-.16-.06-.4-.13-.7-.26a18.2,18.2,0,0,1-2.49-1.2,19.53,19.53,0,0,1-3.32-2.38A20.49,20.49,0,0,1,95.94,138a20.22,20.22,0,0,1-2.24-4.49,20,20,0,0,1-1-4,17.84,17.84,0,0,1-.16-2.76c0-.32,0-.58,0-.75s0-.26,0-.26a1,1,0,0,1,0,.26c0,.18,0,.43,0,.75a20.48,20.48,0,0,0,1.19,6.69,20.16,20.16,0,0,0,8.78,10.6,20.85,20.85,0,0,0,2.46,1.24l.69.28Z"/><path class="cls-3" d="M93.45,121.67a4,4,0,0,1-.16,1.09,3.69,3.69,0,0,1-.32,1.06,4.33,4.33,0,0,1,.17-1.09A4,4,0,0,1,93.45,121.67Z"/><path class="cls-3" d="M131.51,131.46a.61.61,0,0,1,0-.22c0-.16.06-.37.11-.64s0-.29.08-.46,0-.35.07-.55c0-.4.11-.84.11-1.35q0-.38,0-.78c0-.28,0-.56,0-.85a15.88,15.88,0,0,0-.14-1.88,22.6,22.6,0,0,0-1-4.18,21.92,21.92,0,0,0-1.84-3.89c-.36-.55-.69-1.09-1.05-1.55-.18-.24-.34-.47-.52-.68s-.35-.4-.51-.6c-.32-.39-.66-.69-.93-1l-.4-.39-.35-.3-.48-.43-.17-.16.19.13c.12.11.29.24.5.41l.36.3c.13.11.26.24.41.38s.62.58.95,1l.52.59c.18.21.34.45.53.68a18.4,18.4,0,0,1,1.07,1.56,21.82,21.82,0,0,1,1.86,3.91,21.36,21.36,0,0,1,1,4.21,18.58,18.58,0,0,1,.13,1.89c0,.3,0,.58,0,.86s0,.54,0,.79a12.23,12.23,0,0,1-.14,1.35c0,.2,0,.38-.08.55s-.07.32-.1.46-.1.47-.14.63S131.51,131.46,131.51,131.46Z"/><path class="cls-2" d="M111.31,111.72a3.78,3.78,0,0,0-2.57-1.83,6.73,6.73,0,0,0-5,.68,16.11,16.11,0,0,0-8.48,10.66c-.5,1.76-.7,4.64.2,6.33a3.43,3.43,0,0,0,2.12,1.77c2.42.64,4.27-1.74,5-4,.64-2.09.84-4.44,2.27-6.09,1.19-1.36,3-2,4.48-3S112,113.38,111.31,111.72Z"/><path class="cls-2" d="M119.81,110.69a3.39,3.39,0,0,0-3.93-1.31,3.46,3.46,0,0,0-1.82,2.42,3.17,3.17,0,0,0,1.48,3.22,3,3,0,0,0,3.49-.42C119.93,113.72,120.46,111.77,119.81,110.69Z"/><g id="_2gGvdE.tif" data-name="2gGvdE.tif"><path class="cls-8" d="M109.46,162.45a5.41,5.41,0,0,1,1.24,1.05,1.28,1.28,0,0,0,1,.44l3.75-.09a1.26,1.26,0,0,0,1-.58,2.3,2.3,0,0,1,1.25-1Z"/></g><path class="cls-3" d="M105.15,152.11c0,.07,1,5.91,1.4,8.14a2.77,2.77,0,0,0,1.6,2.08,2.59,2.59,0,0,0,1.07.21l8.2-.2s2.14-.05,2.59-1.76,1.26-8.86,1.26-8.86Z"/><path class="cls-2" d="M120.51,159.78l-14.28.4a.4.4,0,0,1-.41-.4v0a.41.41,0,0,1,.4-.42l14.28-.4a.42.42,0,0,1,.42.4v0A.41.41,0,0,1,120.51,159.78Z"/><path class="cls-3" d="M120.51,159.78a.42.42,0,0,0,.27-.14.4.4,0,0,0,.1-.34.37.37,0,0,0-.3-.34c-.78,0-1.93.06-3.34.1l-11,.33a.3.3,0,0,0-.27.16.3.3,0,0,0,0,.15.53.53,0,0,0,0,.18.34.34,0,0,0,.23.21,1.57,1.57,0,0,0,.38,0l1.55,0L111,160l5-.12,3.35-.07h.91l-.91,0-3.35.11-5,.16-2.93.08-1.55.05h-.2a.85.85,0,0,1-.22,0,.49.49,0,0,1-.32-.31.58.58,0,0,1,0-.22.52.52,0,0,1,.07-.22.48.48,0,0,1,.4-.23l11-.29c1.41,0,2.55-.06,3.35-.05a.41.41,0,0,1,.33.39.42.42,0,0,1-.12.36A.35.35,0,0,1,120.51,159.78Z"/><path class="cls-2" d="M120.77,157.93l-14.88.41a.4.4,0,0,1-.42-.39v0a.41.41,0,0,1,.39-.42l14.89-.41a.41.41,0,0,1,.42.4v0A.42.42,0,0,1,120.77,157.93Z"/><path class="cls-3" d="M120.77,157.93a.46.46,0,0,0,.28-.15.4.4,0,0,0,.09-.36.38.38,0,0,0-.35-.32l-3.47.12-11.45.33a.35.35,0,0,0-.29.18.27.27,0,0,0,0,.16.36.36,0,0,0,0,.18.34.34,0,0,0,.25.2c.12,0,.27,0,.4,0l1.61,0,3-.08L116,158l3.48-.07.94,0h0l-.94,0-3.47.12-5.15.16-3,.09-1.6,0c-.15,0-.27,0-.43,0a.49.49,0,0,1-.36-.29.56.56,0,0,1,0-.46.46.46,0,0,1,.4-.24l11.46-.3c1.47,0,2.65-.07,3.48-.07a.43.43,0,0,1,.38.37.46.46,0,0,1-.11.38A.36.36,0,0,1,120.77,157.93Z"/><path class="cls-2" d="M120.92,156.08l-15.27.42a.4.4,0,0,1-.42-.39v-.05a.4.4,0,0,1,.39-.41l15.27-.43a.41.41,0,0,1,.42.4v0A.4.4,0,0,1,120.92,156.08Z"/><path class="cls-3" d="M120.92,156.08a.46.46,0,0,0,.28-.15.41.41,0,0,0,.08-.37.38.38,0,0,0-.37-.31l-3.55.12-11.73.35a.33.33,0,0,0-.29.17.38.38,0,0,0,0,.17.45.45,0,0,0,0,.18.34.34,0,0,0,.28.19H106l1.65,0,3.11-.08,5.28-.13,3.55-.08,1,0h0l-1,0-3.55.12-5.27.17-3.12.09-1.64,0h-.43a.46.46,0,0,1-.39-.26.55.55,0,0,1,0-.24.5.5,0,0,1,.06-.24.46.46,0,0,1,.4-.25l11.73-.31,3.56-.07a.42.42,0,0,1,.41.35.46.46,0,0,1-.1.4A.32.32,0,0,1,120.92,156.08Z"/><path class="cls-2" d="M121.18,154.23l-15.89.44a.4.4,0,0,1-.41-.4v0a.4.4,0,0,1,.39-.42l15.89-.44a.41.41,0,0,1,.42.4v0A.42.42,0,0,1,121.18,154.23Z"/><path class="cls-3" d="M121.18,154.23a.47.47,0,0,0,.3-.16.45.45,0,0,0,.06-.39.38.38,0,0,0-.41-.28l-3.69.12-12.17.36a.33.33,0,0,0-.29.19.41.41,0,0,0,0,.36.33.33,0,0,0,.31.17h.43l1.71-.05,3.23-.08,5.47-.14,3.69-.08,1,0h0l-1,0-3.69.13-5.47.16-3.23.1-1.71,0h-.43a.49.49,0,0,1-.43-.24.5.5,0,0,1-.06-.24.44.44,0,0,1,0-.25.52.52,0,0,1,.42-.27l12.17-.31,3.69-.08a.42.42,0,0,1,.45.32.48.48,0,0,1-.08.42.39.39,0,0,1-.23.13Z"/><path class="cls-9" d="M103,147.11c0,.15.43,3.72.65,5.56a2.24,2.24,0,0,0,1,1.63l.85.52,15.84-.38.82-.56a2.21,2.21,0,0,0,1-1.7l.34-5.57Z"/><g class="cls-6"><path d="M106.76,160.13a20.53,20.53,0,0,0,4.74.25c1.35,0,2.68,0,4.15-.1,1.07-.05,2.06-.13,3.13-.2a3,3,0,0,0,1.24-.3Z"/></g><g class="cls-6"><path d="M106.15,158.29a23.16,23.16,0,0,0,5.1.24c1.46,0,2.89,0,4.48-.1,1.16-.05,2.22-.13,3.38-.21a3.55,3.55,0,0,0,1.34-.3Z"/></g><g class="cls-6"><path d="M106.11,156.46a23.73,23.73,0,0,0,5.1.24c1.46,0,2.89,0,4.47-.1,1.16,0,2.23-.14,3.38-.21a3.44,3.44,0,0,0,1.34-.3Z"/></g><g class="cls-6"><path d="M106.06,154.63a23.85,23.85,0,0,0,5.11.24c1.45,0,2.89,0,4.47-.1,1.16-.06,2.22-.14,3.38-.21a3.55,3.55,0,0,0,1.34-.3Z"/></g><g class="cls-6"><path d="M103,147.11c0,.15.43,3.72.65,5.56a2.24,2.24,0,0,0,1,1.63l.85.52,15.84-.38.82-.56a2.21,2.21,0,0,0,1-1.7l.34-5.57Z"/></g><path class="cls-3" d="M122.76,153s-4.24.18-9.46.3-9.47.2-9.47.16,4.23-.17,9.46-.3S122.76,152.92,122.76,153Z"/><path class="cls-3" d="M123.35,146.51s-4.6.2-10.28.36-10.28.26-10.28.22,4.59-.21,10.27-.37S123.35,146.46,123.35,146.51Z"/></g><g id="Chess_Pawn" data-name="Chess Pawn"><rect class="cls-9" x="343.34" y="445.56" width="75.63" height="15.54"/><path class="cls-9" d="M414.59,444.23s-16.78-17.61-19.75-37.06c-2.83-18.5-3.59-31.6-3.59-31.6H371.6s-.76,13.1-3.59,31.6c-3,19.45-19.75,37.06-19.75,37.06l33.17-.48Z"/><path class="cls-9" d="M418.76,447.51H343a1.79,1.79,0,0,1-1.79-1.79v-.31a1.79,1.79,0,0,1,1.79-1.79h75.77a1.79,1.79,0,0,1,1.79,1.79v.31A1.79,1.79,0,0,1,418.76,447.51Z"/><path class="cls-9" d="M394.67,376.41H368.18a2.53,2.53,0,0,1-2.53-2.53v-.44a2.52,2.52,0,0,1,2.53-2.52h26.49a2.52,2.52,0,0,1,2.53,2.52v.44A2.53,2.53,0,0,1,394.67,376.41Z"/><path class="cls-9" d="M398.38,370.92H364.26a2.35,2.35,0,0,1-2.35-2.35v-.41a2.35,2.35,0,0,1,2.35-2.35h34.12a2.35,2.35,0,0,1,2.35,2.35v.41A2.35,2.35,0,0,1,398.38,370.92Z"/><circle class="cls-9" cx="381.43" cy="349.08" r="18.39"/><path class="cls-3" d="M395,376.41c0,.13-5.92.24-13.23.24s-13.23-.11-13.23-.24,5.92-.24,13.23-.24S395,376.27,395,376.41Z"/><path class="cls-3" d="M396.59,370.92c0,.13-7.1.24-15.86.24s-15.86-.11-15.86-.24,7.1-.24,15.86-.24S396.59,370.78,396.59,370.92Z"/><path class="cls-3" d="M392.76,365.6c0,.14-5.08.25-11.33.25s-11.34-.11-11.34-.25,5.08-.24,11.34-.24S392.76,365.47,392.76,365.6Z"/><path class="cls-3" d="M412.27,443.62c0,.13-15.34.24-34.27.24s-34.27-.11-34.27-.24,15.34-.24,34.27-.24S412.27,443.48,412.27,443.62Z"/><path class="cls-3" d="M419.48,447.51c0,.13-17.16.24-38.32.24s-38.32-.11-38.32-.24,17.15-.24,38.32-.24S419.48,447.37,419.48,447.51Z"/></g><g id="AI"><path class="cls-9" d="M290.27,267.84a77,77,0,1,1,76.94-76.95A77,77,0,0,1,290.27,267.84Zm0-153a76.08,76.08,0,1,0,76.07,76.08A76.17,76.17,0,0,0,290.27,114.81Z"/><g id="freepik--brain-side-2--inject-2"><path class="cls-9" d="M331.82,154.33s1.78-1.8-1.27-6.2-2.91-6.07-7-7.42-4.93-2.24-7.72-4.13S307.11,128,297.73,130s-7.3,9.44-7.58,13.27.66,10.23,0,13.6-.73,8.21,0,10.24,0,12.93,0,12.93v31.49s-1.29,28.68,1.87,31.83,9.66,7,19,4.16,12.35-5.16,14.5-7.31c0,0,7-2.7,6.86-10a13.17,13.17,0,0,0,4.68-4.73c1.77-3.14,4.05-5.28,4.56-8.32s-.77-3.82-.77-3.82,1.52-.45,2.15-4.5,2.28-6.3,1.9-8.09a6.94,6.94,0,0,0-1.77-3.15,4,4,0,0,0,1.83-2.7,46.37,46.37,0,0,0,.83-10.13,12.18,12.18,0,0,0-.89-4.38s.39-8.1-2.92-9.22l-1.39-.57s1.39-1-.13-3.48-1.26-5.51-2.66-7.54S335,154,331.82,154.33Z"/><path class="cls-2" d="M323.46,164.17a4.07,4.07,0,0,1,1.69-.4,3.18,3.18,0,0,1,1,.11,20,20,0,0,1,3.3,1.12,6.42,6.42,0,0,1,2.84,2.39,1.53,1.53,0,0,1,.1,1.72,1.64,1.64,0,0,1-1.41.5,4,4,0,0,1-1.48-.5c-1.59-.83-3-2-4.75-2.51-.8-.24-1.79-.45-1.94-1.22A1.15,1.15,0,0,1,323.46,164.17Z"/><path class="cls-2" d="M313.69,148.3a4.23,4.23,0,0,1,1.69-.39,2.84,2.84,0,0,1,1,.11,19,19,0,0,1,3.31,1.12,6.39,6.39,0,0,1,2.85,2.39,1.55,1.55,0,0,1,.09,1.72,1.67,1.67,0,0,1-1.41.5,3.93,3.93,0,0,1-1.48-.5c-1.59-.84-3-2-4.75-2.52-.8-.23-1.79-.45-1.94-1.21A1.16,1.16,0,0,1,313.69,148.3Z"/><path class="cls-2" d="M294.41,135.56a4.66,4.66,0,0,1,1.55-2.09,12.25,12.25,0,0,1,4.38-1.28h0c3.39-.44,6.72,1.07,9.47,2.88s5.26,4,8.4,5.22a6.06,6.06,0,0,1,1.23.59,1.26,1.26,0,0,1,.62,1.06c-.06.73-1,1.12-1.8,1.23-2.71.37-5.38-.79-7.61-2.2s-4.29-3.1-6.81-4.05a4.78,4.78,0,0,0-3.88-.1c-.8.43-1.29,1.21-2.09,1.62a2.66,2.66,0,0,1-3.39-.8A2,2,0,0,1,294.41,135.56Z"/><path class="cls-2" d="M337.49,180.34a1.56,1.56,0,0,0-1.65.15,6.92,6.92,0,0,0-1.16,1.2c-1.6,1.82-1.73,3.65-4.27,4.14s-5.19.73-7.46,1.84c-.57.28-1.17.65-1.3,1.22a1.5,1.5,0,0,0,1,1.59,4.21,4.21,0,0,0,2.14.28,22.35,22.35,0,0,0,7.14-2.15c3.13-1.33,4.53-3.52,5.86-6.36C337.76,182.24,338.56,181,337.49,180.34Z"/><path class="cls-2" d="M316.84,191.52l.53-.17a1.52,1.52,0,0,1,1.51,1.54,1.67,1.67,0,0,1-3.19.28,1.34,1.34,0,0,1,1.08-1.64Z"/></g><g id="freepik--brain-side-1--inject-2"><path class="cls-9" d="M248.7,153.54s-1.77-1.8,1.27-6.2,2.91-6.07,7-7.42,4.94-2.25,7.73-4.16,8.74-8.55,18.12-6.54,7.3,9.45,7.58,13.27-.66,10.23,0,13.61.73,8.21,0,10.23,0,12.93,0,12.93v31.49s1.29,28.68-1.87,31.83-9.65,7-19,4.16-12.35-5.16-14.5-7.31c0,0-7-2.7-6.86-10a13.22,13.22,0,0,1-4.68-4.72c-1.77-3.15-4-5.29-4.56-8.32s.78-3.83.78-3.83-1.52-.45-2.16-4.49-2.28-6.3-1.9-8.1a6.92,6.92,0,0,1,1.78-3.15,4,4,0,0,1-1.84-2.7,46.33,46.33,0,0,1-.83-10.12,12.28,12.28,0,0,1,.89-4.39s-.39-8.09,2.92-9.22l1.39-.56s-1.39-1,.13-3.49,1.26-5.51,2.66-7.53S245.53,153.2,248.7,153.54Z"/><path class="cls-2" d="M257.05,163.38a4.19,4.19,0,0,0-1.68-.4,3.48,3.48,0,0,0-1,.11,19.72,19.72,0,0,0-3.3,1.12,6.45,6.45,0,0,0-2.85,2.39,1.51,1.51,0,0,0-.09,1.72,1.6,1.6,0,0,0,1.41.5,3.82,3.82,0,0,0,1.48-.5c1.59-.83,3-2,4.75-2.51.77-.24,1.79-.45,1.94-1.22A1.16,1.16,0,0,0,257.05,163.38Z"/><path class="cls-2" d="M266.83,147.52a4.07,4.07,0,0,0-1.69-.4,3.22,3.22,0,0,0-1,.11,19.72,19.72,0,0,0-3.3,1.12,6.45,6.45,0,0,0-2.85,2.39,1.55,1.55,0,0,0-.09,1.72,1.62,1.62,0,0,0,1.41.5,3.93,3.93,0,0,0,1.48-.5c1.59-.83,3-2,4.75-2.51.8-.24,1.79-.45,1.94-1.22A1.15,1.15,0,0,0,266.83,147.52Z"/><path class="cls-2" d="M287.46,133.45a4.83,4.83,0,0,0-1.56-2.09,11.9,11.9,0,0,0-4.41-1.28h0c-3.38-.45-6.71,1.07-9.46,2.88s-5.25,4-8.38,5.24a5.41,5.41,0,0,0-1.24.58,1.26,1.26,0,0,0-.61,1.07c.06.72,1,1.12,1.8,1.23,2.71.36,5.38-.8,7.61-2.2s4.29-3.1,6.81-4.06a4.84,4.84,0,0,1,3.87-.1c.78.44,1.29,1.22,2.1,1.63a2.66,2.66,0,0,0,3.38-.81,2,2,0,0,0,.07-2.08Z"/><path class="cls-2" d="M243.79,184.07a1.44,1.44,0,0,1,1.59.48,7.24,7.24,0,0,1,.89,1.55c1.19,2.3.93,4.34,3.33,5.35s4.94,1.78,6.94,3.43a2.26,2.26,0,0,1,1,1.59,1.71,1.71,0,0,1-1.27,1.58,3.75,3.75,0,0,1-2.15-.09,20.67,20.67,0,0,1-6.57-3.7c-2.79-2.06-3.71-4.74-4.42-8.12C243.13,186.12,242.59,184.64,243.79,184.07Z"/><path class="cls-2" d="M261.74,200.27l-.49-.28a1.62,1.62,0,1,0,1.27,2.33,1.51,1.51,0,0,0-.72-2Z"/></g><path class="cls-3" d="M284.61,199.69l-.46.15c-.3.09-.76.18-1.35.29a18.16,18.16,0,0,1-5.1.11A18.65,18.65,0,0,1,262,186.41l.26.17A10.43,10.43,0,0,1,255,185.3a10.15,10.15,0,0,1-4.88-8.1,6.53,6.53,0,0,1,0-1,1.58,1.58,0,0,1,.05-.36s0,.5.08,1.39a10.66,10.66,0,0,0,1.06,3.65,9.8,9.8,0,0,0,3.87,4.13,10.1,10.1,0,0,0,6.93,1.17l.2,0,.06.2a18.11,18.11,0,0,0,2,4.78,18.3,18.3,0,0,0,13.35,8.84,19.65,19.65,0,0,0,5,0C284,199.81,284.6,199.64,284.61,199.69Z"/><path class="cls-3" d="M274.77,181.05a3.57,3.57,0,0,1-1-.14,9.51,9.51,0,0,1-2.53-1,11,11,0,0,1-3.11-2.56,10.69,10.69,0,0,1-2.27-4.38,11.13,11.13,0,0,1,1.59-8.64,9.83,9.83,0,0,1,1.79-2,3.34,3.34,0,0,1,.81-.57,16.07,16.07,0,0,0-2.33,2.78,11.57,11.57,0,0,0-1.46,3.61,10.36,10.36,0,0,0,2.19,9,11.58,11.58,0,0,0,2.95,2.54A16.64,16.64,0,0,0,274.77,181.05Z"/><path class="cls-3" d="M270.07,147.44a15.76,15.76,0,0,0-2.55-.56,11.15,11.15,0,0,0-6,1.33,23.33,23.33,0,0,0-5,3.82,19.48,19.48,0,0,1-1.93,1.81,12.08,12.08,0,0,1,1.7-2,19.75,19.75,0,0,1,5-4,10.8,10.8,0,0,1,6.29-1.25,7.27,7.27,0,0,1,1.89.52C269.87,147.27,270.09,147.42,270.07,147.44Z"/><path class="cls-3" d="M279.2,224.05a1.8,1.8,0,0,1-.4.23,9.3,9.3,0,0,1-1.2.51,13.14,13.14,0,0,1-4.75.7,13.54,13.54,0,0,1-3.29-.55,8.38,8.38,0,0,1-3.37-1.84,15.74,15.74,0,0,1-2.72-3.24,24.21,24.21,0,0,1-2.09-4c-.2-.5-.39-1-.54-1.49l.32.13a8.06,8.06,0,0,1-4.15,1.07,6.89,6.89,0,0,1-3.77-1.27,9.57,9.57,0,0,1-3.72-5.42,6.09,6.09,0,0,1,.35-4.38,3.75,3.75,0,0,1,1-1.26,9.13,9.13,0,0,0-.87,1.33,6.1,6.1,0,0,0-.2,4.23,9.42,9.42,0,0,0,3.65,5.17,6.5,6.5,0,0,0,3.55,1.16,7.76,7.76,0,0,0,3.92-1l.24-.14.09.26c.15.47.33,1,.53,1.46a24.49,24.49,0,0,0,2,4,15.3,15.3,0,0,0,2.63,3.17,8.13,8.13,0,0,0,3.2,1.79,13.43,13.43,0,0,0,3.2.59,13.59,13.59,0,0,0,4.67-.55C278.62,224.29,279.18,224,279.2,224.05Z"/><path class="cls-3" d="M327.21,197.36a1.3,1.3,0,0,1,.22.3,7.88,7.88,0,0,1,.5,1,9.25,9.25,0,0,1,.76,3.91,9.1,9.1,0,0,1-2,5.61,9.66,9.66,0,0,1-6.46,3.57l.16-.35a4,4,0,0,1,.63,2.78,6.59,6.59,0,0,1-2.15,3.85,23,23,0,0,1-3.2,2.52,24.68,24.68,0,0,1-6.22,2.92,22.29,22.29,0,0,1-4.54.92,11.64,11.64,0,0,1-1.25.08,1.85,1.85,0,0,1-.44,0s.6-.08,1.67-.24a26.07,26.07,0,0,0,4.46-1.05,25.46,25.46,0,0,0,6.09-3,22.25,22.25,0,0,0,3.12-2.49,6.21,6.21,0,0,0,2-3.58,3.49,3.49,0,0,0-.55-2.47l-.22-.31.39,0a9.35,9.35,0,0,0,6.19-3.38,8.89,8.89,0,0,0,2-5.36,9.79,9.79,0,0,0-.61-3.85C327.45,197.82,327.17,197.38,327.21,197.36Z"/><path class="cls-3" d="M330.48,173a2.64,2.64,0,0,1,0,.81,7.92,7.92,0,0,1-.37,2.18,11.49,11.49,0,0,1-4.28,5.83,16.58,16.58,0,0,1-6.73,2.74,17,17,0,0,1-2.18.26,3.38,3.38,0,0,1-.81,0c0-.08,1.13-.18,2.93-.58a17.87,17.87,0,0,0,6.53-2.78,12,12,0,0,0,4.24-5.57A17.24,17.24,0,0,0,330.48,173Z"/><path class="cls-3" d="M331.14,153.74s0,.13-.11.37a9.7,9.7,0,0,1-.47,1,10.82,10.82,0,0,1-2.63,3.09,10.68,10.68,0,0,1-5.55,2.3,11.06,11.06,0,0,1-7.11-1.78,10.45,10.45,0,0,1-2.11-1.84l.36,0a6.69,6.69,0,0,1-5.45,3.17,6,6,0,0,1-2.74-.53,6.64,6.64,0,0,1-3.62-4.38,4.32,4.32,0,0,1-.13-.92,1,1,0,0,1,0-.32s.06.44.28,1.2a6.59,6.59,0,0,0,1.71,2.81,6,6,0,0,0,4.48,1.75,6.34,6.34,0,0,0,5.07-3l.16-.27.21.23a9.87,9.87,0,0,0,2,1.76,10.84,10.84,0,0,0,6.82,1.75,10.61,10.61,0,0,0,5.39-2.14A11.27,11.27,0,0,0,330.4,155C330.9,154.22,331.1,153.72,331.14,153.74Z"/><path class="cls-3" d="M316.32,179a5.7,5.7,0,0,1,.46,2.22,11.52,11.52,0,0,1-4.25,9.75,6.14,6.14,0,0,1-1.94,1.17c0-.07.71-.5,1.73-1.42a12.37,12.37,0,0,0,4.14-9.48C316.44,179.88,316.25,179,316.32,179Z"/><path class="cls-3" d="M320.56,232c-.08,0,.15-.79.14-2a8.59,8.59,0,0,0-4.88-7.87c-1.13-.57-1.91-.71-1.9-.78a4.43,4.43,0,0,1,2,.49,8.31,8.31,0,0,1,5.06,8.17A4.68,4.68,0,0,1,320.56,232Z"/><g class="cls-6"><path d="M290.24,228.47a9.67,9.67,0,0,1-8.08-2.07,14.37,14.37,0,0,1-24-6,10.75,10.75,0,0,1-13.85-13.3c-3.86-1-6.87-6.34-6.89-10.33l-.65.78a6.71,6.71,0,0,0-1.12,2.37c-.38,1.79,1.27,4,1.9,8.09s2.15,4.5,2.15,4.5-1.28.79-.77,3.83,2.79,5.17,4.56,8.32a13.22,13.22,0,0,0,4.68,4.72c-.12,7.31,6.86,10,6.86,10,2.15,2.15,5.19,4.5,14.5,7.31s15.79-1,19-4.16c.65-.65,1.11-2.38,1.43-4.7Z"/></g><g class="cls-6"><path d="M289.94,228.83c2.54.64,6.56.19,8.45-1.62a14.37,14.37,0,0,0,24-6A10.75,10.75,0,0,0,336.22,208c3.86-1,6.87-6.34,6.89-10.34l.65.78a6.87,6.87,0,0,1,1.12,2.37c.38,1.8-1.27,4-1.9,8.1s-2.15,4.5-2.15,4.5,1.28.79.77,3.82-2.79,5.17-4.56,8.32a13.06,13.06,0,0,1-4.68,4.72c.12,7.31-6.86,10-6.86,10-2.15,2.15-5.19,4.5-14.5,7.31s-15.79-1-19-4.16c-.64-.64-1.1-2.37-1.43-4.7Z"/></g><path class="cls-3" d="M290.24,237.18c-.12,0-.22-22.27-.22-49.75s.1-49.75.22-49.75.23,22.27.23,49.75S290.37,237.18,290.24,237.18Z"/><path class="cls-9" d="M290.27,86.27a8,8,0,1,1,8-8A8,8,0,0,1,290.27,86.27Zm0-15.11a7.12,7.12,0,1,0,7.12,7.12A7.13,7.13,0,0,0,290.27,71.16Z"/><path class="cls-9" d="M322.46,54.85a8,8,0,1,1,8-8A8,8,0,0,1,322.46,54.85Zm0-15.11a7.12,7.12,0,1,0,7.12,7.12A7.12,7.12,0,0,0,322.46,39.74Z"/><polygon class="cls-9" points="307.45 115.78 306.58 115.78 306.58 92.93 322.02 78.1 322.02 54.41 322.89 54.41 322.89 78.47 307.45 93.3 307.45 115.78"/><path class="cls-9" d="M323.66,121.82h-.86V108.13a10.72,10.72,0,0,1,10.7-10.71h22.93v.87H333.5a9.86,9.86,0,0,0-9.84,9.84v13.69Z"/><rect class="cls-9" x="343.51" y="133.26" width="10.24" height="0.87" transform="translate(5.92 281.91) rotate(-44.37)"/><path class="cls-9" d="M369.7,158.55H359.24v-.87H369.7a10.78,10.78,0,0,0,10.77-10.77V124.32h.87v22.59A11.65,11.65,0,0,1,369.7,158.55Z"/><polygon class="cls-9" points="387.8 172.85 364.91 172.85 364.91 171.98 387.45 171.98 402.73 157.68 423.97 157.68 423.97 158.55 403.07 158.55 387.8 172.85"/><rect class="cls-9" x="366.77" y="189.1" width="27.78" height="0.87"/><polygon class="cls-9" points="425.1 222.7 403 222.7 386.39 207.59 364.32 207.59 364.32 206.72 386.73 206.72 403.34 221.83 425.1 221.83 425.1 222.7"/><path class="cls-9" d="M383.07,255.33h-.87V232.52a10.64,10.64,0,0,0-10.62-10.62H360.87V221h10.71a11.51,11.51,0,0,1,11.49,11.49Z"/><rect class="cls-9" x="346.54" y="244.23" width="0.87" height="8.31" transform="translate(-74.01 318.1) rotate(-45)"/><path class="cls-9" d="M356,282.25H329.43a7,7,0,0,1-7-7V259.81h.87v15.48a6.09,6.09,0,0,0,6.09,6.09H356v.87Z"/><polygon class="cls-9" points="322.72 322.82 321.85 322.82 321.85 301.99 306.6 285.86 306.6 266.09 307.46 266.09 307.46 285.52 322.72 301.64 322.72 322.82"/><rect class="cls-9" x="290.14" y="268.14" width="0.87" height="25.72"/><path class="cls-9" d="M290.58,308.81a7.69,7.69,0,1,1,7.69-7.69A7.7,7.7,0,0,1,290.58,308.81Zm0-14.51a6.82,6.82,0,1,0,6.82,6.82A6.84,6.84,0,0,0,290.58,294.3Z"/><path class="cls-9" d="M322.45,338.08a7.69,7.69,0,1,1,7.69-7.69A7.7,7.7,0,0,1,322.45,338.08Zm0-14.51a6.82,6.82,0,1,0,6.82,6.82A6.83,6.83,0,0,0,322.45,323.57Z"/><path class="cls-9" d="M363.29,289.27a7.69,7.69,0,1,1,7.69-7.69A7.7,7.7,0,0,1,363.29,289.27Zm0-14.51a6.82,6.82,0,1,0,6.82,6.82A6.83,6.83,0,0,0,363.29,274.76Z"/><path class="cls-9" d="M355.21,263.68A7.69,7.69,0,1,1,362.9,256,7.7,7.7,0,0,1,355.21,263.68Zm0-14.51A6.82,6.82,0,1,0,362,256,6.83,6.83,0,0,0,355.21,249.17Z"/><path class="cls-9" d="M401.8,197.21a7.69,7.69,0,1,1,7.69-7.69A7.7,7.7,0,0,1,401.8,197.21Zm0-14.51a6.82,6.82,0,1,0,6.82,6.82A6.83,6.83,0,0,0,401.8,182.7Z"/><path class="cls-9" d="M381.24,124.75a7.69,7.69,0,1,1,7.69-7.69A7.7,7.7,0,0,1,381.24,124.75Zm0-14.51a6.82,6.82,0,1,0,6.82,6.82A6.83,6.83,0,0,0,381.24,110.24Z"/><path class="cls-9" d="M356.45,132.05a7.69,7.69,0,1,1,7.69-7.69A7.7,7.7,0,0,1,356.45,132.05Zm0-14.51a6.82,6.82,0,1,0,6.82,6.82A6.83,6.83,0,0,0,356.45,117.54Z"/><path class="cls-9" d="M363.85,104.94a7.69,7.69,0,1,1,7.69-7.69A7.7,7.7,0,0,1,363.85,104.94Zm0-14.51a6.83,6.83,0,1,0,6.82,6.82A6.83,6.83,0,0,0,363.85,90.43Z"/><path class="cls-9" d="M382.77,270.53a7.69,7.69,0,1,1,7.69-7.69A7.7,7.7,0,0,1,382.77,270.53Zm0-14.51a6.82,6.82,0,1,0,6.82,6.82A6.83,6.83,0,0,0,382.77,256Z"/><path class="cls-9" d="M432.35,229.28a7.69,7.69,0,1,1,7.69-7.69A7.7,7.7,0,0,1,432.35,229.28Zm0-14.51a6.82,6.82,0,1,0,6.82,6.82A6.83,6.83,0,0,0,432.35,214.77Z"/><path class="cls-9" d="M431.23,164.94a7.69,7.69,0,1,1,7.69-7.69A7.7,7.7,0,0,1,431.23,164.94Zm0-14.51a6.82,6.82,0,1,0,6.82,6.82A6.83,6.83,0,0,0,431.23,150.43Z"/><rect class="cls-9" x="289.23" y="85.84" width="0.87" height="28.54"/><path class="cls-9" d="M258.09,54.85a8,8,0,1,1,8-8A8,8,0,0,1,258.09,54.85Zm0-15.11a7.12,7.12,0,1,0,7.12,7.12A7.12,7.12,0,0,0,258.09,39.74Z"/><polygon class="cls-9" points="273.96 115.78 273.1 115.78 273.1 93.3 257.65 78.47 257.65 54.41 258.52 54.41 258.52 78.1 273.96 92.93 273.96 115.78"/><path class="cls-9" d="M257.75,121.82h-.87V108.13a9.85,9.85,0,0,0-9.83-9.84H224.12v-.87h22.93a10.72,10.72,0,0,1,10.7,10.71Z"/><rect class="cls-9" x="231.77" y="128.46" width="0.87" height="10.95" transform="translate(-25.49 207.73) rotate(-45.96)"/><path class="cls-9" d="M221.31,158.55H210.85a11.65,11.65,0,0,1-11.64-11.64V124.32h.87v22.59a10.78,10.78,0,0,0,10.77,10.77h10.46v.87Z"/><polygon class="cls-9" points="215.64 172.85 192.75 172.85 177.47 158.55 156.57 158.55 156.57 157.68 177.82 157.68 193.09 171.98 215.64 171.98 215.64 172.85"/><rect class="cls-9" x="186" y="189.1" width="27.78" height="0.87"/><polygon class="cls-9" points="177.54 222.7 155.45 222.7 155.45 221.83 177.21 221.83 193.82 206.72 216.23 206.72 216.23 207.59 194.16 207.59 177.54 222.7"/><path class="cls-9" d="M198.35,255.33h-.87V232.52A11.5,11.5,0,0,1,209,221h10.71v.87H209a10.63,10.63,0,0,0-10.62,10.62Z"/><rect class="cls-9" x="229.41" y="247.94" width="8.31" height="0.87" transform="translate(-107.21 237.9) rotate(-45)"/><path class="cls-9" d="M251.12,282.25H224.51v-.87h26.61a6.09,6.09,0,0,0,6.08-6.09V259.81h.87v15.48A7,7,0,0,1,251.12,282.25Z"/><polygon class="cls-9" points="258.7 322.82 257.83 322.82 257.83 301.64 273.08 285.52 273.08 266.09 273.95 266.09 273.95 285.86 258.7 301.99 258.7 322.82"/><path class="cls-9" d="M258.1,337.77a7.69,7.69,0,1,1,7.69-7.69A7.7,7.7,0,0,1,258.1,337.77Zm0-14.51a6.82,6.82,0,1,0,6.82,6.82A6.82,6.82,0,0,0,258.1,323.26Z"/><path class="cls-9" d="M217.25,289.27a7.69,7.69,0,1,1,7.69-7.69A7.7,7.7,0,0,1,217.25,289.27Zm0-14.51a6.82,6.82,0,1,0,6.82,6.82A6.83,6.83,0,0,0,217.25,274.76Z"/><path class="cls-9" d="M225.34,263.68A7.69,7.69,0,1,1,233,256,7.7,7.7,0,0,1,225.34,263.68Zm0-14.51a6.82,6.82,0,1,0,6.82,6.82A6.83,6.83,0,0,0,225.34,249.17Z"/><path class="cls-9" d="M178.75,197.21a7.69,7.69,0,1,1,7.69-7.69A7.7,7.7,0,0,1,178.75,197.21Zm0-14.51a6.82,6.82,0,1,0,6.82,6.82A6.83,6.83,0,0,0,178.75,182.7Z"/><path class="cls-9" d="M199.31,124.75a7.69,7.69,0,1,1,7.69-7.69A7.7,7.7,0,0,1,199.31,124.75Zm0-14.51a6.82,6.82,0,1,0,6.82,6.82A6.83,6.83,0,0,0,199.31,110.24Z"/><path class="cls-9" d="M224.09,132.05a7.69,7.69,0,1,1,7.69-7.69A7.7,7.7,0,0,1,224.09,132.05Zm0-14.51a6.82,6.82,0,1,0,6.82,6.82A6.83,6.83,0,0,0,224.09,117.54Z"/><path class="cls-9" d="M216.7,104.94a7.69,7.69,0,1,1,7.69-7.69A7.7,7.7,0,0,1,216.7,104.94Zm0-14.51a6.83,6.83,0,1,0,6.82,6.82A6.83,6.83,0,0,0,216.7,90.43Z"/><path class="cls-9" d="M197.92,270.43a7.69,7.69,0,1,1,7.69-7.69A7.7,7.7,0,0,1,197.92,270.43Zm0-14.51a6.82,6.82,0,1,0,6.82,6.82A6.83,6.83,0,0,0,197.92,255.92Z"/><path class="cls-9" d="M147.49,229.43a7.69,7.69,0,1,1,7.69-7.69A7.7,7.7,0,0,1,147.49,229.43Zm0-14.51a6.82,6.82,0,1,0,6.82,6.82A6.82,6.82,0,0,0,147.49,214.92Z"/><path class="cls-9" d="M149.32,164.94a7.69,7.69,0,1,1,7.69-7.69A7.7,7.7,0,0,1,149.32,164.94Zm0-14.51a6.82,6.82,0,1,0,6.82,6.82A6.83,6.83,0,0,0,149.32,150.43Z"/></g><g id="Device"><path class="cls-2" d="M176.41,458.35H85.27a3.86,3.86,0,0,1-3.86-3.86V367.71a3.86,3.86,0,0,1,3.86-3.86h91.14a3.86,3.86,0,0,1,3.86,3.86v86.78A3.86,3.86,0,0,1,176.41,458.35Z"/><path class="cls-3" d="M180.44,394c0,.11-22.08.19-49.31.19s-49.32-.08-49.32-.19,22.08-.19,49.32-.19S180.44,393.91,180.44,394Z"/><path class="cls-3" d="M180.44,424.35c0,.11-22.08.19-49.31.19s-49.32-.08-49.32-.19,22.08-.19,49.32-.19S180.44,424.25,180.44,424.35Z"/><path class="cls-2" d="M101.53,379.8a2.15,2.15,0,1,1-2.15-2.15A2.15,2.15,0,0,1,101.53,379.8Z"/><path class="cls-2" d="M109.25,379.8a2.15,2.15,0,1,1-2.15-2.15A2.16,2.16,0,0,1,109.25,379.8Z"/><path class="cls-3" d="M155.59,383.81h0a1,1,0,0,1-1-1v-5.36a1,1,0,0,1,1-1h0a1,1,0,0,1,1,1v5.36A1,1,0,0,1,155.59,383.81Z"/><path class="cls-3" d="M160.54,383.81h0a1,1,0,0,1-1-1v-5.36a1,1,0,0,1,1-1h0a1,1,0,0,1,1,1v5.36A1,1,0,0,1,160.54,383.81Z"/><path class="cls-2" d="M165.11,383.81h0a1,1,0,0,1-1-1v-5.36a1,1,0,0,1,1-1h0a1,1,0,0,1,1,1v5.36A1,1,0,0,1,165.11,383.81Z"/><path class="cls-9" d="M150.57,383.81h0a1,1,0,0,1-1-1v-5.36a1,1,0,0,1,1-1h0a1,1,0,0,1,1,1v5.36A1,1,0,0,1,150.57,383.81Z"/><path class="cls-2" d="M101.53,409.27a2.15,2.15,0,1,1-2.15-2.15A2.15,2.15,0,0,1,101.53,409.27Z"/><path class="cls-2" d="M108.83,409.27a2.15,2.15,0,1,1-2.15-2.15A2.15,2.15,0,0,1,108.83,409.27Z"/><path class="cls-3" d="M155.59,413.29h0a1,1,0,0,1-1-1V407a1,1,0,0,1,1-1h0a1,1,0,0,1,1,1v5.35A1,1,0,0,1,155.59,413.29Z"/><path class="cls-3" d="M160.54,413.29h0a1,1,0,0,1-1-1V407a1,1,0,0,1,1-1h0a1,1,0,0,1,1,1v5.35A1,1,0,0,1,160.54,413.29Z"/><path class="cls-2" d="M165.11,413.29h0a1,1,0,0,1-1-1V407a1,1,0,0,1,1-1h0a1,1,0,0,1,1,1v5.35A1,1,0,0,1,165.11,413.29Z"/><path class="cls-9" d="M150.57,413.29h0a1,1,0,0,1-1-1V407a1,1,0,0,1,1-1h0a1,1,0,0,1,1,1v5.35A1,1,0,0,1,150.57,413.29Z"/><path class="cls-2" d="M101.53,441a2.15,2.15,0,1,1-2.15-2.15A2.15,2.15,0,0,1,101.53,441Z"/><path class="cls-2" d="M109.45,441a2.15,2.15,0,1,1-2.15-2.15A2.15,2.15,0,0,1,109.45,441Z"/><path class="cls-3" d="M155.59,445h0a1,1,0,0,1-1-1v-5.36a1,1,0,0,1,1-1h0a1,1,0,0,1,1,1V444A1,1,0,0,1,155.59,445Z"/><path class="cls-3" d="M160.54,445h0a1,1,0,0,1-1-1v-5.36a1,1,0,0,1,1-1h0a1,1,0,0,1,1,1V444A1,1,0,0,1,160.54,445Z"/><path class="cls-2" d="M165.11,445h0a1,1,0,0,1-1-1v-5.36a1,1,0,0,1,1-1h0a1,1,0,0,1,1,1V444A1,1,0,0,1,165.11,445Z"/><path class="cls-9" d="M150.57,445h0a1,1,0,0,1-1-1v-5.36a1,1,0,0,1,1-1h0a1,1,0,0,1,1,1V444A1,1,0,0,1,150.57,445Z"/><path class="cls-2" d="M176.41,363.83H85.27A3.86,3.86,0,0,1,81.41,360V273.19a3.86,3.86,0,0,1,3.86-3.86h91.14a3.86,3.86,0,0,1,3.86,3.86V360A3.86,3.86,0,0,1,176.41,363.83Z"/><path class="cls-3" d="M180.44,299.5c0,.1-22.08.19-49.31.19s-49.32-.09-49.32-.19,22.08-.19,49.32-.19S180.44,299.39,180.44,299.5Z"/><path class="cls-3" d="M180.44,329.84c0,.1-22.08.19-49.31.19s-49.32-.09-49.32-.19,22.08-.19,49.32-.19S180.44,329.73,180.44,329.84Z"/><path class="cls-2" d="M101.53,285.28a2.15,2.15,0,1,1-2.15-2.15A2.15,2.15,0,0,1,101.53,285.28Z"/><path class="cls-2" d="M109.25,285.28a2.15,2.15,0,1,1-2.15-2.15A2.16,2.16,0,0,1,109.25,285.28Z"/><path class="cls-3" d="M155.59,289.29h0a1,1,0,0,1-1-1V283a1,1,0,0,1,1-1h0a1,1,0,0,1,1,1v5.36A1,1,0,0,1,155.59,289.29Z"/><path class="cls-3" d="M160.54,289.29h0a1,1,0,0,1-1-1V283a1,1,0,0,1,1-1h0a1,1,0,0,1,1,1v5.36A1,1,0,0,1,160.54,289.29Z"/><path class="cls-2" d="M165.11,289.29h0a1,1,0,0,1-1-1V283a1,1,0,0,1,1-1h0a1,1,0,0,1,1,1v5.36A1,1,0,0,1,165.11,289.29Z"/><path class="cls-9" d="M150.57,289.29h0a1,1,0,0,1-1-1V283a1,1,0,0,1,1-1h0a1,1,0,0,1,1,1v5.36A1,1,0,0,1,150.57,289.29Z"/><path class="cls-2" d="M101.53,314.75a2.15,2.15,0,1,1-2.15-2.14A2.15,2.15,0,0,1,101.53,314.75Z"/><circle class="cls-2" cx="106.68" cy="314.75" r="2.15"/><path class="cls-3" d="M155.59,318.77h0a1,1,0,0,1-1-1v-5.35a1,1,0,0,1,1-1h0a1,1,0,0,1,1,1v5.35A1,1,0,0,1,155.59,318.77Z"/><path class="cls-3" d="M160.54,318.77h0a1,1,0,0,1-1-1v-5.35a1,1,0,0,1,1-1h0a1,1,0,0,1,1,1v5.35A1,1,0,0,1,160.54,318.77Z"/><path class="cls-2" d="M165.11,318.77h0a1,1,0,0,1-1-1v-5.35a1,1,0,0,1,1-1h0a1,1,0,0,1,1,1v5.35A1,1,0,0,1,165.11,318.77Z"/><path class="cls-9" d="M150.57,318.77h0a1,1,0,0,1-1-1v-5.35a1,1,0,0,1,1-1h0a1,1,0,0,1,1,1v5.35A1,1,0,0,1,150.57,318.77Z"/><path class="cls-2" d="M101.53,346.48a2.15,2.15,0,1,1-2.15-2.15A2.15,2.15,0,0,1,101.53,346.48Z"/><circle class="cls-2" cx="107.3" cy="346.48" r="2.15"/><path class="cls-3" d="M155.59,350.49h0a1,1,0,0,1-1-1v-5.36a1,1,0,0,1,1-1h0a1,1,0,0,1,1,1v5.36A1,1,0,0,1,155.59,350.49Z"/><path class="cls-3" d="M160.54,350.49h0a1,1,0,0,1-1-1v-5.36a1,1,0,0,1,1-1h0a1,1,0,0,1,1,1v5.36A1,1,0,0,1,160.54,350.49Z"/><path class="cls-2" d="M165.11,350.49h0a1,1,0,0,1-1-1v-5.36a1,1,0,0,1,1-1h0a1,1,0,0,1,1,1v5.36A1,1,0,0,1,165.11,350.49Z"/><path class="cls-9" d="M150.57,350.49h0a1,1,0,0,1-1-1v-5.36a1,1,0,0,1,1-1h0a1,1,0,0,1,1,1v5.36A1,1,0,0,1,150.57,350.49Z"/><path class="cls-3" d="M178.5,363.83c0,.13-21.08.23-47.08.23s-47.08-.1-47.08-.23,21.08-.23,47.08-.23S178.5,363.7,178.5,363.83Z"/><path class="cls-3" d="M118,267.49s3.82-43.39,8.36-43.94,50.62-1.71,52,0-4,45.42-5.46,45.91S118,267.49,118,267.49Z"/><path class="cls-8" d="M171.33,267.58c-7.83,0-42.42-1.55-51.22-1.94,1.66-17.81,4.62-37.41,6.83-40.19,3.66-.33,21.09-.85,34.52-.85,10,0,13.8.29,15.21.48.2,6-3.43,36.45-5.06,42.5Z"/><path class="cls-3" d="M172.69,269.47H93.33v-.54a3,3,0,0,1,3-2.94h76.41Z"/><g class="cls-10"><path d="M151.2,237.33l-2.57,0c.35-3.07.61-6,.58-7a49.91,49.91,0,0,0-5.59-.18c-4.93,0-11.34.19-12.68.32-.81,1-1.9,8.22-2.51,14.76,1.45.07,4.83.22,8.36.36-.3,2.16-.57,4.52-.78,6.8,3.23.15,15.94.71,18.82.71h.1a124.38,124.38,0,0,0,1.86-15.61A49.91,49.91,0,0,0,151.2,237.33Z"/></g><g class="cls-10"><path d="M152.18,230.18a.63.63,0,0,0-.63.49c-.17.76-.24,1.75-.36,2.38s-.44,1.88.26,2.27a7.47,7.47,0,0,0,2.32.08l18.93.61s1.4-5,.74-5.27S155.34,230.24,152.18,230.18Z"/></g><g class="cls-10"><path d="M127.69,257.68a.64.64,0,0,0-.63.49c-.17.76-.23,1.75-.35,2.38s-.44,1.88.26,2.27a7.45,7.45,0,0,0,2.32.08c6.31.2,31.91.4,38.22.61,0,0,1.4-5.05.75-5.27S130.86,257.73,127.69,257.68Z"/></g><g class="cls-10"><path d="M160.55,238.43a.35.35,0,0,0-.35.28c-.1.41-.13,1-.2,1.31s-.24,1,.15,1.26a4.18,4.18,0,0,0,1.28,0l10.46.33s.77-2.79.41-2.91S162.3,238.46,160.55,238.43Z"/></g></g></g></svg>