<svg xmlns="http://www.w3.org/2000/svg" viewBox="0 0 592 500"><defs><style>.cls-1{fill:#fff;}.cls-2{fill:#d7e4f9;}.cls-3{fill:none;}.cls-3,.cls-9{stroke:#779ce8;stroke-linejoin:round;stroke-width:0.75px;}.cls-4{fill:#263238;}.cls-5{fill:#455a64;}.cls-6{fill:#ffbf9d;}.cls-7{fill:#ff9a6c;}.cls-8{fill:#407bff;}.cls-9{fill:#f97d8c;}.cls-10{fill:#ae7461;}.cls-11{fill:#6f4439;}.cls-12{fill:#779ce8;}.cls-13{opacity:0.3;}</style></defs><g id="Layer_1" data-name="Layer 1"><rect class="cls-1" x="-49.79" y="-21.68" width="672.51" height="557.68"/></g><g id="Layer_4" data-name="Layer 4"><g id="Background_Complete" data-name="Background Complete"><path class="cls-2" d="M449.46,318.71a23.54,23.54,0,0,1,5.78-2.47l1.19-5.64,9.67-.16,1.39,5.59a23.48,23.48,0,0,1,5.87,2.27l4.89-3.16,7,6.62-3,4.92a22.89,22.89,0,0,1,2.52,5.69l5.72,1.17.17,9.52-5.68,1.37a23.13,23.13,0,0,1-2.31,5.78l3.21,4.81-6.72,6.85-5-3a23.77,23.77,0,0,1-5.79,2.47L467.11,367l-9.67.16-1.39-5.59a23.48,23.48,0,0,1-5.87-2.27l-4.89,3.16-7-6.62,3-4.92a22.89,22.89,0,0,1-2.52-5.69l-5.72-1.17-.17-9.52,5.68-1.37a23.13,23.13,0,0,1,2.31-5.78l-3.21-4.81,6.72-6.85,5,3Zm6.15,11.79a10.12,10.12,0,0,0,.29,16.2,10.49,10.49,0,0,0,12.64-.22,10.12,10.12,0,0,0-.29-16.2A10.49,10.49,0,0,0,455.61,330.5Z"/><path class="cls-2" d="M339.4,380.18a18.14,18.14,0,0,1,4.45-1.9l.91-4.34,7.44-.12,1.07,4.29a18.48,18.48,0,0,1,4.52,1.75l3.76-2.42,5.35,5.08-2.33,3.79a17.41,17.41,0,0,1,1.93,4.38l4.41.9.13,7.32-4.37,1a17.7,17.7,0,0,1-1.78,4.45l2.47,3.7-5.17,5.27-3.84-2.3a18.31,18.31,0,0,1-4.45,1.9l-.92,4.34-7.44.13-1.07-4.3A18.25,18.25,0,0,1,340,411.4l-3.76,2.43-5.36-5.09,2.33-3.78a17.94,17.94,0,0,1-1.93-4.38l-4.4-.91-.13-7.32,4.37-1.05a17.46,17.46,0,0,1,1.77-4.44l-2.46-3.71,5.17-5.26,3.84,2.29Zm4.73,9.07a7.78,7.78,0,0,0,.23,12.46,8.07,8.07,0,0,0,9.72-.17,7.8,7.8,0,0,0-.22-12.47A8.09,8.09,0,0,0,344.13,389.25Z"/><path class="cls-2" d="M508.07,313.53a10.51,10.51,0,0,1,2.59-1.1l.53-2.52,4.32-.08.62,2.5a10.63,10.63,0,0,1,2.62,1l2.18-1.41,3.11,2.95-1.35,2.2a10.63,10.63,0,0,1,1.12,2.54l2.55.52.08,4.25-2.54.62a10,10,0,0,1-1,2.58l1.43,2.14-3,3.06-2.23-1.33a10.32,10.32,0,0,1-2.58,1.11l-.53,2.51-4.32.08-.62-2.5a10.84,10.84,0,0,1-2.62-1l-2.19,1.4-3.1-2.95,1.35-2.19a10.31,10.31,0,0,1-1.12-2.55l-2.56-.52-.07-4.25,2.53-.61a10.38,10.38,0,0,1,1-2.58l-1.43-2.15,3-3.06,2.23,1.33Zm2.75,5.26A4.52,4.52,0,0,0,511,326a4.7,4.7,0,0,0,5.65-.1,4.53,4.53,0,0,0-.13-7.24A4.7,4.7,0,0,0,510.82,318.79Z"/><path class="cls-2" d="M446.57,386.42a10.91,10.91,0,0,1,2.59-1.1l.53-2.52,4.32-.07.62,2.49a10.63,10.63,0,0,1,2.62,1l2.18-1.41,3.11,2.95-1.35,2.2a10.63,10.63,0,0,1,1.12,2.54l2.55.53.08,4.25-2.54.61a10,10,0,0,1-1,2.58l1.43,2.15-3,3.06-2.23-1.34a10.32,10.32,0,0,1-2.58,1.11l-.53,2.51-4.32.08-.62-2.5a10.84,10.84,0,0,1-2.62-1L444.71,406l-3.1-3,1.35-2.19a10.31,10.31,0,0,1-1.12-2.55l-2.56-.52-.08-4.25,2.54-.61a10.38,10.38,0,0,1,1-2.58l-1.43-2.15,3-3.06,2.23,1.33Zm2.75,5.26a4.53,4.53,0,0,0,.13,7.24,4.7,4.7,0,0,0,5.65-.1,4.51,4.51,0,0,0-.13-7.23A4.7,4.7,0,0,0,449.32,391.68Z"/><path class="cls-2" d="M78.08,114a26.93,26.93,0,0,1,6.45-2.76L85.86,105l10.78-.19L98.19,111a26.86,26.86,0,0,1,6.55,2.54l5.45-3.52,7.76,7.38-3.38,5.48a25.78,25.78,0,0,1,2.8,6.35l6.39,1.31.19,10.61-6.34,1.53a25.42,25.42,0,0,1-2.57,6.44l3.57,5.37-7.49,7.64-5.57-3.33a26.93,26.93,0,0,1-6.45,2.76l-1.33,6.28L87,168l-1.55-6.23a26.79,26.79,0,0,1-6.54-2.54l-5.46,3.52-7.76-7.38,3.38-5.48a26,26,0,0,1-2.8-6.35l-6.38-1.31-.19-10.61L66,130.13a25.8,25.8,0,0,1,2.57-6.44L65,118.32l7.49-7.64L78.08,114Zm6.86,13.14a11.29,11.29,0,0,0,.33,18.07A11.7,11.7,0,0,0,99.36,145,11.29,11.29,0,0,0,99,126.9,11.72,11.72,0,0,0,84.94,127.15Z"/><path class="cls-2" d="M137.7,94.85a10.48,10.48,0,0,1,2.58-1.11l.53-2.52,4.32-.07.62,2.5a10.67,10.67,0,0,1,2.63,1l2.18-1.41,3.11,3-1.36,2.19a10,10,0,0,1,1.12,2.55l2.56.52.08,4.25-2.54.61a10.38,10.38,0,0,1-1,2.58l1.43,2.15-3,3.06-2.23-1.33a10.91,10.91,0,0,1-2.59,1.1l-.53,2.52-4.32.07-.62-2.49a10.63,10.63,0,0,1-2.62-1l-2.18,1.41-3.11-2.95,1.35-2.2a10.63,10.63,0,0,1-1.12-2.54l-2.55-.53-.08-4.25,2.54-.61a10,10,0,0,1,1-2.58l-1.43-2.15,3-3.06,2.23,1.34Zm2.75,5.26a4.51,4.51,0,0,0,.13,7.23,4.7,4.7,0,0,0,5.64-.09,4.52,4.52,0,0,0-.13-7.24A4.68,4.68,0,0,0,140.45,100.11Z"/><path class="cls-2" d="M54.41,204.34A12.81,12.81,0,0,1,57.62,203l.66-3.12,5.37-.1.77,3.11a13,13,0,0,1,3.25,1.26l2.72-1.75L74.25,206l-1.68,2.73A12.61,12.61,0,0,1,74,211.91l3.18.65.09,5.29-3.15.76a12.9,12.9,0,0,1-1.28,3.2l1.78,2.67-3.73,3.8-2.77-1.65A13.5,13.5,0,0,1,64.87,228l-.66,3.13-5.37.09-.77-3.1a13.92,13.92,0,0,1-3.26-1.26l-2.71,1.75-3.86-3.67,1.68-2.73a13.26,13.26,0,0,1-1.4-3.16l-3.17-.65-.1-5.28,3.16-.76a12.45,12.45,0,0,1,1.28-3.21l-1.78-2.67,3.73-3.8,2.77,1.66Zm3.41,6.53a5.62,5.62,0,0,0,.17,9,5.82,5.82,0,0,0,7-.12,5.62,5.62,0,0,0-.16-9A5.84,5.84,0,0,0,57.82,210.87Z"/></g><g id="Tech"><path class="cls-3" d="M393.11,234.6s0-.59-.07-1.74c0-.58,0-1.29-.06-2.15s-.05-1.84-.16-3-.18-2.37-.29-3.75-.36-2.88-.56-4.51a113.17,113.17,0,0,0-2.19-11.13,105.41,105.41,0,0,0-4.4-13.48,102.54,102.54,0,0,0-7.47-15.13,108.54,108.54,0,0,0-27.26-30.5,107,107,0,0,0-45.16-20,106.74,106.74,0,0,0-27.66-1.53,105.41,105.41,0,0,0-14.37,2c-2.39.55-4.81,1.07-7.19,1.8s-4.76,1.49-7.15,2.28a116,116,0,0,0-14,6.24A111.05,111.05,0,0,0,222,148.38a106.92,106.92,0,0,0-22.7,22.78,105.26,105.26,0,0,0-8.74,14.08c-.62,1.25-1.31,2.46-1.87,3.75l-1.73,3.83c-.52,1.3-1,2.61-1.55,3.92l-.39,1-.34,1-.68,2-.68,2-.58,2.05c-.37,1.37-.82,2.72-1.11,4.12l-1,4.18-.75,4.23a115.12,115.12,0,0,0-1.41,17.25,116.72,116.72,0,0,0,1.4,17.27A106.61,106.61,0,0,0,184,268.44l.68,2,.34,1,.39,1c.52,1.31,1,2.62,1.55,3.93l1.74,3.83c.27.64.58,1.27.91,1.89l.95,1.86A104.94,104.94,0,0,0,199.26,298a107.41,107.41,0,0,0,35.91,31.16,116,116,0,0,0,14,6.24c2.39.79,4.74,1.66,7.15,2.28s4.8,1.25,7.19,1.8a105.34,105.34,0,0,0,14.38,2A106.76,106.76,0,0,0,305.5,340a106.84,106.84,0,0,0,45.16-20.05,108.56,108.56,0,0,0,27.26-30.5,104,104,0,0,0,7.47-15.12c.46-1.21,1-2.37,1.36-3.55l1.17-3.45c.41-1.11.66-2.24,1-3.32s.64-2.13.88-3.17c1-4.14,1.72-7.87,2.18-11.12.2-1.63.42-3.13.56-4.51s.21-2.63.29-3.75.14-2.11.16-3,0-1.57.06-2.15c0-1.15.07-1.74.07-1.74s0,.59,0,1.74c0,.58,0,1.3,0,2.15s0,1.84-.14,3-.17,2.38-.27,3.76-.35,2.89-.55,4.52a109.34,109.34,0,0,1-2.15,11.14c-.23,1.05-.57,2.09-.86,3.18s-.58,2.21-1,3.33l-1.17,3.45c-.38,1.18-.9,2.35-1.36,3.56a103.67,103.67,0,0,1-7.45,15.17,108.64,108.64,0,0,1-27.28,30.61,107.34,107.34,0,0,1-45.27,20.15,109.59,109.59,0,0,1-42.17-.45c-2.4-.56-4.83-1.07-7.22-1.8s-4.78-1.5-7.18-2.3a107.9,107.9,0,0,1-27.27-14.64,119.49,119.49,0,0,1-12.15-10.46,116.54,116.54,0,0,1-10.63-12.41,105,105,0,0,1-8.78-14.13l-1-1.87c-.32-.62-.64-1.25-.91-1.89l-1.74-3.85L185,272.58l-.39-1-.34-1-.68-2a103.94,103.94,0,0,1-4.1-16.66,107.14,107.14,0,0,1,0-34.65c.26-1.41.51-2.83.76-4.24l1-4.19c.29-1.41.75-2.76,1.12-4.14l.58-2.05.68-2,.69-2,.34-1,.39-1c.52-1.31,1-2.63,1.55-3.94s1.16-2.56,1.74-3.84,1.26-2.51,1.88-3.77A106,106,0,0,1,199,170.93a107,107,0,0,1,22.78-22.86A107.45,107.45,0,0,1,249,133.43c2.39-.8,4.76-1.66,7.17-2.29s4.82-1.25,7.22-1.81a109.55,109.55,0,0,1,42.16-.45A107.31,107.31,0,0,1,350.83,149a108.8,108.8,0,0,1,27.28,30.61,103.58,103.58,0,0,1,7.45,15.16,107.77,107.77,0,0,1,4.38,13.53,111.87,111.87,0,0,1,2.14,11.14c.2,1.63.42,3.14.55,4.52s.19,2.63.28,3.76.11,2.11.13,3,0,1.57,0,2.15C393.1,234,393.11,234.6,393.11,234.6Z"/><path class="cls-2" d="M143.15,195s0-.06,0-.18,0-.29.06-.52q.08-.69.3-2a76.89,76.89,0,0,1,1.79-7.72,117.09,117.09,0,0,1,11.58-26.75l1.19-2c.39-.69.8-1.38,1.25-2.05l2.7-4.16c.95-1.4,2-2.78,3-4.21s2.11-2.85,3.24-4.28c2.2-2.91,4.72-5.71,7.26-8.64l4.08-4.28,1-1.09,1.1-1,2.21-2.12A166.88,166.88,0,0,1,204,107.73c3.7-2.51,7.55-5,11.59-7.22a117.86,117.86,0,0,1,12.63-6.28l.2-.08.06.22c.42,1.59.87,3.31,1.32,5,.59,2.3,1.19,4.58,1.76,6.76l0,.17-.16.06a126.45,126.45,0,0,0-34.09,21A140.48,140.48,0,0,0,174,153.7a153.26,153.26,0,0,0-13.88,24.88c-1.66,3.75-3,7.25-4.1,10.42-.54,1.59-1,3.1-1.42,4.52-.21.71-.37,1.4-.54,2.07a10.12,10.12,0,0,0-.32,1.92v.12l-.09,0-7.82-2-2-.5-.67-.18s.25,0,.7.15l2,.48,7.8,1.86-.09.1a8.57,8.57,0,0,1,.3-2c.16-.67.32-1.36.53-2.08.39-1.43.87-2.94,1.4-4.53,1.07-3.19,2.42-6.7,4.06-10.46a153.72,153.72,0,0,1,13.84-25,141,141,0,0,1,23.39-26.37A126.68,126.68,0,0,1,231.31,106l-.12.24c-.56-2.18-1.16-4.46-1.76-6.76-.45-1.73-.9-3.45-1.31-5l.26.14a119.51,119.51,0,0,0-12.57,6.24c-4,2.25-7.87,4.7-11.57,7.2a165.27,165.27,0,0,0-20,16.09l-2.21,2.1-1.09,1.05-1,1.08-4.08,4.26c-2.54,2.92-5.06,5.71-7.26,8.61-1.13,1.42-2.25,2.82-3.24,4.26s-2.05,2.81-3,4.2l-2.7,4.14c-.45.67-.86,1.36-1.26,2l-1.19,2a118.87,118.87,0,0,0-11.68,26.65c-.95,3.31-1.53,5.92-1.86,7.69-.15.89-.27,1.57-.33,2,0,.22-.06.39-.08.52A1.08,1.08,0,0,1,143.15,195Z"/><path class="cls-2" d="M413.63,233s0-.71-.07-2.08c0-.69-.05-1.54-.08-2.55s-.05-2.2-.18-3.53-.22-2.83-.35-4.48-.43-3.43-.67-5.37a133.84,133.84,0,0,0-2.59-13.25c-.28-1.24-.69-2.48-1-3.78-.18-.64-.37-1.29-.56-2-.09-.34-.19-.67-.28-1s-.23-.66-.34-1c-.45-1.33-.92-2.7-1.39-4.1s-1.08-2.79-1.63-4.24a123.34,123.34,0,0,0-8.9-18,129.11,129.11,0,0,0-32.47-36.33,127.21,127.21,0,0,0-53.8-23.89,130,130,0,0,0-50.08.57c-2.85.66-5.73,1.27-8.56,2.14s-5.68,1.78-8.52,2.73a128.1,128.1,0,0,0-32.37,17.4,141.43,141.43,0,0,0-14.41,12.41,138.48,138.48,0,0,0-12.62,14.73l-2.85,4-2.67,4.15c-.92,1.37-1.68,2.83-2.52,4.25l-1.24,2.16-1.14,2.21-1.14,2.22c-.38.73-.76,1.48-1.09,2.25L168,183.18l-1.85,4.68L165.7,189l-.41,1.2-.81,2.39-.8,2.4-.7,2.44-.69,2.44-.34,1.23-.29,1.24-1.14,5-.9,5A136.42,136.42,0,0,0,158,233a137.83,137.83,0,0,0,1.66,20.56q.45,2.53.9,5c.38,1.67.76,3.32,1.14,5s.88,3.28,1.32,4.91l.7,2.44.81,2.4.81,2.4.4,1.19.46,1.18,1.85,4.68,2.06,4.56.52,1.14.57,1.11,1.14,2.22,1.14,2.21,1.24,2.16c.84,1.42,1.6,2.89,2.52,4.26l2.67,4.14,2.85,4a127.05,127.05,0,0,0,27,27.15,127.65,127.65,0,0,0,32.37,17.4c2.85,1,5.65,2,8.52,2.73s5.72,1.48,8.57,2.14a125.38,125.38,0,0,0,17.12,2.39,126.85,126.85,0,0,0,32.95-1.82,127.5,127.5,0,0,0,53.81-23.89,129.58,129.58,0,0,0,32.47-36.34,123.23,123.23,0,0,0,8.89-18c.55-1.44,1.17-2.83,1.63-4.23s.94-2.77,1.39-4.11c.24-.66.44-1.33.62-2s.38-1.32.56-2c.35-1.29.76-2.54,1-3.78A132.74,132.74,0,0,0,412.28,251c.24-1.94.51-3.73.67-5.37s.25-3.14.35-4.47.16-2.51.18-3.53.06-1.87.08-2.55c0-1.37.07-2.07.07-2.07s0,.7,0,2.07c0,.69,0,1.54-.06,2.56s0,2.19-.16,3.53-.2,2.83-.33,4.47-.41,3.44-.65,5.38a132.72,132.72,0,0,1-2.56,13.27c-.27,1.24-.68,2.49-1,3.79l-.56,2c-.17.66-.38,1.33-.61,2-.46,1.34-.92,2.71-1.39,4.11s-1.07,2.8-1.62,4.24a123,123,0,0,1-8.88,18.06,129.4,129.4,0,0,1-32.49,36.46,127.88,127.88,0,0,1-53.91,24,128,128,0,0,1-33,1.85,129.45,129.45,0,0,1-17.18-2.39c-2.85-.67-5.75-1.28-8.59-2.15s-5.69-1.78-8.55-2.73A128.83,128.83,0,0,1,209.52,336a140.07,140.07,0,0,1-14.46-12.45,138.49,138.49,0,0,1-12.67-14.78l-2.85-4-2.68-4.16c-.92-1.37-1.69-2.85-2.53-4.27l-1.25-2.16L171.94,292l-1.14-2.23-.57-1.11-.52-1.15-2.07-4.58-1.86-4.69-.46-1.18-.41-1.2-.81-2.4-.81-2.41-.7-2.44c-.44-1.64-1-3.26-1.32-4.93s-.77-3.33-1.15-5l-.9-5.06a128.26,128.26,0,0,1,0-41.26c.31-1.68.61-3.37.91-5l1.14-5,.29-1.25.34-1.23.7-2.45.7-2.45.81-2.4.81-2.4.41-1.2.46-1.18q.93-2.35,1.85-4.69t2.08-4.58c.33-.77.7-1.52,1.09-2.26L172,174l1.14-2.22,1.25-2.16c.84-1.43,1.61-2.9,2.53-4.27l2.68-4.16,2.85-4a139.45,139.45,0,0,1,12.66-14.77,141.23,141.23,0,0,1,14.47-12.45,133.67,133.67,0,0,1,15.79-10A137,137,0,0,1,242,112.49c2.86-.95,5.67-2,8.55-2.73s5.73-1.48,8.59-2.14a127.91,127.91,0,0,1,104.12,23.44,129.42,129.42,0,0,1,32.5,36.45,123.46,123.46,0,0,1,8.88,18.06c.54,1.45,1.16,2.84,1.62,4.25l1.38,4.11c.12.33.23.67.34,1s.19.66.28,1c.19.66.37,1.31.56,2,.35,1.3.75,2.54,1,3.78a133.27,133.27,0,0,1,2.56,13.27c.23,1.95.49,3.74.65,5.38s.23,3.15.33,4.48.15,2.52.16,3.53,0,1.87.06,2.56C413.63,232.26,413.63,233,413.63,233Z"/><path class="cls-2" d="M298.35,87.83s0-.45-.24-1.23a5,5,0,0,0-6.55-3.39,4.88,4.88,0,0,0-2.28,1.72,4.94,4.94,0,0,0,2.28,7.53,5,5,0,0,0,4.69-.68,5.12,5.12,0,0,0,1.87-2.72c.2-.77.19-1.23.23-1.23a1.19,1.19,0,0,1,0,.33,3.83,3.83,0,0,1-.11.94,5,5,0,0,1-1.84,2.9A5.26,5.26,0,0,1,289,91a5.25,5.25,0,0,1,0-6.27,5.25,5.25,0,0,1,7.45-1,5,5,0,0,1,1.84,2.91,3.71,3.71,0,0,1,.11.93A1.19,1.19,0,0,1,298.35,87.83Z"/><path class="cls-2" d="M158.21,222.62l-.41,0-1.18,0-4.45,0-15.61.07h-.1l-.05-.08c-2.63-3.62-5.54-7.65-8.61-11.9l-10.78-15,.14.07-13-.07-3.63-.05-1,0-.33,0a1.39,1.39,0,0,1,.33,0l1,0,3.63-.05,13-.07h.09l0,.07,10.82,14.93,8.58,11.92-.14-.08,15.61.07,4.45.05,1.18,0Z"/><path class="cls-2" d="M99.57,195.77s0,.09,0,.26a2.85,2.85,0,0,1-.08.74,4,4,0,0,1-1.44,2.3,4.15,4.15,0,0,1-3.94.64,4.17,4.17,0,0,1-2.78-3.94,4.16,4.16,0,0,1,6.72-3.3,4.06,4.06,0,0,1,1.45,2.3,3.24,3.24,0,0,1,.07.74c0,.17,0,.26,0,.26s0-.36-.2-1a4,4,0,0,0-1.46-2.11,3.84,3.84,0,1,0,0,6.14,4,4,0,0,0,1.46-2.11C99.54,196.13,99.53,195.77,99.57,195.77Z"/><path class="cls-2" d="M480.79,294.7a.9.9,0,0,1,0-.26,3.38,3.38,0,0,1,.08-.74,4,4,0,0,1,1.45-2.3,4.16,4.16,0,0,1,5.9.81,4.18,4.18,0,0,1,0,5,4.07,4.07,0,0,1-2,1.45,4.11,4.11,0,0,1-3.94-.63,4,4,0,0,1-1.45-2.31,3.32,3.32,0,0,1-.08-.74.79.79,0,0,1,0-.25s0,.35.2,1a4,4,0,0,0,1.47,2.11,3.84,3.84,0,1,0,0-6.15,4,4,0,0,0-1.47,2.12C480.82,294.34,480.83,294.7,480.79,294.7Z"/><path class="cls-2" d="M403.56,286a1,1,0,0,1,.24.14l.69.44,2.61,1.73,9.45,6.37-.09,0,24.42,0,28.33.06,8.58.06,2.33,0,.61,0,.21,0a.85.85,0,0,1-.21,0l-.61,0-2.33,0-8.58.06-28.33.06-24.42,0h0l0,0L407,288.43l-2.56-1.8-.66-.48A1.19,1.19,0,0,1,403.56,286Z"/><path class="cls-2" d="M345.63,365.33l-.18.09-.52.24-2,.86c-.88.36-1.95.83-3.21,1.32l-4.31,1.57c-1.6.58-3.4,1.09-5.3,1.71s-4,1.11-6.16,1.72c-4.37,1.06-9.22,2.1-14.36,2.87a125.83,125.83,0,0,1-21.46,1.45H288V377c0-4.85,0-8.86.07-11.7,0-1.38,0-2.47,0-3.25,0-.35,0-.63,0-.85a.94.94,0,0,1,0-.29,1.11,1.11,0,0,1,0,.29c0,.22,0,.5,0,.85,0,.78,0,1.87,0,3.25,0,2.84,0,6.85.07,11.7l-.15-.17a129,129,0,0,0,21.38-1.52c5.13-.77,10-1.79,14.33-2.83,2.17-.59,4.24-1.1,6.15-1.68s3.7-1.1,5.3-1.66l4.33-1.51c1.27-.47,2.34-.92,3.23-1.26s1.55-.59,2-.79l.54-.19A.73.73,0,0,1,345.63,365.33Z"/><path class="cls-2" d="M416.89,360.91l-.19.07-.59.18-2.25.66-8.3,2.36-27.43,7.61-2,.56-.13,0-.08-.11-16.57-21.41c-2.07-2.72-3.76-4.91-4.94-6.46l-1.32-1.76-.34-.47c-.07-.1-.11-.16-.1-.16s.05,0,.13.14l.37.44,1.38,1.72,5,6.38L376.21,372,376,372l2-.56,27.46-7.51,8.34-2.23,2.27-.58.6-.15C416.82,360.91,416.89,360.9,416.89,360.91Z"/><path class="cls-2" d="M288.13,87.83a4.19,4.19,0,0,1-.61,0l-1.75.08L283,88l-1.73.06-1.93.12-4.44.29-5.08.51c-1.78.18-3.65.49-5.58.74s-3.93.66-6,1a133.3,133.3,0,0,0-20.46,5.59c-2.55.94-4.57,1.82-6,2.43l-1.58.74a4.11,4.11,0,0,1-.56.25,3.48,3.48,0,0,1,.52-.32c.35-.2.87-.47,1.55-.81,1.38-.66,3.38-1.58,5.93-2.55a122.86,122.86,0,0,1,20.48-5.72c2.05-.34,4.05-.74,6-1s3.81-.55,5.6-.71l5.09-.48,4.45-.24,1.94-.1,1.73,0,2.78,0h1.75A4.81,4.81,0,0,1,288.13,87.83Z"/><path class="cls-2" d="M286,335c-54.45,0-98.75-45.31-98.75-101S231.51,133,286,133s98.74,45.31,98.74,101S340.41,335,286,335Zm0-201.24c-54,0-98,45-98,100.24s44,100.24,98,100.24,98-45,98-100.24S340,133.77,286,133.77Z"/><path class="cls-2" d="M280.52,334.77c-.45-.45-45.21-45.32-45.21-103.06,0-30.19,13.71-55.4,25.2-71.23a155,155,0,0,1,25.21-27.4l.48.6A153.92,153.92,0,0,0,261.12,161c-11.42,15.74-25,40.79-25,70.76,0,57.41,44.53,102.07,45,102.51Z"/><path class="cls-2" d="M284.57,196.13c-26.75,0-51.44-8.13-75.48-24.87l.43-.63c23.92,16.64,48.46,24.73,75,24.73,32.45,0,60.81-12.52,78.89-23l.39.67C345.69,183.55,317.19,196.13,284.57,196.13Z"/><path class="cls-2" d="M363.44,296.22c-17.37-11.87-45.05-26-78.32-26-33,0-61.91,12.53-80.31,23l-.39-.66c18.49-10.56,47.49-23.14,80.7-23.14,33.47,0,61.3,14.23,78.75,26.16Z"/><path class="cls-2" d="M291.18,334.77l-.54-.55c.45-.44,45-45.1,45-102.51,0-30-13.63-55-25.06-70.78a153.69,153.69,0,0,0-25.06-27.25l.48-.6a155.2,155.2,0,0,1,25.2,27.4c11.5,15.83,25.21,41,25.21,71.23C336.39,289.45,291.63,334.32,291.18,334.77Z"/><rect class="cls-2" x="186.38" y="228.87" width="198.71" height="0.77"/><polygon class="cls-2" points="415.62 315.66 402.21 305.35 398.27 310.7 411.17 321.21 415.62 315.66"/><polygon class="cls-2" points="408.68 324.51 395.8 313.53 391.6 318.68 403.95 329.83 408.68 324.51"/><polygon class="cls-2" points="401.31 332.94 389.05 321.28 384.57 326.19 396.44 338.15 401.31 332.94"/><polygon class="cls-2" points="393.75 340.78 382.22 328.73 377.51 333.42 388.67 345.77 393.75 340.78"/><path class="cls-2" d="M372.4,117.26l-.14-.12c-.1-.11-.23-.23-.39-.38l-1.46-1.48c-.64-.64-1.38-1.46-2.36-2.3l-1.52-1.38c-.54-.48-1.1-1-1.74-1.5-1.27-1-2.59-2.17-4.16-3.25l-2.38-1.72-2.61-1.71a107.25,107.25,0,0,0-12.16-6.67,99.93,99.93,0,0,0-14.2-5.4l.22-.1c-2.37,5.56-4.38,10.27-5.8,13.62-.71,1.63-1.28,2.92-1.68,3.85-.19.42-.34.76-.46,1a1.35,1.35,0,0,1-.17.34,1.87,1.87,0,0,1,.12-.36l.41-1,1.58-3.89,5.66-13.67.06-.15.15,0a96.21,96.21,0,0,1,14.28,5.39,101.7,101.7,0,0,1,12.19,6.72l2.61,1.73,2.38,1.74c1.56,1.09,2.88,2.29,4.14,3.3.64.5,1.2,1,1.73,1.54l1.51,1.4c1,.86,1.69,1.69,2.31,2.35l1.41,1.53.36.41C372.37,117.2,372.41,117.25,372.4,117.26Z"/><polygon class="cls-2" points="346.23 88.67 338.08 103.5 347.15 108.58 356.04 94.19 346.23 88.67"/><polygon class="cls-2" points="356.04 94.19 347.15 108.58 352.88 111.95 362.02 98.05 356.04 94.19"/><polygon class="cls-2" points="365.5 100.18 355.84 114.07 361.37 117.75 371.38 104.2 365.5 100.18"/><polygon class="cls-2" points="374.4 106.46 364.24 119.69 369.6 123.63 380.1 110.72 374.4 106.46"/><polygon class="cls-2" points="136.38 246.42 153.29 245.94 152.96 239.3 136.11 239.3 136.38 246.42"/><polygon class="cls-2" points="136.13 235.53 152.81 235.84 152.8 229.19 136.17 228.41 136.13 235.53"/><circle class="cls-2" cx="416.89" cy="360.91" r="4.01"/><path class="cls-2" d="M412.88,360.91a.76.76,0,0,1,0-.26,3.24,3.24,0,0,1,.07-.74,4,4,0,0,1,1.45-2.3,4.14,4.14,0,0,1,3.94-.64,4.2,4.2,0,0,1,2,1.45,4.24,4.24,0,0,1,.82,2.49,4.2,4.2,0,0,1-2.78,3.94,4.14,4.14,0,0,1-3.94-.64,4.06,4.06,0,0,1-1.45-2.3,3.38,3.38,0,0,1-.08-.74.9.9,0,0,1,0-.26s0,.35.2,1a4,4,0,0,0,1.47,2.11,3.85,3.85,0,0,0,6.15-3.07,3.86,3.86,0,0,0-6.15-3.08,4.05,4.05,0,0,0-1.47,2.12C412.91,360.55,412.92,360.91,412.88,360.91Z"/><circle class="cls-2" cx="209.98" cy="157.64" r="5.83"/></g><g id="Character_1" data-name="Character 1"><path class="cls-2" d="M239,410.33H56.83A11.43,11.43,0,0,1,45.4,398.9V269.49a11.43,11.43,0,0,1,11.43-11.43H239a11.43,11.43,0,0,1,11.43,11.43V398.9A11.43,11.43,0,0,1,239,410.33Z"/><path class="cls-2" d="M250.87,284.73h-205V267.31a9.24,9.24,0,0,1,9.24-9.25H239.54a11.33,11.33,0,0,1,11.33,11.33v15.34Z"/><path class="cls-2" d="M61.14,270.57a3,3,0,1,1-3-3A3,3,0,0,1,61.14,270.57Z"/><path class="cls-2" d="M70.23,270.57a3,3,0,1,1-3-3A3,3,0,0,1,70.23,270.57Z"/><path class="cls-2" d="M79.32,270.57a3,3,0,1,1-3-3A3,3,0,0,1,79.32,270.57Z"/><path class="cls-4" d="M239.44,410.33l.45,0a9.66,9.66,0,0,0,1.33-.14,11.4,11.4,0,0,0,9.36-9,30.79,30.79,0,0,0,.22-5.44c0-2,0-4,0-6.23,0-17.6,0-43.07-.06-74.53q0-11.81,0-24.7,0-6.44,0-13.14V270.4a14.57,14.57,0,0,0-.28-3.37,11.28,11.28,0,0,0-1.23-3.16,10.6,10.6,0,0,0-2.15-2.66,10.26,10.26,0,0,0-2.86-1.92,10.7,10.7,0,0,0-3.34-1,34.69,34.69,0,0,0-3.55-.09h-45L57,258.26H55.87c-.37,0-.74,0-1.1.06a10.5,10.5,0,0,0-2.15.5,9.77,9.77,0,0,0-6,6,10.22,10.22,0,0,0-.5,2.12,20,20,0,0,0-.07,2.2v17.66q0,17.55,0,34.54c0,22.64,0,44.48,0,65.29v11.59c0,.64,0,1.26.06,1.89l.14.93c.05.3.15.6.22.91a11.16,11.16,0,0,0,4.14,6,11,11,0,0,0,3.26,1.68,12.22,12.22,0,0,0,3.6.54H86.12l51.47,0,74.52.06,20.26,0h5.27l1.8,0-1.8,0-5.27,0-20.26,0-74.53.06-51.47,0H57.44a12.68,12.68,0,0,1-3.71-.55A11.67,11.67,0,0,1,46.11,402c-.08-.31-.18-.62-.23-.94l-.14-1c-.05-.64-.08-1.29-.07-1.92V386.62c0-20.81,0-42.65,0-65.29q0-17,0-34.54V269.13a21.06,21.06,0,0,1,.08-2.24,9.87,9.87,0,0,1,.52-2.21,10.15,10.15,0,0,1,6.25-6.22,9.83,9.83,0,0,1,2.22-.52c.38,0,.76,0,1.14-.07H57l135.35,0h45a33.11,33.11,0,0,1,3.59.1,11.42,11.42,0,0,1,3.44,1,10.86,10.86,0,0,1,2.94,2,11.19,11.19,0,0,1,2.2,2.74,11.63,11.63,0,0,1,1.27,3.25,14.8,14.8,0,0,1,.28,3.44v6.75q0,6.71,0,13.14,0,12.88,0,24.7c0,31.46-.05,56.93-.06,74.53,0,2.2,0,4.28,0,6.23a31,31,0,0,1-.24,5.46,11.45,11.45,0,0,1-9.46,9,9.21,9.21,0,0,1-1.34.12Z"/><path class="cls-4" d="M121.64,245.08c-2.54-1.61-3.16-5.35-1.78-8a9.81,9.81,0,0,1,7.27-4.78,13.84,13.84,0,0,1,11.93,3.95c1.64,1.69,3,3.89,5.19,4.66,1.95.68,4.12.07,6.17.34a9.3,9.3,0,0,1,6.52,4.69,20,20,0,0,1,2.31,7.93c.3,2.53.5,5.3,2.25,7.15s4.41,2.18,6.54,3.46a9,9,0,0,1,2.66,12.22c-.84,1.23-2,2.36-2.15,3.84s.79,2.57,1.2,3.86a6,6,0,0,1-5.17,7.5c-1.76.11-3.65-.58-5.23.21s-2.16,2.67-3.16,4.11a7.56,7.56,0,0,1-9.21,2.38c-1.3-.63-2.53-1.68-4-1.59s-2.57,1.33-4,1.6c-1.85.36-3.61-1-4.71-2.54s-1.87-3.34-3.28-4.59c-1.85-1.64-4.44-2-6.78-2.85a19.13,19.13,0,0,1-10.8-26.79"/><path class="cls-5" d="M148.51,278.3a5.11,5.11,0,0,1,2.07-1.35h-.16a3.11,3.11,0,0,1,.44-.08,2.09,2.09,0,0,1,1.61.2h0a3.76,3.76,0,0,1,2.08,1.82,4.51,4.51,0,0,1-.53,4.65,3.45,3.45,0,0,1-6.33-1.19A4.3,4.3,0,0,1,148.51,278.3Z"/><path class="cls-6" d="M114.83,302.39l-2.54-46.62a4.22,4.22,0,0,1,3.64-4.38l22.16-6.27c7.12-1,12.13,7.7,12.78,14.86.73,8,1.31,17.7.53,23.67-1.56,12-11.4,13.83-11.4,13.83s-.07,3,0,7.36l-4.52,14.78Z"/><path class="cls-4" d="M147.79,270.15a1.54,1.54,0,0,1-1.44,1.59,1.47,1.47,0,0,1-1.62-1.33,1.53,1.53,0,0,1,1.43-1.59A1.48,1.48,0,0,1,147.79,270.15Z"/><path class="cls-4" d="M148.9,265.12c-.18.2-1.37-.63-3-.57s-2.83.91-3,.71.1-.45.61-.85a4.15,4.15,0,0,1,2.41-.82,4.06,4.06,0,0,1,2.41.7C148.81,264.67,149,265,148.9,265.12Z"/><path class="cls-4" d="M133.17,270.39a1.54,1.54,0,0,1-1.44,1.59,1.47,1.47,0,0,1-1.62-1.34,1.53,1.53,0,0,1,1.43-1.59A1.48,1.48,0,0,1,133.17,270.39Z"/><path class="cls-4" d="M132.69,265.88c-.18.21-1.37-.62-3-.57s-2.83.91-3,.72.09-.46.61-.86a4.22,4.22,0,0,1,2.41-.81,4,4,0,0,1,2.41.7C132.6,265.44,132.78,265.79,132.69,265.88Z"/><path class="cls-4" d="M139,278a11.14,11.14,0,0,1,2.66-.56c.42-.06.82-.15.88-.44a2.11,2.11,0,0,0-.31-1.24c-.43-1-.87-2.07-1.34-3.17-1.86-4.52-3.22-8.24-3-8.32s1.84,3.53,3.7,8l1.29,3.2a2.41,2.41,0,0,1,.26,1.64,1,1,0,0,1-.67.64,3,3,0,0,1-.72.12A10.72,10.72,0,0,1,139,278Z"/><path class="cls-7" d="M140,297.48a28.71,28.71,0,0,1-15.41-3.85s3.46,8.89,15.4,7.43Z"/><path class="cls-7" d="M138.89,281.88a4.05,4.05,0,0,0-3.39-1.68,2.63,2.63,0,0,0-2.13,1.24,2.42,2.42,0,0,0,2.82,3.56,6.22,6.22,0,0,0,2.38-1.57,2,2,0,0,0,.51-.64A.83.83,0,0,0,139,282"/><path class="cls-4" d="M134.21,279.23c.26,0,.32,1.77,1.89,3s3.47,1,3.49,1.23-.42.36-1.22.41a4.47,4.47,0,0,1-2.91-.93,3.92,3.92,0,0,1-1.48-2.51C133.89,279.67,134.08,279.22,134.21,279.23Z"/><path class="cls-4" d="M133.23,259.07c-.15.45-1.8.29-3.73.58s-3.48.86-3.75.46c-.12-.19.14-.62.76-1.07a6.58,6.58,0,0,1,5.7-.79C132.92,258.51,133.29,258.86,133.23,259.07Z"/><path class="cls-4" d="M148.16,259.45c-.28.39-1.43,0-2.8.05s-2.51.32-2.79-.06c-.12-.19.05-.57.54-.94a4.05,4.05,0,0,1,4.51,0C148.11,258.89,148.28,259.27,148.16,259.45Z"/><path class="cls-4" d="M158.93,257.47a8.16,8.16,0,0,0-3.15-4.52c-.86-.56-1.86-.91-2.66-1.55-1.73-1.4-2.13-3.82-3.2-5.77a9,9,0,0,0-6.88-4.56c-2.37-.25-4.81.46-7.12-.12-1.7-.43-3.19-1.54-4.92-1.86-3.37-.64-6.5,1.77-8.94,4.18,0,2.41,1.91,4,3.76,5.57a8.35,8.35,0,0,0,6.77,1.79c1.84-.34,3.85-1.27,5.44-.29s1.75,3.56,3.23,4.85c2.13,1.84,5.5.11,8.2.91,2.08.62,3.38,2.61,4.76,4.28s3.46,3.26,5.54,2.65A24.1,24.1,0,0,0,158.93,257.47Z"/><path class="cls-4" d="M133.64,247.28c-1.51-.43-4.59-1.41-5.4-2.72a9.24,9.24,0,0,0-8-4.61,7.62,7.62,0,0,0-6.86,6,11.12,11.12,0,0,0-10,7.47,8.36,8.36,0,0,0-.56,7c.53,1.36,1.42,2.88.71,4.16s-2.51,1.35-3.92,1.83a5.53,5.53,0,0,0-3.48,6.18,7,7,0,0,1,.44,2.72,6,6,0,0,1-1.63,2.35,6.89,6.89,0,0,0,4,11.21,9,9,0,0,1,3.16.72c1.07.66,1.54,1.94,2.29,2.94a5.94,5.94,0,0,0,6.43,2,6.08,6.08,0,0,0,1.3-.65,4.28,4.28,0,0,0,3.78,1.67l-.45-25.21a2.1,2.1,0,0,0,1.53,1.2c4,.91,4.64-7.42,3.74-9.68a23.43,23.43,0,0,0,4-4.27,17,17,0,0,0,1.87-8.18C128.1,249.52,134.31,247.47,133.64,247.28Z"/><path class="cls-6" d="M116.57,272.42c-.13-2.56-3.27-3.11-5.49-1.82-1.22.7-2.15,2.12-2,4.84.3,7.25,7.52,5.46,7.53,5.25S116.72,275.42,116.57,272.42Z"/><path class="cls-7" d="M114.24,278s-.13.09-.33.2a1.28,1.28,0,0,1-1,.06,3.13,3.13,0,0,1-1.56-2.75,4.13,4.13,0,0,1,.28-1.82,1.46,1.46,0,0,1,.91-1,.65.65,0,0,1,.76.32c.11.19.06.34.1.35s.15-.13.08-.42a.76.76,0,0,0-.3-.45,1,1,0,0,0-.71-.15,1.76,1.76,0,0,0-1.27,1.18,4.23,4.23,0,0,0-.36,2c.11,1.46.91,2.79,2,3.05a1.35,1.35,0,0,0,1.14-.24C114.23,278.21,114.26,278,114.24,278Z"/><path class="cls-5" d="M123.66,245.32a4.38,4.38,0,0,0-1.45,1.22,6.65,6.65,0,0,0-.53,5l0,.19-.18,0a7,7,0,0,0-4.68,4.12,5.33,5.33,0,0,0-.37,1.77,10.1,10.1,0,0,0,.22,1.92,13.46,13.46,0,0,1,.28,2.06,3.43,3.43,0,0,1-.57,2.14,8.86,8.86,0,0,1-3.6,2.7,12.31,12.31,0,0,0-3.37,2.21,9,9,0,0,0-2.71,6.08,9.52,9.52,0,0,0,1,4.48c.49,1,.89,1.46.85,1.49a1.65,1.65,0,0,1-.31-.32,7.44,7.44,0,0,1-.71-1.08,9.12,9.12,0,0,1-1.14-4.58,9.29,9.29,0,0,1,2.74-6.41,12.37,12.37,0,0,1,3.47-2.31,8.59,8.59,0,0,0,3.4-2.54c.8-1.1.44-2.54.23-3.84a11.25,11.25,0,0,1-.23-2,6,6,0,0,1,.43-1.94,7.37,7.37,0,0,1,5-4.31l-.14.23c-.43-2.24-.09-4.2.73-5.23a3,3,0,0,1,1.13-.92A2.23,2.23,0,0,1,123.66,245.32Z"/><path class="cls-5" d="M111.53,280.75a5.2,5.2,0,0,1,2.06-1.36h-.16a3.73,3.73,0,0,1,.44-.08,2.11,2.11,0,0,1,1.62.2h0a3.85,3.85,0,0,1,2.09,1.82A4.51,4.51,0,0,1,117,286a3.77,3.77,0,0,1-3.74,1.54,3.82,3.82,0,0,1-2.59-2.73A4.27,4.27,0,0,1,111.53,280.75Z"/><path class="cls-6" d="M222.44,310.11s5.69-7.82,7.7-8.05,14.58.23,16.34,0,11.71-4.65,11.71-4.65a2.28,2.28,0,0,1,1.55,2.29c-.22,1.66-11.27,7.94-12.59,8.17s-11.93,1.06-11.93,1.06L228.8,319Z"/><path class="cls-8" d="M223.14,307.62l-24,23.68L165,310a14.41,14.41,0,0,0-6.34-2.14l-13.4-1.38-5.38-5-4.37,14.42L114,299.29l-4,7.48-14.31,6.86L109.43,381s-.08,1.06-3,9.35c-.87,2.47-4.19,14.69-3.62,19.72l37.11.32,38.56-.19-6.95-23.29-4.1-18c1-22.05,1.57-25.59.5-31h0s22.41,13.14,33.48,14.41c1.72.19,6.53-2.11,8.79-4.78,9.08-10.68,24.66-29.85,24.66-29.85Z"/><path class="cls-8" d="M103.68,347.36l-5.81,21.45L137,389.64l-7.49,15.43L83.18,386.65a14,14,0,0,1-6.44-5c-1.84-2.68-3.23-5.91-1.4-11.87l10-37.42c.63-2.37,1.72-6.13,2.82-9.22a17.49,17.49,0,0,1,7.58-9.53"/><path class="cls-4" d="M95.72,313.63l-.47.31c-.3.21-.75.52-1.31,1a17.34,17.34,0,0,0-4.06,4.7c-1.42,2.31-2.33,5.51-3.44,9.17s-2.12,7.9-3.37,12.55-2.58,9.77-4,15.24q-1.08,4.11-2.25,8.49L75.6,369.5a20.77,20.77,0,0,0-.91,4.58,10.86,10.86,0,0,0,.67,4.67A14.31,14.31,0,0,0,78,382.89a13.88,13.88,0,0,0,4,3,25.56,25.56,0,0,0,2.39,1l2.45,1L107.17,396l22.42,8.92-.24.09,7.5-15.43.07.23L97.81,368.91l-.08-.05,0-.08,4.34-15.8c.51-1.83.9-3.23,1.16-4.19.14-.47.24-.82.31-1.07s.12-.37.12-.37l-.09.37c-.06.26-.15.62-.27,1.09-.26,1-.63,2.37-1.11,4.2-1,3.68-2.42,9-4.23,15.82l-.06-.12,39.17,20.77.15.08-.07.15-7.48,15.44-.08.15-.16-.06L107,396.33l-20.35-8.09-2.46-1c-.8-.33-1.63-.63-2.42-1a14.41,14.41,0,0,1-4.13-3.1,14.13,14.13,0,0,1-1.52-2A13.34,13.34,0,0,1,75,378.87a11.11,11.11,0,0,1-.68-4.82,20.42,20.42,0,0,1,.93-4.64L76.46,365c.78-2.92,1.53-5.74,2.27-8.48,1.46-5.47,2.83-10.57,4.08-15.22s2.33-8.88,3.43-12.55,2.06-6.86,3.51-9.18a17,17,0,0,1,4.14-4.69A12.3,12.3,0,0,1,95.72,313.63Z"/><path class="cls-6" d="M176.89,401.24l-11.14-5.34L144,394.18l-7.31-3.8-5,10.73s11.05,6.66,14,6.9l18.29-.55,9.56,1Z"/><path class="cls-4" d="M105.65,344.22c-.08,0,.25-1.44.39-3.78a28.85,28.85,0,0,0-.06-4.11,28.92,28.92,0,0,0-2.59-9.7,30,30,0,0,0-2-3.62c-1.29-2-2.29-3.07-2.23-3.12a5.94,5.94,0,0,1,.73.75c.22.24.49.55.78.93s.63.8,1,1.3a25.8,25.8,0,0,1,2.09,3.62,28.81,28.81,0,0,1,1.77,4.79,29.44,29.44,0,0,1,.85,5,25.91,25.91,0,0,1,0,4.16c0,.59-.12,1.12-.18,1.58a10.33,10.33,0,0,1-.22,1.19A4.36,4.36,0,0,1,105.65,344.22Z"/><path class="cls-4" d="M98.21,369c0,.06-.64-.06-1.65-.08a11.43,11.43,0,0,0-7.26,2.5c-.78.63-1.2,1.1-1.25,1.06a4.56,4.56,0,0,1,1.08-1.27,10,10,0,0,1,7.45-2.56A4.35,4.35,0,0,1,98.21,369Z"/><path class="cls-4" d="M162.48,322.5a7.48,7.48,0,0,1,.71,1l.36.55.38.69c.27.49.58,1.05.87,1.7.14.32.3.66.46,1l.43,1.12c.32.77.55,1.63.85,2.52a48.26,48.26,0,0,1,1.27,5.94,68.85,68.85,0,0,1,.65,11c0,1.42-.07,2.56-.12,3.34a8.11,8.11,0,0,1-.12,1.22,6.91,6.91,0,0,1,0-1.22c0-.79,0-1.93,0-3.34a81.17,81.17,0,0,0-.76-10.94,54,54,0,0,0-1.23-5.9c-.29-.88-.51-1.74-.81-2.51l-.41-1.12-.43-1c-.26-.65-.56-1.21-.81-1.71l-.34-.69-.33-.57A6.71,6.71,0,0,1,162.48,322.5Z"/><path class="cls-4" d="M135,317s-.11,0-.3-.12l-.82-.42a18.63,18.63,0,0,1-2.86-1.91l.2,0a46.45,46.45,0,0,0-4.57,9.16l-.1.29-.22-.22-2.93-2.93c-3.72-3.74-7.07-7.14-9.49-9.61l-2.84-3c-.31-.32-.56-.59-.76-.81a1.69,1.69,0,0,1-.25-.3,1.23,1.23,0,0,1,.31.24l.81.77,2.93,2.85c2.47,2.42,5.85,5.79,9.58,9.53l2.92,2.93-.32.08a43.36,43.36,0,0,1,4.71-9.18l.09-.12.11.1a19.73,19.73,0,0,0,2.76,2C134.59,316.76,135,317,135,317Z"/><path class="cls-4" d="M145,306.66a4.43,4.43,0,0,1,.07,1,18.38,18.38,0,0,1-.18,2.66,20.57,20.57,0,0,1-3.07,8.23l-.24.37-.15.24-.17-.24a30.66,30.66,0,0,1-3.65-6.57h.28c-.52,1.21-1,2.22-1.31,3a6.8,6.8,0,0,1-.55,1.09,6.07,6.07,0,0,1,.39-1.15c.31-.81.71-1.84,1.19-3.07l.13-.34.15.34a34.28,34.28,0,0,0,3.69,6.46h-.33c.08-.11.15-.23.23-.35a21.91,21.91,0,0,0,3.13-8.06C145,308.06,144.92,306.66,145,306.66Z"/><path class="cls-4" d="M150.33,382.24a5.34,5.34,0,0,1-.11-.67c-.06-.47-.14-1.12-.24-1.93-.21-1.71-.49-4.12-.84-7.09-.73-6-1.71-14.27-3.45-23.3-.89-4.51-1.91-8.77-3-12.61-.58-1.91-1.09-3.73-1.68-5.4-.28-.84-.54-1.65-.82-2.43s-.57-1.5-.83-2.21c-.51-1.42-1.07-2.66-1.53-3.77l-.64-1.53-.6-1.28c-.33-.74-.6-1.33-.8-1.76a5.14,5.14,0,0,1-.26-.63,3.94,3.94,0,0,1,.33.59l.88,1.74c.18.38.39.8.62,1.26s.44,1,.68,1.52c.48,1.1,1.05,2.34,1.58,3.76l.86,2.21c.29.77.55,1.59.85,2.42.6,1.68,1.13,3.5,1.71,5.41,1.1,3.84,2.13,8.11,3,12.63,1.75,9.06,2.68,17.35,3.34,23.35.32,3,.55,5.43.71,7.11.07.81.13,1.46.17,1.93A5.78,5.78,0,0,1,150.33,382.24Z"/><path class="cls-4" d="M161.18,373a8.74,8.74,0,0,1-1.21,0c-.77,0-1.89-.05-3.28-.11-2.77-.13-6.59-.4-10.79-.87s-8-1-10.73-1.52c-1.36-.24-2.47-.45-3.22-.61a6.29,6.29,0,0,1-1.17-.29,6.11,6.11,0,0,1,1.19.14l3.25.48c2.73.41,6.52.94,10.72,1.4s8,.78,10.77,1l3.27.24A6,6,0,0,1,161.18,373Z"/><path class="cls-4" d="M157.57,383.73a4.1,4.1,0,0,1-1-.31l-2.62-1c-2.2-.81-5.26-1.9-8.67-3s-6.52-2-8.78-2.68l-2.68-.77a4.48,4.48,0,0,1-1-.33,5.8,5.8,0,0,1,1,.18c.65.14,1.57.36,2.71.65,2.29.58,5.42,1.46,8.84,2.57s6.46,2.26,8.65,3.14c1.09.44,2,.81,2.57,1.08A6.19,6.19,0,0,1,157.57,383.73Z"/><path class="cls-4" d="M200.91,341.16a4.52,4.52,0,0,1-.76-1.32,15.13,15.13,0,0,1-1.11-3.49,15.55,15.55,0,0,1-.25-3.66,4.22,4.22,0,0,1,.23-1.5,39.82,39.82,0,0,0,.42,5.08A38.29,38.29,0,0,0,200.91,341.16Z"/><path class="cls-2" d="M237.19,357.39l-62.72.51c-2,0-4,1-4.28,3l-6.85,45.7H131a1.89,1.89,0,0,0,0,3.77H234.2l7.05-48.24A4.11,4.11,0,0,0,237.19,357.39Z"/><path class="cls-4" d="M237.28,357.39a3.1,3.1,0,0,1,1,.09,4.17,4.17,0,0,1,3.17,3.59,11.82,11.82,0,0,1-.23,2.58c-.26,1.85-.57,4-.91,6.37-1.38,9.58-3.37,23.39-5.81,40.37l0,.16h-.16l-100.09.06h-2.7a2.53,2.53,0,0,1-1.42-.27,2.11,2.11,0,0,1-1-1.13,2.15,2.15,0,0,1,1-2.6,2.58,2.58,0,0,1,1.41-.27h31.92l-.24.21c2.47-16.37,4.77-31.64,6.83-45.34a3.57,3.57,0,0,1,1.16-2.39,4.74,4.74,0,0,1,2.4-1.06,21.7,21.7,0,0,1,2.53-.09h2.46l9.44-.07,16.78-.1,23.89-.13h8c.37,0,.56,0,.56,0l-.56,0-1.65,0-6.39.09-23.89.27L188,358l-9.44.09-2.46,0a18.36,18.36,0,0,0-2.47.09,4.19,4.19,0,0,0-2.18,1,3.07,3.07,0,0,0-1,2.14c-2.05,13.7-4.33,29-6.77,45.35l0,.21H131.51a2,2,0,0,0-1.17.2,1.63,1.63,0,0,0,0,2.85,2.16,2.16,0,0,0,1.18.21h2.7l100.09.06-.19.16c2.51-17,4.56-30.77,6-40.35.36-2.38.68-4.51.95-6.35a12,12,0,0,0,.26-2.55,4,4,0,0,0-.73-1.95,4.09,4.09,0,0,0-2.32-1.59A5.8,5.8,0,0,0,237.28,357.39Z"/><path class="cls-4" d="M166,409.94c.09,0,2.09-11.63,4.46-26s4.22-26,4.14-26.05-2.09,11.62-4.46,26S165.88,409.92,166,409.94Z"/><circle class="cls-2" cx="203.73" cy="384.77" r="3.93"/></g><g id="Speech_Bubble_2" data-name="Speech Bubble 2"><path class="cls-2" d="M333.14,179.55H234a8.11,8.11,0,0,0-8.11,8.11v80.75a8.12,8.12,0,0,0,8.11,8.11h12.77v16.65l16.69-16.65h69.68a8.12,8.12,0,0,0,8.11-8.11V187.66A8.11,8.11,0,0,0,333.14,179.55Z"/><path class="cls-4" d="M333.14,179.55l.87,0a8.6,8.6,0,0,1,2.47.66,8.12,8.12,0,0,1,3.24,2.61,8.4,8.4,0,0,1,1.22,2.39,9.61,9.61,0,0,1,.38,3c0,8.65,0,21.21.05,36.91,0,7.86,0,16.49,0,25.82,0,4.66,0,9.5,0,14.49v1.88c0,.63,0,1.26-.05,1.91a8.44,8.44,0,0,1-1.3,3.65,8.6,8.6,0,0,1-2.87,2.69,8.31,8.31,0,0,1-3.85,1.05l-69.88,0,.14,0-16.69,16.66-.34.34V276.52l.2.2H234.61a8.62,8.62,0,0,1-5.35-1.49,8.33,8.33,0,0,1-3.23-4.48,8.93,8.93,0,0,1-.34-2.76V249.16c0-14.13,0-27.77,0-40.76,0-6.49,0-12.83,0-19,0-.78,0-1.53,0-2.31a7.6,7.6,0,0,1,.48-2.27,8.29,8.29,0,0,1,6.8-5.39,20.66,20.66,0,0,1,2.21-.06h2.18l32.13,0,46.53.07,12.66,0,3.29,0,1.12,0s-.38,0-1.12,0l-3.29,0-12.66,0-46.53.07-32.13,0h-2.18c-.73,0-1.46,0-2.17.06a7.94,7.94,0,0,0-4,1.65,7.79,7.79,0,0,0-2.55,3.53,11.82,11.82,0,0,0-.49,4.46c0,6.15,0,12.49,0,19,0,13,0,26.63,0,40.76v10.7c0,1.79,0,3.6,0,5.41V268a8.72,8.72,0,0,0,.32,2.65,8,8,0,0,0,3.07,4.26,8.27,8.27,0,0,0,5.13,1.42H247v16.86l-.34-.15,16.69-16.65.06-.06h69.95a7.93,7.93,0,0,0,3.69-1,7.91,7.91,0,0,0,4-6.07c.05-.62.06-1.25.05-1.88V265.5c0-5,0-9.83,0-14.49,0-9.32,0-18,0-25.82,0-15.7,0-28.26.05-36.91a9.06,9.06,0,0,0-.35-3,7.81,7.81,0,0,0-1.19-2.36,8,8,0,0,0-3.18-2.61A8.69,8.69,0,0,0,333.14,179.55Z"/><path class="cls-9" d="M269.51,201.17A30.91,30.91,0,0,1,277,198l1.55-7.34,12.59-.21,1.81,7.27a31.25,31.25,0,0,1,7.64,3l6.36-4.11,9.06,8.61-3.94,6.4a30.89,30.89,0,0,1,3.27,7.41l7.45,1.53.22,12.39-7.39,1.78a29.8,29.8,0,0,1-3,7.52l4.17,6.26-8.74,8.91-6.51-3.88a30.91,30.91,0,0,1-7.52,3.22L292.48,264l-12.58.22L278.09,257a31.25,31.25,0,0,1-7.64-3l-6.36,4.1-9.06-8.6,3.94-6.41a29.89,29.89,0,0,1-3.27-7.4l-7.45-1.53L248,221.76l7.39-1.78a29.8,29.8,0,0,1,3-7.52l-4.17-6.26,8.74-8.92,6.51,3.89Zm8,15.34a13.17,13.17,0,0,0,.38,21.08,13.67,13.67,0,0,0,16.46-.29,13.17,13.17,0,0,0-.39-21.09A13.67,13.67,0,0,0,277.51,216.51Z"/><path class="cls-5" d="M294.69,267.28H278.2a1.82,1.82,0,0,1-1.77-1.46l-1-5.08a1,1,0,0,0-.65-.77l-3.75-1.42a1.09,1.09,0,0,0-.93.1l-4.27,2.79a1.81,1.81,0,0,1-2.18-.17L251.5,250.34a1.79,1.79,0,0,1-.39-2.18l2.78-5.24a1,1,0,0,0,.06-.82l-1.2-3.37a1,1,0,0,0-.69-.64l-6.81-1.92a1.79,1.79,0,0,1-1.3-1.69l-.25-12.2.77,0,.24,12.2a1,1,0,0,0,.75,1l6.81,1.92a1.83,1.83,0,0,1,1.2,1.13l1.2,3.36a1.81,1.81,0,0,1-.1,1.44l-2.78,5.24a1,1,0,0,0,.22,1.25l12.18,10.93a1,1,0,0,0,1.25.09l4.27-2.78a1.82,1.82,0,0,1,1.62-.18l3.75,1.42a1.81,1.81,0,0,1,1.13,1.34l1,5.08a1,1,0,0,0,1,.84h16.49v.77Z"/><circle class="cls-2" cx="244.08" cy="223.88" r="1.6"/><path class="cls-5" d="M244.08,225.86a2,2,0,1,1,2-2A2,2,0,0,1,244.08,225.86Zm0-3.2a1.22,1.22,0,1,0,1.22,1.21A1.22,1.22,0,0,0,244.08,222.66Z"/><circle class="cls-2" cx="294.03" cy="267.49" r="1.6"/><path class="cls-5" d="M294,269.47a2,2,0,1,1,2-2A2,2,0,0,1,294,269.47Zm0-3.2a1.22,1.22,0,1,0,1.22,1.22A1.22,1.22,0,0,0,294,266.27Z"/><path class="cls-5" d="M295.77,263.39l-.76-.13.48-2.65a2.33,2.33,0,0,1,1.43-1.75l3.85-1.58a2.37,2.37,0,0,1,2.09.16l5,3a1.56,1.56,0,0,0,1.95-.26l9.33-9.7a1.57,1.57,0,0,0,.18-2l-3.4-5.14a2.33,2.33,0,0,1-.22-2.17l1.16-2.89a2.32,2.32,0,0,1,1.68-1.42l5.62-1.23a1.59,1.59,0,0,0,1.24-1.55V220.49a1.57,1.57,0,0,0-1.19-1.53l-6.15-1.57a2.35,2.35,0,0,1-1.59-1.37l-1.23-3a2.38,2.38,0,0,1,.16-2.11l3-5a1.56,1.56,0,0,0-.27-1.95L308,194.33a1.58,1.58,0,0,0-1.95-.19l-4.8,3.07a2.33,2.33,0,0,1-2.23.16l-3.17-1.43a2.36,2.36,0,0,1-1.32-1.58l-1.27-5.27a1.59,1.59,0,0,0-1.54-1.21h-13.5v-.76h13.5a2.32,2.32,0,0,1,2.28,1.79l1.28,5.26a1.59,1.59,0,0,0,.89,1.07l3.17,1.43a1.57,1.57,0,0,0,1.5-.11l4.8-3.07a2.34,2.34,0,0,1,2.89.28l10.11,9.66a2.35,2.35,0,0,1,.4,2.91l-3,5a1.58,1.58,0,0,0-.11,1.42l1.23,3a1.58,1.58,0,0,0,1.07.93l6.15,1.56a2.35,2.35,0,0,1,1.77,2.28v13.62a2.36,2.36,0,0,1-1.84,2.3l-5.63,1.22a1.61,1.61,0,0,0-1.13,1l-1.16,2.89a1.58,1.58,0,0,0,.15,1.46l3.4,5.14a2.33,2.33,0,0,1-.27,2.92l-9.32,9.7a2.35,2.35,0,0,1-2.9.39l-5-3a1.56,1.56,0,0,0-1.41-.11l-3.85,1.57a1.6,1.6,0,0,0-1,1.18Z"/><circle class="cls-2" cx="278.83" cy="187.9" r="1.6"/><path class="cls-5" d="M278.83,189.88a2,2,0,1,1,2-2A2,2,0,0,1,278.83,189.88Zm0-3.2a1.22,1.22,0,1,0,1.22,1.22A1.22,1.22,0,0,0,278.83,186.68Z"/><path class="cls-5" d="M253.76,218.19a.4.4,0,0,1-.38-.4c0-.12,0-.32,1.67-4.38a1.59,1.59,0,0,0-.14-1.45l-3.39-5.21a2.34,2.34,0,0,1,.26-2.88l9-9.53a2.33,2.33,0,0,1,2.95-.37l5,3.19a1.56,1.56,0,0,0,1.38.15l4-1.46a1.55,1.55,0,0,0,1-1.06l1.06-3.89a.37.37,0,0,1,.47-.27.39.39,0,0,1,.27.47L275.91,195a2.31,2.31,0,0,1-1.46,1.58l-4,1.46a2.36,2.36,0,0,1-2.05-.22l-5-3.19a1.58,1.58,0,0,0-2,.24l-9,9.54a1.57,1.57,0,0,0-.18,1.93l3.39,5.21a2.34,2.34,0,0,1,.21,2.16c-1.14,2.77-1.59,4-1.62,4.13A.36.36,0,0,1,253.76,218.19Z"/><path class="cls-5" d="M285.93,237.62a10.41,10.41,0,1,1,4.07-20,.37.37,0,0,1,.2.5.38.38,0,0,1-.5.21,9.52,9.52,0,0,0-3.77-.77,9.64,9.64,0,1,0,7.44,3.51.38.38,0,1,1,.59-.49,10.41,10.41,0,0,1-8,17Z"/><circle class="cls-2" cx="290.31" cy="218.48" r="1.6"/><path class="cls-5" d="M290.31,220.47a2,2,0,1,1,2-2A2,2,0,0,1,290.31,220.47Zm0-3.21a1.22,1.22,0,1,0,1.22,1.22A1.22,1.22,0,0,0,290.31,217.26Z"/></g><g id="Character_2" data-name="Character 2"><path class="cls-2" d="M536.65,275.41H382c-5.36,0-9.7-5-9.7-11.21V137.25c0-6.19,4.34-11.21,9.7-11.21H536.65c5.36,0,9.71,5,9.71,11.21v127C546.35,270.39,542,275.41,536.65,275.41Z"/><path class="cls-2" d="M546.58,152.15H373V135.24a9.25,9.25,0,0,1,9.25-9.24H536.39a10.19,10.19,0,0,1,10.19,10.19v16Z"/><path class="cls-2" d="M386.28,138.27a2.93,2.93,0,1,1-2.93-3A2.95,2.95,0,0,1,386.28,138.27Z"/><path class="cls-2" d="M395.1,138.27a2.93,2.93,0,1,1-2.93-3A2.95,2.95,0,0,1,395.1,138.27Z"/><path class="cls-2" d="M403.92,138.27a2.93,2.93,0,1,1-2.93-3A2.95,2.95,0,0,1,403.92,138.27Z"/><path class="cls-4" d="M536.88,275.37l.41,0a6.88,6.88,0,0,0,1.19-.15,8.93,8.93,0,0,0,4.19-2.1,11.38,11.38,0,0,0,3.66-6.66,29.41,29.41,0,0,0,.19-5c0-1.78,0-3.67,0-5.67,0-16,0-39.21-.06-67.86,0-14.32,0-30,0-46.86,0-1.05,0-2.11,0-3.17a15.05,15.05,0,0,0-.24-3.15,11.53,11.53,0,0,0-2.81-5.63,9,9,0,0,0-5.55-2.91c-1.06-.09-2.18,0-3.27,0H381.94a13.08,13.08,0,0,0-2,.09,6.32,6.32,0,0,0-1,.21c-.16.05-.32.09-.47.15l-.46.19a8.18,8.18,0,0,0-3.1,2.4,10.14,10.14,0,0,0-1.82,3.51,12.19,12.19,0,0,0-.45,3.95v16.09q0,16,0,31.44c0,20.62,0,40.5,0,59.44v14c0,2.31,0,4.61,0,6.87a11.94,11.94,0,0,0,.55,3.3,10.9,10.9,0,0,0,1.4,3,10.59,10.59,0,0,0,2.19,2.43,9.51,9.51,0,0,0,2.84,1.52,10.48,10.48,0,0,0,1.57.35c.53,0,1.06.07,1.61.06h16l46.35,0,67.13.06,18.25,0,4.74,0,1.62,0s-.55,0-1.62,0l-4.74,0-18.25,0-67.13.06-46.35,0h-16c-.54,0-1.1,0-1.65-.06a10.09,10.09,0,0,1-1.63-.36,9.31,9.31,0,0,1-2.94-1.58,10.42,10.42,0,0,1-2.27-2.5A11.44,11.44,0,0,1,372.9,268a12.46,12.46,0,0,1-.56-3.39c0-2.28,0-4.57,0-6.88v-14c0-18.95,0-38.83,0-59.45,0-10.3,0-20.8,0-31.44V136.7a13.07,13.07,0,0,1,.47-4.07,10.3,10.3,0,0,1,1.89-3.64,8.46,8.46,0,0,1,3.25-2.52l.47-.2.5-.15a7,7,0,0,1,1-.22,12.89,12.89,0,0,1,2.05-.09h152.6c1.11,0,2.19,0,3.31.06a9.32,9.32,0,0,1,5.76,3,11.78,11.78,0,0,1,2.88,5.78,15.26,15.26,0,0,1,.25,3.22v3.17c0,16.85,0,32.54,0,46.86,0,28.65-.05,51.83-.06,67.86,0,2,0,3.9,0,5.67a29.61,29.61,0,0,1-.21,5,11.45,11.45,0,0,1-3.72,6.7,8.85,8.85,0,0,1-4.23,2.08,6.62,6.62,0,0,1-1.2.13Z"/><path class="cls-10" d="M355.11,233.76c-3.15-.35-6.69-.6-6.69-.6l-3.13-.39a4.31,4.31,0,0,0,.19.61,2.24,2.24,0,0,1,.25,1.15c-.1.75-.91,1.2-1.66,1.34a4.61,4.61,0,0,1-4.29-1.54A4.55,4.55,0,0,1,339,230a3.34,3.34,0,0,1-.28-1.27c-.08-3,3.43-5.45,3.43-5.45l-1.07-.29s-3.42.47-5.22,5.92a3.49,3.49,0,0,1-1.55,2,1.79,1.79,0,0,1-1.51.22c-1.32-.47-1.32-1.52-.25-4.94s3.25-6.36,5.52-7.16a25.34,25.34,0,0,1,3.22-1s-9.56-3.17-10.15-3.4c-1.73-.65-2.88-2-2.55-3.15.21-.76,1-1.57,3.07-.88,1.76.61,20.59,4.49,20.59,4.49l8.23,2.21,6.48,2.92-4.54,11.37-.75.5A9.89,9.89,0,0,1,355.11,233.76Z"/><path class="cls-10" d="M359.28,218.69a2.67,2.67,0,0,1-2.24,2.09c-1.07.23-2.19.1-3.28.26-3.24.47-5.75,3.44-9,3.76-.45,0-1-.05-1.16-.48s.21-.78.53-1.07q4-3.62,8.09-7.24"/><path class="cls-11" d="M352.2,216a4.93,4.93,0,0,0-.95.7c-.59.47-1.43,1.18-2.45,2.06l-3.59,3.12-1,.91c-.3.31-.84.58-.93,1.32a.92.92,0,0,0,.56.86,2,2,0,0,0,.88.13,7.56,7.56,0,0,0,1.57-.33c2.05-.69,3.62-1.94,5.2-2.69a8.07,8.07,0,0,1,2.32-.79c.75-.12,1.49-.11,2.18-.17a3.83,3.83,0,0,0,3-1.31c.48-.66.38-1.15.36-1.13a3.38,3.38,0,0,1-.54,1,3.74,3.74,0,0,1-2.8,1c-.67,0-1.41,0-2.24.09a8.66,8.66,0,0,0-2.49.79c-1.65.76-3.25,2-5.14,2.61a6.7,6.7,0,0,1-1.42.31c-.45,0-.84-.12-.8-.36s.38-.6.73-.91l1-.92,3.5-3.22c1-.92,1.78-1.67,2.32-2.21S352.23,216.05,352.2,216Z"/><path class="cls-11" d="M342.25,223.21a4.54,4.54,0,0,0-2.05,0,3.43,3.43,0,0,0-1.78,1.24,8.7,8.7,0,0,0-1.27,2.43,14.11,14.11,0,0,1-1.17,2.6,4.51,4.51,0,0,1-1.7,1.65,1.78,1.78,0,0,1-1.59.06c-.35-.18-.48-.35-.46-.36s.18.09.52.21a1.65,1.65,0,0,0,1.4-.16,4.39,4.39,0,0,0,1.51-1.59,16,16,0,0,0,1.12-2.55,8.55,8.55,0,0,1,1.35-2.52,3.68,3.68,0,0,1,2-1.29,3.28,3.28,0,0,1,1.59,0C342.08,223.07,342.26,223.19,342.25,223.21Z"/><path class="cls-11" d="M330.48,214.42a12.57,12.57,0,0,1,1.9.62l4.54,1.61,4.57,1.53a10.53,10.53,0,0,1,1.88.69,9.37,9.37,0,0,1-2-.42c-1.2-.32-2.83-.81-4.62-1.43s-3.38-1.23-4.51-1.72A8.27,8.27,0,0,1,330.48,214.42Z"/><path class="cls-11" d="M343.65,226.08s-.14.19-.41.48a1.85,1.85,0,0,0-.58,1.43,1,1,0,0,0,.62.76,5.24,5.24,0,0,0,1.26.34,2.17,2.17,0,0,1,1.41.73,1.86,1.86,0,0,1,.25,1.7,2.16,2.16,0,0,1-1.16,1.26,2.71,2.71,0,0,1-1.57.25,8.48,8.48,0,0,1-2.43-.87,5.27,5.27,0,0,1-1.4-1,1.27,1.27,0,0,1-.33-.55s.15.18.44.44a6.12,6.12,0,0,0,1.42.87,9.54,9.54,0,0,0,2.35.76,2.16,2.16,0,0,0,2.3-1.27,1.55,1.55,0,0,0-.18-1.35,1.93,1.93,0,0,0-1.18-.61,5.37,5.37,0,0,1-1.33-.39,1.28,1.28,0,0,1-.75-1,1.94,1.94,0,0,1,.75-1.58C343.44,226.18,343.63,226.06,343.65,226.08Z"/><path class="cls-11" d="M344.8,232.53s.23,0,.52.24a1.71,1.71,0,0,1,.6,1.43,2.35,2.35,0,0,1-1.37,1.86,3.85,3.85,0,0,1-2.84.07,4.6,4.6,0,0,1-2.26-1.68,4.3,4.3,0,0,1-.77-2.15,4,4,0,0,1,.16-1.53,1.34,1.34,0,0,1,.24-.52,7.65,7.65,0,0,0-.12,2,4.22,4.22,0,0,0,2.88,3.49,3.6,3.6,0,0,0,2.55,0,2.08,2.08,0,0,0,1.25-1.56,1.66,1.66,0,0,0-.42-1.29C345,232.63,344.79,232.56,344.8,232.53Z"/><path class="cls-11" d="M353.46,228.17s0-.37.33-.9a3.84,3.84,0,0,1,1.89-1.57l0,.35a10.91,10.91,0,0,1-1.2-.64,8.55,8.55,0,0,1-3.29-3.31,22.06,22.06,0,0,0,3.51,3,11.22,11.22,0,0,0,1.15.64l.41.2-.43.15A4,4,0,0,0,354,227.4C353.64,227.86,353.51,228.19,353.46,228.17Z"/><path class="cls-11" d="M337.18,222.82c.07-.07.63.53.7,1.48s-.39,1.63-.47,1.57.14-.71.07-1.54S337.08,222.89,337.18,222.82Z"/><path class="cls-12" d="M438.17,204.62S417.81,239.4,411,242.79s-31.31-1.56-37-2.86c-6.47-1.47-14.73-4.06-14.73-4.06l2.41-19.31,5.34.11s30.24,3.06,32,1.68,13.4-23.66,13.4-23.66,7.31-14.76,9.93-18.14c3.85-5,7-5,7-5Z"/><path class="cls-12" d="M413.7,275.15c.54-27.6,3-83.7,3-83.7l12.68-19.86a57.27,57.27,0,0,1,8.77-1.69c4.86-.54,5.68-1,5.68-1l3.54-5.56,29.11-1.7,4.45,8.25s18.22,9.49,20.65,10.83-13.39,66.78-13.39,66.78l3.05,27.65Z"/><path class="cls-4" d="M439,275.15c.11-4.84.36-10.6.7-17s.89-13.42,1.61-20.77S443,223,444,216.7s2.1-12,3.22-16.71l.77-3.37c.28-1.06.54-2.06.79-3,.49-1.86.91-3.47,1.32-4.76l.9-3c.09-.32.16-.58.22-.78a1.62,1.62,0,0,0,.06-.28,1.28,1.28,0,0,0-.12.26l-.27.77-1,3c-.46,1.28-.91,2.88-1.42,4.74-.26.94-.54,1.93-.84,3s-.53,2.19-.81,3.37c-1.18,4.72-2.26,10.4-3.34,16.73s-1.93,13.33-2.69,20.7-1.22,14.39-1.57,20.8-.52,12.17-.58,17"/><path class="cls-4" d="M416.72,191.45a12.19,12.19,0,0,0-.18,1.89c-.08,1.21-.16,3-.25,5.15-.18,4.35-.33,10.36-.5,17s-.4,12.65-.61,17c-.11,2.1-.19,3.84-.26,5.14a11.5,11.5,0,0,0,0,1.9,15.31,15.31,0,0,0,.25-1.88c.13-1.21.28-3,.43-5.14.32-4.34.61-10.35.78-17s.26-12.65.33-17c0-2.11.06-3.85.08-5.15A12.35,12.35,0,0,0,416.72,191.45Z"/><g class="cls-13"><path d="M417.73,238.78a5.23,5.23,0,0,1,3.2-3.86,14,14,0,0,1,5.14-1A90.73,90.73,0,0,1,489,255.61l.89,6.17c-5.54,2.34-12,.73-17.45-1.71s-10.71-5.74-16.62-6.88c-5.12-1-10.64-.33-15.37-2.51-3-1.38-5.43-3.82-8.56-4.83-2.79-.9-5.84-.57-8.7-1.22S417.37,241.67,417.73,238.78Z"/></g><path class="cls-12" d="M501.6,180.72a23.09,23.09,0,0,1,11.56,15.51c1.53,6.81,6,25.54,6,25.54s4.83,22.35,4.14,26.68-2.14,14-11.57,15.15-42.24-10.81-42.24-10.81l-9-3.65L464,232.72l15.41,3.87,15.08,1.2-2-13.65-3.34-8.77s.19-9.56,3.87-17.54S501.6,180.72,501.6,180.72Z"/><path class="cls-5" d="M445.36,224.89l-11.91-24a4.8,4.8,0,0,0-4.32-2.67H399.22a1.46,1.46,0,0,0-1.3,2.14l20.25,37.49a3.27,3.27,0,0,0,2.88,1.71h31Z"/><path class="cls-4" d="M398.12,200.49a3.56,3.56,0,0,0,.6,0l1.71,0h6.3l20.77-.17a6,6,0,0,1,2.76.66,5.17,5.17,0,0,1,1.84,2c.87,1.65,1.6,3.36,2.36,4.93,1.48,3.14,2.83,6,4,8.39l2.72,5.63.76,1.52a2.79,2.79,0,0,0,.3.52,2.13,2.13,0,0,0-.2-.56c-.17-.42-.39-.94-.67-1.57l-2.55-5.71c-1.11-2.42-2.42-5.28-3.86-8.44-.75-1.58-1.45-3.25-2.35-5a5.72,5.72,0,0,0-2-2.23,6.5,6.5,0,0,0-3-.74c-8.15,0-15.48.23-20.8.34l-6.3.17-1.71.08A2.08,2.08,0,0,0,398.12,200.49Z"/><path class="cls-2" d="M416.55,205.76a1,1,0,0,0-.45,1.48,1.43,1.43,0,0,0,1.59.6,1.1,1.1,0,0,0,.82-.79,1.36,1.36,0,0,0-.91-1.37A2.15,2.15,0,0,0,416.55,205.76Z"/><path class="cls-10" d="M463.64,234.17l-2.06-2.1s-3-4.37-4.27-5.74-8.67-6.14-8.67-6.14-3.58-4.82-4.14-4.82-2.29.31-1.82,2.55a34.83,34.83,0,0,0,2,6.46l-15.88.34a3.36,3.36,0,0,0-2.58,1.23c-.42.52-.59,1.1.15,1.47a77.17,77.17,0,0,0,8.4,2.46l-3-.77s-.65,2.86,1.26,4.21a10.59,10.59,0,0,1,2,1.61s.09,2.7.92,3.8,9.77,5.65,9.77,5.65,5.72,1.68,8.61,1.54,5.86,1.49,6.19,1.58S463.64,234.17,463.64,234.17Z"/><path class="cls-11" d="M443.12,224.45a35.06,35.06,0,0,0,4.46.49c2.45.27,4.48.39,4.49.22a19.47,19.47,0,0,0-4.44-.77A12.81,12.81,0,0,0,443.12,224.45Z"/><path class="cls-11" d="M445.24,231.44c.05-.17-2.85-1-6.49-1.37-1.82-.23-3.46-.39-4.65-.52a8.33,8.33,0,0,0-1.93-.15,5.6,5.6,0,0,0,1.87.54c1.19.23,2.83.45,4.64.68C442.31,231,445.2,231.56,445.24,231.44Z"/><path class="cls-11" d="M445.24,236.59c0-.17-2.32-.24-5.11-.72s-5-1.16-5.06-1a13.88,13.88,0,0,0,5,1.56A14.12,14.12,0,0,0,445.24,236.59Z"/><path class="cls-11" d="M444.28,242.36c.15,0,.38-.59.51-1.38s.12-1.45,0-1.47-.38.59-.51,1.38S444.13,242.34,444.28,242.36Z"/><path class="cls-11" d="M445.7,235.45c.16,0,.24-.53.52-1.07s.61-.92.52-1.06-.69.13-1,.82S445.55,235.48,445.7,235.45Z"/><path class="cls-11" d="M447.51,228.53c.16,0,.32-.31.52-.69s.35-.7.24-.82-.51.1-.75.57S447.36,228.52,447.51,228.53Z"/><path class="cls-4" d="M451.26,184.81a5.64,5.64,0,0,0,.9-.52l2.51-1.49c1.07-.63,2.38-1.39,3.84-2.29a36.57,36.57,0,0,0,4.71-3.28l-.41-.07a15.36,15.36,0,0,1,1.69,7.61v0l0,.63.48-.4c4.67-4,8.86-7.59,11.77-10.34,1.45-1.38,2.61-2.52,3.38-3.33a10.16,10.16,0,0,0,1.15-1.3,10.16,10.16,0,0,0-1.3,1.15l-3.5,3.19c-3,2.68-7.2,6.25-11.87,10.2l.47.23v0a15.58,15.58,0,0,0-1.79-7.87l-.15-.29-.26.22a37.08,37.08,0,0,1-4.59,3.29l-3.77,2.39c-1.06.67-1.88,1.22-2.43,1.62A3.85,3.85,0,0,0,451.26,184.81Z"/><path class="cls-4" d="M443.85,168.9a5.6,5.6,0,0,0-.61,1.15c-.34.77-.81,1.88-1.35,3.28s-1.15,3.07-1.72,5c-.14.47-.28,1-.39,1.48a3,3,0,0,0-.07.89.4.4,0,0,0,.46.31.38.38,0,0,0,.24-.14l.07-.08.24-.32,2.06-2.64,2.65-3.43-.46,0c1.66,3.11,3.17,5.77,4.31,7.62.57.93,1.05,1.65,1.39,2.14s.56.73.59.71a3.76,3.76,0,0,0-.43-.81l-1.25-2.21c-1.06-1.89-2.5-4.58-4.13-7.7l-.19-.37-.26.34-2.66,3.4-2,2.63-.24.32-.07.08.1.1h0l.14,0a3.53,3.53,0,0,1,.07-.66c.1-.49.22-1,.36-1.45.54-1.89,1.11-3.57,1.6-5s.86-2.44,1.18-3.33A6.42,6.42,0,0,0,443.85,168.9Z"/><path class="cls-4" d="M513.57,236.26a10.3,10.3,0,0,0-2.76-.73,28.08,28.08,0,0,0-6.9-.31,27.62,27.62,0,0,0-6.77,1.4,10,10,0,0,0-2.61,1.16,26,26,0,0,0,2.73-.79,34.14,34.14,0,0,1,13.49-1.07A25.87,25.87,0,0,0,513.57,236.26Z"/><path class="cls-4" d="M504.05,232.18a15.4,15.4,0,0,0-9.82,5.36c.12.12,1.94-1.64,4.67-3.11S504.09,232.35,504.05,232.18Z"/><path class="cls-4" d="M491.17,216.07a1.81,1.81,0,0,0,0,.38c0,.29.08.66.14,1.12l.59,4.27c.54,3.74,1.32,9,2.26,15.54v0c0,.13,0,.29,0,.45l.24-.24-16.16-1.51h0L464,232.45l-.29-.07-.06.28c-.27,1.3-.56,2.69-.86,4.09-.89,4.25-1.75,8.39-2.58,12.33l-.05.22.22.09a254.09,254.09,0,0,0,30.2,10.32c3.85,1,6.95,1.77,9.08,2.25l2.46.53.64.13a.72.72,0,0,0,.22,0l-.21-.07-.63-.17-2.43-.62c-2.12-.54-5.2-1.33-9-2.41a272.76,272.76,0,0,1-30.09-10.48l.16.3c.83-3.94,1.7-8.08,2.6-12.33l.85-4.09-.34.22,14.33,3.59h0L494.42,238l.26,0,0-.25c0-.16,0-.32,0-.45h0c-1-6.47-1.87-11.77-2.46-15.5-.3-1.81-.54-3.24-.71-4.26-.08-.46-.14-.82-.2-1.11S491.19,216.07,491.17,216.07Z"/><path class="cls-4" d="M490.1,199.94a25.39,25.39,0,0,0,.69-2.74,32.71,32.71,0,0,1,2.38-6.33,33.07,33.07,0,0,1,3.67-5.7,26.66,26.66,0,0,0,1.79-2.2,10,10,0,0,0-2.09,1.94,26.5,26.5,0,0,0-6.13,12.2A9.31,9.31,0,0,0,490.1,199.94Z"/><g class="cls-13"><path d="M489.55,205.51c1.3,7,2.23,14.94,3.35,22-.26.33-.12,1.38-.39,1.71a86.86,86.86,0,0,1-3.76-11.72A27.59,27.59,0,0,1,489.55,205.51Z"/></g><g class="cls-13"><path d="M461.77,183l-9.7,1.33a69.26,69.26,0,0,0,11-7.3c1.21,2.83,1.89,3.86,1.69,8,4.69-3.92,9.15-8.38,13.84-12.3A81.69,81.69,0,0,1,461,191.26,30.92,30.92,0,0,0,461.77,183Z"/></g><path class="cls-4" d="M466.45,99.07a5.2,5.2,0,0,0-5.3-2.81,7.17,7.17,0,0,0-8.76-.14,6.49,6.49,0,0,0-6.22-.33,6.39,6.39,0,0,0-3.49,5.13,5.42,5.42,0,0,0-5.61,2.57,5.35,5.35,0,0,0,.69,6.09,5,5,0,0,0,1.79,9.86l25.75-14.52A5.13,5.13,0,0,0,466.45,99.07Z"/><path class="cls-10" d="M436.27,147.32c.13-5.53,1.32-16.91,2.52-27.2a21.48,21.48,0,0,1,22.15-18.89l1.12,0c12,1.11,17.75,11.84,16.29,23.7L475,162.36,451.76,183.3l-5.06-14.8.81-7.53S436,158.79,436.27,147.32Z"/><path class="cls-11" d="M447.41,161a28.33,28.33,0,0,0,15.3-3.87s-3.86,8.12-15.35,6.69Z"/><path class="cls-4" d="M442.16,130.94a1.65,1.65,0,0,0,1.53,1.71,1.58,1.58,0,0,0,1.76-1.42,1.65,1.65,0,0,0-1.53-1.71A1.58,1.58,0,0,0,442.16,130.94Z"/><path class="cls-4" d="M441.08,125.81c.19.22,1.48-.65,3.25-.59s3.05,1,3.25.78-.1-.48-.65-.91a4.52,4.52,0,0,0-2.59-.89,4.42,4.42,0,0,0-2.6.73C441.18,125.33,441,125.71,441.08,125.81Z"/><path class="cls-4" d="M457.82,131.65a1.64,1.64,0,0,0,1.53,1.7,1.57,1.57,0,0,0,1.75-1.41,1.64,1.64,0,0,0-1.53-1.71A1.57,1.57,0,0,0,457.82,131.65Z"/><path class="cls-4" d="M458.52,126.74c.2.22,1.48-.65,3.26-.59s3,1,3.24.79-.09-.49-.65-.92a4.56,4.56,0,0,0-2.59-.89,4.37,4.37,0,0,0-2.6.74C458.62,126.26,458.42,126.64,458.52,126.74Z"/><path class="cls-4" d="M451.62,139.58a11.88,11.88,0,0,0-2.87-.62c-.45-.06-.88-.16-.94-.47a2.25,2.25,0,0,1,.35-1.33l1.46-3.37c2-4.81,3.52-8.78,3.33-8.85s-2,3.75-4,8.56l-1.41,3.4a2.59,2.59,0,0,0-.29,1.76,1.13,1.13,0,0,0,.72.68,3,3,0,0,0,.77.13A11.71,11.71,0,0,0,451.62,139.58Z"/><path class="cls-4" d="M456.8,141c-.29,0-.36,1.88-2.05,3.18s-3.75,1-3.77,1.29.44.38,1.31.44a4.8,4.8,0,0,0,3.14-1,4.09,4.09,0,0,0,1.6-2.67C457.13,141.45,456.93,141,456.8,141Z"/><path class="cls-4" d="M458.3,119.83c.16.48,1.94.31,4,.64s3.74.94,4,.52c.13-.2-.15-.66-.81-1.15a7.09,7.09,0,0,0-6.13-.89C458.64,119.23,458.24,119.6,458.3,119.83Z"/><path class="cls-4" d="M441.91,120.74c.3.41,1.54,0,3,.07s2.7.36,3,0c.13-.2-.05-.61-.58-1a4.39,4.39,0,0,0-4.85,0C442,120.13,441.78,120.54,441.91,120.74Z"/><path class="cls-4" d="M440.09,114.9s3.3-7.07,6.84-8.62c4.3-1.88,6,2.78,10,1.8s8.17-2.78,12.17.44c4.39,3.54,2.19,5.83,2.29,10.93.41,20.65,4,26.61,5.42,16.94.16-1.06,3.16-1.8,3.76-6.28.78-5.81,1.25-12.88.09-17.06-1-3.52-2.91-6-6.41-8.78-5.52-4.39-13.31-4.75-18.62-4.4S439.92,105.9,440.09,114.9Z"/><path class="cls-10" d="M476.11,136.05a3.13,3.13,0,0,1,3.49-2.88c2.14.28,4.5,1.57,4.2,6-.53,7.82-8.34,5.68-8.34,5.46S475.85,139.32,476.11,136.05Z"/><path class="cls-11" d="M477.38,141.79s.13.1.35.22a1.37,1.37,0,0,0,1,.09,3.38,3.38,0,0,0,1.78-2.92,4.56,4.56,0,0,0-.25-2,1.58,1.58,0,0,0-1-1.11.68.68,0,0,0-.83.32c-.12.21-.09.37-.13.38s-.16-.14-.07-.46a.86.86,0,0,1,.34-.47,1,1,0,0,1,.77-.15,1.92,1.92,0,0,1,1.36,1.31,4.69,4.69,0,0,1,.33,2.21c-.16,1.57-1.07,3-2.24,3.25a1.51,1.51,0,0,1-1.24-.29C477.38,142,477.35,141.8,477.38,141.79Z"/><path class="cls-4" d="M476.48,120.87a7.43,7.43,0,0,1-3.4,1.41,2.56,2.56,0,0,1-2.79-1.89c-.08-.55.08-1.18-.27-1.61s-1.21-.39-1.88-.34a5,5,0,0,1-5.1-3.77,2.13,2.13,0,0,1-2.85.17,11.14,11.14,0,0,1-2.07-2.36,3.28,3.28,0,0,0-2.67-1.44,7.42,7.42,0,0,1-1.73.32c-1-.13-1.5-1.35-1.62-2.38s-.2-2.22-1.06-2.8-1.86-.29-2.82-.18-2.19-.16-2.4-1.09a1.84,1.84,0,0,1,.41-1.41,5.13,5.13,0,0,1,6.1-1.71,7,7,0,0,1,12.79-.9,7.08,7.08,0,0,1,11.16,2.94,5.25,5.25,0,0,1,5.27,2,5.15,5.15,0,0,1,.22,5.58,4.8,4.8,0,0,1,2.54,3.91c0,1.62-1.68,3.19-3.25,2.7a2.89,2.89,0,0,1-1.24,3.65,2.94,2.94,0,0,1-3.74-1"/><path class="cls-5" d="M481.64,118a1.84,1.84,0,0,1-.54,1.49,2.56,2.56,0,0,1-1.62.88,2.77,2.77,0,0,1-2.23-.73l.34,0a8.07,8.07,0,0,1-1.65,1.9,4.49,4.49,0,0,1-1.47.84,3,3,0,0,1-1.59.09,3.15,3.15,0,0,1-2.24-1.37,4.7,4.7,0,0,1-.58-1.66,1.89,1.89,0,0,1,0-.63s.1.21.21.59a5.42,5.42,0,0,0,.68,1.52,3.24,3.24,0,0,0,4.75.27,7.83,7.83,0,0,0,1.56-1.78l.15-.22.19.18a2.36,2.36,0,0,0,1.88.67,2.3,2.3,0,0,0,1.46-.7A3.6,3.6,0,0,0,481.64,118Z"/><path class="cls-11" d="M459.48,142.21c-.13,0-.15-.83-.8-1.54s-1.45-.85-1.43-1,.22-.12.58,0a2.26,2.26,0,0,1,1.19.72,2.2,2.2,0,0,1,.57,1.26C459.62,142,459.53,142.22,459.48,142.21Z"/><path class="cls-11" d="M460.25,140.07c-.11.06-.39-.22-.8-.42s-.8-.26-.82-.39.48-.29,1,0S460.37,140,460.25,140.07Z"/><path class="cls-2" d="M445.79,96c0-.08-.85.44-1.49,1.73a6.65,6.65,0,0,0-.7,2.42,4.39,4.39,0,0,0,.81,3,6.35,6.35,0,0,0,2.47,1.89,16.68,16.68,0,0,0,2.33.88,9.6,9.6,0,0,0,2.21.56,8.88,8.88,0,0,0-2.08-.93c-.65-.26-1.43-.56-2.23-1a6.09,6.09,0,0,1-2.24-1.76,4.05,4.05,0,0,1-.76-2.65,7,7,0,0,1,.55-2.28A9.7,9.7,0,0,1,445.79,96Z"/><path class="cls-2" d="M440.78,101.14c-.06,0-.11.5.1,1.26a5.7,5.7,0,0,0,1.64,2.59,5.81,5.81,0,0,0,2.73,1.42c.78.15,1.28.06,1.27,0s-.47-.15-1.17-.38a6.93,6.93,0,0,1-2.45-1.45,6.84,6.84,0,0,1-1.65-2.31C441,101.59,440.87,101.13,440.78,101.14Z"/></g></g></svg>