<svg id="Layer_1" data-name="Layer 1" xmlns="http://www.w3.org/2000/svg" xmlns:xlink="http://www.w3.org/1999/xlink" viewBox="0 0 592 500"><defs><style>.cls-1,.cls-13,.cls-14,.cls-15,.cls-16,.cls-17,.cls-18,.cls-19,.cls-21,.cls-22,.cls-4,.cls-5{fill:none;}.cls-2{fill:#fff;}.cls-3{fill:#d7e4f9;}.cls-4{stroke:#7a5ce0;}.cls-13,.cls-14,.cls-15,.cls-16,.cls-17,.cls-18,.cls-19,.cls-21,.cls-22,.cls-4,.cls-5{stroke-linecap:round;}.cls-13,.cls-14,.cls-15,.cls-16,.cls-17,.cls-18,.cls-19,.cls-21,.cls-22,.cls-4,.cls-5,.cls-9{stroke-linejoin:round;}.cls-19,.cls-5{stroke:#000;}.cls-5{stroke-width:2px;}.cls-6{fill:#407bff;}.cls-7{fill:#ed8c72;}.cls-8{fill:#1c1c1b;}.cls-9{fill:#f97d8c;stroke:#779ce8;stroke-width:0.75px;}.cls-10{fill:#1d1d1b;}.cls-11{clip-path:url(#clip-path);}.cls-12{fill:#081132;}.cls-13{stroke:#1d1d1b;}.cls-14{stroke:#081132;}.cls-14,.cls-16{stroke-width:0.5px;}.cls-15{stroke:#634ab5;stroke-width:4px;}.cls-16{stroke:#1c1c1b;}.cls-17{stroke:#ff6363;}.cls-18{stroke:#292929;}.cls-20{fill:#779ce8;}.cls-21{stroke:#101c59;}.cls-22{stroke:#ae96ff;stroke-width:5px;}</style><clipPath id="clip-path"><path class="cls-1" d="M212.36,238.65c0-.14,0-.28.06-.42-.92-3.34-5.68-3.29-8.35-4.69a5.67,5.67,0,0,1-1.4-1l-.16-.16A6.33,6.33,0,0,1,201,229c-.81-5.37,1.95-10.22,4.32-14.94a1.57,1.57,0,0,0-.28-.37,3.39,3.39,0,0,0-2.36-.57,14.82,14.82,0,0,1-8.56-2.83,25.67,25.67,0,0,1-3.32-2.94c-.59-.61-1.67-2.72-2.58-2.79a.43.43,0,0,0-.22.06c-1.06,4.28-1.15,8.29-3.71,12.12a13.8,13.8,0,0,1-3.48,3.69,5.14,5.14,0,0,1-2.78,1.39,7,7,0,0,1-.93.09c-.12,0-.24,0-.37.06a.6.6,0,0,1-.38-.08c-1.93-.08-3.92-.54-5.4.6a5.08,5.08,0,0,0-1.47,2.16c-2.52,6-.75,13.83,2.42,19.24,2.42,4.12,6.67,7.93,11.3,9.22,4.39,1.24,9,.2,13.17-1.34,1.84-.67,3.58-1.33,5.26-2.11,5-2.32,9.39-4.92,10.71-10.67Z"/></clipPath></defs><rect class="cls-2" x="-20.04" y="-8.11" width="672.51" height="557.68"/><rect class="cls-2" x="-669.6" y="-23.42" width="672.51" height="557.68"/><g id="OBJECTS"><path class="cls-3" d="M367,352.7c-36-41.95-94.85-62.74-149-52.67-15.24,2.83-30.24,8-42.94,16.93s-23,21.81-27.05,36.84c-5.51,20.35,1.54,43.59,17.41,57.39,11.3,9.83,26,14.7,40.51,18.29a310.33,310.33,0,0,0,87.78,8.74c17.38-.76,35-3.07,50.82-10.38,14.59-6.76,28.26-19.12,35.6-33.67C387.61,379.22,376.63,363.94,367,352.7Z"/><path class="cls-3" d="M432.27,329.49c6.64-10.58,14.64-20.57,25-27.48s23.38-10.5,35.5-7.65,22.8,12.91,24.46,25.31c1.23,9.18-2.31,18.28-6.28,26.63-9.34,19.62-22.06,38.44-40.48,49.85-14.65,9.07-45.72,18.42-54.1-3.37C408.68,372.76,422,345.93,432.27,329.49Z"/><path class="cls-3" d="M253.54,37.38c23.31-1.12,46.86-.48,70,.73,30.23,1.59,60.64,4.08,89.75,12.4C446,59.85,478.7,77.4,498.58,106c19.6,28.14,31.62,71.57,18.31,104.62-9.05,22.48-29,38.46-48.78,52.32s-40.88,27.23-54.37,47.33c-2.56,3.82-4.85,7.89-8.21,11s-8.12,5.19-12.54,4c-3.38-.93-6-3.59-8.31-6.22-8.27-9.35-15.36-19.89-25-27.79-18.13-14.87-42.63-18.49-65.83-21.56l-78.41-10.37c-20.63-2.73-45-5.95-64.11-14.37-30.6-13.48-51.81-44.95-55.66-78.3-4.61-40,14.46-89.45,52.24-106.45C181.1,45.21,217,39.14,253.54,37.38Z"/><path class="cls-4" d="M357.61,444.82H339a5.19,5.19,0,0,1-5.18-5.21V314.17a5.19,5.19,0,0,0-5.18-5.21H254.85"/><path class="cls-4" d="M363.18,428H344.57a5.19,5.19,0,0,1-5.18-5.21V303.48a5.2,5.2,0,0,0-5.19-5.21H260.42"/><path class="cls-4" d="M357.1,407.17H332.6a4.34,4.34,0,0,1-4.33-4.35V318a5.2,5.2,0,0,0-5.18-5.21H232.58"/><path class="cls-5" d="M273.74,452.67l18.09-130.38a.36.36,0,0,1,.71,0l19.72,130.41"/><polyline class="cls-5" points="176.63 451.69 197.12 366.62 228.3 451.69"/><path class="cls-6" d="M131.19,330.65c-.2-.56-.42-1.11-.6-1.67C130.77,329.54,131,330.1,131.19,330.65Z"/><path class="cls-6" d="M137.62,284.9c2.37,5.62,5,11.1,7.63,16.61a149.61,149.61,0,0,0,9.06,17,136.61,136.61,0,0,0,26.36,29.74c10.86,9.3,23.35,16.49,36.14,22.75l.32.15c-2.65.1-5.31.12-8,0a107.36,107.36,0,0,1-15.78-1.78,63.93,63.93,0,0,0,14.26,2.29,107.19,107.19,0,0,0,24.12-1.89c7.86-1.55,15.78-4.06,22.48-8.57a30.54,30.54,0,0,0,7.95-7.55,24.11,24.11,0,0,0,2.78-5.17,5.61,5.61,0,0,0-.13-.59c-3.87-14.21-16.22-16.06-27.27-22.37A79.81,79.81,0,0,1,209,297.72c-6.46-10.69-10.26-22.67-15.42-34-4.82-10.56-11.08-16-22.11-19.89C163.25,241,154.2,239,146,241.77c-7.32,2.48-12.74,8.39-16.21,15.45C130.35,266.78,134,276.31,137.62,284.9Z"/><path class="cls-3" d="M253.88,309.21c.06-5.56-.1-10.61,1.33-16.15,1.89-7.33,7.52-11.33,14.53-13.59a7.41,7.41,0,0,1,4.75-.29,6.8,6.8,0,0,1,3.56,4.15c2.2,5.66,1.06,12-.12,18q-4,20-7.91,40.05a2.71,2.71,0,0,1-1.06,2,2.65,2.65,0,0,1-1.76.06A76,76,0,0,1,250,337.78C252.32,338.85,253.86,310.46,253.88,309.21Z"/><path class="cls-7" d="M268.26,388.06a92.41,92.41,0,0,0,10.81-3.32c0,19.39,2.72,52.09,2.63,57.67-5.44.62-9.7,2.64-15.21,2.7-4.32-6.72-6.08-25.75-8.52-33.1-.56-1.7-3-10.19-5.77-19.86C257.59,390.94,262.94,389.56,268.26,388.06Z"/><path d="M258.18,349.15c6.28,1.45,12.72,2.12,19.08,3.07,3.35.49,10.21,2.41,13.37,0,4-3-2.55-4.71-5.52-6.38-5.1-2.87-10.28-5.6-15.42-8.39-4.75-2.58-10.85-8.07-15.7-2.76-3.12,3.42-3.48,8.88-3.83,13.26A42,42,0,0,1,258.18,349.15Z"/><path class="cls-8" d="M156.68,326.41c2.9-9.21,16-11.32,24.14-10.67,16.87,1.36,33.79,1.78,50.57,3.16C245.06,320,259.94,323,269.34,334c7.68,8.95,8.92,21.27,11.09,32.49,4,20.77,5.15,40.25,4.68,61.3a2.45,2.45,0,0,1-.32,1.42,2.41,2.41,0,0,1-1.73.73L259,433.13a1.62,1.62,0,0,1-2.18-1.46c-1.25-4.33-17.8-70.63-16.64-70.82-13.85,2.21-24.81,1.57-38.79.44-9.88-.79-19.93-2.51-28.56-7.43C164.49,349.1,153.32,337.07,156.68,326.41Z"/><path class="cls-9" d="M152.65,322.81c1,1.5.92,2.86,1.42,3.68,2.54,0,5.08,0,7.62,0,6.65.11,13.36.2,19.91-1.18a133.21,133.21,0,0,0,16.83-4.88c8.46-3,16.4-5.1,15.78-15.52-.78-13.43-2.4-30.35,1.37-43.45,1.52-5.29,2.35-9.23,4.63-14.23a12.36,12.36,0,0,0,1.34-4.31,10.54,10.54,0,0,0-.41-3.2c-4.21-17.19-18.5-17.4-33.67-18.75a27.28,27.28,0,0,0-7.05,0,26.15,26.15,0,0,0-8.71,2.84c-13.29,8-14.19,21.49-18.2,35.4-2,6.95-5.13,13.53-7.13,20.48C142.1,294.56,144.08,309.88,152.65,322.81Z"/><path d="M285.43,442.21a31.28,31.28,0,0,0,5.82,2c4.52,1.37,9.21,2.14,13.67,3.72,2.33.83,4.57,3.77,2,5.85a7.48,7.48,0,0,1-4,1.3c-11.31,1.32-22.75.68-34.12,0a2,2,0,0,1-2.25-1.46,91.69,91.69,0,0,1-3.2-11.43c1.52-.37,3.13.27,4.67.38,2,.15,4.16.31,6-.69a29,29,0,0,0,6.65-5.08,2,2,0,0,1,.61-.48c.79-.32,1.57.54,1.84,1.36.52,1.59.54,3.37,2,4.32Z"/><path class="cls-8" d="M253.4,305.53c-.14-1.89,0-3.64,1.76-4.31,2.42-.91,3.24.38,4.79-2.14,3-4.86,5.09-10.93,7.11-16.25,2.43-6.42,7-14.8,6.78-21.69a1.91,1.91,0,0,0-.26-1,1.77,1.77,0,0,0-1.07-.58,34.45,34.45,0,0,0-11-.61c-24.31,1.57-37.88,28.07-49.38,46.21-1.73,2.74-11.83,15.9-14.49,15.69,9.29.74,16.45,5.47,25,8.08,5.27,1.6,11.08,6.33,16,7,1.59.22,8.1-11.8,9-13.38,2.49-4.13,6-8.83,5.93-13.84C253.64,307.71,253.47,306.6,253.4,305.53Z"/><path class="cls-8" d="M282.37,307.83a104.72,104.72,0,0,1-2.2,12.08,2.28,2.28,0,0,1-.43,1,2,2,0,0,1-1.6.45,27,27,0,0,1-3.55-.65c-7.38-1.42-19.65,3.57-25.33-3.34a9.88,9.88,0,0,1-1.75-5c-1.73-12.9,2.37-25.5,2.2-38.46-.1-6.92,2.46-11.1,6-16.75,3.36-5.41,8.08-7.25,14.13-5.19,10.2,3.48,16,14.35,15.56,24.67S283.76,297.45,282.37,307.83Z"/><path class="cls-7" d="M187.42,207.64c-.1,1.25,2.5,4.11,3.3,5a11.65,11.65,0,0,0,4.5,3.23c4.62,1.83,9.46,2,13.09-1.83a21,21,0,0,0,3.86-6.39c1.49-3.51,3.57-13.21,2.63-16.91-.86-3.36-4.44-.43-7.7-1.56-2.84-1-5-1.86-8-1.33a11.25,11.25,0,0,0-7,4c-.46.59-.87,1.19-1.25,1.79a40.48,40.48,0,0,0-2.32,5.91,39.19,39.19,0,0,0-.94,5.13C187.54,205.7,187.5,206.67,187.42,207.64Z"/><path class="cls-7" d="M185.5,230a19.07,19.07,0,0,0,9.27,3.4c.62.06,8.6-.84,7.46-2.36-3-4-1.36-7.5.51-11.82.29-.66,2.8-4.73,2.54-5.19a1.57,1.57,0,0,0-.28-.37,3.39,3.39,0,0,0-2.36-.57,14.82,14.82,0,0,1-8.56-2.83,25.67,25.67,0,0,1-3.32-2.94c-.59-.61-1.67-2.72-2.58-2.79a.43.43,0,0,0-.22.06c-1.06,4.28-1.58,8-3.71,12.12-1.65,3.17-5.73,4.74-6.88,4.95C179.19,224.89,182.43,227.81,185.5,230Z"/><path class="cls-10" d="M194.45,201.21c.08-.66.16-1.46.76-1.73s1.28.22,1.93.37c2.1.47,4-1.82,5.23-3.27.24-.29.48-.56.73-.81a5.7,5.7,0,0,1,5.11-1.92c2.3.19,4.6,1,6.87.54a6.88,6.88,0,0,0,5.2-5.11c.95-4.05-2.36-9.45-6.93-8.69-1.23.2-2.56.83-3.65.21a5.38,5.38,0,0,1-1.37-1.58,6.23,6.23,0,0,0-7.24-2,21,21,0,0,1-1.94.88,11.3,11.3,0,0,1-4.06,0,7.4,7.4,0,0,0-4.61,1.11,4.36,4.36,0,0,0-1.92,4.17,4.84,4.84,0,0,1,.2,1.4c-.21,1.66-2.84,1.73-3.62,3.2s.62,3.16.23,4.71c-.23.93-1.06,1.65-1.16,2.6-.12,1.18,1,2,1.42,3a12,12,0,0,1,1.1,3.69c.22,2.45-1.26,5.08,2.34,4.78A6,6,0,0,0,194.45,201.21Z"/><path class="cls-9" d="M240,264.42c1.42,1.71,2.59,3.48,6.68,3.21a17.49,17.49,0,0,0,13.22-7.36,9.46,9.46,0,0,0,1.7-4c1.18-8.74-8.61-14.41-14.87-17.95A120.29,120.29,0,0,0,224,228.89c-6.93-2.23-14.17-6.1-21.63-5.5a2.91,2.91,0,0,0-.59.1c.08,1,.13,1.94.14,2.91a57,57,0,0,1,6.9,18c.89,4,2.88,8.66,2.47,12.8,8.25,1.14,16.46,2.63,24.58,4.48A7,7,0,0,1,240,264.42Z"/><path class="cls-7" d="M252.42,245.9c-3.16.36-5.81,2.74-7.34,5.54s-2.14,6-2.73,9.15c-1.67,9-2.22,19.39-5.21,28-1.86,5.34-9.1,12.72-5.52,18.83a5.18,5.18,0,0,0,5.3,2.41c3.59-.68,5.27-4.73,6.8-8.07,2-4.3,4.89-7.62,7.5-11.4,3.27-4.73,5.63-10.53,8-15.76,3-6.7,5.72-14.33,3.24-21.26C260.94,249.11,256.89,245.41,252.42,245.9Z"/><g class="cls-11"><path class="cls-12" d="M195.64,215.39a2.2,2.2,0,0,0,.41.18,16,16,0,0,0,8.27,1.34c.7.3.47.87.12,1.9-.49,1.44-.93,2.9-1.32,4.37l-7.65-7.86Z"/></g><path class="cls-9" d="M155.68,233.65c-5.22,6-7.37,14.09-9.14,21.67q-3.45,14.7-6.89,29.4a34.58,34.58,0,0,0-1.14,7c-.11,3.79,1,8.62,1.86,12.27,1.13,4.68,3.92,4.39,8.07,4,6.57-.66,15.5-2.65,19.93-8,2.11-2.55,2.79-6,3.4-9.24l2.5-13.47c3.41-18.34,6.82-37.27,3-55.52A34.58,34.58,0,0,0,155.68,233.65Z"/><path class="cls-13" d="M177.41,251.86c-7.59,2-6.91,11.75-7.59,17.77a178.73,178.73,0,0,1-5,26.36"/><path class="cls-14" d="M258,273.34c-2.9,12.58-9.55,31.7-9.67,44.62"/><path class="cls-3" d="M203.83,208.53a3.4,3.4,0,0,0,2.55,2.21,3.07,3.07,0,0,0,2.91-1.43"/><path class="cls-15" d="M133.54,315.23c21-4.8,38.83-8.31,57.75.64,12.32,5.83,20.64,16.68,23,28.23s-1.42,19.64-11.54,24.73"/><path class="cls-14" d="M243.81,362.39c-.58-4.37-.71-9.8-1.28-14.18"/><path class="cls-14" d="M248.66,322.2c-13.53-2.07-22.24-.26-39.66-.26"/><path class="cls-7" d="M190.37,200.74a4,4,0,1,0,4-4A4,4,0,0,0,190.37,200.74Z"/><path class="cls-6" d="M218.07,371.54l-1.26-.54c-12.78-6.26-25.28-13.45-36.14-22.75a136.61,136.61,0,0,1-26.36-29.74,149.61,149.61,0,0,1-9.06-17c-2.61-5.51-5.26-11-7.63-16.6-3.64-8.6-7.27-18.13-7.85-27.69a45.59,45.59,0,0,0-4,12.55c-3.08,18.55-1,41.27,4.82,59.21.18.57.4,1.11.6,1.67,3.87,10.67,11.66,20.21,26.25,28.52,25.87,14.75,46.39,12.54,51.69,12.71C211.78,372,215.42,371.64,218.07,371.54Z"/><path class="cls-7" d="M166.58,287.89c4.07.9,8.07,2.21,12.06,3.42,6.35,1.93,12.77,3,19.22,4.77a22.23,22.23,0,0,0,5.58,1c3.26,0,6.41-1.29,9.67-1.36a13.11,13.11,0,0,1,11,6c4,6.13-2.63,4.49-6.78,4.42l-9.73-.14A375.49,375.49,0,0,0,170,307.51c-7,.58-19.06,2.22-25.24-1.92-3-2-7.95-11.82-5.2-14.75a5.21,5.21,0,0,1,1.93-1.13A41.28,41.28,0,0,1,161.22,287,48.31,48.31,0,0,1,166.58,287.89Z"/><path class="cls-9" d="M260.28,298.27H260"/><path class="cls-6" d="M128.66,286.27c.21,2.62.63,5.23,1.05,7.77.53,3.23,1.06,6.47,1.85,9.65a19.77,19.77,0,0,0,3.44,7.82,12.07,12.07,0,0,0,12.8,3.6c3.49-1.16,3-2.4,1.52-5.31-3.08-6-6.28-12.33-8.93-18.6s-5.15-12.36-7.35-18.9c-.46-1.37-.93-2.75-1.33-4.15a49.14,49.14,0,0,1-1.36-6.35c.27,1.9-.3,4.33-.49,6.25q-.31,3.27-.78,6.53A52.52,52.52,0,0,0,128.66,286.27Z"/><path class="cls-5" d="M109.31,452.67l19-130.38a.38.38,0,0,1,.75,0L149.7,452.67"/><rect class="cls-6" x="116.63" y="318.17" width="187.85" height="5.79"/><path class="cls-16" d="M196.26,200.16a2.27,2.27,0,0,0-3.4-1.39"/><path d="M258.65,318.43H174.1a1.54,1.54,0,0,1-1.54-1.54V316a1.54,1.54,0,0,1,1.54-1.54h84.55a1.54,1.54,0,0,1,1.54,1.54v.92A1.54,1.54,0,0,1,258.65,318.43Z"/><path d="M260.47,318.43H185.58l6.52-43a3,3,0,0,1,3-2.61H264a2.91,2.91,0,0,1,2.84,3.41Z"/><line class="cls-17" x1="228.53" y1="294.16" x2="231.78" y2="296.88"/><line class="cls-17" x1="224.26" y1="294.16" x2="227.51" y2="296.88"/><path class="cls-13" d="M238.63,257.46a14.78,14.78,0,0,0,2.56,8.24"/><path class="cls-9" d="M409.58,182.09a15.81,15.81,0,0,0-2.82,1.13c.06.07.12.13.18.21a2.6,2.6,0,1,1-4.15,3.14c-.06-.08-.1-.17-.15-.25a15.87,15.87,0,0,0-1.9,2.41,1.29,1.29,0,0,1,.28.08,2.62,2.62,0,0,1,1.38,3.43,2.59,2.59,0,0,1-3.4,1.39c-.11,0-.2-.11-.29-.16a15.47,15.47,0,0,0-.45,3.06l.32-.08a2.61,2.61,0,0,1,.64,5.19h-.37a15.89,15.89,0,0,0,1.14,2.9,3.2,3.2,0,0,1,.27-.25,2.61,2.61,0,0,1,3.13,4.17,2.39,2.39,0,0,1-.34.21,15.89,15.89,0,0,0,2.45,1.95c0-.13.07-.26.12-.38a2.6,2.6,0,1,1,4.79,2,2.71,2.71,0,0,1-.21.37,16.09,16.09,0,0,0,3.11.45,2.59,2.59,0,0,1-.09-.4,2.6,2.6,0,1,1,5.16-.65,2.16,2.16,0,0,1,0,.44,16.22,16.22,0,0,0,2.92-1.18A2.06,2.06,0,0,1,421,211a2.6,2.6,0,1,1,4.15-3.14,2.5,2.5,0,0,1,.21.35,15.36,15.36,0,0,0,1.92-2.48,3,3,0,0,1-.37-.11,2.62,2.62,0,0,1-1.38-3.43,2.59,2.59,0,0,1,3.41-1.38,2.21,2.21,0,0,1,.34.18,15.75,15.75,0,0,0,.42-3.09l-.34.08a2.61,2.61,0,0,1-.64-5.19h.34a15.54,15.54,0,0,0-1.15-2.86c-.08.07-.15.15-.23.21a2.59,2.59,0,0,1-3.64-.51,2.62,2.62,0,0,1,.5-3.66l.27-.16a15.67,15.67,0,0,0-2.41-1.89,2.76,2.76,0,0,1-.08.27,2.6,2.6,0,1,1-4.79-2,2.15,2.15,0,0,1,.14-.26,15.94,15.94,0,0,0-3-.43l.06.26a2.6,2.6,0,1,1-5.16.65A2.81,2.81,0,0,1,409.58,182.09Zm3.1,4.64a10.64,10.64,0,1,1-9.21,11.87A10.59,10.59,0,0,1,412.68,186.73Z"/><path class="cls-9" d="M412.57,210.06a12.84,12.84,0,1,0-11.27-14.2A12.81,12.81,0,0,0,412.57,210.06Zm-6.64-13.59a8.14,8.14,0,0,1,9-6.84,7.73,7.73,0,0,1,7.12,8.48,8.14,8.14,0,0,1-9,6.85A7.73,7.73,0,0,1,405.93,196.47Z"/><path class="cls-9" d="M324.38,206a12.51,12.51,0,0,0-2.3.95.83.83,0,0,1,.15.17,2.25,2.25,0,0,1-.4,3.08,2.06,2.06,0,0,1-3-.44,2.39,2.39,0,0,1-.13-.21,13.81,13.81,0,0,0-1.54,2,2.09,2.09,0,0,1,.23.08,2.24,2.24,0,0,1,1.13,2.89,2.07,2.07,0,0,1-2.77,1.16,1.83,1.83,0,0,1-.24-.13,13.71,13.71,0,0,0-.36,2.58,2.44,2.44,0,0,1,.26-.06,2.2,2.2,0,0,1,.54,4.37,1.53,1.53,0,0,1-.3,0,13.33,13.33,0,0,0,.93,2.45l.22-.21a2.08,2.08,0,0,1,3,.44,2.27,2.27,0,0,1-.41,3.09,1.61,1.61,0,0,1-.28.17,13.16,13.16,0,0,0,2,1.65,2.23,2.23,0,0,1,.09-.32A2.07,2.07,0,0,1,324,228.6a2.25,2.25,0,0,1,1.14,2.89,2.4,2.4,0,0,1-.17.32,12.57,12.57,0,0,0,2.54.39c0-.11-.06-.23-.08-.34a2.19,2.19,0,0,1,1.84-2.46,2.18,2.18,0,0,1,2.38,2.29,12.44,12.44,0,0,0,2.38-1,2.73,2.73,0,0,1-.23-.25,2.26,2.26,0,0,1,.4-3.09,2.07,2.07,0,0,1,3,.44,2.38,2.38,0,0,1,.18.3A13.13,13.13,0,0,0,338.9,226l-.3-.1a2.25,2.25,0,0,1-1.13-2.9,2.08,2.08,0,0,1,2.77-1.16l.28.16a14.91,14.91,0,0,0,.34-2.61l-.28.07a2.21,2.21,0,0,1-.54-4.38h.28a13.37,13.37,0,0,0-.95-2.42,1.62,1.62,0,0,1-.19.18,2.07,2.07,0,0,1-3-.44,2.26,2.26,0,0,1,.41-3.08,1.28,1.28,0,0,1,.21-.14,13,13,0,0,0-2-1.6c0,.08,0,.16-.07.23A2.08,2.08,0,0,1,332,209a2.25,2.25,0,0,1-1.13-2.89,1.39,1.39,0,0,1,.11-.21,11.88,11.88,0,0,0-2.46-.37,1.42,1.42,0,0,1,0,.22,2.12,2.12,0,1,1-4.2.53A1.93,1.93,0,0,1,324.38,206Zm2.54,3.92a8.77,8.77,0,0,1,9.66,7.84,8.64,8.64,0,1,1-9.66-7.84Z"/><path class="cls-9" d="M327,228.32a9.2,9.2,0,0,0,10.1-8.38A9.53,9.53,0,0,0,329,209.39a9.2,9.2,0,0,0-10.1,8.38A9.52,9.52,0,0,0,327,228.32Zm-5.47-10.16a6.51,6.51,0,0,1,7.2-5.66,6.39,6.39,0,0,1,5.72,7.05,6.52,6.52,0,0,1-7.2,5.65A6.38,6.38,0,0,1,321.56,218.16Z"/><path class="cls-9" d="M361.77,180.12a27.32,27.32,0,0,0-5,2,3.68,3.68,0,0,1,.33.35,4.61,4.61,0,0,1-.9,6.44,4.55,4.55,0,0,1-6.4-.9,3,3,0,0,1-.27-.45,28,28,0,0,0-3.34,4.24,4,4,0,0,1,.49.15,4.59,4.59,0,0,1-3.56,8.47,4.16,4.16,0,0,1-.51-.28,28.15,28.15,0,0,0-.79,5.38,5.59,5.59,0,0,1,.56-.12,4.59,4.59,0,0,1,1.12,9.12,4.71,4.71,0,0,1-.65,0,28.33,28.33,0,0,0,2,5.1c.16-.15.3-.3.48-.44a4.56,4.56,0,0,1,6.41.9,4.61,4.61,0,0,1-.9,6.44,5.39,5.39,0,0,1-.6.37,28.47,28.47,0,0,0,4.31,3.43,5.2,5.2,0,0,1,.21-.67,4.57,4.57,0,1,1,8.42,3.58,3.82,3.82,0,0,1-.36.66,26.34,26.34,0,0,0,5.48.79,4.07,4.07,0,0,1-.16-.71,4.57,4.57,0,1,1,9.07-1.12,4.79,4.79,0,0,1,0,.76,28.11,28.11,0,0,0,5.13-2.08,5,5,0,0,1-.49-.53,4.62,4.62,0,0,1,.89-6.44,4.56,4.56,0,0,1,6.41.9,5.73,5.73,0,0,1,.38.62,28.56,28.56,0,0,0,3.38-4.36,5.38,5.38,0,0,1-.65-.2,4.62,4.62,0,0,1-2.43-6,4.57,4.57,0,0,1,6-2.44,4.24,4.24,0,0,1,.59.33,28.17,28.17,0,0,0,.75-5.45,3.18,3.18,0,0,1-.61.14A4.59,4.59,0,0,1,395.5,199a4.1,4.1,0,0,1,.61,0,28.13,28.13,0,0,0-2-5,5,5,0,0,1-.41.38,4.56,4.56,0,0,1-6.4-.9,4.62,4.62,0,0,1,.89-6.44c.15-.11.31-.19.47-.29a28.84,28.84,0,0,0-4.24-3.32,4.42,4.42,0,0,1-.15.48,4.58,4.58,0,1,1-8.18-4,26.56,26.56,0,0,0-5.3-.75,3.28,3.28,0,0,1,.11.45,4.58,4.58,0,1,1-9.08,1.13A4.17,4.17,0,0,1,361.77,180.12Zm5.62,9.46A17.43,17.43,0,1,1,352.31,209,17.34,17.34,0,0,1,367.39,189.58Z"/><path class="cls-18" d="M367.18,228a21.29,21.29,0,1,0-18.69-23.53A21.24,21.24,0,0,0,367.18,228Zm-11.79-22.75A14.23,14.23,0,1,1,368,221.08,14.28,14.28,0,0,1,355.39,205.28Z"/><path class="cls-19" d="M271.69,64.87a6,6,0,0,1,8.49-.62,6.08,6.08,0,0,1,.62,8.54"/><ellipse class="cls-19" cx="288.76" cy="89.68" rx="5.75" ry="5.78"/><path class="cls-6" d="M437.44,109.88a14.28,14.28,0,0,1,14.85-14.35A14.1,14.1,0,0,1,459.61,98a16.73,16.73,0,0,1,13.45-5.77c7.32.35,14.4,5.33,15,12.15a16.37,16.37,0,0,1,6.27,28.45,10.07,10.07,0,0,1-.79,8.28,8.45,8.45,0,0,1-3.78,3.56,9.86,9.86,0,0,1-8,.4l-.18,13.47a.83.83,0,0,1-1.51.46l-7-10.17c-6.53,2.69-12.39-1.34-12.82-7.3a11.74,11.74,0,0,1-17-9.66,12,12,0,0,1-11.78.24,10.58,10.58,0,0,1-5.13-5.7C423.09,117.69,429.45,109.76,437.44,109.88Z"/><path class="cls-19" d="M485.68,126.36a9.68,9.68,0,0,1,8.47,6"/><path class="cls-19" d="M443.37,130.89a11.8,11.8,0,0,1,12.33-11.26"/><path class="cls-19" d="M436.44,109.89a11.73,11.73,0,0,1,6.75,1.58"/><path class="cls-19" d="M449.81,100.81a9.49,9.49,0,0,1,9,10"/><path class="cls-19" d="M458.1,137a8.39,8.39,0,0,1-9.13-7.59"/><path class="cls-19" d="M431.75,124.64A7.57,7.57,0,0,1,436.4,115"/><path class="cls-19" d="M489.29,135.74a5.71,5.71,0,0,1-7.2,3.7"/><path class="cls-19" d="M475.54,106.71a15.84,15.84,0,0,1,12.29-2.37"/><path class="cls-19" d="M490.51,111.64a9.69,9.69,0,0,1,3.91,7.64"/><path class="cls-19" d="M465.23,115.27a7.54,7.54,0,0,1,7.68,3.34,7.62,7.62,0,0,1-.43,8.4"/><path class="cls-19" d="M464.26,129.66a4.23,4.23,0,0,0,1,6.94"/><polygon class="cls-6" points="390.13 65.72 390.57 108.38 381.68 108.42 381.24 65.77 390.13 65.72"/><polygon class="cls-9" points="370.37 72.77 370.74 108.48 361.84 108.53 361.48 72.82 370.37 72.77"/><polygon class="cls-20" points="341.7 78.18 342.01 108.64 350.9 108.59 350.59 78.18 341.7 78.18"/><polygon class="cls-9" points="332.31 92.32 332.48 108.69 323.59 108.74 323.42 92.37 332.31 92.32"/><line class="cls-21" x1="397.99" y1="108.39" x2="319.87" y2="108.88"/><line class="cls-19" x1="363.16" y1="75.37" x2="363.16" y2="85.09"/><line class="cls-19" x1="383.29" y1="90.45" x2="383.29" y2="102.73"/><line class="cls-19" x1="324.73" y1="96.84" x2="324.73" y2="100.91"/><path class="cls-19" d="M343.52,89.16V90.9"/><path class="cls-13" d="M216.55,258.06a17.25,17.25,0,0,0-.33-4.75"/><polyline class="cls-4" points="434.36 144.99 414.22 165.24 334.21 165.24 309.36 190.64"/><polyline class="cls-4" points="435 153.7 417.06 171.74 346.32 171.74 318.93 199.27"/><line class="cls-4" x1="415.81" y1="115.78" x2="292.92" y2="115.78"/><polyline class="cls-4" points="412.15 134.93 313.56 134.93 292.78 155.81"/><polyline class="cls-4" points="376.75 146.95 365.76 158 315.71 158 301.67 172.11"/><line class="cls-4" x1="321.08" y1="146.46" x2="361.61" y2="146.46"/><line class="cls-4" x1="399.7" y1="124.86" x2="328.89" y2="124.86"/><line class="cls-4" x1="385.54" y1="151.37" x2="411.41" y2="151.37"/><path class="cls-6" d="M419.23,115.54a3.42,3.42,0,1,1-3.42-3.44A3.43,3.43,0,0,1,419.23,115.54Z"/><path class="cls-6" d="M296.34,115.54a3.42,3.42,0,1,1-3.42-3.44A3.43,3.43,0,0,1,296.34,115.54Z"/><ellipse class="cls-6" cx="410.44" cy="151.86" rx="3.42" ry="3.44"/><ellipse class="cls-6" cx="361.61" cy="146.46" rx="3.42" ry="3.44"/><path class="cls-6" d="M378.7,146.46a3.42,3.42,0,1,1-3.42-3.43A3.43,3.43,0,0,1,378.7,146.46Z"/><ellipse class="cls-6" cx="323.04" cy="145.97" rx="3.42" ry="3.44"/><path class="cls-6" d="M313.76,189.16a3.42,3.42,0,1,1-3.42-3.43A3.43,3.43,0,0,1,313.76,189.16Z"/><ellipse class="cls-6" cx="319.14" cy="199.16" rx="3.42" ry="3.44"/><ellipse class="cls-6" cx="303.02" cy="170.02" rx="3.42" ry="3.44"/><ellipse class="cls-6" cx="388.46" cy="151.86" rx="3.42" ry="3.44"/><path class="cls-6" d="M415.56,134.93a3.42,3.42,0,1,1-3.41-3.44A3.42,3.42,0,0,1,415.56,134.93Z"/><path class="cls-6" d="M438.42,153.7a3.42,3.42,0,1,1-3.42-3.43A3.43,3.43,0,0,1,438.42,153.7Z"/><path class="cls-6" d="M437.54,144.74a3.42,3.42,0,1,1-3.42-3.43A3.43,3.43,0,0,1,437.54,144.74Z"/><ellipse class="cls-6" cx="399.7" cy="124.86" rx="3.42" ry="3.44"/><ellipse class="cls-6" cx="328.89" cy="124.86" rx="3.42" ry="3.44"/><ellipse class="cls-6" cx="294.23" cy="154.81" rx="3.42" ry="3.44"/><path class="cls-3" d="M134.48,116.81h0a1.89,1.89,0,0,0,1.88,1.89h36.16a1.89,1.89,0,0,0,1.88-1.89h0a1.89,1.89,0,0,0-1.88-1.89H136.36A1.89,1.89,0,0,0,134.48,116.81Z"/><path class="cls-3" d="M192.1,114.92H180.54a1.89,1.89,0,0,0-1.88,1.89h0a1.89,1.89,0,0,0,1.88,1.89H192.1a1.89,1.89,0,0,0,1.88-1.89h0A1.89,1.89,0,0,0,192.1,114.92Z"/><path class="cls-3" d="M180.55,124.22H147.66a1.89,1.89,0,0,0-1.88,1.89h0a1.89,1.89,0,0,0,1.88,1.89h32.89a1.89,1.89,0,0,0,1.88-1.89h0A1.89,1.89,0,0,0,180.55,124.22Z"/><path class="cls-3" d="M185.61,126.11h0a1.89,1.89,0,0,0,1.88,1.89h7a1.89,1.89,0,0,0,1.88-1.89h0a1.89,1.89,0,0,0-1.88-1.89h-7A1.89,1.89,0,0,0,185.61,126.11Z"/><path class="cls-3" d="M140.5,124.22h-4.14a1.89,1.89,0,0,0-1.88,1.89h0a1.89,1.89,0,0,0,1.88,1.89h4.14a1.89,1.89,0,0,0,1.88-1.89h0A1.89,1.89,0,0,0,140.5,124.22Z"/><path class="cls-3" d="M128.18,124.22H111.61a1.89,1.89,0,0,0-1.88,1.89h0a1.89,1.89,0,0,0,1.88,1.89h16.57a1.13,1.13,0,0,0,1.13-1.14v-1.5A1.13,1.13,0,0,0,128.18,124.22Z"/><path class="cls-3" d="M151,134.78h0a1.89,1.89,0,0,0,1.88,1.89h40.93a1.88,1.88,0,0,0,1.88-1.89h0a1.89,1.89,0,0,0-1.88-1.89H152.86A1.89,1.89,0,0,0,151,134.78Z"/><path class="cls-3" d="M121.86,134.78h0a1.89,1.89,0,0,0,1.88,1.89h19.09a1.88,1.88,0,0,0,1.88-1.89h0a1.89,1.89,0,0,0-1.88-1.89H123.74A1.89,1.89,0,0,0,121.86,134.78Z"/><path class="cls-3" d="M107.81,144.08h0a1.89,1.89,0,0,0,1.88,1.89h2.52a1.88,1.88,0,0,0,1.87-1.89h0a1.88,1.88,0,0,0-1.87-1.89h-2.52A1.89,1.89,0,0,0,107.81,144.08Z"/><path class="cls-3" d="M116.59,144.08h0a1.89,1.89,0,0,0,1.88,1.89h24.61a1.89,1.89,0,0,0,1.88-1.89h0a1.89,1.89,0,0,0-1.88-1.89H118.47A1.89,1.89,0,0,0,116.59,144.08Z"/><path class="cls-3" d="M149,144.08h0a1.88,1.88,0,0,0,1.87,1.89h9.05a1.89,1.89,0,0,0,1.88-1.89h0a1.89,1.89,0,0,0-1.88-1.89h-9.05A1.88,1.88,0,0,0,149,144.08Z"/><path class="cls-3" d="M167.3,144.08h0a1.89,1.89,0,0,0,1.88,1.89h9.3a1.89,1.89,0,0,0,1.88-1.89h0a1.89,1.89,0,0,0-1.88-1.89h-9.3A1.89,1.89,0,0,0,167.3,144.08Z"/><path class="cls-3" d="M186.88,144.08h0a1.89,1.89,0,0,0,1.88,1.89h5a1.89,1.89,0,0,0,1.88-1.89h0a1.89,1.89,0,0,0-1.88-1.89h-5A1.89,1.89,0,0,0,186.88,144.08Z"/><path class="cls-3" d="M128.64,153.38h0a1.89,1.89,0,0,0,1.88,1.89H134a1.89,1.89,0,0,0,1.88-1.89h0a1.89,1.89,0,0,0-1.88-1.89h-3.52A1.89,1.89,0,0,0,128.64,153.38Z"/><path class="cls-3" d="M143.36,153.38h0a1.89,1.89,0,0,0,1.88,1.89h17.68a1.89,1.89,0,0,0,1.88-1.89h0a1.89,1.89,0,0,0-1.88-1.89H145.24A1.89,1.89,0,0,0,143.36,153.38Z"/><path class="cls-3" d="M168.61,153.38h0a1.89,1.89,0,0,0,1.88,1.89h13.82a1.88,1.88,0,0,0,1.87-1.89h0a1.88,1.88,0,0,0-1.87-1.89H170.49A1.89,1.89,0,0,0,168.61,153.38Z"/><path class="cls-3" d="M151.46,90h0a1.88,1.88,0,0,0,1.88,1.89h40.93A1.88,1.88,0,0,0,196.14,90h0a1.88,1.88,0,0,0-1.87-1.89H153.34A1.89,1.89,0,0,0,151.46,90Z"/><path class="cls-3" d="M166.42,80.06h-5A1.88,1.88,0,0,0,159.54,82h0a1.88,1.88,0,0,0,1.87,1.89h5A1.89,1.89,0,0,0,168.3,82h0A1.89,1.89,0,0,0,166.42,80.06Z"/><path class="cls-3" d="M153.81,80.06h-17A1.88,1.88,0,0,0,135,82h0a1.88,1.88,0,0,0,1.87,1.89h17A1.89,1.89,0,0,0,155.69,82h0A1.89,1.89,0,0,0,153.81,80.06Z"/><path class="cls-3" d="M171.22,82h0a1.88,1.88,0,0,0,1.87,1.89h21.18A1.88,1.88,0,0,0,196.14,82h0a1.88,1.88,0,0,0-1.87-1.89H173.09A1.88,1.88,0,0,0,171.22,82Z"/><path class="cls-3" d="M149.45,99.28h0a1.89,1.89,0,0,0,1.88,1.89h9a1.89,1.89,0,0,0,1.88-1.89h0a1.89,1.89,0,0,0-1.88-1.89h-9A1.89,1.89,0,0,0,149.45,99.28Z"/><path class="cls-3" d="M167.78,99.28h0a1.89,1.89,0,0,0,1.88,1.89H179a1.89,1.89,0,0,0,1.88-1.89h0A1.89,1.89,0,0,0,179,97.39h-9.29A1.89,1.89,0,0,0,167.78,99.28Z"/><path class="cls-3" d="M186.28,99.28h0a1.89,1.89,0,0,0,1.88,1.89H195a1.89,1.89,0,0,0,1.88-1.89h0A1.89,1.89,0,0,0,195,97.39h-6.84A1.89,1.89,0,0,0,186.28,99.28Z"/><path class="cls-3" d="M158.06,108.58h0a1.89,1.89,0,0,0,1.88,1.89h10.55a1.89,1.89,0,0,0,1.88-1.89h0a1.89,1.89,0,0,0-1.88-1.89H159.94A1.89,1.89,0,0,0,158.06,108.58Z"/><path class="cls-3" d="M129.12,108.58h0a1.89,1.89,0,0,0,1.88,1.89h3.52a1.89,1.89,0,0,0,1.88-1.89h0a1.89,1.89,0,0,0-1.88-1.89H131A1.89,1.89,0,0,0,129.12,108.58Z"/><path class="cls-3" d="M139.91,108.58h0a1.89,1.89,0,0,0,1.88,1.89h7.79a1.89,1.89,0,0,0,1.88-1.89h0a1.89,1.89,0,0,0-1.88-1.89h-7.79A1.89,1.89,0,0,0,139.91,108.58Z"/><path class="cls-3" d="M179.33,108.58h0a1.88,1.88,0,0,0,1.87,1.89H195a1.89,1.89,0,0,0,1.88-1.89h0a1.89,1.89,0,0,0-1.88-1.89H181.2A1.88,1.88,0,0,0,179.33,108.58Z"/><path class="cls-3" d="M128.34,86.27a.86.86,0,0,1-.6-.24l-4.48-4.16,4.44-4.59a.88.88,0,0,1,1.26,0,.9.9,0,0,1,0,1.26l-3.17,3.28L129,84.72A.89.89,0,0,1,129,86,.87.87,0,0,1,128.34,86.27Z"/><path class="cls-3" d="M133.73,86.27a.88.88,0,0,1-.6-.24l-4.47-4.16,4.44-4.59a.87.87,0,0,1,1.25,0,.89.89,0,0,1,0,1.26L131.2,81.8l3.14,2.92a.9.9,0,0,1,0,1.26A.91.91,0,0,1,133.73,86.27Z"/><path class="cls-3" d="M194.4,158.27a.89.89,0,0,1-.6-1.55l3.13-2.92-3.16-3.28a.89.89,0,1,1,1.27-1.24l4.44,4.59L195,158A.89.89,0,0,1,194.4,158.27Z"/><path class="cls-3" d="M189,158.27a.87.87,0,0,1-.65-.29.89.89,0,0,1,0-1.26l3.14-2.92-3.17-3.28a.9.9,0,0,1,0-1.26.88.88,0,0,1,1.26,0l4.44,4.59L189.61,158A.88.88,0,0,1,189,158.27Z"/><path class="cls-20" d="M265.09,166.68H264a5.49,5.49,0,0,1-5.49-5.49V121a5.49,5.49,0,0,1,5.49-5.5h1.11a5.5,5.5,0,0,1,5.5,5.5v40.21A5.49,5.49,0,0,1,265.09,166.68Z"/><path class="cls-20" d="M284.63,203.69l-1.08.59a4.81,4.81,0,0,1-6.53-2L261.5,173.47a4.85,4.85,0,0,1,1.94-6.56l1.08-.59a4.81,4.81,0,0,1,6.53,2l15.53,28.84A4.87,4.87,0,0,1,284.63,203.69Z"/><path class="cls-22" d="M281.14,221.26c-3.37-6.67-1.77-14.28,3.57-17s12.39.48,15.75,7.15"/><ellipse class="cls-10" cx="264.95" cy="161.56" rx="1.94" ry="1.95"/><path class="cls-10" d="M268.56,170.78a1.95,1.95,0,1,1-1.94-1.95A2,2,0,0,1,268.56,170.78Z"/><ellipse class="cls-19" cx="265.23" cy="117.86" rx="12.08" ry="12.15"/><ellipse cx="265.23" cy="117.86" rx="8.22" ry="8.27"/><path class="cls-19" d="M281.14,221.26c-3.37-6.67-1.77-14.28,3.57-17s12.39.48,15.75,7.15"/><path class="cls-4" d="M265.46,115.48V99.82a11.25,11.25,0,0,0-11.22-11.28H199.43"/><path class="cls-4" d="M199.43,112.84H224a19.25,19.25,0,0,1,13.63,5.67l23.28,23.41"/><path class="cls-4" d="M199.43,120.94h19.43a19.23,19.23,0,0,1,13.63,5.67l28.05,28.2"/><path class="cls-17" d="M260.47,318.43l7.15-43.2a2.07,2.07,0,0,0-2-2.41H234"/><rect class="cls-6" x="354.07" y="349.66" width="123" height="113.54"/><line class="cls-13" x1="477.07" y1="372.05" x2="354.07" y2="372.05"/><line class="cls-13" x1="477.07" y1="394.44" x2="354.07" y2="394.44"/><line class="cls-13" x1="477.07" y1="416.83" x2="354.07" y2="416.83"/><line class="cls-13" x1="477.07" y1="439.22" x2="354.07" y2="439.22"/><rect class="cls-20" x="362.67" y="447.36" width="23.29" height="6.62"/><rect class="cls-20" x="397.6" y="447.36" width="68.84" height="6.62"/><rect class="cls-20" x="362.67" y="425.48" width="23.29" height="6.62"/><rect class="cls-20" x="397.6" y="425.48" width="68.84" height="6.62"/><rect class="cls-20" x="362.67" y="403.6" width="23.29" height="6.62"/><rect class="cls-20" x="397.6" y="403.6" width="68.84" height="6.62"/><rect class="cls-20" x="362.67" y="381.72" width="23.29" height="6.62"/><rect class="cls-20" x="397.6" y="381.72" width="68.84" height="6.62"/><rect class="cls-20" x="362.67" y="359.84" width="23.29" height="6.62"/><rect class="cls-20" x="397.6" y="359.84" width="68.84" height="6.62"/><ellipse class="cls-6" cx="441.39" cy="166.47" rx="3.42" ry="3.44"/><path class="cls-6" d="M470.2,160.53a3.42,3.42,0,1,1-3.42-3.43A3.43,3.43,0,0,1,470.2,160.53Z"/><path class="cls-6" d="M462.35,156a3.42,3.42,0,1,1-3.42-3.43A3.43,3.43,0,0,1,462.35,156Z"/><ellipse class="cls-6" cx="451.87" cy="148.61" rx="3.42" ry="3.44"/><polyline class="cls-4" points="466.88 158.84 467.64 326 500.67 359.2 500.67 409.96 480.74 430"/><polyline class="cls-4" points="452.02 147.39 452.02 315.31 422.78 344.7"/><line class="cls-4" x1="459.12" y1="155.68" x2="459.12" y2="340.5"/><polyline class="cls-4" points="441.38 166.47 441.38 310.73 408.36 343.93"/><ellipse class="cls-6" cx="408.31" cy="343.89" rx="3.42" ry="3.44"/><path class="cls-6" d="M462.94,343.38a3.42,3.42,0,1,1-3.42-3.43A3.43,3.43,0,0,1,462.94,343.38Z"/><ellipse class="cls-6" cx="480.11" cy="430.91" rx="3.42" ry="3.44"/><ellipse class="cls-6" cx="422.78" cy="343.89" rx="3.42" ry="3.44"/></g></svg>