<svg xmlns="http://www.w3.org/2000/svg" viewBox="0 0 592 500"><defs><style>.cls-1{fill:#fff;}.cls-2{fill:#779ce8;}.cls-3{fill:#407bff;}.cls-4{fill:#2aafeb;}.cls-5{fill:#f97d8c;stroke:#779ce8;stroke-linejoin:round;stroke-width:0.75px;}.cls-6{fill:#d7e4f9;}.cls-7{fill:#f2f1f6;}.cls-8{fill:#cacae5;}.cls-9{fill:none;}</style></defs><g id="Layer_1" data-name="Layer 1"><rect class="cls-1" x="-23.12" y="-36.76" width="672.51" height="557.68"/></g><g id="Layer_5" data-name="Layer 5"><g id="OBJECTS"><path class="cls-2" d="M212.47,353.38h-3.1a.39.39,0,1,1,0-.77h3.1a.39.39,0,1,1,0,.77Zm-6.21,0h-3.11a.39.39,0,1,1,0-.77h3.11a.39.39,0,1,1,0,.77Zm-6.22,0h-3.11a.39.39,0,1,1,0-.77H200a.39.39,0,1,1,0,.77Zm-6.22,0h-3.1a.39.39,0,1,1,0-.77h3.1a.39.39,0,1,1,0,.77Zm-6.21,0H184.5a.39.39,0,1,1,0-.77h3.11a.39.39,0,1,1,0,.77Zm-6.22,0h-3.11a.39.39,0,1,1,0-.77h3.11a.39.39,0,1,1,0,.77Zm32.8-1.38a.39.39,0,0,1-.38-.39V348.5a.39.39,0,1,1,.77,0v3.11A.39.39,0,0,1,214.19,352Zm0-6.22a.39.39,0,0,1-.38-.39v-3.11a.39.39,0,1,1,.77,0v3.11A.39.39,0,0,1,214.19,345.78Zm0-6.22a.38.38,0,0,1-.38-.39v-3.11a.39.39,0,0,1,.77,0v3.11A.38.38,0,0,1,214.19,339.56Z"/><path class="cls-2" d="M413.53,356.28h-3.11a.38.38,0,0,1-.38-.39.39.39,0,0,1,.38-.39h3.11a.39.39,0,0,1,.39.39A.38.38,0,0,1,413.53,356.28Zm-6.21,0h-3.11a.38.38,0,0,1-.39-.39.39.39,0,0,1,.39-.39h3.11a.39.39,0,0,1,.38.39A.38.38,0,0,1,407.32,356.28Zm-6.22,0H398a.39.39,0,0,1-.39-.39.4.4,0,0,1,.39-.39h3.11a.4.4,0,0,1,.39.39A.39.39,0,0,1,401.1,356.28Zm-6.22,0h-3.11a.38.38,0,0,1-.38-.39.39.39,0,0,1,.38-.39h3.11a.39.39,0,0,1,.39.39A.38.38,0,0,1,394.88,356.28Zm-6.21,0h-3.11a.38.38,0,0,1-.39-.39.39.39,0,0,1,.39-.39h3.11a.39.39,0,0,1,.38.39A.38.38,0,0,1,388.67,356.28Zm-6.22,0h-3.11a.38.38,0,0,1-.39-.39.39.39,0,0,1,.39-.39h3.11a.4.4,0,0,1,.39.39A.39.39,0,0,1,382.45,356.28Zm-4.83-1.39a.38.38,0,0,1-.39-.39v-3.1a.38.38,0,0,1,.39-.39.39.39,0,0,1,.39.39v3.1A.39.39,0,0,1,377.62,354.89Zm0-6.21a.39.39,0,0,1-.39-.39v-3.11a.38.38,0,0,1,.39-.39.39.39,0,0,1,.39.39v3.11A.4.4,0,0,1,377.62,348.68Zm0-6.22a.39.39,0,0,1-.39-.39V339a.39.39,0,0,1,.39-.39.4.4,0,0,1,.39.39v3.11A.39.39,0,0,1,377.62,342.46Z"/><path class="cls-2" d="M131.89,315.54a.38.38,0,0,1-.38-.39V312a.39.39,0,1,1,.77,0v3.11A.38.38,0,0,1,131.89,315.54Zm0-6.23a.37.37,0,0,1-.38-.38v0a.39.39,0,0,1,.38-.39H135a.39.39,0,0,1,.39.39.38.38,0,0,1-.39.39h-3Zm21.73,0h-3.11a.38.38,0,0,1-.38-.39.39.39,0,0,1,.38-.39h3.11a.39.39,0,0,1,.39.39A.38.38,0,0,1,153.62,309.29Zm-6.21,0H144.3a.38.38,0,0,1-.39-.39.39.39,0,0,1,.39-.39h3.11a.39.39,0,0,1,.38.39A.38.38,0,0,1,147.41,309.29Zm-6.22,0h-3.11a.39.39,0,0,1-.39-.39.4.4,0,0,1,.39-.39h3.11a.4.4,0,0,1,.39.39A.39.39,0,0,1,141.19,309.29Zm12.8-2.74a.39.39,0,0,1-.39-.39v-1.34a.39.39,0,1,1,.77,0v1.34A.39.39,0,0,1,154,306.55Z"/><path class="cls-2" d="M170.46,237.85a.39.39,0,0,1-.38-.39v-2.9a.39.39,0,1,1,.77,0v2.9A.39.39,0,0,1,170.46,237.85Zm0-6a.38.38,0,0,1-.38-.39v-3.1a.39.39,0,1,1,.77,0v3.1A.38.38,0,0,1,170.46,231.84Zm0-6.21a.39.39,0,0,1-.38-.39v-3.11a.39.39,0,1,1,.77,0v3.11A.39.39,0,0,1,170.46,225.63Zm0-6.22a.39.39,0,0,1-.38-.39v-3.11a.39.39,0,1,1,.77,0V219A.39.39,0,0,1,170.46,219.41Zm-2-4.25h-3.11a.39.39,0,0,1,0-.77h3.11a.39.39,0,1,1,0,.77Zm-6.21,0h-3.11a.39.39,0,1,1,0-.77h3.11a.39.39,0,0,1,0,.77Zm-6.22,0H153a.39.39,0,1,1,0-.77h3.11a.39.39,0,1,1,0,.77Zm-6.22,0h-3.11a.39.39,0,1,1,0-.77h3.11a.39.39,0,1,1,0,.77Zm-6.22,0h-3.1a.39.39,0,1,1,0-.77h3.1a.39.39,0,1,1,0,.77Zm-6.21,0H134.3a.39.39,0,1,1,0-.77h3.11a.39.39,0,1,1,0,.77Zm-6.22,0h-3.11a.39.39,0,1,1,0-.77h3.11a.39.39,0,1,1,0,.77Zm-6.22,0h-3.11a.39.39,0,0,1,0-.77H125a.39.39,0,1,1,0,.77Zm-6.21,0h-3.11a.39.39,0,1,1,0-.77h3.11a.39.39,0,0,1,0,.77Zm-3.16-3a.39.39,0,0,1-.39-.39v-3.11a.38.38,0,0,1,.39-.39.39.39,0,0,1,.39.39v3.11A.4.4,0,0,1,115.6,212.11Zm0-6.22a.39.39,0,0,1-.39-.39v-3.11a.39.39,0,0,1,.39-.39.4.4,0,0,1,.39.39v3.11A.4.4,0,0,1,115.6,205.89Zm0-6.22a.38.38,0,0,1-.39-.39v-3.11a.38.38,0,0,1,.39-.38.39.39,0,0,1,.39.38v3.11A.39.39,0,0,1,115.6,199.67Z"/><path class="cls-2" d="M297.08,195.3a.38.38,0,0,1-.39-.39v-3.1a.38.38,0,0,1,.39-.39.39.39,0,0,1,.39.39v3.1A.39.39,0,0,1,297.08,195.3Zm0-6.21a.39.39,0,0,1-.39-.39V187a.38.38,0,0,1,.39-.39.39.39,0,0,1,.39.39v1.75A.4.4,0,0,1,297.08,189.09Z"/><path class="cls-2" d="M239,175.38h-3.11a.39.39,0,0,1,0-.77H239a.39.39,0,1,1,0,.77Zm-6.21,0h-3.11a.39.39,0,1,1,0-.77h3.11a.39.39,0,0,1,0,.77Zm-6.22,0h-3.11a.39.39,0,1,1,0-.77h3.11a.39.39,0,1,1,0,.77Zm-6.22,0h-3.11a.39.39,0,1,1,0-.77h3.11a.39.39,0,1,1,0,.77Zm-6.22,0H211a.39.39,0,1,1,0-.77h3.1a.39.39,0,1,1,0,.77Zm-6.21,0h-3.11a.39.39,0,1,1,0-.77h3.11a.39.39,0,1,1,0,.77Zm-6.22,0h-3.11a.39.39,0,1,1,0-.77h3.11a.39.39,0,1,1,0,.77Zm-6.22,0h-3.1a.39.39,0,1,1,0-.77h3.1a.39.39,0,1,1,0,.77Zm-6.21,0h-3.11a.39.39,0,1,1,0-.77h3.11a.39.39,0,1,1,0,.77Zm-6.22,0h-3.11a.39.39,0,1,1,0-.77h3.11a.39.39,0,1,1,0,.77Zm-6.22,0h-3.11a.39.39,0,0,1,0-.77h3.11a.39.39,0,1,1,0,.77Zm62.63-2.65a.39.39,0,0,1-.39-.39v-3.11a.39.39,0,1,1,.77,0v3.11A.39.39,0,0,1,239.46,172.73Zm0-6.22a.38.38,0,0,1-.39-.39V164.4a.39.39,0,0,1,.39-.39h1.38a.39.39,0,0,1,.39.39.38.38,0,0,1-.39.39h-1v1.33A.38.38,0,0,1,239.46,166.51Zm20-1.72h-3.11a.38.38,0,0,1-.39-.39.39.39,0,0,1,.39-.39h3.11a.39.39,0,0,1,.38.39A.38.38,0,0,1,259.5,164.79Zm-6.22,0h-3.11a.39.39,0,0,1-.39-.39.4.4,0,0,1,.39-.39h3.11a.4.4,0,0,1,.39.39A.39.39,0,0,1,253.28,164.79Zm-6.22,0H244a.39.39,0,0,1-.39-.39A.4.4,0,0,1,244,164h3.11a.39.39,0,0,1,.39.39A.38.38,0,0,1,247.06,164.79Z"/><path class="cls-2" d="M367.12,181.9h-.79a.39.39,0,0,1-.39-.39.4.4,0,0,1,.39-.39h.79a.4.4,0,0,1,.39.39A.39.39,0,0,1,367.12,181.9Zm-3.9,0h-3.11a.38.38,0,0,1-.38-.39.39.39,0,0,1,.38-.39h3.11a.39.39,0,0,1,.39.39A.38.38,0,0,1,363.22,181.9Zm-6.21,0h-.49a.38.38,0,0,1-.38-.39v-2.62a.39.39,0,1,1,.77,0v2.23h.1a.39.39,0,0,1,.38.39A.38.38,0,0,1,357,181.9Zm-.49-5.73a.39.39,0,0,1-.38-.39v-3.11a.39.39,0,1,1,.77,0v3.11A.39.39,0,0,1,356.52,176.17Zm0-6.22a.38.38,0,0,1-.38-.39v-1.78h-.55a.39.39,0,0,1,0-.78h.93a.39.39,0,0,1,.39.39v2.17A.38.38,0,0,1,356.52,170Zm-4-2.17h-3.11a.39.39,0,0,1,0-.78h3.11a.39.39,0,1,1,0,.78Zm-6.22,0h-3.11a.39.39,0,0,1,0-.78h3.11a.39.39,0,1,1,0,.78Zm-6.21,0h-3.11a.39.39,0,1,1,0-.78h3.11a.39.39,0,0,1,0,.78Zm-6.22,0h-3.11a.39.39,0,0,1,0-.78h3.11a.39.39,0,0,1,0,.78Z"/><path class="cls-2" d="M495.59,226a.4.4,0,0,1-.39-.39V222.5a.39.39,0,0,1,.39-.39.38.38,0,0,1,.39.39v3.11A.39.39,0,0,1,495.59,226Zm0-6.22a.4.4,0,0,1-.39-.39v-.55h-1.78a.39.39,0,1,1,0-.77h2.17a.38.38,0,0,1,.39.38v.94A.39.39,0,0,1,495.59,219.78Zm-5.28-.94H487.2a.39.39,0,1,1,0-.77h3.11a.39.39,0,1,1,0,.77Zm-6.22,0H481a.39.39,0,1,1,0-.77h3.1a.39.39,0,1,1,0,.77Zm-6.21,0h-3.11a.39.39,0,1,1,0-.77h3.11a.39.39,0,1,1,0,.77Zm-6.22,0h-3.11a.39.39,0,1,1,0-.77h3.11a.39.39,0,1,1,0,.77Zm-6.22,0h-1.9a.39.39,0,0,1-.39-.39v-1.2a.39.39,0,0,1,.39-.39.38.38,0,0,1,.39.39v.82h1.51a.39.39,0,1,1,0,.77Zm-1.9-4.31a.4.4,0,0,1-.39-.39V211a.39.39,0,0,1,.39-.39.38.38,0,0,1,.39.39v3.11A.39.39,0,0,1,463.54,214.53Zm0-6.22a.4.4,0,0,1-.38-.33h-2.39a.39.39,0,0,1-.39-.39.38.38,0,0,1,.39-.39h2.77a.38.38,0,0,1,.39.39v.33A.38.38,0,0,1,463.54,208.31Zm-5.88-.33h-3.11a.39.39,0,0,1-.39-.39.38.38,0,0,1,.39-.39h3.11a.38.38,0,0,1,.38.39A.39.39,0,0,1,457.66,208Zm-6.22,0h-3.11a.4.4,0,0,1-.39-.39.39.39,0,0,1,.39-.39h3.11a.39.39,0,0,1,.39.39A.4.4,0,0,1,451.44,208Z"/><path class="cls-2" d="M471.15,314.45a.38.38,0,0,1-.39-.39v-1.48a.38.38,0,0,1,.39-.39.39.39,0,0,1,.39.39v1.48A.39.39,0,0,1,471.15,314.45Zm0-4.59a.39.39,0,0,1-.39-.39v-3.11a.39.39,0,0,1,.39-.39.4.4,0,0,1,.39.39v3.11A.4.4,0,0,1,471.15,309.86Zm6.19-3.14h-3.11a.39.39,0,1,1,0-.77h3.11a.39.39,0,1,1,0,.77Zm2.77-.33a.4.4,0,0,1-.39-.39v-3.11a.39.39,0,0,1,.78,0V306A.4.4,0,0,1,480.11,306.39Zm0-6.22a.39.39,0,0,1-.39-.39v-3.11a.39.39,0,1,1,.78,0v3.11A.39.39,0,0,1,480.11,300.17Z"/><path class="cls-3" d="M412.29,174.56a1.21,1.21,0,0,1-.38-.06L404,172.12a1.31,1.31,0,0,1-.88-1.63l1.57-5.22a.54.54,0,0,0-.24-.61,22.46,22.46,0,0,1-4.69-3.83.54.54,0,0,0-.65-.11l-4.8,2.57a1.31,1.31,0,0,1-1.78-.53l-3.9-7.27a1.29,1.29,0,0,1-.11-1,1.34,1.34,0,0,1,.64-.78l4.8-2.58a.53.53,0,0,0,.26-.6,22.64,22.64,0,0,1-.61-6,.51.51,0,0,0-.37-.53L388,142.4h0a1.31,1.31,0,0,1-.78-.64,1.29,1.29,0,0,1-.1-1l2.38-7.91a1.27,1.27,0,0,1,.63-.77,1.3,1.3,0,0,1,1-.11l5.22,1.57a.54.54,0,0,0,.61-.24,22.46,22.46,0,0,1,3.83-4.69.55.55,0,0,0,.12-.65l-2.58-4.79a1.3,1.3,0,0,1-.11-1,1.31,1.31,0,0,1,.64-.78l7.27-3.91a1.32,1.32,0,0,1,1.78.53l2.58,4.8a.53.53,0,0,0,.6.26,22.64,22.64,0,0,1,6-.61.52.52,0,0,0,.54-.37l1.56-5.22a1.32,1.32,0,0,1,1.64-.88l7.9,2.38a1.26,1.26,0,0,1,.78.63,1.3,1.3,0,0,1,.11,1l-1.57,5.22a.52.52,0,0,0,.24.61,22.46,22.46,0,0,1,4.69,3.83.55.55,0,0,0,.65.12l4.79-2.58a1.29,1.29,0,0,1,1-.1,1.26,1.26,0,0,1,.78.63l3.91,7.27a1.29,1.29,0,0,1,.1,1,1.26,1.26,0,0,1-.63.78l-4.8,2.58a.54.54,0,0,0-.26.6,22.64,22.64,0,0,1,.61,6,.53.53,0,0,0,.37.54l5.22,1.56a1.32,1.32,0,0,1,.88,1.64l-2.38,7.91a1.31,1.31,0,0,1-1.63.88L436.42,157a.53.53,0,0,0-.61.24,22.46,22.46,0,0,1-3.83,4.69.54.54,0,0,0-.12.65l2.58,4.79a1.31,1.31,0,0,1-.53,1.78L426.64,173a1.31,1.31,0,0,1-1.78-.53l-2.58-4.8a.54.54,0,0,0-.6-.26,22.72,22.72,0,0,1-6,.61.52.52,0,0,0-.54.37l-1.57,5.22a1.29,1.29,0,0,1-.63.78A1.39,1.39,0,0,1,412.29,174.56Zm-12.94-14.68a1.31,1.31,0,0,1,1,.42,22.36,22.36,0,0,0,4.53,3.7,1.31,1.31,0,0,1,.58,1.49l-1.57,5.22a.55.55,0,0,0,.37.67l7.9,2.38a.56.56,0,0,0,.67-.36l1.57-5.22a1.29,1.29,0,0,1,1.31-.93,22,22,0,0,0,5.82-.58,1.3,1.3,0,0,1,1.46.64l2.58,4.8a.54.54,0,0,0,.73.22l7.27-3.91a.54.54,0,0,0,.22-.73l-2.58-4.79a1.31,1.31,0,0,1,.27-1.58,22.15,22.15,0,0,0,3.7-4.54,1.31,1.31,0,0,1,1.49-.57l5.22,1.56a.53.53,0,0,0,.67-.36l2.38-7.9a.55.55,0,0,0-.36-.67l-5.22-1.57a1.31,1.31,0,0,1-.93-1.3,21.6,21.6,0,0,0-.59-5.83,1.32,1.32,0,0,1,.65-1.46l4.8-2.58a.52.52,0,0,0,.26-.32.53.53,0,0,0,0-.41l-3.91-7.27a.52.52,0,0,0-.32-.26.54.54,0,0,0-.41,0l-4.8,2.58a1.3,1.3,0,0,1-1.57-.27,22.15,22.15,0,0,0-4.54-3.7,1.31,1.31,0,0,1-.58-1.49l1.57-5.22a.53.53,0,0,0,0-.41.55.55,0,0,0-.32-.26l-7.9-2.37a.53.53,0,0,0-.67.36l-1.57,5.21a1.31,1.31,0,0,1-1.31.93,21.93,21.93,0,0,0-5.82.59,1.31,1.31,0,0,1-1.46-.65l-2.58-4.8a.55.55,0,0,0-.32-.26.58.58,0,0,0-.41,0l-7.27,3.91a.52.52,0,0,0-.26.32.53.53,0,0,0,0,.41l2.58,4.8a1.31,1.31,0,0,1-.27,1.58,21.82,21.82,0,0,0-3.7,4.53,1.31,1.31,0,0,1-1.49.58l-5.22-1.57a.58.58,0,0,0-.41,0,.52.52,0,0,0-.26.32l-2.38,7.9a.53.53,0,0,0,.05.41.5.5,0,0,0,.31.26l5.22,1.57a1.32,1.32,0,0,1,.93,1.31,21.49,21.49,0,0,0,.59,5.82,1.34,1.34,0,0,1-.65,1.47l-4.8,2.58a.5.5,0,0,0-.26.31.53.53,0,0,0,0,.41l3.91,7.27a.54.54,0,0,0,.73.22l4.8-2.58A1.24,1.24,0,0,1,399.35,159.88Zm17-1a14.2,14.2,0,0,1-4.81-.86c-5-1.81-9.05-7.79-8.93-13.07h0a13.73,13.73,0,0,1,18.49-12.63c5,1.81,9.05,7.79,8.92,13.07a13.74,13.74,0,0,1-13.67,13.49Zm-13-13.92c-.12,4.89,3.82,10.65,8.41,12.32a12.93,12.93,0,0,0,17.44-11.91c.12-4.89-3.81-10.65-8.41-12.32A12.94,12.94,0,0,0,403.42,145Z"/><path class="cls-4" d="M82.77,372.14a1,1,0,0,1-.42-.1.92.92,0,0,1-.45-.54l-3.1-9.78a.11.11,0,0,0-.13-.09,35.45,35.45,0,0,1-10.91-.95.14.14,0,0,0-.16.07l-4.72,9.1a.92.92,0,0,1-1.24.39l-13.22-6.87a.93.93,0,0,1-.4-1.24l4.73-9.1a.12.12,0,0,0,0-.16,35.42,35.42,0,0,1-7-8.39.15.15,0,0,0-.16-.06l-9.78,3.09a.92.92,0,0,1-1.15-.59L30.1,332.7a.92.92,0,0,1,.6-1.15l9.78-3.09a.13.13,0,0,0,.09-.14,35.39,35.39,0,0,1,1-10.9.16.16,0,0,0-.07-.16l-9.1-4.73A.9.9,0,0,1,32,311.3l6.87-13.23a.92.92,0,0,1,1.24-.39l9.1,4.73a.12.12,0,0,0,.16,0,35.85,35.85,0,0,1,8.38-7.05.12.12,0,0,0,.06-.15l-3.09-9.78a.92.92,0,0,1,.6-1.15l14.21-4.49a.9.9,0,0,1,.7.06.87.87,0,0,1,.45.54l3.09,9.77a.15.15,0,0,0,.14.1,35.45,35.45,0,0,1,10.91.94.13.13,0,0,0,.15-.06l4.73-9.1a.93.93,0,0,1,1.24-.4l13.22,6.88a.9.9,0,0,1,.39,1.23l-4.72,9.1a.14.14,0,0,0,0,.17,35.17,35.17,0,0,1,7,8.38.14.14,0,0,0,.16.06l9.78-3.09a.92.92,0,0,1,1.15.6l4.49,14.21a1,1,0,0,1-.06.7.93.93,0,0,1-.54.45l-9.78,3.09a.13.13,0,0,0-.09.14,35.45,35.45,0,0,1-1,10.91.13.13,0,0,0,.07.15l9.1,4.73a.92.92,0,0,1,.39,1.24l-6.87,13.22a.92.92,0,0,1-1.24.39l-9.1-4.73a.13.13,0,0,0-.16,0,36.05,36.05,0,0,1-8.38,7,.14.14,0,0,0-.07.15l3.09,9.78a.86.86,0,0,1-.06.7.88.88,0,0,1-.53.45l-14.21,4.49A.92.92,0,0,1,82.77,372.14Zm-4.09-11.29a.91.91,0,0,1,.87.63l3.09,9.78a.15.15,0,0,0,.17.1L97,366.86a.14.14,0,0,0,.09-.17L94,356.91a.91.91,0,0,1,.4-1.05,35,35,0,0,0,8.2-6.89.91.91,0,0,1,1.11-.21l9.1,4.72a.14.14,0,0,0,.19-.06l6.87-13.22a.14.14,0,0,0-.06-.19l-9.1-4.73a.91.91,0,0,1-.46-1,34.51,34.51,0,0,0,.92-10.67.91.91,0,0,1,.64-.93l9.77-3.09a.16.16,0,0,0,.1-.18l-4.5-14.21a.17.17,0,0,0-.17-.09l-9.78,3.09a.9.9,0,0,1-1.06-.4,34.68,34.68,0,0,0-6.89-8.19.93.93,0,0,1-.21-1.11l4.73-9.1a.14.14,0,0,0-.06-.19l-13.22-6.87a.14.14,0,0,0-.19.06l-4.73,9.1a.91.91,0,0,1-1,.46A34.83,34.83,0,0,0,73.92,291a.91.91,0,0,1-.93-.63l-3.09-9.78a.14.14,0,0,0-.07-.08.18.18,0,0,0-.11,0L55.51,285a.15.15,0,0,0-.09.18L58.51,295a.89.89,0,0,1-.4,1.05,34.93,34.93,0,0,0-8.2,6.89.89.89,0,0,1-1.1.21l-9.1-4.73a.14.14,0,0,0-.19.06l-6.87,13.23a.14.14,0,0,0,.06.19l9.1,4.73a.9.9,0,0,1,.46,1,34.83,34.83,0,0,0-.93,10.67.89.89,0,0,1-.63.93l-9.78,3.09a.17.17,0,0,0-.09.18l4.49,14.21a.17.17,0,0,0,.18.09l9.78-3.09a.9.9,0,0,1,1.05.4,34.53,34.53,0,0,0,6.89,8.2.9.9,0,0,1,.21,1.11l-4.73,9.1a.15.15,0,0,0,.06.19L62,369.55a.15.15,0,0,0,.19-.06l4.73-9.1a.89.89,0,0,1,1-.46,34.82,34.82,0,0,0,10.67.92Zm-2.34-13.63a21.4,21.4,0,1,1,6-.84h0A21.65,21.65,0,0,1,76.34,347.22Zm0-42.05a20.64,20.64,0,1,0,5.73,40.46h0a20.63,20.63,0,0,0-5.73-40.46Z"/><path class="cls-4" d="M530.16,348.16a.81.81,0,0,1-.77-.56l-2.47-7.81a29,29,0,0,1-8.77-.78l-3.8,7.28a.82.82,0,0,1-1.1.35l-10.56-5.49a.81.81,0,0,1-.34-1.09l3.77-7.27a29.1,29.1,0,0,1-5.64-6.74l-7.84,2.45a.81.81,0,0,1-1-.53L488,316.62a.81.81,0,0,1,.53-1l7.81-2.47a28.91,28.91,0,0,1,.78-8.76l-7.28-3.81a.82.82,0,0,1-.35-1.1L495,288.92a.77.77,0,0,1,.47-.4.79.79,0,0,1,.62.05l7.27,3.78a28.9,28.9,0,0,1,6.74-5.65l-2.45-7.84a.8.8,0,0,1,.53-1l11.34-3.58a.79.79,0,0,1,.62.05.77.77,0,0,1,.4.47l2.47,7.81a28.91,28.91,0,0,1,8.76.78l3.81-7.28a.8.8,0,0,1,.48-.4.77.77,0,0,1,.61.05l10.56,5.49a.81.81,0,0,1,.35,1.09l-3.78,7.27a29.1,29.1,0,0,1,5.65,6.74l7.84-2.45a.81.81,0,0,1,1,.53l3.58,11.35h0a.8.8,0,0,1-.52,1l-7.81,2.47a29.32,29.32,0,0,1-.78,8.77l7.28,3.8a.82.82,0,0,1,.35,1.1l-5.49,10.55a.82.82,0,0,1-1.09.35L546.57,330a29.15,29.15,0,0,1-6.75,5.64l2.46,7.84a.82.82,0,0,1-.53,1l-11.35,3.59ZM526.89,339a.81.81,0,0,1,.77.57l2.47,7.8,11.38-3.56L539.07,336a.8.8,0,0,1,.35-.93,27.51,27.51,0,0,0,6.53-5.49.79.79,0,0,1,1-.18l7.26,3.77,5.54-10.57-7.28-3.82a.79.79,0,0,1-.41-.91,27.58,27.58,0,0,0,.73-8.49.82.82,0,0,1,.56-.83l8.2-2.63-.37.12-3.58-11.35-7.85,2.45a.8.8,0,0,1-.93-.35,27.74,27.74,0,0,0-5.49-6.53.81.81,0,0,1-.19-1L546.9,282l-10.57-5.53-3.82,7.28a.81.81,0,0,1-.91.41,27.94,27.94,0,0,0-8.5-.74.79.79,0,0,1-.82-.56l-2.47-7.8-11.39,3.56,2.45,7.85a.8.8,0,0,1-.35.93,27.74,27.74,0,0,0-6.53,5.49.8.8,0,0,1-1,.18l-7.27-3.77-5.53,10.57,7.28,3.82a.81.81,0,0,1,.41.91,27.94,27.94,0,0,0-.74,8.5.79.79,0,0,1-.55.82l-7.81,2.47,3.56,11.39,7.85-2.45a.8.8,0,0,1,.93.35,27.74,27.74,0,0,0,5.49,6.53.8.8,0,0,1,.18,1L503,340.41,513.61,346l3.82-7.28a.8.8,0,0,1,.91-.41,27.62,27.62,0,0,0,8.5.73ZM525,328.27a17.19,17.19,0,1,1,4.78-.68A17.41,17.41,0,0,1,525,328.27Zm0-33.57a16.4,16.4,0,1,0,4.55,32.15h0A16.4,16.4,0,0,0,525,294.7Z"/><path class="cls-4" d="M377.26,390.77H217.73a.4.4,0,0,1-.39-.39.39.39,0,0,1,.39-.39H377.26a.38.38,0,0,1,.39.39A.39.39,0,0,1,377.26,390.77Z"/><path class="cls-5" d="M347.07,401.17H247.92a.39.39,0,0,1-.39-.39.4.4,0,0,1,.39-.39h99.15a.39.39,0,0,1,.39.39A.38.38,0,0,1,347.07,401.17Z"/><path class="cls-6" d="M174.92,392.43H68a1,1,0,0,1-1-1V320a2.83,2.83,0,0,1,2.83-2.83H173.08a2.83,2.83,0,0,1,2.83,2.83v71.46A1,1,0,0,1,174.92,392.43Z"/><path class="cls-2" d="M174.92,392.82H68a1.38,1.38,0,0,1-1.38-1.38V320a3.23,3.23,0,0,1,3.22-3.22H173.08A3.22,3.22,0,0,1,176.3,320v71.46A1.38,1.38,0,0,1,174.92,392.82ZM69.84,317.54A2.44,2.44,0,0,0,67.4,320v71.46a.6.6,0,0,0,.6.61H174.92a.6.6,0,0,0,.6-.61V320a2.44,2.44,0,0,0-2.44-2.44Z"/><polyline class="cls-7" points="167.94 373.95 167.94 385.21 74.97 385.21 74.97 324.37 167.94 324.37 167.94 338.43"/><path class="cls-2" d="M167.94,385.6H75a.38.38,0,0,1-.38-.39V324.37A.38.38,0,0,1,75,324h93a.38.38,0,0,1,.39.38v14.06a.39.39,0,1,1-.77,0V324.76H75.36v60.06h92.2V374a.39.39,0,1,1,.77,0v11.26A.38.38,0,0,1,167.94,385.6Z"/><path class="cls-2" d="M167.94,363.74a.38.38,0,0,1-.38-.38V343.73a.39.39,0,1,1,.77,0v19.63A.38.38,0,0,1,167.94,363.74Z"/><path class="cls-2" d="M121.46,322.07a1.23,1.23,0,1,1,1.22-1.23A1.22,1.22,0,0,1,121.46,322.07Zm0-1.67a.45.45,0,1,0,.44.44A.45.45,0,0,0,121.46,320.4Z"/><path class="cls-2" d="M189.93,401.61H53a3.8,3.8,0,0,1-3.8-3.8v-5.95H193.73v5.95A3.8,3.8,0,0,1,189.93,401.61Z"/><path class="cls-2" d="M189.93,402H53a4.2,4.2,0,0,1-4.19-4.19v-5.95a.39.39,0,0,1,.39-.38H193.73a.39.39,0,0,1,.39.38v5.95A4.2,4.2,0,0,1,189.93,402ZM49.58,392.25v5.56A3.41,3.41,0,0,0,53,401.22H189.93a3.41,3.41,0,0,0,3.41-3.41v-5.56Z"/><path class="cls-2" d="M192.35,399.71H50.57a.39.39,0,1,1,0-.77H192.35a.39.39,0,1,1,0,.77Z"/><rect class="cls-1" x="107.66" y="392.47" width="27.59" height="3.05"/><path class="cls-2" d="M135.25,395.91H107.66a.39.39,0,0,1-.38-.39v-3a.39.39,0,0,1,.38-.39h27.59a.39.39,0,0,1,.39.39v3A.39.39,0,0,1,135.25,395.91Zm-27.2-.78h26.81v-2.27H108.05Z"/><path class="cls-8" d="M141.37,378.54H95.53a2,2,0,0,1-2-2V337.9a2,2,0,0,1,2-2h45.84a2,2,0,0,1,2,2v38.65A2,2,0,0,1,141.37,378.54Z"/><path class="cls-1" d="M144.32,375.18H99.18a2.35,2.35,0,0,1-2.34-2.35V334.89a2.34,2.34,0,0,1,2.34-2.34h45.14a2.34,2.34,0,0,1,2.34,2.34v37.94A2.35,2.35,0,0,1,144.32,375.18Z"/><path class="cls-2" d="M144.32,375.56H99.18a2.73,2.73,0,0,1-2.73-2.73V334.89a2.73,2.73,0,0,1,2.73-2.73h45.14a2.73,2.73,0,0,1,2.73,2.73v37.94A2.73,2.73,0,0,1,144.32,375.56ZM99.18,332.93a2,2,0,0,0-2,2v37.95a2,2,0,0,0,2,2h45.14a2,2,0,0,0,2-2V334.89a2,2,0,0,0-2-2Z"/><path class="cls-3" d="M136.72,359.6h-30a2.18,2.18,0,0,1-2.18-2.17v-.26a2.19,2.19,0,0,1,2.18-2.18h30.05a2.18,2.18,0,0,1,2.17,2.18v.26A2.17,2.17,0,0,1,136.72,359.6Z"/><path class="cls-2" d="M136.72,360h-30a2.56,2.56,0,0,1-2.56-2.56v-.26a2.56,2.56,0,0,1,2.56-2.57h30.05a2.57,2.57,0,0,1,2.56,2.57v.26A2.56,2.56,0,0,1,136.72,360Zm-30-4.61a1.79,1.79,0,0,0-1.79,1.79v.26a1.79,1.79,0,0,0,1.79,1.78h30.05a1.78,1.78,0,0,0,1.78-1.78v-.26a1.79,1.79,0,0,0-1.78-1.79Z"/><path class="cls-1" d="M134,358.17H109.16a.93.93,0,0,1-.93-.93v-.08a.93.93,0,0,1,.93-.93H134a.93.93,0,0,1,.93.93v.08A.93.93,0,0,1,134,358.17Zm-24.86-1.55a.54.54,0,0,0-.54.53v.09a.54.54,0,0,0,.54.54H134a.54.54,0,0,0,.54-.54v-.09a.54.54,0,0,0-.54-.53Z"/><path class="cls-3" d="M131.6,364.86H111.79a1.34,1.34,0,0,1-1.34-1.34h0a1.34,1.34,0,0,1,1.34-1.34H131.6a1.34,1.34,0,0,1,1.34,1.34h0A1.34,1.34,0,0,1,131.6,364.86Z"/><path class="cls-2" d="M131.6,365.25H111.79a1.73,1.73,0,1,1,0-3.46H131.6a1.73,1.73,0,0,1,0,3.46Zm-19.81-2.68a1,1,0,1,0,0,1.9H131.6a1,1,0,0,0,0-1.9Z"/><path class="cls-1" d="M115.63,364.16a.65.65,0,1,1,.64-.64A.65.65,0,0,1,115.63,364.16Zm0-.9a.26.26,0,0,0-.26.26.26.26,0,0,0,.51,0A.26.26,0,0,0,115.63,363.26Z"/><path class="cls-1" d="M118.11,364.16a.65.65,0,1,1,.65-.64A.64.64,0,0,1,118.11,364.16Zm0-.9a.26.26,0,0,0-.25.26.25.25,0,0,0,.25.25.26.26,0,0,0,.26-.25A.26.26,0,0,0,118.11,363.26Z"/><path class="cls-1" d="M120.43,364.16a.65.65,0,1,1,.65-.64A.64.64,0,0,1,120.43,364.16Zm0-.9a.26.26,0,0,0-.25.26.26.26,0,0,0,.51,0A.26.26,0,0,0,120.43,363.26Z"/><path class="cls-1" d="M122.92,364.16a.65.65,0,1,1,.65-.64A.64.64,0,0,1,122.92,364.16Zm0-.9a.26.26,0,0,0-.26.26.26.26,0,0,0,.52,0A.26.26,0,0,0,122.92,363.26Z"/><path class="cls-1" d="M125.34,364.16a.65.65,0,1,1,.65-.64A.65.65,0,0,1,125.34,364.16Zm0-.9a.26.26,0,0,0-.26.26.26.26,0,0,0,.52,0A.26.26,0,0,0,125.34,363.26Z"/><path class="cls-1" d="M127.83,364.16a.65.65,0,1,1,.64-.64A.65.65,0,0,1,127.83,364.16Zm0-.9a.26.26,0,0,0-.26.26.26.26,0,0,0,.51,0A.26.26,0,0,0,127.83,363.26Z"/><circle class="cls-4" cx="121.69" cy="344.76" r="7.2"/><path class="cls-2" d="M121.69,352.35a7.59,7.59,0,1,1,7.59-7.59A7.61,7.61,0,0,1,121.69,352.35Zm0-14.41a6.82,6.82,0,1,0,6.82,6.82A6.83,6.83,0,0,0,121.69,337.94Z"/><path class="cls-1" d="M124.89,348.39a3.2,3.2,0,0,0-6.4,0S124.89,348.41,124.89,348.39Z"/><path class="cls-2" d="M122,348.79h-2.4c-1.51,0-1.51,0-1.51-.4a3.59,3.59,0,0,1,7.18,0C125.28,348.79,125.28,348.79,122,348.79Zm2.87-.4h0Zm-6-.38h5.57a2.81,2.81,0,0,0-5.57,0Z"/><path class="cls-1" d="M119.9,342.93a1.82,1.82,0,1,0,1.81-1.82A1.81,1.81,0,0,0,119.9,342.93Z"/><path class="cls-2" d="M121.71,345.14a2.21,2.21,0,1,1,2.21-2.21A2.21,2.21,0,0,1,121.71,345.14Zm0-3.64a1.43,1.43,0,1,0,1.43,1.43A1.44,1.44,0,0,0,121.71,341.5Z"/><path class="cls-4" d="M125.36,370.31H118a1.65,1.65,0,0,1-1.65-1.65h0A1.65,1.65,0,0,1,118,367h7.33a1.65,1.65,0,0,1,1.65,1.65h0A1.65,1.65,0,0,1,125.36,370.31Z"/><path class="cls-2" d="M125.36,370.7H118a2,2,0,0,1,0-4.08h7.33a2,2,0,0,1,0,4.08ZM118,367.4a1.26,1.26,0,1,0,0,2.52h7.33a1.26,1.26,0,1,0,0-2.52Z"/><path class="cls-6" d="M524.88,392.43H418a1,1,0,0,1-1-1V320a2.83,2.83,0,0,1,2.83-2.83H523a2.83,2.83,0,0,1,2.83,2.83v71.46A1,1,0,0,1,524.88,392.43Z"/><path class="cls-2" d="M524.88,392.82H418a1.38,1.38,0,0,1-1.38-1.38V320a3.22,3.22,0,0,1,3.22-3.22H523a3.22,3.22,0,0,1,3.21,3.22v71.46A1.37,1.37,0,0,1,524.88,392.82ZM419.8,317.54a2.44,2.44,0,0,0-2.44,2.44v71.46a.6.6,0,0,0,.6.61H524.88a.6.6,0,0,0,.6-.61V320a2.44,2.44,0,0,0-2.44-2.44Z"/><polyline class="cls-7" points="424.93 336.78 424.93 324.37 517.9 324.37 517.9 385.21 424.93 385.21 424.93 373.81"/><path class="cls-2" d="M517.9,385.6h-93a.39.39,0,0,1-.39-.39v-11.4a.4.4,0,0,1,.39-.39.39.39,0,0,1,.39.39v11h92.19V324.76H425.32v12a.38.38,0,0,1-.39.39.39.39,0,0,1-.39-.39V324.37a.39.39,0,0,1,.39-.38h93a.38.38,0,0,1,.39.38v60.84A.38.38,0,0,1,517.9,385.6Z"/><path class="cls-2" d="M424.93,363.43a.4.4,0,0,1-.39-.39V343.3a.4.4,0,0,1,.39-.39.39.39,0,0,1,.39.39V363A.39.39,0,0,1,424.93,363.43Z"/><path class="cls-2" d="M471.42,322.07a1.23,1.23,0,1,1,1.22-1.23A1.22,1.22,0,0,1,471.42,322.07Zm0-1.67a.45.45,0,1,0,.44.44A.45.45,0,0,0,471.42,320.4Z"/><path class="cls-2" d="M539.89,401.61H403a3.8,3.8,0,0,1-3.8-3.8v-5.95H543.69v5.95A3.8,3.8,0,0,1,539.89,401.61Z"/><path class="cls-2" d="M539.89,402H403a4.2,4.2,0,0,1-4.19-4.19v-5.95a.38.38,0,0,1,.39-.38H543.69a.38.38,0,0,1,.38.38v5.95A4.19,4.19,0,0,1,539.89,402Zm-140.35-9.75v5.56a3.41,3.41,0,0,0,3.41,3.41H539.89a3.41,3.41,0,0,0,3.41-3.41v-5.56Z"/><path class="cls-2" d="M542.31,399.71H400.53a.39.39,0,1,1,0-.77H542.31a.39.39,0,1,1,0,.77Z"/><rect class="cls-1" x="457.62" y="392.47" width="27.59" height="3.05"/><path class="cls-2" d="M485.21,395.91H457.62a.39.39,0,0,1-.38-.39v-3a.39.39,0,0,1,.38-.39h27.59a.39.39,0,0,1,.39.39v3A.39.39,0,0,1,485.21,395.91Zm-27.2-.78h26.81v-2.27H458Z"/><path class="cls-8" d="M491.33,378.54H445.49a2,2,0,0,1-2-2V337.9a2,2,0,0,1,2-2h45.84a2,2,0,0,1,2,2v38.65A2,2,0,0,1,491.33,378.54Z"/><path class="cls-1" d="M494.28,375.18H449.14a2.35,2.35,0,0,1-2.34-2.35V334.89a2.34,2.34,0,0,1,2.34-2.34h45.14a2.34,2.34,0,0,1,2.34,2.34v37.94A2.35,2.35,0,0,1,494.28,375.18Z"/><path class="cls-2" d="M494.28,375.56H449.14a2.73,2.73,0,0,1-2.73-2.73V334.89a2.73,2.73,0,0,1,2.73-2.73h45.14a2.73,2.73,0,0,1,2.73,2.73v37.94A2.73,2.73,0,0,1,494.28,375.56Zm-45.14-42.63a2,2,0,0,0-1.95,2v37.95a2,2,0,0,0,1.95,2h45.14a2,2,0,0,0,2-2V334.89a2,2,0,0,0-2-2Z"/><path class="cls-3" d="M486.68,359.6H456.63a2.18,2.18,0,0,1-2.18-2.17v-.26a2.19,2.19,0,0,1,2.18-2.18h30.05a2.18,2.18,0,0,1,2.17,2.18v.26A2.17,2.17,0,0,1,486.68,359.6Z"/><path class="cls-2" d="M486.68,360H456.62a2.56,2.56,0,0,1-2.56-2.56v-.26a2.57,2.57,0,0,1,2.56-2.57h30.06a2.57,2.57,0,0,1,2.56,2.57v.26A2.56,2.56,0,0,1,486.68,360Zm-30.06-4.61a1.79,1.79,0,0,0-1.78,1.79v.26a1.78,1.78,0,0,0,1.78,1.78h30.06a1.78,1.78,0,0,0,1.78-1.78v-.26a1.79,1.79,0,0,0-1.78-1.79Z"/><path class="cls-1" d="M484,358.17H459.11a.93.93,0,0,1-.92-.93v-.08a.92.92,0,0,1,.92-.93H484a.93.93,0,0,1,.93.93v.08A.93.93,0,0,1,484,358.17Zm-24.87-1.55a.53.53,0,0,0-.53.53v.09a.54.54,0,0,0,.53.54H484a.54.54,0,0,0,.54-.54v-.09a.54.54,0,0,0-.54-.53Z"/><path class="cls-3" d="M481.56,364.86H461.75a1.34,1.34,0,0,1-1.34-1.34h0a1.34,1.34,0,0,1,1.34-1.34h19.81a1.34,1.34,0,0,1,1.34,1.34h0A1.34,1.34,0,0,1,481.56,364.86Z"/><path class="cls-2" d="M481.56,365.25H461.75a1.73,1.73,0,0,1,0-3.46h19.81a1.73,1.73,0,0,1,0,3.46Zm-19.81-2.68a1,1,0,0,0,0,1.9h19.81a.95.95,0,0,0,0-1.9Z"/><path class="cls-1" d="M465.58,364.16a.65.65,0,1,1,.65-.64A.64.64,0,0,1,465.58,364.16Zm0-.9a.26.26,0,0,0-.25.26.26.26,0,0,0,.51,0A.26.26,0,0,0,465.58,363.26Z"/><path class="cls-1" d="M468.07,364.16a.65.65,0,1,1,.65-.64A.64.64,0,0,1,468.07,364.16Zm0-.9a.26.26,0,0,0-.26.26.26.26,0,0,0,.52,0A.26.26,0,0,0,468.07,363.26Z"/><path class="cls-1" d="M470.39,364.16a.65.65,0,1,1,.65-.64A.64.64,0,0,1,470.39,364.16Zm0-.9a.26.26,0,0,0-.25.26.25.25,0,0,0,.25.25.26.26,0,0,0,.26-.25A.26.26,0,0,0,470.39,363.26Z"/><path class="cls-1" d="M472.88,364.16a.65.65,0,1,1,.64-.64A.64.64,0,0,1,472.88,364.16Zm0-.9a.26.26,0,0,0-.26.26.26.26,0,0,0,.52,0A.26.26,0,0,0,472.88,363.26Z"/><path class="cls-1" d="M475.3,364.16a.65.65,0,1,1,.64-.64A.65.65,0,0,1,475.3,364.16Zm0-.9a.26.26,0,0,0-.26.26.26.26,0,0,0,.26.25.25.25,0,0,0,.25-.25A.26.26,0,0,0,475.3,363.26Z"/><path class="cls-1" d="M477.79,364.16a.65.65,0,1,1,.64-.64A.65.65,0,0,1,477.79,364.16Zm0-.9a.26.26,0,0,0-.26.26.26.26,0,0,0,.51,0A.26.26,0,0,0,477.79,363.26Z"/><circle class="cls-4" cx="471.65" cy="344.76" r="7.2"/><path class="cls-2" d="M471.65,352.35a7.59,7.59,0,1,1,7.59-7.59A7.61,7.61,0,0,1,471.65,352.35Zm0-14.41a6.82,6.82,0,1,0,6.82,6.82A6.82,6.82,0,0,0,471.65,337.94Z"/><path class="cls-1" d="M474.85,348.39a3.2,3.2,0,0,0-6.4,0S474.85,348.41,474.85,348.39Z"/><path class="cls-2" d="M472,348.79h-2.4c-1.51,0-1.51,0-1.51-.4a3.59,3.59,0,0,1,7.18,0C475.24,348.79,475.24,348.79,472,348.79Zm2.87-.4h0Zm-6-.38h5.57a2.81,2.81,0,0,0-5.57,0Z"/><path class="cls-1" d="M469.85,342.93a1.82,1.82,0,1,0,1.82-1.82A1.82,1.82,0,0,0,469.85,342.93Z"/><path class="cls-2" d="M471.67,345.14a2.21,2.21,0,1,1,2.21-2.21A2.21,2.21,0,0,1,471.67,345.14Zm0-3.64a1.43,1.43,0,1,0,1.43,1.43A1.43,1.43,0,0,0,471.67,341.5Z"/><path class="cls-4" d="M475.32,370.31H468a1.65,1.65,0,0,1-1.65-1.65h0A1.65,1.65,0,0,1,468,367h7.34a1.65,1.65,0,0,1,1.65,1.65h0A1.65,1.65,0,0,1,475.32,370.31Z"/><path class="cls-2" d="M475.32,370.7H468a2,2,0,0,1,0-4.08h7.34a2,2,0,0,1,0,4.08ZM468,367.4a1.26,1.26,0,1,0,0,2.52h7.34a1.26,1.26,0,0,0,0-2.52Z"/><path class="cls-4" d="M208.34,139.28l-2.77-8.77a1,1,0,0,0-1.29-.67l-5.79,1.83a1,1,0,0,1-1.18-.44,24.6,24.6,0,0,0-4.27-5.08,1.05,1.05,0,0,1-.23-1.24l2.8-5.38a1,1,0,0,0-.44-1.4L187,113.89a1,1,0,0,0-1.39.44l-2.8,5.39a1,1,0,0,1-1.15.52,24.68,24.68,0,0,0-6.61-.57,1,1,0,0,1-1-.71l-1.83-5.79a1,1,0,0,0-1.3-.67l-8.77,2.77a1,1,0,0,0-.67,1.29l1.83,5.79a1,1,0,0,1-.44,1.18,24.34,24.34,0,0,0-5.08,4.27,1,1,0,0,1-1.24.23l-5.39-2.8a1,1,0,0,0-1.39.44l-4.24,8.16a1,1,0,0,0,.44,1.39l5.39,2.8a1,1,0,0,1,.52,1.14,25.21,25.21,0,0,0-.58,6.62,1,1,0,0,1-.71,1l-5.78,1.83a1,1,0,0,0-.68,1.3l2.78,8.77a1,1,0,0,0,1.29.67l5.79-1.83a1,1,0,0,1,1.18.44,24.34,24.34,0,0,0,4.27,5.08,1.05,1.05,0,0,1,.23,1.24l-2.8,5.39a1,1,0,0,0,.44,1.39l8.16,4.24a1,1,0,0,0,1.39-.44l2.8-5.39a1,1,0,0,1,1.14-.52,24.79,24.79,0,0,0,6.62.57,1,1,0,0,1,1,.71l1.83,5.79a1,1,0,0,0,1.3.68l8.77-2.78a1,1,0,0,0,.67-1.29l-1.83-5.79a1,1,0,0,1,.44-1.18,24.6,24.6,0,0,0,5.08-4.27,1.05,1.05,0,0,1,1.24-.23l5.38,2.8a1,1,0,0,0,1.4-.44l4.24-8.16a1,1,0,0,0-.44-1.39l-5.39-2.8a1,1,0,0,1-.52-1.14,24.79,24.79,0,0,0,.57-6.62,1,1,0,0,1,.71-1l5.79-1.83A1,1,0,0,0,208.34,139.28Zm-26.69,19.08A14.85,14.85,0,0,1,161.44,145c-.21-5.65,4.18-12.27,9.47-14.28a14.85,14.85,0,0,1,20.2,13.39C191.33,149.73,186.94,156.36,181.65,158.36Z"/><path class="cls-2" d="M181.25,177.16a1.41,1.41,0,0,1-1.36-1l-1.83-5.79a.63.63,0,0,0-.65-.44,24.82,24.82,0,0,1-6.71-.58.65.65,0,0,0-.72.32l-2.8,5.39a1.41,1.41,0,0,1-1.91.6l-8.16-4.24a1.42,1.42,0,0,1-.61-1.91l2.8-5.39a.63.63,0,0,0-.15-.77,25.19,25.19,0,0,1-4.33-5.16.65.65,0,0,0-.73-.28l-5.79,1.83a1.41,1.41,0,0,1-1.78-.92l-2.78-8.77a1.43,1.43,0,0,1,.93-1.79l5.79-1.82a.65.65,0,0,0,.44-.65,25.26,25.26,0,0,1,.58-6.72.62.62,0,0,0-.32-.71l-5.39-2.8a1.47,1.47,0,0,1-.7-.83,1.42,1.42,0,0,1,.1-1.09l4.24-8.16a1.42,1.42,0,0,1,1.91-.6l5.39,2.79a.63.63,0,0,0,.77-.14,25.24,25.24,0,0,1,5.16-4.34.63.63,0,0,0,.28-.73l-1.83-5.79a1.41,1.41,0,0,1,.92-1.78l8.77-2.77a1.42,1.42,0,0,1,1.09.09,1.47,1.47,0,0,1,.7.83l1.83,5.79a.63.63,0,0,0,.65.44,25.23,25.23,0,0,1,6.71.58.62.62,0,0,0,.71-.32l2.8-5.38a1.44,1.44,0,0,1,1.92-.61l8.16,4.24a1.4,1.4,0,0,1,.7.83,1.42,1.42,0,0,1-.1,1.09l-2.79,5.38a.63.63,0,0,0,.14.77,25.51,25.51,0,0,1,4.34,5.16.62.62,0,0,0,.73.28l5.79-1.83a1.4,1.4,0,0,1,1.08.1,1.37,1.37,0,0,1,.7.83l2.77,8.77a1.41,1.41,0,0,1-.92,1.78L202,142.78a.64.64,0,0,0-.44.65,25.23,25.23,0,0,1-.58,6.71.63.63,0,0,0,.32.72l5.38,2.8a1.42,1.42,0,0,1,.61,1.91l-4.24,8.16a1.4,1.4,0,0,1-.83.7,1.42,1.42,0,0,1-1.09-.09l-5.38-2.8a.64.64,0,0,0-.77.15,25.14,25.14,0,0,1-5.16,4.33.64.64,0,0,0-.28.74l1.83,5.78a1.43,1.43,0,0,1-.93,1.79l-8.77,2.77A1.52,1.52,0,0,1,181.25,177.16Zm-3.8-8a1.4,1.4,0,0,1,1.35,1l1.83,5.79a.65.65,0,0,0,.81.42l8.77-2.77a.64.64,0,0,0,.42-.81L188.8,167a1.42,1.42,0,0,1,.6-1.62,24.61,24.61,0,0,0,5-4.21,1.43,1.43,0,0,1,1.7-.31l5.38,2.8a.65.65,0,0,0,.49,0,.62.62,0,0,0,.38-.31l4.24-8.17a.63.63,0,0,0-.27-.86l-5.39-2.8a1.42,1.42,0,0,1-.72-1.58,24.49,24.49,0,0,0,.57-6.5,1.41,1.41,0,0,1,1-1.43l5.78-1.83a.61.61,0,0,0,.38-.32.6.6,0,0,0,0-.49l-2.77-8.77a.6.6,0,0,0-.31-.37.65.65,0,0,0-.49,0L198.61,132a1.42,1.42,0,0,1-1.63-.6,24.24,24.24,0,0,0-4.2-5,1.42,1.42,0,0,1-.31-1.71l2.8-5.38a.64.64,0,0,0,0-.49.61.61,0,0,0-.32-.38l-8.16-4.24a.64.64,0,0,0-.49,0,.65.65,0,0,0-.38.31l-2.8,5.39a1.41,1.41,0,0,1-1.57.72,24.11,24.11,0,0,0-6.51-.56,1.42,1.42,0,0,1-1.42-1l-1.83-5.79a.67.67,0,0,0-.32-.38.64.64,0,0,0-.49,0l-8.77,2.77a.63.63,0,0,0-.38.32.64.64,0,0,0,0,.49l1.83,5.78a1.44,1.44,0,0,1-.6,1.63,24.56,24.56,0,0,0-5,4.2,1.4,1.4,0,0,1-1.7.31L151,125.58a.63.63,0,0,0-.87.27L145.86,134a.64.64,0,0,0-.05.49.67.67,0,0,0,.32.38l5.39,2.8a1.42,1.42,0,0,1,.72,1.57,24.53,24.53,0,0,0-.57,6.51,1.43,1.43,0,0,1-1,1.43L144.9,149a.63.63,0,0,0-.41.8l2.77,8.77a.63.63,0,0,0,.8.42l5.79-1.83a1.42,1.42,0,0,1,1.62.61,24.88,24.88,0,0,0,4.21,5,1.4,1.4,0,0,1,.31,1.7l-2.8,5.39a.64.64,0,0,0,.28.86l8.16,4.24a.64.64,0,0,0,.49.05.65.65,0,0,0,.37-.32l2.8-5.39a1.44,1.44,0,0,1,1.58-.72,24.49,24.49,0,0,0,6.5.57Zm-1.21-9.41A15.24,15.24,0,0,1,161.06,145c-.22-5.87,4.22-12.58,9.71-14.66a15.24,15.24,0,0,1,20.73,13.74c.22,5.86-4.23,12.57-9.71,14.66A15.62,15.62,0,0,1,176.24,159.76Zm.07-29.68a14.66,14.66,0,0,0-5.26,1c-5.12,1.94-9.42,8.43-9.22,13.9a14.46,14.46,0,0,0,19.68,13l.14.36-.14-.36c5.12-1.94,9.42-8.44,9.22-13.91a14.48,14.48,0,0,0-14.42-14Z"/><path class="cls-6" d="M178.06,181.45H71.14a1,1,0,0,1-1-1V109A2.83,2.83,0,0,1,73,106.17H176.22a2.83,2.83,0,0,1,2.83,2.83v71.46A1,1,0,0,1,178.06,181.45Z"/><path class="cls-2" d="M178.06,181.84H71.14a1.38,1.38,0,0,1-1.38-1.38V109A3.22,3.22,0,0,1,73,105.78H176.22a3.22,3.22,0,0,1,3.22,3.22v71.46A1.38,1.38,0,0,1,178.06,181.84ZM73,106.56A2.44,2.44,0,0,0,70.54,109v71.46a.6.6,0,0,0,.6.6H178.06a.6.6,0,0,0,.6-.6V109a2.44,2.44,0,0,0-2.44-2.44Z"/><polyline class="cls-7" points="171.09 162.97 171.09 174.23 78.11 174.23 78.11 113.39 171.09 113.39 171.09 127.45"/><path class="cls-2" d="M171.08,174.62h-93a.39.39,0,0,1-.38-.39V113.39a.39.39,0,0,1,.38-.39h93a.39.39,0,0,1,.39.39v14.06a.39.39,0,1,1-.77,0V113.78H78.5v60.06h92.2V163a.39.39,0,1,1,.77,0v11.26A.39.39,0,0,1,171.08,174.62Z"/><path class="cls-2" d="M171.08,152.76a.38.38,0,0,1-.38-.39V132.75a.39.39,0,1,1,.77,0v19.62A.38.38,0,0,1,171.08,152.76Z"/><path class="cls-2" d="M124.6,111.08a1.22,1.22,0,1,1,1.22-1.22A1.22,1.22,0,0,1,124.6,111.08Zm0-1.66a.45.45,0,1,0,0,.89.45.45,0,0,0,0-.89Z"/><path class="cls-2" d="M193.07,190.63H56.13a3.8,3.8,0,0,1-3.8-3.8v-6H196.87v6A3.8,3.8,0,0,1,193.07,190.63Z"/><path class="cls-2" d="M193.07,191H56.13a4.2,4.2,0,0,1-4.19-4.19v-6a.4.4,0,0,1,.39-.39H196.87a.4.4,0,0,1,.39.39v6A4.2,4.2,0,0,1,193.07,191ZM52.72,181.27v5.56a3.41,3.41,0,0,0,3.41,3.41H193.07a3.41,3.41,0,0,0,3.41-3.41v-5.56Z"/><path class="cls-2" d="M195.49,188.73H53.71a.39.39,0,0,1-.39-.39.4.4,0,0,1,.39-.39H195.49a.4.4,0,0,1,.39.39A.39.39,0,0,1,195.49,188.73Z"/><rect class="cls-1" x="110.81" y="181.49" width="27.59" height="3.05"/><path class="cls-2" d="M138.39,184.92H110.81a.38.38,0,0,1-.39-.38v-3a.39.39,0,0,1,.39-.39h27.58a.39.39,0,0,1,.39.39v3A.38.38,0,0,1,138.39,184.92Zm-27.2-.77H138v-2.27H111.19Z"/><path class="cls-8" d="M144.51,167.56H98.67a2,2,0,0,1-2-2V126.92a2,2,0,0,1,2-2h45.84a2,2,0,0,1,2,2v38.65A2,2,0,0,1,144.51,167.56Z"/><path class="cls-1" d="M147.46,164.19H102.32a2.34,2.34,0,0,1-2.34-2.34V123.9a2.34,2.34,0,0,1,2.34-2.34h45.14a2.34,2.34,0,0,1,2.34,2.34v37.95A2.34,2.34,0,0,1,147.46,164.19Z"/><path class="cls-2" d="M147.46,164.58H102.32a2.73,2.73,0,0,1-2.73-2.73V123.9a2.74,2.74,0,0,1,2.73-2.73h45.14a2.74,2.74,0,0,1,2.73,2.73v37.95A2.73,2.73,0,0,1,147.46,164.58ZM102.32,122a2,2,0,0,0-1.95,2v37.95a2,2,0,0,0,1.95,2h45.14a2,2,0,0,0,1.95-2V123.9a2,2,0,0,0-1.95-2Z"/><path class="cls-3" d="M139.86,148.62H109.81a2.17,2.17,0,0,1-2.17-2.17v-.27a2.17,2.17,0,0,1,2.17-2.17h30.05a2.17,2.17,0,0,1,2.17,2.17v.27A2.17,2.17,0,0,1,139.86,148.62Z"/><path class="cls-2" d="M139.86,149H109.81a2.56,2.56,0,0,1-2.56-2.56v-.27a2.56,2.56,0,0,1,2.56-2.56h30.05a2.56,2.56,0,0,1,2.56,2.56v.27A2.56,2.56,0,0,1,139.86,149Zm-30.05-4.61a1.79,1.79,0,0,0-1.79,1.78v.27a1.79,1.79,0,0,0,1.79,1.78h30.05a1.78,1.78,0,0,0,1.78-1.78v-.27a1.78,1.78,0,0,0-1.78-1.78Z"/><path class="cls-1" d="M137.16,147.19H112.3a.93.93,0,0,1-.93-.93v-.09a.93.93,0,0,1,.93-.92h24.86a.93.93,0,0,1,.93.92v.09A.93.93,0,0,1,137.16,147.19Zm-24.86-1.56a.54.54,0,0,0-.54.54v.09a.54.54,0,0,0,.54.54h24.86a.54.54,0,0,0,.54-.54v-.09a.54.54,0,0,0-.54-.54Z"/><path class="cls-3" d="M134.74,153.87H114.93a1.33,1.33,0,0,1-1.34-1.33h0a1.34,1.34,0,0,1,1.34-1.34h19.81a1.34,1.34,0,0,1,1.34,1.34h0A1.33,1.33,0,0,1,134.74,153.87Z"/><path class="cls-2" d="M134.74,154.26H114.93a1.73,1.73,0,1,1,0-3.45h19.81a1.73,1.73,0,1,1,0,3.45Zm-19.81-2.67a.95.95,0,1,0,0,1.9h19.81a.95.95,0,0,0,0-1.9Z"/><path class="cls-1" d="M118.77,153.18a.65.65,0,1,1,.64-.64A.65.65,0,0,1,118.77,153.18Zm0-.9a.26.26,0,1,0,0,.51.26.26,0,0,0,0-.51Z"/><path class="cls-1" d="M121.25,153.18a.65.65,0,1,1,.65-.64A.64.64,0,0,1,121.25,153.18Zm0-.9a.26.26,0,0,0,0,.51.26.26,0,1,0,0-.51Z"/><path class="cls-1" d="M123.58,153.18a.65.65,0,1,1,.64-.64A.65.65,0,0,1,123.58,153.18Zm0-.9a.26.26,0,1,0,0,.51.26.26,0,0,0,0-.51Z"/><path class="cls-1" d="M126.06,153.18a.65.65,0,1,1,.65-.64A.64.64,0,0,1,126.06,153.18Zm0-.9a.26.26,0,0,0,0,.51.26.26,0,1,0,0-.51Z"/><path class="cls-1" d="M128.48,153.18a.65.65,0,0,1,0-1.29.65.65,0,1,1,0,1.29Zm0-.9a.26.26,0,1,0,.26.26A.26.26,0,0,0,128.48,152.28Z"/><path class="cls-1" d="M131,153.18a.65.65,0,1,1,.64-.64A.65.65,0,0,1,131,153.18Zm0-.9a.26.26,0,1,0,0,.51.26.26,0,0,0,0-.51Z"/><circle class="cls-4" cx="124.83" cy="133.78" r="7.2"/><path class="cls-2" d="M124.83,141.37a7.59,7.59,0,1,1,7.59-7.59A7.61,7.61,0,0,1,124.83,141.37Zm0-14.41a6.82,6.82,0,1,0,6.82,6.82A6.83,6.83,0,0,0,124.83,127Z"/><path class="cls-1" d="M128,137.41a3.2,3.2,0,0,0-6.4,0S128,137.43,128,137.41Z"/><path class="cls-2" d="M125.19,137.81h-2.42c-1.52,0-1.52,0-1.52-.4a3.59,3.59,0,1,1,7.17,0C128.42,137.81,128.42,137.81,125.19,137.81Zm2.83-.4h0Zm-6-.38h5.57a2.81,2.81,0,0,0-5.57,0Z"/><path class="cls-1" d="M123,132a1.82,1.82,0,1,0,1.81-1.82A1.82,1.82,0,0,0,123,132Z"/><path class="cls-2" d="M124.85,134.16a2.21,2.21,0,1,1,2.21-2.21A2.21,2.21,0,0,1,124.85,134.16Zm0-3.64a1.43,1.43,0,1,0,1.43,1.43A1.44,1.44,0,0,0,124.85,130.52Z"/><path class="cls-4" d="M128.5,159.33h-7.33a1.65,1.65,0,0,1-1.65-1.65h0a1.65,1.65,0,0,1,1.65-1.65h7.33a1.65,1.65,0,0,1,1.65,1.65h0A1.65,1.65,0,0,1,128.5,159.33Z"/><path class="cls-2" d="M128.5,159.72h-7.33a2,2,0,0,1,0-4.08h7.33a2,2,0,0,1,0,4.08Zm-7.33-3.3a1.26,1.26,0,0,0,0,2.52h7.33a1.26,1.26,0,0,0,0-2.52Z"/><path class="cls-6" d="M528,181.45H421.1a1,1,0,0,1-1-1V109a2.83,2.83,0,0,1,2.83-2.83H526.18A2.83,2.83,0,0,1,529,109v71.46A1,1,0,0,1,528,181.45Z"/><path class="cls-2" d="M528,181.84H421.1a1.38,1.38,0,0,1-1.38-1.38V109a3.22,3.22,0,0,1,3.22-3.22H526.18A3.22,3.22,0,0,1,529.4,109v71.46A1.38,1.38,0,0,1,528,181.84ZM422.94,106.56A2.44,2.44,0,0,0,420.5,109v71.46a.6.6,0,0,0,.6.6H528a.6.6,0,0,0,.6-.6V109a2.44,2.44,0,0,0-2.44-2.44Z"/><polyline class="cls-7" points="428.07 125.8 428.07 113.39 521.04 113.39 521.04 174.23 428.07 174.23 428.07 162.83"/><path class="cls-2" d="M521,174.62h-93a.4.4,0,0,1-.39-.39v-11.4a.4.4,0,0,1,.39-.39.39.39,0,0,1,.39.39v11h92.19V113.78H428.46v12a.39.39,0,0,1-.39.39.4.4,0,0,1-.39-.39V113.39a.4.4,0,0,1,.39-.39h93a.39.39,0,0,1,.39.39v60.84A.39.39,0,0,1,521,174.62Z"/><path class="cls-2" d="M428.07,152.44a.39.39,0,0,1-.39-.38V132.32a.39.39,0,0,1,.39-.39.38.38,0,0,1,.39.39v19.74A.38.38,0,0,1,428.07,152.44Z"/><path class="cls-2" d="M474.56,111.08a1.22,1.22,0,0,1,0-2.44,1.22,1.22,0,0,1,0,2.44Zm0-1.66a.45.45,0,1,0,.44.44A.45.45,0,0,0,474.56,109.42Z"/><path class="cls-2" d="M543,190.63H406.09a3.8,3.8,0,0,1-3.8-3.8v-6H546.83v6A3.8,3.8,0,0,1,543,190.63Z"/><path class="cls-2" d="M543,191H406.09a4.2,4.2,0,0,1-4.19-4.19v-6a.39.39,0,0,1,.39-.39H546.83a.4.4,0,0,1,.39.39v6A4.2,4.2,0,0,1,543,191Zm-140.35-9.75v5.56a3.41,3.41,0,0,0,3.41,3.41H543a3.41,3.41,0,0,0,3.41-3.41v-5.56Z"/><path class="cls-2" d="M545.45,188.73H403.67a.38.38,0,0,1-.39-.39.39.39,0,0,1,.39-.39H545.45a.4.4,0,0,1,.39.39A.39.39,0,0,1,545.45,188.73Z"/><rect class="cls-1" x="460.76" y="181.49" width="27.59" height="3.05"/><path class="cls-2" d="M488.35,184.92H460.76a.38.38,0,0,1-.38-.38v-3a.39.39,0,0,1,.38-.39h27.59a.39.39,0,0,1,.39.39v3A.38.38,0,0,1,488.35,184.92Zm-27.2-.77H488v-2.27H461.15Z"/><path class="cls-8" d="M494.47,167.56H448.63a2,2,0,0,1-2-2V126.92a2,2,0,0,1,2-2h45.84a2,2,0,0,1,2,2v38.65A2,2,0,0,1,494.47,167.56Z"/><path class="cls-1" d="M497.42,164.19H452.28a2.34,2.34,0,0,1-2.34-2.34V123.9a2.34,2.34,0,0,1,2.34-2.34h45.14a2.34,2.34,0,0,1,2.34,2.34v37.95A2.34,2.34,0,0,1,497.42,164.19Z"/><path class="cls-2" d="M497.42,164.58H452.28a2.73,2.73,0,0,1-2.73-2.73V123.9a2.74,2.74,0,0,1,2.73-2.73h45.14a2.74,2.74,0,0,1,2.73,2.73v37.95A2.73,2.73,0,0,1,497.42,164.58ZM452.28,122a2,2,0,0,0-1.95,2v37.95a2,2,0,0,0,1.95,2h45.14a2,2,0,0,0,1.95-2V123.9a2,2,0,0,0-1.95-2Z"/><path class="cls-3" d="M489.82,148.62H459.77a2.18,2.18,0,0,1-2.18-2.17v-.27a2.18,2.18,0,0,1,2.18-2.17h30.05a2.17,2.17,0,0,1,2.17,2.17v.27A2.17,2.17,0,0,1,489.82,148.62Z"/><path class="cls-2" d="M489.82,149H459.77a2.56,2.56,0,0,1-2.56-2.56v-.27a2.56,2.56,0,0,1,2.56-2.56h30.05a2.56,2.56,0,0,1,2.56,2.56v.27A2.56,2.56,0,0,1,489.82,149Zm-30.05-4.61a1.79,1.79,0,0,0-1.79,1.78v.27a1.79,1.79,0,0,0,1.79,1.78h30.05a1.78,1.78,0,0,0,1.78-1.78v-.27a1.78,1.78,0,0,0-1.78-1.78Z"/><path class="cls-1" d="M487.12,147.19H462.26a.93.93,0,0,1-.93-.93v-.09a.93.93,0,0,1,.93-.92h24.86a.93.93,0,0,1,.93.92v.09A.93.93,0,0,1,487.12,147.19Zm-24.87-1.56a.54.54,0,0,0-.53.54v.09a.54.54,0,0,0,.53.54h24.87a.54.54,0,0,0,.54-.54v-.09a.54.54,0,0,0-.54-.54Z"/><path class="cls-3" d="M484.7,153.87H464.89a1.33,1.33,0,0,1-1.34-1.33h0a1.34,1.34,0,0,1,1.34-1.34H484.7a1.34,1.34,0,0,1,1.34,1.34h0A1.33,1.33,0,0,1,484.7,153.87Z"/><path class="cls-2" d="M484.7,154.26H464.89a1.73,1.73,0,1,1,0-3.45H484.7a1.73,1.73,0,1,1,0,3.45Zm-19.81-2.67a.95.95,0,1,0,0,1.9H484.7a1,1,0,1,0,0-1.9Z"/><path class="cls-1" d="M468.72,153.18a.65.65,0,1,1,.65-.64A.64.64,0,0,1,468.72,153.18Zm0-.9a.26.26,0,1,0,.26.26A.25.25,0,0,0,468.72,152.28Z"/><path class="cls-1" d="M471.21,153.18a.65.65,0,1,1,.65-.64A.64.64,0,0,1,471.21,153.18Zm0-.9a.26.26,0,1,0,.26.26A.26.26,0,0,0,471.21,152.28Z"/><path class="cls-1" d="M473.53,153.18a.65.65,0,1,1,.65-.64A.64.64,0,0,1,473.53,153.18Zm0-.9a.26.26,0,1,0,.26.26A.25.25,0,0,0,473.53,152.28Z"/><path class="cls-1" d="M476,153.18a.65.65,0,0,1,0-1.29.65.65,0,1,1,0,1.29Zm0-.9a.26.26,0,1,0,.26.26A.26.26,0,0,0,476,152.28Z"/><path class="cls-1" d="M478.44,153.18a.65.65,0,1,1,.64-.64A.64.64,0,0,1,478.44,153.18Zm0-.9a.26.26,0,1,0,.26.26A.26.26,0,0,0,478.44,152.28Z"/><path class="cls-1" d="M480.93,153.18a.65.65,0,1,1,.64-.64A.65.65,0,0,1,480.93,153.18Zm0-.9a.26.26,0,1,0,0,.51.26.26,0,0,0,0-.51Z"/><circle class="cls-4" cx="474.79" cy="133.78" r="7.2"/><path class="cls-2" d="M474.79,141.37a7.59,7.59,0,1,1,7.59-7.59A7.61,7.61,0,0,1,474.79,141.37Zm0-14.41a6.82,6.82,0,1,0,6.82,6.82A6.82,6.82,0,0,0,474.79,127Z"/><path class="cls-1" d="M478,137.41a3.2,3.2,0,1,0-6.4,0S478,137.43,478,137.41Z"/><path class="cls-2" d="M475.15,137.81h-2.42c-1.53,0-1.53,0-1.53-.4a3.59,3.59,0,1,1,7.18,0C478.38,137.81,478.38,137.81,475.15,137.81Zm2.83-.4h0Zm-6-.38h5.57a2.81,2.81,0,0,0-5.57,0Z"/><path class="cls-1" d="M473,132a1.82,1.82,0,1,0,1.82-1.82A1.83,1.83,0,0,0,473,132Z"/><path class="cls-2" d="M474.81,134.16A2.21,2.21,0,1,1,477,132,2.21,2.21,0,0,1,474.81,134.16Zm0-3.64a1.43,1.43,0,1,0,1.43,1.43A1.43,1.43,0,0,0,474.81,130.52Z"/><path class="cls-4" d="M478.46,159.33h-7.33a1.65,1.65,0,0,1-1.65-1.65h0a1.65,1.65,0,0,1,1.65-1.65h7.33a1.65,1.65,0,0,1,1.65,1.65h0A1.65,1.65,0,0,1,478.46,159.33Z"/><path class="cls-2" d="M478.46,159.72h-7.33a2,2,0,0,1,0-4.08h7.33a2,2,0,1,1,0,4.08Zm-7.33-3.3a1.26,1.26,0,1,0,0,2.52h7.33a1.26,1.26,0,1,0,0-2.52Z"/><rect class="cls-6" x="378.95" y="159.37" width="63.6" height="110.96"/><rect class="cls-1" x="374.28" y="152.59" width="63.6" height="113.06"/><path class="cls-2" d="M437.88,266h-63.6a.38.38,0,0,1-.39-.39V152.59a.38.38,0,0,1,.39-.38h63.6a.38.38,0,0,1,.38.38V265.65A.38.38,0,0,1,437.88,266Zm-63.21-.78h62.82V153H374.67V265.26Z"/><rect class="cls-5" x="374.38" y="152.6" width="63.43" height="9.09"/><path class="cls-2" d="M438.21,162.09H374v-9.88h64.21Zm-63.44-.78h62.66V153H374.77v8.32Z"/><path class="cls-1" d="M422.09,158.7a1.39,1.39,0,1,1,1.38-1.39A1.38,1.38,0,0,1,422.09,158.7Zm0-2.19a.8.8,0,1,0,.8.8A.8.8,0,0,0,422.09,156.51Z"/><path class="cls-1" d="M427.76,158.7a1.39,1.39,0,1,1,1.38-1.39A1.38,1.38,0,0,1,427.76,158.7Zm0-2.19a.8.8,0,1,0,.8.8A.8.8,0,0,0,427.76,156.51Z"/><path class="cls-1" d="M433.53,158.7a1.39,1.39,0,1,1,1.38-1.39A1.38,1.38,0,0,1,433.53,158.7Zm0-2.19a.8.8,0,1,0,.8.8A.8.8,0,0,0,433.53,156.51Z"/><path class="cls-5" d="M404.12,175H384.8a.4.4,0,0,1-.39-.39.39.39,0,0,1,.39-.39h19.32a.38.38,0,0,1,.39.39A.39.39,0,0,1,404.12,175Z"/><path class="cls-3" d="M415.85,175H409a.39.39,0,0,1-.39-.39.38.38,0,0,1,.39-.39h6.9a.38.38,0,0,1,.39.39A.39.39,0,0,1,415.85,175Z"/><path class="cls-3" d="M427.7,175h-6.33a.39.39,0,0,1-.38-.39.38.38,0,0,1,.38-.39h6.33a.39.39,0,0,1,.39.39A.4.4,0,0,1,427.7,175Z"/><path class="cls-5" d="M427.7,190H408.38a.39.39,0,0,1-.39-.39.38.38,0,0,1,.39-.39H427.7a.39.39,0,0,1,.39.39A.4.4,0,0,1,427.7,190Z"/><path class="cls-3" d="M403.55,190h-6.9a.39.39,0,0,1-.39-.39.38.38,0,0,1,.39-.39h6.9a.38.38,0,0,1,.39.39A.39.39,0,0,1,403.55,190Z"/><path class="cls-3" d="M391.13,190H384.8a.4.4,0,0,1-.39-.39.39.39,0,0,1,.39-.39h6.33a.38.38,0,0,1,.38.39A.39.39,0,0,1,391.13,190Z"/><path class="cls-5" d="M394.74,182.44H384.8a.39.39,0,0,1-.39-.39.4.4,0,0,1,.39-.39h9.94a.39.39,0,0,1,.39.39A.38.38,0,0,1,394.74,182.44Z"/><path class="cls-3" d="M415.85,182.44H399a.38.38,0,0,1-.39-.39.39.39,0,0,1,.39-.39h16.87a.39.39,0,0,1,.39.39A.38.38,0,0,1,415.85,182.44Z"/><path class="cls-5" d="M427.7,182.44h-6.33a.38.38,0,0,1-.38-.39.39.39,0,0,1,.38-.39h6.33a.4.4,0,0,1,.39.39A.39.39,0,0,1,427.7,182.44Z"/><path class="cls-5" d="M404.12,196.64H384.8a.39.39,0,1,1,0-.77h19.32a.39.39,0,1,1,0,.77Z"/><path class="cls-3" d="M415.85,196.64H409a.39.39,0,1,1,0-.77h6.9a.39.39,0,1,1,0,.77Z"/><path class="cls-5" d="M404.12,220.62H384.8a.39.39,0,0,1-.39-.39.4.4,0,0,1,.39-.39h19.32a.39.39,0,0,1,.39.39A.38.38,0,0,1,404.12,220.62Z"/><path class="cls-3" d="M415.85,220.62H409a.38.38,0,0,1-.39-.39.39.39,0,0,1,.39-.39h6.9a.39.39,0,0,1,.39.39A.38.38,0,0,1,415.85,220.62Z"/><path class="cls-3" d="M427.7,196.64h-6.33a.39.39,0,0,1,0-.77h6.33a.39.39,0,1,1,0,.77Z"/><path class="cls-5" d="M427.7,211.6H408.38a.39.39,0,1,1,0-.77H427.7a.39.39,0,1,1,0,.77Z"/><path class="cls-3" d="M403.55,211.6h-6.9a.39.39,0,1,1,0-.77h6.9a.39.39,0,1,1,0,.77Z"/><path class="cls-3" d="M391.13,211.6H384.8a.39.39,0,1,1,0-.77h6.33a.39.39,0,0,1,0,.77Z"/><path class="cls-5" d="M426.14,228.73h-6.9a.39.39,0,0,1,0-.78h6.9a.39.39,0,0,1,.39.39A.38.38,0,0,1,426.14,228.73Z"/><path class="cls-5" d="M413.72,228.73h-6.33a.39.39,0,0,1,0-.78h6.33a.39.39,0,0,1,.38.39A.38.38,0,0,1,413.72,228.73Z"/><path class="cls-5" d="M394.74,204.05H384.8a.39.39,0,0,1,0-.78h9.94a.39.39,0,1,1,0,.78Z"/><path class="cls-3" d="M415.85,204.05H399a.39.39,0,1,1,0-.78h16.87a.39.39,0,1,1,0,.78Z"/><path class="cls-5" d="M427.7,204.05h-6.33a.39.39,0,0,1,0-.78h6.33a.39.39,0,1,1,0,.78Z"/><path class="cls-3" d="M424.14,236.69H407.26a.4.4,0,0,1-.39-.39.39.39,0,0,1,.39-.39h16.88a.39.39,0,0,1,.39.39A.4.4,0,0,1,424.14,236.69Z"/><path class="cls-5" d="M413.62,244.14h-6.33a.38.38,0,0,1-.38-.39.39.39,0,0,1,.38-.39h6.33a.4.4,0,0,1,.39.39A.38.38,0,0,1,413.62,244.14Z"/><path class="cls-2" d="M455.58,293.79h80.07a1.54,1.54,0,0,0,1.54-1.54V236.08a1.54,1.54,0,0,0-1.54-1.54H455.58a1.53,1.53,0,0,0-1.54,1.54v56.17A1.53,1.53,0,0,0,455.58,293.79Z"/><path class="cls-2" d="M535.65,294.18H455.58a1.92,1.92,0,0,1-1.93-1.93V236.08a1.92,1.92,0,0,1,1.93-1.93h80.07a1.93,1.93,0,0,1,1.93,1.93v56.17A1.93,1.93,0,0,1,535.65,294.18Zm-80.07-59.26a1.16,1.16,0,0,0-1.16,1.16v56.17a1.16,1.16,0,0,0,1.16,1.16h80.07a1.15,1.15,0,0,0,1.15-1.16V236.08a1.15,1.15,0,0,0-1.15-1.16Z"/><path class="cls-4" d="M458.7,240h83.14v-7.61a2.37,2.37,0,0,0-2.37-2.37H460.53a1.83,1.83,0,0,0-1.83,1.83Z"/><path class="cls-2" d="M542.23,240.42H458.31v-8.53a2.22,2.22,0,0,1,2.22-2.23h78.94a2.77,2.77,0,0,1,2.76,2.76v8Zm-83.15-.78h82.37v-7.22a2,2,0,0,0-2-2H460.53a1.45,1.45,0,0,0-1.45,1.45v7.75Z"/><path class="cls-1" d="M469.62,236.85a1.93,1.93,0,1,1,1.92-1.93A1.93,1.93,0,0,1,469.62,236.85Zm0-3.08a1.15,1.15,0,1,0,1.15,1.15A1.15,1.15,0,0,0,469.62,233.77Z"/><path class="cls-1" d="M475.61,236.85a1.93,1.93,0,1,1,1.92-1.93A1.93,1.93,0,0,1,475.61,236.85Zm0-3.08a1.15,1.15,0,0,0,0,2.3,1.15,1.15,0,0,0,0-2.3Z"/><path class="cls-1" d="M463.67,236.85a1.93,1.93,0,1,1,1.92-1.93A1.93,1.93,0,0,1,463.67,236.85Zm0-3.08a1.15,1.15,0,1,0,1.15,1.15A1.15,1.15,0,0,0,463.67,233.77Z"/><path class="cls-1" d="M458.93,288.9h82.62a.27.27,0,0,0,.27-.27V240.3a.27.27,0,0,0-.27-.27H458.93a.27.27,0,0,0-.27.27v48.33A.27.27,0,0,0,458.93,288.9Z"/><path class="cls-2" d="M541.55,289.29H458.93a.67.67,0,0,1-.66-.66V240.3a.66.66,0,0,1,.66-.65h82.62a.66.66,0,0,1,.66.65v48.33A.67.67,0,0,1,541.55,289.29Zm-82.5-.78h82.38V240.42H459.05Z"/><path class="cls-3" d="M531,252.27H493.6a.38.38,0,0,1-.39-.39.39.39,0,0,1,.39-.39H531a.39.39,0,0,1,.38.39A.38.38,0,0,1,531,252.27Z"/><path class="cls-5" d="M506.73,257.94H493.6a.38.38,0,0,1-.39-.39.39.39,0,0,1,.39-.39h13.13a.4.4,0,0,1,.39.39A.39.39,0,0,1,506.73,257.94Z"/><path class="cls-3" d="M528.07,257.94H512.13a.38.38,0,0,1-.39-.39.39.39,0,0,1,.39-.39h15.94a.39.39,0,0,1,.39.39A.38.38,0,0,1,528.07,257.94Z"/><path class="cls-5" d="M517.56,275.15h-24a.38.38,0,0,1-.39-.39.39.39,0,0,1,.39-.39h24a.39.39,0,0,1,.38.39A.38.38,0,0,1,517.56,275.15Z"/><path class="cls-5" d="M531.31,263.9H493.6a.38.38,0,0,1-.39-.39.39.39,0,0,1,.39-.39h37.71a.39.39,0,0,1,.38.39A.38.38,0,0,1,531.31,263.9Z"/><path class="cls-3" d="M505.55,269.57H493.6a.38.38,0,0,1-.39-.39.39.39,0,0,1,.39-.39h11.95a.39.39,0,0,1,.38.39A.38.38,0,0,1,505.55,269.57Z"/><path class="cls-5" d="M531,269.57H509.22a.39.39,0,0,1-.39-.39.4.4,0,0,1,.39-.39H531a.39.39,0,0,1,.38.39A.38.38,0,0,1,531,269.57Z"/><path class="cls-2" d="M477,262.06V249.64a12.42,12.42,0,1,0,12.42,12.42Z"/><path class="cls-2" d="M477,274.87a12.81,12.81,0,1,1,0-25.61.39.39,0,0,1,.39.38v12h12a.4.4,0,0,1,.39.39A12.83,12.83,0,0,1,477,274.87ZM476.6,250A12,12,0,1,0,489,262.45H477a.38.38,0,0,1-.39-.39Z"/><path class="cls-3" d="M475.91,262.22V249.8a12.42,12.42,0,1,0,12.42,12.42Z"/><path class="cls-2" d="M475.91,275a12.81,12.81,0,0,1,0-25.62h.39v12.42h12.42v.39A12.82,12.82,0,0,1,475.91,275Zm-.38-24.83a12,12,0,1,0,12.41,12.41H475.53Z"/><path class="cls-5" d="M486.25,257.82A6.22,6.22,0,0,0,480,251.6v6.22Z"/><path class="cls-2" d="M486.64,258.21h-7v-7H480a6.62,6.62,0,0,1,6.6,6.61Zm-6.21-.78h5.42a5.85,5.85,0,0,0-5.42-5.43Z"/><circle class="cls-2" cx="538.19" cy="231.18" r="19.26"/><path class="cls-2" d="M538.17,250.81a19.65,19.65,0,1,1,19.65-19.65A19.68,19.68,0,0,1,538.17,250.81Zm0-38.52a18.87,18.87,0,1,0,18.88,18.87A18.89,18.89,0,0,0,538.17,212.29Z"/><circle class="cls-5" cx="539.92" cy="229.31" r="19.26"/><path class="cls-2" d="M539.9,248.93a19.65,19.65,0,1,1,19.65-19.64A19.66,19.66,0,0,1,539.9,248.93Zm0-38.52a18.88,18.88,0,1,0,18.87,18.88A18.9,18.9,0,0,0,539.9,210.41Z"/><path class="cls-1" d="M547,225.17h-1.16a6.45,6.45,0,0,0-12.72,0H531.3a5.37,5.37,0,0,0,0,10.71H547a5.37,5.37,0,0,0,0-10.71Z"/><path class="cls-2" d="M547,236.27H531.3a5.76,5.76,0,0,1,0-11.49h1.5a6.84,6.84,0,0,1,13.36,0H547a5.76,5.76,0,0,1,0,11.49Zm-15.7-10.71a5,5,0,0,0,0,9.94H547a5,5,0,0,0,0-9.94h-1.16a.41.41,0,0,1-.39-.32,6.06,6.06,0,0,0-12,0,.39.39,0,0,1-.38.32Z"/><rect class="cls-1" x="273.48" y="330.83" width="48.03" height="34.15"/><path class="cls-2" d="M321.51,365.37h-48a.4.4,0,0,1-.39-.39V330.83a.39.39,0,0,1,.39-.39h48a.38.38,0,0,1,.39.39V365A.39.39,0,0,1,321.51,365.37Zm-47.64-.78h47.25V331.21H273.87Z"/><path class="cls-2" d="M393.56,330.57H201.43a6.74,6.74,0,0,1-6.58-6.89V199.07a6.74,6.74,0,0,1,6.58-6.89H393.56a6.73,6.73,0,0,1,6.58,6.89V323.68A6.73,6.73,0,0,1,393.56,330.57Z"/><path class="cls-2" d="M393.56,331H201.43a7.13,7.13,0,0,1-7-7.27V199.07a7.14,7.14,0,0,1,7-7.28H393.56a7.14,7.14,0,0,1,7,7.28V323.68A7.13,7.13,0,0,1,393.56,331ZM201.43,192.57a6.36,6.36,0,0,0-6.19,6.5V323.68a6.36,6.36,0,0,0,6.19,6.5H393.56a6.36,6.36,0,0,0,6.2-6.5V199.07a6.36,6.36,0,0,0-6.2-6.5Z"/><path class="cls-1" d="M393.56,334.37H201.43a6.74,6.74,0,0,1-6.58-6.88V202.87a6.75,6.75,0,0,1,6.58-6.89H393.56a6.74,6.74,0,0,1,6.58,6.89V327.49A6.73,6.73,0,0,1,393.56,334.37Z"/><path class="cls-2" d="M393.56,334.76H201.43a7.13,7.13,0,0,1-7-7.27V202.87a7.14,7.14,0,0,1,7-7.28H393.56a7.14,7.14,0,0,1,7,7.28V327.49A7.13,7.13,0,0,1,393.56,334.76ZM201.43,196.37a6.36,6.36,0,0,0-6.19,6.5V327.49a6.36,6.36,0,0,0,6.19,6.5H393.56a6.36,6.36,0,0,0,6.2-6.5V202.87a6.36,6.36,0,0,0-6.2-6.5Z"/><path class="cls-6" d="M388,240.85V211.77a2.19,2.19,0,0,0-2.14-2.23H208.77a2.19,2.19,0,0,0-2.15,2.23V320.15H388V291.41"/><path class="cls-6" d="M388,320.54H206.62a.39.39,0,0,1-.39-.39V211.77a2.58,2.58,0,0,1,2.54-2.61h177.1a2.57,2.57,0,0,1,2.53,2.61v29.08a.39.39,0,1,1-.77,0V211.77a1.81,1.81,0,0,0-1.76-1.84H208.77a1.81,1.81,0,0,0-1.76,1.84v108H387.63V291.41a.39.39,0,1,1,.77,0v28.74A.38.38,0,0,1,388,320.54Z"/><path class="cls-2" d="M388.19,275.59a.39.39,0,0,1-.38-.39V254.37a.39.39,0,1,1,.77,0V275.2A.39.39,0,0,1,388.19,275.59Z"/><path class="cls-1" d="M297.5,204.72h0a2.21,2.21,0,0,1-2.21-2.21h0a2.2,2.2,0,0,1,2.21-2.2h0a2.2,2.2,0,0,1,2.21,2.2h0A2.22,2.22,0,0,1,297.5,204.72Z"/><path class="cls-2" d="M297.5,205.11a2.6,2.6,0,1,1,2.59-2.6A2.61,2.61,0,0,1,297.5,205.11Zm0-4.41a1.82,1.82,0,1,0,1.82,1.81A1.82,1.82,0,0,0,297.5,200.7Z"/><path class="cls-4" d="M385.28,329.3h0a2.2,2.2,0,0,1-2.21-2.2h0a2.21,2.21,0,0,1,2.21-2.21h0a2.21,2.21,0,0,1,2.21,2.21h0A2.2,2.2,0,0,1,385.28,329.3Z"/><path class="cls-2" d="M385.28,329.69a2.6,2.6,0,1,1,2.59-2.59A2.6,2.6,0,0,1,385.28,329.69Zm0-4.41a1.82,1.82,0,1,0,1.82,1.82A1.82,1.82,0,0,0,385.28,325.28Z"/><path class="cls-2" d="M376.75,328.36a1.27,1.27,0,0,1,0-2.53,1.27,1.27,0,1,1,0,2.53Zm0-1.75a.49.49,0,1,0,.49.49A.49.49,0,0,0,376.75,326.61Z"/><path class="cls-2" d="M371.72,328.36A1.27,1.27,0,1,1,373,327.1,1.26,1.26,0,0,1,371.72,328.36Zm0-1.75a.49.49,0,0,0,0,1,.49.49,0,0,0,0-1Z"/><rect class="cls-2" x="273.57" y="334.38" width="47.85" height="8.8"/><path class="cls-2" d="M321.42,343.58H273.57a.4.4,0,0,1-.39-.39v-8.81a.39.39,0,0,1,.39-.38h47.85a.38.38,0,0,1,.39.38v8.81A.39.39,0,0,1,321.42,343.58ZM274,342.8H321v-8H274Z"/><path class="cls-1" d="M381.53,365.87c-.17-.12-.36-.23-.55-.35a19.6,19.6,0,0,0-10.45-2.94H222.44l-.69,0a13.36,13.36,0,0,0-11.86,7.76l-3,7.11H388.1A14.15,14.15,0,0,0,381.53,365.87Z"/><path class="cls-2" d="M388.1,377.87H206.89a.39.39,0,0,1-.35-.54l3-7.11a13.75,13.75,0,0,1,12.2-8h.1l.61,0H370.53a19.92,19.92,0,0,1,10.66,3l.15.09.41.26h0a14.52,14.52,0,0,1,6.74,11.93A.39.39,0,0,1,388.1,377.87Zm-180.62-.78H387.71a13.8,13.8,0,0,0-6.4-10.89h0c-.12-.09-.25-.17-.38-.25l-.15-.1A19.25,19.25,0,0,0,370.53,363H222.44l-.57,0h-.11a13,13,0,0,0-11.51,7.53Z"/><path class="cls-1" d="M238.83,370.38H226V368.6a2.56,2.56,0,0,1,2.56-2.56h7.69a2.57,2.57,0,0,1,2.57,2.56Z"/><path class="cls-2" d="M238.83,370.77H226a.4.4,0,0,1-.39-.39V368.6a3,3,0,0,1,2.95-3h7.69a3,3,0,0,1,3,3v1.78A.39.39,0,0,1,238.83,370.77ZM226.4,370h12V368.6a2.18,2.18,0,0,0-2.18-2.17h-7.69a2.17,2.17,0,0,0-2.17,2.17Z"/><path class="cls-1" d="M254.7,370.38H241.88V368.6a2.56,2.56,0,0,1,2.56-2.56h7.69a2.57,2.57,0,0,1,2.57,2.56v1.78Z"/><path class="cls-2" d="M254.7,370.77H241.88a.4.4,0,0,1-.39-.39V368.6a3,3,0,0,1,2.95-3h7.69a3,3,0,0,1,3,3v1.78A.4.4,0,0,1,254.7,370.77ZM242.27,370h12V368.6a2.18,2.18,0,0,0-2.18-2.17h-7.69a2.17,2.17,0,0,0-2.17,2.17V370Z"/><path class="cls-1" d="M271,370.38H258.15V368.6a2.56,2.56,0,0,1,2.56-2.56h7.69A2.56,2.56,0,0,1,271,368.6Z"/><path class="cls-2" d="M271,370.77H258.15a.39.39,0,0,1-.39-.39V368.6a3,3,0,0,1,2.95-3h7.69a3,3,0,0,1,3,3v1.78A.39.39,0,0,1,271,370.77ZM258.54,370h12V368.6a2.18,2.18,0,0,0-2.18-2.17h-7.69a2.17,2.17,0,0,0-2.17,2.17V370Z"/><path class="cls-1" d="M286.84,370.38H274V368.6a2.56,2.56,0,0,1,2.56-2.56h7.69a2.57,2.57,0,0,1,2.57,2.56Z"/><path class="cls-2" d="M286.84,370.77H274a.4.4,0,0,1-.39-.39V368.6a3,3,0,0,1,2.95-3h7.69a3,3,0,0,1,3,3v1.78A.4.4,0,0,1,286.84,370.77ZM274.41,370h12V368.6a2.18,2.18,0,0,0-2.18-2.17h-7.69a2.17,2.17,0,0,0-2.17,2.17V370Z"/><path class="cls-1" d="M302.91,370.38H290.09V368.6a2.56,2.56,0,0,1,2.56-2.56h7.69a2.57,2.57,0,0,1,2.57,2.56Z"/><path class="cls-2" d="M302.91,370.77H290.09a.4.4,0,0,1-.39-.39V368.6a3,3,0,0,1,2.95-3h7.69a3,3,0,0,1,3,3v1.78A.39.39,0,0,1,302.91,370.77ZM290.48,370h12V368.6a2.18,2.18,0,0,0-2.18-2.17h-7.69a2.17,2.17,0,0,0-2.17,2.17V370Z"/><path class="cls-1" d="M318.78,370.38H306V368.6a2.56,2.56,0,0,1,2.56-2.56h7.69a2.57,2.57,0,0,1,2.57,2.56v1.78Z"/><path class="cls-2" d="M318.78,370.77H306a.4.4,0,0,1-.39-.39V368.6a3,3,0,0,1,2.95-3h7.69a3,3,0,0,1,3,3v1.78A.4.4,0,0,1,318.78,370.77ZM306.35,370h12V368.6a2.18,2.18,0,0,0-2.18-2.17h-7.69a2.17,2.17,0,0,0-2.17,2.17V370Z"/><path class="cls-1" d="M335,370.38H322.23V368.6a2.56,2.56,0,0,1,2.56-2.56h7.69A2.56,2.56,0,0,1,335,368.6Z"/><path class="cls-2" d="M335,370.77H322.23a.39.39,0,0,1-.39-.39V368.6a3,3,0,0,1,3-3h7.69a3,3,0,0,1,2.95,3v1.78A.39.39,0,0,1,335,370.77ZM322.62,370h12V368.6a2.18,2.18,0,0,0-2.18-2.17h-7.69a2.17,2.17,0,0,0-2.17,2.17V370Z"/><path class="cls-1" d="M350.92,370.38H338.1V368.6a2.56,2.56,0,0,1,2.56-2.56h7.69a2.57,2.57,0,0,1,2.57,2.56Z"/><path class="cls-2" d="M350.92,370.77H338.1a.4.4,0,0,1-.39-.39V368.6a3,3,0,0,1,3-3h7.69a3,3,0,0,1,3,3v1.78A.4.4,0,0,1,350.92,370.77ZM338.49,370h12V368.6a2.18,2.18,0,0,0-2.18-2.17h-7.69a2.17,2.17,0,0,0-2.17,2.17V370Z"/><path class="cls-1" d="M367.58,370.38H354.76V368.6a2.56,2.56,0,0,1,2.56-2.56H365a2.57,2.57,0,0,1,2.57,2.56Z"/><path class="cls-2" d="M367.58,370.77H354.76a.4.4,0,0,1-.39-.39V368.6a3,3,0,0,1,2.95-3H365a3,3,0,0,1,3,3v1.78A.4.4,0,0,1,367.58,370.77ZM355.15,370h12V368.6a2.18,2.18,0,0,0-2.18-2.17h-7.69a2.17,2.17,0,0,0-2.17,2.17V370Z"/><path class="cls-1" d="M231.29,373.34H218.47v-1.78A2.57,2.57,0,0,1,221,369h7.69a2.56,2.56,0,0,1,2.56,2.56v1.78Z"/><path class="cls-2" d="M231.29,373.73H218.47a.39.39,0,0,1-.38-.39v-1.78a3,3,0,0,1,2.95-2.95h7.69a3,3,0,0,1,3,2.95v1.78A.4.4,0,0,1,231.29,373.73ZM218.86,373h12v-1.39a2.17,2.17,0,0,0-2.17-2.17H221a2.18,2.18,0,0,0-2.18,2.17Z"/><path class="cls-1" d="M247.16,373.34H234.35v-1.78a2.56,2.56,0,0,1,2.56-2.56h7.69a2.56,2.56,0,0,1,2.56,2.56Z"/><path class="cls-2" d="M247.16,373.73H234.35a.39.39,0,0,1-.39-.39v-1.78a3,3,0,0,1,2.95-2.95h7.69a3,3,0,0,1,3,2.95v1.78A.39.39,0,0,1,247.16,373.73ZM234.73,373h12v-1.39a2.17,2.17,0,0,0-2.17-2.17h-7.69a2.18,2.18,0,0,0-2.18,2.17V373Z"/><path class="cls-1" d="M263.43,373.34H250.61v-1.78a2.57,2.57,0,0,1,2.57-2.56h7.69a2.56,2.56,0,0,1,2.56,2.56Z"/><path class="cls-2" d="M263.43,373.73H250.61a.4.4,0,0,1-.39-.39v-1.78a3,3,0,0,1,3-2.95h7.69a3,3,0,0,1,2.95,2.95v1.78A.4.4,0,0,1,263.43,373.73ZM251,373h12v-1.39a2.17,2.17,0,0,0-2.17-2.17h-7.7a2.17,2.17,0,0,0-2.17,2.17V373Z"/><path class="cls-1" d="M279.3,373.34H266.48v-1.78a2.57,2.57,0,0,1,2.57-2.56h7.69a2.56,2.56,0,0,1,2.56,2.56v1.78Z"/><path class="cls-2" d="M279.3,373.73H266.48a.39.39,0,0,1-.38-.39v-1.78a3,3,0,0,1,2.95-2.95h7.69a3,3,0,0,1,2.95,2.95v1.78A.39.39,0,0,1,279.3,373.73ZM266.87,373h12v-1.39a2.17,2.17,0,0,0-2.17-2.17h-7.69a2.18,2.18,0,0,0-2.18,2.17V373Z"/><path class="cls-1" d="M295.37,373.34H282.55v-1.78a2.57,2.57,0,0,1,2.57-2.56h7.69a2.56,2.56,0,0,1,2.56,2.56Z"/><path class="cls-2" d="M295.37,373.73H282.55a.39.39,0,0,1-.38-.39v-1.78a3,3,0,0,1,2.95-2.95h7.69a3,3,0,0,1,2.95,2.95v1.78A.4.4,0,0,1,295.37,373.73ZM282.94,373h12v-1.39a2.17,2.17,0,0,0-2.17-2.17h-7.69a2.18,2.18,0,0,0-2.18,2.17V373Z"/><path class="cls-1" d="M311.24,373.34H298.43v-1.78A2.56,2.56,0,0,1,301,369h7.69a2.56,2.56,0,0,1,2.56,2.56Z"/><path class="cls-2" d="M311.24,373.73H298.43a.39.39,0,0,1-.39-.39v-1.78a3,3,0,0,1,2.95-2.95h7.69a3,3,0,0,1,2.95,2.95v1.78A.39.39,0,0,1,311.24,373.73ZM298.81,373h12v-1.39a2.17,2.17,0,0,0-2.17-2.17H301a2.18,2.18,0,0,0-2.18,2.17V373Z"/><path class="cls-1" d="M327.51,373.34H314.69v-1.78a2.57,2.57,0,0,1,2.57-2.56H325a2.56,2.56,0,0,1,2.56,2.56Z"/><path class="cls-2" d="M327.51,373.73H314.69a.4.4,0,0,1-.39-.39v-1.78a3,3,0,0,1,3-2.95H325a3,3,0,0,1,2.95,2.95v1.78A.4.4,0,0,1,327.51,373.73ZM315.08,373h12v-1.39a2.17,2.17,0,0,0-2.17-2.17h-7.69a2.18,2.18,0,0,0-2.18,2.17V373Z"/><path class="cls-1" d="M343.38,373.34H330.56v-1.78a2.57,2.57,0,0,1,2.57-2.56h7.69a2.56,2.56,0,0,1,2.56,2.56v1.78Z"/><path class="cls-2" d="M343.38,373.73H330.57a.39.39,0,0,1-.39-.39v-1.78a3,3,0,0,1,2.95-2.95h7.69a3,3,0,0,1,2.95,2.95v1.78A.39.39,0,0,1,343.38,373.73ZM331,373h12v-1.39a2.17,2.17,0,0,0-2.17-2.17h-7.69a2.18,2.18,0,0,0-2.18,2.17V373Z"/><path class="cls-1" d="M360,373.34H347.23v-1.78a2.56,2.56,0,0,1,2.56-2.56h7.69a2.56,2.56,0,0,1,2.56,2.56v1.78Z"/><path class="cls-2" d="M360,373.73H347.23a.39.39,0,0,1-.39-.39v-1.78a3,3,0,0,1,3-2.95h7.69a3,3,0,0,1,2.95,2.95v1.78A.39.39,0,0,1,360,373.73ZM347.61,373h12v-1.39a2.17,2.17,0,0,0-2.17-2.17h-7.69a2.18,2.18,0,0,0-2.18,2.17V373Z"/><path class="cls-1" d="M375.91,373.34H363.1v-1.78a2.56,2.56,0,0,1,2.56-2.56h7.69a2.56,2.56,0,0,1,2.56,2.56v1.78Z"/><path class="cls-2" d="M375.91,373.73H363.1a.39.39,0,0,1-.39-.39v-1.78a3,3,0,0,1,3-2.95h7.69a3,3,0,0,1,2.95,2.95v1.78A.39.39,0,0,1,375.91,373.73ZM363.49,373h12v-1.39a2.18,2.18,0,0,0-2.18-2.17h-7.69a2.17,2.17,0,0,0-2.17,2.17Z"/><path class="cls-7" d="M319.64,310.66H222.85a3.11,3.11,0,0,1-3.11-3.11V223.84a3.11,3.11,0,0,1,3.11-3.11h96.79a3.11,3.11,0,0,1,3.11,3.11v83.71A3.11,3.11,0,0,1,319.64,310.66Z"/><path class="cls-2" d="M319.64,311.05H222.85a3.5,3.5,0,0,1-3.5-3.5V223.84a3.5,3.5,0,0,1,3.5-3.5h96.79a3.5,3.5,0,0,1,3.5,3.5v83.71A3.5,3.5,0,0,1,319.64,311.05Zm-96.79-89.93a2.72,2.72,0,0,0-2.72,2.72v83.71a2.72,2.72,0,0,0,2.72,2.72h96.79a2.72,2.72,0,0,0,2.72-2.72V223.84a2.72,2.72,0,0,0-2.72-2.72Z"/><path class="cls-3" d="M319.64,220.73H222.85a3.11,3.11,0,0,0-3.11,3.11V229h103v-5.11A3.11,3.11,0,0,0,319.64,220.73Z"/><path class="cls-2" d="M323.14,229.34H219.35v-5.5a3.5,3.5,0,0,1,3.5-3.5h96.79a3.5,3.5,0,0,1,3.5,3.5Zm-103-.78H322.36v-4.72a2.72,2.72,0,0,0-2.72-2.72H222.85a2.72,2.72,0,0,0-2.72,2.72Z"/><path class="cls-1" d="M231.94,226.85a1.77,1.77,0,1,1,1.77-1.77A1.77,1.77,0,0,1,231.94,226.85Zm0-2.77a1,1,0,1,0,1,1A1,1,0,0,0,231.94,224.08Z"/><path class="cls-1" d="M237.33,226.85a1.77,1.77,0,1,1,1.77-1.77A1.77,1.77,0,0,1,237.33,226.85Zm0-2.77a1,1,0,1,0,1,1A1,1,0,0,0,237.33,224.08Z"/><path class="cls-1" d="M226.58,226.85a1.77,1.77,0,1,1,1.77-1.77A1.76,1.76,0,0,1,226.58,226.85Zm0-2.77a1,1,0,1,0,1,1A1,1,0,0,0,226.58,224.08Z"/><path class="cls-3" d="M292.5,243.7H230.15a.39.39,0,0,1,0-.78H292.5a.39.39,0,1,1,0,.78Z"/><path class="cls-5" d="M252.05,255h-21.9a.38.38,0,0,1-.39-.39.39.39,0,0,1,.39-.39h21.9a.39.39,0,0,1,.39.39A.38.38,0,0,1,252.05,255Z"/><path class="cls-3" d="M287.66,255h-26.6a.39.39,0,0,1-.39-.39.4.4,0,0,1,.39-.39h26.6a.4.4,0,0,1,.39.39A.39.39,0,0,1,287.66,255Z"/><path class="cls-5" d="M270.11,289.43h-40a.38.38,0,0,1-.39-.39.39.39,0,0,1,.39-.39h40a.39.39,0,0,1,.39.39A.38.38,0,0,1,270.11,289.43Z"/><path class="cls-5" d="M293.05,267h-62.9a.39.39,0,0,1-.39-.39.38.38,0,0,1,.39-.39h62.9a.39.39,0,0,1,.39.39A.4.4,0,0,1,293.05,267Z"/><path class="cls-3" d="M250.08,278.28H230.15a.38.38,0,0,1-.39-.39.39.39,0,0,1,.39-.39h19.93a.4.4,0,0,1,.39.39A.39.39,0,0,1,250.08,278.28Z"/><path class="cls-5" d="M292.5,278.28H256.21a.39.39,0,0,1-.39-.39.4.4,0,0,1,.39-.39H292.5a.4.4,0,0,1,.39.39A.39.39,0,0,1,292.5,278.28Z"/><path class="cls-2" d="M375.47,310.05H330.25a.65.65,0,0,1-.64-.65v-75a.64.64,0,0,1,.64-.64h45.22a.64.64,0,0,1,.64.64v75A.65.65,0,0,1,375.47,310.05Z"/><path class="cls-2" d="M375.47,310.43H330.25a1,1,0,0,1-1-1v-75a1,1,0,0,1,1-1h45.22a1,1,0,0,1,1,1v75A1,1,0,0,1,375.47,310.43Zm-45.22-76.3a.25.25,0,0,0-.25.25v75a.26.26,0,0,0,.25.26h45.22a.26.26,0,0,0,.25-.26v-75a.25.25,0,0,0-.25-.25Z"/><path class="cls-5" d="M351.4,249H336.72a.39.39,0,1,1,0-.77H351.4a.39.39,0,1,1,0,.77Z"/><path class="cls-1" d="M360.31,249h-5.25a.39.39,0,0,1,0-.77h5.25a.39.39,0,1,1,0,.77Z"/><path class="cls-1" d="M369.31,249H364.5a.39.39,0,1,1,0-.77h4.81a.39.39,0,1,1,0,.77Z"/><path class="cls-5" d="M369.31,259.11H354.63a.39.39,0,0,1-.39-.39.4.4,0,0,1,.39-.39h14.68a.4.4,0,0,1,.39.39A.39.39,0,0,1,369.31,259.11Z"/><path class="cls-1" d="M351,259.11h-5.24a.38.38,0,0,1-.39-.39.39.39,0,0,1,.39-.39H351a.39.39,0,0,1,.39.39A.38.38,0,0,1,351,259.11Z"/><path class="cls-1" d="M341.53,259.11h-4.81a.39.39,0,0,1-.39-.39.4.4,0,0,1,.39-.39h4.81a.39.39,0,0,1,.38.39A.38.38,0,0,1,341.53,259.11Z"/><path class="cls-5" d="M344.28,254h-7.56a.39.39,0,0,1-.39-.39.4.4,0,0,1,.39-.39h7.56a.39.39,0,0,1,.38.39A.38.38,0,0,1,344.28,254Z"/><path class="cls-1" d="M360.31,254H347.49a.38.38,0,0,1-.39-.39.39.39,0,0,1,.39-.39h12.82a.4.4,0,0,1,.39.39A.39.39,0,0,1,360.31,254Z"/><path class="cls-5" d="M369.31,254H364.5a.39.39,0,0,1-.39-.39.4.4,0,0,1,.39-.39h4.81a.4.4,0,0,1,.39.39A.39.39,0,0,1,369.31,254Z"/><path class="cls-5" d="M351.4,263.6H336.72a.4.4,0,0,1-.39-.39.39.39,0,0,1,.39-.39H351.4a.39.39,0,0,1,.39.39A.4.4,0,0,1,351.4,263.6Z"/><path class="cls-1" d="M360.31,263.6h-5.25a.39.39,0,0,1-.38-.39.38.38,0,0,1,.38-.39h5.25a.39.39,0,0,1,.39.39A.4.4,0,0,1,360.31,263.6Z"/><path class="cls-5" d="M351.4,279.78H336.72a.39.39,0,0,1,0-.78H351.4a.4.4,0,0,1,.39.39A.39.39,0,0,1,351.4,279.78Z"/><path class="cls-1" d="M360.31,279.78h-5.25a.39.39,0,0,1,0-.78h5.25a.4.4,0,0,1,.39.39A.39.39,0,0,1,360.31,279.78Z"/><path class="cls-1" d="M369.31,263.6H364.5a.4.4,0,0,1-.39-.39.39.39,0,0,1,.39-.39h4.81a.39.39,0,0,1,.39.39A.4.4,0,0,1,369.31,263.6Z"/><path class="cls-5" d="M369.31,273.69H354.63a.39.39,0,1,1,0-.77h14.68a.39.39,0,1,1,0,.77Z"/><path class="cls-1" d="M351,273.69h-5.24a.39.39,0,1,1,0-.77H351a.39.39,0,1,1,0,.77Z"/><path class="cls-1" d="M341.53,273.69h-4.81a.39.39,0,1,1,0-.77h4.81a.39.39,0,0,1,0,.77Z"/><path class="cls-5" d="M351,285.25h-5.24a.38.38,0,0,1-.39-.39.39.39,0,0,1,.39-.39H351a.39.39,0,0,1,.39.39A.38.38,0,0,1,351,285.25Z"/><path class="cls-5" d="M341.53,285.25h-4.81a.39.39,0,0,1-.39-.39.4.4,0,0,1,.39-.39h4.81a.39.39,0,0,1,.38.39A.38.38,0,0,1,341.53,285.25Z"/><path class="cls-5" d="M344.28,268.59h-7.56a.39.39,0,1,1,0-.77h7.56a.39.39,0,0,1,0,.77Z"/><path class="cls-1" d="M360.31,268.59H347.49a.39.39,0,1,1,0-.77h12.82a.39.39,0,1,1,0,.77Z"/><path class="cls-5" d="M369.31,268.59H364.5a.39.39,0,1,1,0-.77h4.81a.39.39,0,1,1,0,.77Z"/><path class="cls-1" d="M349.44,290.62H336.62a.39.39,0,1,1,0-.77h12.82a.39.39,0,1,1,0,.77Z"/><path class="cls-5" d="M341.46,295.65h-4.81a.39.39,0,1,1,0-.77h4.81a.39.39,0,0,1,0,.77Z"/><path class="cls-2" d="M328.84,302.83H256a3.78,3.78,0,0,1-3.78-3.77V237.84a3.78,3.78,0,0,1,3.78-3.77h72.81a3.77,3.77,0,0,1,3.78,3.77v61.22A3.77,3.77,0,0,1,328.84,302.83Z"/><path class="cls-1" d="M333.18,299.88H260.37a3.78,3.78,0,0,1-3.78-3.78V234.89a3.78,3.78,0,0,1,3.78-3.78h72.81a3.77,3.77,0,0,1,3.77,3.78V296.1A3.78,3.78,0,0,1,333.18,299.88Z"/><path class="cls-2" d="M333.18,300.26H260.37a4.17,4.17,0,0,1-4.17-4.16V234.89a4.17,4.17,0,0,1,4.17-4.17h72.81a4.17,4.17,0,0,1,4.16,4.17V296.1A4.16,4.16,0,0,1,333.18,300.26ZM260.37,231.5a3.39,3.39,0,0,0-3.39,3.39V296.1a3.39,3.39,0,0,0,3.39,3.39h72.81a3.38,3.38,0,0,0,3.38-3.39V234.89a3.38,3.38,0,0,0-3.38-3.39Z"/><path class="cls-2" d="M334.71,157.72H256.82a5.63,5.63,0,0,1-5.63-5.63v-.68a5.63,5.63,0,0,1,5.63-5.63h77.89a5.63,5.63,0,0,1,5.63,5.63v.68A5.63,5.63,0,0,1,334.71,157.72Z"/><path class="cls-2" d="M334.71,158.11H256.82a6,6,0,0,1-6-6v-.68a6,6,0,0,1,6-6h77.89a6,6,0,0,1,6,6v.68A6,6,0,0,1,334.71,158.11Zm-77.89-11.94a5.25,5.25,0,0,0-5.24,5.24v.68a5.25,5.25,0,0,0,5.24,5.25h77.89a5.26,5.26,0,0,0,5.25-5.25v-.68a5.25,5.25,0,0,0-5.25-5.24Z"/><path class="cls-2" d="M321.44,171.35H270.09a3.48,3.48,0,0,1-3.47-3.47h0a3.47,3.47,0,0,1,3.47-3.47h51.35a3.47,3.47,0,0,1,3.47,3.47h0A3.47,3.47,0,0,1,321.44,171.35Z"/><path class="cls-2" d="M321.44,171.74H270.09a3.86,3.86,0,1,1,0-7.72h51.35a3.86,3.86,0,1,1,0,7.72Zm-51.35-7a3.09,3.09,0,0,0,0,6.17h51.35a3.09,3.09,0,0,0,0-6.17Z"/><path class="cls-2" d="M305.27,185.48h-19a4.27,4.27,0,0,1-4.27-4.27h0a4.28,4.28,0,0,1,4.27-4.28h19a4.28,4.28,0,0,1,4.28,4.28h0A4.28,4.28,0,0,1,305.27,185.48Z"/><path class="cls-2" d="M305.27,185.87h-19a4.67,4.67,0,0,1,0-9.33h19a4.67,4.67,0,1,1,0,9.33Zm-19-8.55a3.89,3.89,0,0,0,0,7.78h19a3.89,3.89,0,1,0,0-7.78Z"/><path class="cls-3" d="M335.73,155.53h-77.9a5.63,5.63,0,0,1-5.63-5.63v-.68a5.63,5.63,0,0,1,5.63-5.63h77.9a5.63,5.63,0,0,1,5.63,5.63v.68A5.63,5.63,0,0,1,335.73,155.53Z"/><path class="cls-2" d="M335.73,155.92h-77.9a6,6,0,0,1-6-6v-.68a6,6,0,0,1,6-6h77.9a6,6,0,0,1,6,6v.68A6,6,0,0,1,335.73,155.92ZM257.83,144a5.25,5.25,0,0,0-5.24,5.24v.68a5.25,5.25,0,0,0,5.24,5.24h77.9A5.25,5.25,0,0,0,341,149.9v-.68a5.25,5.25,0,0,0-5.24-5.24Z"/><path class="cls-1" d="M328.73,151.71H264.28a2.29,2.29,0,0,1-2.28-2.29v-.23a2.29,2.29,0,0,1,2.28-2.29h64.45a2.3,2.3,0,0,1,2.29,2.29v.23A2.3,2.3,0,0,1,328.73,151.71Zm-64.45-4a1.52,1.52,0,0,0-1.51,1.51v.23a1.52,1.52,0,0,0,1.51,1.51h64.45a1.51,1.51,0,0,0,1.51-1.51v-.23a1.51,1.51,0,0,0-1.51-1.51Z"/><path class="cls-3" d="M322.45,169.15H271.11a3.47,3.47,0,0,1-3.47-3.47h0a3.47,3.47,0,0,1,3.47-3.47h51.34a3.48,3.48,0,0,1,3.48,3.47h0A3.48,3.48,0,0,1,322.45,169.15Z"/><path class="cls-2" d="M322.45,169.54H271.11a3.86,3.86,0,0,1,0-7.72h51.34a3.86,3.86,0,1,1,0,7.72Zm-51.34-6.94a3.08,3.08,0,1,0,0,6.16h51.34a3.08,3.08,0,1,0,0-6.16Z"/><path class="cls-1" d="M281.05,167.24a1.56,1.56,0,1,1,1.56-1.56A1.56,1.56,0,0,1,281.05,167.24Zm0-2.34a.78.78,0,1,0,.78.78A.78.78,0,0,0,281.05,164.9Z"/><path class="cls-1" d="M287.5,167.24a1.56,1.56,0,1,1,1.56-1.56A1.56,1.56,0,0,1,287.5,167.24Zm0-2.34a.78.78,0,1,0,.78.78A.78.78,0,0,0,287.5,164.9Z"/><path class="cls-1" d="M293.52,167.24a1.56,1.56,0,1,1,1.56-1.56A1.56,1.56,0,0,1,293.52,167.24Zm0-2.34a.78.78,0,1,0,.78.78A.78.78,0,0,0,293.52,164.9Z"/><path class="cls-1" d="M300,167.24a1.56,1.56,0,1,1,1.56-1.56A1.56,1.56,0,0,1,300,167.24Zm0-2.34a.78.78,0,1,0,.78.78A.78.78,0,0,0,300,164.9Z"/><path class="cls-1" d="M306.23,167.24a1.56,1.56,0,1,1,1.56-1.56A1.56,1.56,0,0,1,306.23,167.24Zm0-2.34a.78.78,0,1,0,.78.78A.78.78,0,0,0,306.23,164.9Z"/><path class="cls-1" d="M312.68,167.24a1.56,1.56,0,1,1,1.55-1.56A1.56,1.56,0,0,1,312.68,167.24Zm0-2.34a.78.78,0,1,0,.78.78A.78.78,0,0,0,312.68,164.9Z"/><circle class="cls-2" cx="294.08" cy="119.42" r="18.67"/><path class="cls-2" d="M294.08,138.48a19.06,19.06,0,1,1,19.06-19.06A19.08,19.08,0,0,1,294.08,138.48Zm0-37.34a18.28,18.28,0,1,0,18.28,18.28A18.3,18.3,0,0,0,294.08,101.14Z"/><circle class="cls-5" cx="296.78" cy="117.06" r="18.67"/><path class="cls-2" d="M296.78,136.11a19.06,19.06,0,1,1,19.06-19.05A19.07,19.07,0,0,1,296.78,136.11Zm0-37.33a18.28,18.28,0,1,0,18.28,18.28A18.3,18.3,0,0,0,296.78,98.78Z"/><path class="cls-1" d="M305.07,126.48a8.29,8.29,0,1,0-16.58,0S305.07,126.52,305.07,126.48Z"/><path class="cls-2" d="M297.68,126.89h-6.26c-3.32,0-3.32,0-3.32-.4a8.68,8.68,0,1,1,17.36,0c0,.4,0,.4-2.65.41Zm7.38-.41h0Zm-16.18-.38c2.23,0,13.6,0,15.8,0a7.91,7.91,0,0,0-15.8,0Z"/><path class="cls-1" d="M292.12,112.32a4.72,4.72,0,1,0,4.71-4.71A4.71,4.71,0,0,0,292.12,112.32Z"/><path class="cls-2" d="M296.83,117.43a5.11,5.11,0,1,1,5.1-5.11A5.11,5.11,0,0,1,296.83,117.43Zm0-9.43a4.33,4.33,0,1,0,4.33,4.32A4.33,4.33,0,0,0,296.83,108Z"/><path class="cls-5" d="M306.29,183.29h-19A4.27,4.27,0,0,1,283,179h0a4.27,4.27,0,0,1,4.28-4.27h19a4.27,4.27,0,0,1,4.27,4.27h0A4.27,4.27,0,0,1,306.29,183.29Z"/><path class="cls-2" d="M306.28,183.68h-19a4.67,4.67,0,1,1,0-9.33h19a4.67,4.67,0,1,1,0,9.33Zm-19-8.55a3.89,3.89,0,1,0,0,7.77h19a3.89,3.89,0,1,0,0-7.77Z"/><path class="cls-2" d="M321.44,252.67c-17.65-.67-23.25-11-24.05-12.68h-.12c-.8,1.68-6.4,12-24,12.68,0,0-3.74,36.35,23.57,42.87h1.08C325.18,289,321.44,252.67,321.44,252.67Z"/><path class="cls-2" d="M297.87,295.93H296.7c-27.33-6.53-23.9-42.92-23.87-43.29a.4.4,0,0,1,.38-.35c17.25-.65,22.78-10.49,23.71-12.45a.38.38,0,0,1,.35-.22h.12a.38.38,0,0,1,.35.23c.93,2,6.46,11.8,23.72,12.45a.4.4,0,0,1,.37.35c0,.37,3.46,36.76-23.87,43.29Zm-1-.78h1c25.23-6.06,23.53-38.45,23.25-42.11-16.15-.73-22.18-9.42-23.75-12.31-1.56,2.89-7.6,11.58-23.75,12.31C273.3,256.7,271.6,289.09,296.84,295.15Z"/><path class="cls-3" d="M321.44,247.91c-17.65-.67-23.25-11-24.05-12.68h-.12c-.8,1.69-6.4,12-24,12.68,0,0-3.74,36.35,23.57,42.87h1.08C325.18,284.26,321.44,247.91,321.44,247.91Z"/><path class="cls-2" d="M297.87,291.17H296.7c-27.33-6.53-23.9-42.92-23.87-43.29a.4.4,0,0,1,.38-.35c17.25-.65,22.78-10.49,23.71-12.45a.38.38,0,0,1,.35-.22h.12a.37.37,0,0,1,.35.22c.93,2,6.46,11.8,23.72,12.45a.4.4,0,0,1,.37.35c0,.37,3.46,36.76-23.87,43.29Zm-1-.78h1c25.24-6.06,23.54-38.45,23.26-42.11-16.15-.73-22.18-9.42-23.75-12.31-1.56,2.89-7.6,11.59-23.75,12.31C273.3,251.94,271.6,284.33,296.84,290.39Z"/><path class="cls-8" d="M291.09,259.71h2.31v-3.15a4.1,4.1,0,1,1,8.19,0v3.15h2.31v-3.15a6.41,6.41,0,1,0-12.81,0v3.15Z"/><path class="cls-2" d="M303.9,260.1h-2.31a.4.4,0,0,1-.39-.39v-3.15a3.71,3.71,0,1,0-7.41,0v3.15a.39.39,0,0,1-.39.39h-2.31a.39.39,0,0,1-.39-.39v-3.15a6.8,6.8,0,1,1,13.59,0v3.15A.39.39,0,0,1,303.9,260.1Zm-1.92-.78h1.54v-2.76a6,6,0,1,0-12,0v2.76H293v-2.76a4.49,4.49,0,1,1,9,0v2.76Z"/><path class="cls-1" d="M288.5,275.67h18a.52.52,0,0,0,.53-.52v-14.9a.53.53,0,0,0-.53-.53h-18a.52.52,0,0,0-.52.53v14.9A.52.52,0,0,0,288.5,275.67Z"/><path class="cls-2" d="M306.5,276.06h-18a.91.91,0,0,1-.91-.91v-14.9a.91.91,0,0,1,.91-.91h18a.91.91,0,0,1,.91.91v14.9A.91.91,0,0,1,306.5,276.06Zm-18-15.95a.13.13,0,0,0-.13.14v14.9a.13.13,0,0,0,.13.13h18a.13.13,0,0,0,.13-.13v-14.9a.13.13,0,0,0-.13-.14Z"/><path class="cls-2" d="M296.73,267.71a1.73,1.73,0,0,1-1-1.56,1.75,1.75,0,0,1,3.5,0,1.72,1.72,0,0,1-.91,1.52l.73,2.65a.53.53,0,0,1-.51.68h-2.05a.54.54,0,0,1-.51-.68Z"/><path class="cls-2" d="M298.56,271.39h-2.05a.91.91,0,0,1-.73-.37.88.88,0,0,1-.15-.8l.64-2.32a2.14,2.14,0,1,1,2.52,0l.66,2.37a.89.89,0,0,1-.16.8A.91.91,0,0,1,298.56,271.39Zm-1.06-6.6a1.36,1.36,0,0,0-1.36,1.36,1.34,1.34,0,0,0,.76,1.21.4.4,0,0,1,.2.46l-.73,2.61a.13.13,0,0,0,0,.12.13.13,0,0,0,.11.06h2.05a.13.13,0,0,0,.11-.06.13.13,0,0,0,0-.12l-.74-2.65a.4.4,0,0,1,.19-.45,1.35,1.35,0,0,0-.65-2.54Z"/><path class="cls-8" d="M125.2,304.68h78.7a1.54,1.54,0,0,0,1.54-1.53v-56.6A1.54,1.54,0,0,0,203.9,245H125.2a1.53,1.53,0,0,0-1.53,1.54v56.6A1.53,1.53,0,0,0,125.2,304.68Z"/><path class="cls-2" d="M128.25,250.55H210v-7.69a2.37,2.37,0,0,0-2.36-2.37H130.08a1.83,1.83,0,0,0-1.83,1.83Z"/><path class="cls-2" d="M210.4,250.93H127.86v-8.61a2.23,2.23,0,0,1,2.22-2.22h77.57a2.76,2.76,0,0,1,2.75,2.76v8.07Zm-81.76-.77h81v-7.3a2,2,0,0,0-2-2H130.08a1.44,1.44,0,0,0-1.44,1.44v7.84Z"/><path class="cls-1" d="M197.88,247.34a1.94,1.94,0,1,1,1.93-1.94A1.93,1.93,0,0,1,197.88,247.34Zm0-3.1A1.16,1.16,0,1,0,199,245.4,1.16,1.16,0,0,0,197.88,244.24Z"/><path class="cls-1" d="M203.91,247.34a1.94,1.94,0,1,1,1.93-1.94A1.94,1.94,0,0,1,203.91,247.34Zm0-3.1a1.16,1.16,0,1,0,1.15,1.16A1.16,1.16,0,0,0,203.91,244.24Z"/><path class="cls-1" d="M191.89,247.34a1.94,1.94,0,1,1,1.93-1.94A1.93,1.93,0,0,1,191.89,247.34Zm0-3.1A1.16,1.16,0,1,0,193,245.4,1.16,1.16,0,0,0,191.89,244.24Z"/><path class="cls-1" d="M128.48,299.75h81.24a.27.27,0,0,0,.27-.27V250.82a.27.27,0,0,0-.27-.27H128.48a.26.26,0,0,0-.26.27v48.66A.26.26,0,0,0,128.48,299.75Z"/><path class="cls-2" d="M209.72,300.14H128.48a.66.66,0,0,1-.65-.66V250.82a.66.66,0,0,1,.65-.66h81.24a.67.67,0,0,1,.66.66v48.66A.67.67,0,0,1,209.72,300.14Zm-81.12-.78h81V250.94h-81Z"/><path class="cls-1" d="M202.17,288.39h-17.8a.14.14,0,0,1-.14-.14V260.62a.14.14,0,0,1,.14-.14h17.8a.13.13,0,0,1,.13.14v27.63A.13.13,0,0,1,202.17,288.39Z"/><path class="cls-8" d="M202.17,288.77h-17.8a.52.52,0,0,1-.52-.52V260.62a.52.52,0,0,1,.52-.53h17.8a.52.52,0,0,1,.52.53v27.63A.52.52,0,0,1,202.17,288.77ZM184.62,288h17.3V260.87h-17.3Z"/><line class="cls-9" x1="184.68" y1="261.01" x2="202.13" y2="288.03"/><path class="cls-8" d="M202.13,288.42a.38.38,0,0,1-.33-.18l-17.45-27a.39.39,0,0,1,.65-.42l17.45,27a.39.39,0,0,1-.11.54A.42.42,0,0,1,202.13,288.42Z"/><line class="cls-9" x1="201.77" y1="260.93" x2="184.37" y2="288.39"/><path class="cls-8" d="M184.37,288.77a.39.39,0,0,1-.21-.06.38.38,0,0,1-.12-.53l17.4-27.46a.39.39,0,0,1,.54-.12.38.38,0,0,1,.12.53l-17.41,27.46A.36.36,0,0,1,184.37,288.77Z"/><path class="cls-3" d="M176.69,262.87H139.05a.39.39,0,0,1-.38-.39.38.38,0,0,1,.38-.39h37.64a.38.38,0,0,1,.39.39A.39.39,0,0,1,176.69,262.87Z"/><path class="cls-5" d="M152.27,268.58H139.05a.39.39,0,0,1-.38-.39.38.38,0,0,1,.38-.39h13.22a.38.38,0,0,1,.39.39A.39.39,0,0,1,152.27,268.58Z"/><path class="cls-3" d="M173.77,268.58H157.71a.4.4,0,0,1-.39-.39.39.39,0,0,1,.39-.39h16.06a.39.39,0,0,1,.39.39A.4.4,0,0,1,173.77,268.58Z"/><path class="cls-5" d="M163.18,285.9H139.05a.39.39,0,0,1,0-.77h24.13a.39.39,0,1,1,0,.77Z"/><path class="cls-5" d="M177,274.58h-38a.39.39,0,0,1-.38-.39.38.38,0,0,1,.38-.39h38a.38.38,0,0,1,.39.39A.39.39,0,0,1,177,274.58Z"/><path class="cls-3" d="M151.08,280.29h-12a.39.39,0,0,1-.38-.39.38.38,0,0,1,.38-.39h12a.38.38,0,0,1,.39.39A.39.39,0,0,1,151.08,280.29Z"/><path class="cls-5" d="M176.69,280.29h-21.9a.39.39,0,0,1-.39-.39.38.38,0,0,1,.39-.39h21.9a.38.38,0,0,1,.39.39A.39.39,0,0,1,176.69,280.29Z"/><path class="cls-1" d="M158.67,273.55a11.74,11.74,0,0,0-.15-2.35h0A11.74,11.74,0,0,1,158.67,273.55Z"/><path class="cls-2" d="M77.06,264.33h60a1.14,1.14,0,0,0,1.15-1.15V221.06a1.15,1.15,0,0,0-1.15-1.16h-60a1.15,1.15,0,0,0-1.15,1.16v42.12A1.14,1.14,0,0,0,77.06,264.33Z"/><path class="cls-2" d="M137.1,264.72h-60a1.54,1.54,0,0,1-1.54-1.54V221.06a1.54,1.54,0,0,1,1.54-1.54h60a1.54,1.54,0,0,1,1.54,1.54v42.12A1.54,1.54,0,0,1,137.1,264.72Zm-60-44.43a.78.78,0,0,0-.77.77v42.12a.77.77,0,0,0,.77.76h60a.76.76,0,0,0,.76-.76V221.06a.77.77,0,0,0-.76-.77Z"/><path class="cls-5" d="M79.4,224h62.34v-5.7a1.78,1.78,0,0,0-1.78-1.78H80.78a1.38,1.38,0,0,0-1.38,1.38V224Z"/><path class="cls-2" d="M142.13,224.41H79v-6.49a1.77,1.77,0,0,1,1.77-1.77H140a2.17,2.17,0,0,1,2.17,2.17Zm-62.34-.77h61.56v-5.32a1.39,1.39,0,0,0-1.39-1.39H80.78a1,1,0,0,0-1,1Z"/><path class="cls-1" d="M87.59,221.74a1.55,1.55,0,1,1,1.54-1.55A1.55,1.55,0,0,1,87.59,221.74Zm0-2.31a.76.76,0,0,0-.76.76.76.76,0,1,0,1.52,0A.76.76,0,0,0,87.59,219.43Z"/><path class="cls-1" d="M92.08,221.74a1.55,1.55,0,1,1,1.54-1.55A1.55,1.55,0,0,1,92.08,221.74Zm0-2.31a.76.76,0,0,0-.76.76.76.76,0,1,0,1.52,0A.76.76,0,0,0,92.08,219.43Z"/><path class="cls-1" d="M83.13,221.74a1.55,1.55,0,1,1,1.54-1.55A1.55,1.55,0,0,1,83.13,221.74Zm0-2.31a.76.76,0,0,0-.76.76.76.76,0,1,0,1.52,0A.76.76,0,0,0,83.13,219.43Z"/><path class="cls-1" d="M79.58,260.66h61.94a.2.2,0,0,0,.2-.2V224.23a.2.2,0,0,0-.2-.2H79.58a.2.2,0,0,0-.21.2v36.23A.2.2,0,0,0,79.58,260.66Z"/><path class="cls-2" d="M141.52,261.05H79.58a.58.58,0,0,1-.59-.59V224.23a.58.58,0,0,1,.59-.59h61.94a.58.58,0,0,1,.59.59v36.23A.58.58,0,0,1,141.52,261.05Zm-61.76-.78h61.57V224.41H79.76Z"/><path class="cls-3" d="M133.61,233.3H107.93a.4.4,0,0,1-.39-.39.39.39,0,0,1,.39-.39h25.68a.38.38,0,0,1,.39.39A.39.39,0,0,1,133.61,233.3Z"/><path class="cls-5" d="M117,237.55h-9a.4.4,0,0,1-.39-.39.39.39,0,0,1,.39-.39h9a.38.38,0,0,1,.39.39A.39.39,0,0,1,117,237.55Z"/><path class="cls-3" d="M131.62,237.55h-11a.39.39,0,0,1-.38-.39.38.38,0,0,1,.38-.39h11a.39.39,0,0,1,.39.39A.4.4,0,0,1,131.62,237.55Z"/><path class="cls-5" d="M124.39,250.45H107.93a.39.39,0,0,1-.39-.39.4.4,0,0,1,.39-.39h16.46a.39.39,0,0,1,.39.39A.38.38,0,0,1,124.39,250.45Z"/><path class="cls-5" d="M133.84,242H107.93a.4.4,0,0,1-.39-.39.39.39,0,0,1,.39-.39h25.91a.38.38,0,0,1,.39.39A.39.39,0,0,1,133.84,242Z"/><path class="cls-3" d="M116.14,246.27h-8.21a.39.39,0,0,1,0-.78h8.21a.4.4,0,0,1,.39.39A.39.39,0,0,1,116.14,246.27Z"/><path class="cls-5" d="M133.61,246.27H118.67a.39.39,0,0,1,0-.78h14.94a.39.39,0,0,1,0,.78Z"/><path class="cls-2" d="M93.52,240.15V230.7a9.45,9.45,0,1,0,9.45,9.45Z"/><path class="cls-2" d="M93.52,250a9.84,9.84,0,1,1,0-19.68.39.39,0,0,1,.39.39v9.06H103a.39.39,0,0,1,.39.39A9.85,9.85,0,0,1,93.52,250Zm-.39-18.9a9.07,9.07,0,1,0,9.45,9.45H93.52a.4.4,0,0,1-.39-.39Z"/><path class="cls-3" d="M92.7,240.27v-9.45a9.46,9.46,0,1,0,9.45,9.45Z"/><path class="cls-2" d="M92.7,250.11a9.84,9.84,0,0,1,0-19.68h.39v9.45h9.45v.39A9.85,9.85,0,0,1,92.7,250.11Zm-.39-18.89a9.06,9.06,0,1,0,9.45,9.44H92.31Z"/><circle class="cls-2" cx="140.52" cy="218.11" r="14.04" transform="translate(-117.36 189.5) rotate(-50.88)"/><path class="cls-2" d="M140.52,232.56A14.44,14.44,0,1,1,155,218.13,14.45,14.45,0,0,1,140.52,232.56Zm0-28.09a13.66,13.66,0,1,0,13.65,13.66A13.68,13.68,0,0,0,140.52,204.47Z"/><circle class="cls-2" cx="142.11" cy="216.63" r="14.04"/><path class="cls-2" d="M142.11,231.07a14.43,14.43,0,1,1,14.43-14.43A14.44,14.44,0,0,1,142.11,231.07Zm0-28.09a13.66,13.66,0,1,0,13.66,13.66A13.67,13.67,0,0,0,142.11,203Z"/><path class="cls-2" d="M142,231.07c-3,0-4.57-7.43-4.57-14.43s1.6-14.43,4.57-14.43,4.58,7.43,4.58,14.43S145,231.07,142,231.07ZM142,203c-1.79,0-3.8,5.61-3.8,13.66s2,13.65,3.8,13.65,3.8-5.6,3.8-13.65S143.82,203,142,203Z"/><rect class="cls-2" x="128.72" y="211.75" width="26.56" height="0.78"/><rect class="cls-2" x="128.72" y="221.25" width="26.56" height="0.78"/></g></g></svg>