<svg xmlns="http://www.w3.org/2000/svg" xmlns:xlink="http://www.w3.org/1999/xlink" viewBox="0 0 592 500"><defs><style>.cls-1{fill:#fff;}.cls-2{fill:url(#linear-gradient);}.cls-3{fill:#dce5fe;}.cls-4{fill:#bdd0fb;}.cls-5{fill:#779ce8;}.cls-6{fill:url(#linear-gradient-2);}.cls-7{fill:#407bff;}.cls-8{fill:url(#linear-gradient-3);}.cls-9{fill:url(#linear-gradient-4);}.cls-10{fill:url(#linear-gradient-5);}.cls-11{fill:url(#linear-gradient-6);}.cls-12{fill:url(#linear-gradient-7);}.cls-13{fill:url(#linear-gradient-8);}.cls-14{fill:url(#linear-gradient-9);}.cls-15{fill:url(#linear-gradient-10);}.cls-16{fill:url(#linear-gradient-11);}.cls-17{fill:url(#linear-gradient-12);}.cls-18{fill:url(#linear-gradient-13);}.cls-19{fill:url(#linear-gradient-14);}.cls-20{fill:url(#linear-gradient-15);}.cls-21{fill:url(#linear-gradient-16);}.cls-22{fill:url(#linear-gradient-17);}.cls-23{fill:url(#linear-gradient-18);}.cls-24{fill:url(#linear-gradient-19);}.cls-25{fill:url(#linear-gradient-20);}.cls-26{fill:url(#linear-gradient-21);}.cls-27{fill:url(#linear-gradient-22);}.cls-28{fill:#91b3fa;}.cls-29{fill:none;}.cls-29,.cls-34{stroke:#779ce8;}.cls-29,.cls-30,.cls-31,.cls-33,.cls-34{stroke-miterlimit:10;}.cls-30,.cls-31,.cls-33,.cls-34{fill:#fcfcfc;}.cls-30{stroke:url(#linear-gradient-23);}.cls-31{stroke:url(#linear-gradient-24);}.cls-32{fill:#7d97f4;}.cls-33{stroke:url(#linear-gradient-25);}.cls-34{stroke-width:6px;}.cls-35{fill:url(#linear-gradient-26);}.cls-36{fill:url(#linear-gradient-27);}.cls-37{fill:url(#linear-gradient-28);}.cls-38{fill:url(#linear-gradient-29);}.cls-39,.cls-40,.cls-41,.cls-42,.cls-43,.cls-44{opacity:0.6;}.cls-39,.cls-40,.cls-41,.cls-42,.cls-43,.cls-65{isolation:isolate;}.cls-39{fill:url(#linear-gradient-30);}.cls-40{fill:url(#linear-gradient-31);}.cls-41{fill:url(#linear-gradient-32);}.cls-42{fill:url(#linear-gradient-33);}.cls-43{fill:url(#linear-gradient-34);}.cls-45{fill:url(#linear-gradient-35);}.cls-46{fill:url(#linear-gradient-36);}.cls-47{fill:url(#linear-gradient-37);}.cls-48{fill:url(#linear-gradient-38);}.cls-49{fill:url(#linear-gradient-39);}.cls-50{fill:url(#linear-gradient-40);}.cls-51{fill:url(#linear-gradient-41);}.cls-52{fill:url(#linear-gradient-42);}.cls-53{fill:url(#linear-gradient-43);}.cls-54{fill:url(#linear-gradient-44);}.cls-55{fill:url(#linear-gradient-45);}.cls-56{fill:url(#linear-gradient-46);}.cls-57{fill:url(#linear-gradient-47);}.cls-58{fill:url(#linear-gradient-48);}.cls-59{fill:url(#linear-gradient-49);}.cls-60{fill:url(#linear-gradient-50);}.cls-61{fill:url(#linear-gradient-51);}.cls-62{fill:url(#linear-gradient-52);}.cls-63{fill:url(#linear-gradient-53);}.cls-64{fill:url(#linear-gradient-54);}.cls-65{opacity:0.42;fill:url(#linear-gradient-55);}.cls-66{fill:url(#linear-gradient-56);}</style><linearGradient id="linear-gradient" x1="30.88" y1="-3162.07" x2="565.1" y2="-3162.07" gradientTransform="matrix(1, 0, 0, -1, 0, -2917.3)" gradientUnits="userSpaceOnUse"><stop offset="0" stop-color="#dae3fe"/><stop offset="1" stop-color="#e9effd"/></linearGradient><linearGradient id="linear-gradient-2" x1="326.95" y1="-3104.33" x2="375.2" y2="-3167.05" gradientTransform="matrix(1, 0, 0, -1, 0, -2917.3)" gradientUnits="userSpaceOnUse"><stop offset="0" stop-color="#4042e2"/><stop offset="1" stop-color="#4f52ff"/></linearGradient><linearGradient id="linear-gradient-3" x1="315.75" y1="-3313.85" x2="364" y2="-3376.57" xlink:href="#linear-gradient-2"/><linearGradient id="linear-gradient-4" x1="215.66" y1="-3167.08" x2="276.24" y2="-3142.15" gradientTransform="matrix(1, 0, 0, -1, 0, -2917.3)" gradientUnits="userSpaceOnUse"><stop offset="0" stop-color="#e1473d"/><stop offset="1" stop-color="#e9605a"/></linearGradient><linearGradient id="linear-gradient-5" x1="290.48" y1="-3179.51" x2="291.19" y2="-3127.68" gradientTransform="matrix(1, 0, 0, -1, 0, -2917.3)" gradientUnits="userSpaceOnUse"><stop offset="0" stop-color="#fe7062"/><stop offset="1" stop-color="#ff928e"/></linearGradient><linearGradient id="linear-gradient-6" x1="326.07" y1="-3159.96" x2="339.83" y2="-3175.87" xlink:href="#linear-gradient-2"/><linearGradient id="linear-gradient-7" x1="360.46" y1="-3225.61" x2="360.46" y2="-3185.94" xlink:href="#linear-gradient-5"/><linearGradient id="linear-gradient-8" x1="256.91" y1="-3159.96" x2="270.67" y2="-3175.87" xlink:href="#linear-gradient-2"/><linearGradient id="linear-gradient-9" x1="291.3" y1="-3225.61" x2="291.3" y2="-3185.94" xlink:href="#linear-gradient-5"/><linearGradient id="linear-gradient-10" x1="186.15" y1="-3159.96" x2="199.91" y2="-3175.87" xlink:href="#linear-gradient-2"/><linearGradient id="linear-gradient-11" x1="220.53" y1="-3225.61" x2="220.53" y2="-3185.94" xlink:href="#linear-gradient-5"/><linearGradient id="linear-gradient-12" x1="4298.77" y1="624.64" x2="4280.7" y2="616.04" gradientTransform="matrix(0, 1, 1, 0, -328.9, -4113.31)" gradientUnits="userSpaceOnUse"><stop offset="0" stop-color="#09005d"/><stop offset="1" stop-color="#1a0f91"/></linearGradient><linearGradient id="linear-gradient-13" x1="4299.67" y1="618.09" x2="4297.11" y2="623.46" xlink:href="#linear-gradient-12"/><linearGradient id="linear-gradient-14" x1="4374.85" y1="623.6" x2="4361.16" y2="617.08" xlink:href="#linear-gradient-12"/><linearGradient id="linear-gradient-15" x1="4375.26" y1="618.09" x2="4372.71" y2="623.46" xlink:href="#linear-gradient-12"/><linearGradient id="linear-gradient-16" x1="4446.78" y1="623.46" x2="4429.15" y2="615.07" xlink:href="#linear-gradient-12"/><linearGradient id="linear-gradient-17" x1="4447.63" y1="617.26" x2="4445.08" y2="622.63" xlink:href="#linear-gradient-12"/><linearGradient id="linear-gradient-18" x1="262.23" y1="-3133.94" x2="209.84" y2="-3158.86" gradientTransform="matrix(1, 0, 0, -1, 0, -2917.3)" xlink:href="#linear-gradient-12"/><linearGradient id="linear-gradient-19" x1="4372.58" y1="544.64" x2="4370.02" y2="550.01" xlink:href="#linear-gradient-12"/><linearGradient id="linear-gradient-20" x1="294.51" y1="-3134.22" x2="242.12" y2="-3159.14" gradientTransform="translate(615.71 -2917.58) rotate(180)" xlink:href="#linear-gradient-12"/><linearGradient id="linear-gradient-21" x1="4372.86" y1="577.2" x2="4370.3" y2="582.57" gradientTransform="translate(944.6 -4113.59) rotate(90)" xlink:href="#linear-gradient-12"/><linearGradient id="linear-gradient-22" x1="216.66" y1="-3224.67" x2="365.69" y2="-3224.67" gradientTransform="matrix(1, 0, 0, -1, 0, -2917.3)" xlink:href="#linear-gradient-12"/><linearGradient id="linear-gradient-23" x1="453.81" y1="377.1" x2="548.43" y2="377.1" gradientTransform="matrix(1, 0, 0, 1, 0, 0)" xlink:href="#linear-gradient"/><linearGradient id="linear-gradient-24" x1="427.25" y1="353.09" x2="537.8" y2="353.09" gradientTransform="matrix(1, 0, 0, 1, 0, 0)" xlink:href="#linear-gradient"/><linearGradient id="linear-gradient-25" x1="399" y1="335.66" x2="521.46" y2="335.66" gradientTransform="matrix(1, 0, 0, 1, 0, 0)" xlink:href="#linear-gradient"/><linearGradient id="linear-gradient-26" x1="66.61" y1="-3178.89" x2="140.36" y2="-3178.89" xlink:href="#linear-gradient"/><linearGradient id="linear-gradient-27" x1="74.44" y1="-3186.93" x2="139.38" y2="-3186.93" xlink:href="#linear-gradient"/><linearGradient id="linear-gradient-28" x1="60.87" y1="-3255.38" x2="156.5" y2="-3255.38" xlink:href="#linear-gradient"/><linearGradient id="linear-gradient-29" x1="61.95" y1="-3205.6" x2="154.5" y2="-3205.6" xlink:href="#linear-gradient"/><linearGradient id="linear-gradient-30" x1="71.38" y1="-3285.04" x2="82.65" y2="-3285.04" xlink:href="#linear-gradient"/><linearGradient id="linear-gradient-31" x1="100.14" y1="-3282.59" x2="111.55" y2="-3282.59" xlink:href="#linear-gradient"/><linearGradient id="linear-gradient-32" x1="85.46" y1="-3278.67" x2="96.73" y2="-3278.67" xlink:href="#linear-gradient"/><linearGradient id="linear-gradient-33" x1="134.23" y1="-3269.55" x2="145.49" y2="-3269.55" xlink:href="#linear-gradient"/><linearGradient id="linear-gradient-34" x1="117.48" y1="-3274.52" x2="128.74" y2="-3274.52" xlink:href="#linear-gradient"/><linearGradient id="linear-gradient-35" x1="76.41" y1="-3239.54" x2="131.61" y2="-3239.54" xlink:href="#linear-gradient"/><linearGradient id="linear-gradient-36" x1="74.91" y1="-3250.59" x2="78.13" y2="-3250.59" xlink:href="#linear-gradient"/><linearGradient id="linear-gradient-37" x1="89.8" y1="-3242.45" x2="93.03" y2="-3242.45" xlink:href="#linear-gradient"/><linearGradient id="linear-gradient-38" x1="103.78" y1="-3248.29" x2="107" y2="-3248.29" xlink:href="#linear-gradient"/><linearGradient id="linear-gradient-39" x1="115.45" y1="-3236.77" x2="118.67" y2="-3236.77" xlink:href="#linear-gradient"/><linearGradient id="linear-gradient-40" x1="129.88" y1="-3228.48" x2="133.11" y2="-3228.48" xlink:href="#linear-gradient"/><linearGradient id="linear-gradient-41" x1="141.11" y1="-3273.99" x2="220.66" y2="-3387.82" xlink:href="#linear-gradient-5"/><linearGradient id="linear-gradient-42" x1="131.33" y1="-3091.97" x2="149.73" y2="-3220.07" gradientTransform="matrix(1, 0, 0, -1, 0, -2917.3)" gradientUnits="userSpaceOnUse"><stop offset="0" stop-color="#ff928e"/><stop offset="1" stop-color="#feb3b1"/></linearGradient><linearGradient id="linear-gradient-43" x1="126.1" y1="-3289.39" x2="194" y2="-3289.39" xlink:href="#linear-gradient-5"/><linearGradient id="linear-gradient-44" x1="127.06" y1="-3299.54" x2="191.9" y2="-3299.54" xlink:href="#linear-gradient-5"/><linearGradient id="linear-gradient-45" x1="48.82" y1="-3158.8" x2="12.73" y2="-3236.65" xlink:href="#linear-gradient-2"/><linearGradient id="linear-gradient-46" x1="127.9" y1="-3016.17" x2="120.82" y2="-3100.39" xlink:href="#linear-gradient-4"/><linearGradient id="linear-gradient-47" x1="108.02" y1="-3123.89" x2="61.45" y2="-3152.53" xlink:href="#linear-gradient-5"/><linearGradient id="linear-gradient-48" x1="123.23" y1="-3125.3" x2="136.76" y2="-3147.26" xlink:href="#linear-gradient-4"/><linearGradient id="linear-gradient-49" x1="148.07" y1="-3118.02" x2="181.11" y2="-3121.18" xlink:href="#linear-gradient-4"/><linearGradient id="linear-gradient-50" x1="184.87" y1="-3132.43" x2="187" y2="-3211.69" xlink:href="#linear-gradient-5"/><linearGradient id="linear-gradient-51" x1="300.87" y1="-3011.98" x2="224.44" y2="-3087.71" xlink:href="#linear-gradient-4"/><linearGradient id="linear-gradient-52" x1="-38.02" y1="-3124.68" x2="79.19" y2="-3122.4" xlink:href="#linear-gradient-5"/><linearGradient id="linear-gradient-53" x1="199.33" y1="-3152.29" x2="220.56" y2="-3218.11" xlink:href="#linear-gradient-5"/><linearGradient id="linear-gradient-54" x1="64.81" y1="-3310.08" x2="136.82" y2="-3247.77" gradientTransform="matrix(1, 0, 0, -1, 0, -2917.3)" xlink:href="#linear-gradient-12"/><linearGradient id="linear-gradient-55" x1="108.01" y1="-3254.51" x2="180.09" y2="-3254.51" xlink:href="#linear-gradient"/><linearGradient id="linear-gradient-56" x1="914.29" y1="-3395.09" x2="994.53" y2="-3395.09" gradientTransform="matrix(0.99, -0.16, -0.16, -0.99, -1330.53, -2866.23)" xlink:href="#linear-gradient-12"/></defs><g id="Layer_1" data-name="Layer 1"><rect class="cls-1" x="-52.24" y="-12.7" width="672.51" height="557.68"/></g><g id="Layer_4" data-name="Layer 4"><g id="Illustration"><path class="cls-2" d="M543.75,306c-49.11-31.46-46.71-11.68-39.06-55.14s16.7-167.25-90.57-162S301.8,153.57,216.58,114.2,24.75,178,81.93,241.94c55.18,61.75-131.68,65-7.61,149.13a55,55,0,0,0,30.91,9.74l421.57-1.15C571.75,399.54,576.79,327.18,543.75,306Z"/><path class="cls-3" d="M539.42,271.77c-.24.48-.47.83-.71,1.23l-.73,1.16-1.48,2.3c-1,1.52-2,3-3.06,4.52-2.07,3-4.2,6-6.34,8.91q-6.5,8.79-13.45,17.23a398.73,398.73,0,0,1-29.54,32.24c-5.21,5.11-10.64,10-16.18,14.73s-11.3,9.24-17.2,13.54-12.07,8.21-18.35,11.93c-3.19,1.76-6.35,3.58-9.64,5.17s-6.59,3.13-9.91,4.63a.27.27,0,0,1-.35-.13.27.27,0,0,1,.13-.36h0a215.58,215.58,0,0,0,19.21-10.27q9.29-5.69,18.06-12.14c5.82-4.34,11.53-8.83,17-13.56s10.84-9.66,16.07-14.7,10.28-10.26,15.22-15.59l3.68-4,3.62-4.07c2.39-2.74,4.78-5.47,7.11-8.26q7-8.33,13.65-17c2.2-2.89,4.39-5.79,6.51-8.75q1.61-2.2,3.15-4.44l1.55-2.25.76-1.13c.23-.37.5-.78.69-1.1l0-.07a.26.26,0,0,1,.36-.1A.26.26,0,0,1,539.42,271.77Z"/><path class="cls-4" d="M197.55,404.24s-4.28-16.64-23.86-26.05c-18.16-8.74-62.27-27.92-75.21-44.14-.58-.72-1.74.14-1.52,1.12,2.38,10.54,10.23,36,33.08,54C159.5,412.42,197.55,404.24,197.55,404.24Z"/><path class="cls-3" d="M108.58,350.06a39.3,39.3,0,0,0,3.2,5.47c.57.88,1.22,1.72,1.85,2.56s1.33,1.63,2,2.46a66.67,66.67,0,0,0,9.06,8.72l1.22,1c.41.33.85.62,1.27.93.85.61,1.69,1.24,2.55,1.83l2.65,1.69c.87.59,1.79,1.09,2.71,1.6s1.82,1,2.74,1.54l2.83,1.37c1.86.94,3.83,1.76,5.75,2.64q5.82,2.53,11.7,4.91c3.93,1.59,7.88,3.12,11.83,4.66,2,.77,4,1.53,5.93,2.34,1,.39,2,.8,3,1.21l1.48.62,1.45.67q2.93,1.31,5.73,2.9a29.7,29.7,0,0,1,5.2,3.79.28.28,0,0,1,0,.38.25.25,0,0,1-.36,0h0A33.9,33.9,0,0,0,187,400q-2.82-1.41-5.77-2.55c-3.92-1.56-7.93-2.94-11.92-4.39l-6-2.17c-2-.75-4-1.49-6-2.27s-4-1.56-5.93-2.36-3.92-1.66-5.87-2.51c-7.8-3.36-15.52-7.5-22-13.2a59.89,59.89,0,0,1-8.82-9.33,55.71,55.71,0,0,1-3.55-5.35,33.53,33.53,0,0,1-2.71-5.79s0,0,0,0S108.57,350,108.58,350.06Z"/><path class="cls-4" d="M93.83,230.05a1.56,1.56,0,0,1,2.92-.82c7.76,13.65,29.25,48.8,52.75,64.45,38.26,25.48,71.58,74,59.21,106.52C208.71,400.2,99.4,407,93.83,230.05Z"/><path class="cls-3" d="M102.46,250.15c.13.35.32.76.49,1.15l.54,1.18,1.09,2.36,2.25,4.69q2.28,4.67,4.67,9.29,4.75,9.24,9.84,18.31c6.82,12.06,14,23.94,21.75,35.41,3.91,5.71,7.85,11.41,12,16.93s8.48,10.95,13,16.2,9.17,10.37,14.11,15.22a200.91,200.91,0,0,0,15.5,13.8h0a.26.26,0,0,1-.32.42,180.79,180.79,0,0,1-15.95-13.44c-5.05-4.79-9.81-9.87-14.43-15.07a333,333,0,0,1-25.26-33.17c-3.89-5.76-7.59-11.65-11.2-17.59s-7.08-12-10.39-18.07-6.54-12.26-9.59-18.49c-1.53-3.13-3-6.26-4.48-9.42-.72-1.57-1.44-3.15-2.14-4.75l-1-2.39-.5-1.2c-.16-.41-.33-.79-.48-1.26a.27.27,0,0,1,.16-.34.28.28,0,0,1,.34.16Z"/><path class="cls-5" d="M413.88,100.58a11.17,11.17,0,0,0-8-3.39l-229.54.13a11.22,11.22,0,0,0-11.2,11.55l9.1,293.23a11.11,11.11,0,0,0,11.2,10.75H397.23a11.11,11.11,0,0,0,11.2-10.76l8.62-293.43A11,11,0,0,0,413.88,100.58Z"/><path class="cls-1" d="M403.73,114.08a10.26,10.26,0,0,0-7.36-3.11l-209.8.13a10.23,10.23,0,0,0-10.23,10.56l8.32,268a10.13,10.13,0,0,0,10.23,9.8H388.51a10.14,10.14,0,0,0,10.24-9.82l7.87-268.16A10.12,10.12,0,0,0,403.73,114.08Z"/><circle class="cls-6" cx="291.08" cy="140.38" r="22.7"/><circle class="cls-7" cx="291.61" cy="140.38" r="21.09"/><circle class="cls-8" cx="291.08" cy="364.47" r="22.7"/><circle class="cls-7" cx="291.61" cy="364.47" r="21.09"/><polygon class="cls-9" points="291.14 192.54 264.87 218.68 291.01 244.94 317.28 218.81 291.14 192.54"/><polygon class="cls-10" points="291.13 194.68 267.02 218.68 291.02 242.8 315.13 218.8 291.13 194.68"/><path class="cls-11" d="M384.46,282.57A14.48,14.48,0,0,1,370,297.05H351.22a14.48,14.48,0,0,1-14.48-14.48h0a14.47,14.47,0,0,1,14.48-14.47H370a14.47,14.47,0,0,1,14.48,14.47Z"/><path class="cls-12" d="M382.48,282.57A13.32,13.32,0,0,1,369.16,296H351.75a13.32,13.32,0,0,1-13.32-13.41h0a13.31,13.31,0,0,1,13.32-13.4h17.41a13.31,13.31,0,0,1,13.32,13.4Z"/><path class="cls-13" d="M315.3,282.57a14.48,14.48,0,0,1-14.48,14.48H282.06a14.47,14.47,0,0,1-14.47-14.48h0a14.47,14.47,0,0,1,14.47-14.47h18.76a14.47,14.47,0,0,1,14.48,14.47Z"/><path class="cls-14" d="M313.32,282.57A13.31,13.31,0,0,1,300,296H282.59a13.32,13.32,0,0,1-13.32-13.41h0a13.32,13.32,0,0,1,13.32-13.4H300a13.31,13.31,0,0,1,13.31,13.4Z"/><path class="cls-15" d="M244.53,282.57a14.47,14.47,0,0,1-14.47,14.48H211.3a14.48,14.48,0,0,1-14.48-14.48h0A14.47,14.47,0,0,1,211.3,268.1h18.76a14.47,14.47,0,0,1,14.47,14.47Z"/><path class="cls-16" d="M242.56,282.57A13.32,13.32,0,0,1,229.24,296H211.83a13.32,13.32,0,0,1-13.32-13.41h0a13.31,13.31,0,0,1,13.32-13.4h17.41a13.31,13.31,0,0,1,13.32,13.4Z"/><path class="cls-17" d="M291.44,187.42a.8.8,0,0,1-.8-.81V166.24a.81.81,0,0,1,1.61,0v20.37A.81.81,0,0,1,291.44,187.42Z"/><polygon class="cls-18" points="294.37 183.4 291.07 189.1 287.78 183.4 294.37 183.4"/><path class="cls-19" d="M291.44,263a.8.8,0,0,1-.8-.81v-15a.81.81,0,0,1,1.61,0v15A.81.81,0,0,1,291.44,263Z"/><polygon class="cls-20" points="294.37 258.99 291.07 264.69 287.78 258.99 294.37 258.99"/><path class="cls-21" d="M290.37,335.38a.8.8,0,0,1-.8-.8V314.74a.81.81,0,0,1,1.61,0v19.84A.8.8,0,0,1,290.37,335.38Z"/><polygon class="cls-22" points="293.54 331.36 290.25 337.06 286.96 331.36 293.54 331.36"/><path class="cls-23" d="M218,257.65a.81.81,0,0,1-.81-.81V218.51a.8.8,0,0,1,.81-.8h44.23a.8.8,0,1,1,0,1.6H218.8v37.53A.8.8,0,0,1,218,257.65Z"/><polygon class="cls-24" points="220.92 256.31 217.63 262.01 214.34 256.31 220.92 256.31"/><path class="cls-25" d="M365.42,257.65a.8.8,0,0,1-.8-.81V219.31H321.2a.8.8,0,1,1,0-1.6h44.22a.8.8,0,0,1,.81.8v38.33A.81.81,0,0,1,365.42,257.65Z"/><polygon class="cls-26" points="362.22 256.31 365.52 262.01 368.81 256.31 362.22 256.31"/><path class="cls-27" d="M364.89,315.28H217.46a.8.8,0,0,1-.8-.81v-14.2a.81.81,0,1,1,1.61,0v13.4H364.08v-13.4a.81.81,0,1,1,1.61,0v14.2A.8.8,0,0,1,364.89,315.28Z"/><path class="cls-7" d="M251.5,128a3.39,3.39,0,0,1-3.39,3.39h-55.4a3.39,3.39,0,0,1-3.39-3.39v-.18a3.4,3.4,0,0,1,3.39-3.4h55.4a3.4,3.4,0,0,1,3.39,3.4V128Z"/><path class="cls-7" d="M251.5,143.55a3.39,3.39,0,0,1-3.39,3.39h-55.4a3.39,3.39,0,0,1-3.39-3.39v-.18a3.4,3.4,0,0,1,3.39-3.4h55.4a3.4,3.4,0,0,1,3.39,3.4v.18Z"/><path class="cls-28" d="M410.88,195.49a1.28,1.28,0,0,1-1.09-.63l-2.61-4.46A25,25,0,0,1,400,189l-4.12,3.14a1.25,1.25,0,0,1-1.46.05l-5.61-3.73a1.25,1.25,0,0,1-.52-1.37l1.3-5a25.25,25.25,0,0,1-4.07-6.06l-5.12-.68a1.26,1.26,0,0,1-1.07-1l-1.33-6.6a1.26,1.26,0,0,1,.6-1.34l4.46-2.61a25.13,25.13,0,0,1,1.41-7.17l-3.14-4.11a1.28,1.28,0,0,1-.05-1.47l3.73-5.6a1.26,1.26,0,0,1,1.38-.52l5,1.3a25.25,25.25,0,0,1,6.06-4.07l.69-5.12a1.24,1.24,0,0,1,1-1.07l6.6-1.33a1.25,1.25,0,0,1,1.34.6l2.62,4.46a25.13,25.13,0,0,1,7.16,1.41l4.11-3.14a1.26,1.26,0,0,1,1.47-.05l5.6,3.73a1.28,1.28,0,0,1,.53,1.37l-1.31,5a25,25,0,0,1,4.07,6.06l5.12.68a1.29,1.29,0,0,1,1.08,1l1.32,6.6a1.25,1.25,0,0,1-.6,1.34l-4.46,2.61a25.13,25.13,0,0,1-1.41,7.17l3.14,4.11a1.26,1.26,0,0,1,0,1.47l-3.73,5.6a1.25,1.25,0,0,1-1.37.52l-5-1.3a25.19,25.19,0,0,1-6.05,4.07l-.69,5.12a1.25,1.25,0,0,1-1,1.07l-6.6,1.33A1,1,0,0,1,410.88,195.49Zm-11.14-8.31.42.15a23.59,23.59,0,0,0,7.51,1.48l.45,0,2.94,5,6.12-1.23.77-5.76.4-.18a23.55,23.55,0,0,0,6.36-4.28l.32-.3,5.63,1.47,3.45-5.2-3.52-4.62.15-.42a23.6,23.6,0,0,0,1.49-7.51v-.45l5-2.93L436,156.31l-5.76-.78-.18-.4a23.74,23.74,0,0,0-4.27-6.36l-.31-.32,1.47-5.63-5.2-3.45-4.62,3.52-.42-.15a23.53,23.53,0,0,0-7.51-1.48l-.44,0-2.94-5-6.12,1.23-.78,5.76-.4.18a23.55,23.55,0,0,0-6.36,4.28l-.32.3-5.62-1.47-3.46,5.2,3.52,4.62-.15.42a23.59,23.59,0,0,0-1.48,7.51l0,.45-5,2.93,1.24,6.12,5.75.78.19.4a23.28,23.28,0,0,0,4.27,6.36l.3.32-1.46,5.63,5.19,3.45Zm-19.11-13.45Zm27.91,8.43a17.06,17.06,0,0,1-16.68-13.69,17.68,17.68,0,0,1-.34-3.62.82.82,0,0,1,.82-.79.8.8,0,0,1,.79.81,15.72,15.72,0,0,0,.31,3.28,15.43,15.43,0,1,0,4.75-14.47.81.81,0,0,1-1.14-.06.8.8,0,0,1,.06-1.13,17,17,0,1,1,14.82,29.33A17.72,17.72,0,0,1,408.54,182.16Z"/><path class="cls-28" d="M408.46,171.82a6.79,6.79,0,0,1-6.13-3.86h0a6.76,6.76,0,1,1,6.13,3.86Zm-4.68-4.55a5.17,5.17,0,1,0,2.44-6.9,5.18,5.18,0,0,0-2.44,6.9Z"/><path class="cls-28" d="M452.27,203.6a1,1,0,0,1-.29,0l-3.1-.93a1,1,0,0,1-.73-.95l-.09-2.26a12.56,12.56,0,0,1-2.47-2l-2.23.36a1,1,0,0,1-1.07-.52l-1.53-2.86a1,1,0,0,1,.15-1.18l1.53-1.66a12.47,12.47,0,0,1-.31-3.16l-1.84-1.33a1,1,0,0,1-.39-1.13l.94-3.1a1,1,0,0,1,.94-.73L444,182a12.87,12.87,0,0,1,2-2.46l-.36-2.23a1,1,0,0,1,.53-1.07l2.85-1.54a1,1,0,0,1,1.18.15l1.66,1.54a12.51,12.51,0,0,1,3.17-.32l1.32-1.84a1,1,0,0,1,1.13-.38l3.1.93a1,1,0,0,1,.73,1l.09,2.26a12.22,12.22,0,0,1,2.46,2l2.24-.36a1,1,0,0,1,1.07.52l1.53,2.85a1,1,0,0,1-.15,1.19l-1.54,1.66a12.48,12.48,0,0,1,.32,3.16l1.84,1.33a1,1,0,0,1,.38,1.13l-.93,3.1a1,1,0,0,1-.94.73l-2.26.09a12.55,12.55,0,0,1-2,2.46l.37,2.23a1,1,0,0,1-.53,1.07l-2.85,1.54a1,1,0,0,1-1.18-.15L457.59,201a12.38,12.38,0,0,1-3.16.32l-1.32,1.84A1,1,0,0,1,452.27,203.6Zm-.47-1.36Zm-2.06-1,2.3.69,1.6-2.21.44,0a10.77,10.77,0,0,0,3.53-.35l.43-.12,2,1.85,2.12-1.14-.43-2.69.33-.29a11,11,0,0,0,2.24-2.75l.22-.39,2.73-.1.69-2.31-2.21-1.59,0-.45a11.06,11.06,0,0,0-.36-3.53l-.11-.43,1.85-2L466,181.3l-2.69.44-.3-.33a10.85,10.85,0,0,0-2.75-2.25l-.38-.22-.11-2.73-2.31-.69-1.59,2.21-.44,0a10.75,10.75,0,0,0-3.53.35l-.43.12-2-1.85-2.12,1.14.44,2.69-.33.29a11,11,0,0,0-2.24,2.75l-.23.39-2.72.1-.7,2.31,2.22,1.59,0,.45a11.06,11.06,0,0,0,.36,3.53l.11.43-1.85,2,1.14,2.12,2.69-.44.3.34a10.85,10.85,0,0,0,2.75,2.24l.38.22ZM443.23,197h0Zm24.19-13.86Zm-12.59,14.22a8.65,8.65,0,0,1-7.6-4.54,8.82,8.82,0,0,1-.69-1.69.81.81,0,0,1,.55-1,.8.8,0,0,1,1,.55,7.07,7.07,0,0,0,4.72,4.77,7,7,0,1,0-4-10.3.8.8,0,0,1-1.1.28.81.81,0,0,1-.28-1.1,8.62,8.62,0,1,1,11.48,12A8.49,8.49,0,0,1,454.83,197.34Z"/><path class="cls-29" d="M540.51,413.87,456.3,406.4a6.65,6.65,0,0,1-6.06-6.58L449.93,343a6.65,6.65,0,0,1,7.11-6.66l89.66,6.24a6.64,6.64,0,0,1,6.16,7.21l-5.15,58A6.65,6.65,0,0,1,540.51,413.87Z"/><path class="cls-30" d="M454.87,348.54l-.56,49a4.11,4.11,0,0,0,3.71,4.13l80.74,8a4.11,4.11,0,0,0,4.5-3.72l4.65-52.42A4.11,4.11,0,0,0,544,349.1l-84.84-4.62A4.11,4.11,0,0,0,454.87,348.54Z"/><path class="cls-28" d="M493.15,391.37l45.69,2.68a.82.82,0,0,1,.78.9l-.06.74a.83.83,0,0,1-.89.75L493,393a.84.84,0,0,1-.77-.91h0A.82.82,0,0,1,493.15,391.37Z"/><path class="cls-28" d="M491.93,395.94l0,.32a.84.84,0,0,0,.76.9l45.57,4a.83.83,0,0,0,.91-.75l0-.31a.83.83,0,0,0-.75-.91l-45.58-4A.84.84,0,0,0,491.93,395.94Z"/><path class="cls-28" d="M505.4,401.26v.13a.84.84,0,0,0,.75.91l31.75,2.81a.82.82,0,0,0,.9-.75l.06-.65a.83.83,0,0,0-.77-.9l-31.79-2.31A.83.83,0,0,0,505.4,401.26Z"/><path class="cls-29" d="M533.45,393.59l-99.38-2a7.81,7.81,0,0,1-7.63-7.23l-4.91-66.58a7.8,7.8,0,0,1,7.8-8.38l105.68.14a7.81,7.81,0,0,1,7.8,8l-1.4,68.46A7.81,7.81,0,0,1,533.45,393.59Z"/><path class="cls-31" d="M427.76,323.81,431,381.35a4.84,4.84,0,0,0,4.68,4.56l95.36,2.94a4.82,4.82,0,0,0,5-4.73l1.26-61.86a4.83,4.83,0,0,0-4.89-4.93l-99.89,1.37A4.83,4.83,0,0,0,427.76,323.81Z"/><path class="cls-32" d="M476.09,371l53.82-.51a1,1,0,0,1,1,1l0,.86a1,1,0,0,1-1,1l-53.81-.35a1,1,0,0,1-1-1h0A1,1,0,0,1,476.09,371Z"/><path class="cls-32" d="M475,376.45v.37a1,1,0,0,0,1,1l53.79,1.09a1,1,0,0,0,1-1v-.37a1,1,0,0,0-1-1L476,375.49A1,1,0,0,0,475,376.45Z"/><path class="cls-32" d="M491.26,381.6v.17a1,1,0,0,0,1,1l37.46.77a1,1,0,0,0,1-1l0-.76a1,1,0,0,0-1-1l-37.47-.16A1,1,0,0,0,491.26,381.6Z"/><path class="cls-29" d="M518.29,380.53H408.05a8.67,8.67,0,0,1-8.63-7.85L392.47,299a8.67,8.67,0,0,1,8.46-9.48l117.2-2.23a8.67,8.67,0,0,1,8.83,8.66v75.95A8.67,8.67,0,0,1,518.29,380.53Z"/><path class="cls-33" d="M399.52,305.53l4.93,63.74a5.36,5.36,0,0,0,5.28,5l105.82,1.11A5.36,5.36,0,0,0,521,370V301.34a5.35,5.35,0,0,0-5.54-5.35l-110.74,3.77A5.36,5.36,0,0,0,399.52,305.53Z"/><path class="cls-32" d="M456,305l59.67-1.79a1.09,1.09,0,0,1,1.12,1.09v1a1.09,1.09,0,0,1-1.07,1.08l-59.67.83A1.09,1.09,0,0,1,455,306h0A1.07,1.07,0,0,1,456,305Z"/><path class="cls-32" d="M455,311v.41a1.08,1.08,0,0,0,1.08,1.09h59.67a1.09,1.09,0,0,0,1.09-1.09V311a1.08,1.08,0,0,0-1.09-1.08H456A1.08,1.08,0,0,0,455,311Z"/><path class="cls-32" d="M440.38,364.69a.49.49,0,0,1-.48-.48v-1.46a.49.49,0,0,1,.49-.49h0a.48.48,0,0,1,.49.48v1.46a.49.49,0,0,1-.48.49Zm0-4.87a.47.47,0,0,1-.48-.48v-1.46a.49.49,0,0,1,.49-.49h0a.5.5,0,0,1,.49.48v1.47a.49.49,0,0,1-.49.48Zm0-4.87a.48.48,0,0,1-.49-.48V353a.49.49,0,0,1,.48-.49h0a.49.49,0,0,1,.48.49v1.46a.5.5,0,0,1-.49.49Zm0-4.86a.49.49,0,0,1-.49-.49v-1.46a.48.48,0,0,1,.48-.49h0a.49.49,0,0,1,.49.49v1.46a.48.48,0,0,1-.48.49Z"/><path class="cls-32" d="M464.84,363.3a.48.48,0,0,1-.49-.48v-1.46a.49.49,0,1,1,1,0v1.46A.48.48,0,0,1,464.84,363.3Zm0-4.86a.49.49,0,0,1-.49-.49v-1.46a.49.49,0,1,1,1,0V358A.49.49,0,0,1,464.84,358.44Zm0-4.87a.49.49,0,0,1-.49-.49v-1.46a.49.49,0,1,1,1,0v1.46A.49.49,0,0,1,464.84,353.57Zm0-4.87a.49.49,0,0,1-.49-.49v-1.46a.49.49,0,0,1,1,0v1.46A.49.49,0,0,1,464.84,348.7Zm0-4.87a.49.49,0,0,1-.49-.49v-1.46a.49.49,0,0,1,1,0v1.46A.49.49,0,0,1,464.84,343.83Z"/><path class="cls-32" d="M483.48,367.33a.48.48,0,0,1-.48-.47l0-.88a.48.48,0,0,1,.47-.5.46.46,0,0,1,.5.47l0,.88a.49.49,0,0,1-.47.5Zm-.13-4.28a.48.48,0,0,1-.48-.47l-.05-1.46a.49.49,0,1,1,1,0l0,1.46a.48.48,0,0,1-.47.5Zm-.15-4.87a.49.49,0,0,1-.49-.47l0-1.46a.48.48,0,0,1,.47-.5.5.5,0,0,1,.5.47l.05,1.46a.48.48,0,0,1-.47.5Zm-.15-4.86a.49.49,0,0,1-.49-.47l0-1.46a.49.49,0,0,1,.47-.51.5.5,0,0,1,.5.48l.05,1.46a.5.5,0,0,1-.48.5Zm-.15-4.87a.49.49,0,0,1-.49-.47l0-1.46a.49.49,0,1,1,1,0l.05,1.46a.5.5,0,0,1-.48.5Zm-.15-4.86a.5.5,0,0,1-.49-.48l0-1.46a.49.49,0,0,1,.47-.5.48.48,0,0,1,.5.47l0,1.46a.49.49,0,0,1-.47.51Zm-.15-4.87a.49.49,0,0,1-.49-.47l0-1.46a.49.49,0,1,1,1,0l0,1.46a.48.48,0,0,1-.47.5Z"/><path class="cls-32" d="M501.21,364.6a.49.49,0,0,1-.49-.48v-1.47a.49.49,0,0,1,1,0v1.47A.49.49,0,0,1,501.21,364.6Zm0-4.87a.48.48,0,0,1-.49-.48v-1.46a.49.49,0,0,1,1,0v1.46A.48.48,0,0,1,501.21,359.73Zm0-4.86a.49.49,0,0,1-.49-.49v-1.46a.49.49,0,0,1,1,0v1.46A.49.49,0,0,1,501.21,354.87Zm0-4.87a.49.49,0,0,1-.49-.49v-1.46a.49.49,0,0,1,1,0v1.46A.49.49,0,0,1,501.21,350Zm0-4.87a.49.49,0,0,1-.49-.49v-1.46a.49.49,0,0,1,1,0v1.46A.49.49,0,0,1,501.21,345.13Zm0-4.87a.49.49,0,0,1-.49-.49v-1.46a.49.49,0,0,1,1,0v1.46A.49.49,0,0,1,501.21,340.26Zm0-4.87a.49.49,0,0,1-.49-.48v-1.47a.49.49,0,0,1,1,0v1.47A.49.49,0,0,1,501.21,335.39Zm0-4.87a.48.48,0,0,1-.49-.48v-1.46a.49.49,0,0,1,1,0V330A.48.48,0,0,1,501.21,330.52Zm0-4.86a.49.49,0,0,1-.49-.49v-1.46a.49.49,0,0,1,1,0v1.46A.49.49,0,0,1,501.21,325.66Z"/><path class="cls-32" d="M414.21,370.35a.74.74,0,0,1-.73-.67l-5-58.94a.73.73,0,1,1,1.46-.12l5,58.94a.74.74,0,0,1-.67.79Z"/><polygon class="cls-32" points="407 313.79 409.26 311.11 411.93 313.37 411.76 311.28 409.08 309.02 406.82 311.69 407 313.79"/><path class="cls-32" d="M513.12,367.57H410.42a.73.73,0,1,1,0-1.46h102.7a.73.73,0,0,1,0,1.46Z"/><polygon class="cls-32" points="510.21 369.32 512.69 366.84 510.21 364.36 512.31 364.36 514.79 366.84 512.31 369.32 510.21 369.32"/><path class="cls-32" d="M418.48,350.64a.73.73,0,0,1-.09-1.46c.54-.07,54.3-7.43,83.74-29.14a.73.73,0,0,1,.87,1.18c-29.74,21.93-83.88,29.34-84.42,29.41Z"/><path class="cls-32" d="M502.79,324.52h-.06a.73.73,0,0,1-.67-.78l.22-2.87-4-.24a.73.73,0,1,1,.09-1.46l4.78.29a.72.72,0,0,1,.51.25.73.73,0,0,1,.18.53l-.29,3.61A.73.73,0,0,1,502.79,324.52Z"/><path class="cls-34" d="M57.91,410.68H159.78a5.88,5.88,0,0,0,5.88-5.88V252.23a5.88,5.88,0,0,0-5.87-5.88l-102.68-.28A5.88,5.88,0,0,0,51.22,252L52,404.83A5.88,5.88,0,0,0,57.91,410.68Z"/><path class="cls-5" d="M62.9,253.6l91.09.56a6,6,0,0,1,5.93,6l-.64,136.93a6,6,0,0,1-5.86,5.94l-88.5,1.62a6,6,0,0,1-6.07-5.88l-2-139.12A6,6,0,0,1,62.9,253.6Z"/><path class="cls-35" d="M66.61,261.27v.63a1.78,1.78,0,0,0,1.78,1.78h70.18a1.78,1.78,0,0,0,1.79-1.78v-.63a1.79,1.79,0,0,0-1.79-1.78H68.39A1.78,1.78,0,0,0,66.61,261.27Z"/><path class="cls-36" d="M74.44,269.17h0a1.79,1.79,0,0,0,1.75,1.69L137.56,272a1.79,1.79,0,0,0,1.82-1.79v-.14a1.79,1.79,0,0,0-1.76-1.79l-61.37-1A1.78,1.78,0,0,0,74.44,269.17Z"/><path class="cls-37" d="M68.17,400.2A5.33,5.33,0,0,1,62.86,395l-2-112a5.32,5.32,0,0,1,5.21-5.41L149,276a5.29,5.29,0,0,1,5.41,5.21l2.14,112.62a5.33,5.33,0,0,1-5.25,5.41l-83,1Zm80.88-122.1H149l-82.87,1.62A3.18,3.18,0,0,0,63,282.94h0l2,112a3.17,3.17,0,0,0,3.16,3.11h0l83-1a3.13,3.13,0,0,0,2.23-1,3.17,3.17,0,0,0,.9-2.26l-2.14-112.62a3.18,3.18,0,0,0-3.17-3.11Z"/><path class="cls-38" d="M153.43,289.37H63a1.07,1.07,0,0,1,0-2.14h90.41a1.07,1.07,0,0,1,0,2.14Z"/><path class="cls-39" d="M82.65,348.42a1.14,1.14,0,0,0-1.14-1.14h-9a1.14,1.14,0,0,0-1.14,1.14v38.63a1.14,1.14,0,0,0,1.14,1.14h9a1.14,1.14,0,0,0,1.14-1.14Z"/><path class="cls-40" d="M110.25,342.39h-9a1.26,1.26,0,0,0-1.15,1.31v43.14a1.3,1.3,0,0,0,1.15,1.35h9a1.42,1.42,0,0,0,1.3-1.35V343.7A1.38,1.38,0,0,0,110.25,342.39Z"/><path class="cls-41" d="M96.73,335.67a1.14,1.14,0,0,0-1.14-1.13h-9a1.14,1.14,0,0,0-1.14,1.13v51.38a1.14,1.14,0,0,0,1.14,1.14h9a1.14,1.14,0,0,0,1.14-1.14Z"/><path class="cls-42" d="M145.49,317.44a1.14,1.14,0,0,0-1.13-1.14h-9a1.14,1.14,0,0,0-1.14,1.14v69.61a1.14,1.14,0,0,0,1.14,1.14h9a1.14,1.14,0,0,0,1.13-1.14Z"/><path class="cls-43" d="M128.74,327.37a1.13,1.13,0,0,0-1.13-1.13h-9a1.13,1.13,0,0,0-1.14,1.13v59.68a1.14,1.14,0,0,0,1.14,1.14h9a1.14,1.14,0,0,0,1.13-1.14Z"/><g class="cls-44"><polygon class="cls-45" points="76.63 333.49 76.41 333.1 91.4 324.9 105.34 331.03 117.31 319.29 117.33 319.28 131.38 310.99 131.61 311.37 117.58 319.65 105.44 331.56 91.42 325.4 76.63 333.49"/><path class="cls-46" d="M78.13,333.29a1.61,1.61,0,1,1-1.61-1.61A1.61,1.61,0,0,1,78.13,333.29Z"/><circle class="cls-47" cx="91.41" cy="325.15" r="1.61"/><circle class="cls-48" cx="105.39" cy="330.99" r="1.61"/><circle class="cls-49" cx="117.06" cy="319.47" r="1.61"/><path class="cls-50" d="M133.11,311.18a1.62,1.62,0,0,1-3.23,0,1.62,1.62,0,1,1,3.23,0Z"/></g><path class="cls-51" d="M113.36,363l.7,41.78a6,6,0,0,0,6,5.85h82a6,6,0,0,0,5.94-6v-39.1a5.94,5.94,0,0,0-5.75-5.94L119.5,357A5.94,5.94,0,0,0,113.36,363Z"/><path class="cls-52" d="M120.15,367.1l1.78,38.42a2.72,2.72,0,0,0,2.77,2.6l74.67-1.31a2.73,2.73,0,0,0,2.68-2.73V370.76a2.72,2.72,0,0,0-2.59-2.72L123,364.25A2.72,2.72,0,0,0,120.15,367.1Z"/><path class="cls-53" d="M126.1,370.71v2.76a1.75,1.75,0,0,0,1.78,1.75l64.4-1.05a1.75,1.75,0,0,0,1.72-1.75h0a1.75,1.75,0,0,0-1.7-1.74L127.9,369A1.74,1.74,0,0,0,126.1,370.71Z"/><path class="cls-54" d="M127.06,381.16v2.54a1.74,1.74,0,0,0,1.81,1.74l61.34-2.13a1.76,1.76,0,0,0,1.69-1.75v-.79a1.75,1.75,0,0,0-1.76-1.75l-61.34.39A1.76,1.76,0,0,0,127.06,381.16Z"/><path class="cls-32" d="M52.42,187a14.57,14.57,0,0,1,8.91,3l5.21-7.38a23.23,23.23,0,0,0-13.62-4.39c-.67,0-1.35,0-2,.1L52.24,187Z"/><path class="cls-7" d="M52.42,216.23c-8.08,0-16.28-6-16.28-14.1s8.08-15,16.1-15.15l-1.34-8.65c-12.22,1.09-24,11.89-24,24.12C26.9,215.36,40,225,52.92,225a23.34,23.34,0,0,0,9.5-2l-5.25-7.52A14.65,14.65,0,0,1,52.42,216.23Z"/><path class="cls-55" d="M76.29,201.6a23.33,23.33,0,0,0-9.75-19L61.33,190a14.63,14.63,0,0,1-4.16,25.44L62.42,223A23.37,23.37,0,0,0,76.29,201.6Z"/><path class="cls-56" d="M119.12,187a14.62,14.62,0,0,1,13.1,8.12l6-7.6a23.35,23.35,0,0,0-18.63-9.26,26.94,26.94,0,0,0-16.72,6.3l5.34,6.74A17,17,0,0,1,119.12,187Z"/><path class="cls-57" d="M102.84,202.13a14.71,14.71,0,0,1,5.4-10.86l-5.34-6.74c-5.51,4.51-9.3,11-9.3,17.92,0,12.75,12.78,22.27,25.53,22.51l-.41-8.74C110.77,216,102.84,210.08,102.84,202.13Z"/><path class="cls-58" d="M119.12,216.23h-.4l.41,8.74.49,0a23.37,23.37,0,0,0,20.8-12.72c-2.24-1-5.56-2.45-8.43-3.69A14.64,14.64,0,0,1,119.12,216.23Z"/><path class="cls-59" d="M138.25,187.49l-6,7.6a14.65,14.65,0,0,1-.23,13.48c2.87,1.24,6.19,2.69,8.43,3.69a23.38,23.38,0,0,0-2.17-24.77Z"/><path class="cls-60" d="M185.83,187a14.5,14.5,0,0,1,8.38,2.65l4.72-7.69a23.22,23.22,0,0,0-12.61-3.7,27.08,27.08,0,0,0-17.2,6.7l5.59,6.54A17,17,0,0,1,185.83,187Z"/><path class="cls-61" d="M200.43,200.76l9.11-1.84a23.37,23.37,0,0,0-10.61-17l-4.72,7.69A14.61,14.61,0,0,1,200.43,200.76Z"/><path class="cls-62" d="M169.54,202.13a14.65,14.65,0,0,1,5.17-10.66l-5.59-6.54c-5.25,4.49-8.82,10.79-8.82,17.52,0,8.36,5.51,15.34,12.89,19.22l4.57-7.42C173.06,211.84,169.54,207.43,169.54,202.13Z"/><path class="cls-63" d="M200.43,200.76c0,.28,0,.56,0,.84a14.63,14.63,0,0,1-14.62,14.63,17.85,17.85,0,0,1-8.07-2l-4.57,7.42A28.53,28.53,0,0,0,186.32,225a23.37,23.37,0,0,0,23.37-23.38,21.67,21.67,0,0,0-.16-2.68Z"/><path class="cls-32" d="M57.71,181.88a1.19,1.19,0,0,0,.82-.33L74.8,166.14A7.52,7.52,0,0,1,80,164.07h55.37a1.2,1.2,0,0,0,0-2.4H80a10,10,0,0,0-6.86,2.73L56.88,179.81a1.2,1.2,0,0,0,0,1.7A1.17,1.17,0,0,0,57.71,181.88Z"/><path class="cls-32" d="M88.52,156.63h46.86a1.2,1.2,0,1,0,0-2.39H88.52a1.2,1.2,0,1,0,0,2.39Z"/><path class="cls-32" d="M96.14,149.2h39.24a1.2,1.2,0,1,0,0-2.39H96.14a1.2,1.2,0,1,0,0,2.39Z"/><polygon class="cls-32" points="355.06 97.63 356.48 106.31 349.99 103.54 355.06 97.63"/><path class="cls-28" d="M315.23,99.05l26.8,16.7a2.21,2.21,0,0,0,1.72.27,2.18,2.18,0,0,0,1.38-1L360.9,87.44a.9.9,0,0,0-1-1.3Z"/><polygon class="cls-32" points="355.05 97.63 315.23 99.05 352.52 102.08 353.02 104.47 355.05 97.63"/><polygon class="cls-32" points="351 104.71 356.48 106.31 352.52 102.08 351 104.71"/><path class="cls-64" d="M113.41,358.26,45.44,396a5.6,5.6,0,0,0-1.95,8l.3.44A5.19,5.19,0,0,0,51,405.82l64.89-43.51Z"/><path class="cls-65" d="M179.66,331.56c3.06,19.3-10.4,37.49-30.06,40.61s-38.09-10-41.15-29.31,10.39-37.5,30.05-40.62S176.59,312.25,179.66,331.56Z"/><path class="cls-66" d="M137.88,298.3C116,301.77,101,322,104.43,343.49s23.91,36.09,45.8,32.62,36.85-23.71,33.44-45.19S159.76,294.83,137.88,298.3Zm11.44,72.09c-18.67,3-36.16-9.49-39.07-27.82S120.12,307,138.79,304s36.15,9.49,39.06,27.82S168,367.43,149.32,370.39Z"/><path class="cls-4" d="M108.17,347.84a.27.27,0,0,1-.26-.2c-.26-.9-.5-1.82-.69-2.75a.26.26,0,0,1,.21-.31.26.26,0,0,1,.32.2c.19.91.42,1.82.68,2.71a.27.27,0,0,1-.19.33Zm-1.46-10.93h0a.25.25,0,0,1-.26-.27,36.5,36.5,0,0,1,1-7.65h0a37.5,37.5,0,0,1,30.84-28.28,37.93,37.93,0,0,1,20.86,2.54.27.27,0,1,1-.21.49,37.46,37.46,0,0,0-20.57-2.5,37,37,0,0,0-30.4,27.87h0a36.21,36.21,0,0,0-1,7.54A.26.26,0,0,1,106.71,336.91Z"/><path class="cls-4" d="M48.33,405.21h0c-3-.53-3.89-2.09-4.13-3.3a4.32,4.32,0,0,1,2.14-4.58l8.12-4.75a.27.27,0,1,1,.27.46l-8.12,4.75a3.8,3.8,0,0,0-1.89,4c.31,1.53,1.56,2.5,3.71,2.88a.27.27,0,0,1,.21.31A.26.26,0,0,1,48.33,405.21Z"/><path class="cls-4" d="M57.05,391.61a.28.28,0,0,1-.23-.13.27.27,0,0,1,.09-.37L58,390.5a.26.26,0,0,1,.36.09.26.26,0,0,1-.09.37l-1.06.62A.28.28,0,0,1,57.05,391.61Z"/></g></g></svg>