<svg xmlns="http://www.w3.org/2000/svg" xmlns:xlink="http://www.w3.org/1999/xlink" viewBox="0 0 500 500"><defs><style>.cls-1,.cls-3,.cls-4{fill:none;}.cls-2{fill:#292947;}.cls-12,.cls-3,.cls-4{stroke:#779ce8;stroke-width:0.75px;}.cls-3,.cls-4{stroke-miterlimit:10;}.cls-17,.cls-4{opacity:0.46;}.cls-5{opacity:0.44;}.cls-6{fill:#fff;}.cls-7{fill:#779ce8;}.cls-8{fill:#407bff;}.cls-16,.cls-20,.cls-9{fill:url(#Unnamed_Pattern);}.cls-10{fill:#d7e4f9;}.cls-11{fill:#cacae6;}.cls-12{fill:#f97d8c;stroke-linejoin:round;}.cls-13{opacity:0.64;}.cls-14{fill:url(#Unnamed_Pattern-3);}.cls-15{fill:#263238;}.cls-16,.cls-18{opacity:0.28;}.cls-19{fill:#f2f0f5;}.cls-20{opacity:0.65;}</style><pattern id="Unnamed_Pattern" data-name="Unnamed Pattern" width="27.84" height="27.84" patternTransform="translate(-22.99 22.95) scale(0.23)" patternUnits="userSpaceOnUse" viewBox="0 0 27.84 27.84"><rect class="cls-1" width="27.84" height="27.84"/><path class="cls-2" d="M29.17,27.84a1.33,1.33,0,1,1-1.32-1.33A1.33,1.33,0,0,1,29.17,27.84Z"/><path class="cls-2" d="M1.33,27.84A1.33,1.33,0,0,1,0,29.17a1.33,1.33,0,0,1,0-2.66A1.33,1.33,0,0,1,1.33,27.84Z"/><path class="cls-2" d="M8.29,27.84A1.33,1.33,0,1,1,7,26.51,1.33,1.33,0,0,1,8.29,27.84Z"/><path class="cls-2" d="M8.29,27.84A1.33,1.33,0,1,1,7,26.51,1.33,1.33,0,0,1,8.29,27.84Z"/><path class="cls-2" d="M15.25,27.84a1.33,1.33,0,1,1-1.33-1.33A1.34,1.34,0,0,1,15.25,27.84Z"/><path class="cls-2" d="M15.25,27.84a1.33,1.33,0,1,1-1.33-1.33A1.34,1.34,0,0,1,15.25,27.84Z"/><path class="cls-2" d="M22.2,27.84a1.33,1.33,0,1,1-1.32-1.33A1.33,1.33,0,0,1,22.2,27.84Z"/><path class="cls-2" d="M22.2,27.84a1.33,1.33,0,1,1-1.32-1.33A1.33,1.33,0,0,1,22.2,27.84Z"/><path class="cls-2" d="M29.16,27.84a1.33,1.33,0,1,1-1.33-1.33A1.34,1.34,0,0,1,29.16,27.84Z"/><path class="cls-2" d="M1.32,27.84A1.33,1.33,0,0,1,0,29.17a1.33,1.33,0,0,1-1.32-1.33A1.33,1.33,0,0,1,0,26.51,1.33,1.33,0,0,1,1.32,27.84Z"/><path class="cls-2" d="M29.17,0a1.33,1.33,0,0,1-1.32,1.33A1.33,1.33,0,0,1,26.52,0a1.33,1.33,0,0,1,1.33-1.33A1.33,1.33,0,0,1,29.17,0Z"/><circle class="cls-2" cx="27.85" cy="8.83" r="1.33"/><circle class="cls-2" cx="27.85" cy="19.23" r="1.33"/><path class="cls-2" d="M1.33,0A1.33,1.33,0,0,1,0,1.33,1.33,1.33,0,0,1-1.32,0,1.33,1.33,0,0,1,0-1.33,1.33,1.33,0,0,1,1.33,0Z"/><path class="cls-2" d="M8.29,0A1.33,1.33,0,0,1,7,1.33,1.33,1.33,0,0,1,5.64,0,1.33,1.33,0,0,1,7-1.33,1.33,1.33,0,0,1,8.29,0Z"/><path class="cls-2" d="M8.29,0A1.33,1.33,0,0,1,7,1.33,1.33,1.33,0,0,1,5.64,0,1.33,1.33,0,0,1,7-1.33,1.33,1.33,0,0,1,8.29,0Z"/><path class="cls-2" d="M15.25,0a1.34,1.34,0,0,1-1.33,1.33A1.34,1.34,0,0,1,12.59,0a1.33,1.33,0,0,1,2.66,0Z"/><path class="cls-2" d="M15.25,0a1.34,1.34,0,0,1-1.33,1.33A1.34,1.34,0,0,1,12.59,0a1.33,1.33,0,0,1,2.66,0Z"/><path class="cls-2" d="M22.2,0a1.33,1.33,0,0,1-1.32,1.33A1.33,1.33,0,0,1,19.55,0a1.33,1.33,0,0,1,1.33-1.33A1.33,1.33,0,0,1,22.2,0Z"/><path class="cls-2" d="M22.2,0a1.33,1.33,0,0,1-1.32,1.33A1.33,1.33,0,0,1,19.55,0a1.33,1.33,0,0,1,1.33-1.33A1.33,1.33,0,0,1,22.2,0Z"/><path class="cls-2" d="M29.16,0a1.34,1.34,0,0,1-1.33,1.33A1.34,1.34,0,0,1,26.5,0a1.33,1.33,0,0,1,2.66,0Z"/><circle class="cls-2" cx="0.01" cy="8.83" r="1.33"/><circle class="cls-2" cx="6.96" cy="8.83" r="1.33"/><circle class="cls-2" cx="6.96" cy="8.83" r="1.33"/><circle class="cls-2" cx="13.92" cy="8.83" r="1.33"/><circle class="cls-2" cx="13.92" cy="8.83" r="1.33"/><circle class="cls-2" cx="20.88" cy="8.83" r="1.33"/><circle class="cls-2" cx="20.88" cy="8.83" r="1.33"/><path class="cls-2" d="M29.16,8.83A1.33,1.33,0,1,1,27.83,7.5,1.33,1.33,0,0,1,29.16,8.83Z"/><circle class="cls-2" cx="0.01" cy="19.23" r="1.33"/><circle class="cls-2" cx="6.96" cy="19.23" r="1.33"/><circle class="cls-2" cx="6.96" cy="19.23" r="1.33"/><circle class="cls-2" cx="13.92" cy="19.23" r="1.33"/><circle class="cls-2" cx="13.92" cy="19.23" r="1.33"/><circle class="cls-2" cx="20.88" cy="19.23" r="1.33"/><circle class="cls-2" cx="20.88" cy="19.23" r="1.33"/><path class="cls-2" d="M29.16,19.23a1.33,1.33,0,1,1-1.33-1.33A1.33,1.33,0,0,1,29.16,19.23Z"/><path class="cls-2" d="M1.32,0A1.33,1.33,0,0,1,0,1.33,1.33,1.33,0,0,1-1.33,0,1.33,1.33,0,0,1,0-1.33,1.33,1.33,0,0,1,1.32,0Z"/><path class="cls-2" d="M1.32,8.83A1.32,1.32,0,0,1,0,10.15,1.32,1.32,0,0,1-1.33,8.83,1.32,1.32,0,0,1,0,7.5,1.32,1.32,0,0,1,1.32,8.83Z"/><path class="cls-2" d="M1.32,19.23A1.32,1.32,0,0,1,0,20.55a1.32,1.32,0,0,1-1.32-1.32A1.33,1.33,0,0,1,0,17.9,1.33,1.33,0,0,1,1.32,19.23Z"/></pattern><pattern id="Unnamed_Pattern-3" data-name="Unnamed Pattern" width="27.84" height="27.84" patternTransform="translate(-35.36 4.28) scale(0.05)" patternUnits="userSpaceOnUse" viewBox="0 0 27.84 27.84"><rect class="cls-1" width="27.84" height="27.84"/><path class="cls-2" d="M29.17,27.84a1.33,1.33,0,1,1-1.32-1.33A1.33,1.33,0,0,1,29.17,27.84Z"/><path class="cls-2" d="M1.33,27.84A1.33,1.33,0,0,1,0,29.17a1.33,1.33,0,0,1,0-2.66A1.33,1.33,0,0,1,1.33,27.84Z"/><path class="cls-2" d="M8.29,27.84A1.33,1.33,0,1,1,7,26.51,1.33,1.33,0,0,1,8.29,27.84Z"/><path class="cls-2" d="M8.29,27.84A1.33,1.33,0,1,1,7,26.51,1.33,1.33,0,0,1,8.29,27.84Z"/><path class="cls-2" d="M15.25,27.84a1.33,1.33,0,1,1-1.33-1.33A1.34,1.34,0,0,1,15.25,27.84Z"/><path class="cls-2" d="M15.25,27.84a1.33,1.33,0,1,1-1.33-1.33A1.34,1.34,0,0,1,15.25,27.84Z"/><path class="cls-2" d="M22.2,27.84a1.33,1.33,0,1,1-1.32-1.33A1.33,1.33,0,0,1,22.2,27.84Z"/><path class="cls-2" d="M22.2,27.84a1.33,1.33,0,1,1-1.32-1.33A1.33,1.33,0,0,1,22.2,27.84Z"/><path class="cls-2" d="M29.16,27.84a1.33,1.33,0,1,1-1.33-1.33A1.34,1.34,0,0,1,29.16,27.84Z"/><path class="cls-2" d="M1.32,27.84A1.33,1.33,0,0,1,0,29.17a1.33,1.33,0,0,1-1.32-1.33A1.33,1.33,0,0,1,0,26.51,1.33,1.33,0,0,1,1.32,27.84Z"/><path class="cls-2" d="M29.17,0a1.33,1.33,0,0,1-1.32,1.33A1.33,1.33,0,0,1,26.52,0a1.33,1.33,0,0,1,1.33-1.33A1.33,1.33,0,0,1,29.17,0Z"/><circle class="cls-2" cx="27.85" cy="8.83" r="1.33"/><circle class="cls-2" cx="27.85" cy="19.23" r="1.33"/><path class="cls-2" d="M1.33,0A1.33,1.33,0,0,1,0,1.33,1.33,1.33,0,0,1-1.32,0,1.33,1.33,0,0,1,0-1.33,1.33,1.33,0,0,1,1.33,0Z"/><path class="cls-2" d="M8.29,0A1.33,1.33,0,0,1,7,1.33,1.33,1.33,0,0,1,5.64,0,1.33,1.33,0,0,1,7-1.33,1.33,1.33,0,0,1,8.29,0Z"/><path class="cls-2" d="M8.29,0A1.33,1.33,0,0,1,7,1.33,1.33,1.33,0,0,1,5.64,0,1.33,1.33,0,0,1,7-1.33,1.33,1.33,0,0,1,8.29,0Z"/><path class="cls-2" d="M15.25,0a1.34,1.34,0,0,1-1.33,1.33A1.34,1.34,0,0,1,12.59,0a1.33,1.33,0,0,1,2.66,0Z"/><path class="cls-2" d="M15.25,0a1.34,1.34,0,0,1-1.33,1.33A1.34,1.34,0,0,1,12.59,0a1.33,1.33,0,0,1,2.66,0Z"/><path class="cls-2" d="M22.2,0a1.33,1.33,0,0,1-1.32,1.33A1.33,1.33,0,0,1,19.55,0a1.33,1.33,0,0,1,1.33-1.33A1.33,1.33,0,0,1,22.2,0Z"/><path class="cls-2" d="M22.2,0a1.33,1.33,0,0,1-1.32,1.33A1.33,1.33,0,0,1,19.55,0a1.33,1.33,0,0,1,1.33-1.33A1.33,1.33,0,0,1,22.2,0Z"/><path class="cls-2" d="M29.16,0a1.34,1.34,0,0,1-1.33,1.33A1.34,1.34,0,0,1,26.5,0a1.33,1.33,0,0,1,2.66,0Z"/><circle class="cls-2" cx="0.01" cy="8.83" r="1.33"/><circle class="cls-2" cx="6.96" cy="8.83" r="1.33"/><circle class="cls-2" cx="6.96" cy="8.83" r="1.33"/><circle class="cls-2" cx="13.92" cy="8.83" r="1.33"/><circle class="cls-2" cx="13.92" cy="8.83" r="1.33"/><circle class="cls-2" cx="20.88" cy="8.83" r="1.33"/><circle class="cls-2" cx="20.88" cy="8.83" r="1.33"/><path class="cls-2" d="M29.16,8.83A1.33,1.33,0,1,1,27.83,7.5,1.33,1.33,0,0,1,29.16,8.83Z"/><circle class="cls-2" cx="0.01" cy="19.23" r="1.33"/><circle class="cls-2" cx="6.96" cy="19.23" r="1.33"/><circle class="cls-2" cx="6.96" cy="19.23" r="1.33"/><circle class="cls-2" cx="13.92" cy="19.23" r="1.33"/><circle class="cls-2" cx="13.92" cy="19.23" r="1.33"/><circle class="cls-2" cx="20.88" cy="19.23" r="1.33"/><circle class="cls-2" cx="20.88" cy="19.23" r="1.33"/><path class="cls-2" d="M29.16,19.23a1.33,1.33,0,1,1-1.33-1.33A1.33,1.33,0,0,1,29.16,19.23Z"/><path class="cls-2" d="M1.32,0A1.33,1.33,0,0,1,0,1.33,1.33,1.33,0,0,1-1.33,0,1.33,1.33,0,0,1,0-1.33,1.33,1.33,0,0,1,1.32,0Z"/><path class="cls-2" d="M1.32,8.83A1.32,1.32,0,0,1,0,10.15,1.32,1.32,0,0,1-1.33,8.83,1.32,1.32,0,0,1,0,7.5,1.32,1.32,0,0,1,1.32,8.83Z"/><path class="cls-2" d="M1.32,19.23A1.32,1.32,0,0,1,0,20.55a1.32,1.32,0,0,1-1.32-1.32A1.33,1.33,0,0,1,0,17.9,1.33,1.33,0,0,1,1.32,19.23Z"/></pattern></defs><g id="Layer_4" data-name="Layer 4"><path class="cls-3" d="M222.49,219.53h-3.07a.39.39,0,0,1,0-.77h3.07a.39.39,0,0,1,0,.77Zm-6.13,0H213.3a.39.39,0,1,1,0-.77h3.06a.39.39,0,0,1,0,.77Zm-6.13,0h-3.06a.39.39,0,1,1,0-.77h3.06a.39.39,0,0,1,0,.77Zm-6.13,0H201a.39.39,0,1,1,0-.77h3.06a.39.39,0,1,1,0,.77Zm-6.13,0h-3.06a.39.39,0,0,1,0-.77H198a.39.39,0,1,1,0,.77Zm-6.13,0h-3.06a.39.39,0,0,1,0-.77h3.06a.39.39,0,1,1,0,.77Zm-6.13,0h-3.06a.39.39,0,0,1,0-.77h3.06a.39.39,0,1,1,0,.77Zm-6.12,0h-3.07a.39.39,0,0,1,0-.77h3.07a.39.39,0,0,1,0,.77Zm-6.05-.38a.39.39,0,0,1-.23-.07,2.24,2.24,0,0,1-.9-1.8v-1.34a.39.39,0,0,1,.77,0v1.34a1.45,1.45,0,0,0,.59,1.18.38.38,0,0,1,.07.54A.37.37,0,0,1,173.54,219.15Zm51.59-.69a.32.32,0,0,1-.16,0,.38.38,0,0,1-.18-.51,1.52,1.52,0,0,0,.14-.63V215a.38.38,0,0,1,.38-.38.39.39,0,0,1,.39.38v2.24a2.25,2.25,0,0,1-.22,1A.38.38,0,0,1,225.13,218.46Zm-52.34-5.2a.38.38,0,0,1-.38-.38v-3.07a.39.39,0,0,1,.77,0v3.07A.38.38,0,0,1,172.79,213.26Zm52.52-.9a.38.38,0,0,1-.38-.38v-3.07a.38.38,0,0,1,.38-.38.39.39,0,0,1,.39.38V212A.39.39,0,0,1,225.31,212.36Zm0-6.13a.38.38,0,0,1-.38-.38v-3.07a.38.38,0,0,1,.38-.38.39.39,0,0,1,.39.38v3.07A.39.39,0,0,1,225.31,206.23Zm0-6.13a.38.38,0,0,1-.38-.38v-3.07a.38.38,0,0,1,.38-.38.39.39,0,0,1,.39.38v3.07A.39.39,0,0,1,225.31,200.1Zm0-6.13a.38.38,0,0,1-.38-.38v-3.07a.38.38,0,0,1,.38-.38.39.39,0,0,1,.39.38v3.07A.39.39,0,0,1,225.31,194Zm0-6.13a.38.38,0,0,1-.38-.38v-1.91a2.29,2.29,0,0,1,.42-1.31.38.38,0,0,1,.54-.08.37.37,0,0,1,.08.53,1.46,1.46,0,0,0-.27.86v1.91A.39.39,0,0,1,225.31,187.84Zm6.23-3.77h-3.07a.38.38,0,0,1-.38-.38.39.39,0,0,1,.38-.39h3.07a.39.39,0,0,1,.38.39A.38.38,0,0,1,231.54,184.07Z"/><path class="cls-3" d="M153.87,223.79a.38.38,0,0,1-.39-.38v-.8a.39.39,0,1,1,.77,0v.8A.38.38,0,0,1,153.87,223.79Zm0-3.87a.38.38,0,0,1-.39-.38v-3.06a.39.39,0,1,1,.77,0v3.06A.38.38,0,0,1,153.87,219.92Zm0-6.12a.39.39,0,0,1-.39-.39v-3.06a.39.39,0,1,1,.77,0v3.06A.39.39,0,0,1,153.87,213.8Z"/><path class="cls-4" d="M92.55,313.9a.39.39,0,0,1-.39-.38v-2.1a.39.39,0,0,1,.39-.38.38.38,0,0,1,.38.38v2.1A.38.38,0,0,1,92.55,313.9Zm0-5.16a.39.39,0,0,1-.39-.38v-3.07a.39.39,0,0,1,.39-.38.38.38,0,0,1,.38.38v3.07A.38.38,0,0,1,92.55,308.74Zm0-6.13a.39.39,0,0,1-.39-.38v-3.06a.39.39,0,0,1,.39-.39.38.38,0,0,1,.38.39v3.06A.38.38,0,0,1,92.55,302.61Zm0-6.13a.39.39,0,0,1-.39-.38V293a.39.39,0,0,1,.39-.39.38.38,0,0,1,.38.39v3.06A.38.38,0,0,1,92.55,296.48Zm0-6.13a.39.39,0,0,1-.39-.38v-3.06a.4.4,0,0,1,.39-.39.39.39,0,0,1,.38.39V290A.38.38,0,0,1,92.55,290.35Zm0-6.12a.4.4,0,0,1-.39-.39v-3.06a.4.4,0,0,1,.39-.39.39.39,0,0,1,.38.39v3.06A.39.39,0,0,1,92.55,284.23Zm0-6.13a.39.39,0,0,1-.39-.39v-3.06a.39.39,0,0,1,.39-.38.38.38,0,0,1,.38.38v3.06A.38.38,0,0,1,92.55,278.1Zm0-6.13a.39.39,0,0,1-.39-.39v-3.06a.39.39,0,0,1,.39-.38.38.38,0,0,1,.38.38v3.06A.38.38,0,0,1,92.55,272Zm0-6.13a.39.39,0,0,1-.39-.38v-3.07a.39.39,0,0,1,.39-.38.38.38,0,0,1,.38.38v3.07A.38.38,0,0,1,92.55,265.84Zm0-6.13a.39.39,0,0,1-.39-.38v-3.07a.39.39,0,0,1,.39-.38.38.38,0,0,1,.38.38v3.07A.38.38,0,0,1,92.55,259.71Zm0-6.13a.39.39,0,0,1-.39-.38v-3.07a.39.39,0,0,1,.39-.38.38.38,0,0,1,.38.38v3.07A.38.38,0,0,1,92.55,253.58Zm0-6.13a.39.39,0,0,1-.39-.38V244a.39.39,0,0,1,.39-.38.38.38,0,0,1,.38.38v3.07A.38.38,0,0,1,92.55,247.45Zm0-6.13a.39.39,0,0,1-.39-.38v-3.07a.39.39,0,0,1,.39-.38.38.38,0,0,1,.38.38v3.07A.38.38,0,0,1,92.55,241.32Zm0-6.13a.39.39,0,0,1-.39-.38v-3.07a.39.39,0,0,1,.39-.38.38.38,0,0,1,.38.38v3.07A.38.38,0,0,1,92.55,235.19Zm0-6.13a.39.39,0,0,1-.39-.38v-3.06a.39.39,0,0,1,.39-.39.38.38,0,0,1,.38.39v3.06A.38.38,0,0,1,92.55,229.06Zm0-6.13a.39.39,0,0,1-.39-.38v-1.67a3.72,3.72,0,0,1,.32-1.51.38.38,0,0,1,.51-.19.37.37,0,0,1,.19.5,3.07,3.07,0,0,0-.25,1.2v1.67A.38.38,0,0,1,92.55,222.93ZM95.11,218a.38.38,0,0,1-.09-.76,4.12,4.12,0,0,1,.86-.1h2.28a.39.39,0,1,1,0,.77H95.88a3.08,3.08,0,0,0-.68.08Zm38.76-.09h-2a.39.39,0,0,1,0-.77h1.62v-.68a.38.38,0,1,1,.76,0v1.07A.38.38,0,0,1,133.87,217.93Zm-5.06,0h-3.06a.39.39,0,1,1,0-.77h3.06a.39.39,0,0,1,0,.77Zm-6.13,0h-3.06a.39.39,0,1,1,0-.77h3.06a.39.39,0,0,1,0,.77Zm-6.13,0h-3.06a.39.39,0,1,1,0-.77h3.06a.39.39,0,0,1,0,.77Zm-6.13,0h-3.06a.39.39,0,1,1,0-.77h3.06a.39.39,0,1,1,0,.77Zm-6.13,0h-3.06a.39.39,0,0,1,0-.77h3.06a.39.39,0,1,1,0,.77Zm29.58-4.13a.39.39,0,0,1-.38-.39v-3.06a.38.38,0,1,1,.76,0v3.06A.39.39,0,0,1,133.87,213.8Z"/><g class="cls-5"><path class="cls-3" d="M75.24,354a1.37,1.37,0,0,1-1.31-1l-1.31-4.13a.59.59,0,0,0-.59-.43,19.25,19.25,0,0,1-5-.43.6.6,0,0,0-.65.32l-2,3.84a1.38,1.38,0,0,1-1.86.59l-6-3.09a1.38,1.38,0,0,1-.59-1.86L58,344a.59.59,0,0,0-.12-.72,19.79,19.79,0,0,1-3.2-3.81.61.61,0,0,0-.69-.24l-4.13,1.31a1.39,1.39,0,0,1-1.73-.9l-2-6.4a1.37,1.37,0,0,1,.1-1,1.34,1.34,0,0,1,.8-.67l4.13-1.31a.61.61,0,0,0,.43-.59,19.21,19.21,0,0,1,.43-5,.62.62,0,0,0-.32-.66l-3.84-2a1.38,1.38,0,0,1-.59-1.86l3.09-5.95a1.39,1.39,0,0,1,1.86-.59l3.84,2a.6.6,0,0,0,.72-.12,19.79,19.79,0,0,1,3.81-3.2.6.6,0,0,0,.24-.69l-1.3-4.13a1.38,1.38,0,0,1,.89-1.73l6.4-2a1.39,1.39,0,0,1,1.73.9l1.3,4.13a.59.59,0,0,0,.59.43,19.17,19.17,0,0,1,5,.43.62.62,0,0,0,.66-.32l2-3.84a1.38,1.38,0,0,1,1.86-.59l6,3.09a1.38,1.38,0,0,1,.59,1.86l-2,3.84a.6.6,0,0,0,.12.72,19.79,19.79,0,0,1,3.2,3.81.6.6,0,0,0,.69.24l4.13-1.3a1.38,1.38,0,0,1,1.73.89l2,6.4a1.39,1.39,0,0,1-.9,1.73l-4.13,1.3a.61.61,0,0,0-.43.59,19.21,19.21,0,0,1-.43,5,.62.62,0,0,0,.32.66l3.85,2a1.38,1.38,0,0,1,.58,1.86l-3.09,5.95a1.38,1.38,0,0,1-1.86.59l-3.84-2a.61.61,0,0,0-.72.12,19.79,19.79,0,0,1-3.81,3.2.61.61,0,0,0-.24.69L83,350.15a1.39,1.39,0,0,1-.9,1.73l-6.4,2A1.4,1.4,0,0,1,75.24,354Zm-3.19-6.28a1.37,1.37,0,0,1,1.3,1l1.31,4.13a.61.61,0,0,0,.76.4l6.4-2a.62.62,0,0,0,.4-.77l-1.31-4.13a1.35,1.35,0,0,1,.56-1.56,19.23,19.23,0,0,0,3.66-3.08,1.37,1.37,0,0,1,1.63-.28l3.85,2a.61.61,0,0,0,.46,0,.6.6,0,0,0,.36-.3l3.09-5.95a.61.61,0,0,0-.26-.83l-3.84-2a1.37,1.37,0,0,1-.71-1.5,19.08,19.08,0,0,0,.41-4.77,1.36,1.36,0,0,1,1-1.35l4.13-1.3a.62.62,0,0,0,.4-.77l-2-6.4a.6.6,0,0,0-.77-.39l-4.13,1.3a1.36,1.36,0,0,1-1.56-.55,18.63,18.63,0,0,0-3.08-3.66,1.38,1.38,0,0,1-.28-1.64l2-3.84a.59.59,0,0,0,0-.47.63.63,0,0,0-.3-.36l-6-3.09a.59.59,0,0,0-.47,0,.66.66,0,0,0-.36.3l-2,3.84a1.38,1.38,0,0,1-1.5.72,19,19,0,0,0-4.77-.42,1.37,1.37,0,0,1-1.35-1l-1.3-4.13a.62.62,0,0,0-.77-.4l-6.39,2a.58.58,0,0,0-.36.31.57.57,0,0,0,0,.46l1.3,4.13a1.38,1.38,0,0,1-.55,1.57A18.25,18.25,0,0,0,57.35,316a1.37,1.37,0,0,1-1.64.28l-3.84-2a.62.62,0,0,0-.83.26l-3.09,6a.61.61,0,0,0,.26.83l3.84,2a1.36,1.36,0,0,1,.72,1.49,19.13,19.13,0,0,0-.42,4.77,1.36,1.36,0,0,1-1,1.35l-4.13,1.31a.59.59,0,0,0-.36.3.66.66,0,0,0,0,.46l2,6.4a.62.62,0,0,0,.77.4l4.13-1.31a1.37,1.37,0,0,1,1.57.56,18.82,18.82,0,0,0,3.07,3.66,1.35,1.35,0,0,1,.28,1.63l-2,3.85A.61.61,0,0,0,57,349l5.95,3.09a.62.62,0,0,0,.83-.26l2-3.84a1.34,1.34,0,0,1,1.49-.71,18.66,18.66,0,0,0,4.77.41Zm-.78-7.11a11.86,11.86,0,1,1,3.29-.47A11.88,11.88,0,0,1,71.27,340.57Zm0-22.91a11.07,11.07,0,1,0,3.07,21.71h0a11.07,11.07,0,0,0-3.07-21.71Z"/></g><path class="cls-3" d="M105.61,223.16l.54-3.33a.51.51,0,0,0-.42-.57l-2.15-.34a.5.5,0,0,1-.41-.43,9.59,9.59,0,0,0-.57-2.39.49.49,0,0,1,.18-.57l1.76-1.27a.51.51,0,0,0,.11-.7l-2-2.73a.51.51,0,0,0-.7-.11L100.22,212a.5.5,0,0,1-.6,0,9.84,9.84,0,0,0-2.09-1.28.5.5,0,0,1-.28-.53l.34-2.15a.5.5,0,0,0-.41-.57l-3.32-.53a.51.51,0,0,0-.58.42l-.34,2.14a.5.5,0,0,1-.43.42,9.41,9.41,0,0,0-2.38.57.52.52,0,0,1-.58-.18l-1.27-1.76a.49.49,0,0,0-.7-.11l-2.73,2a.51.51,0,0,0-.11.7L86,212.85a.49.49,0,0,1,0,.6,9.48,9.48,0,0,0-1.29,2.09.5.5,0,0,1-.53.28l-2.14-.35a.51.51,0,0,0-.58.42l-.53,3.32a.5.5,0,0,0,.42.57l2.14.35a.49.49,0,0,1,.42.43,9.62,9.62,0,0,0,.57,2.38.49.49,0,0,1-.18.57l-1.76,1.28a.51.51,0,0,0-.11.7l2,2.72a.49.49,0,0,0,.7.11l1.76-1.27a.49.49,0,0,1,.6,0,9.45,9.45,0,0,0,2.09,1.28.5.5,0,0,1,.28.53L89.49,231a.51.51,0,0,0,.42.57l3.32.53a.49.49,0,0,0,.57-.41l.35-2.15a.48.48,0,0,1,.43-.41,9.62,9.62,0,0,0,2.38-.57.49.49,0,0,1,.57.18l1.28,1.76a.51.51,0,0,0,.7.11l2.72-2a.49.49,0,0,0,.12-.69l-1.28-1.76a.49.49,0,0,1,0-.6,9.68,9.68,0,0,0,1.28-2.09.5.5,0,0,1,.53-.28l2.15.34A.49.49,0,0,0,105.61,223.16Zm-13.08,2A5.75,5.75,0,1,1,99,221.45,5.75,5.75,0,0,1,92.53,225.16Z"/><path class="cls-3" d="M93.31,232.51h-.14L89.85,232a.88.88,0,0,1-.73-1l.34-2.15a.11.11,0,0,0-.06-.12,10,10,0,0,1-2.17-1.33.11.11,0,0,0-.13,0l-1.77,1.27a.84.84,0,0,1-.65.16.88.88,0,0,1-.58-.35l-2-2.73a.87.87,0,0,1,.2-1.23l1.76-1.28a.1.1,0,0,0,0-.12,10.18,10.18,0,0,1-.59-2.48.13.13,0,0,0-.1-.1l-2.14-.34a.9.9,0,0,1-.74-1l.54-3.32a.85.85,0,0,1,.35-.58.91.91,0,0,1,.66-.16l2.14.35a.13.13,0,0,0,.12-.06,9.69,9.69,0,0,1,1.34-2.17.12.12,0,0,0,0-.14l-1.28-1.76a.89.89,0,0,1,.2-1.23l2.73-2a.88.88,0,0,1,1.23.19l1.27,1.76a.12.12,0,0,0,.13.05,10.08,10.08,0,0,1,2.48-.59.13.13,0,0,0,.09-.1l.35-2.15a.85.85,0,0,1,.35-.57.91.91,0,0,1,.66-.16l3.32.53a.92.92,0,0,1,.58.36.9.9,0,0,1,.15.66l-.34,2.14a.11.11,0,0,0,.06.12,9.69,9.69,0,0,1,2.17,1.34.1.1,0,0,0,.13,0l1.76-1.28a.89.89,0,0,1,1.24.2l2,2.72a.88.88,0,0,1-.2,1.24L103,215.84a.11.11,0,0,0,0,.13,10.08,10.08,0,0,1,.59,2.48.11.11,0,0,0,.1.09l2.14.34a.88.88,0,0,1,.73,1l-.53,3.33a.88.88,0,0,1-1,.73l-2.15-.34a.11.11,0,0,0-.12.06,10.12,10.12,0,0,1-1.33,2.17.1.1,0,0,0,0,.13l1.28,1.76a.89.89,0,0,1-.2,1.23l-2.73,2a.89.89,0,0,1-1.23-.2L97.22,229a.1.1,0,0,0-.12,0,10.08,10.08,0,0,1-2.48.59.09.09,0,0,0-.09.09l-.35,2.15a.91.91,0,0,1-.35.58A.87.87,0,0,1,93.31,232.51Zm-6.14-5.94a.85.85,0,0,1,.54.19,9,9,0,0,0,2,1.23.89.89,0,0,1,.51.94l-.35,2.15a.11.11,0,0,0,.1.13l3.32.54a.14.14,0,0,0,.14-.1l.34-2.15a.87.87,0,0,1,.77-.73,9.56,9.56,0,0,0,2.29-.55.87.87,0,0,1,1,.31l1.28,1.76a.11.11,0,0,0,.16,0l2.73-2a.12.12,0,0,0,0-.16l-1.28-1.76a.88.88,0,0,1,0-1.06,9.47,9.47,0,0,0,1.24-2,.87.87,0,0,1,.94-.5l2.14.34a.12.12,0,0,0,.14-.09l.53-3.33a.13.13,0,0,0-.1-.13l-2.15-.34a.88.88,0,0,1-.73-.77,9.56,9.56,0,0,0-.55-2.29.88.88,0,0,1,.31-1l1.76-1.27a.1.1,0,0,0,0-.08.18.18,0,0,0,0-.09l-2-2.72a.14.14,0,0,0-.17,0l-1.76,1.28a.87.87,0,0,1-1.06,0,9.18,9.18,0,0,0-2-1.23.89.89,0,0,1-.5-.94l.35-2.15a.19.19,0,0,0,0-.08.16.16,0,0,0-.08,0l-3.32-.53a.13.13,0,0,0-.14.1l-.34,2.14a.88.88,0,0,1-.77.74,9.54,9.54,0,0,0-2.29.54.87.87,0,0,1-1-.31L88,208.75a.11.11,0,0,0-.16,0l-2.73,2a.12.12,0,0,0,0,.16l1.28,1.76a.89.89,0,0,1,0,1.07,9.78,9.78,0,0,0-1.23,2,.86.86,0,0,1-.94.5L82,215.85a.13.13,0,0,0-.14.1l-.53,3.32a.11.11,0,0,0,.1.13l2.14.35a.87.87,0,0,1,.74.77,8.93,8.93,0,0,0,.55,2.28.88.88,0,0,1-.32,1l-1.76,1.28a.12.12,0,0,0,0,.16l2,2.73a.12.12,0,0,0,.08,0,.08.08,0,0,0,.09,0l1.76-1.27A.87.87,0,0,1,87.17,226.57Zm6.39-.93a6,6,0,0,1-1.1-.11,6.13,6.13,0,1,1,2.24-12.06,6.14,6.14,0,0,1-1.14,12.17Zm0-11.51a5.37,5.37,0,0,0-4.67,8,5.34,5.34,0,0,0,3.68,2.61h0a5.37,5.37,0,0,0,2-10.56A5.2,5.2,0,0,0,93.59,214.13Z"/><path class="cls-3" d="M367.05,153.41a.38.38,0,0,1-.38-.39V150a.39.39,0,0,1,.77,0V153A.38.38,0,0,1,367.05,153.41Zm0-6.13a.38.38,0,0,1-.38-.39v-3.06a.39.39,0,0,1,.77,0v3.06A.38.38,0,0,1,367.05,147.28Zm-2.22-3.91h-3.06a.38.38,0,0,1-.38-.38.39.39,0,0,1,.38-.39h3.06a.4.4,0,0,1,.39.39A.39.39,0,0,1,364.83,143.37Zm-6.13,0h-3.06a.38.38,0,0,1-.38-.38.39.39,0,0,1,.38-.39h3.06a.39.39,0,0,1,.39.39A.38.38,0,0,1,358.7,143.37Zm-6.13,0h-3.06a.38.38,0,0,1-.38-.38.39.39,0,0,1,.38-.39h3.06a.39.39,0,0,1,.39.39A.38.38,0,0,1,352.57,143.37Zm-6.12,0h-3.07A.38.38,0,0,1,343,143a.39.39,0,0,1,.38-.39h3.07a.39.39,0,0,1,.38.39A.38.38,0,0,1,346.45,143.37Zm-6.13,0h-3.07a.38.38,0,0,1-.38-.38.39.39,0,0,1,.38-.39h3.07a.39.39,0,0,1,.38.39A.38.38,0,0,1,340.32,143.37Zm-6.13,0h-2.33a.38.38,0,0,1-.38-.38v-.74a.38.38,0,0,1,.38-.39.39.39,0,0,1,.39.39v.35h1.94a.39.39,0,0,1,.38.39A.38.38,0,0,1,334.19,143.37ZM287.43,142a.38.38,0,0,1-.38-.38V138.5a.38.38,0,0,1,.76,0v3.07A.38.38,0,0,1,287.43,142Zm44.43-2.39a.38.38,0,0,1-.38-.38v-3.06a.39.39,0,0,1,.38-.39.4.4,0,0,1,.39.39v3.06A.39.39,0,0,1,331.86,139.56Zm-44.43-3.74a.38.38,0,0,1-.38-.38v-3.07a.38.38,0,0,1,.76,0v3.07A.38.38,0,0,1,287.43,135.82Zm44.43-2.38a.39.39,0,0,1-.38-.39V130a.39.39,0,0,1,.38-.39.4.4,0,0,1,.39.39v3.06A.4.4,0,0,1,331.86,133.44Zm-44.43-3.75a.38.38,0,0,1-.38-.38v-2a.39.39,0,0,1,.38-.39h1.11a.39.39,0,0,1,.38.39.38.38,0,0,1-.38.38h-.73v1.58A.38.38,0,0,1,287.43,129.69Zm44-2h-3.07a.38.38,0,0,1-.38-.38.39.39,0,0,1,.38-.39h3.07a.39.39,0,0,1,.38.39A.38.38,0,0,1,331.44,127.73Zm-6.13,0h-3.06a.38.38,0,0,1-.39-.38.39.39,0,0,1,.39-.39h3.06a.39.39,0,0,1,.38.39A.38.38,0,0,1,325.31,127.73Zm-6.13,0h-3.06a.38.38,0,0,1-.39-.38.39.39,0,0,1,.39-.39h3.06a.39.39,0,0,1,.38.39A.38.38,0,0,1,319.18,127.73Zm-6.13,0H310a.38.38,0,0,1-.39-.38A.39.39,0,0,1,310,127h3.06a.4.4,0,0,1,.39.39A.39.39,0,0,1,313.05,127.73Zm-6.13,0h-3.06a.38.38,0,0,1-.38-.38.39.39,0,0,1,.38-.39h3.06a.4.4,0,0,1,.39.39A.39.39,0,0,1,306.92,127.73Zm-6.13,0h-3.06a.38.38,0,0,1-.38-.38.39.39,0,0,1,.38-.39h3.06a.39.39,0,0,1,.39.39A.38.38,0,0,1,300.79,127.73Zm-6.13,0H291.6a.38.38,0,0,1-.38-.38.39.39,0,0,1,.38-.39h3.06a.39.39,0,0,1,.39.39A.38.38,0,0,1,294.66,127.73Z"/><path class="cls-4" d="M277.83,138.35a.39.39,0,0,1-.38-.39V134.9a.39.39,0,0,1,.38-.39.4.4,0,0,1,.39.39V138A.4.4,0,0,1,277.83,138.35Zm0-6.13a.39.39,0,0,1-.38-.39v-3.06a.38.38,0,0,1,.38-.38.39.39,0,0,1,.39.38v3.06A.4.4,0,0,1,277.83,132.22Z"/><path class="cls-4" d="M363.14,155.41a.38.38,0,0,1-.38-.39V152a.39.39,0,0,1,.77,0V155A.38.38,0,0,1,363.14,155.41Zm0-6.13a.38.38,0,0,1-.38-.38v-3.07a.39.39,0,0,1,.77,0v3.07A.38.38,0,0,1,363.14,149.28Z"/><path class="cls-3" d="M442.77,281.48a.39.39,0,0,1-.39-.38V278a.39.39,0,0,1,.39-.38.38.38,0,0,1,.38.38v3.07A.38.38,0,0,1,442.77,281.48Zm0-6.13a.39.39,0,0,1-.39-.38V271.9a.39.39,0,0,1,.39-.38.38.38,0,0,1,.38.38V275A.38.38,0,0,1,442.77,275.35Zm21-4.72h-1.18a.39.39,0,0,1-.38-.39.38.38,0,0,1,.38-.38h.8v-1.5a.38.38,0,0,1,.76,0v1.88A.39.39,0,0,1,463.74,270.63Zm-4.25,0h-3.06a.39.39,0,0,1-.38-.39.38.38,0,0,1,.38-.38h3.06a.38.38,0,0,1,.39.38A.39.39,0,0,1,459.49,270.63Zm-6.12,0H450.3a.39.39,0,0,1-.38-.39.38.38,0,0,1,.38-.38h3.07a.38.38,0,0,1,.38.38A.39.39,0,0,1,453.37,270.63Zm-6.13,0h-3.07a.39.39,0,0,1-.38-.39.38.38,0,0,1,.38-.38h3.07a.38.38,0,0,1,.38.38A.39.39,0,0,1,447.24,270.63Zm16.5-4.95a.38.38,0,0,1-.38-.39v-3.06a.38.38,0,0,1,.76,0v3.06A.38.38,0,0,1,463.74,265.68Zm0-6.13a.38.38,0,0,1-.38-.38V256.1a.38.38,0,0,1,.76,0v3.07A.38.38,0,0,1,463.74,259.55Zm0-6.13a.38.38,0,0,1-.38-.38V250a.38.38,0,0,1,.76,0V253A.38.38,0,0,1,463.74,253.42Zm0-6.13a.38.38,0,0,1-.38-.38v-3.07a.38.38,0,0,1,.76,0v3.07A.38.38,0,0,1,463.74,247.29Zm0-6.13a.38.38,0,0,1-.38-.38v-3.07a.38.38,0,0,1,.76,0v3.07A.38.38,0,0,1,463.74,241.16Zm-1.11-5h-3.07a.39.39,0,0,1-.38-.39.38.38,0,0,1,.38-.38h3.07a.38.38,0,0,1,.38.38A.39.39,0,0,1,462.63,236.15Zm-6.13,0h-3.07a.39.39,0,0,1-.38-.39.38.38,0,0,1,.38-.38h3.07a.38.38,0,0,1,.38.38A.39.39,0,0,1,456.5,236.15Z"/><path class="cls-3" d="M281,389.88a.38.38,0,0,1-.38-.38v-2a.38.38,0,0,1,.76,0v2A.38.38,0,0,1,281,389.88Zm0-5.08a.38.38,0,0,1-.38-.39v-3.06a.38.38,0,0,1,.76,0v3.06A.38.38,0,0,1,281,384.8Zm0-6.13a.38.38,0,0,1-.38-.39v-.86h-1.43a.39.39,0,0,1,0-.77H281a.38.38,0,0,1,.38.38v1.25A.38.38,0,0,1,281,378.67Zm-4.88-1.25h-3.06a.39.39,0,0,1,0-.77h3.06a.39.39,0,1,1,0,.77Zm-6.13,0H267a.39.39,0,0,1,0-.77H270a.39.39,0,1,1,0,.77Zm-6.12,0h-3.07a.39.39,0,0,1,0-.77h3.07a.39.39,0,0,1,0,.77Zm-6.13,0H254.7a.39.39,0,0,1,0-.77h3.07a.39.39,0,0,1,0,.77Zm-6.13,0h-3.07a.39.39,0,0,1,0-.77h3.07a.39.39,0,0,1,0,.77Zm-6.13,0H245a.38.38,0,0,1-.38-.39v-2.59a.38.38,0,1,1,.76,0v2.21h.09a.39.39,0,0,1,0,.77Zm-.47-5.67a.38.38,0,0,1-.38-.38v-3.06a.38.38,0,1,1,.76,0v3.06A.38.38,0,0,1,245,371.75Z"/><path class="cls-4" d="M286.9,389.28a.4.4,0,0,1-.39-.39v-3.06a.4.4,0,0,1,.39-.39.39.39,0,0,1,.38.39v3.06A.39.39,0,0,1,286.9,389.28Zm0-6.13a.4.4,0,0,1-.39-.39V379.7a.39.39,0,0,1,.39-.38.38.38,0,0,1,.38.38v3.06A.39.39,0,0,1,286.9,383.15Zm0-6.13a.39.39,0,0,1-.39-.39v-3.06a.39.39,0,0,1,.39-.38.38.38,0,0,1,.38.38v3.06A.38.38,0,0,1,286.9,377ZM285.83,372h-3.06a.38.38,0,0,1,0-.76h3.06a.38.38,0,1,1,0,.76Zm-6.13,0h-3.06a.38.38,0,0,1,0-.76h3.06a.38.38,0,1,1,0,.76Zm-6.13,0h-3.06a.38.38,0,0,1,0-.76h3.06a.38.38,0,1,1,0,.76Zm-6.12,0h-3.07a.38.38,0,0,1,0-.76h3.07a.38.38,0,0,1,0,.76Zm-6.13,0h-3.07a.38.38,0,0,1,0-.76h3.07a.38.38,0,0,1,0,.76Zm-6.13,0h-3.07a.38.38,0,0,1,0-.76h3.07a.38.38,0,0,1,0,.76Zm-4.28-1.85a.38.38,0,0,1-.39-.38v-3.06a.39.39,0,1,1,.77,0v3.06A.38.38,0,0,1,250.91,370.1Z"/><path class="cls-4" d="M448.46,286a.39.39,0,0,1-.39-.39v-3.06a.39.39,0,1,1,.77,0v3.06A.39.39,0,0,1,448.46,286Zm0-6.13a.39.39,0,0,1-.39-.39v-3.06a.39.39,0,0,1,.77,0v3.06A.39.39,0,0,1,448.46,279.89ZM466,276h-3.06a.39.39,0,1,1,0-.77H466a.39.39,0,0,1,0,.77Zm-6.13,0h-3.06a.39.39,0,1,1,0-.77h3.06a.39.39,0,0,1,0,.77Zm-6.13,0h-3.06a.39.39,0,1,1,0-.77h3.06a.39.39,0,0,1,0,.77Zm14.29-1a.38.38,0,0,1-.39-.38v-3.07a.39.39,0,0,1,.77,0v3.07A.38.38,0,0,1,468,274.92Zm0-6.13a.38.38,0,0,1-.39-.38v-3.07a.39.39,0,0,1,.77,0v3.07A.38.38,0,0,1,468,268.79Zm0-6.13a.38.38,0,0,1-.39-.38v-3.07a.39.39,0,0,1,.77,0v3.07A.38.38,0,0,1,468,262.66Zm0-6.13a.38.38,0,0,1-.39-.38v-3.07a.39.39,0,0,1,.77,0v3.07A.38.38,0,0,1,468,256.53Zm0-6.13a.38.38,0,0,1-.39-.38V247a.39.39,0,1,1,.77,0V250A.38.38,0,0,1,468,250.4Zm0-6.13a.38.38,0,0,1-.39-.38v-3.06a.39.39,0,1,1,.77,0v3.06A.38.38,0,0,1,468,244.27Zm0-6.13a.38.38,0,0,1-.39-.38V234.7a.39.39,0,1,1,.77,0v3.06A.38.38,0,0,1,468,238.14Z"/><path class="cls-3" d="M85.88,299.79a.38.38,0,0,1-.38-.38v-3.07a.38.38,0,0,1,.38-.38.39.39,0,0,1,.39.38v3.07A.39.39,0,0,1,85.88,299.79Zm0-6.13a.38.38,0,0,1-.38-.38v-3.07a.38.38,0,0,1,.38-.38.39.39,0,0,1,.39.38v3.07A.39.39,0,0,1,85.88,293.66Zm0-6.13a.38.38,0,0,1-.38-.38v-3.07a.38.38,0,0,1,.38-.38.39.39,0,0,1,.39.38v3.07A.39.39,0,0,1,85.88,287.53Zm0-6.13a.38.38,0,0,1-.38-.38V278a.38.38,0,0,1,.38-.39.39.39,0,0,1,.39.39V281A.39.39,0,0,1,85.88,281.4Zm0-6.13a.38.38,0,0,1-.38-.38v-3.06a.39.39,0,0,1,.38-.39.4.4,0,0,1,.39.39v3.06A.39.39,0,0,1,85.88,275.27Zm0-6.12a.39.39,0,0,1-.38-.39V265.7a.39.39,0,0,1,.38-.39.4.4,0,0,1,.39.39v3.06A.4.4,0,0,1,85.88,269.15Zm0-6.13a.38.38,0,0,1-.38-.39v-3.06a.38.38,0,0,1,.38-.38.39.39,0,0,1,.39.38v3.06A.39.39,0,0,1,85.88,263Zm0-6.13a.38.38,0,0,1-.38-.39v-3.06a.38.38,0,0,1,.38-.38.39.39,0,0,1,.39.38v3.06A.39.39,0,0,1,85.88,256.89Zm0-6.13a.38.38,0,0,1-.38-.39v-3.06a.38.38,0,0,1,.38-.38.39.39,0,0,1,.39.38v3.06A.39.39,0,0,1,85.88,250.76Zm0-6.13a.38.38,0,0,1-.38-.38v-3.07a.38.38,0,0,1,.38-.38.39.39,0,0,1,.39.38v3.07A.39.39,0,0,1,85.88,244.63Zm0-6.13a.38.38,0,0,1-.38-.38v-3.07a.38.38,0,0,1,.38-.38.39.39,0,0,1,.39.38v3.07A.39.39,0,0,1,85.88,238.5Z"/><path class="cls-6" d="M226.63,394.07l8.85-32.52H192.15l-8.76,32.54.57,0Z"/><path class="cls-7" d="M183.43,394.47a.42.42,0,0,1-.32-.14A.39.39,0,0,1,183,394l8.76-32.54a.38.38,0,0,1,.37-.29h43.33a.4.4,0,0,1,.31.15.38.38,0,0,1,.06.34L227,394.17a.37.37,0,0,1-.37.28H184l-.51,0Zm9-32.54-8.55,31.76h42.45L235,361.93Z"/><path class="cls-8" d="M254.46,396.43l-.46-.25a17.78,17.78,0,0,0-8.56-2.11H184l-.57,0c-4.34.17-8.17,2.34-9.72,5.56l-2.45,5.1h88.62C259.84,401.39,257.73,398.39,254.46,396.43Z"/><polygon class="cls-9" points="234.29 365.94 186.39 383.37 191.01 365.76 234.34 365.76 234.29 365.94"/><path class="cls-6" d="M315.53,365.76H122.72a6.75,6.75,0,0,1-6.6-6.91V233.79a6.75,6.75,0,0,1,6.6-6.91H315.53a6.76,6.76,0,0,1,6.61,6.91V358.85A6.76,6.76,0,0,1,315.53,365.76Z"/><path class="cls-7" d="M315.53,366.14H122.72a7.16,7.16,0,0,1-7-7.29V233.79a7.16,7.16,0,0,1,7-7.3H315.53a7.16,7.16,0,0,1,7,7.3V358.85A7.15,7.15,0,0,1,315.53,366.14ZM122.72,227.26a6.39,6.39,0,0,0-6.22,6.53V358.85a6.39,6.39,0,0,0,6.22,6.53H315.53a6.39,6.39,0,0,0,6.23-6.53V233.79a6.39,6.39,0,0,0-6.23-6.53Z"/><path class="cls-8" d="M116.12,358.85V233.79a6.77,6.77,0,0,1,6.5-6.91h-6.8a6.77,6.77,0,0,0-6.6,6.93V359.12a6.76,6.76,0,0,0,6.6,6.92H308.64a6.26,6.26,0,0,0,1.84-.28H122.72A6.75,6.75,0,0,1,116.12,358.85Z"/><path class="cls-7" d="M308.64,366.42H115.82a7.16,7.16,0,0,1-7-7.3V233.81a7.17,7.17,0,0,1,7-7.31h6.8v.76a6.42,6.42,0,0,0-6.13,6.53V358.85a6.39,6.39,0,0,0,6.22,6.53H313.05l-2.46.75A6.88,6.88,0,0,1,308.64,366.42ZM115.82,227.26a6.4,6.4,0,0,0-6.22,6.55V359.12a6.4,6.4,0,0,0,6.22,6.54h4.39a7.31,7.31,0,0,1-4.48-6.81V233.79a7.39,7.39,0,0,1,3.88-6.53Z"/><path class="cls-10" d="M128.69,264.69V236.57a2.16,2.16,0,0,1,2.16-2.15H308.58a2.15,2.15,0,0,1,2.15,2.15V341.39h-182v-27.8"/><path class="cls-7" d="M310.73,341.77h-182a.38.38,0,0,1-.38-.38v-27.8a.38.38,0,0,1,.38-.39.39.39,0,0,1,.39.39V341H310.35V236.57a1.77,1.77,0,0,0-1.77-1.77H130.85a1.77,1.77,0,0,0-1.77,1.77v28.12a.39.39,0,0,1-.39.38.38.38,0,0,1-.38-.38V236.57a2.54,2.54,0,0,1,2.54-2.54H308.58a2.54,2.54,0,0,1,2.53,2.54V341.39A.38.38,0,0,1,310.73,341.77Z"/><path class="cls-7" d="M128.69,298.9a.38.38,0,0,1-.38-.38V277.61a.38.38,0,0,1,.38-.38.39.39,0,0,1,.39.38v20.91A.39.39,0,0,1,128.69,298.9Z"/><path class="cls-8" d="M314.82,365.06H123.54a6.48,6.48,0,0,1-6.55-6.41V341.39H321.38v17.26A6.49,6.49,0,0,1,314.82,365.06Z"/><path class="cls-6" d="M314.82,365.45H123.54a6.88,6.88,0,0,1-6.94-6.8V341.39A.38.38,0,0,1,117,341H321.38a.38.38,0,0,1,.38.39v17.26A6.88,6.88,0,0,1,314.82,365.45ZM117.37,341.77v16.88a6.11,6.11,0,0,0,6.17,6H314.82a6.11,6.11,0,0,0,6.17-6V341.77Z"/><path class="cls-6" d="M224.22,353.77a5.59,5.59,0,1,1-5.59-5.59A5.58,5.58,0,0,1,224.22,353.77Z"/><path class="cls-7" d="M218.63,359.73a6,6,0,1,1,6-6A6,6,0,0,1,218.63,359.73Zm0-11.16a5.2,5.2,0,1,0,5.2,5.2A5.2,5.2,0,0,0,218.63,348.57Z"/><path class="cls-11" d="M221.93,353.77a3.3,3.3,0,1,1-3.3-3.3A3.3,3.3,0,0,1,221.93,353.77Z"/><path class="cls-7" d="M218.63,357.44a3.68,3.68,0,1,1,3.68-3.67A3.68,3.68,0,0,1,218.63,357.44Zm0-6.58a2.91,2.91,0,1,0,2.91,2.91A2.9,2.9,0,0,0,218.63,350.86Z"/><path class="cls-11" d="M218.63,231.87h0a1.3,1.3,0,0,1-1.29-1.3h0a1.29,1.29,0,0,1,1.29-1.29h0a1.3,1.3,0,0,1,1.3,1.29h0A1.3,1.3,0,0,1,218.63,231.87Z"/><path class="cls-7" d="M218.63,232.25a1.68,1.68,0,1,1,1.68-1.68A1.68,1.68,0,0,1,218.63,232.25Zm0-2.59a.92.92,0,1,0,.92.91A.91.91,0,0,0,218.63,229.66Z"/><path class="cls-7" d="M154.13,280.31a.38.38,0,0,1-.38-.38v-9.06a.38.38,0,1,1,.76,0v9.06A.38.38,0,0,1,154.13,280.31Z"/><path class="cls-7" d="M186.39,313.77a.38.38,0,0,1-.38-.38V301.92a.38.38,0,0,1,.76,0v11.47A.38.38,0,0,1,186.39,313.77Z"/><path class="cls-7" d="M217.18,280.31a.38.38,0,0,1-.38-.38v-9.06a.38.38,0,0,1,.38-.39.39.39,0,0,1,.39.39v9.06A.39.39,0,0,1,217.18,280.31Z"/><path class="cls-12" d="M186,280.31a.38.38,0,0,1-.38-.38v-9.06a.38.38,0,1,1,.76,0v9.06A.38.38,0,0,1,186,280.31Z"/><path class="cls-12" d="M217.09,314a.38.38,0,0,1-.38-.38V301.79a.38.38,0,0,1,.38-.38.39.39,0,0,1,.39.38v11.82A.39.39,0,0,1,217.09,314Z"/><path class="cls-12" d="M172.93,322.43h-9.07a.38.38,0,0,1,0-.76h9.07a.38.38,0,0,1,0,.76Z"/><rect class="cls-12" x="143.65" y="249.06" width="85.59" height="21.68" rx="1.06"/><path class="cls-7" d="M228.42,271.13h-84a1.2,1.2,0,0,1-1.2-1.2V249.88a1.2,1.2,0,0,1,1.2-1.2h84a1.2,1.2,0,0,1,1.2,1.2v20.05A1.2,1.2,0,0,1,228.42,271.13Zm-84-21.68a.43.43,0,0,0-.43.43v20.05a.43.43,0,0,0,.43.43h84a.43.43,0,0,0,.43-.43V249.88a.43.43,0,0,0-.43-.43Z"/><rect class="cls-6" x="143.84" y="280.09" width="21.3" height="21.3" rx="1.06"/><path class="cls-7" d="M164.33,301.77H144.65a1.19,1.19,0,0,1-1.2-1.19V280.9a1.2,1.2,0,0,1,1.2-1.2h19.68a1.19,1.19,0,0,1,1.19,1.2v19.68A1.19,1.19,0,0,1,164.33,301.77Zm-19.68-21.3a.43.43,0,0,0-.43.43v19.68a.43.43,0,0,0,.43.43h19.68a.44.44,0,0,0,.43-.43V280.9a.43.43,0,0,0-.43-.43Z"/><rect class="cls-7" x="175.79" y="280.09" width="21.3" height="21.3" rx="1.06"/><path class="cls-7" d="M196.28,301.77H176.6a1.19,1.19,0,0,1-1.19-1.19V280.9a1.19,1.19,0,0,1,1.19-1.2h19.68a1.2,1.2,0,0,1,1.2,1.2v19.68A1.19,1.19,0,0,1,196.28,301.77Zm-19.68-21.3a.43.43,0,0,0-.43.43v19.68a.44.44,0,0,0,.43.43h19.68a.43.43,0,0,0,.43-.43V280.9a.43.43,0,0,0-.43-.43Z"/><rect class="cls-6" x="207.08" y="280.09" width="21.3" height="21.3" rx="1.06"/><path class="cls-7" d="M227.57,301.77H207.89a1.19,1.19,0,0,1-1.19-1.19V280.9a1.19,1.19,0,0,1,1.19-1.2h19.68a1.2,1.2,0,0,1,1.2,1.2v19.68A1.19,1.19,0,0,1,227.57,301.77Zm-19.68-21.3a.43.43,0,0,0-.43.43v19.68a.44.44,0,0,0,.43.43h19.68a.43.43,0,0,0,.43-.43V280.9a.43.43,0,0,0-.43-.43Z"/><rect class="cls-6" x="173.13" y="313.94" width="54.78" height="16.36" rx="8.18"/><path class="cls-7" d="M219.73,330.68H181.31a8.56,8.56,0,1,1,0-17.12h38.42a8.56,8.56,0,1,1,0,17.12Zm-38.42-16.35a7.8,7.8,0,1,0,0,15.59h38.42a7.8,7.8,0,0,0,0-15.59Z"/><path class="cls-6" d="M264.64,297.26H246.91a.38.38,0,1,1,0-.76h17.73a.38.38,0,0,1,0,.76Z"/><path class="cls-6" d="M293.46,297.26H271.93a.38.38,0,1,1,0-.76h21.53a.38.38,0,1,1,0,.76Z"/><path class="cls-6" d="M279.26,325.76H246.91a.38.38,0,1,1,0-.76h32.35a.38.38,0,0,1,0,.76Z"/><path class="cls-6" d="M297.83,307.13H246.91a.38.38,0,1,1,0-.76h50.92a.38.38,0,0,1,0,.76Z"/><path class="cls-6" d="M263,316.52H246.91a.38.38,0,1,1,0-.76H263a.38.38,0,1,1,0,.76Z"/><path class="cls-6" d="M297.38,316.52H268a.38.38,0,1,1,0-.76h29.37a.38.38,0,1,1,0,.76Z"/><path class="cls-7" d="M246.18,248.56h53.74a0,0,0,0,1,0,0v4.9a1.55,1.55,0,0,1-1.55,1.55H248.18a2,2,0,0,1-2-2v-4.45A0,0,0,0,1,246.18,248.56Z" transform="translate(546.09 503.57) rotate(180)"/><path class="cls-6" d="M253.24,253.09a1.38,1.38,0,1,1,1.37-1.38A1.38,1.38,0,0,1,253.24,253.09Zm0-2a.61.61,0,1,0,0,1.22.61.61,0,1,0,0-1.22Z"/><path class="cls-6" d="M257.11,253.09a1.38,1.38,0,1,1,1.37-1.38A1.38,1.38,0,0,1,257.11,253.09Zm0-2a.61.61,0,1,0,0,1.22.61.61,0,1,0,0-1.22Z"/><path class="cls-6" d="M249.39,253.09a1.38,1.38,0,1,1,1.38-1.38A1.38,1.38,0,0,1,249.39,253.09Zm0-2a.61.61,0,0,0,0,1.22.61.61,0,1,0,0-1.22Z"/><rect class="cls-6" x="246.15" y="255.01" width="53.74" height="31.58" rx="0.23" transform="translate(546.05 541.61) rotate(180)"/><path class="cls-7" d="M292.89,263.05H268.73a.38.38,0,0,1,0-.76h24.16a.38.38,0,1,1,0,.76Z"/><path class="cls-12" d="M277.22,266.72h-8.49a.39.39,0,0,1,0-.77h8.49a.39.39,0,0,1,0,.77Z"/><path class="cls-7" d="M291,266.72H280.71a.39.39,0,0,1,0-.77H291a.39.39,0,0,1,0,.77Z"/><path class="cls-12" d="M284.22,277.84H268.73a.38.38,0,0,1,0-.76h15.49a.38.38,0,0,1,0,.76Z"/><path class="cls-12" d="M293.11,270.57H268.73a.38.38,0,0,1,0-.76h24.38a.38.38,0,0,1,0,.76Z"/><path class="cls-7" d="M276.46,274.24h-7.73a.39.39,0,0,1-.38-.39.38.38,0,0,1,.38-.38h7.73a.38.38,0,0,1,.38.38A.39.39,0,0,1,276.46,274.24Z"/><path class="cls-12" d="M292.89,274.24H278.83a.39.39,0,0,1-.38-.39.38.38,0,0,1,.38-.38h14.06a.39.39,0,0,1,.39.38A.4.4,0,0,1,292.89,274.24Z"/><path class="cls-12" d="M252.16,269.52a6.07,6.07,0,0,1,5-6l-.24-1.39a7.47,7.47,0,0,0-6.11,8.61l1.43-.25A6.52,6.52,0,0,1,252.16,269.52Z"/><path class="cls-6" d="M265.64,269.78a7.74,7.74,0,0,0-.11-1.51h0A7.74,7.74,0,0,1,265.64,269.78Z"/><path class="cls-11" d="M258.23,275.58a6.06,6.06,0,0,1-6-5.06l-1.43.25a7.45,7.45,0,0,0,8.6,6.1l-.23-1.37A6,6,0,0,1,258.23,275.58Z"/><path class="cls-7" d="M265.53,268.27h0a7.46,7.46,0,0,0-8.6-6.11l.24,1.39a6.14,6.14,0,0,1,1.06-.1,6.06,6.06,0,0,1,1,12.05l.23,1.37a7.45,7.45,0,0,0,6-5.64,7.11,7.11,0,0,0,.09-3Z"/><g class="cls-13"><path class="cls-14" d="M456.94,230.54l-3.36-10.64a1.65,1.65,0,0,0-2.07-1.08L444.64,221a1.63,1.63,0,0,1-1.87-.65,32,32,0,0,0-5.22-6.22,1.63,1.63,0,0,1-.33-2l3.32-6.39a1.66,1.66,0,0,0-.71-2.23l-9.89-5.14a1.65,1.65,0,0,0-2.23.7l-3.32,6.4a1.64,1.64,0,0,1-1.8.85,32,32,0,0,0-8.08-.7,1.64,1.64,0,0,1-1.62-1.15l-2.17-6.87a1.65,1.65,0,0,0-2.07-1.08L398,199.91a1.65,1.65,0,0,0-1.07,2.08l2.17,6.87a1.64,1.64,0,0,1-.66,1.87,31.56,31.56,0,0,0-6.21,5.22,1.64,1.64,0,0,1-2,.33L383.89,213a1.66,1.66,0,0,0-2.24.7l-5.14,9.9a1.66,1.66,0,0,0,.71,2.23l6.39,3.32a1.65,1.65,0,0,1,.86,1.79,31.59,31.59,0,0,0-.71,8.08,1.64,1.64,0,0,1-1.15,1.62l-6.87,2.17a1.66,1.66,0,0,0-1.08,2.08L378,255.48a1.65,1.65,0,0,0,2.07,1.08l6.87-2.17a1.64,1.64,0,0,1,1.87.66,31.9,31.9,0,0,0,5.22,6.21,1.64,1.64,0,0,1,.33,2l-3.32,6.39a1.65,1.65,0,0,0,.7,2.23l9.9,5.14a1.65,1.65,0,0,0,2.23-.7l3.32-6.39A1.62,1.62,0,0,1,409,269a32.08,32.08,0,0,0,8.09.7,1.63,1.63,0,0,1,1.61,1.15l2.17,6.87a1.66,1.66,0,0,0,2.08,1.08l10.63-3.36a1.66,1.66,0,0,0,1.08-2.08l-2.17-6.86a1.65,1.65,0,0,1,.66-1.88,31.56,31.56,0,0,0,6.21-5.22,1.64,1.64,0,0,1,2-.32l6.39,3.32a1.66,1.66,0,0,0,2.23-.71l5.14-9.89a1.64,1.64,0,0,0-.7-2.23L448,246.27a1.62,1.62,0,0,1-.86-1.79,31.55,31.55,0,0,0,.7-8.08,1.63,1.63,0,0,1,1.16-1.62l6.86-2.17A1.64,1.64,0,0,0,456.94,230.54Zm-35.78,24.28a19,19,0,1,1,13.62-20.57A19.06,19.06,0,0,1,421.16,254.82Z"/></g><path class="cls-11" d="M456.94,228.26l-3.36-10.64a1.65,1.65,0,0,0-2.07-1.08l-6.87,2.17a1.63,1.63,0,0,1-1.87-.66,32.26,32.26,0,0,0-5.22-6.21,1.63,1.63,0,0,1-.33-2l3.32-6.39a1.66,1.66,0,0,0-.71-2.23l-9.89-5.14a1.65,1.65,0,0,0-2.23.7l-3.32,6.39a1.64,1.64,0,0,1-1.8.86,32,32,0,0,0-8.08-.7,1.64,1.64,0,0,1-1.62-1.15l-2.17-6.87a1.65,1.65,0,0,0-2.07-1.08L398,197.63a1.65,1.65,0,0,0-1.07,2.08l2.17,6.86a1.65,1.65,0,0,1-.66,1.88,31.56,31.56,0,0,0-6.21,5.22,1.64,1.64,0,0,1-2,.33l-6.39-3.33a1.67,1.67,0,0,0-2.24.71l-5.14,9.9a1.66,1.66,0,0,0,.71,2.23l6.39,3.32a1.65,1.65,0,0,1,.86,1.79,31.55,31.55,0,0,0-.71,8.08,1.64,1.64,0,0,1-1.15,1.62l-6.87,2.17a1.65,1.65,0,0,0-1.08,2.07L378,253.2a1.65,1.65,0,0,0,2.07,1.08l6.87-2.17a1.62,1.62,0,0,1,1.87.66,31.9,31.9,0,0,0,5.22,6.21,1.64,1.64,0,0,1,.33,2l-3.32,6.39a1.65,1.65,0,0,0,.7,2.23l9.9,5.14a1.65,1.65,0,0,0,2.23-.7l3.32-6.4a1.63,1.63,0,0,1,1.79-.85,32.08,32.08,0,0,0,8.09.7,1.63,1.63,0,0,1,1.61,1.15l2.17,6.87a1.67,1.67,0,0,0,2.08,1.08l10.63-3.36a1.66,1.66,0,0,0,1.08-2.08l-2.17-6.86a1.65,1.65,0,0,1,.66-1.88,31.56,31.56,0,0,0,6.21-5.22,1.64,1.64,0,0,1,2-.33l6.39,3.33a1.66,1.66,0,0,0,2.23-.71l5.14-9.9a1.65,1.65,0,0,0-.7-2.23L448,244a1.62,1.62,0,0,1-.86-1.79,31.55,31.55,0,0,0,.7-8.08A1.63,1.63,0,0,1,449,232.5l6.86-2.17A1.64,1.64,0,0,0,456.94,228.26Zm-35.78,24.27A19,19,0,1,1,434.78,232,19.05,19.05,0,0,1,421.16,252.53Z"/><path class="cls-12" d="M457.12,224.27l-3.36-10.63a1.66,1.66,0,0,0-2.08-1.08l-6.86,2.17a1.65,1.65,0,0,1-1.88-.66,31.56,31.56,0,0,0-5.22-6.21,1.64,1.64,0,0,1-.32-2l3.32-6.39a1.66,1.66,0,0,0-.71-2.23l-9.89-5.15a1.65,1.65,0,0,0-2.23.71l-3.33,6.39a1.65,1.65,0,0,1-1.79.86,31.55,31.55,0,0,0-8.08-.7,1.64,1.64,0,0,1-1.62-1.16l-2.17-6.86a1.64,1.64,0,0,0-2.07-1.08l-10.64,3.36a1.65,1.65,0,0,0-1.08,2.07l2.17,6.87a1.63,1.63,0,0,1-.65,1.87,32,32,0,0,0-6.22,5.22,1.64,1.64,0,0,1-2,.33l-6.39-3.32a1.65,1.65,0,0,0-2.23.71l-5.14,9.89a1.65,1.65,0,0,0,.7,2.23l6.4,3.32a1.64,1.64,0,0,1,.85,1.79,32.08,32.08,0,0,0-.7,8.09,1.63,1.63,0,0,1-1.15,1.61l-6.87,2.17a1.67,1.67,0,0,0-1.08,2.08l3.36,10.63a1.65,1.65,0,0,0,2.08,1.08l6.87-2.17a1.64,1.64,0,0,1,1.87.66,31.56,31.56,0,0,0,5.22,6.21,1.64,1.64,0,0,1,.33,2l-3.32,6.39a1.64,1.64,0,0,0,.7,2.23l9.9,5.15a1.66,1.66,0,0,0,2.23-.71l3.32-6.39a1.65,1.65,0,0,1,1.79-.86,31.59,31.59,0,0,0,8.08.7,1.64,1.64,0,0,1,1.62,1.16l2.17,6.87a1.65,1.65,0,0,0,2.08,1.07l10.63-3.36a1.65,1.65,0,0,0,1.08-2.07l-2.17-6.87a1.64,1.64,0,0,1,.66-1.87,32.26,32.26,0,0,0,6.21-5.22,1.64,1.64,0,0,1,2-.33l6.39,3.32a1.65,1.65,0,0,0,2.23-.7l5.14-9.9a1.65,1.65,0,0,0-.7-2.23L448.18,240a1.62,1.62,0,0,1-.86-1.79,32.08,32.08,0,0,0,.7-8.09,1.63,1.63,0,0,1,1.15-1.61l6.87-2.17A1.67,1.67,0,0,0,457.12,224.27Zm-35.78,25.35A19.05,19.05,0,1,1,435,229.06,19.06,19.06,0,0,1,421.34,249.62Z"/><path class="cls-7" d="M422.64,273a2,2,0,0,1-1.95-1.42l-2.17-6.87a1.23,1.23,0,0,0-1.23-.88,32.58,32.58,0,0,1-8.18-.71,1.25,1.25,0,0,0-1.37.66l-3.32,6.39a2,2,0,0,1-1.2,1,2,2,0,0,1-1.55-.13l-9.9-5.15a2,2,0,0,1-.86-2.74l3.32-6.39a1.27,1.27,0,0,0-.25-1.51A32.05,32.05,0,0,1,388.7,249a1.26,1.26,0,0,0-1.44-.5l-6.87,2.17a2,2,0,0,1-2.55-1.33l-3.36-10.63a2,2,0,0,1,1.33-2.56l6.86-2.17a1.25,1.25,0,0,0,.89-1.24,32.62,32.62,0,0,1,.71-8.18,1.25,1.25,0,0,0-.66-1.37l-6.39-3.32a2,2,0,0,1-1-1.19,2.07,2.07,0,0,1,.14-1.56l5.14-9.89a2,2,0,0,1,1.2-1,2,2,0,0,1,1.55.13l6.39,3.32a1.26,1.26,0,0,0,1.5-.25,32.46,32.46,0,0,1,6.29-5.28,1.26,1.26,0,0,0,.5-1.43l-2.17-6.87a2,2,0,0,1,1.33-2.56l10.63-3.36a2,2,0,0,1,2.56,1.33l2.17,6.87a1.25,1.25,0,0,0,1.23.88,32.54,32.54,0,0,1,8.18.71,1.24,1.24,0,0,0,1.37-.66l3.33-6.39a2,2,0,0,1,2.74-.87l9.9,5.15a2,2,0,0,1,.87,2.74l-3.33,6.39a1.27,1.27,0,0,0,.25,1.51,32.45,32.45,0,0,1,5.29,6.28,1.23,1.23,0,0,0,1.43.5l6.87-2.17a2,2,0,0,1,1.55.14,2,2,0,0,1,1,1.19l3.36,10.64a2,2,0,0,1-1.32,2.55l-6.87,2.17a1.25,1.25,0,0,0-.89,1.24,31.71,31.71,0,0,1-.71,8.18,1.26,1.26,0,0,0,.66,1.37l6.39,3.32a2,2,0,0,1,.87,2.75l-5.14,9.89a2,2,0,0,1-2.75.87l-6.39-3.32a1.26,1.26,0,0,0-1.5.25,32.11,32.11,0,0,1-6.29,5.28,1.27,1.27,0,0,0-.5,1.44l2.17,6.86a2,2,0,0,1-1.33,2.56l-10.63,3.36A2.15,2.15,0,0,1,422.64,273Zm-5.3-9.94a2,2,0,0,1,1.91,1.42l2.17,6.87a1.28,1.28,0,0,0,1.6.83l10.63-3.36a1.28,1.28,0,0,0,.83-1.6l-2.17-6.86a2,2,0,0,1,.82-2.31,31.61,31.61,0,0,0,6.14-5.16,2,2,0,0,1,2.42-.41l6.39,3.32a1.24,1.24,0,0,0,1,.09,1.3,1.3,0,0,0,.75-.63l5.14-9.9a1.26,1.26,0,0,0-.54-1.71L448,240.35a2,2,0,0,1-1.06-2.21,31.54,31.54,0,0,0,.7-8,2,2,0,0,1,1.42-2l6.87-2.17a1.26,1.26,0,0,0,.82-1.59h0l-3.36-10.64a1.23,1.23,0,0,0-.62-.74,1.26,1.26,0,0,0-1-.09l-6.87,2.17a2,2,0,0,1-2.31-.81,31.26,31.26,0,0,0-5.16-6.14,2,2,0,0,1-.4-2.42l3.32-6.39a1.27,1.27,0,0,0-.55-1.71l-9.89-5.15a1.28,1.28,0,0,0-1.72.55l-3.32,6.39a2,2,0,0,1-2.21,1.05,31.53,31.53,0,0,0-8-.69,2,2,0,0,1-2-1.42l-2.17-6.87a1.28,1.28,0,0,0-1.6-.83L398.31,194a1.27,1.27,0,0,0-.83,1.6l2.17,6.86a2,2,0,0,1-.82,2.32,31.49,31.49,0,0,0-6.13,5.15,2,2,0,0,1-2.42.41L383.89,207a1.22,1.22,0,0,0-1-.08,1.25,1.25,0,0,0-.75.62l-5.14,9.9a1.21,1.21,0,0,0-.08,1,1.23,1.23,0,0,0,.62.74L384,222.5a2,2,0,0,1,1.06,2.22,31,31,0,0,0-.69,8,2,2,0,0,1-1.43,2L376,236.87a1.27,1.27,0,0,0-.83,1.59l3.36,10.64a1.27,1.27,0,0,0,1.59.83l6.87-2.17a2,2,0,0,1,2.31.81,31.26,31.26,0,0,0,5.16,6.14,2,2,0,0,1,.41,2.42l-3.32,6.39a1.26,1.26,0,0,0-.09,1,1.25,1.25,0,0,0,.63.74l9.89,5.15a1.31,1.31,0,0,0,1,.08,1.25,1.25,0,0,0,.75-.62l3.32-6.4a2,2,0,0,1,2.21-1.05,31.53,31.53,0,0,0,8,.69ZM416,250.74a19.42,19.42,0,1,1,5.4-.76l-.1-.36.1.36A19.56,19.56,0,0,1,416,250.74Zm0-38.08a19.17,19.17,0,0,0-5.19.72,18.79,18.79,0,1,0,5.19-.72Z"/><path class="cls-7" d="M405.54,232.55l0,0a.9.9,0,0,1-.48-.79.92.92,0,0,1,.48-.79l5.39-2.81a1,1,0,0,1,.43-.11.91.91,0,0,1,.89.92.88.88,0,0,1-.45.77l-3.93,2.05,3.9,2.11a.87.87,0,0,1,.47.79.9.9,0,0,1-.88.91.88.88,0,0,1-.42-.11Z"/><path class="cls-7" d="M413.08,237.36a1.26,1.26,0,0,1,.05-.33L417,225.14a1.12,1.12,0,0,1,1.07-.78,1.16,1.16,0,0,1,1.11,1.23,1.09,1.09,0,0,1-.06.36l-3.82,11.76a1.14,1.14,0,0,1-1.08.78.89.89,0,0,1-.32-.05A1.17,1.17,0,0,1,413.08,237.36Z"/><path class="cls-7" d="M420.2,229.7a.88.88,0,0,1-.45-.77.92.92,0,0,1,.9-.92,1,1,0,0,1,.43.11l5.38,2.81a.93.93,0,0,1,.48.8.89.89,0,0,1-.48.78l0,0-5.34,2.9a.94.94,0,0,1-.42.11.9.9,0,0,1-.89-.91.88.88,0,0,1,.48-.79l3.88-2.11Z"/><path class="cls-6" d="M390.63,226.49h-.08a.37.37,0,0,1-.29-.45,26.6,26.6,0,0,1,18.47-20,27.25,27.25,0,0,1,7.32-1h0a.39.39,0,0,1,.38.39.38.38,0,0,1-.38.38,25.56,25.56,0,0,0-25,20.44A.39.39,0,0,1,390.63,226.49Z"/><path class="cls-6" d="M416,257.64a26.33,26.33,0,0,1-26.14-23.2.38.38,0,0,1,.76-.09,25.57,25.57,0,1,0,33-27.44.39.39,0,0,1-.25-.48.38.38,0,0,1,.48-.25A26.32,26.32,0,0,1,416,257.64Z"/><path class="cls-6" d="M416,253.16a21.85,21.85,0,1,1,6.07-.86A21.84,21.84,0,0,1,416,253.16Zm0-43.11a21.27,21.27,0,1,0,5.9,41.7h0a21.26,21.26,0,0,0,5.84-38.16A21.15,21.15,0,0,0,416.05,210.05Z"/><rect class="cls-7" x="398.58" y="183.73" width="3.45" height="14.93" rx="1.72"/><path class="cls-7" d="M400.48,199h-.35a1.93,1.93,0,0,1-1.93-1.93V185.28a1.93,1.93,0,0,1,1.93-1.94h.35a1.94,1.94,0,0,1,1.93,1.94v11.83A1.94,1.94,0,0,1,400.48,199Zm-.35-14.93a1.17,1.17,0,0,0-1.17,1.17v11.83a1.16,1.16,0,0,0,1.17,1.16h.35a1.16,1.16,0,0,0,1.16-1.16V185.28a1.16,1.16,0,0,0-1.16-1.17Z"/><path class="cls-7" d="M331,273.47V168.41a10.6,10.6,0,0,1,10.6-10.59H338a10.65,10.65,0,0,0-10.65,10.65v105A10.65,10.65,0,0,0,338,284.07h3.61A10.6,10.6,0,0,1,331,273.47Z"/><path class="cls-15" d="M341.59,284.45H338a11,11,0,0,1-11-11v-105a11,11,0,0,1,11-11h3.61v.77a10.22,10.22,0,0,0-10.21,10.21V273.47a10.22,10.22,0,0,0,10.21,10.22Zm-4.06-126.24a10.29,10.29,0,0,0-9.82,10.26v105a10.29,10.29,0,0,0,9.82,10.26,11,11,0,0,1-6.92-10.21V168.41A11,11,0,0,1,337.53,158.21Z"/><path class="cls-11" d="M329.27,189.39h0a.9.9,0,0,1-.9-.9V175.36a.9.9,0,0,1,.9-.9h0a.9.9,0,0,1,.9.9v13.13A.9.9,0,0,1,329.27,189.39Z"/><path class="cls-7" d="M329.27,189.77a1.28,1.28,0,0,1-1.28-1.28V175.36a1.29,1.29,0,0,1,2.57,0v13.13A1.28,1.28,0,0,1,329.27,189.77Zm0-14.93a.53.53,0,0,0-.52.52v13.13a.53.53,0,0,0,.52.52.52.52,0,0,0,.52-.52V175.36A.52.52,0,0,0,329.27,174.84Z"/><path class="cls-11" d="M329.27,209.16h0a.9.9,0,0,1-.9-.9V195.13a.9.9,0,0,1,.9-.9h0a.9.9,0,0,1,.9.9v13.13A.9.9,0,0,1,329.27,209.16Z"/><path class="cls-7" d="M329.27,209.54a1.28,1.28,0,0,1-1.28-1.28V195.13a1.29,1.29,0,0,1,2.57,0v13.13A1.28,1.28,0,0,1,329.27,209.54Zm0-14.93a.53.53,0,0,0-.52.52v13.13a.53.53,0,0,0,.52.52.52.52,0,0,0,.52-.52V195.13A.52.52,0,0,0,329.27,194.61Z"/><path class="cls-8" d="M389.48,157.82H341.59A10.6,10.6,0,0,0,331,168.41V273.47a10.6,10.6,0,0,0,10.6,10.6h47.89a10.6,10.6,0,0,0,10.6-10.6V168.41A10.6,10.6,0,0,0,389.48,157.82Z"/><path class="cls-7" d="M389.48,284.45H341.59a11,11,0,0,1-11-11V168.41a11,11,0,0,1,11-11h47.89a11,11,0,0,1,11,11V273.47A11,11,0,0,1,389.48,284.45ZM341.59,158.2a10.22,10.22,0,0,0-10.21,10.21V273.47a10.22,10.22,0,0,0,10.21,10.22h47.89a10.22,10.22,0,0,0,10.21-10.22V168.41a10.22,10.22,0,0,0-10.21-10.21Z"/><path class="cls-6" d="M365.53,166.72a1.8,1.8,0,1,1,1.81-1.8A1.81,1.81,0,0,1,365.53,166.72Zm0-3a1.23,1.23,0,1,0,1.23,1.22A1.22,1.22,0,0,0,365.53,163.7Z"/><path class="cls-6" d="M360.58,165.89h-7.06a.95.95,0,1,1,0-1.89h7.06a.95.95,0,1,1,0,1.89Zm-7.06-1.32a.37.37,0,0,0-.37.37.36.36,0,0,0,.37.37h7.06a.36.36,0,0,0,.37-.37.37.37,0,0,0-.37-.37Z"/><path class="cls-6" d="M377.71,165.89h-7.06a.95.95,0,1,1,0-1.89h7.06a.95.95,0,1,1,0,1.89Zm-7.06-1.32a.37.37,0,0,0-.37.37.36.36,0,0,0,.37.37h7.06a.36.36,0,0,0,.37-.37.37.37,0,0,0-.37-.37Z"/><rect class="cls-6" x="336.38" y="169.74" width="58.3" height="103.65"/><path class="cls-7" d="M394.68,273.77h-58.3a.38.38,0,0,1-.38-.38V169.74a.38.38,0,0,1,.38-.38h58.3a.38.38,0,0,1,.39.38V273.39A.38.38,0,0,1,394.68,273.77ZM336.77,273H394.3V170.12H336.77Z"/><rect class="cls-7" x="336.78" y="170.12" width="57.51" height="7.96"/><path class="cls-6" d="M380.21,175.36a1.29,1.29,0,1,1,1.29-1.29A1.28,1.28,0,0,1,380.21,175.36Zm0-2a.71.71,0,1,0,.72.71A.71.71,0,0,0,380.21,173.36Z"/><path class="cls-6" d="M385.41,175.36a1.29,1.29,0,1,1,1.29-1.29A1.28,1.28,0,0,1,385.41,175.36Zm0-2a.71.71,0,1,0,.71.71A.71.71,0,0,0,385.41,173.36Z"/><path class="cls-6" d="M390.7,175.36a1.29,1.29,0,1,1,1.29-1.29A1.29,1.29,0,0,1,390.7,175.36Zm0-2a.71.71,0,1,0,.71.71A.71.71,0,0,0,390.7,173.36Z"/><path class="cls-12" d="M363.74,190.34H346a.38.38,0,0,1,0-.76h17.71a.38.38,0,0,1,0,.76Z"/><path class="cls-7" d="M374.5,190.34h-6.33a.38.38,0,1,1,0-.76h6.33a.38.38,0,0,1,0,.76Z"/><path class="cls-7" d="M385.36,190.34h-5.8a.38.38,0,1,1,0-.76h5.8a.38.38,0,0,1,0,.76Z"/><path class="cls-12" d="M385.36,204.06H367.64a.39.39,0,0,1-.38-.39.38.38,0,0,1,.38-.38h17.72a.38.38,0,0,1,.38.38A.39.39,0,0,1,385.36,204.06Z"/><path class="cls-7" d="M363.22,204.06h-6.33a.39.39,0,0,1-.38-.39.38.38,0,0,1,.38-.38h6.33a.38.38,0,0,1,.38.38A.39.39,0,0,1,363.22,204.06Z"/><path class="cls-7" d="M351.83,204.06H346a.39.39,0,0,1-.38-.39.38.38,0,0,1,.38-.38h5.8a.38.38,0,0,1,.38.38A.39.39,0,0,1,351.83,204.06Z"/><path class="cls-12" d="M355.15,197.13H346a.39.39,0,0,1,0-.77h9.12a.39.39,0,0,1,0,.77Z"/><path class="cls-7" d="M374.5,197.13H359a.39.39,0,0,1,0-.77H374.5a.39.39,0,0,1,0,.77Z"/><path class="cls-12" d="M385.36,197.13h-5.8a.39.39,0,1,1,0-.77h5.8a.39.39,0,0,1,0,.77Z"/><path class="cls-12" d="M363.74,210.15H346a.38.38,0,0,1-.38-.38.39.39,0,0,1,.38-.39h17.71a.39.39,0,0,1,.38.39A.38.38,0,0,1,363.74,210.15Z"/><path class="cls-7" d="M374.5,210.15h-6.33a.38.38,0,0,1-.39-.38.39.39,0,0,1,.39-.39h6.33a.39.39,0,0,1,.38.39A.38.38,0,0,1,374.5,210.15Z"/><path class="cls-12" d="M363.74,232.13H346a.38.38,0,0,1-.38-.38.39.39,0,0,1,.38-.39h17.71a.39.39,0,0,1,.38.39A.38.38,0,0,1,363.74,232.13Z"/><path class="cls-7" d="M374.5,232.13h-6.33a.38.38,0,0,1-.39-.38.39.39,0,0,1,.39-.39h6.33a.39.39,0,0,1,.38.39A.38.38,0,0,1,374.5,232.13Z"/><path class="cls-7" d="M385.36,210.15h-5.8a.39.39,0,0,1-.39-.38.4.4,0,0,1,.39-.39h5.8a.39.39,0,0,1,.38.39A.38.38,0,0,1,385.36,210.15Z"/><path class="cls-12" d="M385.36,223.86H367.64a.38.38,0,0,1,0-.76h17.72a.38.38,0,1,1,0,.76Z"/><path class="cls-7" d="M363.22,223.86h-6.33a.38.38,0,0,1,0-.76h6.33a.38.38,0,1,1,0,.76Z"/><path class="cls-7" d="M351.83,223.86H346a.38.38,0,0,1,0-.76h5.8a.38.38,0,0,1,0,.76Z"/><path class="cls-12" d="M363.22,239.56h-6.33a.38.38,0,0,1,0-.76h6.33a.38.38,0,0,1,0,.76Z"/><path class="cls-12" d="M351.83,239.56H346a.38.38,0,0,1,0-.76h5.8a.38.38,0,0,1,0,.76Z"/><path class="cls-12" d="M355.15,216.94H346a.39.39,0,0,1,0-.77h9.12a.39.39,0,0,1,0,.77Z"/><path class="cls-7" d="M374.5,216.94H359a.39.39,0,0,1,0-.77H374.5a.39.39,0,0,1,0,.77Z"/><path class="cls-12" d="M385.36,216.94h-5.8a.39.39,0,1,1,0-.77h5.8a.39.39,0,0,1,0,.77Z"/><path class="cls-7" d="M361.38,246.86H345.91a.39.39,0,0,1,0-.77h15.47a.39.39,0,1,1,0,.77Z"/><path class="cls-12" d="M351.74,253.69h-5.8a.38.38,0,0,1,0-.76h5.8a.38.38,0,0,1,0,.76Z"/><rect class="cls-11" x="62.42" y="325.37" width="84" height="59.86" rx="2.03" transform="translate(208.85 710.61) rotate(180)"/><path class="cls-16" d="M64.46,385.24h79.93a2,2,0,0,0,2-2V327.41a2,2,0,0,0-2-2H64.46a2,2,0,0,0-2,2V383.2A2,2,0,0,0,64.46,385.24Z"/><path class="cls-12" d="M67.13,320.84h84a0,0,0,0,1,0,0v7.66a2.42,2.42,0,0,1-2.42,2.42H70.26a3.13,3.13,0,0,1-3.13-3.13v-7a0,0,0,0,1,0,0Z" transform="translate(218.26 651.77) rotate(180)"/><path class="cls-7" d="M151.51,331.31H66.75V322.7A2.24,2.24,0,0,1,69,320.46h79.73a2.79,2.79,0,0,1,2.79,2.78Zm-84-.77h83.23v-7.3a2,2,0,0,0-2-2H69a1.48,1.48,0,0,0-1.48,1.48Z"/><path class="cls-6" d="M78.17,327.7a1.94,1.94,0,1,1,1.93-1.93A1.93,1.93,0,0,1,78.17,327.7Zm0-3.1a1.17,1.17,0,1,0,1.16,1.17A1.17,1.17,0,0,0,78.17,324.6Z"/><path class="cls-6" d="M84.22,327.7a1.94,1.94,0,1,1,1.93-1.93A1.94,1.94,0,0,1,84.22,327.7Zm0-3.1a1.17,1.17,0,1,0,1.16,1.17A1.17,1.17,0,0,0,84.22,324.6Z"/><path class="cls-6" d="M72.16,327.7a1.94,1.94,0,1,1,1.93-1.93A1.93,1.93,0,0,1,72.16,327.7Zm0-3.1a1.17,1.17,0,1,0,1.16,1.17A1.17,1.17,0,0,0,72.16,324.6Z"/><rect class="cls-6" x="67.1" y="330.93" width="84" height="49.36" rx="0.35" transform="translate(218.19 711.22) rotate(180)"/><path class="cls-7" d="M150.83,380.67H67.37a.66.66,0,0,1-.66-.65V331.2a.66.66,0,0,1,.66-.65h83.46a.65.65,0,0,1,.65.65V380A.65.65,0,0,1,150.83,380.67Zm-83.35-.77h83.23V331.31H67.48Z"/><path class="cls-7" d="M140.15,343.28H102.39a.39.39,0,1,1,0-.77h37.76a.39.39,0,0,1,0,.77Z"/><path class="cls-12" d="M115.65,349H102.39a.39.39,0,1,1,0-.77h13.26a.39.39,0,0,1,0,.77Z"/><path class="cls-7" d="M137.22,349H121.11a.39.39,0,1,1,0-.77h16.11a.39.39,0,0,1,0,.77Z"/><path class="cls-12" d="M126.59,366.39h-24.2a.38.38,0,1,1,0-.76h24.2a.38.38,0,1,1,0,.76Z"/><path class="cls-12" d="M140.48,355H102.39a.39.39,0,1,1,0-.77h38.09a.39.39,0,0,1,0,.77Z"/><path class="cls-7" d="M114.46,360.76H102.39a.4.4,0,0,1-.39-.39.39.39,0,0,1,.39-.38h12.07a.38.38,0,0,1,.38.38A.39.39,0,0,1,114.46,360.76Z"/><path class="cls-12" d="M140.15,360.76h-22a.39.39,0,0,1-.38-.39.38.38,0,0,1,.38-.38h22a.38.38,0,0,1,.38.38A.39.39,0,0,1,140.15,360.76Z"/><path class="cls-12" d="M76.49,353.6a9.48,9.48,0,0,1,7.82-9.33l-.37-2.17a11.67,11.67,0,0,0-9.55,13.45l2.24-.38A10.18,10.18,0,0,1,76.49,353.6Z"/><path class="cls-6" d="M97.55,354a12.6,12.6,0,0,0-.16-2.36h0A12.6,12.6,0,0,1,97.55,354Z"/><path class="cls-11" d="M86,363.08a9.47,9.47,0,0,1-9.34-7.91l-2.24.38a11.67,11.67,0,0,0,13.45,9.55L87.47,363A9.29,9.29,0,0,1,86,363.08Z"/><path class="cls-7" d="M97.39,351.65h0a11.67,11.67,0,0,0-13.45-9.55l.37,2.17a10,10,0,0,1,1.66-.15A9.47,9.47,0,0,1,87.47,363l.37,2.15a11.67,11.67,0,0,0,9.4-8.82,11.49,11.49,0,0,0,.31-2.27A12.6,12.6,0,0,0,97.39,351.65Z"/><circle class="cls-7" cx="148.04" cy="325.64" r="13.77"/><path class="cls-7" d="M148,339.79a14.15,14.15,0,1,1,14.15-14.15A14.17,14.17,0,0,1,148,339.79Zm0-27.54a13.39,13.39,0,1,0,13.38,13.39A13.41,13.41,0,0,0,148,312.25Z"/><circle class="cls-7" cx="149.28" cy="324.3" r="13.77"/><path class="cls-7" d="M149.28,338.45a14.15,14.15,0,1,1,14.15-14.15A14.16,14.16,0,0,1,149.28,338.45Zm0-27.53a13.38,13.38,0,1,0,13.38,13.38A13.4,13.4,0,0,0,149.28,310.92Z"/><path class="cls-6" d="M155.61,330.71a6.49,6.49,0,0,0-13,0S155.61,330.75,155.61,330.71Z"/><path class="cls-7" d="M149.83,331.12h-4.89c-2.68,0-2.68,0-2.68-.4a6.87,6.87,0,0,1,13.74,0C156,331.12,156,331.12,149.83,331.12Zm5.77-.41h0ZM143,330.34c1.89,0,10.32,0,12.19,0a6.11,6.11,0,0,0-12.19,0Z"/><path class="cls-6" d="M145.48,319.65a3.69,3.69,0,1,0,3.69-3.69A3.69,3.69,0,0,0,145.48,319.65Z"/><path class="cls-7" d="M149.17,323.71a4.07,4.07,0,1,1,4.07-4.06A4.07,4.07,0,0,1,149.17,323.71Zm0-7.37a3.31,3.31,0,1,0,3.3,3.31A3.31,3.31,0,0,0,149.17,316.34Z"/><rect class="cls-6" x="235.89" y="164.85" width="62.12" height="40.6"/><path class="cls-7" d="M298,205.83H235.89a.38.38,0,0,1-.38-.38v-40.6a.38.38,0,0,1,.38-.39H298a.38.38,0,0,1,.38.39v40.6A.38.38,0,0,1,298,205.83Zm-61.74-.77h61.35V165.23H236.28Z"/><rect class="cls-7" x="233.84" y="143.66" width="78.21" height="22.71" rx="4.94"/><path class="cls-7" d="M308.28,166.75H237.63a4.17,4.17,0,0,1-4.17-4.16V147.44a4.17,4.17,0,0,1,4.17-4.17h70.65a4.17,4.17,0,0,1,4.16,4.17v15.15A4.16,4.16,0,0,1,308.28,166.75ZM237.63,144a3.4,3.4,0,0,0-3.4,3.4v15.15a3.4,3.4,0,0,0,3.4,3.4h70.65a3.4,3.4,0,0,0,3.39-3.4V147.44a3.4,3.4,0,0,0-3.39-3.4Z"/><rect class="cls-7" x="233.84" y="168.47" width="78.21" height="22.71" rx="4.94"/><path class="cls-7" d="M308.28,191.57H237.63a4.17,4.17,0,0,1-4.17-4.17V172.25a4.17,4.17,0,0,1,4.17-4.16h70.65a4.16,4.16,0,0,1,4.16,4.16V187.4A4.17,4.17,0,0,1,308.28,191.57Zm-70.65-22.72a3.4,3.4,0,0,0-3.4,3.4V187.4a3.4,3.4,0,0,0,3.4,3.4h70.65a3.4,3.4,0,0,0,3.39-3.4V172.25a3.4,3.4,0,0,0-3.39-3.4Z"/><rect class="cls-7" x="233.84" y="193.83" width="78.21" height="22.71" rx="4.94"/><path class="cls-7" d="M308.28,216.93H237.63a4.17,4.17,0,0,1-4.17-4.17V197.61a4.17,4.17,0,0,1,4.17-4.16h70.65a4.16,4.16,0,0,1,4.16,4.16v15.15A4.17,4.17,0,0,1,308.28,216.93Zm-70.65-22.72a3.4,3.4,0,0,0-3.4,3.4v15.15a3.4,3.4,0,0,0,3.4,3.4h70.65a3.4,3.4,0,0,0,3.39-3.4V197.61a3.4,3.4,0,0,0-3.39-3.4Z"/><rect class="cls-6" x="246.38" y="143.66" width="69.24" height="22.71" rx="4.64"/><path class="cls-7" d="M312.06,166.75H249.93a3.94,3.94,0,0,1-3.94-3.94V147.22a4,4,0,0,1,3.94-3.95h62.13a4,4,0,0,1,3.94,3.95v15.59A3.94,3.94,0,0,1,312.06,166.75ZM249.93,144a3.17,3.17,0,0,0-3.17,3.18v15.59a3.18,3.18,0,0,0,3.17,3.18h62.13a3.18,3.18,0,0,0,3.17-3.18V147.22a3.17,3.17,0,0,0-3.17-3.18Z"/><path class="cls-6" d="M260.61,155a3.49,3.49,0,1,1-3.49-3.48A3.49,3.49,0,0,1,260.61,155Z"/><path class="cls-7" d="M257.12,158.89A3.88,3.88,0,1,1,261,155,3.88,3.88,0,0,1,257.12,158.89Zm0-7a3.11,3.11,0,1,0,3.1,3.1A3.11,3.11,0,0,0,257.12,151.91Z"/><rect class="cls-6" x="267.86" y="150.5" width="41.05" height="9.03" rx="0.61"/><path class="cls-7" d="M308.44,159.91H268.33a.85.85,0,0,1-.85-.85V151a.85.85,0,0,1,.85-.85h40.11a.85.85,0,0,1,.85.85v8.09A.85.85,0,0,1,308.44,159.91Zm-40.11-9a.09.09,0,0,0-.09.09v8.09a.09.09,0,0,0,.09.09h40.11a.09.09,0,0,0,.09-.09V151a.09.09,0,0,0-.09-.09Z"/><path class="cls-7" d="M285.37,153.87H271.83a.39.39,0,0,1,0-.77h13.54a.39.39,0,1,1,0,.77Z"/><path class="cls-12" d="M296.18,153.87h-8.11a.39.39,0,1,1,0-.77h8.11a.39.39,0,1,1,0,.77Z"/><path class="cls-12" d="M281.06,156.81H273a.38.38,0,1,1,0-.76h8.11a.38.38,0,1,1,0,.76Z"/><path class="cls-7" d="M304.23,153.87h-4.76a.39.39,0,1,1,0-.77h4.76a.39.39,0,1,1,0,.77Z"/><path class="cls-7" d="M292.47,157.06H287.7a.38.38,0,0,1,0-.76h4.77a.38.38,0,0,1,0,.76Z"/><rect class="cls-6" x="246.38" y="168.47" width="69.24" height="22.71" rx="4.64"/><path class="cls-7" d="M312.06,191.57H249.93a4,4,0,0,1-3.94-3.94V172a3.94,3.94,0,0,1,3.94-3.94h62.13A3.94,3.94,0,0,1,316,172v15.6A4,4,0,0,1,312.06,191.57Zm-62.13-22.72a3.18,3.18,0,0,0-3.17,3.18v15.6a3.17,3.17,0,0,0,3.17,3.17h62.13a3.17,3.17,0,0,0,3.17-3.17V172a3.18,3.18,0,0,0-3.17-3.18Z"/><path class="cls-6" d="M260.61,179.83a3.49,3.49,0,1,1-3.49-3.49A3.49,3.49,0,0,1,260.61,179.83Z"/><path class="cls-7" d="M257.12,183.7a3.88,3.88,0,1,1,3.87-3.87A3.87,3.87,0,0,1,257.12,183.7Zm0-7a3.11,3.11,0,1,0,3.1,3.11A3.11,3.11,0,0,0,257.12,176.72Z"/><rect class="cls-6" x="267.86" y="175.31" width="41.05" height="9.03" rx="0.61"/><path class="cls-7" d="M308.44,184.73H268.33a.86.86,0,0,1-.85-.86v-8.09a.85.85,0,0,1,.85-.85h40.11a.85.85,0,0,1,.85.85v8.09A.86.86,0,0,1,308.44,184.73Zm-40.11-9a.09.09,0,0,0-.09.09v8.09a.09.09,0,0,0,.09.09h40.11a.09.09,0,0,0,.09-.09v-8.09a.09.09,0,0,0-.09-.09Z"/><path class="cls-7" d="M285.37,178.68H271.83a.38.38,0,1,1,0-.76h13.54a.38.38,0,1,1,0,.76Z"/><path class="cls-12" d="M296.18,178.68h-8.11a.38.38,0,1,1,0-.76h8.11a.38.38,0,1,1,0,.76Z"/><path class="cls-12" d="M281.06,181.62H273a.38.38,0,1,1,0-.76h8.11a.38.38,0,1,1,0,.76Z"/><path class="cls-7" d="M304.23,178.68h-4.76a.38.38,0,1,1,0-.76h4.76a.38.38,0,1,1,0,.76Z"/><path class="cls-7" d="M292.47,181.87H287.7a.38.38,0,0,1,0-.76h4.77a.38.38,0,0,1,0,.76Z"/><rect class="cls-7" x="249.93" y="166.37" width="62.12" height="2.1"/><path class="cls-7" d="M312.06,168.85H249.93a.38.38,0,0,1-.38-.38v-2.1a.38.38,0,0,1,.38-.38h62.13a.38.38,0,0,1,.38.38v2.1A.38.38,0,0,1,312.06,168.85Zm-61.74-.76h61.35v-1.34H250.32Z"/><rect class="cls-6" x="246.38" y="193.83" width="69.24" height="22.71" rx="4.64"/><path class="cls-7" d="M312.06,216.93H249.93A4,4,0,0,1,246,213v-15.6a3.94,3.94,0,0,1,3.94-3.94h62.13a3.94,3.94,0,0,1,3.94,3.94V213A4,4,0,0,1,312.06,216.93Zm-62.13-22.72a3.18,3.18,0,0,0-3.17,3.18V213a3.17,3.17,0,0,0,3.17,3.17h62.13a3.17,3.17,0,0,0,3.17-3.17v-15.6a3.18,3.18,0,0,0-3.17-3.18Z"/><path class="cls-6" d="M260.61,205.19a3.49,3.49,0,1,1-3.49-3.49A3.49,3.49,0,0,1,260.61,205.19Z"/><path class="cls-7" d="M257.12,209.06a3.88,3.88,0,1,1,3.87-3.87A3.87,3.87,0,0,1,257.12,209.06Zm0-7a3.11,3.11,0,1,0,3.1,3.11A3.11,3.11,0,0,0,257.12,202.08Z"/><rect class="cls-6" x="267.86" y="200.67" width="41.05" height="9.03" rx="0.61"/><path class="cls-7" d="M308.44,210.08H268.33a.85.85,0,0,1-.85-.85v-8.09a.85.85,0,0,1,.85-.85h40.11a.85.85,0,0,1,.85.85v8.09A.85.85,0,0,1,308.44,210.08Zm-40.11-9a.09.09,0,0,0-.09.09v8.09a.09.09,0,0,0,.09.09h40.11a.09.09,0,0,0,.09-.09v-8.09a.09.09,0,0,0-.09-.09Z"/><path class="cls-7" d="M285.37,204H271.83a.38.38,0,0,1,0-.76h13.54a.38.38,0,1,1,0,.76Z"/><path class="cls-12" d="M296.18,204h-8.11a.38.38,0,1,1,0-.76h8.11a.38.38,0,1,1,0,.76Z"/><path class="cls-12" d="M281.06,207H273a.38.38,0,1,1,0-.76h8.11a.38.38,0,1,1,0,.76Z"/><path class="cls-7" d="M304.23,204h-4.76a.38.38,0,1,1,0-.76h4.76a.38.38,0,1,1,0,.76Z"/><path class="cls-7" d="M292.47,207.23H287.7a.38.38,0,0,1,0-.76h4.77a.38.38,0,0,1,0,.76Z"/><rect class="cls-7" x="249.93" y="191.73" width="62.12" height="2.1"/><path class="cls-7" d="M312.06,194.21H249.93a.38.38,0,0,1-.38-.38v-2.1a.38.38,0,0,1,.38-.38h62.13a.38.38,0,0,1,.38.38v2.1A.38.38,0,0,1,312.06,194.21Zm-61.74-.76h61.35v-1.34H250.32Z"/><g class="cls-17"><polygon class="cls-3" points="86.27 199 72.44 199 72.44 187.29 73.2 187.29 73.2 198.23 85.5 198.23 85.5 187.42 86.27 187.42 86.27 199"/><rect class="cls-3" x="80.15" y="187.04" width="16" height="0.77"/><rect class="cls-3" x="80.15" y="179.44" width="16" height="0.77"/><path class="cls-3" d="M72.85,187.8A1.82,1.82,0,1,1,74.67,186,1.81,1.81,0,0,1,72.85,187.8Zm0-2.86A1.05,1.05,0,1,0,73.9,186,1,1,0,0,0,72.85,184.94Z"/><path class="cls-3" d="M78.78,189.25a1.82,1.82,0,1,1,1.82-1.82A1.82,1.82,0,0,1,78.78,189.25Zm0-2.87a1.05,1.05,0,1,0,1,1.05A1.06,1.06,0,0,0,78.78,186.38Z"/><path class="cls-3" d="M78.78,181.63a1.82,1.82,0,1,1,1.82-1.82A1.82,1.82,0,0,1,78.78,181.63Zm0-2.87a1.05,1.05,0,1,0,1,1.05A1.06,1.06,0,0,0,78.78,178.76Z"/></g><path class="cls-11" d="M212,183.51c0-.25,0-.49,0-.73-.23-12.87-11.36-23.39-24.11-23.39a23.81,23.81,0,0,0-6.42.87,32.75,32.75,0,0,0-63,11.53H113A18.09,18.09,0,0,0,94.9,189.88v.25A18.08,18.08,0,0,0,113,208.21h77.37C204.05,208.21,212.93,195.24,212,183.51Z"/><g class="cls-18"><path class="cls-9" d="M212,183.51c0-.25,0-.49,0-.73-.23-12.87-11.36-23.39-24.11-23.39a23.81,23.81,0,0,0-6.42.87,32.75,32.75,0,0,0-63,11.53H113A18.09,18.09,0,0,0,94.9,189.88v.25A18.08,18.08,0,0,0,113,208.21h77.37C204.05,208.21,212.93,195.24,212,183.51Z"/></g><path class="cls-7" d="M212.22,179.06c0-.24,0-.48,0-.72-.23-12.87-11.37-23.4-24.11-23.4a24.21,24.21,0,0,0-6.42.87,32.75,32.75,0,0,0-63,11.54h-5.49a18.09,18.09,0,0,0-18.09,18.09v.24a18.09,18.09,0,0,0,18.09,18.09h77.37C204.22,203.77,213.11,190.8,212.22,179.06Z"/><path class="cls-7" d="M190.54,204.15H113.17A18.48,18.48,0,0,1,94.7,185.68v-.24A18.48,18.48,0,0,1,113.17,167h5.12a33.13,33.13,0,0,1,63.62-11.61,24.53,24.53,0,0,1,6.2-.8c13,0,24.26,10.88,24.49,23.77v.3a2.67,2.67,0,0,0,0,.4,24.54,24.54,0,0,1-6.49,18.21A21.06,21.06,0,0,1,190.54,204.15Zm-77.37-36.42a17.74,17.74,0,0,0-17.71,17.71v.24a17.73,17.73,0,0,0,17.71,17.71h77.37a20.31,20.31,0,0,0,15-6.67,23.76,23.76,0,0,0,6.28-17.63c0-.16,0-.32,0-.48v-.27c-.22-12.47-11.08-23-23.72-23a23.71,23.71,0,0,0-6.32.85.38.38,0,0,1-.46-.22A32.37,32.37,0,0,0,119,167.36a.37.37,0,0,1-.38.37Z"/><path class="cls-6" d="M143.06,203.37a.38.38,0,0,1-.38-.38V181a.39.39,0,0,1,.77,0v22A.38.38,0,0,1,143.06,203.37Z"/><path class="cls-6" d="M142.94,191.11h-9.28a.39.39,0,0,1-.38-.39v-8a.39.39,0,0,1,.77,0v7.66h8.89a.38.38,0,0,1,.38.38A.39.39,0,0,1,142.94,191.11Z"/><path class="cls-6" d="M133.69,183a1.56,1.56,0,1,1,1.56-1.56A1.56,1.56,0,0,1,133.69,183Zm0-2.35a.79.79,0,1,0,.79.79A.79.79,0,0,0,133.69,180.62Z"/><path class="cls-6" d="M153.51,203.44a.38.38,0,0,1-.38-.38V170.38a.39.39,0,0,1,.77,0v32.68A.38.38,0,0,1,153.51,203.44Z"/><path class="cls-6" d="M143.05,181.14a2.36,2.36,0,1,1,2.35-2.35A2.36,2.36,0,0,1,143.05,181.14Zm0-3.94a1.59,1.59,0,1,0,1.59,1.59A1.59,1.59,0,0,0,143.05,177.2Z"/><path class="cls-6" d="M164.29,203.37a.38.38,0,0,1-.38-.38V181a.39.39,0,0,1,.77,0v22A.38.38,0,0,1,164.29,203.37Z"/><path class="cls-6" d="M173.69,191.11h-9.27a.39.39,0,0,1-.38-.39.38.38,0,0,1,.38-.38h8.89v-7.66a.39.39,0,0,1,.77,0v8A.39.39,0,0,1,173.69,191.11Z"/><path class="cls-6" d="M173.67,183a1.56,1.56,0,1,1,1.56-1.56A1.56,1.56,0,0,1,173.67,183Zm0-2.35a.79.79,0,1,0,.79.79A.79.79,0,0,0,173.67,180.62Z"/><path class="cls-6" d="M164.31,181.14a2.36,2.36,0,1,1,2.35-2.35A2.36,2.36,0,0,1,164.31,181.14Zm0-3.94a1.59,1.59,0,1,0,1.59,1.59A1.59,1.59,0,0,0,164.31,177.2Z"/><path class="cls-6" d="M153.53,170.5a2.72,2.72,0,1,1,2.72-2.72A2.72,2.72,0,0,1,153.53,170.5Zm0-4.68a2,2,0,1,0,2,2A2,2,0,0,0,153.53,165.82Z"/><path class="cls-8" d="M297,292.48H432.53a4.93,4.93,0,0,1,4.93,4.93v93.88a1.72,1.72,0,0,1-1.72,1.72h-142a1.72,1.72,0,0,1-1.72-1.72V297.41A4.93,4.93,0,0,1,297,292.48Z"/><path class="cls-19" d="M436.13,393.39H293.36a1.71,1.71,0,0,1-1.71-1.7V296.26a4.16,4.16,0,0,1,4.16-4.16H433.68a4.16,4.16,0,0,1,4.16,4.16v95.43A1.71,1.71,0,0,1,436.13,393.39ZM295.81,292.86a3.4,3.4,0,0,0-3.39,3.4v95.43a.94.94,0,0,0,.94.94H436.13a.94.94,0,0,0,.94-.94V296.26a3.4,3.4,0,0,0-3.39-3.4Z"/><rect class="cls-6" x="302.67" y="302.12" width="124.15" height="81.24"/><path class="cls-7" d="M426.82,383.75H302.67a.38.38,0,0,1-.38-.38V302.12a.38.38,0,0,1,.38-.38H426.82a.38.38,0,0,1,.38.38v81.25A.38.38,0,0,1,426.82,383.75ZM303.05,383H426.44V302.51H303.05Z"/><path class="cls-6" d="M364.75,298.91a1.5,1.5,0,1,1,1.49-1.5A1.5,1.5,0,0,1,364.75,298.91Zm0-2.23a.73.73,0,1,0,.73.73A.73.73,0,0,0,364.75,296.68Z"/><path class="cls-11" d="M268.24,392.25h193a0,0,0,0,1,0,0v6.39a6.62,6.62,0,0,1-6.62,6.62H274.86a6.62,6.62,0,0,1-6.62-6.62v-6.39A0,0,0,0,1,268.24,392.25Z"/><path class="cls-7" d="M456.18,405.65H273.31a5.46,5.46,0,0,1-5.45-5.46v-7.94a.38.38,0,0,1,.38-.38h193a.38.38,0,0,1,.38.38v7.94A5.46,5.46,0,0,1,456.18,405.65Zm-187.56-13v7.56a4.7,4.7,0,0,0,4.69,4.69H456.18a4.69,4.69,0,0,0,4.69-4.69v-7.56Z"/><path class="cls-7" d="M459.41,402.6H270.08a.39.39,0,0,1,0-.77H459.41a.39.39,0,0,1,0,.77Z"/><rect class="cls-6" x="346.33" y="393.06" width="36.84" height="4.07"/><path class="cls-7" d="M383.17,397.51H346.33a.38.38,0,0,1-.39-.38v-4.07a.38.38,0,0,1,.39-.38h36.84a.38.38,0,0,1,.38.38v4.07A.38.38,0,0,1,383.17,397.51Zm-36.46-.76h36.07v-3.3H346.71Z"/><rect class="cls-11" x="321.94" y="315.95" width="77.81" height="56.78" rx="1.9" transform="translate(721.69 688.69) rotate(180)"/><path class="cls-12" d="M326.3,311.65h77.8a0,0,0,0,1,0,0v7.3a2.27,2.27,0,0,1-2.27,2.27H329.24a2.93,2.93,0,0,1-2.93-2.93v-6.63A0,0,0,0,1,326.3,311.65Z" transform="translate(730.4 632.87) rotate(180)"/><path class="cls-7" d="M404.48,321.6H325.92v-8.21a2.12,2.12,0,0,1,2.12-2.12h73.81a2.63,2.63,0,0,1,2.63,2.63Zm-77.8-.76h77V313.9a1.87,1.87,0,0,0-1.87-1.86H328a1.36,1.36,0,0,0-1.36,1.35Z"/><path class="cls-6" d="M336.87,318.18a1.86,1.86,0,1,1,1.86-1.85A1.85,1.85,0,0,1,336.87,318.18Zm0-2.94a1.09,1.09,0,1,0,1.09,1.09A1.08,1.08,0,0,0,336.87,315.24Z"/><path class="cls-6" d="M342.61,318.18a1.86,1.86,0,1,1,1.85-1.85A1.85,1.85,0,0,1,342.61,318.18Zm0-2.94a1.09,1.09,0,1,0,1.09,1.09A1.09,1.09,0,0,0,342.61,315.24Z"/><path class="cls-6" d="M331.17,318.18a1.86,1.86,0,1,1,1.86-1.85A1.85,1.85,0,0,1,331.17,318.18Zm0-2.94a1.09,1.09,0,1,0,1.09,1.09A1.08,1.08,0,0,0,331.17,315.24Z"/><rect class="cls-6" x="326.27" y="321.22" width="77.81" height="46.82" rx="0.33" transform="translate(730.35 689.26) rotate(180)"/><path class="cls-7" d="M403.82,368.42h-77.3a.63.63,0,0,1-.63-.63V321.48a.64.64,0,0,1,.63-.64h77.3a.64.64,0,0,1,.64.64v46.31A.63.63,0,0,1,403.82,368.42Zm-77.17-.76H403.7V321.61H326.65Z"/><path class="cls-6" d="M379.74,330.68H396.6a.16.16,0,0,1,.16.16v26.22a.16.16,0,0,1-.16.16H379.74a.17.17,0,0,1-.17-.17V330.84A.17.17,0,0,1,379.74,330.68Z"/><path class="cls-11" d="M396.64,357.61H379.7a.51.51,0,0,1-.51-.51V330.8a.51.51,0,0,1,.51-.51h16.94a.51.51,0,0,1,.51.51v26.3A.51.51,0,0,1,396.64,357.61ZM380,356.84h16.43V331.06H380Z"/><line class="cls-6" x1="380" y1="331.18" x2="396.6" y2="356.89"/><path class="cls-11" d="M396.6,357.27a.37.37,0,0,1-.32-.17l-16.61-25.71a.39.39,0,0,1,.12-.53.4.4,0,0,1,.53.11l16.6,25.71a.37.37,0,0,1-.11.53A.42.42,0,0,1,396.6,357.27Z"/><line class="cls-6" x1="396.26" y1="331.1" x2="379.7" y2="357.23"/><path class="cls-11" d="M379.7,357.61a.42.42,0,0,1-.21-.06.38.38,0,0,1-.11-.53l16.56-26.13a.38.38,0,1,1,.65.41L380,357.43A.36.36,0,0,1,379.7,357.61Z"/><path class="cls-7" d="M372.4,333H336.58a.39.39,0,0,1,0-.77H372.4a.39.39,0,0,1,0,.77Z"/><path class="cls-12" d="M349.16,338.39H336.58a.39.39,0,0,1,0-.77h12.58a.39.39,0,1,1,0,.77Z"/><path class="cls-7" d="M369.62,338.39H354.34a.39.39,0,1,1,0-.77h15.28a.39.39,0,0,1,0,.77Z"/><path class="cls-12" d="M359.54,354.88h-23a.39.39,0,0,1,0-.77h23a.39.39,0,0,1,0,.77Z"/><path class="cls-12" d="M372.71,344.1H336.58a.38.38,0,0,1-.38-.38.39.39,0,0,1,.38-.39h36.13a.39.39,0,0,1,.38.39A.38.38,0,0,1,372.71,344.1Z"/><path class="cls-7" d="M348,349.53H336.58a.38.38,0,0,1,0-.76H348a.38.38,0,1,1,0,.76Z"/><path class="cls-12" d="M372.4,349.53H351.55a.38.38,0,0,1,0-.76H372.4a.38.38,0,0,1,0,.76Z"/><path class="cls-6" d="M355.25,343.11a10.55,10.55,0,0,0-.15-2.23h0A10.55,10.55,0,0,1,355.25,343.11Z"/><path class="cls-11" d="M455.78,294.93c-14.46-.54-19-9-19.71-10.38H436c-.65,1.37-5.24,9.84-19.7,10.38,0,0-3.07,29.78,19.31,35.13h.89C458.85,324.71,455.78,294.93,455.78,294.93Z"/><path class="cls-11" d="M436.51,330.44h-1c-22.44-5.36-19.63-35.24-19.6-35.54l0-.33h.34c14.09-.53,18.61-8.56,19.37-10.17l.1-.22h.59l.1.22c.76,1.61,5.27,9.64,19.37,10.17h.34l0,.33c0,.3,2.84,30.18-19.61,35.54Zm-.88-.76h.79c20.5-4.94,19.24-31.13,19-34.38-13-.61-18-7.55-19.4-10-1.37,2.46-6.36,9.4-19.4,10C416.39,298.55,415.14,324.74,435.63,329.68Z"/><path class="cls-20" d="M455.78,294.93c-14.46-.54-19-9-19.71-10.38H436c-.65,1.37-5.24,9.84-19.7,10.38,0,0-3.07,29.78,19.31,35.13h.89C458.85,324.71,455.78,294.93,455.78,294.93Z"/><path class="cls-7" d="M454.25,292.11c-14.49-.55-19.09-9-19.74-10.4h-.1c-.66,1.38-5.25,9.85-19.74,10.4,0,0-3.07,29.83,19.35,35.19h.88C457.32,321.94,454.25,292.11,454.25,292.11Z"/><path class="cls-7" d="M434.9,327.68h-1c-22.49-5.37-19.67-35.3-19.64-35.6a.38.38,0,0,1,.37-.34c14.12-.54,18.64-8.58,19.4-10.19a.4.4,0,0,1,.35-.22h.1a.38.38,0,0,1,.34.22c.77,1.61,5.28,9.65,19.41,10.19a.38.38,0,0,1,.37.34c0,.3,2.84,30.23-19.64,35.6Zm-.84-.76h.8c20.52-4.95,19.27-31.19,19-34.44-13.06-.61-18.06-7.56-19.43-10-1.37,2.48-6.38,9.43-19.44,10C414.79,295.73,413.54,322,434.06,326.92Z"/><path class="cls-7" d="M420.88,311.46c2.18,5.12,6.12,9.84,13.22,11.53h.72c18.18-4.34,15.69-28.54,15.69-28.54-11.75-.44-15.48-7.32-16-8.44h-.08a14,14,0,0,1-5.85,5.83"/><path class="cls-6" d="M434.82,323.38H434c-6.27-1.5-10.8-5.46-13.48-11.76a.39.39,0,0,1,.2-.51.38.38,0,0,1,.5.21c2.57,6.05,6.92,9.86,12.92,11.3h.62c16.46-4,15.59-24.9,15.39-27.79-10.4-.51-14.5-6-15.7-8.06a14.87,14.87,0,0,1-5.7,5.41.38.38,0,1,1-.38-.66,13.7,13.7,0,0,0,5.69-5.66.38.38,0,0,1,.35-.22h.08a.38.38,0,0,1,.35.22c.61,1.29,4.25,7.79,15.67,8.22a.37.37,0,0,1,.37.34c0,.25,2.32,24.58-16,29Z"/><path class="cls-7" d="M422.27,294a27.54,27.54,0,0,1-3.86.41,40.13,40.13,0,0,0,.24,8.5"/><path class="cls-6" d="M418.65,303.33a.39.39,0,0,1-.38-.33,41.11,41.11,0,0,1-.24-8.59.37.37,0,0,1,.36-.34,26.94,26.94,0,0,0,3.81-.41.39.39,0,0,1,.45.31.39.39,0,0,1-.31.45,28.81,28.81,0,0,1-3.58.4,41.9,41.9,0,0,0,.27,8.08.38.38,0,0,1-.33.43Z"/><circle class="cls-7" cx="434.46" cy="306.55" r="9.24"/><path class="cls-6" d="M434.46,316.07a9.53,9.53,0,1,1,9.52-9.52A9.53,9.53,0,0,1,434.46,316.07Zm0-18.47a8.95,8.95,0,1,0,9,8.95A9,9,0,0,0,434.46,297.6Z"/><circle class="cls-6" cx="434.46" cy="306.55" r="6.73"/><path class="cls-7" d="M434.46,313.65a7.11,7.11,0,1,1,7.11-7.1A7.11,7.11,0,0,1,434.46,313.65Zm0-13.45a6.35,6.35,0,1,0,6.34,6.35A6.35,6.35,0,0,0,434.46,300.2Z"/><path class="cls-7" d="M434.59,309.42a1.11,1.11,0,0,1-.77-.32L431,306.25a1.08,1.08,0,0,1,1.53-1.53l2.08,2.08,6.13-6.13a1.09,1.09,0,0,1,1.53,0,1.1,1.1,0,0,1,0,1.54l-6.89,6.89A1.09,1.09,0,0,1,434.59,309.42Z"/></g></svg>