<svg xmlns="http://www.w3.org/2000/svg" xmlns:xlink="http://www.w3.org/1999/xlink" viewBox="0 0 592 500"><defs><style>.cls-1,.cls-4,.cls-5{fill:none;}.cls-2{fill:#292947;}.cls-3{fill:#fff;}.cls-12,.cls-4,.cls-5{stroke:#779ce8;stroke-width:0.75px;}.cls-4,.cls-5{stroke-miterlimit:10;}.cls-17,.cls-5{opacity:0.46;}.cls-6{opacity:0.44;}.cls-7{fill:#779ce8;}.cls-8{fill:#407bff;}.cls-16,.cls-20,.cls-9{fill:url(#Unnamed_Pattern);}.cls-10{fill:#d7e4f9;}.cls-11{fill:#cacae6;}.cls-12{fill:#f97d8c;stroke-linejoin:round;}.cls-13{opacity:0.64;}.cls-14{fill:url(#Unnamed_Pattern-3);}.cls-15{fill:#263238;}.cls-16,.cls-18{opacity:0.28;}.cls-19{fill:#f2f0f5;}.cls-20{opacity:0.65;}</style><pattern id="Unnamed_Pattern" data-name="Unnamed Pattern" width="27.84" height="27.84" patternTransform="translate(-22.99 22.95) scale(0.23)" patternUnits="userSpaceOnUse" viewBox="0 0 27.84 27.84"><rect class="cls-1" width="27.84" height="27.84"/><path class="cls-2" d="M29.17,27.84a1.33,1.33,0,1,1-1.32-1.33A1.33,1.33,0,0,1,29.17,27.84Z"/><path class="cls-2" d="M1.33,27.84A1.33,1.33,0,0,1,0,29.17a1.33,1.33,0,0,1,0-2.66A1.33,1.33,0,0,1,1.33,27.84Z"/><path class="cls-2" d="M8.29,27.84A1.33,1.33,0,1,1,7,26.51,1.33,1.33,0,0,1,8.29,27.84Z"/><path class="cls-2" d="M8.29,27.84A1.33,1.33,0,1,1,7,26.51,1.33,1.33,0,0,1,8.29,27.84Z"/><path class="cls-2" d="M15.25,27.84a1.33,1.33,0,1,1-1.33-1.33A1.34,1.34,0,0,1,15.25,27.84Z"/><path class="cls-2" d="M15.25,27.84a1.33,1.33,0,1,1-1.33-1.33A1.34,1.34,0,0,1,15.25,27.84Z"/><path class="cls-2" d="M22.2,27.84a1.33,1.33,0,1,1-1.32-1.33A1.33,1.33,0,0,1,22.2,27.84Z"/><path class="cls-2" d="M22.2,27.84a1.33,1.33,0,1,1-1.32-1.33A1.33,1.33,0,0,1,22.2,27.84Z"/><path class="cls-2" d="M29.16,27.84a1.33,1.33,0,1,1-1.33-1.33A1.34,1.34,0,0,1,29.16,27.84Z"/><path class="cls-2" d="M1.32,27.84A1.33,1.33,0,0,1,0,29.17a1.33,1.33,0,0,1-1.32-1.33A1.33,1.33,0,0,1,0,26.51,1.33,1.33,0,0,1,1.32,27.84Z"/><path class="cls-2" d="M29.17,0a1.33,1.33,0,0,1-1.32,1.33A1.33,1.33,0,0,1,26.52,0a1.33,1.33,0,0,1,1.33-1.33A1.33,1.33,0,0,1,29.17,0Z"/><circle class="cls-2" cx="27.85" cy="8.83" r="1.33"/><circle class="cls-2" cx="27.85" cy="19.23" r="1.33"/><path class="cls-2" d="M1.33,0A1.33,1.33,0,0,1,0,1.33,1.33,1.33,0,0,1-1.32,0,1.33,1.33,0,0,1,0-1.33,1.33,1.33,0,0,1,1.33,0Z"/><path class="cls-2" d="M8.29,0A1.33,1.33,0,0,1,7,1.33,1.33,1.33,0,0,1,5.64,0,1.33,1.33,0,0,1,7-1.33,1.33,1.33,0,0,1,8.29,0Z"/><path class="cls-2" d="M8.29,0A1.33,1.33,0,0,1,7,1.33,1.33,1.33,0,0,1,5.64,0,1.33,1.33,0,0,1,7-1.33,1.33,1.33,0,0,1,8.29,0Z"/><path class="cls-2" d="M15.25,0a1.34,1.34,0,0,1-1.33,1.33A1.34,1.34,0,0,1,12.59,0a1.33,1.33,0,0,1,2.66,0Z"/><path class="cls-2" d="M15.25,0a1.34,1.34,0,0,1-1.33,1.33A1.34,1.34,0,0,1,12.59,0a1.33,1.33,0,0,1,2.66,0Z"/><path class="cls-2" d="M22.2,0a1.33,1.33,0,0,1-1.32,1.33A1.33,1.33,0,0,1,19.55,0a1.33,1.33,0,0,1,1.33-1.33A1.33,1.33,0,0,1,22.2,0Z"/><path class="cls-2" d="M22.2,0a1.33,1.33,0,0,1-1.32,1.33A1.33,1.33,0,0,1,19.55,0a1.33,1.33,0,0,1,1.33-1.33A1.33,1.33,0,0,1,22.2,0Z"/><path class="cls-2" d="M29.16,0a1.34,1.34,0,0,1-1.33,1.33A1.34,1.34,0,0,1,26.5,0a1.33,1.33,0,0,1,2.66,0Z"/><circle class="cls-2" cx="0.01" cy="8.83" r="1.33"/><circle class="cls-2" cx="6.96" cy="8.83" r="1.33"/><circle class="cls-2" cx="6.96" cy="8.83" r="1.33"/><circle class="cls-2" cx="13.92" cy="8.83" r="1.33"/><circle class="cls-2" cx="13.92" cy="8.83" r="1.33"/><circle class="cls-2" cx="20.88" cy="8.83" r="1.33"/><circle class="cls-2" cx="20.88" cy="8.83" r="1.33"/><path class="cls-2" d="M29.16,8.83A1.33,1.33,0,1,1,27.83,7.5,1.33,1.33,0,0,1,29.16,8.83Z"/><circle class="cls-2" cx="0.01" cy="19.23" r="1.33"/><circle class="cls-2" cx="6.96" cy="19.23" r="1.33"/><circle class="cls-2" cx="6.96" cy="19.23" r="1.33"/><circle class="cls-2" cx="13.92" cy="19.23" r="1.33"/><circle class="cls-2" cx="13.92" cy="19.23" r="1.33"/><circle class="cls-2" cx="20.88" cy="19.23" r="1.33"/><circle class="cls-2" cx="20.88" cy="19.23" r="1.33"/><path class="cls-2" d="M29.16,19.23a1.33,1.33,0,1,1-1.33-1.33A1.33,1.33,0,0,1,29.16,19.23Z"/><path class="cls-2" d="M1.32,0A1.33,1.33,0,0,1,0,1.33,1.33,1.33,0,0,1-1.33,0,1.33,1.33,0,0,1,0-1.33,1.33,1.33,0,0,1,1.32,0Z"/><path class="cls-2" d="M1.32,8.83A1.32,1.32,0,0,1,0,10.15,1.32,1.32,0,0,1-1.33,8.83,1.32,1.32,0,0,1,0,7.5,1.32,1.32,0,0,1,1.32,8.83Z"/><path class="cls-2" d="M1.32,19.23A1.32,1.32,0,0,1,0,20.55a1.32,1.32,0,0,1-1.32-1.32A1.33,1.33,0,0,1,0,17.9,1.33,1.33,0,0,1,1.32,19.23Z"/></pattern><pattern id="Unnamed_Pattern-3" data-name="Unnamed Pattern" width="27.84" height="27.84" patternTransform="translate(-35.36 4.28) scale(0.05)" patternUnits="userSpaceOnUse" viewBox="0 0 27.84 27.84"><rect class="cls-1" width="27.84" height="27.84"/><path class="cls-2" d="M29.17,27.84a1.33,1.33,0,1,1-1.32-1.33A1.33,1.33,0,0,1,29.17,27.84Z"/><path class="cls-2" d="M1.33,27.84A1.33,1.33,0,0,1,0,29.17a1.33,1.33,0,0,1,0-2.66A1.33,1.33,0,0,1,1.33,27.84Z"/><path class="cls-2" d="M8.29,27.84A1.33,1.33,0,1,1,7,26.51,1.33,1.33,0,0,1,8.29,27.84Z"/><path class="cls-2" d="M8.29,27.84A1.33,1.33,0,1,1,7,26.51,1.33,1.33,0,0,1,8.29,27.84Z"/><path class="cls-2" d="M15.25,27.84a1.33,1.33,0,1,1-1.33-1.33A1.34,1.34,0,0,1,15.25,27.84Z"/><path class="cls-2" d="M15.25,27.84a1.33,1.33,0,1,1-1.33-1.33A1.34,1.34,0,0,1,15.25,27.84Z"/><path class="cls-2" d="M22.2,27.84a1.33,1.33,0,1,1-1.32-1.33A1.33,1.33,0,0,1,22.2,27.84Z"/><path class="cls-2" d="M22.2,27.84a1.33,1.33,0,1,1-1.32-1.33A1.33,1.33,0,0,1,22.2,27.84Z"/><path class="cls-2" d="M29.16,27.84a1.33,1.33,0,1,1-1.33-1.33A1.34,1.34,0,0,1,29.16,27.84Z"/><path class="cls-2" d="M1.32,27.84A1.33,1.33,0,0,1,0,29.17a1.33,1.33,0,0,1-1.32-1.33A1.33,1.33,0,0,1,0,26.51,1.33,1.33,0,0,1,1.32,27.84Z"/><path class="cls-2" d="M29.17,0a1.33,1.33,0,0,1-1.32,1.33A1.33,1.33,0,0,1,26.52,0a1.33,1.33,0,0,1,1.33-1.33A1.33,1.33,0,0,1,29.17,0Z"/><circle class="cls-2" cx="27.85" cy="8.83" r="1.33"/><circle class="cls-2" cx="27.85" cy="19.23" r="1.33"/><path class="cls-2" d="M1.33,0A1.33,1.33,0,0,1,0,1.33,1.33,1.33,0,0,1-1.32,0,1.33,1.33,0,0,1,0-1.33,1.33,1.33,0,0,1,1.33,0Z"/><path class="cls-2" d="M8.29,0A1.33,1.33,0,0,1,7,1.33,1.33,1.33,0,0,1,5.64,0,1.33,1.33,0,0,1,7-1.33,1.33,1.33,0,0,1,8.29,0Z"/><path class="cls-2" d="M8.29,0A1.33,1.33,0,0,1,7,1.33,1.33,1.33,0,0,1,5.64,0,1.33,1.33,0,0,1,7-1.33,1.33,1.33,0,0,1,8.29,0Z"/><path class="cls-2" d="M15.25,0a1.34,1.34,0,0,1-1.33,1.33A1.34,1.34,0,0,1,12.59,0a1.33,1.33,0,0,1,2.66,0Z"/><path class="cls-2" d="M15.25,0a1.34,1.34,0,0,1-1.33,1.33A1.34,1.34,0,0,1,12.59,0a1.33,1.33,0,0,1,2.66,0Z"/><path class="cls-2" d="M22.2,0a1.33,1.33,0,0,1-1.32,1.33A1.33,1.33,0,0,1,19.55,0a1.33,1.33,0,0,1,1.33-1.33A1.33,1.33,0,0,1,22.2,0Z"/><path class="cls-2" d="M22.2,0a1.33,1.33,0,0,1-1.32,1.33A1.33,1.33,0,0,1,19.55,0a1.33,1.33,0,0,1,1.33-1.33A1.33,1.33,0,0,1,22.2,0Z"/><path class="cls-2" d="M29.16,0a1.34,1.34,0,0,1-1.33,1.33A1.34,1.34,0,0,1,26.5,0a1.33,1.33,0,0,1,2.66,0Z"/><circle class="cls-2" cx="0.01" cy="8.83" r="1.33"/><circle class="cls-2" cx="6.96" cy="8.83" r="1.33"/><circle class="cls-2" cx="6.96" cy="8.83" r="1.33"/><circle class="cls-2" cx="13.92" cy="8.83" r="1.33"/><circle class="cls-2" cx="13.92" cy="8.83" r="1.33"/><circle class="cls-2" cx="20.88" cy="8.83" r="1.33"/><circle class="cls-2" cx="20.88" cy="8.83" r="1.33"/><path class="cls-2" d="M29.16,8.83A1.33,1.33,0,1,1,27.83,7.5,1.33,1.33,0,0,1,29.16,8.83Z"/><circle class="cls-2" cx="0.01" cy="19.23" r="1.33"/><circle class="cls-2" cx="6.96" cy="19.23" r="1.33"/><circle class="cls-2" cx="6.96" cy="19.23" r="1.33"/><circle class="cls-2" cx="13.92" cy="19.23" r="1.33"/><circle class="cls-2" cx="13.92" cy="19.23" r="1.33"/><circle class="cls-2" cx="20.88" cy="19.23" r="1.33"/><circle class="cls-2" cx="20.88" cy="19.23" r="1.33"/><path class="cls-2" d="M29.16,19.23a1.33,1.33,0,1,1-1.33-1.33A1.33,1.33,0,0,1,29.16,19.23Z"/><path class="cls-2" d="M1.32,0A1.33,1.33,0,0,1,0,1.33,1.33,1.33,0,0,1-1.33,0,1.33,1.33,0,0,1,0-1.33,1.33,1.33,0,0,1,1.32,0Z"/><path class="cls-2" d="M1.32,8.83A1.32,1.32,0,0,1,0,10.15,1.32,1.32,0,0,1-1.33,8.83,1.32,1.32,0,0,1,0,7.5,1.32,1.32,0,0,1,1.32,8.83Z"/><path class="cls-2" d="M1.32,19.23A1.32,1.32,0,0,1,0,20.55a1.32,1.32,0,0,1-1.32-1.32A1.33,1.33,0,0,1,0,17.9,1.33,1.33,0,0,1,1.32,19.23Z"/></pattern></defs><g id="Layer_4" data-name="Layer 4"><rect class="cls-3" x="-6.75" y="-1.91" width="602.96" height="500"/><path class="cls-4" d="M251.57,190.17h-3.92a.49.49,0,0,1,0-1h3.92a.49.49,0,1,1,0,1Zm-7.84,0h-3.92a.49.49,0,0,1,0-1h3.92a.49.49,0,1,1,0,1Zm-7.84,0H232a.49.49,0,0,1,0-1h3.92a.49.49,0,1,1,0,1Zm-7.84,0h-3.92a.49.49,0,0,1,0-1h3.92a.49.49,0,0,1,0,1Zm-7.84,0h-3.92a.49.49,0,1,1,0-1h3.92a.49.49,0,0,1,0,1Zm-7.84,0h-3.92a.49.49,0,1,1,0-1h3.92a.49.49,0,1,1,0,1Zm-7.84,0h-3.92a.49.49,0,0,1,0-1h3.92a.49.49,0,0,1,0,1Zm-7.84,0h-3.92a.49.49,0,0,1,0-1h3.92a.49.49,0,1,1,0,1Zm-7.74-.48a.46.46,0,0,1-.29-.1,2.86,2.86,0,0,1-1.15-2.3v-1.71a.49.49,0,0,1,1,0v1.71a1.89,1.89,0,0,0,.76,1.52.48.48,0,0,1,.09.68A.47.47,0,0,1,189,189.69Zm66-.89a.38.38,0,0,1-.21-.05.49.49,0,0,1-.24-.65,1.89,1.89,0,0,0,.19-.81v-2.86a.49.49,0,1,1,1,0v2.86a2.88,2.88,0,0,1-.28,1.23A.48.48,0,0,1,255,188.8ZM188,182.15a.49.49,0,0,1-.49-.49v-3.92a.49.49,0,0,1,1,0v3.92A.49.49,0,0,1,188,182.15ZM255.18,181a.49.49,0,0,1-.49-.49v-3.92a.49.49,0,1,1,1,0v3.92A.49.49,0,0,1,255.18,181Zm0-7.84a.49.49,0,0,1-.49-.49v-3.92a.49.49,0,1,1,1,0v3.92A.49.49,0,0,1,255.18,173.16Zm0-7.84a.49.49,0,0,1-.49-.49v-3.92a.49.49,0,1,1,1,0v3.92A.49.49,0,0,1,255.18,165.32Zm0-7.84a.49.49,0,0,1-.49-.49v-3.92a.49.49,0,1,1,1,0V157A.49.49,0,0,1,255.18,157.48Zm0-7.84a.49.49,0,0,1-.49-.49v-2.44a2.86,2.86,0,0,1,.53-1.67.51.51,0,0,1,.69-.12.5.5,0,0,1,.11.69,1.87,1.87,0,0,0-.35,1.1v2.44A.49.49,0,0,1,255.18,149.64Zm8-4.83h-3.92a.48.48,0,0,1-.49-.49.49.49,0,0,1,.49-.49h3.92a.49.49,0,0,1,.49.49A.48.48,0,0,1,263.14,144.81Z"/><path class="cls-4" d="M163.79,195.62a.49.49,0,0,1-.49-.49v-1a.49.49,0,0,1,1,0v1A.49.49,0,0,1,163.79,195.62Zm0-5a.48.48,0,0,1-.49-.49v-3.92a.49.49,0,0,1,1,0v3.92A.48.48,0,0,1,163.79,190.67Zm0-7.84a.48.48,0,0,1-.49-.49v-3.92a.49.49,0,0,1,1,0v3.92A.48.48,0,0,1,163.79,182.83Z"/><path class="cls-5" d="M85.36,310.88a.49.49,0,0,1-.49-.49v-2.68a.49.49,0,1,1,1,0v2.68A.49.49,0,0,1,85.36,310.88Zm0-6.6a.49.49,0,0,1-.49-.49v-3.92a.49.49,0,0,1,1,0v3.92A.49.49,0,0,1,85.36,304.28Zm0-7.84a.49.49,0,0,1-.49-.49V292a.49.49,0,1,1,1,0V296A.49.49,0,0,1,85.36,296.44Zm0-7.84a.49.49,0,0,1-.49-.49v-3.92a.49.49,0,0,1,1,0v3.92A.49.49,0,0,1,85.36,288.6Zm0-7.84a.49.49,0,0,1-.49-.49v-3.92a.49.49,0,0,1,1,0v3.92A.49.49,0,0,1,85.36,280.76Zm0-7.84a.49.49,0,0,1-.49-.49v-3.92a.49.49,0,0,1,1,0v3.92A.49.49,0,0,1,85.36,272.92Zm0-7.84a.49.49,0,0,1-.49-.49v-3.92a.49.49,0,0,1,1,0v3.92A.49.49,0,0,1,85.36,265.08Zm0-7.84a.49.49,0,0,1-.49-.49v-3.92a.49.49,0,0,1,1,0v3.92A.49.49,0,0,1,85.36,257.24Zm0-7.84a.49.49,0,0,1-.49-.49V245a.49.49,0,0,1,1,0v3.92A.49.49,0,0,1,85.36,249.4Zm0-7.84a.49.49,0,0,1-.49-.49v-3.92a.49.49,0,0,1,1,0v3.92A.49.49,0,0,1,85.36,241.56Zm0-7.84a.49.49,0,0,1-.49-.49v-3.92a.49.49,0,0,1,1,0v3.92A.49.49,0,0,1,85.36,233.72Zm0-7.84a.49.49,0,0,1-.49-.49v-3.92a.49.49,0,0,1,1,0v3.92A.49.49,0,0,1,85.36,225.88Zm0-7.84a.49.49,0,0,1-.49-.49v-3.92a.49.49,0,0,1,1,0v3.92A.49.49,0,0,1,85.36,218Zm0-7.84a.49.49,0,0,1-.49-.49v-3.92a.49.49,0,1,1,1,0v3.92A.49.49,0,0,1,85.36,210.2Zm0-7.84a.49.49,0,0,1-.49-.49V198a.49.49,0,1,1,1,0v3.92A.49.49,0,0,1,85.36,202.36Zm0-7.84a.49.49,0,0,1-.49-.49v-2.14a4.65,4.65,0,0,1,.4-1.92.49.49,0,0,1,.65-.25.48.48,0,0,1,.25.64,3.85,3.85,0,0,0-.32,1.53V194A.49.49,0,0,1,85.36,194.52Zm3.27-6.28a.5.5,0,0,1-.48-.38.49.49,0,0,1,.37-.59,4.53,4.53,0,0,1,1.1-.13h2.92a.49.49,0,1,1,0,1H89.62a4.32,4.32,0,0,0-.88.1Zm49.58-.12h-2.55a.49.49,0,1,1,0-1h2.06v-.88a.49.49,0,1,1,1,0v1.37A.49.49,0,0,1,138.21,188.12Zm-6.47,0h-3.92a.49.49,0,0,1,0-1h3.92a.49.49,0,0,1,0,1Zm-7.84,0H120a.49.49,0,0,1,0-1h3.92a.49.49,0,1,1,0,1Zm-7.84,0h-3.92a.49.49,0,0,1,0-1h3.92a.49.49,0,1,1,0,1Zm-7.84,0H104.3a.49.49,0,0,1,0-1h3.92a.49.49,0,1,1,0,1Zm-7.84,0H96.46a.49.49,0,0,1,0-1h3.92a.49.49,0,0,1,0,1Zm37.83-5.29a.48.48,0,0,1-.49-.49v-3.92a.49.49,0,1,1,1,0v3.92A.48.48,0,0,1,138.21,182.83Z"/><g class="cls-6"><path class="cls-4" d="M63.22,362.12a1.76,1.76,0,0,1-1.68-1.23l-1.67-5.28a.75.75,0,0,0-.76-.55,24.55,24.55,0,0,1-6.34-.55.78.78,0,0,0-.84.41l-2.55,4.91a1.76,1.76,0,0,1-1,.87,1.74,1.74,0,0,1-1.34-.11l-7.61-4a1.77,1.77,0,0,1-.75-2.38l2.55-4.91a.76.76,0,0,0-.15-.92A25.41,25.41,0,0,1,37,343.55a.77.77,0,0,0-.88-.31l-5.28,1.67a1.77,1.77,0,0,1-2.22-1.15L26,335.58a1.74,1.74,0,0,1,.12-1.34,1.71,1.71,0,0,1,1-.87l5.28-1.67A.78.78,0,0,0,33,331a24.62,24.62,0,0,1,.55-6.35.78.78,0,0,0-.41-.84l-4.92-2.55a1.78,1.78,0,0,1-.75-2.38l4-7.61a1.76,1.76,0,0,1,2.37-.75L38.69,313a.77.77,0,0,0,.92-.15,25.11,25.11,0,0,1,4.87-4.1.77.77,0,0,0,.31-.88l-1.67-5.28a1.76,1.76,0,0,1,1.15-2.21l8.18-2.59A1.77,1.77,0,0,1,54.66,299l1.67,5.28a.73.73,0,0,0,.75.55,25.07,25.07,0,0,1,6.35.55.78.78,0,0,0,.83-.41L66.82,300a1.74,1.74,0,0,1,1-.87,1.76,1.76,0,0,1,1.35.12l7.61,4a1.78,1.78,0,0,1,.75,2.38L75,310.52a.77.77,0,0,0,.15.92,24.58,24.58,0,0,1,4.1,4.88.76.76,0,0,0,.88.3L85.41,315a1.77,1.77,0,0,1,2.21,1.15l2.59,8.18a1.77,1.77,0,0,1-1.15,2.21l-5.28,1.67a.78.78,0,0,0-.55.76,25,25,0,0,1-.55,6.34.78.78,0,0,0,.41.84L88,338.65a1.77,1.77,0,0,1,.75,2.38l-4,7.61a1.76,1.76,0,0,1-2.38.75l-4.91-2.55a.77.77,0,0,0-.93.15,25.11,25.11,0,0,1-4.87,4.09.77.77,0,0,0-.3.88l1.67,5.28a1.77,1.77,0,0,1-1.15,2.21L63.75,362A1.67,1.67,0,0,1,63.22,362.12Zm-4.08-8a1.76,1.76,0,0,1,1.66,1.23l1.67,5.29a.78.78,0,0,0,1,.51l8.18-2.59a.78.78,0,0,0,.51-1l-1.67-5.28a1.75,1.75,0,0,1,.71-2,23.86,23.86,0,0,0,4.68-3.94A1.76,1.76,0,0,1,78,346l4.91,2.55a.74.74,0,0,0,.6.05.79.79,0,0,0,.46-.38l3.95-7.61a.79.79,0,0,0-.33-1.06L82.63,337a1.77,1.77,0,0,1-.91-1.92,23.54,23.54,0,0,0,.53-6.09,1.75,1.75,0,0,1,1.23-1.73l5.28-1.67a.78.78,0,0,0,.51-1l-2.58-8.18a.77.77,0,0,0-1-.51l-5.29,1.67a1.77,1.77,0,0,1-2-.71,23.53,23.53,0,0,0-3.93-4.68,1.76,1.76,0,0,1-.36-2.1l2.56-4.91a.83.83,0,0,0,0-.6.77.77,0,0,0-.39-.46l-7.61-4a.76.76,0,0,0-.59-.06.81.81,0,0,0-.46.39l-2.56,4.91a1.73,1.73,0,0,1-1.91.92,24,24,0,0,0-6.1-.53,1.76,1.76,0,0,1-1.73-1.23l-1.67-5.28a.78.78,0,0,0-1-.51l-8.18,2.58a.73.73,0,0,0-.45.39.76.76,0,0,0-.06.59l1.67,5.29a1.75,1.75,0,0,1-.71,2,23.76,23.76,0,0,0-4.68,3.93,1.75,1.75,0,0,1-2.09.35l-4.92-2.55a.78.78,0,0,0-1,.33l-4,7.62a.77.77,0,0,0,.34,1l4.91,2.56a1.72,1.72,0,0,1,.91,1.91,24,24,0,0,0-.52,6.1,1.74,1.74,0,0,1-1.23,1.72l-5.29,1.67a.76.76,0,0,0-.45.39.79.79,0,0,0-.06.6l2.59,8.18a.78.78,0,0,0,1,.51l5.28-1.67a1.74,1.74,0,0,1,2,.71,24.16,24.16,0,0,0,3.94,4.68,1.75,1.75,0,0,1,.35,2.09l-2.55,4.92a.78.78,0,0,0,.33,1.05l7.61,4a.83.83,0,0,0,.6,0,.77.77,0,0,0,.46-.39l2.55-4.91a1.74,1.74,0,0,1,1.92-.91,24,24,0,0,0,6.09.52Zm-1-9.1a15.12,15.12,0,1,1,4.21-.59A15.09,15.09,0,0,1,58.14,345Zm0-29.29a14.13,14.13,0,0,0-14.06,15.84,14.16,14.16,0,0,0,18,11.92h0a14.16,14.16,0,0,0-3.93-27.76Z"/></g><path class="cls-4" d="M102.07,194.81l.68-4.25a.63.63,0,0,0-.53-.73l-2.75-.44a.64.64,0,0,1-.53-.55,12.45,12.45,0,0,0-.72-3.05.62.62,0,0,1,.22-.73l2.25-1.64a.64.64,0,0,0,.15-.89L98.31,179a.65.65,0,0,0-.89-.14l-2.25,1.63a.63.63,0,0,1-.77,0,12.12,12.12,0,0,0-2.67-1.64.64.64,0,0,1-.36-.68l.44-2.75a.64.64,0,0,0-.53-.73L87,174a.64.64,0,0,0-.73.53l-.44,2.75a.64.64,0,0,1-.55.53,12,12,0,0,0-3,.73.63.63,0,0,1-.73-.23L79.9,176.1A.65.65,0,0,0,79,176l-3.48,2.53a.64.64,0,0,0-.15.89L77,181.62a.63.63,0,0,1,0,.77,12.51,12.51,0,0,0-1.64,2.67.64.64,0,0,1-.68.36L71.93,185a.64.64,0,0,0-.74.53l-.68,4.25a.64.64,0,0,0,.53.73l2.75.44a.64.64,0,0,1,.53.55,12,12,0,0,0,.73,3.05.63.63,0,0,1-.23.73l-2.25,1.64a.63.63,0,0,0-.14.89L75,201.28a.64.64,0,0,0,.89.14l2.26-1.63a.62.62,0,0,1,.76,0,12.36,12.36,0,0,0,2.67,1.64.63.63,0,0,1,.36.68l-.44,2.75a.64.64,0,0,0,.53.73l4.25.68a.64.64,0,0,0,.73-.53L87.4,203a.64.64,0,0,1,.56-.53,12.05,12.05,0,0,0,3-.73.65.65,0,0,1,.74.23l1.63,2.25a.64.64,0,0,0,.89.15l3.49-2.53a.64.64,0,0,0,.14-.89l-1.63-2.25a.63.63,0,0,1,0-.77,12.12,12.12,0,0,0,1.64-2.67.64.64,0,0,1,.68-.36l2.75.44A.63.63,0,0,0,102.07,194.81Zm-16.74,2.56a7.36,7.36,0,1,1,8.26-4.74A7.36,7.36,0,0,1,85.33,197.37Z"/><path class="cls-4" d="M86.34,206.78l-.18,0-4.26-.68a1.13,1.13,0,0,1-.93-1.29l.44-2.75a.15.15,0,0,0-.08-.15,12.53,12.53,0,0,1-2.77-1.71.17.17,0,0,0-.18,0l-2.25,1.63a1.1,1.1,0,0,1-.84.21,1.13,1.13,0,0,1-.74-.46L72,198.08a1.11,1.11,0,0,1-.2-.84,1.15,1.15,0,0,1,.45-.74l2.25-1.63a.15.15,0,0,0,.06-.17,12.68,12.68,0,0,1-.76-3.16.13.13,0,0,0-.12-.12L71,191a1.13,1.13,0,0,1-.94-1.3l.68-4.25A1.13,1.13,0,0,1,72,184.5l2.75.43a.14.14,0,0,0,.15-.07,12.84,12.84,0,0,1,1.71-2.78.13.13,0,0,0,0-.17L75,179.66a1.12,1.12,0,0,1,.25-1.58l3.49-2.52a1.12,1.12,0,0,1,1.57.25l1.63,2.25a.15.15,0,0,0,.17.06,12.75,12.75,0,0,1,3.17-.76.14.14,0,0,0,.12-.12l.44-2.75a1.13,1.13,0,0,1,1.29-.93l4.25.68a1.15,1.15,0,0,1,.74.45,1.19,1.19,0,0,1,.2.84l-.44,2.75a.14.14,0,0,0,.07.15,12.6,12.6,0,0,1,2.78,1.71.15.15,0,0,0,.17,0l2.25-1.63a1.12,1.12,0,0,1,1.58.25l2.52,3.49a1.12,1.12,0,0,1-.25,1.57l-2.25,1.63a.16.16,0,0,0-.06.17,12.78,12.78,0,0,1,.76,3.16.15.15,0,0,0,.12.12l2.75.44a1.13,1.13,0,0,1,.93,1.3l-.68,4.25a1.14,1.14,0,0,1-1.29.94l-2.75-.44a.13.13,0,0,0-.15.07,12.84,12.84,0,0,1-1.71,2.78.15.15,0,0,0,0,.17l1.63,2.25a1.14,1.14,0,0,1-.26,1.58l-3.48,2.52a1.13,1.13,0,0,1-1.58-.25l-1.63-2.25a.14.14,0,0,0-.16-.06A12.86,12.86,0,0,1,88,203a.14.14,0,0,0-.12.12l-.44,2.75a1.13,1.13,0,0,1-.45.73A1.16,1.16,0,0,1,86.34,206.78Zm-7.87-7.61a1.13,1.13,0,0,1,.7.25A12.26,12.26,0,0,0,81.73,201a1.11,1.11,0,0,1,.64,1.2l-.44,2.74a.15.15,0,0,0,.13.17l4.25.69a.17.17,0,0,0,.17-.13l.44-2.74a1.12,1.12,0,0,1,1-1,11.69,11.69,0,0,0,2.93-.69,1.12,1.12,0,0,1,1.3.39l1.63,2.26a.16.16,0,0,0,.21,0l3.49-2.53a.13.13,0,0,0,0-.2L95.86,199a1.13,1.13,0,0,1,0-1.36,12.26,12.26,0,0,0,1.58-2.56,1.11,1.11,0,0,1,1.2-.64l2.75.44a.17.17,0,0,0,.17-.13l.68-4.25a.17.17,0,0,0-.13-.17l-2.74-.44a1.11,1.11,0,0,1-.94-1,12.27,12.27,0,0,0-.7-2.93,1.12,1.12,0,0,1,.39-1.3l2.26-1.63a.22.22,0,0,0,.06-.1.17.17,0,0,0,0-.11l-2.53-3.49a.17.17,0,0,0-.2,0l-2.26,1.63a1.11,1.11,0,0,1-1.36,0,12,12,0,0,0-2.56-1.58,1.11,1.11,0,0,1-.64-1.2l.44-2.74a.12.12,0,0,0,0-.11.09.09,0,0,0-.09-.06L87,174.53a.15.15,0,0,0-.17.12l-.44,2.74a1.12,1.12,0,0,1-1,1,11.9,11.9,0,0,0-2.93.69,1.12,1.12,0,0,1-1.3-.39l-1.63-2.25a.15.15,0,0,0-.21,0l-3.49,2.53a.18.18,0,0,0,0,.21l1.63,2.25a1.11,1.11,0,0,1,0,1.36,11.81,11.81,0,0,0-1.57,2.56,1.13,1.13,0,0,1-1.21.64l-2.74-.44a.16.16,0,0,0-.17.13L71,189.84a.14.14,0,0,0,.12.17l2.75.44a1.11,1.11,0,0,1,.94,1,11.81,11.81,0,0,0,.7,2.93,1.13,1.13,0,0,1-.4,1.3l-2.25,1.63a.12.12,0,0,0-.06.1.12.12,0,0,0,0,.11L75.35,201a.18.18,0,0,0,.1.06.2.2,0,0,0,.11,0l2.25-1.63A1.16,1.16,0,0,1,78.47,199.17ZM86.66,198a7.58,7.58,0,0,1-1.42-.13,7.85,7.85,0,1,1,1.42.13Zm0-14.71a6.86,6.86,0,0,0-6,10.28,6.83,6.83,0,0,0,4.7,3.33h0a6.86,6.86,0,1,0,2.5-13.5A7.42,7.42,0,0,0,86.68,183.27Z"/><path class="cls-4" d="M436.48,105.59a.49.49,0,0,1-.49-.49v-3.92a.49.49,0,0,1,1,0v3.92A.49.49,0,0,1,436.48,105.59Zm0-7.84a.49.49,0,0,1-.49-.49V93.34a.49.49,0,0,1,1,0v3.92A.49.49,0,0,1,436.48,97.75Zm-2.84-5h-3.92a.48.48,0,0,1-.49-.49.48.48,0,0,1,.49-.49h3.92a.49.49,0,0,1,.49.49A.48.48,0,0,1,433.64,92.75Zm-7.84,0h-3.93a.48.48,0,0,1-.49-.49.49.49,0,0,1,.49-.49h3.93a.49.49,0,0,1,.49.49A.48.48,0,0,1,425.8,92.75Zm-7.84,0H414a.48.48,0,0,1-.49-.49.49.49,0,0,1,.49-.49H418a.49.49,0,0,1,.49.49A.48.48,0,0,1,418,92.75Zm-7.84,0H406.2a.48.48,0,0,1-.49-.49.49.49,0,0,1,.49-.49h3.92a.49.49,0,0,1,.49.49A.48.48,0,0,1,410.12,92.75Zm-7.84,0h-3.92a.48.48,0,0,1-.49-.49.49.49,0,0,1,.49-.49h3.92a.49.49,0,0,1,.49.49A.48.48,0,0,1,402.28,92.75Zm-7.84,0h-3a.48.48,0,0,1-.49-.49v-.94a.49.49,0,1,1,1,0v.45h2.49a.49.49,0,0,1,.49.49A.48.48,0,0,1,394.44,92.75Zm-59.81-1.81a.49.49,0,0,1-.49-.49V86.53a.49.49,0,1,1,1,0v3.92A.49.49,0,0,1,334.63,90.94Zm56.83-3a.49.49,0,0,1-.49-.49V83.48a.49.49,0,0,1,1,0V87.4A.49.49,0,0,1,391.46,87.89ZM334.63,83.1a.49.49,0,0,1-.49-.49V78.69a.49.49,0,1,1,1,0v3.92A.49.49,0,0,1,334.63,83.1Zm56.83-3a.49.49,0,0,1-.49-.49V75.64a.49.49,0,1,1,1,0v3.92A.49.49,0,0,1,391.46,80.05Zm-56.83-4.79a.49.49,0,0,1-.49-.49V72.26a.49.49,0,0,1,.49-.49H336a.49.49,0,1,1,0,1h-.92v2A.49.49,0,0,1,334.63,75.26Zm56.29-2.51H387a.49.49,0,1,1,0-1h3.92a.49.49,0,0,1,0,1Zm-7.84,0h-3.92a.49.49,0,1,1,0-1h3.92a.49.49,0,0,1,0,1Zm-7.84,0h-3.92a.49.49,0,1,1,0-1h3.92a.49.49,0,0,1,0,1Zm-7.84,0h-3.92a.49.49,0,1,1,0-1h3.92a.49.49,0,0,1,0,1Zm-7.84,0h-3.92a.49.49,0,1,1,0-1h3.92a.49.49,0,0,1,0,1Zm-7.84,0H347.8a.49.49,0,1,1,0-1h3.92a.49.49,0,1,1,0,1Zm-7.84,0H340a.49.49,0,0,1,0-1h3.92a.49.49,0,0,1,0,1Z"/><path class="cls-5" d="M322.35,86.33a.49.49,0,0,1-.49-.49V81.92a.49.49,0,0,1,1,0v3.92A.49.49,0,0,1,322.35,86.33Zm0-7.84a.49.49,0,0,1-.49-.49V74.08a.49.49,0,0,1,1,0V78A.49.49,0,0,1,322.35,78.49Z"/><path class="cls-5" d="M431.48,108.15a.48.48,0,0,1-.49-.49v-3.92a.48.48,0,0,1,.49-.49.49.49,0,0,1,.49.49v3.92A.49.49,0,0,1,431.48,108.15Zm0-7.84a.48.48,0,0,1-.49-.49V95.9a.48.48,0,0,1,.49-.49.49.49,0,0,1,.49.49v3.92A.49.49,0,0,1,431.48,100.31Z"/><path class="cls-4" d="M533.32,269.41a.49.49,0,0,1-.49-.49V265a.49.49,0,1,1,1,0v3.92A.49.49,0,0,1,533.32,269.41Zm0-7.84a.49.49,0,0,1-.49-.49v-3.92a.49.49,0,1,1,1,0v3.92A.49.49,0,0,1,533.32,261.57Zm26.83-6h-1.51a.49.49,0,0,1,0-1h1v-1.92a.49.49,0,0,1,1,0V255A.49.49,0,0,1,560.15,255.53Zm-5.43,0H550.8a.49.49,0,0,1,0-1h3.92a.49.49,0,0,1,0,1Zm-7.84,0H543a.49.49,0,0,1,0-1h3.92a.49.49,0,0,1,0,1Zm-7.84,0h-3.92a.49.49,0,0,1,0-1H539a.49.49,0,0,1,0,1Zm21.11-6.33a.49.49,0,0,1-.49-.49v-3.92a.49.49,0,1,1,1,0v3.92A.49.49,0,0,1,560.15,249.2Zm0-7.84a.49.49,0,0,1-.49-.49V237a.49.49,0,1,1,1,0v3.92A.49.49,0,0,1,560.15,241.36Zm0-7.84a.49.49,0,0,1-.49-.49v-3.92a.49.49,0,0,1,1,0V233A.49.49,0,0,1,560.15,233.52Zm0-7.84a.49.49,0,0,1-.49-.49v-3.92a.49.49,0,1,1,1,0v3.92A.49.49,0,0,1,560.15,225.68Zm0-7.84a.49.49,0,0,1-.49-.49v-3.92a.49.49,0,1,1,1,0v3.92A.49.49,0,0,1,560.15,217.84Zm-1.43-6.42H554.8a.49.49,0,1,1,0-1h3.92a.49.49,0,1,1,0,1Zm-7.84,0H547a.49.49,0,1,1,0-1h3.92a.49.49,0,1,1,0,1Z"/><path class="cls-4" d="M326.45,408.07a.49.49,0,0,1-.49-.49V405a.49.49,0,0,1,1,0v2.59A.49.49,0,0,1,326.45,408.07Zm0-6.51a.49.49,0,0,1-.49-.49v-3.92a.49.49,0,0,1,1,0v3.92A.49.49,0,0,1,326.45,401.56Zm0-7.84a.49.49,0,0,1-.49-.49v-1.11h-1.83a.49.49,0,0,1,0-1h2.32a.49.49,0,0,1,.49.49v1.6A.49.49,0,0,1,326.45,393.72Zm-6.24-1.6h-3.92a.49.49,0,0,1,0-1h3.92a.49.49,0,0,1,0,1Zm-7.84,0h-3.92a.49.49,0,1,1,0-1h3.92a.49.49,0,0,1,0,1Zm-7.84,0h-3.92a.49.49,0,0,1,0-1h3.92a.49.49,0,0,1,0,1Zm-7.84,0h-3.92a.49.49,0,0,1,0-1h3.92a.49.49,0,0,1,0,1Zm-7.84,0h-3.92a.49.49,0,1,1,0-1h3.92a.49.49,0,0,1,0,1Zm-7.84,0h-.6a.49.49,0,0,1-.49-.49v-3.32a.49.49,0,1,1,1,0v2.83H281a.49.49,0,0,1,0,1Zm-.6-7.24a.49.49,0,0,1-.49-.49v-3.92a.49.49,0,1,1,1,0v3.92A.49.49,0,0,1,280.41,384.88Z"/><path class="cls-5" d="M334,407.29a.49.49,0,0,1-.49-.49v-3.92a.49.49,0,0,1,1,0v3.92A.49.49,0,0,1,334,407.29Zm0-7.84a.49.49,0,0,1-.49-.49V395a.49.49,0,0,1,1,0V399A.49.49,0,0,1,334,399.45Zm0-7.84a.49.49,0,0,1-.49-.49V387.2a.49.49,0,0,1,1,0v3.92A.49.49,0,0,1,334,391.61Zm-1.36-6.48h-3.92a.49.49,0,1,1,0-1h3.92a.49.49,0,1,1,0,1Zm-7.84,0h-3.92a.49.49,0,0,1,0-1h3.92a.49.49,0,0,1,0,1Zm-7.84,0H313a.49.49,0,0,1,0-1h3.92a.49.49,0,0,1,0,1Zm-7.84,0h-3.92a.49.49,0,1,1,0-1h3.92a.49.49,0,1,1,0,1Zm-7.84,0h-3.92a.49.49,0,0,1,0-1h3.92a.49.49,0,0,1,0,1Zm-7.84,0h-3.92a.49.49,0,0,1,0-1h3.92a.49.49,0,0,1,0,1Zm-5.48-2.36a.49.49,0,0,1-.49-.49v-3.92a.49.49,0,1,1,1,0v3.92A.49.49,0,0,1,287.91,382.77Z"/><path class="cls-5" d="M540.6,275.21a.49.49,0,0,1-.49-.49V270.8a.49.49,0,0,1,1,0v3.92A.49.49,0,0,1,540.6,275.21Zm0-7.84a.49.49,0,0,1-.49-.49V263a.49.49,0,0,1,1,0v3.92A.49.49,0,0,1,540.6,267.37Zm22.41-5h-3.92a.49.49,0,0,1,0-1H563a.49.49,0,0,1,0,1Zm-7.84,0h-3.92a.49.49,0,0,1,0-1h3.92a.49.49,0,0,1,0,1Zm-7.84,0h-3.92a.49.49,0,0,1,0-1h3.92a.49.49,0,0,1,0,1ZM565.6,261a.49.49,0,0,1-.49-.49v-3.92a.49.49,0,0,1,1,0v3.92A.49.49,0,0,1,565.6,261Zm0-7.84a.49.49,0,0,1-.49-.49v-3.92a.49.49,0,1,1,1,0v3.92A.49.49,0,0,1,565.6,253.18Zm0-7.84a.49.49,0,0,1-.49-.49v-3.92a.49.49,0,1,1,1,0v3.92A.49.49,0,0,1,565.6,245.34Zm0-7.84a.49.49,0,0,1-.49-.49v-3.92a.49.49,0,0,1,1,0V237A.49.49,0,0,1,565.6,237.5Zm0-7.84a.49.49,0,0,1-.49-.49v-3.92a.49.49,0,0,1,1,0v3.92A.49.49,0,0,1,565.6,229.66Zm0-7.84a.49.49,0,0,1-.49-.49v-3.92a.49.49,0,1,1,1,0v3.92A.49.49,0,0,1,565.6,221.82Zm0-7.84a.49.49,0,0,1-.49-.49v-3.92a.49.49,0,1,1,1,0v3.92A.49.49,0,0,1,565.6,214Z"/><path class="cls-4" d="M76.83,292.83a.49.49,0,0,1-.49-.49v-3.92a.49.49,0,0,1,1,0v3.92A.49.49,0,0,1,76.83,292.83Zm0-7.84a.49.49,0,0,1-.49-.49v-3.92a.49.49,0,0,1,1,0v3.92A.49.49,0,0,1,76.83,285Zm0-7.84a.49.49,0,0,1-.49-.49v-3.92a.49.49,0,0,1,1,0v3.92A.49.49,0,0,1,76.83,277.15Zm0-7.84a.49.49,0,0,1-.49-.49V264.9a.49.49,0,1,1,1,0v3.92A.49.49,0,0,1,76.83,269.31Zm0-7.84a.49.49,0,0,1-.49-.49v-3.92a.49.49,0,0,1,1,0V261A.49.49,0,0,1,76.83,261.47Zm0-7.84a.49.49,0,0,1-.49-.49v-3.92a.49.49,0,0,1,1,0v3.92A.49.49,0,0,1,76.83,253.63Zm0-7.84a.49.49,0,0,1-.49-.49v-3.92a.49.49,0,0,1,1,0v3.92A.49.49,0,0,1,76.83,245.79Zm0-7.84a.49.49,0,0,1-.49-.49v-3.92a.49.49,0,1,1,1,0v3.92A.49.49,0,0,1,76.83,238Zm0-7.84a.49.49,0,0,1-.49-.49V225.7a.49.49,0,1,1,1,0v3.92A.49.49,0,0,1,76.83,230.11Zm0-7.84a.49.49,0,0,1-.49-.49v-3.92a.49.49,0,0,1,1,0v3.92A.49.49,0,0,1,76.83,222.27Zm0-7.84a.49.49,0,0,1-.49-.49V210a.49.49,0,0,1,1,0v3.92A.49.49,0,0,1,76.83,214.43Z"/><path class="cls-3" d="M256.87,413.42l11.32-41.6H212.75l-11.2,41.62.73,0Z"/><path class="cls-7" d="M201.61,413.93a.52.52,0,0,1-.41-.18.49.49,0,0,1-.12-.43l11.2-41.63a.49.49,0,0,1,.47-.36h55.44a.48.48,0,0,1,.47.62l-11.32,41.6a.49.49,0,0,1-.47.36H202.28l-.65,0Zm11.52-41.62L202.2,412.93h54.29l11.06-40.62Z"/><path class="cls-8" d="M292.45,416.44c-.18-.11-.38-.21-.58-.32a22.72,22.72,0,0,0-10.95-2.7H202.28l-.73,0c-5.55.23-10.44,3-12.42,7.12L186,427.09H299.34C299.34,422.78,296.65,419,292.45,416.44Z"/><polygon class="cls-9" points="266.66 377.45 205.39 399.74 211.3 377.21 266.72 377.21 266.66 377.45"/><path class="cls-3" d="M370.58,377.21H124a8.65,8.65,0,0,1-8.45-8.84v-160a8.65,8.65,0,0,1,8.45-8.84H370.58a8.65,8.65,0,0,1,8.45,8.84v160A8.65,8.65,0,0,1,370.58,377.21Z"/><path class="cls-7" d="M370.58,377.7H124a9.15,9.15,0,0,1-8.94-9.33v-160a9.15,9.15,0,0,1,8.94-9.33H370.58a9.15,9.15,0,0,1,8.94,9.33v160A9.15,9.15,0,0,1,370.58,377.7ZM124,200.06a8.17,8.17,0,0,0-8,8.35v160a8.17,8.17,0,0,0,8,8.35H370.58a8.17,8.17,0,0,0,8-8.35v-160a8.17,8.17,0,0,0-8-8.35Z"/><path class="cls-8" d="M115.5,368.37v-160a8.67,8.67,0,0,1,8.32-8.84h-8.69a8.66,8.66,0,0,0-8.45,8.86V368.71a8.66,8.66,0,0,0,8.45,8.86H361.75a8,8,0,0,0,2.36-.36H124A8.65,8.65,0,0,1,115.5,368.37Z"/><path class="cls-7" d="M361.75,378.06H115.13a9.16,9.16,0,0,1-8.94-9.35V208.43a9.17,9.17,0,0,1,8.94-9.35h8.69v1a8.21,8.21,0,0,0-7.84,8.35v160a8.17,8.17,0,0,0,8,8.35H367.4l-3.14,1A8.68,8.68,0,0,1,361.75,378.06Zm-246.62-178a8.18,8.18,0,0,0-8,8.37V368.71a8.18,8.18,0,0,0,8,8.37h5.61a9.34,9.34,0,0,1-5.73-8.71v-160a9.42,9.42,0,0,1,5-8.35Z"/><path class="cls-10" d="M131.59,247.93V212a2.75,2.75,0,0,1,2.76-2.76H361.68a2.76,2.76,0,0,1,2.76,2.76V346H131.59V310.48"/><path class="cls-7" d="M364.44,346.52H131.59a.49.49,0,0,1-.49-.49V310.48a.49.49,0,0,1,1,0v35.06H364V212a2.27,2.27,0,0,0-2.27-2.27H134.35a2.27,2.27,0,0,0-2.27,2.27v36a.49.49,0,0,1-1,0V212a3.26,3.26,0,0,1,3.25-3.25H361.68a3.26,3.26,0,0,1,3.25,3.25V346A.49.49,0,0,1,364.44,346.52Z"/><path class="cls-7" d="M131.59,291.7a.49.49,0,0,1-.49-.49V264.47a.49.49,0,0,1,1,0v26.74A.49.49,0,0,1,131.59,291.7Z"/><path class="cls-8" d="M369.67,376.32H125a8.29,8.29,0,0,1-8.38-8.21V346H378.05v22.08A8.29,8.29,0,0,1,369.67,376.32Z"/><path class="cls-3" d="M369.67,376.81H125a8.79,8.79,0,0,1-8.87-8.7V346a.49.49,0,0,1,.49-.49H378.05a.49.49,0,0,1,.49.49v22.08A8.79,8.79,0,0,1,369.67,376.81ZM117.11,346.52v21.59a7.81,7.81,0,0,0,7.89,7.72H369.67a7.81,7.81,0,0,0,7.89-7.72V346.52Z"/><path class="cls-3" d="M253.77,361.87a7.14,7.14,0,1,1-7.14-7.14A7.14,7.14,0,0,1,253.77,361.87Z"/><path class="cls-7" d="M246.63,369.5a7.63,7.63,0,1,1,7.63-7.63A7.64,7.64,0,0,1,246.63,369.5Zm0-14.28a6.65,6.65,0,1,0,6.65,6.65A6.66,6.66,0,0,0,246.63,355.22Z"/><path class="cls-11" d="M250.84,361.87a4.21,4.21,0,1,1-4.21-4.21A4.2,4.2,0,0,1,250.84,361.87Z"/><path class="cls-7" d="M246.63,366.57a4.7,4.7,0,1,1,4.7-4.7A4.71,4.71,0,0,1,246.63,366.57Zm0-8.42a3.72,3.72,0,1,0,3.72,3.72A3.73,3.73,0,0,0,246.63,358.15Z"/><path class="cls-11" d="M246.63,206h0A1.65,1.65,0,0,1,245,204.3h0a1.65,1.65,0,0,1,1.65-1.66h0a1.66,1.66,0,0,1,1.66,1.66h0A1.65,1.65,0,0,1,246.63,206Z"/><path class="cls-7" d="M246.63,206.44a2.15,2.15,0,1,1,2.15-2.14A2.14,2.14,0,0,1,246.63,206.44Zm0-3.31a1.17,1.17,0,1,0,1.17,1.17A1.16,1.16,0,0,0,246.63,203.13Z"/><path class="cls-7" d="M164.13,267.92a.49.49,0,0,1-.49-.49v-11.6a.49.49,0,0,1,1,0v11.6A.49.49,0,0,1,164.13,267.92Z"/><path class="cls-7" d="M205.39,310.71a.49.49,0,0,1-.49-.49V295.56a.49.49,0,0,1,1,0v14.66A.49.49,0,0,1,205.39,310.71Z"/><path class="cls-7" d="M244.78,267.92a.49.49,0,0,1-.49-.49v-11.6a.49.49,0,0,1,1,0v11.6A.49.49,0,0,1,244.78,267.92Z"/><path class="cls-12" d="M204.88,267.92a.49.49,0,0,1-.49-.49v-11.6a.49.49,0,0,1,1,0v11.6A.49.49,0,0,1,204.88,267.92Z"/><path class="cls-12" d="M244.66,311a.49.49,0,0,1-.49-.49V295.39a.49.49,0,0,1,1,0v15.12A.49.49,0,0,1,244.66,311Z"/><path class="cls-12" d="M188.17,321.79H176.58a.48.48,0,0,1-.49-.49.48.48,0,0,1,.49-.49h11.59a.49.49,0,0,1,.49.49A.48.48,0,0,1,188.17,321.79Z"/><rect class="cls-12" x="150.72" y="227.95" width="109.48" height="27.73" rx="1.06"/><path class="cls-7" d="M259.16,256.17H151.76a1.53,1.53,0,0,1-1.53-1.53V229a1.53,1.53,0,0,1,1.53-1.53h107.4a1.53,1.53,0,0,1,1.53,1.53v25.65A1.53,1.53,0,0,1,259.16,256.17Zm-107.4-27.73a.55.55,0,0,0-.55.55v25.65a.55.55,0,0,0,.55.55h107.4a.55.55,0,0,0,.55-.55V229a.55.55,0,0,0-.55-.55Z"/><rect class="cls-3" x="150.96" y="267.63" width="27.25" height="27.25" rx="1.06"/><path class="cls-7" d="M177.17,295.37H152a1.54,1.54,0,0,1-1.53-1.54V268.67a1.53,1.53,0,0,1,1.53-1.53h25.17a1.53,1.53,0,0,1,1.53,1.53v25.16A1.54,1.54,0,0,1,177.17,295.37ZM152,268.12a.55.55,0,0,0-.55.55v25.16a.56.56,0,0,0,.55.56h25.17a.56.56,0,0,0,.55-.56V268.67a.55.55,0,0,0-.55-.55Z"/><rect class="cls-7" x="191.83" y="267.63" width="27.25" height="27.25" rx="1.06"/><path class="cls-7" d="M218,295.37H192.87a1.54,1.54,0,0,1-1.53-1.54V268.67a1.53,1.53,0,0,1,1.53-1.53H218a1.52,1.52,0,0,1,1.53,1.53v25.16A1.53,1.53,0,0,1,218,295.37Zm-25.17-27.25a.55.55,0,0,0-.55.55v25.16a.56.56,0,0,0,.55.56H218a.55.55,0,0,0,.55-.56V268.67a.54.54,0,0,0-.55-.55Z"/><rect class="cls-3" x="231.86" y="267.63" width="27.25" height="27.25" rx="1.06"/><path class="cls-7" d="M258.06,295.37H232.9a1.53,1.53,0,0,1-1.53-1.54V268.67a1.52,1.52,0,0,1,1.53-1.53h25.16a1.52,1.52,0,0,1,1.53,1.53v25.16A1.53,1.53,0,0,1,258.06,295.37ZM232.9,268.12a.54.54,0,0,0-.55.55v25.16a.55.55,0,0,0,.55.56h25.16a.55.55,0,0,0,.55-.56V268.67a.54.54,0,0,0-.55-.55Z"/><rect class="cls-3" x="188.43" y="310.93" width="70.07" height="20.92" rx="8.18"/><path class="cls-7" d="M248,332.34H198.89a10.95,10.95,0,0,1,0-21.9H248a10.95,10.95,0,1,1,0,21.9Zm-49.14-20.92a10,10,0,0,0,0,19.94H248a10,10,0,0,0,0-19.94Z"/><path class="cls-3" d="M305.48,289.6H282.8a.49.49,0,0,1,0-1h22.68a.49.49,0,0,1,0,1Z"/><path class="cls-3" d="M342.35,289.6H314.81a.49.49,0,0,1,0-1h27.54a.49.49,0,0,1,0,1Z"/><path class="cls-3" d="M324.18,326.05H282.8a.49.49,0,0,1,0-1h41.38a.49.49,0,0,1,0,1Z"/><path class="cls-3" d="M347.93,302.22H282.8a.49.49,0,1,1,0-1h65.13a.49.49,0,1,1,0,1Z"/><path class="cls-3" d="M303.43,314.23H282.8a.49.49,0,1,1,0-1h20.63a.49.49,0,1,1,0,1Z"/><path class="cls-3" d="M347.36,314.23H309.78a.49.49,0,1,1,0-1h37.58a.49.49,0,0,1,0,1Z"/><path class="cls-7" d="M281.86,227.3H350.6a0,0,0,0,1,0,0V234a1.55,1.55,0,0,1-1.55,1.55H283.87a2,2,0,0,1-2-2V227.3A0,0,0,0,1,281.86,227.3Z" transform="translate(632.46 462.86) rotate(180)"/><path class="cls-3" d="M290.89,233.09a1.76,1.76,0,1,1,1.76-1.76A1.76,1.76,0,0,1,290.89,233.09Zm0-2.54a.78.78,0,1,0,.78.78A.78.78,0,0,0,290.89,230.55Z"/><path class="cls-3" d="M295.84,233.09a1.76,1.76,0,1,1,1.76-1.76A1.75,1.75,0,0,1,295.84,233.09Zm0-2.54a.78.78,0,1,0,.78.78A.78.78,0,0,0,295.84,230.55Z"/><path class="cls-3" d="M286,233.09a1.76,1.76,0,1,1,1.75-1.76A1.76,1.76,0,0,1,286,233.09Zm0-2.54a.78.78,0,0,0,0,1.56.78.78,0,0,0,0-1.56Z"/><rect class="cls-3" x="281.83" y="235.56" width="68.74" height="40.39" rx="0.23" transform="translate(632.41 511.51) rotate(180)"/><path class="cls-7" d="M341.62,245.84H310.71a.49.49,0,1,1,0-1h30.91a.49.49,0,0,1,0,1Z"/><path class="cls-12" d="M321.57,250.53H310.71a.49.49,0,1,1,0-1h10.86a.49.49,0,0,1,0,1Z"/><path class="cls-7" d="M339.22,250.53H326a.49.49,0,0,1,0-1h13.18a.49.49,0,1,1,0,1Z"/><path class="cls-12" d="M330.52,264.76H310.71a.49.49,0,1,1,0-1h19.81a.49.49,0,0,1,0,1Z"/><path class="cls-12" d="M341.89,255.46H310.71a.49.49,0,1,1,0-1h31.18a.49.49,0,0,1,0,1Z"/><path class="cls-7" d="M320.59,260.14h-9.88a.49.49,0,1,1,0-1h9.88a.49.49,0,1,1,0,1Z"/><path class="cls-12" d="M341.62,260.14h-18a.49.49,0,0,1,0-1h18a.49.49,0,1,1,0,1Z"/><path class="cls-12" d="M289.52,254.11a7.76,7.76,0,0,1,6.4-7.63l-.3-1.78a9.54,9.54,0,0,0-7.82,11l1.84-.31A7.61,7.61,0,0,1,289.52,254.11Z"/><path class="cls-3" d="M306.75,254.44a9.64,9.64,0,0,0-.13-1.92h0A9.64,9.64,0,0,1,306.75,254.44Z"/><path class="cls-11" d="M297.28,261.87a7.74,7.74,0,0,1-7.64-6.48l-1.84.31a9.55,9.55,0,0,0,11,7.82l-.3-1.76A7.12,7.12,0,0,1,297.28,261.87Z"/><path class="cls-7" d="M306.62,252.52h0a9.54,9.54,0,0,0-11-7.82l.3,1.78a7.65,7.65,0,0,1,1.36-.13,7.75,7.75,0,0,1,1.23,15.41l.3,1.76a9.54,9.54,0,0,0,7.69-7.22,8.77,8.77,0,0,0,.25-1.86A9.64,9.64,0,0,0,306.62,252.52Z"/><g class="cls-13"><path class="cls-14" d="M551.45,204.25l-4.3-13.6a2.1,2.1,0,0,0-2.65-1.38L535.71,192a2.08,2.08,0,0,1-2.39-.84,40.66,40.66,0,0,0-6.68-7.95,2.1,2.1,0,0,1-.42-2.5l4.25-8.18a2.11,2.11,0,0,0-.9-2.85l-12.66-6.58a2.12,2.12,0,0,0-2.85.9l-4.25,8.18a2.1,2.1,0,0,1-2.29,1.1,40.53,40.53,0,0,0-10.34-.9,2.09,2.09,0,0,1-2.07-1.48l-2.78-8.78a2.12,2.12,0,0,0-2.65-1.38l-13.6,4.3a2.11,2.11,0,0,0-1.38,2.65l2.77,8.79a2.08,2.08,0,0,1-.84,2.39,40.6,40.6,0,0,0-7.94,6.68,2.11,2.11,0,0,1-2.51.42L458,181.76a2.13,2.13,0,0,0-2.86.9l-6.58,12.66a2.12,2.12,0,0,0,.91,2.85l8.17,4.25a2.09,2.09,0,0,1,1.1,2.29,41,41,0,0,0-.9,10.34,2.09,2.09,0,0,1-1.48,2.07l-8.78,2.78a2.12,2.12,0,0,0-1.38,2.65l4.3,13.6a2.11,2.11,0,0,0,2.66,1.38l8.78-2.77a2.07,2.07,0,0,1,2.39.84,40.31,40.31,0,0,0,6.68,7.94,2.11,2.11,0,0,1,.42,2.51l-4.25,8.18a2.12,2.12,0,0,0,.9,2.85l12.66,6.58a2.11,2.11,0,0,0,2.85-.91l4.25-8.17a2.09,2.09,0,0,1,2.29-1.1,41,41,0,0,0,10.35.9,2.08,2.08,0,0,1,2.06,1.48l2.78,8.78A2.12,2.12,0,0,0,508,266l13.6-4.3a2.1,2.1,0,0,0,1.38-2.65l-2.77-8.79a2.08,2.08,0,0,1,.84-2.39,40.66,40.66,0,0,0,8-6.68,2.1,2.1,0,0,1,2.5-.42l8.18,4.25a2.12,2.12,0,0,0,2.85-.9l6.58-12.66a2.12,2.12,0,0,0-.9-2.85L540,224.38a2.09,2.09,0,0,1-1.09-2.29,40.52,40.52,0,0,0,.89-10.34,2.09,2.09,0,0,1,1.48-2.07l8.78-2.78A2.11,2.11,0,0,0,551.45,204.25ZM505.68,235.3A24.36,24.36,0,1,1,523.11,209,24.36,24.36,0,0,1,505.68,235.3Z"/></g><path class="cls-11" d="M551.45,201.33l-4.3-13.6a2.11,2.11,0,0,0-2.65-1.38l-8.79,2.78a2.1,2.1,0,0,1-2.39-.85,40.6,40.6,0,0,0-6.68-7.94,2.11,2.11,0,0,1-.42-2.51l4.25-8.17a2.12,2.12,0,0,0-.9-2.86l-12.66-6.58a2.12,2.12,0,0,0-2.85.91l-4.25,8.17a2.09,2.09,0,0,1-2.29,1.1,41,41,0,0,0-10.34-.9,2.1,2.1,0,0,1-2.07-1.47l-2.78-8.79a2.12,2.12,0,0,0-2.65-1.38l-13.6,4.3a2.11,2.11,0,0,0-1.38,2.66l2.77,8.78a2.07,2.07,0,0,1-.84,2.39,40.6,40.6,0,0,0-7.94,6.68,2.1,2.1,0,0,1-2.51.42L458,178.84a2.13,2.13,0,0,0-2.86.9l-6.58,12.66a2.13,2.13,0,0,0,.91,2.86l8.17,4.24a2.11,2.11,0,0,1,1.1,2.3,40.9,40.9,0,0,0-.9,10.34,2.08,2.08,0,0,1-1.48,2.06L447.59,217a2.12,2.12,0,0,0-1.38,2.65l4.3,13.6a2.11,2.11,0,0,0,2.66,1.38l8.78-2.77a2.07,2.07,0,0,1,2.39.84,40.66,40.66,0,0,0,6.68,7.95,2.1,2.1,0,0,1,.42,2.5l-4.25,8.18a2.12,2.12,0,0,0,.9,2.85l12.66,6.58a2.11,2.11,0,0,0,2.85-.9l4.25-8.18a2.1,2.1,0,0,1,2.29-1.09,40.56,40.56,0,0,0,10.35.89,2.08,2.08,0,0,1,2.06,1.48l2.78,8.78A2.11,2.11,0,0,0,508,263.1l13.6-4.3a2.1,2.1,0,0,0,1.38-2.65l-2.77-8.78A2.09,2.09,0,0,1,521,245a40.66,40.66,0,0,0,8-6.68,2.1,2.1,0,0,1,2.5-.42l8.18,4.25a2.11,2.11,0,0,0,2.85-.9l6.58-12.66a2.12,2.12,0,0,0-.9-2.85L540,221.46a2.08,2.08,0,0,1-1.09-2.29,40.52,40.52,0,0,0,.89-10.34,2.09,2.09,0,0,1,1.48-2.07l8.78-2.78A2.11,2.11,0,0,0,551.45,201.33Zm-45.77,31.06a24.37,24.37,0,1,1,17.43-26.3A24.37,24.37,0,0,1,505.68,232.39Z"/><path class="cls-12" d="M551.68,196.23l-4.3-13.6a2.12,2.12,0,0,0-2.66-1.38L535.94,184a2.09,2.09,0,0,1-2.39-.84,40.66,40.66,0,0,0-6.68-7.95,2.1,2.1,0,0,1-.42-2.51l4.25-8.17a2.12,2.12,0,0,0-.9-2.85l-12.66-6.58a2.1,2.1,0,0,0-2.85.9L510,164.21a2.1,2.1,0,0,1-2.29,1.09,41,41,0,0,0-10.35-.9,2.07,2.07,0,0,1-2.06-1.47l-2.78-8.78a2.1,2.1,0,0,0-2.65-1.38l-13.6,4.29a2.12,2.12,0,0,0-1.38,2.66l2.77,8.78a2.09,2.09,0,0,1-.84,2.4,41,41,0,0,0-7.95,6.67,2.07,2.07,0,0,1-2.5.42l-8.18-4.24a2.11,2.11,0,0,0-2.85.9l-6.58,12.66a2.12,2.12,0,0,0,.9,2.85l8.18,4.25A2.09,2.09,0,0,1,459,196.7a40.52,40.52,0,0,0-.89,10.34,2.1,2.1,0,0,1-1.48,2.07l-8.78,2.77a2.11,2.11,0,0,0-1.38,2.66l4.3,13.6a2.12,2.12,0,0,0,2.65,1.38l8.79-2.78a2.09,2.09,0,0,1,2.39.85,40.89,40.89,0,0,0,6.68,7.94,2.11,2.11,0,0,1,.42,2.51l-4.25,8.17a2.12,2.12,0,0,0,.9,2.86L481,255.64a2.11,2.11,0,0,0,2.85-.9l4.25-8.17a2.09,2.09,0,0,1,2.29-1.1,41,41,0,0,0,10.34.9,2.1,2.1,0,0,1,2.07,1.47l2.78,8.79a2.12,2.12,0,0,0,2.65,1.38l13.6-4.3a2.12,2.12,0,0,0,1.38-2.66l-2.77-8.78a2.09,2.09,0,0,1,.84-2.4,40.9,40.9,0,0,0,7.94-6.67,2.08,2.08,0,0,1,2.51-.42l8.18,4.24a2.11,2.11,0,0,0,2.85-.9l6.58-12.65a2.13,2.13,0,0,0-.91-2.86l-8.17-4.25a2.09,2.09,0,0,1-1.1-2.29,41,41,0,0,0,.9-10.34,2.08,2.08,0,0,1,1.48-2.06l8.78-2.78A2.12,2.12,0,0,0,551.68,196.23Zm-45.77,32.42a24.36,24.36,0,1,1,17.42-26.3A24.36,24.36,0,0,1,505.91,228.65Z"/><path class="cls-7" d="M507.57,258.59a2.61,2.61,0,0,1-2.48-1.82L502.31,248a1.57,1.57,0,0,0-1.58-1.13,41.75,41.75,0,0,1-10.46-.91,1.61,1.61,0,0,0-1.76.84L484.27,255a2.62,2.62,0,0,1-3.52,1.11L468.1,249.5a2.58,2.58,0,0,1-1.29-1.53,2.53,2.53,0,0,1,.18-2l4.24-8.18a1.6,1.6,0,0,0-.31-1.92,41.26,41.26,0,0,1-6.76-8,1.6,1.6,0,0,0-1.84-.64L453.54,230a2.61,2.61,0,0,1-3.27-1.7l-4.3-13.6a2.61,2.61,0,0,1,1.7-3.27l8.78-2.78a1.6,1.6,0,0,0,1.14-1.58,41,41,0,0,1,.91-10.47,1.61,1.61,0,0,0-.85-1.75l-8.17-4.25a2.58,2.58,0,0,1-1.11-3.51l6.57-12.66a2.66,2.66,0,0,1,1.53-1.28,2.6,2.6,0,0,1,2,.17l8.17,4.25a1.59,1.59,0,0,0,1.92-.32,41.57,41.57,0,0,1,8-6.75,1.61,1.61,0,0,0,.65-1.84l-2.78-8.78a2.6,2.6,0,0,1,.17-2,2.56,2.56,0,0,1,1.53-1.28l13.6-4.3A2.61,2.61,0,0,1,493,154l2.78,8.78a1.61,1.61,0,0,0,1.57,1.14,41.32,41.32,0,0,1,10.47.9,1.6,1.6,0,0,0,1.75-.84l4.25-8.18a2.61,2.61,0,0,1,3.51-1.11L530,161.27a2.61,2.61,0,0,1,1.11,3.52L526.88,173a1.62,1.62,0,0,0,.32,1.92,41.32,41.32,0,0,1,6.76,8,1.59,1.59,0,0,0,1.83.64l8.79-2.77a2.61,2.61,0,0,1,3.27,1.69l4.3,13.61a2.61,2.61,0,0,1-1.7,3.27l-8.79,2.77a1.61,1.61,0,0,0-1.13,1.58,41.41,41.41,0,0,1-.91,10.47,1.62,1.62,0,0,0,.84,1.75l8.18,4.25a2.61,2.61,0,0,1,1.11,3.51l-6.58,12.66a2.57,2.57,0,0,1-1.52,1.28,2.6,2.6,0,0,1-2-.17l-8.18-4.25a1.61,1.61,0,0,0-1.92.32,40.92,40.92,0,0,1-8,6.75,1.62,1.62,0,0,0-.64,1.84l2.78,8.78a2.61,2.61,0,0,1-1.7,3.27l-13.6,4.3A2.41,2.41,0,0,1,507.57,258.59Zm-6.77-12.72a2.6,2.6,0,0,1,2.45,1.83l2.77,8.78a1.63,1.63,0,0,0,2,1.06l13.6-4.3a1.63,1.63,0,0,0,1.06-2L520,242.42a2.59,2.59,0,0,1,1-3,39.68,39.68,0,0,0,7.85-6.6,2.61,2.61,0,0,1,3.1-.52l8.17,4.25a1.63,1.63,0,0,0,1.24.11,1.61,1.61,0,0,0,.95-.8l6.58-12.66a1.63,1.63,0,0,0-.69-2.19L540,216.8a2.6,2.6,0,0,1-1.35-2.83,40.32,40.32,0,0,0,.89-10.22,2.57,2.57,0,0,1,1.82-2.55l8.78-2.78a1.62,1.62,0,0,0,1.06-2h0l-4.3-13.6a1.63,1.63,0,0,0-2-1.06l-8.78,2.78a2.6,2.6,0,0,1-3-1.05,40,40,0,0,0-6.59-7.85,2.58,2.58,0,0,1-.53-3.09l4.25-8.18a1.61,1.61,0,0,0-.69-2.19l-12.66-6.58a1.63,1.63,0,0,0-2.19.7l-4.25,8.17a2.58,2.58,0,0,1-2.83,1.35,40.32,40.32,0,0,0-10.22-.89,2.59,2.59,0,0,1-2.55-1.81l-2.78-8.79a1.63,1.63,0,0,0-2-1.06l-13.6,4.3a1.63,1.63,0,0,0-1.06,2l2.78,8.78a2.59,2.59,0,0,1-1.05,3,40.26,40.26,0,0,0-7.85,6.6,2.58,2.58,0,0,1-3.09.52L458,174.18a1.63,1.63,0,0,0-1.24-.11,1.66,1.66,0,0,0-1,.8l-6.57,12.66a1.63,1.63,0,0,0-.11,1.24,1.57,1.57,0,0,0,.8.95L458.1,194a2.58,2.58,0,0,1,1.35,2.83,40.35,40.35,0,0,0-.88,10.22,2.59,2.59,0,0,1-1.82,2.55L448,212.35a1.62,1.62,0,0,0-1.06,2L451.2,228a1.63,1.63,0,0,0,2.05,1.06l8.78-2.77a2.57,2.57,0,0,1,3,1,40.67,40.67,0,0,0,6.6,7.85,2.58,2.58,0,0,1,.52,3.09l-4.25,8.18a1.63,1.63,0,0,0,.7,2.19l12.65,6.58a1.63,1.63,0,0,0,1.24.11,1.66,1.66,0,0,0,1-.8l4.25-8.18a2.59,2.59,0,0,1,2.83-1.35,40.28,40.28,0,0,0,10.21.89Zm-1.66-15.77a24.87,24.87,0,1,1,6.9-1l-.13-.47.13.47A24.69,24.69,0,0,1,499.14,230.1Zm0-48.72a23.85,23.85,0,1,0,13.19,4A23.85,23.85,0,0,0,499.14,181.38Z"/><path class="cls-7" d="M485.71,206.82l-.06,0a1.2,1.2,0,0,1-.61-1,1.15,1.15,0,0,1,.61-1l6.89-3.6a1.15,1.15,0,0,1,.55-.14,1.17,1.17,0,0,1,1.15,1.18,1.11,1.11,0,0,1-.58,1l-5,2.63,5,2.7a1.12,1.12,0,0,1,.61,1,1.16,1.16,0,0,1-1.14,1.16,1,1,0,0,1-.53-.14Z"/><path class="cls-7" d="M495.35,213a1.23,1.23,0,0,1,.07-.42l4.89-15.21a1.45,1.45,0,0,1,1.37-1,1.48,1.48,0,0,1,1.42,1.57,1.7,1.7,0,0,1-.07.46l-4.9,15.05a1.44,1.44,0,0,1-1.78.93A1.51,1.51,0,0,1,495.35,213Z"/><path class="cls-7" d="M504.46,203.17a1.11,1.11,0,0,1-.58-1,1.15,1.15,0,0,1,1.7-1l6.88,3.6a1.16,1.16,0,0,1,.61,1,1.17,1.17,0,0,1-.61,1l-.07,0-6.83,3.71a1,1,0,0,1-.54.14,1.15,1.15,0,0,1-1.13-1.16,1.12,1.12,0,0,1,.61-1l5-2.7Z"/><path class="cls-3" d="M466.63,199.07h-.1a.49.49,0,0,1-.38-.58,33.7,33.7,0,0,1,33-26.92h0a.49.49,0,1,1,0,1,33.48,33.48,0,0,0-9.08,1.29,33.08,33.08,0,0,0-22.95,24.85A.48.48,0,0,1,466.63,199.07Z"/><path class="cls-3" d="M499.14,238.92a33.67,33.67,0,0,1-33.44-29.67.49.49,0,0,1,.43-.55.48.48,0,0,1,.54.43,32.7,32.7,0,1,0,42.2-35.1.49.49,0,0,1-.32-.62.48.48,0,0,1,.61-.32,33.68,33.68,0,0,1-10,65.83Z"/><path class="cls-3" d="M499.14,233.18a27.91,27.91,0,1,1,7.76-1.09A28.23,28.23,0,0,1,499.14,233.18Zm0-55.14a27.21,27.21,0,1,0,7.56,53.35h0A27.21,27.21,0,0,0,499.14,178Z"/><rect class="cls-7" x="476.8" y="144.38" width="4.41" height="19.1" rx="1.72"/><path class="cls-7" d="M479.23,164h-.45a2.48,2.48,0,0,1-2.47-2.47V146.36a2.47,2.47,0,0,1,2.47-2.47h.45a2.47,2.47,0,0,1,2.47,2.47v15.13A2.48,2.48,0,0,1,479.23,164Zm-.45-19.09a1.49,1.49,0,0,0-1.49,1.49v15.13a1.49,1.49,0,0,0,1.49,1.49h.45a1.49,1.49,0,0,0,1.49-1.49V146.36a1.49,1.49,0,0,0-1.49-1.49Z"/><path class="cls-7" d="M390.35,259.17V124.79a13.56,13.56,0,0,1,13.55-13.56h-4.61a13.62,13.62,0,0,0-13.62,13.63V259.1a13.62,13.62,0,0,0,13.62,13.62h4.61A13.55,13.55,0,0,1,390.35,259.17Z"/><path class="cls-15" d="M403.9,273.21h-4.61a14.13,14.13,0,0,1-14.11-14.11V124.86a14.13,14.13,0,0,1,14.11-14.12h4.61v1a13.08,13.08,0,0,0-13.06,13.07V259.17a13.08,13.08,0,0,0,13.06,13.06Zm-5.18-161.47a13.15,13.15,0,0,0-12.56,13.12V259.1a13.15,13.15,0,0,0,12.56,13.12,14.06,14.06,0,0,1-8.86-13.05V124.79A14,14,0,0,1,398.72,111.74Z"/><path class="cls-11" d="M388.15,151.62h0a1.15,1.15,0,0,1-1.15-1.16V133.68a1.15,1.15,0,0,1,1.15-1.16h0a1.15,1.15,0,0,1,1.15,1.16v16.78A1.15,1.15,0,0,1,388.15,151.62Z"/><path class="cls-7" d="M388.15,152.11a1.64,1.64,0,0,1-1.64-1.65V133.68a1.64,1.64,0,1,1,3.28,0v16.78A1.64,1.64,0,0,1,388.15,152.11Zm0-19.1a.66.66,0,0,0-.66.67v16.78a.66.66,0,1,0,1.32,0V133.68A.66.66,0,0,0,388.15,133Z"/><path class="cls-11" d="M388.15,176.9h0a1.14,1.14,0,0,1-1.15-1.15V159a1.14,1.14,0,0,1,1.15-1.15h0A1.14,1.14,0,0,1,389.3,159v16.79A1.14,1.14,0,0,1,388.15,176.9Z"/><path class="cls-7" d="M388.15,177.39a1.63,1.63,0,0,1-1.64-1.64V159a1.64,1.64,0,0,1,3.28,0v16.79A1.63,1.63,0,0,1,388.15,177.39Zm0-19.09a.66.66,0,0,0-.66.66v16.79a.66.66,0,0,0,1.32,0V159A.66.66,0,0,0,388.15,158.3Z"/><path class="cls-8" d="M465.16,111.23H403.9a13.56,13.56,0,0,0-13.55,13.56V259.17a13.55,13.55,0,0,0,13.55,13.55h61.26a13.55,13.55,0,0,0,13.55-13.55V124.79A13.55,13.55,0,0,0,465.16,111.23Z"/><path class="cls-7" d="M465.16,273.21H403.9a14.06,14.06,0,0,1-14-14V124.79a14.06,14.06,0,0,1,14-14.05h61.26a14.06,14.06,0,0,1,14,14.05V259.17A14.06,14.06,0,0,1,465.16,273.21ZM403.9,111.72a13.08,13.08,0,0,0-13.06,13.07V259.17a13.08,13.08,0,0,0,13.06,13.06h61.26a13.08,13.08,0,0,0,13.06-13.06V124.79a13.08,13.08,0,0,0-13.06-13.07Z"/><path class="cls-3" d="M434.53,122.62a2.3,2.3,0,1,1,2.31-2.3A2.3,2.3,0,0,1,434.53,122.62Zm0-3.87a1.57,1.57,0,1,0,1.57,1.57A1.58,1.58,0,0,0,434.53,118.75Z"/><path class="cls-3" d="M428.2,121.56h-9a1.21,1.21,0,0,1,0-2.42h9a1.21,1.21,0,1,1,0,2.42Zm-9-1.69a.48.48,0,0,0-.47.48.47.47,0,0,0,.47.47h9a.47.47,0,0,0,.47-.47.48.48,0,0,0-.47-.48Z"/><path class="cls-3" d="M450.11,121.56h-9a1.21,1.21,0,1,1,0-2.42h9a1.21,1.21,0,0,1,0,2.42Zm-9-1.69a.48.48,0,0,0-.47.48.47.47,0,0,0,.47.47h9a.47.47,0,0,0,.47-.47.48.48,0,0,0-.47-.48Z"/><rect class="cls-3" x="397.25" y="126.49" width="74.57" height="132.57"/><path class="cls-7" d="M471.82,259.55H397.25a.49.49,0,0,1-.49-.49V126.49a.48.48,0,0,1,.49-.49h74.57a.48.48,0,0,1,.49.49V259.06A.49.49,0,0,1,471.82,259.55Zm-74.08-1h73.59V127H397.74Z"/><rect class="cls-7" x="397.76" y="126.97" width="73.56" height="10.19"/><path class="cls-3" d="M453.31,133.67A1.65,1.65,0,1,1,455,132,1.65,1.65,0,0,1,453.31,133.67Zm0-2.56a.91.91,0,1,0,.91.91A.91.91,0,0,0,453.31,131.11Z"/><path class="cls-3" d="M460,133.67A1.65,1.65,0,1,1,461.6,132,1.65,1.65,0,0,1,460,133.67Zm0-2.56a.91.91,0,1,0,.91.91A.91.91,0,0,0,460,131.11Z"/><path class="cls-3" d="M466.72,133.67a1.65,1.65,0,1,1,1.65-1.65A1.64,1.64,0,0,1,466.72,133.67Zm0-2.56a.91.91,0,1,0,.91.91A.91.91,0,0,0,466.72,131.11Z"/><path class="cls-12" d="M432.24,152.84H409.58a.49.49,0,0,1,0-1h22.66a.49.49,0,0,1,0,1Z"/><path class="cls-7" d="M446,152.84h-8.1a.49.49,0,1,1,0-1H446a.49.49,0,0,1,0,1Z"/><path class="cls-7" d="M459.89,152.84h-7.42a.49.49,0,0,1,0-1h7.42a.49.49,0,0,1,0,1Z"/><path class="cls-12" d="M459.89,170.38H437.23a.49.49,0,0,1,0-1h22.66a.49.49,0,0,1,0,1Z"/><path class="cls-7" d="M431.57,170.38h-8.1a.49.49,0,0,1,0-1h8.1a.49.49,0,0,1,0,1Z"/><path class="cls-7" d="M417,170.38h-7.42a.49.49,0,0,1,0-1H417a.49.49,0,0,1,0,1Z"/><path class="cls-12" d="M421.24,161.52H409.58a.49.49,0,0,1,0-1h11.66a.49.49,0,0,1,0,1Z"/><path class="cls-7" d="M446,161.52H426.21a.49.49,0,1,1,0-1H446a.49.49,0,0,1,0,1Z"/><path class="cls-12" d="M459.89,161.52h-7.42a.49.49,0,0,1,0-1h7.42a.49.49,0,0,1,0,1Z"/><path class="cls-12" d="M432.24,178.17H409.58a.49.49,0,1,1,0-1h22.66a.49.49,0,1,1,0,1Z"/><path class="cls-7" d="M446,178.17h-8.1a.49.49,0,0,1,0-1H446a.49.49,0,1,1,0,1Z"/><path class="cls-12" d="M432.24,206.29H409.58a.49.49,0,1,1,0-1h22.66a.49.49,0,1,1,0,1Z"/><path class="cls-7" d="M446,206.29h-8.1a.49.49,0,0,1,0-1H446a.49.49,0,1,1,0,1Z"/><path class="cls-7" d="M459.89,178.17h-7.42a.49.49,0,1,1,0-1h7.42a.49.49,0,1,1,0,1Z"/><path class="cls-12" d="M459.89,195.71H437.23a.48.48,0,0,1-.49-.49.49.49,0,0,1,.49-.49h22.66a.49.49,0,0,1,.49.49A.48.48,0,0,1,459.89,195.71Z"/><path class="cls-7" d="M431.57,195.71h-8.1a.48.48,0,0,1-.49-.49.49.49,0,0,1,.49-.49h8.1a.49.49,0,0,1,.49.49A.48.48,0,0,1,431.57,195.71Z"/><path class="cls-7" d="M417,195.71h-7.42a.48.48,0,0,1-.49-.49.49.49,0,0,1,.49-.49H417a.49.49,0,0,1,.49.49A.48.48,0,0,1,417,195.71Z"/><path class="cls-12" d="M431.57,215.8h-8.1a.49.49,0,0,1-.49-.49.48.48,0,0,1,.49-.49h8.1a.48.48,0,0,1,.49.49A.49.49,0,0,1,431.57,215.8Z"/><path class="cls-12" d="M417,215.8h-7.42a.49.49,0,0,1-.49-.49.48.48,0,0,1,.49-.49H417a.48.48,0,0,1,.49.49A.49.49,0,0,1,417,215.8Z"/><path class="cls-12" d="M421.24,186.86H409.58a.49.49,0,0,1-.49-.49.48.48,0,0,1,.49-.49h11.66a.48.48,0,0,1,.49.49A.49.49,0,0,1,421.24,186.86Z"/><path class="cls-7" d="M446,186.86H426.21a.48.48,0,0,1-.49-.49.48.48,0,0,1,.49-.49H446a.48.48,0,0,1,.49.49A.49.49,0,0,1,446,186.86Z"/><path class="cls-12" d="M459.89,186.86h-7.42a.49.49,0,0,1-.49-.49.48.48,0,0,1,.49-.49h7.42a.48.48,0,0,1,.49.49A.49.49,0,0,1,459.89,186.86Z"/><path class="cls-7" d="M429.22,225.13H409.43a.49.49,0,0,1,0-1h19.79a.49.49,0,1,1,0,1Z"/><path class="cls-12" d="M416.89,233.87h-7.42a.49.49,0,0,1,0-1h7.42a.49.49,0,0,1,0,1Z"/><rect class="cls-11" x="46.83" y="325.55" width="107.45" height="76.57" rx="2.03" transform="translate(201.1 727.68) rotate(180)"/><path class="cls-16" d="M48.86,402.12H152.24a2,2,0,0,0,2-2v-72.5a2,2,0,0,0-2-2H48.86a2,2,0,0,0-2,2v72.5A2,2,0,0,0,48.86,402.12Z"/><path class="cls-12" d="M52.85,319.76H160.28a0,0,0,0,1,0,0v10.48a2.42,2.42,0,0,1-2.42,2.42H56a3.13,3.13,0,0,1-3.13-3.13v-9.77A0,0,0,0,1,52.85,319.76Z" transform="translate(213.13 652.41) rotate(180)"/><path class="cls-7" d="M160.77,333.15H52.36v-11a2.86,2.86,0,0,1,2.86-2.86h102a3.56,3.56,0,0,1,3.56,3.55Zm-107.43-1H159.79v-9.35a2.58,2.58,0,0,0-2.58-2.57h-102a1.88,1.88,0,0,0-1.88,1.88Z"/><path class="cls-3" d="M67,328.53a2.48,2.48,0,1,1,2.47-2.47A2.48,2.48,0,0,1,67,328.53Zm0-4a1.5,1.5,0,1,0,1.49,1.5A1.5,1.5,0,0,0,67,324.56Z"/><path class="cls-3" d="M74.7,328.53a2.48,2.48,0,1,1,2.47-2.47A2.48,2.48,0,0,1,74.7,328.53Zm0-4a1.5,1.5,0,1,0,1.49,1.5A1.5,1.5,0,0,0,74.7,324.56Z"/><path class="cls-3" d="M59.28,328.53a2.48,2.48,0,1,1,2.47-2.47A2.48,2.48,0,0,1,59.28,328.53Zm0-4a1.5,1.5,0,1,0,1.49,1.5A1.5,1.5,0,0,0,59.28,324.56Z"/><rect class="cls-3" x="52.8" y="332.66" width="107.45" height="63.13" rx="0.35" transform="translate(213.05 728.45) rotate(180)"/><path class="cls-7" d="M159.9,396.28H53.15a.84.84,0,0,1-.84-.83V333a.84.84,0,0,1,.84-.84H159.9a.84.84,0,0,1,.84.84v62.44A.84.84,0,0,1,159.9,396.28Zm-106.61-1H159.76V333.15H53.29Z"/><path class="cls-7" d="M146.24,348.46H97.94a.49.49,0,1,1,0-1h48.3a.49.49,0,0,1,0,1Z"/><path class="cls-12" d="M114.91,355.78h-17a.49.49,0,0,1,0-1h17a.49.49,0,1,1,0,1Z"/><path class="cls-7" d="M142.49,355.78h-20.6a.49.49,0,1,1,0-1h20.6a.49.49,0,1,1,0,1Z"/><path class="cls-12" d="M128.9,378h-31a.49.49,0,0,1,0-1h31a.49.49,0,0,1,0,1Z"/><path class="cls-12" d="M146.67,363.49H97.94a.49.49,0,0,1-.49-.49.48.48,0,0,1,.49-.49h48.73a.48.48,0,0,1,.49.49A.49.49,0,0,1,146.67,363.49Z"/><path class="cls-7" d="M113.38,370.81H97.94a.49.49,0,0,1,0-1h15.44a.49.49,0,0,1,0,1Z"/><path class="cls-12" d="M146.24,370.81H118.13a.49.49,0,0,1,0-1h28.11a.49.49,0,1,1,0,1Z"/><path class="cls-12" d="M64.82,361.66a12.13,12.13,0,0,1,10-11.93L74.35,347a14.93,14.93,0,0,0-12.22,17.2l2.87-.49A12,12,0,0,1,64.82,361.66Z"/><path class="cls-3" d="M91.75,362.18a15.34,15.34,0,0,0-.2-3h0A15.34,15.34,0,0,1,91.75,362.18Z"/><path class="cls-11" d="M77,373.78a12.12,12.12,0,0,1-12-10.12l-2.87.49a14.92,14.92,0,0,0,17.2,12.21l-.46-2.74A12.23,12.23,0,0,1,77,373.78Z"/><path class="cls-7" d="M91.55,359.17h0A14.92,14.92,0,0,0,74.35,347l.47,2.78a12.4,12.4,0,0,1,2.13-.2,12.12,12.12,0,0,1,1.92,24.09l.46,2.74a14.9,14.9,0,0,0,12.42-14.18A15.34,15.34,0,0,0,91.55,359.17Z"/><circle class="cls-7" cx="156.33" cy="325.89" r="17.61"/><path class="cls-7" d="M156.33,344a18.1,18.1,0,1,1,18.1-18.1A18.11,18.11,0,0,1,156.33,344Zm0-35.22a17.12,17.12,0,1,0,17.12,17.12A17.14,17.14,0,0,0,156.33,308.77Z"/><circle class="cls-7" cx="157.92" cy="324.18" r="17.61"/><path class="cls-7" d="M157.92,342.28a18.1,18.1,0,1,1,18.1-18.1A18.12,18.12,0,0,1,157.92,342.28Zm0-35.22A17.12,17.12,0,1,0,175,324.18,17.14,17.14,0,0,0,157.92,307.06Z"/><path class="cls-3" d="M166,332.38a8.3,8.3,0,0,0-16.59,0S166,332.42,166,332.38Z"/><path class="cls-7" d="M158.62,332.9h-6.25c-3.43,0-3.43,0-3.43-.51a8.79,8.79,0,0,1,17.57,0C166.51,332.9,166.51,332.9,158.62,332.9Zm7.39-.52h0Zm-16.08-.48c2.42,0,13.21,0,15.59,0a7.81,7.81,0,0,0-15.59,0Z"/><path class="cls-3" d="M153.07,318.23a4.71,4.71,0,1,0,4.71-4.72A4.71,4.71,0,0,0,153.07,318.23Z"/><path class="cls-7" d="M157.78,323.43a5.21,5.21,0,1,1,5.2-5.2A5.2,5.2,0,0,1,157.78,323.43Zm0-9.43a4.23,4.23,0,1,0,4.22,4.23A4.23,4.23,0,0,0,157.78,314Z"/><rect class="cls-3" x="268.71" y="120.22" width="79.46" height="51.93"/><path class="cls-7" d="M348.17,172.64H268.71a.49.49,0,0,1-.49-.49V120.22a.49.49,0,0,1,.49-.49h79.46a.49.49,0,0,1,.49.49v51.93A.49.49,0,0,1,348.17,172.64Zm-79-1h78.48V120.71H269.2Z"/><rect class="cls-7" x="266.09" y="93.12" width="100.04" height="29.05" rx="4.94"/><path class="cls-7" d="M361.29,122.67H270.93a5.33,5.33,0,0,1-5.33-5.33V98a5.33,5.33,0,0,1,5.33-5.33h90.36A5.33,5.33,0,0,1,366.62,98v19.38A5.33,5.33,0,0,1,361.29,122.67ZM270.93,93.61A4.35,4.35,0,0,0,266.58,98v19.38a4.35,4.35,0,0,0,4.35,4.35h90.36a4.35,4.35,0,0,0,4.35-4.35V98a4.35,4.35,0,0,0-4.35-4.35Z"/><rect class="cls-7" x="266.09" y="124.86" width="100.04" height="29.05" rx="4.94"/><path class="cls-7" d="M361.29,154.4H270.93a5.33,5.33,0,0,1-5.33-5.32V129.7a5.33,5.33,0,0,1,5.33-5.33h90.36a5.33,5.33,0,0,1,5.33,5.33v19.38A5.33,5.33,0,0,1,361.29,154.4Zm-90.36-29.05a4.35,4.35,0,0,0-4.35,4.35v19.38a4.35,4.35,0,0,0,4.35,4.34h90.36a4.35,4.35,0,0,0,4.35-4.34V129.7a4.35,4.35,0,0,0-4.35-4.35Z"/><rect class="cls-7" x="266.09" y="157.3" width="100.04" height="29.05" rx="4.94"/><path class="cls-7" d="M361.29,186.84H270.93a5.33,5.33,0,0,1-5.33-5.33V162.13a5.33,5.33,0,0,1,5.33-5.32h90.36a5.33,5.33,0,0,1,5.33,5.32v19.38A5.33,5.33,0,0,1,361.29,186.84Zm-90.36-29.05a4.35,4.35,0,0,0-4.35,4.34v19.38a4.35,4.35,0,0,0,4.35,4.35h90.36a4.35,4.35,0,0,0,4.35-4.35V162.13a4.35,4.35,0,0,0-4.35-4.34Z"/><rect class="cls-3" x="282.12" y="93.12" width="88.56" height="29.05" rx="4.64"/><path class="cls-7" d="M366.13,122.67H286.67a5.05,5.05,0,0,1-5-5v-20a5,5,0,0,1,5-5h79.46a5,5,0,0,1,5,5v20A5.05,5.05,0,0,1,366.13,122.67ZM286.67,93.61a4.06,4.06,0,0,0-4.06,4.06v20a4.07,4.07,0,0,0,4.06,4.07h79.46a4.07,4.07,0,0,0,4.06-4.07v-20a4.06,4.06,0,0,0-4.06-4.06Z"/><path class="cls-3" d="M300.32,107.65a4.46,4.46,0,1,1-4.46-4.46A4.46,4.46,0,0,1,300.32,107.65Z"/><path class="cls-7" d="M295.86,112.6a4.95,4.95,0,1,1,4.95-4.95A5,5,0,0,1,295.86,112.6Zm0-8.92a4,4,0,1,0,4,4A4,4,0,0,0,295.86,103.68Z"/><rect class="cls-3" x="309.6" y="101.87" width="52.51" height="11.55" rx="0.61"/><path class="cls-7" d="M361.51,113.91H310.2a1.08,1.08,0,0,1-1.09-1.08V102.47a1.09,1.09,0,0,1,1.09-1.09h51.31a1.08,1.08,0,0,1,1.08,1.09v10.36A1.08,1.08,0,0,1,361.51,113.91ZM310.2,102.36a.11.11,0,0,0-.11.11v10.36a.1.1,0,0,0,.11.1h51.31a.09.09,0,0,0,.1-.1V102.47a.1.1,0,0,0-.1-.11Z"/><path class="cls-7" d="M332,106.18H314.67a.49.49,0,0,1,0-1H332a.49.49,0,0,1,0,1Z"/><path class="cls-12" d="M345.83,106.18H335.44a.49.49,0,0,1,0-1h10.39a.49.49,0,0,1,0,1Z"/><path class="cls-12" d="M326.49,110H316.1a.49.49,0,0,1,0-1h10.39a.49.49,0,0,1,0,1Z"/><path class="cls-7" d="M356.12,106.18H350a.49.49,0,1,1,0-1h6.09a.49.49,0,0,1,0,1Z"/><path class="cls-7" d="M341.07,110.27H335a.49.49,0,1,1,0-1h6.09a.49.49,0,0,1,0,1Z"/><rect class="cls-3" x="282.12" y="124.86" width="88.56" height="29.05" rx="4.64"/><path class="cls-7" d="M366.13,154.4H286.67a5,5,0,0,1-5-5v-20a5,5,0,0,1,5-5h79.46a5,5,0,0,1,5,5v20A5,5,0,0,1,366.13,154.4Zm-79.46-29.05a4.06,4.06,0,0,0-4.06,4.06v20a4.06,4.06,0,0,0,4.06,4.06h79.46a4.06,4.06,0,0,0,4.06-4.06v-20a4.06,4.06,0,0,0-4.06-4.06Z"/><path class="cls-3" d="M300.32,139.39a4.46,4.46,0,1,1-4.46-4.47A4.46,4.46,0,0,1,300.32,139.39Z"/><path class="cls-7" d="M295.86,144.34a5,5,0,1,1,4.95-5A5,5,0,0,1,295.86,144.34Zm0-8.93a4,4,0,1,0,4,4A4,4,0,0,0,295.86,135.41Z"/><rect class="cls-3" x="309.6" y="133.61" width="52.51" height="11.55" rx="0.61"/><path class="cls-7" d="M361.51,145.65H310.2a1.09,1.09,0,0,1-1.09-1.09V134.21a1.09,1.09,0,0,1,1.09-1.09h51.31a1.08,1.08,0,0,1,1.08,1.09v10.35A1.08,1.08,0,0,1,361.51,145.65ZM310.2,134.1a.11.11,0,0,0-.11.11v10.35a.11.11,0,0,0,.11.11h51.31a.1.1,0,0,0,.1-.11V134.21a.1.1,0,0,0-.1-.11Z"/><path class="cls-7" d="M332,137.92H314.67a.49.49,0,0,1,0-1H332a.49.49,0,1,1,0,1Z"/><path class="cls-12" d="M345.83,137.92H335.44a.49.49,0,0,1,0-1h10.39a.49.49,0,1,1,0,1Z"/><path class="cls-12" d="M326.49,141.68H316.1a.49.49,0,0,1,0-1h10.39a.49.49,0,0,1,0,1Z"/><path class="cls-7" d="M356.12,137.92H350a.49.49,0,1,1,0-1h6.09a.49.49,0,1,1,0,1Z"/><path class="cls-7" d="M341.07,142H335a.49.49,0,0,1-.49-.49A.48.48,0,0,1,335,141h6.09a.48.48,0,0,1,.49.49A.49.49,0,0,1,341.07,142Z"/><rect class="cls-7" x="286.67" y="122.18" width="79.46" height="2.68"/><path class="cls-7" d="M366.13,125.35H286.67a.49.49,0,0,1-.49-.49v-2.68a.48.48,0,0,1,.49-.49h79.46a.48.48,0,0,1,.49.49v2.68A.49.49,0,0,1,366.13,125.35Zm-79-1h78.48v-1.7H287.16Z"/><rect class="cls-3" x="282.12" y="157.3" width="88.56" height="29.05" rx="4.64"/><path class="cls-7" d="M366.13,186.84H286.67a5,5,0,0,1-5-5v-20a5,5,0,0,1,5-5h79.46a5,5,0,0,1,5,5v20A5,5,0,0,1,366.13,186.84Zm-79.46-29.05a4.06,4.06,0,0,0-4.06,4.06v20a4.06,4.06,0,0,0,4.06,4.06h79.46a4.06,4.06,0,0,0,4.06-4.06v-20a4.06,4.06,0,0,0-4.06-4.06Z"/><path class="cls-3" d="M300.32,171.82a4.46,4.46,0,1,1-4.46-4.46A4.47,4.47,0,0,1,300.32,171.82Z"/><path class="cls-7" d="M295.86,176.78a5,5,0,1,1,4.95-5A5,5,0,0,1,295.86,176.78Zm0-8.93a4,4,0,1,0,4,4A4,4,0,0,0,295.86,167.85Z"/><rect class="cls-3" x="309.6" y="166.05" width="52.51" height="11.55" rx="0.61"/><path class="cls-7" d="M361.51,178.09H310.2a1.09,1.09,0,0,1-1.09-1.09V166.65a1.09,1.09,0,0,1,1.09-1.09h51.31a1.08,1.08,0,0,1,1.08,1.09V177A1.08,1.08,0,0,1,361.51,178.09ZM310.2,166.54a.11.11,0,0,0-.11.11V177a.11.11,0,0,0,.11.11h51.31a.1.1,0,0,0,.1-.11V166.65a.1.1,0,0,0-.1-.11Z"/><path class="cls-7" d="M332,170.36H314.67a.49.49,0,0,1,0-1H332a.49.49,0,0,1,0,1Z"/><path class="cls-12" d="M345.83,170.36H335.44a.49.49,0,0,1,0-1h10.39a.49.49,0,1,1,0,1Z"/><path class="cls-12" d="M326.49,174.12H316.1a.49.49,0,0,1,0-1h10.39a.49.49,0,0,1,0,1Z"/><path class="cls-7" d="M356.12,170.36H350a.49.49,0,1,1,0-1h6.09a.49.49,0,0,1,0,1Z"/><path class="cls-7" d="M341.07,174.44H335a.49.49,0,0,1,0-1h6.09a.49.49,0,0,1,0,1Z"/><rect class="cls-7" x="286.67" y="154.61" width="79.46" height="2.68"/><path class="cls-7" d="M366.13,157.79H286.67a.49.49,0,0,1-.49-.49v-2.69a.49.49,0,0,1,.49-.49h79.46a.49.49,0,0,1,.49.49v2.69A.49.49,0,0,1,366.13,157.79Zm-79-1h78.48V155.1H287.16Z"/><g class="cls-17"><polygon class="cls-4" points="77.32 163.91 59.63 163.91 59.63 148.93 60.61 148.93 60.61 162.93 76.34 162.93 76.34 149.1 77.32 149.1 77.32 163.91"/><rect class="cls-4" x="69.5" y="148.61" width="20.46" height="0.98"/><rect class="cls-4" x="69.5" y="138.89" width="20.46" height="0.98"/><path class="cls-4" d="M60.17,149.59a2.33,2.33,0,1,1,2.32-2.32A2.32,2.32,0,0,1,60.17,149.59Zm0-3.67a1.35,1.35,0,1,0,1.34,1.35A1.35,1.35,0,0,0,60.17,145.92Z"/><path class="cls-4" d="M67.75,151.44a2.33,2.33,0,1,1,2.33-2.33A2.33,2.33,0,0,1,67.75,151.44Zm0-3.67a1.35,1.35,0,0,0,0,2.69,1.35,1.35,0,1,0,0-2.69Z"/><path class="cls-4" d="M67.75,141.69a2.33,2.33,0,1,1,2.33-2.32A2.32,2.32,0,0,1,67.75,141.69Zm0-3.67a1.35,1.35,0,1,0,1.35,1.35A1.34,1.34,0,0,0,67.75,138Z"/></g><path class="cls-11" d="M238.2,144.09c0-.31,0-.62,0-.93-.29-16.45-14.54-29.92-30.84-29.92a30.82,30.82,0,0,0-8.21,1.11,41.89,41.89,0,0,0-80.62,14.76h-7a23.14,23.14,0,0,0-23.14,23.14v.31a23.14,23.14,0,0,0,23.14,23.14h99C228,175.7,239.34,159.1,238.2,144.09Z"/><g class="cls-18"><path class="cls-9" d="M238.2,144.09c0-.31,0-.62,0-.93-.29-16.45-14.54-29.92-30.84-29.92a30.82,30.82,0,0,0-8.21,1.11,41.89,41.89,0,0,0-80.62,14.76h-7a23.14,23.14,0,0,0-23.14,23.14v.31a23.14,23.14,0,0,0,23.14,23.14h99C228,175.7,239.34,159.1,238.2,144.09Z"/></g><path class="cls-7" d="M238.43,138.41c0-.31,0-.62,0-.93-.29-16.46-14.53-29.92-30.84-29.92a30.93,30.93,0,0,0-8.21,1.11,41.89,41.89,0,0,0-80.61,14.76h-7A23.14,23.14,0,0,0,88.6,146.57v.31A23.14,23.14,0,0,0,111.73,170h99C228.2,170,239.56,153.42,238.43,138.41Z"/><path class="cls-7" d="M210.69,170.5h-99a23.65,23.65,0,0,1-23.62-23.62v-.31a23.65,23.65,0,0,1,23.62-23.63h6.55a42.38,42.38,0,0,1,81.38-14.85,31.23,31.23,0,0,1,7.92-1c16.7,0,31,13.92,31.33,30.4,0,.13,0,.26,0,.39s0,.34,0,.51a31.43,31.43,0,0,1-8.29,23.29A27,27,0,0,1,210.69,170.5Zm-99-46.58a22.67,22.67,0,0,0-22.64,22.65v.31a22.67,22.67,0,0,0,22.64,22.64h99A26,26,0,0,0,229.9,161a30.44,30.44,0,0,0,8-22.55c0-.21,0-.41,0-.62s0-.23,0-.34c-.28-16-14.18-29.44-30.35-29.44a30.32,30.32,0,0,0-8.08,1.09.48.48,0,0,1-.58-.28,41.4,41.4,0,0,0-79.67,14.58.5.5,0,0,1-.49.48Z"/><path class="cls-3" d="M150,169.5a.49.49,0,0,1-.49-.49V140.86a.49.49,0,0,1,1,0V169A.49.49,0,0,1,150,169.5Z"/><path class="cls-3" d="M149.81,153.81H138a.49.49,0,0,1-.49-.49V143a.49.49,0,0,1,1,0v9.8h11.37a.49.49,0,1,1,0,1Z"/><path class="cls-3" d="M138,143.4a2,2,0,1,1,2-2A2,2,0,0,1,138,143.4Zm0-3a1,1,0,1,0,1,1A1,1,0,0,0,138,140.4Z"/><path class="cls-3" d="M163.34,169.59a.49.49,0,0,1-.49-.49V127.3a.49.49,0,1,1,1,0v41.8A.49.49,0,0,1,163.34,169.59Z"/><path class="cls-3" d="M150,141.07a3,3,0,1,1,3-3A3,3,0,0,1,150,141.07Zm0-5a2,2,0,1,0,2,2A2,2,0,0,0,150,136Z"/><path class="cls-3" d="M177.13,169.5a.49.49,0,0,1-.49-.49V140.86a.49.49,0,0,1,1,0V169A.49.49,0,0,1,177.13,169.5Z"/><path class="cls-3" d="M189.15,153.81H177.29a.49.49,0,1,1,0-1h11.37V143a.49.49,0,1,1,1,0v10.29A.49.49,0,0,1,189.15,153.81Z"/><path class="cls-3" d="M189.12,143.4a2,2,0,1,1,2-2A2,2,0,0,1,189.12,143.4Zm0-3a1,1,0,1,0,1,1A1,1,0,0,0,189.12,140.4Z"/><path class="cls-3" d="M177.15,141.07a3,3,0,1,1,3-3A3,3,0,0,1,177.15,141.07Zm0-5a2,2,0,1,0,2,2A2,2,0,0,0,177.15,136Z"/><path class="cls-3" d="M163.36,127.46a3.48,3.48,0,1,1,3.48-3.48A3.48,3.48,0,0,1,163.36,127.46Zm0-6a2.5,2.5,0,1,0,2.5,2.5A2.5,2.5,0,0,0,163.36,121.48Z"/><path class="cls-8" d="M345.45,283.48H521.6a4.93,4.93,0,0,1,4.93,4.93V410.34a1.72,1.72,0,0,1-1.72,1.72H342.25a1.72,1.72,0,0,1-1.72-1.72V288.41A4.93,4.93,0,0,1,345.45,283.48Z"/><path class="cls-19" d="M524.84,412.56H342.21a2.19,2.19,0,0,1-2.18-2.18V288.31a5.32,5.32,0,0,1,5.32-5.32H521.69a5.33,5.33,0,0,1,5.33,5.32V410.38A2.19,2.19,0,0,1,524.84,412.56ZM345.35,284a4.34,4.34,0,0,0-4.34,4.34V410.38a1.2,1.2,0,0,0,1.2,1.2H524.84a1.2,1.2,0,0,0,1.2-1.2V288.31a4.34,4.34,0,0,0-4.35-4.34Z"/><rect class="cls-3" x="354.12" y="295.81" width="158.8" height="103.92"/><path class="cls-7" d="M512.92,400.22H354.12a.49.49,0,0,1-.49-.49V295.82a.48.48,0,0,1,.49-.49h158.8a.48.48,0,0,1,.49.49V399.73A.49.49,0,0,1,512.92,400.22Zm-158.31-1H512.43V296.31H354.61Z"/><path class="cls-3" d="M433.52,291.7a1.92,1.92,0,1,1,1.92-1.91A1.92,1.92,0,0,1,433.52,291.7Zm0-2.85a.94.94,0,1,0,.94.94A.94.94,0,0,0,433.52,288.85Z"/><path class="cls-11" d="M310.08,411.09H557a0,0,0,0,1,0,0v10a6.62,6.62,0,0,1-6.62,6.62H316.7a6.62,6.62,0,0,1-6.62-6.62v-10A0,0,0,0,1,310.08,411.09Z"/><path class="cls-7" d="M550.48,428.23H316.57a7,7,0,0,1-7-7V411.09a.49.49,0,0,1,.49-.49H557a.49.49,0,0,1,.49.49v10.16A7,7,0,0,1,550.48,428.23ZM310.57,411.58v9.67a6,6,0,0,0,6,6H550.48a6,6,0,0,0,6-6v-9.67Z"/><path class="cls-7" d="M554.61,424.33H312.44a.49.49,0,0,1,0-1H554.61a.49.49,0,1,1,0,1Z"/><rect class="cls-3" x="409.96" y="412.13" width="47.12" height="5.2"/><path class="cls-7" d="M457.08,417.83H410a.49.49,0,0,1-.49-.49v-5.21a.49.49,0,0,1,.49-.49h47.12a.48.48,0,0,1,.49.49v5.21A.48.48,0,0,1,457.08,417.83Zm-46.63-1h46.14v-4.23H410.45Z"/><rect class="cls-11" x="378.77" y="313.51" width="99.53" height="72.62" rx="1.9" transform="translate(857.07 699.63) rotate(180)"/><path class="cls-12" d="M384.35,308h99.51a0,0,0,0,1,0,0v10a2.27,2.27,0,0,1-2.27,2.27H387.28a2.93,2.93,0,0,1-2.93-2.93V308A0,0,0,0,1,384.35,308Z" transform="translate(868.21 628.25) rotate(180)"/><path class="cls-7" d="M484.35,320.73H383.86v-10.5a2.71,2.71,0,0,1,2.71-2.71H481a3.37,3.37,0,0,1,3.36,3.36Zm-99.51-1h98.53v-8.87A2.39,2.39,0,0,0,481,308.5H386.57a1.73,1.73,0,0,0-1.73,1.73Z"/><path class="cls-3" d="M397.87,316.35a2.37,2.37,0,1,1,2.37-2.37A2.38,2.38,0,0,1,397.87,316.35Zm0-3.76a1.39,1.39,0,1,0,1.39,1.39A1.39,1.39,0,0,0,397.87,312.59Z"/><path class="cls-3" d="M405.21,316.35a2.37,2.37,0,1,1,2.37-2.37A2.37,2.37,0,0,1,405.21,316.35Zm0-3.76A1.39,1.39,0,1,0,406.6,314,1.39,1.39,0,0,0,405.21,312.59Z"/><path class="cls-3" d="M390.58,316.35A2.37,2.37,0,1,1,393,314,2.38,2.38,0,0,1,390.58,316.35Zm0-3.76A1.39,1.39,0,1,0,392,314,1.39,1.39,0,0,0,390.58,312.59Z"/><rect class="cls-3" x="384.31" y="320.24" width="99.53" height="59.88" rx="0.33" transform="translate(868.14 700.37) rotate(180)"/><path class="cls-7" d="M483.51,380.62H384.63a.82.82,0,0,1-.81-.82V320.57a.82.82,0,0,1,.81-.82h98.88a.82.82,0,0,1,.81.82V379.8A.82.82,0,0,1,483.51,380.62Zm-98.71-1h98.54V320.73H384.8Z"/><path class="cls-3" d="M452.66,332.34h21.66a.16.16,0,0,1,.16.16v33.63a.16.16,0,0,1-.16.16H452.66a.17.17,0,0,1-.17-.17V332.5A.17.17,0,0,1,452.66,332.34Z"/><path class="cls-11" d="M474.32,366.79H452.65a.66.66,0,0,1-.65-.66V332.5a.65.65,0,0,1,.65-.65h21.67a.65.65,0,0,1,.65.65v33.63A.66.66,0,0,1,474.32,366.79Zm-21.34-1h21v-33H453Z"/><line class="cls-3" x1="453.03" y1="332.98" x2="474.27" y2="365.86"/><path class="cls-11" d="M474.27,366.35a.47.47,0,0,1-.41-.22l-21.24-32.88a.5.5,0,0,1,.14-.68.49.49,0,0,1,.68.15l21.24,32.88a.48.48,0,0,1-.41.75Z"/><line class="cls-3" x1="473.84" y1="332.87" x2="452.65" y2="366.3"/><path class="cls-11" d="M452.65,366.79a.5.5,0,0,1-.26-.08.49.49,0,0,1-.15-.68l21.18-33.42a.5.5,0,0,1,.68-.15.49.49,0,0,1,.15.68l-21.18,33.42A.51.51,0,0,1,452.65,366.79Z"/><path class="cls-7" d="M443.31,335.25H397.5a.49.49,0,0,1,0-1h45.81a.49.49,0,0,1,0,1Z"/><path class="cls-12" d="M413.59,342.2H397.5a.49.49,0,0,1,0-1h16.09a.49.49,0,1,1,0,1Z"/><path class="cls-7" d="M439.75,342.2H420.21a.49.49,0,1,1,0-1h19.54a.49.49,0,1,1,0,1Z"/><path class="cls-12" d="M426.86,363.29H397.5a.49.49,0,0,1,0-1h29.36a.49.49,0,0,1,0,1Z"/><path class="cls-12" d="M443.71,349.51H397.5a.49.49,0,0,1,0-1h46.21a.49.49,0,1,1,0,1Z"/><path class="cls-7" d="M412.14,356.46H397.5A.49.49,0,0,1,397,356a.48.48,0,0,1,.49-.49h14.64a.48.48,0,0,1,.49.49A.49.49,0,0,1,412.14,356.46Z"/><path class="cls-12" d="M443.31,356.46H416.65a.49.49,0,0,1-.49-.49.48.48,0,0,1,.49-.49h26.66a.48.48,0,0,1,.49.49A.49.49,0,0,1,443.31,356.46Z"/><path class="cls-3" d="M421.38,348.24a14.63,14.63,0,0,0-.19-2.86h0A14.63,14.63,0,0,1,421.38,348.24Z"/><path class="cls-11" d="M550,286.62c-18.49-.7-24.37-11.53-25.2-13.29h-.13c-.83,1.76-6.71,12.59-25.2,13.29,0,0-3.92,38.09,24.7,44.93h1.13C553.89,324.71,550,286.62,550,286.62Z"/><path class="cls-11" d="M525.32,332l-1.3,0c-28.71-6.86-25.12-45.07-25.08-45.45l0-.43h.43c18-.68,23.81-11,24.78-13l.13-.28h.75l.13.28c1,2.05,6.75,12.33,24.78,13h.43l0,.43c0,.38,3.63,38.59-25.08,45.45Zm-1.13-1h1c26.22-6.32,24.62-39.81,24.31-44-16.67-.78-23.06-9.66-24.81-12.81-1.76,3.15-8.15,12-24.82,12.81C499.58,291.25,498,324.75,524.19,331.06Z"/><path class="cls-20" d="M550,286.62c-18.49-.7-24.37-11.53-25.2-13.29h-.13c-.83,1.76-6.71,12.59-25.2,13.29,0,0-3.92,38.09,24.7,44.93h1.13C553.89,324.71,550,286.62,550,286.62Z"/><path class="cls-7" d="M548,283c-18.52-.7-24.41-11.55-25.24-13.31h-.13c-.84,1.76-6.72,12.61-25.25,13.31,0,0-3.93,38.15,24.75,45h1.13C551.93,321.16,548,283,548,283Z"/><path class="cls-7" d="M523.26,328.51h-1.13l-.12,0c-28.76-6.87-25.16-45.15-25.11-45.53a.48.48,0,0,1,.46-.44c18.07-.68,23.85-11,24.83-13a.49.49,0,0,1,.44-.28h.13a.49.49,0,0,1,.44.28c1,2.06,6.75,12.34,24.82,13a.48.48,0,0,1,.47.44c0,.38,3.64,38.66-25.12,45.53Zm-1.07-1h1c26.26-6.33,24.66-39.89,24.35-44-16.71-.78-23.1-9.68-24.86-12.84-1.75,3.16-8.15,12.06-24.86,12.84C497.53,287.64,495.93,321.2,522.19,327.53Z"/><path class="cls-7" d="M505.33,307.75c2.78,6.56,7.83,12.59,16.9,14.76h.92C546.41,317,543.23,286,543.23,286c-15-.57-19.81-9.36-20.49-10.79h-.1a17.91,17.91,0,0,1-7.48,7.45"/><path class="cls-3" d="M523.15,323h-1c-8-1.92-13.82-7-17.25-15.05a.5.5,0,0,1,.26-.64.5.5,0,0,1,.65.26c3.29,7.75,8.84,12.61,16.51,14.46h.8c21.06-5.08,19.94-31.85,19.68-35.55-13.29-.65-18.54-7.62-20.08-10.31a19,19,0,0,1-7.29,6.93.49.49,0,0,1-.48-.86A17.55,17.55,0,0,0,522.2,275a.47.47,0,0,1,.44-.28h.1a.48.48,0,0,1,.45.28c.78,1.65,5.45,10,20,10.51a.49.49,0,0,1,.47.44c0,.31,3,31.44-20.44,37Z"/><path class="cls-7" d="M507.11,285.47a34.61,34.61,0,0,1-4.95.53,51.55,51.55,0,0,0,.32,10.87"/><path class="cls-3" d="M502.48,297.36a.49.49,0,0,1-.49-.42,53.69,53.69,0,0,1-.32-11,.5.5,0,0,1,.47-.44A34.4,34.4,0,0,0,507,285a.49.49,0,1,1,.17,1,36.44,36.44,0,0,1-4.58.51,54,54,0,0,0,.35,10.34.49.49,0,0,1-.42.55Z"/><circle class="cls-7" cx="522.69" cy="301.47" r="11.81"/><path class="cls-3" d="M522.69,313.65a12.18,12.18,0,1,1,12.18-12.18A12.2,12.2,0,0,1,522.69,313.65Zm0-23.63a11.45,11.45,0,1,0,11.45,11.45A11.46,11.46,0,0,0,522.69,290Z"/><circle class="cls-3" cx="522.69" cy="301.47" r="8.6"/><path class="cls-7" d="M522.69,310.56a9.09,9.09,0,1,1,9.1-9.09A9.1,9.1,0,0,1,522.69,310.56Zm0-17.2a8.11,8.11,0,1,0,8.12,8.11A8.12,8.12,0,0,0,522.69,293.36Z"/><path class="cls-7" d="M522.86,305.14a1.38,1.38,0,0,1-1-.4l-3.64-3.64a1.39,1.39,0,0,1,2-2l2.65,2.66L530.7,294a1.37,1.37,0,0,1,2,0,1.39,1.39,0,0,1,0,2l-8.82,8.82A1.37,1.37,0,0,1,522.86,305.14Z"/></g></svg>