<svg xmlns="http://www.w3.org/2000/svg" viewBox="0 0 592 500"><defs><style>.cls-1{fill:#fff;}.cls-2{fill:#779ce8;}.cls-3{fill:#407bff;}.cls-4{fill:#2aafeb;}.cls-5{fill:#f97d8c;stroke:#779ce8;stroke-linejoin:round;stroke-width:0.75px;}.cls-6{fill:#d7e4f9;}.cls-7{fill:#f2f1f6;}.cls-8{fill:#cacae5;}.cls-9{fill:none;}</style></defs><g id="Layer_1" data-name="Layer 1"><rect class="cls-1" x="-31" y="-21.76" width="672.51" height="557.68"/></g><g id="Layer_5" data-name="Layer 5"><g id="OBJECTS"><path class="cls-2" d="M210.84,355.41h-3.17a.4.4,0,0,1-.4-.4.39.39,0,0,1,.4-.39h3.17a.39.39,0,0,1,.4.39A.4.4,0,0,1,210.84,355.41Zm-6.34,0h-3.17a.39.39,0,0,1-.39-.4.38.38,0,0,1,.39-.39h3.17a.39.39,0,0,1,.4.39A.4.4,0,0,1,204.5,355.41Zm-6.34,0H195a.39.39,0,0,1-.39-.4.38.38,0,0,1,.39-.39h3.17a.39.39,0,0,1,.4.39A.4.4,0,0,1,198.16,355.41Zm-6.34,0h-3.17a.4.4,0,0,1-.39-.4.39.39,0,0,1,.39-.39h3.17a.39.39,0,0,1,.4.39A.4.4,0,0,1,191.82,355.41Zm-6.34,0h-3.16a.4.4,0,0,1-.4-.4.39.39,0,0,1,.4-.39h3.16a.39.39,0,0,1,.4.39A.4.4,0,0,1,185.48,355.41Zm-6.33,0H176a.4.4,0,0,1-.4-.4.39.39,0,0,1,.4-.39h3.17a.4.4,0,0,1,0,.79ZM212.59,354a.38.38,0,0,1-.39-.39v-3.17a.39.39,0,0,1,.39-.4.4.4,0,0,1,.4.4v3.17A.39.39,0,0,1,212.59,354Zm0-6.34a.38.38,0,0,1-.39-.39v-3.17a.39.39,0,0,1,.39-.4.4.4,0,0,1,.4.4v3.17A.39.39,0,0,1,212.59,347.65Zm0-6.33a.39.39,0,0,1-.39-.4v-3.17a.39.39,0,0,1,.39-.4.4.4,0,0,1,.4.4v3.17A.4.4,0,0,1,212.59,341.32Z"/><path class="cls-2" d="M415.83,358.36h-3.17a.39.39,0,0,1-.39-.39.4.4,0,0,1,.39-.4h3.17a.4.4,0,0,1,.4.4A.39.39,0,0,1,415.83,358.36Zm-6.33,0h-3.17a.39.39,0,0,1-.4-.39.4.4,0,0,1,.4-.4h3.17a.4.4,0,0,1,.39.4A.39.39,0,0,1,409.5,358.36Zm-6.34,0H400a.39.39,0,0,1-.4-.39.4.4,0,0,1,.4-.4h3.17a.39.39,0,0,1,.39.4A.38.38,0,0,1,403.16,358.36Zm-6.34,0h-3.17a.39.39,0,0,1-.4-.39.4.4,0,0,1,.4-.4h3.17a.39.39,0,0,1,.39.4A.38.38,0,0,1,396.82,358.36Zm-6.34,0h-3.17a.39.39,0,0,1-.4-.39.4.4,0,0,1,.4-.4h3.17a.4.4,0,0,1,.4.4A.39.39,0,0,1,390.48,358.36Zm-6.34,0H381a.39.39,0,0,1-.4-.39.4.4,0,0,1,.4-.4h3.17a.4.4,0,0,1,.4.4A.39.39,0,0,1,384.14,358.36ZM379.22,357a.4.4,0,0,1-.4-.4v-3.17a.4.4,0,0,1,.4-.4.39.39,0,0,1,.39.4v3.17A.39.39,0,0,1,379.22,357Zm0-6.34a.4.4,0,0,1-.4-.4V347a.39.39,0,0,1,.4-.39.38.38,0,0,1,.39.39v3.17A.39.39,0,0,1,379.22,350.61Zm0-6.34a.4.4,0,0,1-.4-.4V340.7a.39.39,0,0,1,.4-.39.38.38,0,0,1,.39.39v3.17A.39.39,0,0,1,379.22,344.27Z"/><path class="cls-2" d="M128.68,316.82a.39.39,0,0,1-.39-.39v-3.17a.39.39,0,0,1,.39-.4.4.4,0,0,1,.4.4v3.17A.4.4,0,0,1,128.68,316.82Zm0-6.35a.38.38,0,0,1-.39-.38v0a.39.39,0,0,1,.39-.4h3.14a.4.4,0,1,1,0,.79h-3Zm22.16,0h-3.17a.4.4,0,1,1,0-.79h3.17a.4.4,0,0,1,0,.79Zm-6.34,0h-3.17a.4.4,0,1,1,0-.79h3.17a.4.4,0,0,1,0,.79Zm-6.34,0H135a.4.4,0,1,1,0-.79h3.17a.4.4,0,0,1,0,.79Zm13.05-2.8a.39.39,0,0,1-.4-.39v-1.37a.4.4,0,0,1,.79,0v1.37A.39.39,0,0,1,151.21,307.65Z"/><path class="cls-2" d="M168,237.61a.4.4,0,0,1-.4-.4v-3a.4.4,0,1,1,.79,0v3A.39.39,0,0,1,168,237.61Zm0-6.12a.4.4,0,0,1-.4-.4v-3.17a.4.4,0,0,1,.79,0v3.17A.39.39,0,0,1,168,231.49Zm0-6.34a.4.4,0,0,1-.4-.4v-3.17a.4.4,0,0,1,.79,0v3.17A.39.39,0,0,1,168,225.15Zm0-6.34a.4.4,0,0,1-.4-.4v-3.17a.4.4,0,0,1,.79,0v3.17A.39.39,0,0,1,168,218.81Zm-2-4.33h-3.17a.4.4,0,1,1,0-.79H166a.4.4,0,0,1,0,.79Zm-6.34,0h-3.17a.4.4,0,1,1,0-.79h3.17a.4.4,0,0,1,0,.79Zm-6.34,0h-3.17a.4.4,0,1,1,0-.79h3.17a.4.4,0,0,1,0,.79Zm-6.34,0h-3.17a.4.4,0,1,1,0-.79H147a.4.4,0,1,1,0,.79Zm-6.34,0h-3.17a.4.4,0,0,1,0-.79h3.17a.4.4,0,1,1,0,.79Zm-6.34,0h-3.17a.4.4,0,0,1,0-.79h3.17a.4.4,0,1,1,0,.79Zm-6.34,0h-3.17a.4.4,0,0,1,0-.79H128a.4.4,0,1,1,0,.79Zm-6.34,0h-3.16a.4.4,0,1,1,0-.79h3.16a.4.4,0,1,1,0,.79Zm-6.33,0h-3.17a.4.4,0,1,1,0-.79h3.17a.4.4,0,0,1,0,.79Zm-3.22-3.12a.39.39,0,0,1-.4-.39V207.8a.4.4,0,1,1,.79,0V211A.39.39,0,0,1,112.07,211.36Zm0-6.34a.39.39,0,0,1-.4-.39v-3.17a.4.4,0,1,1,.79,0v3.17A.39.39,0,0,1,112.07,205Zm0-6.33a.4.4,0,0,1-.4-.4v-3.17a.4.4,0,1,1,.79,0v3.17A.4.4,0,0,1,112.07,198.69Z"/><path class="cls-2" d="M297.1,194.23a.4.4,0,0,1-.4-.39v-3.17a.4.4,0,0,1,.4-.4.39.39,0,0,1,.39.4v3.17A.39.39,0,0,1,297.1,194.23Zm0-6.34a.39.39,0,0,1-.4-.39v-1.79a.39.39,0,0,1,.4-.39.38.38,0,0,1,.39.39v1.79A.38.38,0,0,1,297.1,187.89Z"/><path class="cls-2" d="M237.89,173.92h-3.17a.4.4,0,1,1,0-.79h3.17a.39.39,0,0,1,.39.4A.38.38,0,0,1,237.89,173.92Zm-6.34,0h-3.17a.4.4,0,1,1,0-.79h3.17a.39.39,0,0,1,.39.4A.38.38,0,0,1,231.55,173.92Zm-6.34,0H222a.4.4,0,1,1,0-.79h3.17a.4.4,0,0,1,.4.4A.39.39,0,0,1,225.21,173.92Zm-6.34,0H215.7a.4.4,0,0,1,0-.79h3.17a.4.4,0,0,1,.4.4A.39.39,0,0,1,218.87,173.92Zm-6.34,0h-3.17a.4.4,0,0,1,0-.79h3.17a.4.4,0,0,1,.4.4A.39.39,0,0,1,212.53,173.92Zm-6.34,0H203a.4.4,0,0,1,0-.79h3.17a.4.4,0,0,1,.4.4A.39.39,0,0,1,206.19,173.92Zm-6.34,0h-3.16a.4.4,0,1,1,0-.79h3.16a.4.4,0,0,1,.4.4A.39.39,0,0,1,199.85,173.92Zm-6.33,0h-3.17a.4.4,0,1,1,0-.79h3.17a.4.4,0,0,1,.39.4A.39.39,0,0,1,193.52,173.92Zm-6.34,0H184a.4.4,0,1,1,0-.79h3.17a.39.39,0,0,1,.39.4A.38.38,0,0,1,187.18,173.92Zm-6.34,0h-3.17a.4.4,0,1,1,0-.79h3.17a.39.39,0,0,1,.39.4A.38.38,0,0,1,180.84,173.92Zm-6.34,0h-3.17a.4.4,0,1,1,0-.79h3.17a.4.4,0,0,1,.4.4A.39.39,0,0,1,174.5,173.92Zm63.85-2.71a.39.39,0,0,1-.4-.39v-3.17a.4.4,0,0,1,.4-.4.39.39,0,0,1,.39.4v3.17A.38.38,0,0,1,238.35,171.21Zm0-6.33a.4.4,0,0,1-.4-.4v-1.75a.4.4,0,0,1,.4-.4h1.41a.4.4,0,0,1,.4.4.39.39,0,0,1-.4.39h-1v1.36A.39.39,0,0,1,238.35,164.88Zm20.43-1.76h-3.17a.4.4,0,0,1,0-.79h3.17a.4.4,0,0,1,.4.4A.39.39,0,0,1,258.78,163.12Zm-6.34,0h-3.17a.4.4,0,0,1,0-.79h3.17a.4.4,0,0,1,.4.4A.39.39,0,0,1,252.44,163.12Zm-6.34,0h-3.17a.4.4,0,0,1,0-.79h3.17a.4.4,0,0,1,.4.4A.39.39,0,0,1,246.1,163.12Z"/><path class="cls-2" d="M368.51,180.57h-.8a.4.4,0,0,1-.4-.4.39.39,0,0,1,.4-.39h.8a.39.39,0,0,1,.4.39A.4.4,0,0,1,368.51,180.57Zm-4,0h-3.17a.4.4,0,0,1-.4-.4.39.39,0,0,1,.4-.39h3.17a.39.39,0,0,1,.4.39A.4.4,0,0,1,364.54,180.57Zm-6.34,0h-.49a.4.4,0,0,1-.4-.4V177.5a.4.4,0,0,1,.4-.4.39.39,0,0,1,.39.4v2.28h.1a.39.39,0,0,1,.4.39A.4.4,0,0,1,358.2,180.57Zm-.49-5.85a.39.39,0,0,1-.4-.39v-3.17a.4.4,0,0,1,.4-.4.39.39,0,0,1,.39.4v3.17A.38.38,0,0,1,357.71,174.72Zm0-6.34a.39.39,0,0,1-.4-.39v-1.82h-.56a.4.4,0,0,1-.39-.4.39.39,0,0,1,.39-.39h1a.38.38,0,0,1,.39.39V168A.38.38,0,0,1,357.71,168.38Zm-4.12-2.21h-3.17a.4.4,0,0,1-.4-.4.39.39,0,0,1,.4-.39h3.17a.39.39,0,0,1,.39.39A.4.4,0,0,1,353.59,166.17Zm-6.34,0h-3.17a.4.4,0,0,1-.4-.4.39.39,0,0,1,.4-.39h3.17a.38.38,0,0,1,.39.39A.39.39,0,0,1,347.25,166.17Zm-6.34,0h-3.17a.4.4,0,0,1-.4-.4.39.39,0,0,1,.4-.39h3.17a.38.38,0,0,1,.39.39A.39.39,0,0,1,340.91,166.17Zm-6.34,0H331.4a.4.4,0,0,1-.4-.4.39.39,0,0,1,.4-.39h3.17a.38.38,0,0,1,.39.39A.39.39,0,0,1,334.57,166.17Z"/><path class="cls-2" d="M499.5,225.53a.4.4,0,0,1-.4-.4V222a.4.4,0,0,1,.8,0v3.17A.4.4,0,0,1,499.5,225.53Zm0-6.34a.4.4,0,0,1-.4-.4v-.56h-1.82a.39.39,0,0,1-.39-.39.4.4,0,0,1,.39-.4h2.22a.4.4,0,0,1,.4.4v.95A.4.4,0,0,1,499.5,219.19Zm-5.39-1H491a.39.39,0,0,1-.4-.39.4.4,0,0,1,.4-.4h3.16a.4.4,0,0,1,.4.4A.39.39,0,0,1,494.11,218.23Zm-6.33,0h-3.17a.39.39,0,0,1-.4-.39.4.4,0,0,1,.4-.4h3.17a.4.4,0,0,1,.39.4A.39.39,0,0,1,487.78,218.23Zm-6.34,0h-3.17a.39.39,0,0,1-.4-.39.4.4,0,0,1,.4-.4h3.17a.39.39,0,0,1,.39.4A.38.38,0,0,1,481.44,218.23Zm-6.34,0h-3.17a.39.39,0,0,1-.4-.39.4.4,0,0,1,.4-.4h3.17a.39.39,0,0,1,.39.4A.38.38,0,0,1,475.1,218.23Zm-6.34,0h-1.94a.38.38,0,0,1-.39-.39v-1.23a.39.39,0,0,1,.39-.4.4.4,0,0,1,.4.4v.83h1.54a.4.4,0,0,1,.4.4A.39.39,0,0,1,468.76,218.23Zm-1.94-4.4a.39.39,0,0,1-.39-.39v-3.17a.39.39,0,0,1,.39-.4.4.4,0,0,1,.4.4v3.17A.4.4,0,0,1,466.82,213.83Zm0-6.34a.39.39,0,0,1-.39-.33H464a.4.4,0,1,1,0-.8h2.83a.4.4,0,0,1,.4.4v.34A.39.39,0,0,1,466.82,207.49Zm-6-.33h-3.17a.4.4,0,0,1,0-.8h3.17a.4.4,0,1,1,0,.8Zm-6.34,0h-3.17a.4.4,0,0,1,0-.8h3.17a.4.4,0,0,1,0,.8Z"/><path class="cls-2" d="M474.58,315.71a.39.39,0,0,1-.4-.39V313.8a.4.4,0,0,1,.79,0v1.52A.39.39,0,0,1,474.58,315.71Zm0-4.68a.4.4,0,0,1-.4-.4v-3.17a.4.4,0,0,1,.79,0v3.17A.4.4,0,0,1,474.58,311Zm6.31-3.2h-3.17a.39.39,0,0,1-.4-.39.4.4,0,0,1,.4-.4h3.17a.39.39,0,0,1,.39.4A.38.38,0,0,1,480.89,307.83Zm2.82-.34a.4.4,0,0,1-.39-.39v-3.17a.4.4,0,1,1,.79,0v3.17A.4.4,0,0,1,483.71,307.49Zm0-6.34a.39.39,0,0,1-.39-.39v-3.17a.4.4,0,1,1,.79,0v3.17A.39.39,0,0,1,483.71,301.15Z"/><path class="cls-3" d="M414.56,173.08a1.21,1.21,0,0,1-.38-.06l-8.06-2.42a1.34,1.34,0,0,1-.9-1.67l1.6-5.32a.55.55,0,0,0-.25-.62,22.72,22.72,0,0,1-4.78-3.91.55.55,0,0,0-.66-.11l-4.89,2.63a1.35,1.35,0,0,1-1.82-.55l-4-7.41a1.3,1.3,0,0,1-.1-1,1.35,1.35,0,0,1,.64-.8l4.9-2.63a.54.54,0,0,0,.26-.61,23.09,23.09,0,0,1-.62-6.14.53.53,0,0,0-.38-.55l-5.32-1.6h0a1.31,1.31,0,0,1-.79-.65,1.34,1.34,0,0,1-.11-1l2.43-8.06a1.33,1.33,0,0,1,.64-.79,1.35,1.35,0,0,1,1-.11l5.32,1.6A.55.55,0,0,0,399,131a23.15,23.15,0,0,1,3.91-4.79.54.54,0,0,0,.12-.66l-2.63-4.89a1.29,1.29,0,0,1-.1-1,1.31,1.31,0,0,1,.65-.79l7.41-4a1.34,1.34,0,0,1,1-.1,1.31,1.31,0,0,1,.79.65l2.63,4.89a.53.53,0,0,0,.61.26,23.12,23.12,0,0,1,6.15-.62.52.52,0,0,0,.55-.38l1.6-5.32a1.31,1.31,0,0,1,.65-.79,1.29,1.29,0,0,1,1-.1l8.05,2.42a1.33,1.33,0,0,1,.9,1.67l-1.6,5.32a.55.55,0,0,0,.25.62,23,23,0,0,1,4.79,3.91.53.53,0,0,0,.65.11l4.89-2.63a1.34,1.34,0,0,1,1-.1,1.3,1.3,0,0,1,.8.65l4,7.41a1.35,1.35,0,0,1,.11,1,1.4,1.4,0,0,1-.65.8l-4.89,2.63a.53.53,0,0,0-.27.61A23.09,23.09,0,0,1,442,144a.54.54,0,0,0,.38.55l5.32,1.6a1.34,1.34,0,0,1,.9,1.67l-2.42,8.06a1.35,1.35,0,0,1-1.67.9l-5.32-1.6a.53.53,0,0,0-.62.24,22.83,22.83,0,0,1-3.91,4.79.54.54,0,0,0-.12.65l2.63,4.9a1.33,1.33,0,0,1-.54,1.81l-7.42,4a1.34,1.34,0,0,1-1.81-.55l-2.63-4.89a.54.54,0,0,0-.61-.27,22.77,22.77,0,0,1-6.15.63.51.51,0,0,0-.55.38l-1.6,5.31a1.32,1.32,0,0,1-.64.8A1.44,1.44,0,0,1,414.56,173.08Zm-13.18-15a1.34,1.34,0,0,1,1,.43,22.46,22.46,0,0,0,4.63,3.78,1.34,1.34,0,0,1,.59,1.52l-1.6,5.32a.55.55,0,0,0,.36.68l8.06,2.42a.51.51,0,0,0,.42,0,.57.57,0,0,0,.27-.32l1.6-5.32a1.31,1.31,0,0,1,1.33-1A21.94,21.94,0,0,0,424,165a1.36,1.36,0,0,1,1.5.66l2.63,4.9a.55.55,0,0,0,.74.22l7.41-4a.55.55,0,0,0,.23-.74l-2.63-4.89a1.33,1.33,0,0,1,.27-1.61,22,22,0,0,0,3.77-4.62,1.35,1.35,0,0,1,1.53-.59l5.31,1.6a.55.55,0,0,0,.69-.37l2.42-8.06a.55.55,0,0,0-.37-.68l-5.31-1.6a1.34,1.34,0,0,1-.95-1.33,22,22,0,0,0-.6-5.94,1.34,1.34,0,0,1,.66-1.49l4.89-2.63a.55.55,0,0,0,.27-.33.53.53,0,0,0,0-.41l-4-7.41a.53.53,0,0,0-.32-.27.56.56,0,0,0-.42,0l-4.89,2.63a1.34,1.34,0,0,1-1.61-.27,22.67,22.67,0,0,0-4.62-3.78,1.35,1.35,0,0,1-.6-1.52l1.61-5.32a.56.56,0,0,0,0-.42.55.55,0,0,0-.32-.26l-8.06-2.42a.54.54,0,0,0-.68.36l-1.6,5.32a1.34,1.34,0,0,1-1.33,1,21.93,21.93,0,0,0-5.94.6,1.35,1.35,0,0,1-1.5-.66l-2.63-4.89a.51.51,0,0,0-.32-.27.56.56,0,0,0-.42,0l-7.41,4a.55.55,0,0,0-.22.74l2.63,4.89a1.36,1.36,0,0,1-.27,1.61,22.67,22.67,0,0,0-3.78,4.62,1.33,1.33,0,0,1-1.52.59l-5.32-1.6a.56.56,0,0,0-.42.05.52.52,0,0,0-.26.32l-2.43,8.06a.56.56,0,0,0,.05.42.49.49,0,0,0,.32.26l5.32,1.6a1.34,1.34,0,0,1,.94,1.34,22.77,22.77,0,0,0,.6,5.93,1.33,1.33,0,0,1-.66,1.49l-4.89,2.63a.54.54,0,0,0-.26.33.52.52,0,0,0,0,.42l4,7.41a.57.57,0,0,0,.75.22l4.89-2.63A1.22,1.22,0,0,1,401.38,158.11Zm17.36-1a14.3,14.3,0,0,1-4.91-.88c-5.06-1.84-9.23-7.94-9.1-13.32h0A14,14,0,0,1,423.57,130c5.07,1.84,9.23,7.94,9.11,13.32a14,14,0,0,1-13.94,13.75Zm-13.22-14.18c-.12,5,3.89,10.86,8.58,12.56a13.19,13.19,0,0,0,17.78-12.15c.12-5-3.89-10.85-8.58-12.56a13.2,13.2,0,0,0-17.78,12.15Z"/><path class="cls-4" d="M78.6,374.53a1,1,0,0,1-.44-.11.94.94,0,0,1-.46-.54l-3.15-10a.14.14,0,0,0-.14-.1,36.19,36.19,0,0,1-11.12-1,.14.14,0,0,0-.16.07l-4.82,9.27a.93.93,0,0,1-1.26.4l-13.48-7a.94.94,0,0,1-.4-1.27L48,355.05a.14.14,0,0,0,0-.17,35.92,35.92,0,0,1-7.18-8.55.15.15,0,0,0-.16-.06l-10,3.15a.94.94,0,0,1-1.18-.61l-4.58-14.49a.93.93,0,0,1,.07-.71.94.94,0,0,1,.54-.46l10-3.15a.14.14,0,0,0,.1-.14,36.16,36.16,0,0,1,1-11.12.14.14,0,0,0-.06-.16l-9.28-4.82a.93.93,0,0,1-.4-1.26l7-13.49a1,1,0,0,1,1.26-.4l9.27,4.83a.14.14,0,0,0,.17,0,36.35,36.35,0,0,1,8.55-7.18.14.14,0,0,0,.06-.16l-3.15-10a.93.93,0,0,1,.61-1.17l14.49-4.58a.93.93,0,0,1,1.17.61l3.15,10c0,.06.09.11.14.09a36.26,36.26,0,0,1,11.13,1,.12.12,0,0,0,.15-.07l4.82-9.28a1,1,0,0,1,1.26-.4l13.49,7a.94.94,0,0,1,.39,1.26l-4.82,9.28a.14.14,0,0,0,0,.17,36.3,36.3,0,0,1,7.18,8.54.13.13,0,0,0,.16.06l10-3.15a.94.94,0,0,1,1.17.61L119,320.5a.92.92,0,0,1-.06.71.94.94,0,0,1-.55.47l-10,3.15a.12.12,0,0,0-.09.14,36.2,36.2,0,0,1-1,11.12.14.14,0,0,0,.07.16l9.28,4.82a1,1,0,0,1,.4,1.26l-7,13.48a.94.94,0,0,1-1.26.4l-9.28-4.82a.14.14,0,0,0-.17,0,36.07,36.07,0,0,1-8.54,7.18.15.15,0,0,0-.07.16l3.16,10a1,1,0,0,1-.61,1.18l-14.49,4.57A.72.72,0,0,1,78.6,374.53ZM74.42,363a.92.92,0,0,1,.89.65l3.15,10a.17.17,0,0,0,.18.09l14.49-4.58a.16.16,0,0,0,.09-.18l-3.15-10a.92.92,0,0,1,.41-1.07,35.67,35.67,0,0,0,8.36-7,.93.93,0,0,1,1.13-.21l9.27,4.82a.15.15,0,0,0,.2-.06l7-13.48a.15.15,0,0,0-.06-.2L107.1,337a.93.93,0,0,1-.47-1.05,35.22,35.22,0,0,0,.94-10.87.93.93,0,0,1,.65-.95l10-3.16a.16.16,0,0,0,.09-.18l-4.58-14.49a.16.16,0,0,0-.18-.09l-10,3.15a.91.91,0,0,1-1.07-.4,35.23,35.23,0,0,0-7-8.36.93.93,0,0,1-.21-1.13l4.82-9.28A.14.14,0,0,0,100,290l-13.48-7a.15.15,0,0,0-.2.06l-4.82,9.28a.93.93,0,0,1-1,.47,35.66,35.66,0,0,0-10.89-.94.94.94,0,0,1-.95-.65l-3.15-10a.11.11,0,0,0-.07-.08.13.13,0,0,0-.11,0l-14.48,4.58a.14.14,0,0,0-.1.18l3.15,10a.91.91,0,0,1-.4,1.07,35.23,35.23,0,0,0-8.36,7,.93.93,0,0,1-1.13.21l-9.28-4.82a.14.14,0,0,0-.19.06l-7,13.48a.15.15,0,0,0,.06.2l9.28,4.82a.93.93,0,0,1,.47,1.05,35.53,35.53,0,0,0-.94,10.87.91.91,0,0,1-.65.95l-10,3.16a.15.15,0,0,0-.09.17l4.58,14.49a.16.16,0,0,0,.18.1l10-3.15a.9.9,0,0,1,1.07.4,35.47,35.47,0,0,0,7,8.36.93.93,0,0,1,.21,1.13l-4.82,9.28a.14.14,0,0,0,.06.19l13.49,7a.14.14,0,0,0,.19-.06l4.82-9.28a.92.92,0,0,1,1-.47,35.56,35.56,0,0,0,10.88.94ZM72,349.12a21.81,21.81,0,1,1,6.06-.85h0A22.06,22.06,0,0,1,72,349.12Zm0-42.87a21.36,21.36,0,0,0-5.85.83A21,21,0,0,0,77.88,347.5h0A21,21,0,0,0,72,306.25Z"/><path class="cls-4" d="M534.74,350.09a.82.82,0,0,1-.78-.58l-2.52-8a30.1,30.1,0,0,1-8.94-.79l-3.88,7.42a.83.83,0,0,1-1.11.35l-10.77-5.59a.84.84,0,0,1-.35-1.12l3.85-7.41a29.81,29.81,0,0,1-5.76-6.87l-8,2.5a.84.84,0,0,1-1-.54l-3.66-11.57a.84.84,0,0,1,.54-1l8-2.51a30.1,30.1,0,0,1,.79-8.94l-7.42-3.88a.85.85,0,0,1-.35-1.12l5.59-10.76a.86.86,0,0,1,.49-.41.77.77,0,0,1,.63.06l7.41,3.85a29.56,29.56,0,0,1,6.87-5.76l-2.5-8a.86.86,0,0,1,.06-.63.8.8,0,0,1,.48-.4l11.57-3.66a.81.81,0,0,1,.63,0,.86.86,0,0,1,.41.49l2.51,8a29.45,29.45,0,0,1,8.94.79l3.88-7.42a.83.83,0,0,1,.49-.41.77.77,0,0,1,.63.06l10.76,5.59a.82.82,0,0,1,.35,1.11l-3.85,7.41a29.61,29.61,0,0,1,5.76,6.88l8-2.5a.82.82,0,0,1,1,.54l3.66,11.57h0a.81.81,0,0,1-.05.63.84.84,0,0,1-.49.4l-8,2.52a29.48,29.48,0,0,1-.79,8.94l7.42,3.88a.83.83,0,0,1,.35,1.11L560,335.1a.82.82,0,0,1-1.12.35l-7.4-3.85a29.82,29.82,0,0,1-6.88,5.76l2.5,8a.83.83,0,0,1-.54,1L535,350.05A1,1,0,0,1,534.74,350.09Zm-3.33-9.35a.81.81,0,0,1,.78.57l2.52,8,11.61-3.63-2.49-8a.81.81,0,0,1,.36-.95,28.28,28.28,0,0,0,6.65-5.59.81.81,0,0,1,1-.19l7.41,3.85L564.89,324l-7.42-3.9a.81.81,0,0,1-.42-.92,28.07,28.07,0,0,0,.75-8.66.81.81,0,0,1,.57-.84l8.36-2.68-.38.12-3.65-11.57-8,2.49a.82.82,0,0,1-1-.36,28.08,28.08,0,0,0-5.59-6.65.84.84,0,0,1-.19-1l3.85-7.41L541,277l-3.89,7.42a.83.83,0,0,1-.93.42,28,28,0,0,0-8.66-.75.82.82,0,0,1-.84-.57l-2.52-8-11.61,3.63,2.5,8a.83.83,0,0,1-.36.95,28.41,28.41,0,0,0-6.66,5.6.84.84,0,0,1-1,.19L499.65,290,494,300.81l7.43,3.89a.82.82,0,0,1,.41.93,28.35,28.35,0,0,0-.75,8.66.81.81,0,0,1-.57.84l-8,2.52,3.63,11.61,8-2.5a.84.84,0,0,1,1,.36,28.13,28.13,0,0,0,5.59,6.66.81.81,0,0,1,.19,1l-3.85,7.4,10.78,5.65,3.9-7.43a.81.81,0,0,1,.92-.42,28.39,28.39,0,0,0,8.66.76Zm-1.9-10.94a17.52,17.52,0,1,1,4.86-.69A17.47,17.47,0,0,1,529.51,329.8Zm0-34.22a16.71,16.71,0,1,0,4.64,32.77h0a16.71,16.71,0,0,0,4.59-30A16.61,16.61,0,0,0,529.51,295.58Z"/><path class="cls-4" d="M378.85,393.52H216.2a.4.4,0,1,1,0-.79H378.85a.4.4,0,1,1,0,.79Z"/><path class="cls-5" d="M348.07,404.13H247a.4.4,0,1,1,0-.79H348.07a.4.4,0,1,1,0,.79Z"/><path class="cls-6" d="M172.55,395.22h-109a1,1,0,0,1-1-1V321.35a2.88,2.88,0,0,1,2.88-2.88H170.67a2.88,2.88,0,0,1,2.89,2.88v72.86A1,1,0,0,1,172.55,395.22Z"/><path class="cls-2" d="M172.55,395.62h-109a1.41,1.41,0,0,1-1.41-1.41V321.35a3.28,3.28,0,0,1,3.28-3.28H170.67a3.28,3.28,0,0,1,3.28,3.28v72.86A1.41,1.41,0,0,1,172.55,395.62ZM65.41,318.86a2.5,2.5,0,0,0-2.49,2.49v72.86a.62.62,0,0,0,.62.62h109a.62.62,0,0,0,.61-.62V321.35a2.5,2.5,0,0,0-2.49-2.49Z"/><polyline class="cls-7" points="165.44 376.38 165.44 387.86 70.65 387.86 70.65 325.83 165.44 325.83 165.44 340.17"/><path class="cls-2" d="M165.44,388.25H70.65a.39.39,0,0,1-.4-.39v-62a.4.4,0,0,1,.4-.4h94.79a.39.39,0,0,1,.39.4v14.34a.39.39,0,0,1-.39.39.4.4,0,0,1-.4-.39V326.23H71v61.23h94V376.38a.4.4,0,0,1,.4-.4.39.39,0,0,1,.39.4v11.48A.38.38,0,0,1,165.44,388.25Z"/><path class="cls-2" d="M165.44,366a.4.4,0,0,1-.4-.4v-20a.4.4,0,0,1,.4-.4.39.39,0,0,1,.39.4v20A.39.39,0,0,1,165.44,366Z"/><path class="cls-2" d="M118,323.48a1.25,1.25,0,1,1,1.25-1.25A1.24,1.24,0,0,1,118,323.48Zm0-1.7a.45.45,0,1,0,.45.45A.45.45,0,0,0,118,321.78Z"/><path class="cls-2" d="M187.85,404.58H48.23a3.87,3.87,0,0,1-3.87-3.87v-6.07H191.73v6.07A3.88,3.88,0,0,1,187.85,404.58Z"/><path class="cls-2" d="M187.85,405H48.23A4.27,4.27,0,0,1,44,400.71v-6.07a.4.4,0,0,1,.4-.4H191.73a.4.4,0,0,1,.39.4v6.07A4.27,4.27,0,0,1,187.85,405ZM44.75,395v5.67a3.48,3.48,0,0,0,3.48,3.47H187.85a3.48,3.48,0,0,0,3.48-3.47V395Z"/><path class="cls-2" d="M190.32,402.65H45.76a.4.4,0,0,1,0-.8H190.32a.4.4,0,0,1,0,.8Z"/><rect class="cls-1" x="103.98" y="395.26" width="28.13" height="3.11"/><path class="cls-2" d="M132.11,398.76H104a.39.39,0,0,1-.4-.39v-3.11a.39.39,0,0,1,.4-.39h28.13a.39.39,0,0,1,.39.39v3.11A.38.38,0,0,1,132.11,398.76ZM104.37,398h27.34v-2.31H104.37Z"/><path class="cls-8" d="M138.34,381.06H91.6a2,2,0,0,1-2-2V339.62a2,2,0,0,1,2-2h46.74a2,2,0,0,1,2,2V379A2,2,0,0,1,138.34,381.06Z"/><path class="cls-1" d="M141.35,377.63h-46a2.39,2.39,0,0,1-2.39-2.39V336.55a2.39,2.39,0,0,1,2.39-2.39h46a2.39,2.39,0,0,1,2.39,2.39v38.69A2.39,2.39,0,0,1,141.35,377.63Z"/><path class="cls-2" d="M141.35,378h-46a2.78,2.78,0,0,1-2.78-2.78V336.55a2.78,2.78,0,0,1,2.78-2.79h46a2.79,2.79,0,0,1,2.78,2.79v38.69A2.79,2.79,0,0,1,141.35,378Zm-46-43.46a2,2,0,0,0-2,2v38.69a2,2,0,0,0,2,2h46a2,2,0,0,0,2-2V336.55a2,2,0,0,0-2-2Z"/><path class="cls-3" d="M133.6,361.75H103a2.21,2.21,0,0,1-2.21-2.22v-.27a2.21,2.21,0,0,1,2.21-2.21H133.6a2.22,2.22,0,0,1,2.22,2.21v.27A2.22,2.22,0,0,1,133.6,361.75Z"/><path class="cls-2" d="M133.6,362.14H103a2.61,2.61,0,0,1-2.61-2.61v-.27a2.61,2.61,0,0,1,2.61-2.61H133.6a2.61,2.61,0,0,1,2.61,2.61v.27A2.61,2.61,0,0,1,133.6,362.14ZM103,357.45a1.82,1.82,0,0,0-1.82,1.81v.27a1.82,1.82,0,0,0,1.82,1.82H133.6a1.82,1.82,0,0,0,1.82-1.82v-.27a1.82,1.82,0,0,0-1.82-1.81Z"/><path class="cls-1" d="M130.85,360.29H105.5a1,1,0,0,1-1-1v-.09a1,1,0,0,1,1-.94h25.35a1,1,0,0,1,1,.94v.09A1,1,0,0,1,130.85,360.29ZM105.5,358.7a.55.55,0,0,0-.55.55v.09a.55.55,0,0,0,.55.55h25.35a.55.55,0,0,0,.55-.55v-.09a.55.55,0,0,0-.55-.55Z"/><path class="cls-3" d="M128.38,367.11h-20.2a1.37,1.37,0,0,1-1.36-1.37h0a1.37,1.37,0,0,1,1.36-1.37h20.2a1.38,1.38,0,0,1,1.37,1.37h0A1.38,1.38,0,0,1,128.38,367.11Z"/><path class="cls-2" d="M128.38,367.5h-20.2a1.76,1.76,0,0,1,0-3.52h20.2a1.76,1.76,0,0,1,0,3.52Zm-20.2-2.73a1,1,0,1,0,0,1.94h20.2a1,1,0,1,0,0-1.94Z"/><path class="cls-1" d="M112.09,366.4a.66.66,0,1,1,.66-.66A.66.66,0,0,1,112.09,366.4Zm0-.92a.26.26,0,1,0,.27.26A.26.26,0,0,0,112.09,365.48Z"/><path class="cls-1" d="M114.63,366.4a.66.66,0,1,1,.66-.66A.67.67,0,0,1,114.63,366.4Zm0-.92a.26.26,0,1,0,.26.26A.26.26,0,0,0,114.63,365.48Z"/><path class="cls-1" d="M117,366.4a.66.66,0,1,1,.66-.66A.67.67,0,0,1,117,366.4Zm0-.92a.26.26,0,1,0,0,.52.26.26,0,0,0,0-.52Z"/><path class="cls-1" d="M119.53,366.4a.66.66,0,1,1,.66-.66A.66.66,0,0,1,119.53,366.4Zm0-.92a.26.26,0,1,0,0,.52.26.26,0,0,0,.26-.26A.25.25,0,0,0,119.53,365.48Z"/><path class="cls-1" d="M122,366.4a.66.66,0,1,1,.66-.66A.67.67,0,0,1,122,366.4Zm0-.92a.26.26,0,1,0,0,.52.26.26,0,0,0,0-.52Z"/><path class="cls-1" d="M124.53,366.4a.66.66,0,1,1,.66-.66A.66.66,0,0,1,124.53,366.4Zm0-.92a.26.26,0,1,0,.27.26A.26.26,0,0,0,124.53,365.48Z"/><circle class="cls-4" cx="118.28" cy="346.61" r="7.34"/><path class="cls-2" d="M118.28,354.35a7.74,7.74,0,1,1,7.74-7.74A7.75,7.75,0,0,1,118.28,354.35Zm0-14.68a6.95,6.95,0,1,0,7,6.94A7,7,0,0,0,118.28,339.67Z"/><path class="cls-1" d="M121.54,350.32a3.26,3.26,0,0,0-6.52,0Z"/><path class="cls-2" d="M118.61,350.73h-2.45c-1.54,0-1.54,0-1.54-.4a3.66,3.66,0,0,1,7.32,0C121.94,350.73,121.94,350.73,118.61,350.73Zm2.92-.41h0Zm-6.09-.39h5.68a2.87,2.87,0,0,0-5.68,0Z"/><path class="cls-1" d="M116.45,344.75a1.85,1.85,0,1,0,1.85-1.85A1.85,1.85,0,0,0,116.45,344.75Z"/><path class="cls-2" d="M118.3,347a2.25,2.25,0,1,1,2.25-2.25A2.25,2.25,0,0,1,118.3,347Zm0-3.71a1.46,1.46,0,1,0,1.46,1.46A1.47,1.47,0,0,0,118.3,343.29Z"/><path class="cls-4" d="M122,372.67h-7.48a1.69,1.69,0,0,1-1.68-1.69h0a1.68,1.68,0,0,1,1.68-1.68H122A1.68,1.68,0,0,1,123.7,371h0A1.69,1.69,0,0,1,122,372.67Z"/><path class="cls-2" d="M122,373.06h-7.48a2.08,2.08,0,1,1,0-4.15H122a2.08,2.08,0,1,1,0,4.15Zm-7.48-3.36a1.29,1.29,0,0,0,0,2.57H122a1.29,1.29,0,1,0,0-2.57Z"/><path class="cls-6" d="M529.36,395.22h-109a1,1,0,0,1-1-1V321.35a2.88,2.88,0,0,1,2.88-2.88H527.48a2.88,2.88,0,0,1,2.89,2.88v72.86A1,1,0,0,1,529.36,395.22Z"/><path class="cls-2" d="M529.36,395.62h-109a1.41,1.41,0,0,1-1.41-1.41V321.35a3.28,3.28,0,0,1,3.28-3.28H527.48a3.28,3.28,0,0,1,3.28,3.28v72.86A1.41,1.41,0,0,1,529.36,395.62ZM422.22,318.86a2.5,2.5,0,0,0-2.49,2.49v72.86a.62.62,0,0,0,.62.62h109a.62.62,0,0,0,.61-.62V321.35a2.5,2.5,0,0,0-2.49-2.49Z"/><polyline class="cls-7" points="427.46 338.48 427.46 325.83 522.25 325.83 522.25 387.86 427.46 387.86 427.46 376.24"/><path class="cls-2" d="M522.25,388.25H427.46a.39.39,0,0,1-.4-.39V376.24a.4.4,0,0,1,.4-.4.39.39,0,0,1,.39.4v11.22h94V326.23h-94v12.25a.39.39,0,0,1-.39.4.4.4,0,0,1-.4-.4V325.83a.4.4,0,0,1,.4-.4h94.79a.39.39,0,0,1,.39.4v62A.38.38,0,0,1,522.25,388.25Z"/><path class="cls-2" d="M427.46,365.65a.4.4,0,0,1-.4-.4V345.13a.4.4,0,0,1,.4-.4.39.39,0,0,1,.39.4v20.12A.39.39,0,0,1,427.46,365.65Z"/><path class="cls-2" d="M474.85,323.48a1.25,1.25,0,1,1,1.25-1.25A1.24,1.24,0,0,1,474.85,323.48Zm0-1.7a.45.45,0,0,0,0,.9.45.45,0,1,0,0-.9Z"/><path class="cls-2" d="M544.66,404.58H405a3.87,3.87,0,0,1-3.87-3.87v-6.07H548.53v6.07A3.87,3.87,0,0,1,544.66,404.58Z"/><path class="cls-2" d="M544.66,405H405a4.27,4.27,0,0,1-4.27-4.26v-6.07a.4.4,0,0,1,.4-.4H548.53a.4.4,0,0,1,.4.4v6.07A4.27,4.27,0,0,1,544.66,405ZM401.56,395v5.67a3.48,3.48,0,0,0,3.48,3.47H544.66a3.48,3.48,0,0,0,3.48-3.47V395Z"/><path class="cls-2" d="M547.13,402.65H402.57a.4.4,0,0,1,0-.8H547.13a.4.4,0,0,1,0,.8Z"/><rect class="cls-1" x="460.79" y="395.26" width="28.13" height="3.11"/><path class="cls-2" d="M488.92,398.76H460.79a.39.39,0,0,1-.4-.39v-3.11a.39.39,0,0,1,.4-.39h28.13a.39.39,0,0,1,.39.39v3.11A.39.39,0,0,1,488.92,398.76ZM461.18,398h27.34v-2.31H461.18Z"/><path class="cls-8" d="M495.15,381.06H448.41a2,2,0,0,1-2-2V339.62a2,2,0,0,1,2-2h46.74a2,2,0,0,1,2,2V379A2,2,0,0,1,495.15,381.06Z"/><path class="cls-1" d="M498.16,377.63h-46a2.39,2.39,0,0,1-2.39-2.39V336.55a2.39,2.39,0,0,1,2.39-2.39h46a2.39,2.39,0,0,1,2.39,2.39v38.69A2.4,2.4,0,0,1,498.16,377.63Z"/><path class="cls-2" d="M498.16,378h-46a2.78,2.78,0,0,1-2.78-2.78V336.55a2.78,2.78,0,0,1,2.78-2.79h46a2.79,2.79,0,0,1,2.78,2.79v38.69A2.79,2.79,0,0,1,498.16,378Zm-46-43.46a2,2,0,0,0-2,2v38.69a2,2,0,0,0,2,2h46a2,2,0,0,0,2-2V336.55a2,2,0,0,0-2-2Z"/><path class="cls-3" d="M490.41,361.75H459.77a2.21,2.21,0,0,1-2.21-2.22v-.27a2.21,2.21,0,0,1,2.21-2.21h30.64a2.22,2.22,0,0,1,2.22,2.21v.27A2.22,2.22,0,0,1,490.41,361.75Z"/><path class="cls-2" d="M490.41,362.14H459.77a2.61,2.61,0,0,1-2.61-2.61v-.27a2.61,2.61,0,0,1,2.61-2.61h30.64a2.61,2.61,0,0,1,2.61,2.61v.27A2.61,2.61,0,0,1,490.41,362.14Zm-30.64-4.69a1.82,1.82,0,0,0-1.82,1.81v.27a1.82,1.82,0,0,0,1.82,1.82h30.64a1.82,1.82,0,0,0,1.82-1.82v-.27a1.82,1.82,0,0,0-1.82-1.81Z"/><path class="cls-1" d="M487.66,360.29H462.31a1,1,0,0,1-.95-1v-.09a1,1,0,0,1,.95-.94h25.35a1,1,0,0,1,.95.94v.09A1,1,0,0,1,487.66,360.29Zm-25.35-1.59a.55.55,0,0,0-.55.55v.09a.55.55,0,0,0,.55.55h25.35a.55.55,0,0,0,.55-.55v-.09a.55.55,0,0,0-.55-.55Z"/><path class="cls-3" d="M485.19,367.11H465a1.37,1.37,0,0,1-1.36-1.37h0a1.37,1.37,0,0,1,1.36-1.37h20.2a1.38,1.38,0,0,1,1.37,1.37h0A1.38,1.38,0,0,1,485.19,367.11Z"/><path class="cls-2" d="M485.19,367.5H465a1.76,1.76,0,0,1,0-3.52h20.2a1.76,1.76,0,1,1,0,3.52ZM465,364.77a1,1,0,1,0,0,1.94h20.2a1,1,0,1,0,0-1.94Z"/><path class="cls-1" d="M468.9,366.4a.66.66,0,1,1,.66-.66A.66.66,0,0,1,468.9,366.4Zm0-.92a.26.26,0,1,0,.27.26A.26.26,0,0,0,468.9,365.48Z"/><path class="cls-1" d="M471.44,366.4a.66.66,0,1,1,.66-.66A.67.67,0,0,1,471.44,366.4Zm0-.92a.26.26,0,0,0,0,.52.26.26,0,1,0,0-.52Z"/><path class="cls-1" d="M473.81,366.4a.66.66,0,1,1,.65-.66A.66.66,0,0,1,473.81,366.4Zm0-.92a.26.26,0,1,0,0,.52.26.26,0,0,0,0-.52Z"/><path class="cls-1" d="M476.34,366.4a.66.66,0,1,1,.66-.66A.67.67,0,0,1,476.34,366.4Zm0-.92a.26.26,0,1,0,0,.52.26.26,0,0,0,0-.52Z"/><path class="cls-1" d="M478.81,366.4a.66.66,0,1,1,.66-.66A.67.67,0,0,1,478.81,366.4Zm0-.92a.26.26,0,1,0,0,.52.26.26,0,0,0,0-.52Z"/><path class="cls-1" d="M481.34,366.4a.66.66,0,1,1,.66-.66A.66.66,0,0,1,481.34,366.4Zm0-.92a.26.26,0,1,0,.27.26A.26.26,0,0,0,481.34,365.48Z"/><circle class="cls-4" cx="475.09" cy="346.61" r="7.34"/><path class="cls-2" d="M475.09,354.35a7.74,7.74,0,1,1,7.74-7.74A7.75,7.75,0,0,1,475.09,354.35Zm0-14.68a6.95,6.95,0,1,0,7,6.94A7,7,0,0,0,475.09,339.67Z"/><path class="cls-1" d="M478.35,350.32a3.26,3.26,0,0,0-6.52,0Z"/><path class="cls-2" d="M475.42,350.73H473c-1.54,0-1.54,0-1.54-.4a3.66,3.66,0,0,1,7.32,0C478.75,350.73,478.75,350.73,475.42,350.73Zm2.92-.41h0Zm-6.09-.39h5.68a2.87,2.87,0,0,0-5.68,0Z"/><path class="cls-1" d="M473.26,344.75a1.85,1.85,0,1,0,1.85-1.85A1.85,1.85,0,0,0,473.26,344.75Z"/><path class="cls-2" d="M475.11,347a2.25,2.25,0,1,1,2.25-2.25A2.25,2.25,0,0,1,475.11,347Zm0-3.71a1.46,1.46,0,1,0,1.46,1.46A1.47,1.47,0,0,0,475.11,343.29Z"/><path class="cls-4" d="M478.83,372.67h-7.48a1.69,1.69,0,0,1-1.68-1.69h0a1.68,1.68,0,0,1,1.68-1.68h7.48a1.68,1.68,0,0,1,1.68,1.68h0A1.69,1.69,0,0,1,478.83,372.67Z"/><path class="cls-2" d="M478.83,373.06h-7.48a2.08,2.08,0,1,1,0-4.15h7.48a2.08,2.08,0,1,1,0,4.15Zm-7.48-3.36a1.29,1.29,0,0,0,0,2.57h7.48a1.29,1.29,0,1,0,0-2.57Z"/><path class="cls-4" d="M206.63,137.12l-2.83-8.94a1,1,0,0,0-1.32-.69l-5.9,1.86a1,1,0,0,1-1.2-.45,25.88,25.88,0,0,0-4.35-5.18,1,1,0,0,1-.24-1.26l2.86-5.49a1.07,1.07,0,0,0-.45-1.42l-8.32-4.32a1,1,0,0,0-1.42.45l-2.86,5.49a1,1,0,0,1-1.16.53,25.27,25.27,0,0,0-6.74-.58,1,1,0,0,1-1.06-.73l-1.87-5.9a1.06,1.06,0,0,0-1.32-.69l-8.94,2.83a1.07,1.07,0,0,0-.69,1.32l1.87,5.9a1.05,1.05,0,0,1-.45,1.2,25.33,25.33,0,0,0-5.18,4.36,1.05,1.05,0,0,1-1.26.23l-5.49-2.85a1,1,0,0,0-1.42.45l-4.33,8.32A1.05,1.05,0,0,0,143,133l5.5,2.86A1.06,1.06,0,0,1,149,137a25.24,25.24,0,0,0-.59,6.74,1,1,0,0,1-.72,1l-5.9,1.87a1.05,1.05,0,0,0-.69,1.32l2.83,8.94a1.06,1.06,0,0,0,1.32.69l5.9-1.87a1.06,1.06,0,0,1,1.2.45,25,25,0,0,0,4.35,5.18,1,1,0,0,1,.24,1.26l-2.86,5.49a1.07,1.07,0,0,0,.45,1.42l8.32,4.33a1.07,1.07,0,0,0,1.42-.45l2.86-5.49a1,1,0,0,1,1.16-.54,25.27,25.27,0,0,0,6.74.59,1.05,1.05,0,0,1,1.06.72l1.87,5.9a1,1,0,0,0,1.32.69l8.94-2.83a1,1,0,0,0,.68-1.32l-1.86-5.9a1,1,0,0,1,.45-1.2,25,25,0,0,0,5.18-4.35,1,1,0,0,1,1.26-.24l5.49,2.86a1,1,0,0,0,1.42-.45l4.32-8.32a1,1,0,0,0-.45-1.42l-5.49-2.85a1.07,1.07,0,0,1-.53-1.17,25.27,25.27,0,0,0,.59-6.74,1,1,0,0,1,.72-1.06l5.9-1.87A1,1,0,0,0,206.63,137.12Zm-27.22,19.45a15.14,15.14,0,0,1-20.6-13.65c-.22-5.76,4.26-12.52,9.65-14.56A15.13,15.13,0,0,1,189.06,142C189.28,147.77,184.8,154.52,179.41,156.57Z"/><path class="cls-2" d="M179,175.74a1.46,1.46,0,0,1-1.38-1l-1.87-5.9a.62.62,0,0,0-.66-.45,25.46,25.46,0,0,1-6.85-.6.65.65,0,0,0-.72.33l-2.86,5.49a1.44,1.44,0,0,1-1.95.62l-8.32-4.33a1.44,1.44,0,0,1-.62-1.95l2.86-5.49a.66.66,0,0,0-.15-.78,25.93,25.93,0,0,1-4.43-5.26.64.64,0,0,0-.74-.29l-5.9,1.87a1.45,1.45,0,0,1-1.82-1l-2.83-8.94a1.46,1.46,0,0,1,1-1.82l5.9-1.86a.66.66,0,0,0,.45-.66,25.82,25.82,0,0,1,.59-6.85.64.64,0,0,0-.33-.73l-5.49-2.85a1.46,1.46,0,0,1-.71-.85,1.43,1.43,0,0,1,.1-1.11l4.32-8.32a1.45,1.45,0,0,1,2-.61l5.49,2.85a.65.65,0,0,0,.79-.15,25.88,25.88,0,0,1,5.26-4.42.65.65,0,0,0,.28-.75l-1.86-5.9a1.45,1.45,0,0,1,.94-1.82l8.94-2.82a1.48,1.48,0,0,1,1.11.09,1.46,1.46,0,0,1,.71.85l1.87,5.9a.63.63,0,0,0,.66.45,25.35,25.35,0,0,1,6.84.6.66.66,0,0,0,.73-.33l2.86-5.49a1.45,1.45,0,0,1,.84-.72,1.47,1.47,0,0,1,1.11.1l8.32,4.32a1.47,1.47,0,0,1,.62,2l-2.86,5.49a.66.66,0,0,0,.15.78,25.88,25.88,0,0,1,4.42,5.26.66.66,0,0,0,.75.29l5.9-1.87a1.48,1.48,0,0,1,1.11.1,1.46,1.46,0,0,1,.71.85L207,137a1.4,1.4,0,0,1-.09,1.1,1.44,1.44,0,0,1-.85.72l-5.9,1.86a.66.66,0,0,0-.45.66,25.86,25.86,0,0,1-.59,6.85.65.65,0,0,0,.32.73l5.5,2.85a1.46,1.46,0,0,1,.61,2l-4.32,8.32a1.44,1.44,0,0,1-1.95.61l-5.5-2.85a.63.63,0,0,0-.78.15,25.88,25.88,0,0,1-5.26,4.42.66.66,0,0,0-.29.75l1.87,5.9a1.46,1.46,0,0,1-.94,1.82l-8.95,2.82A1.29,1.29,0,0,1,179,175.74Zm-3.88-8.16a1.45,1.45,0,0,1,1.39,1l1.86,5.9a.67.67,0,0,0,.83.43l8.94-2.83a.67.67,0,0,0,.43-.82l-1.87-5.9a1.44,1.44,0,0,1,.62-1.66,24.88,24.88,0,0,0,5.1-4.28,1.42,1.42,0,0,1,1.73-.32l5.49,2.85a.67.67,0,0,0,.89-.28l4.32-8.32a.66.66,0,0,0-.28-.89l-5.49-2.85a1.43,1.43,0,0,1-.73-1.6,25.11,25.11,0,0,0,.57-6.64,1.44,1.44,0,0,1,1-1.45l5.9-1.87a.66.66,0,0,0,.39-.32.67.67,0,0,0,0-.5l-2.83-8.94a.64.64,0,0,0-.82-.43l-5.9,1.86a1.43,1.43,0,0,1-1.65-.61,25,25,0,0,0-4.29-5.1,1.45,1.45,0,0,1-.32-1.74l2.85-5.49a.63.63,0,0,0,.05-.5.64.64,0,0,0-.32-.38l-8.33-4.33a.66.66,0,0,0-.88.28L181,117.35a1.46,1.46,0,0,1-1.61.74,25,25,0,0,0-6.63-.58,1.44,1.44,0,0,1-1.46-1l-1.86-5.9a.65.65,0,0,0-.33-.38.67.67,0,0,0-.5,0L159.63,113a.64.64,0,0,0-.38.32.67.67,0,0,0-.05.5l1.87,5.9a1.47,1.47,0,0,1-.62,1.66,24.88,24.88,0,0,0-5.1,4.28,1.44,1.44,0,0,1-1.73.32l-5.49-2.85a.66.66,0,0,0-.89.28l-4.32,8.32a.67.67,0,0,0,0,.5.65.65,0,0,0,.33.38l5.49,2.86a1.43,1.43,0,0,1,.73,1.6,25.11,25.11,0,0,0-.57,6.64,1.44,1.44,0,0,1-1,1.45L142,147a.65.65,0,0,0-.43.82l2.82,8.94a.66.66,0,0,0,.83.43l5.9-1.86a1.43,1.43,0,0,1,1.65.61,25,25,0,0,0,4.29,5.1,1.45,1.45,0,0,1,.32,1.74l-2.86,5.49a.66.66,0,0,0,.28.88l8.32,4.33a.67.67,0,0,0,.5,0,.66.66,0,0,0,.39-.32l2.85-5.5a1.45,1.45,0,0,1,1.61-.73,24.63,24.63,0,0,0,6.63.57ZM173.9,158a15.55,15.55,0,0,1-15.49-15.06c-.22-6,4.31-12.82,9.91-14.94a15.53,15.53,0,0,1,21.14,14c.22,6-4.31,12.83-9.91,14.95A16,16,0,0,1,173.9,158Zm.07-30.26a15.1,15.1,0,0,0-5.37,1c-5.21,2-9.6,8.6-9.39,14.17a14.74,14.74,0,0,0,20.06,13.3l.14.37-.14-.37c5.22-2,9.61-8.61,9.4-14.18A14.75,14.75,0,0,0,174,127.73Z"/><path class="cls-6" d="M175.75,180.11h-109a1,1,0,0,1-1-1V106.24a2.88,2.88,0,0,1,2.88-2.89H173.88a2.88,2.88,0,0,1,2.88,2.89V179.1A1,1,0,0,1,175.75,180.11Z"/><path class="cls-2" d="M175.75,180.51h-109a1.41,1.41,0,0,1-1.41-1.41V106.24A3.28,3.28,0,0,1,68.61,103H173.88a3.29,3.29,0,0,1,3.28,3.28V179.1A1.42,1.42,0,0,1,175.75,180.51ZM68.61,103.75a2.48,2.48,0,0,0-2.48,2.49V179.1a.61.61,0,0,0,.61.61h109a.61.61,0,0,0,.61-.61V106.24a2.48,2.48,0,0,0-2.49-2.49Z"/><polyline class="cls-7" points="168.64 161.26 168.64 172.75 73.85 172.75 73.85 110.72 168.64 110.72 168.64 125.05"/><path class="cls-2" d="M168.64,173.14H73.85a.4.4,0,0,1-.4-.39v-62a.4.4,0,0,1,.4-.4h94.79a.4.4,0,0,1,.4.4v14.33a.4.4,0,0,1-.8,0V111.11h-94v61.24h94V161.26a.4.4,0,0,1,.8,0v11.49A.4.4,0,0,1,168.64,173.14Z"/><path class="cls-2" d="M168.64,150.86a.4.4,0,0,1-.4-.4v-20a.4.4,0,0,1,.8,0v20A.4.4,0,0,1,168.64,150.86Z"/><path class="cls-2" d="M121.24,108.36a1.25,1.25,0,1,1,1.25-1.24A1.24,1.24,0,0,1,121.24,108.36Zm0-1.7a.46.46,0,0,0-.45.46.45.45,0,0,0,.45.45.46.46,0,0,0,.46-.45A.47.47,0,0,0,121.24,106.66Z"/><path class="cls-2" d="M191.05,189.47H51.43a3.88,3.88,0,0,1-3.87-3.88v-6.06H194.93v6.06A3.88,3.88,0,0,1,191.05,189.47Z"/><path class="cls-2" d="M191.05,189.86H51.43a4.27,4.27,0,0,1-4.27-4.27v-6.06a.4.4,0,0,1,.4-.4H194.93a.39.39,0,0,1,.39.4v6.06A4.27,4.27,0,0,1,191.05,189.86ZM48,179.92v5.67a3.48,3.48,0,0,0,3.47,3.48H191.05a3.48,3.48,0,0,0,3.48-3.48v-5.67Z"/><path class="cls-2" d="M193.52,187.53H49a.39.39,0,0,1-.4-.39.4.4,0,0,1,.4-.4H193.52a.4.4,0,0,1,.4.4A.39.39,0,0,1,193.52,187.53Z"/><rect class="cls-1" x="107.18" y="180.15" width="28.13" height="3.11"/><path class="cls-2" d="M135.31,183.65H107.18a.4.4,0,0,1-.4-.4v-3.1a.4.4,0,0,1,.4-.4h28.13a.39.39,0,0,1,.39.4v3.1A.39.39,0,0,1,135.31,183.65Zm-27.73-.79h27.33v-2.31H107.58Z"/><path class="cls-8" d="M141.54,166H94.81a2,2,0,0,1-2-2V124.51a2,2,0,0,1,2-2h46.73a2,2,0,0,1,2,2v39.41A2,2,0,0,1,141.54,166Z"/><path class="cls-1" d="M144.55,162.51h-46a2.38,2.38,0,0,1-2.39-2.38v-38.7a2.39,2.39,0,0,1,2.39-2.38h46a2.39,2.39,0,0,1,2.39,2.38v38.7A2.38,2.38,0,0,1,144.55,162.51Z"/><path class="cls-2" d="M144.55,162.91h-46a2.78,2.78,0,0,1-2.78-2.78V121.44a2.78,2.78,0,0,1,2.78-2.79h46a2.78,2.78,0,0,1,2.78,2.79v38.69A2.78,2.78,0,0,1,144.55,162.91Zm-46-43.46a2,2,0,0,0-2,2v38.69a2,2,0,0,0,2,2h46a2,2,0,0,0,2-2V121.44a2,2,0,0,0-2-2Z"/><path class="cls-3" d="M136.8,146.63H106.16a2.21,2.21,0,0,1-2.21-2.21v-.27a2.21,2.21,0,0,1,2.21-2.21H136.8a2.21,2.21,0,0,1,2.22,2.21v.27A2.21,2.21,0,0,1,136.8,146.63Z"/><path class="cls-2" d="M136.8,147H106.16a2.61,2.61,0,0,1-2.61-2.61v-.27a2.61,2.61,0,0,1,2.61-2.61H136.8a2.61,2.61,0,0,1,2.61,2.61v.27A2.61,2.61,0,0,1,136.8,147Zm-30.64-4.7a1.83,1.83,0,0,0-1.82,1.82v.27a1.83,1.83,0,0,0,1.82,1.82H136.8a1.82,1.82,0,0,0,1.82-1.82v-.27a1.82,1.82,0,0,0-1.82-1.82Z"/><path class="cls-1" d="M134.05,145.18H108.7a1,1,0,0,1-.94-1v-.09a.94.94,0,0,1,.94-.94h25.35a1,1,0,0,1,.95.94v.09A1,1,0,0,1,134.05,145.18Zm-25.35-1.59a.55.55,0,0,0-.55.55v.09a.55.55,0,0,0,.55.55h25.35a.55.55,0,0,0,.55-.55v-.09a.55.55,0,0,0-.55-.55Z"/><path class="cls-3" d="M131.58,152h-20.2a1.36,1.36,0,0,1-1.36-1.36h0a1.36,1.36,0,0,1,1.36-1.37h20.2a1.37,1.37,0,0,1,1.37,1.37h0A1.36,1.36,0,0,1,131.58,152Z"/><path class="cls-2" d="M131.58,152.39h-20.2a1.76,1.76,0,0,1,0-3.52h20.2a1.76,1.76,0,1,1,0,3.52Zm-20.2-2.73a1,1,0,0,0,0,1.94h20.2a1,1,0,0,0,0-1.94Z"/><path class="cls-1" d="M115.3,151.29a.66.66,0,1,1,0-1.32.66.66,0,0,1,0,1.32Zm0-.92a.26.26,0,0,0-.27.26.27.27,0,0,0,.53,0A.26.26,0,0,0,115.3,150.37Z"/><path class="cls-1" d="M117.83,151.29a.66.66,0,1,1,.66-.66A.67.67,0,0,1,117.83,151.29Zm0-.92a.26.26,0,0,0-.26.26.26.26,0,0,0,.26.26.26.26,0,0,0,.26-.26A.25.25,0,0,0,117.83,150.37Z"/><path class="cls-1" d="M120.2,151.29a.66.66,0,1,1,.66-.66A.67.67,0,0,1,120.2,151.29Zm0-.92a.26.26,0,0,0-.26.26.26.26,0,0,0,.52,0A.26.26,0,0,0,120.2,150.37Z"/><path class="cls-1" d="M122.74,151.29a.66.66,0,0,1,0-1.32.66.66,0,0,1,0,1.32Zm0-.92a.26.26,0,0,0-.27.26.27.27,0,0,0,.53,0A.26.26,0,0,0,122.74,150.37Z"/><path class="cls-1" d="M125.2,151.29a.66.66,0,1,1,.66-.66A.67.67,0,0,1,125.2,151.29Zm0-.92a.26.26,0,0,0-.26.26.26.26,0,0,0,.52,0A.26.26,0,0,0,125.2,150.37Z"/><path class="cls-1" d="M127.74,151.29a.66.66,0,0,1,0-1.32.66.66,0,0,1,0,1.32Zm0-.92a.26.26,0,0,0-.27.26.27.27,0,0,0,.53,0A.26.26,0,0,0,127.74,150.37Z"/><circle class="cls-4" cx="121.48" cy="131.5" r="7.34"/><path class="cls-2" d="M121.48,139.24a7.74,7.74,0,1,1,7.74-7.74A7.75,7.75,0,0,1,121.48,139.24Zm0-14.69a7,7,0,1,0,7,7A7,7,0,0,0,121.48,124.55Z"/><path class="cls-1" d="M124.75,135.21a3.27,3.27,0,1,0-6.53,0Z"/><path class="cls-2" d="M121.84,135.61h-2.46c-1.56,0-1.56,0-1.56-.4a3.66,3.66,0,1,1,7.32,0C125.14,135.61,125.14,135.61,121.84,135.61Zm2.89-.4h0Zm-6.09-.4h5.68a2.87,2.87,0,0,0-5.68,0Z"/><path class="cls-1" d="M119.65,129.64a1.86,1.86,0,1,0,1.85-1.85A1.85,1.85,0,0,0,119.65,129.64Z"/><path class="cls-2" d="M121.5,131.89a2.25,2.25,0,1,1,2.25-2.25A2.25,2.25,0,0,1,121.5,131.89Zm0-3.71a1.46,1.46,0,1,0,1.46,1.46A1.46,1.46,0,0,0,121.5,128.18Z"/><path class="cls-4" d="M125.22,157.55h-7.48a1.68,1.68,0,0,1-1.68-1.68h0a1.68,1.68,0,0,1,1.68-1.68h7.48a1.68,1.68,0,0,1,1.68,1.68h0A1.68,1.68,0,0,1,125.22,157.55Z"/><path class="cls-2" d="M125.22,158h-7.48a2.08,2.08,0,0,1,0-4.16h7.48a2.08,2.08,0,0,1,0,4.16Zm-7.48-3.36a1.29,1.29,0,0,0,0,2.57h7.48a1.29,1.29,0,1,0,0-2.57Z"/><path class="cls-6" d="M532.56,180.11h-109a1,1,0,0,1-1-1V106.24a2.88,2.88,0,0,1,2.88-2.89H530.68a2.89,2.89,0,0,1,2.89,2.89V179.1A1,1,0,0,1,532.56,180.11Z"/><path class="cls-2" d="M532.56,180.51h-109a1.41,1.41,0,0,1-1.41-1.41V106.24a3.29,3.29,0,0,1,3.28-3.28H530.69a3.29,3.29,0,0,1,3.28,3.28V179.1A1.42,1.42,0,0,1,532.56,180.51ZM425.42,103.75a2.48,2.48,0,0,0-2.48,2.49V179.1a.61.61,0,0,0,.61.61h109a.61.61,0,0,0,.61-.61V106.24a2.48,2.48,0,0,0-2.49-2.49Z"/><polyline class="cls-7" points="430.66 123.37 430.66 110.72 525.45 110.72 525.45 172.75 430.66 172.75 430.66 161.12"/><path class="cls-2" d="M525.45,173.14H430.66a.4.4,0,0,1-.4-.39V161.12a.4.4,0,0,1,.4-.39.39.39,0,0,1,.39.39v11.23h94V111.11h-94v12.26a.38.38,0,0,1-.39.39.39.39,0,0,1-.4-.39V110.72a.4.4,0,0,1,.4-.4h94.79a.39.39,0,0,1,.39.4v62A.39.39,0,0,1,525.45,173.14Z"/><path class="cls-2" d="M430.66,150.53a.39.39,0,0,1-.4-.39V130a.4.4,0,0,1,.4-.39.39.39,0,0,1,.39.39v20.13A.38.38,0,0,1,430.66,150.53Z"/><path class="cls-2" d="M478.05,108.36a1.25,1.25,0,1,1,1.25-1.24A1.24,1.24,0,0,1,478.05,108.36Zm0-1.7a.46.46,0,0,0-.45.46.45.45,0,0,0,.45.45.46.46,0,0,0,.46-.45A.47.47,0,0,0,478.05,106.66Z"/><path class="cls-2" d="M547.86,189.47H408.24a3.88,3.88,0,0,1-3.87-3.88v-6.06H551.74v6.06A3.88,3.88,0,0,1,547.86,189.47Z"/><path class="cls-2" d="M547.86,189.86H408.24a4.27,4.27,0,0,1-4.27-4.27v-6.06a.4.4,0,0,1,.4-.4H551.74a.39.39,0,0,1,.39.4v6.06A4.27,4.27,0,0,1,547.86,189.86Zm-143.09-9.94v5.67a3.48,3.48,0,0,0,3.47,3.48H547.86a3.48,3.48,0,0,0,3.48-3.48v-5.67Z"/><path class="cls-2" d="M550.33,187.53H405.78a.39.39,0,0,1-.4-.39.4.4,0,0,1,.4-.4H550.33a.4.4,0,0,1,.4.4A.39.39,0,0,1,550.33,187.53Z"/><rect class="cls-1" x="463.99" y="180.15" width="28.13" height="3.11"/><path class="cls-2" d="M492.12,183.65H464a.4.4,0,0,1-.4-.4v-3.1a.4.4,0,0,1,.4-.4h28.13a.39.39,0,0,1,.39.4v3.1A.39.39,0,0,1,492.12,183.65Zm-27.73-.79h27.33v-2.31H464.39Z"/><path class="cls-8" d="M498.35,166H451.61a2,2,0,0,1-2-2V124.51a2,2,0,0,1,2-2h46.74a2,2,0,0,1,2,2v39.41A2,2,0,0,1,498.35,166Z"/><path class="cls-1" d="M501.36,162.51h-46a2.38,2.38,0,0,1-2.39-2.38v-38.7a2.39,2.39,0,0,1,2.39-2.38h46a2.39,2.39,0,0,1,2.39,2.38v38.7A2.38,2.38,0,0,1,501.36,162.51Z"/><path class="cls-2" d="M501.36,162.91h-46a2.79,2.79,0,0,1-2.78-2.78V121.44a2.79,2.79,0,0,1,2.78-2.79h46a2.78,2.78,0,0,1,2.78,2.79v38.69A2.79,2.79,0,0,1,501.36,162.91Zm-46-43.46a2,2,0,0,0-2,2v38.69a2,2,0,0,0,2,2h46a2,2,0,0,0,2-2V121.44a2,2,0,0,0-2-2Z"/><path class="cls-3" d="M493.61,146.63H463a2.21,2.21,0,0,1-2.21-2.21v-.27a2.21,2.21,0,0,1,2.21-2.21h30.64a2.21,2.21,0,0,1,2.22,2.21v.27A2.21,2.21,0,0,1,493.61,146.63Z"/><path class="cls-2" d="M493.61,147H463a2.61,2.61,0,0,1-2.61-2.61v-.27a2.61,2.61,0,0,1,2.61-2.61h30.64a2.61,2.61,0,0,1,2.61,2.61v.27A2.61,2.61,0,0,1,493.61,147ZM463,142.33a1.83,1.83,0,0,0-1.82,1.82v.27a1.83,1.83,0,0,0,1.82,1.82h30.64a1.82,1.82,0,0,0,1.82-1.82v-.27a1.82,1.82,0,0,0-1.82-1.82Z"/><path class="cls-1" d="M490.86,145.18H465.51a1,1,0,0,1-.94-1v-.09a.94.94,0,0,1,.94-.94h25.35a1,1,0,0,1,.95.94v.09A1,1,0,0,1,490.86,145.18Zm-25.35-1.59a.55.55,0,0,0-.55.55v.09a.55.55,0,0,0,.55.55h25.35a.55.55,0,0,0,.55-.55v-.09a.55.55,0,0,0-.55-.55Z"/><path class="cls-3" d="M488.39,152h-20.2a1.36,1.36,0,0,1-1.36-1.36h0a1.36,1.36,0,0,1,1.36-1.37h20.2a1.37,1.37,0,0,1,1.37,1.37h0A1.36,1.36,0,0,1,488.39,152Z"/><path class="cls-2" d="M488.39,152.39h-20.2a1.76,1.76,0,1,1,0-3.52h20.2a1.76,1.76,0,0,1,0,3.52Zm-20.2-2.73a1,1,0,1,0,0,1.94h20.2a1,1,0,1,0,0-1.94Z"/><path class="cls-1" d="M472.11,151.29a.66.66,0,0,1,0-1.32.66.66,0,0,1,0,1.32Zm0-.92a.26.26,0,0,0-.27.26.27.27,0,0,0,.53,0A.26.26,0,0,0,472.11,150.37Z"/><path class="cls-1" d="M474.64,151.29a.66.66,0,1,1,.66-.66A.67.67,0,0,1,474.64,151.29Zm0-.92a.26.26,0,0,0-.26.26.26.26,0,0,0,.26.26.26.26,0,0,0,0-.52Z"/><path class="cls-1" d="M477,151.29a.66.66,0,1,1,.66-.66A.67.67,0,0,1,477,151.29Zm0-.92a.25.25,0,0,0-.26.26.26.26,0,0,0,.26.26.26.26,0,0,0,.26-.26A.26.26,0,0,0,477,150.37Z"/><path class="cls-1" d="M479.54,151.29a.66.66,0,1,1,.66-.66A.66.66,0,0,1,479.54,151.29Zm0-.92a.26.26,0,0,0-.26.26.27.27,0,0,0,.53,0A.26.26,0,0,0,479.54,150.37Z"/><path class="cls-1" d="M482,151.29a.66.66,0,1,1,.66-.66A.67.67,0,0,1,482,151.29Zm0-.92a.26.26,0,0,0-.26.26.26.26,0,0,0,.26.26.26.26,0,0,0,0-.52Z"/><path class="cls-1" d="M484.55,151.29a.66.66,0,0,1,0-1.32.66.66,0,0,1,0,1.32Zm0-.92a.26.26,0,0,0-.27.26.27.27,0,0,0,.53,0A.26.26,0,0,0,484.55,150.37Z"/><circle class="cls-4" cx="478.29" cy="131.5" r="7.34"/><path class="cls-2" d="M478.29,139.24A7.74,7.74,0,1,1,486,131.5,7.75,7.75,0,0,1,478.29,139.24Zm0-14.69a7,7,0,1,0,6.95,7A7,7,0,0,0,478.29,124.55Z"/><path class="cls-1" d="M481.55,135.21a3.26,3.26,0,1,0-6.52,0Z"/><path class="cls-2" d="M478.65,135.61h-2.46c-1.56,0-1.56,0-1.56-.4a3.66,3.66,0,1,1,7.32,0C482,135.61,482,135.61,478.65,135.61Zm2.89-.4h0Zm-6.09-.4h5.68a2.87,2.87,0,0,0-5.68,0Z"/><path class="cls-1" d="M476.46,129.64a1.86,1.86,0,1,0,1.85-1.85A1.85,1.85,0,0,0,476.46,129.64Z"/><path class="cls-2" d="M478.31,131.89a2.25,2.25,0,1,1,2.25-2.25A2.25,2.25,0,0,1,478.31,131.89Zm0-3.71a1.46,1.46,0,1,0,1.46,1.46A1.46,1.46,0,0,0,478.31,128.18Z"/><path class="cls-4" d="M482,157.55h-7.48a1.68,1.68,0,0,1-1.68-1.68h0a1.68,1.68,0,0,1,1.68-1.68H482a1.68,1.68,0,0,1,1.68,1.68h0A1.68,1.68,0,0,1,482,157.55Z"/><path class="cls-2" d="M482,158h-7.48a2.08,2.08,0,1,1,0-4.16H482a2.08,2.08,0,1,1,0,4.16Zm-7.48-3.36a1.28,1.28,0,0,0-1.28,1.28,1.29,1.29,0,0,0,1.28,1.29H482a1.29,1.29,0,1,0,0-2.57Z"/><rect class="cls-6" x="380.58" y="157.59" width="64.84" height="113.13"/><rect class="cls-1" x="375.81" y="150.69" width="64.84" height="115.27"/><path class="cls-2" d="M440.65,266.36H375.81a.39.39,0,0,1-.39-.4V150.69a.39.39,0,0,1,.39-.4h64.84a.4.4,0,0,1,.4.4V266A.4.4,0,0,1,440.65,266.36Zm-64.44-.8h64.05V151.08H376.21V265.56Z"/><rect class="cls-5" x="375.92" y="150.69" width="64.68" height="9.27"/><path class="cls-2" d="M441,160.36H375.52V150.3H441Zm-64.67-.79H440.2v-8.48H376.32v8.48Z"/><path class="cls-1" d="M424.56,156.91A1.41,1.41,0,1,1,426,155.5,1.41,1.41,0,0,1,424.56,156.91Zm0-2.23a.82.82,0,0,0-.82.82.82.82,0,0,0,.82.81.81.81,0,0,0,.81-.81A.82.82,0,0,0,424.56,154.68Z"/><path class="cls-1" d="M430.34,156.91a1.41,1.41,0,1,1,1.41-1.41A1.41,1.41,0,0,1,430.34,156.91Zm0-2.23a.82.82,0,0,0-.81.82.81.81,0,0,0,.81.81.82.82,0,0,0,.82-.81A.82.82,0,0,0,430.34,154.68Z"/><path class="cls-1" d="M436.22,156.91a1.41,1.41,0,1,1,1.41-1.41A1.41,1.41,0,0,1,436.22,156.91Zm0-2.23a.82.82,0,0,0-.81.82.81.81,0,0,0,.81.81.82.82,0,0,0,.82-.81A.82.82,0,0,0,436.22,154.68Z"/><path class="cls-5" d="M406.24,173.57h-19.7a.4.4,0,0,1-.4-.4.39.39,0,0,1,.4-.39h19.7a.39.39,0,0,1,.4.39A.4.4,0,0,1,406.24,173.57Z"/><path class="cls-3" d="M418.2,173.57h-7a.4.4,0,0,1-.4-.4.39.39,0,0,1,.4-.39h7a.39.39,0,0,1,.4.39A.4.4,0,0,1,418.2,173.57Z"/><path class="cls-3" d="M430.28,173.57h-6.45a.4.4,0,0,1-.4-.4.39.39,0,0,1,.4-.39h6.45a.38.38,0,0,1,.39.39A.39.39,0,0,1,430.28,173.57Z"/><path class="cls-5" d="M430.28,188.82h-19.7a.4.4,0,1,1,0-.79h19.7a.4.4,0,0,1,0,.79Z"/><path class="cls-3" d="M405.66,188.82h-7a.4.4,0,1,1,0-.79h7a.4.4,0,0,1,0,.79Z"/><path class="cls-3" d="M393,188.82h-6.45a.4.4,0,1,1,0-.79H393a.4.4,0,0,1,0,.79Z"/><path class="cls-5" d="M396.68,181.12H386.54a.4.4,0,0,1-.4-.4.39.39,0,0,1,.4-.39h10.14a.38.38,0,0,1,.39.39A.39.39,0,0,1,396.68,181.12Z"/><path class="cls-3" d="M418.2,181.12H401a.39.39,0,0,1-.39-.4.38.38,0,0,1,.39-.39H418.2a.39.39,0,0,1,.4.39A.4.4,0,0,1,418.2,181.12Z"/><path class="cls-5" d="M430.28,181.12h-6.45a.4.4,0,0,1-.4-.4.39.39,0,0,1,.4-.39h6.45a.38.38,0,0,1,.39.39A.39.39,0,0,1,430.28,181.12Z"/><path class="cls-5" d="M406.24,195.6h-19.7a.4.4,0,1,1,0-.79h19.7a.4.4,0,1,1,0,.79Z"/><path class="cls-3" d="M418.2,195.6h-7a.4.4,0,1,1,0-.79h7a.4.4,0,1,1,0,.79Z"/><path class="cls-5" d="M406.24,220h-19.7a.39.39,0,0,1-.4-.39.4.4,0,0,1,.4-.4h19.7a.4.4,0,0,1,.4.4A.39.39,0,0,1,406.24,220Z"/><path class="cls-3" d="M418.2,220h-7a.39.39,0,0,1-.4-.39.4.4,0,0,1,.4-.4h7a.4.4,0,0,1,.4.4A.39.39,0,0,1,418.2,220Z"/><path class="cls-3" d="M430.28,195.6h-6.45a.4.4,0,1,1,0-.79h6.45a.4.4,0,0,1,0,.79Z"/><path class="cls-5" d="M430.28,210.85h-19.7a.4.4,0,1,1,0-.79h19.7a.4.4,0,0,1,0,.79Z"/><path class="cls-3" d="M405.66,210.85h-7a.4.4,0,1,1,0-.79h7a.4.4,0,0,1,0,.79Z"/><path class="cls-3" d="M393,210.85h-6.45a.4.4,0,1,1,0-.79H393a.4.4,0,0,1,0,.79Z"/><path class="cls-5" d="M428.69,228.31h-7a.4.4,0,1,1,0-.79h7a.39.39,0,0,1,.39.4A.38.38,0,0,1,428.69,228.31Z"/><path class="cls-5" d="M416,228.31h-6.45a.4.4,0,1,1,0-.79H416a.4.4,0,0,1,.4.4A.39.39,0,0,1,416,228.31Z"/><path class="cls-5" d="M396.68,203.15H386.54a.4.4,0,0,1-.4-.4.39.39,0,0,1,.4-.39h10.14a.38.38,0,0,1,.39.39A.39.39,0,0,1,396.68,203.15Z"/><path class="cls-3" d="M418.2,203.15H401a.39.39,0,0,1-.39-.4.38.38,0,0,1,.39-.39H418.2a.39.39,0,0,1,.4.39A.4.4,0,0,1,418.2,203.15Z"/><path class="cls-5" d="M430.28,203.15h-6.45a.4.4,0,0,1-.4-.4.39.39,0,0,1,.4-.39h6.45a.38.38,0,0,1,.39.39A.39.39,0,0,1,430.28,203.15Z"/><path class="cls-3" d="M426.65,236.43H409.44a.4.4,0,0,1,0-.8h17.21a.4.4,0,0,1,0,.8Z"/><path class="cls-5" d="M415.92,244h-6.45a.4.4,0,0,1,0-.8h6.45a.4.4,0,1,1,0,.8Z"/><path class="cls-2" d="M458.7,294.65h81.64a1.57,1.57,0,0,0,1.57-1.57V235.8a1.57,1.57,0,0,0-1.57-1.57H458.7a1.57,1.57,0,0,0-1.57,1.57v57.28A1.57,1.57,0,0,0,458.7,294.65Z"/><path class="cls-2" d="M540.34,295.05H458.7a2,2,0,0,1-2-2V235.8a2,2,0,0,1,2-2h81.64a2,2,0,0,1,2,2v57.28A2,2,0,0,1,540.34,295.05ZM458.7,234.63a1.17,1.17,0,0,0-1.17,1.17v57.28a1.17,1.17,0,0,0,1.17,1.18h81.64a1.18,1.18,0,0,0,1.18-1.18V235.8a1.18,1.18,0,0,0-1.18-1.17Z"/><path class="cls-4" d="M461.88,239.84h84.77v-7.76a2.42,2.42,0,0,0-2.42-2.42H463.75a1.87,1.87,0,0,0-1.87,1.87Z"/><path class="cls-2" d="M547.05,240.23H461.48v-8.7a2.27,2.27,0,0,1,2.27-2.27h80.48a2.82,2.82,0,0,1,2.82,2.82v8.15Zm-84.77-.79h84v-7.36a2,2,0,0,0-2-2H463.75a1.48,1.48,0,0,0-1.47,1.48v7.91Z"/><path class="cls-1" d="M473,236.59a2,2,0,1,1,2-2A2,2,0,0,1,473,236.59Zm0-3.13a1.17,1.17,0,1,0,1.17,1.17A1.17,1.17,0,0,0,473,233.46Z"/><path class="cls-1" d="M479.12,236.59a2,2,0,1,1,2-2A2,2,0,0,1,479.12,236.59Zm0-3.13a1.17,1.17,0,1,0,1.17,1.17A1.16,1.16,0,0,0,479.12,233.46Z"/><path class="cls-1" d="M467,236.59a2,2,0,1,1,2-2A2,2,0,0,1,467,236.59Zm0-3.13a1.17,1.17,0,1,0,1.17,1.17A1.16,1.16,0,0,0,467,233.46Z"/><path class="cls-1" d="M462.12,289.66h84.24a.27.27,0,0,0,.27-.28V240.11a.27.27,0,0,0-.27-.27H462.12a.28.28,0,0,0-.28.27v49.27A.29.29,0,0,0,462.12,289.66Z"/><path class="cls-2" d="M546.36,290.06H462.12a.68.68,0,0,1-.67-.67V240.11a.67.67,0,0,1,.67-.67h84.24a.67.67,0,0,1,.67.67v49.28A.69.69,0,0,1,546.36,290.06Zm-84.12-.8h84v-49h-84Z"/><path class="cls-3" d="M535.58,252.31H497.47a.39.39,0,0,1-.4-.39.4.4,0,0,1,.4-.4h38.11a.4.4,0,0,1,.39.4A.38.38,0,0,1,535.58,252.31Z"/><path class="cls-5" d="M510.85,258.1H497.47a.4.4,0,1,1,0-.8h13.38a.4.4,0,0,1,0,.8Z"/><path class="cls-3" d="M532.62,258.1H516.36a.4.4,0,1,1,0-.8h16.26a.4.4,0,0,1,0,.8Z"/><path class="cls-5" d="M521.89,275.64H497.47a.4.4,0,1,1,0-.79h24.42a.4.4,0,0,1,.4.4A.39.39,0,0,1,521.89,275.64Z"/><path class="cls-5" d="M535.91,264.17H497.47a.39.39,0,0,1-.4-.39.4.4,0,0,1,.4-.4h38.44a.4.4,0,0,1,.4.4A.39.39,0,0,1,535.91,264.17Z"/><path class="cls-3" d="M509.65,270H497.47a.39.39,0,0,1-.4-.39.4.4,0,0,1,.4-.4h12.18a.39.39,0,0,1,.39.4A.38.38,0,0,1,509.65,270Z"/><path class="cls-5" d="M535.58,270H513.39a.39.39,0,0,1-.39-.39.4.4,0,0,1,.39-.4h22.19a.4.4,0,0,1,.39.4A.38.38,0,0,1,535.58,270Z"/><path class="cls-2" d="M480.53,262.3V249.64a12.66,12.66,0,1,0,12.66,12.66Z"/><path class="cls-2" d="M480.53,275.36a13.06,13.06,0,1,1,0-26.12.4.4,0,0,1,.4.4V261.9h12.26a.4.4,0,0,1,.4.4A13.08,13.08,0,0,1,480.53,275.36ZM480.14,250a12.26,12.26,0,1,0,12.65,12.65H480.53a.38.38,0,0,1-.39-.39Z"/><path class="cls-3" d="M479.44,262.46V249.8a12.66,12.66,0,1,0,12.66,12.66Z"/><path class="cls-2" d="M479.44,275.52a13.06,13.06,0,0,1,0-26.12h.39v12.66h12.66v.4A13.07,13.07,0,0,1,479.44,275.52ZM479,250.2a12.27,12.27,0,1,0,12.66,12.66H479Z"/><path class="cls-5" d="M490,258a6.33,6.33,0,0,0-6.34-6.33V258Z"/><path class="cls-2" d="M490.37,258.37h-7.13v-7.13h.4a6.74,6.74,0,0,1,6.73,6.73Zm-6.33-.8h5.53A6,6,0,0,0,484,252Z"/><circle class="cls-2" cx="542.93" cy="230.81" r="19.64"/><path class="cls-2" d="M542.91,250.82a20,20,0,1,1,20-20A20.05,20.05,0,0,1,542.91,250.82Zm0-39.27a19.24,19.24,0,1,0,19.25,19.24A19.26,19.26,0,0,0,542.91,211.55Z"/><circle class="cls-5" cx="544.69" cy="228.9" r="19.64"/><path class="cls-2" d="M544.68,248.91a20,20,0,1,1,20-20A20,20,0,0,1,544.68,248.91Zm0-39.27a19.24,19.24,0,1,0,19.24,19.24A19.26,19.26,0,0,0,544.68,209.64Z"/><path class="cls-1" d="M551.91,224.69h-1.18a6.58,6.58,0,0,0-13,0h-1.85a5.48,5.48,0,0,0,0,10.92h16a5.48,5.48,0,0,0,0-10.92Z"/><path class="cls-2" d="M551.91,236h-16a5.87,5.87,0,0,1,0-11.71h1.53a7,7,0,0,1,13.62,0h.85a5.87,5.87,0,0,1,0,11.71Zm-16-10.92a5.09,5.09,0,0,0,0,10.13h16a5.09,5.09,0,0,0,0-10.13h-1.18a.39.39,0,0,1-.39-.33,6.18,6.18,0,0,0-12.19,0,.39.39,0,0,1-.39.33Z"/><rect class="cls-1" x="273.04" y="332.41" width="48.97" height="34.82"/><path class="cls-2" d="M322,367.63H273a.39.39,0,0,1-.39-.4V332.41a.39.39,0,0,1,.39-.4h49a.4.4,0,0,1,.4.4v34.82A.4.4,0,0,1,322,367.63Zm-48.57-.8h48.18v-34H273.44Z"/><path class="cls-2" d="M395.47,332.15H199.58a6.88,6.88,0,0,1-6.71-7V198.07a6.87,6.87,0,0,1,6.71-7H395.47a6.87,6.87,0,0,1,6.71,7V325.13A6.87,6.87,0,0,1,395.47,332.15Z"/><path class="cls-2" d="M395.47,332.54H199.58a7.27,7.27,0,0,1-7.11-7.41V198.07a7.28,7.28,0,0,1,7.11-7.42H395.47a7.28,7.28,0,0,1,7.11,7.42V325.13A7.27,7.27,0,0,1,395.47,332.54ZM199.58,191.44a6.49,6.49,0,0,0-6.31,6.63V325.13a6.48,6.48,0,0,0,6.31,6.62H395.47a6.49,6.49,0,0,0,6.32-6.62V198.07a6.49,6.49,0,0,0-6.32-6.63Z"/><path class="cls-1" d="M395.47,336H199.58a6.88,6.88,0,0,1-6.71-7V202a6.87,6.87,0,0,1,6.71-7H395.47a6.87,6.87,0,0,1,6.71,7V329A6.87,6.87,0,0,1,395.47,336Z"/><path class="cls-2" d="M395.47,336.42H199.58a7.28,7.28,0,0,1-7.11-7.42V202a7.28,7.28,0,0,1,7.11-7.42H395.47a7.28,7.28,0,0,1,7.11,7.42V329A7.28,7.28,0,0,1,395.47,336.42ZM199.58,195.32a6.48,6.48,0,0,0-6.31,6.63V329a6.48,6.48,0,0,0,6.31,6.63H395.47a6.49,6.49,0,0,0,6.32-6.63V202a6.49,6.49,0,0,0-6.32-6.63Z"/><path class="cls-6" d="M389.82,240.67V211a2.23,2.23,0,0,0-2.19-2.27H207.06a2.23,2.23,0,0,0-2.19,2.27V321.53h185V292.22"/><path class="cls-6" d="M389.82,321.92H204.87a.39.39,0,0,1-.39-.39V211a2.62,2.62,0,0,1,2.58-2.66H387.63a2.62,2.62,0,0,1,2.58,2.66v29.65a.4.4,0,0,1-.79,0V211a1.84,1.84,0,0,0-1.79-1.87H207.06a1.83,1.83,0,0,0-1.79,1.87V321.13H389.42V292.22a.4.4,0,1,1,.79,0v29.31A.39.39,0,0,1,389.82,321.92Z"/><path class="cls-2" d="M390,276.09a.4.4,0,0,1-.4-.4V254.45a.4.4,0,0,1,.8,0v21.24A.4.4,0,0,1,390,276.09Z"/><path class="cls-1" d="M297.53,203.83h0a2.24,2.24,0,0,1-2.25-2.25h0a2.25,2.25,0,0,1,2.25-2.25h0a2.25,2.25,0,0,1,2.25,2.25h0A2.25,2.25,0,0,1,297.53,203.83Z"/><path class="cls-2" d="M297.53,204.23a2.65,2.65,0,1,1,2.64-2.65A2.65,2.65,0,0,1,297.53,204.23Zm0-4.5a1.86,1.86,0,1,0,1.85,1.85A1.86,1.86,0,0,0,297.53,199.73Z"/><path class="cls-4" d="M387,330.86h0a2.25,2.25,0,0,1-2.25-2.25h0a2.24,2.24,0,0,1,2.25-2.25h0a2.25,2.25,0,0,1,2.25,2.25h0A2.25,2.25,0,0,1,387,330.86Z"/><path class="cls-2" d="M387,331.25a2.65,2.65,0,1,1,2.64-2.64A2.65,2.65,0,0,1,387,331.25Zm0-4.5a1.86,1.86,0,1,0,1.85,1.86A1.86,1.86,0,0,0,387,326.75Z"/><path class="cls-2" d="M378.33,329.9a1.29,1.29,0,1,1,1.29-1.29A1.29,1.29,0,0,1,378.33,329.9Zm0-1.79a.5.5,0,1,0,.5.5A.49.49,0,0,0,378.33,328.11Z"/><path class="cls-2" d="M373.21,329.9a1.29,1.29,0,1,1,1.29-1.29A1.29,1.29,0,0,1,373.21,329.9Zm0-1.79a.5.5,0,1,0,.49.5A.5.5,0,0,0,373.21,328.11Z"/><rect class="cls-2" x="273.13" y="336.04" width="48.79" height="8.98"/><path class="cls-2" d="M321.92,345.41H273.13a.39.39,0,0,1-.39-.4v-9a.39.39,0,0,1,.39-.4h48.79a.4.4,0,0,1,.4.4v9A.4.4,0,0,1,321.92,345.41Zm-48.39-.79h48v-8.19h-48Z"/><path class="cls-1" d="M383.21,368.14l-.56-.35a20,20,0,0,0-10.66-3H221l-.71,0a13.64,13.64,0,0,0-12.09,7.91l-3,7.25H389.9A14.43,14.43,0,0,0,383.21,368.14Z"/><path class="cls-2" d="M389.9,380.37H205.15a.4.4,0,0,1-.33-.18.41.41,0,0,1,0-.37l3.06-7.25a14,14,0,0,1,12.43-8.16h.11l.62,0H372a20.37,20.37,0,0,1,10.87,3.06l.15.1.42.27h0A14.75,14.75,0,0,1,390.3,380,.4.4,0,0,1,389.9,380.37Zm-184.15-.79H389.5A14.07,14.07,0,0,0,383,368.47h0l-.4-.25-.15-.1A19.61,19.61,0,0,0,372,365.18H221l-.58,0h-.11a13.22,13.22,0,0,0-11.74,7.67Z"/><path class="cls-1" d="M237.71,372.74H224.64v-1.81a2.61,2.61,0,0,1,2.61-2.62h7.84a2.62,2.62,0,0,1,2.62,2.62Z"/><path class="cls-2" d="M237.71,373.13H224.64a.4.4,0,0,1-.4-.39v-1.81a3,3,0,0,1,3-3h7.84a3,3,0,0,1,3,3v1.81A.39.39,0,0,1,237.71,373.13ZM225,372.34h12.28v-1.41a2.22,2.22,0,0,0-2.22-2.22h-7.84a2.22,2.22,0,0,0-2.22,2.22Z"/><path class="cls-1" d="M253.89,372.74H240.82v-1.81a2.61,2.61,0,0,1,2.61-2.62h7.84a2.62,2.62,0,0,1,2.62,2.62v1.81Z"/><path class="cls-2" d="M253.89,373.13H240.82a.39.39,0,0,1-.39-.39v-1.81a3,3,0,0,1,3-3h7.84a3,3,0,0,1,3,3v1.81A.38.38,0,0,1,253.89,373.13Zm-12.67-.79h12.27v-1.41a2.21,2.21,0,0,0-2.22-2.22h-7.84a2.21,2.21,0,0,0-2.21,2.22v1.41Z"/><path class="cls-1" d="M270.47,372.74H257.41v-1.81a2.61,2.61,0,0,1,2.61-2.62h7.84a2.61,2.61,0,0,1,2.61,2.62Z"/><path class="cls-2" d="M270.47,373.13H257.41a.4.4,0,0,1-.4-.39v-1.81a3,3,0,0,1,3-3h7.84a3,3,0,0,1,3,3v1.81A.39.39,0,0,1,270.47,373.13Zm-12.67-.79h12.28v-1.41a2.22,2.22,0,0,0-2.22-2.22H260a2.22,2.22,0,0,0-2.22,2.22v1.41Z"/><path class="cls-1" d="M286.66,372.74H273.59v-1.81a2.61,2.61,0,0,1,2.61-2.62H284a2.62,2.62,0,0,1,2.62,2.62Z"/><path class="cls-2" d="M286.66,373.13H273.59a.4.4,0,0,1-.4-.39v-1.81a3,3,0,0,1,3-3H284a3,3,0,0,1,3,3v1.81A.38.38,0,0,1,286.66,373.13ZM274,372.34h12.27v-1.41a2.21,2.21,0,0,0-2.22-2.22H276.2a2.21,2.21,0,0,0-2.21,2.22v1.41Z"/><path class="cls-1" d="M303,372.74H290v-1.81a2.62,2.62,0,0,1,2.62-2.62h7.84a2.61,2.61,0,0,1,2.61,2.62Z"/><path class="cls-2" d="M303,373.13H290a.4.4,0,0,1-.39-.39v-1.81a3,3,0,0,1,3-3h7.84a3,3,0,0,1,3,3v1.81A.39.39,0,0,1,303,373.13Zm-12.67-.79h12.27v-1.41a2.21,2.21,0,0,0-2.21-2.22h-7.84a2.21,2.21,0,0,0-2.22,2.22v1.41Z"/><path class="cls-1" d="M319.22,372.74H306.16v-1.81a2.61,2.61,0,0,1,2.61-2.62h7.84a2.61,2.61,0,0,1,2.61,2.62v1.81Z"/><path class="cls-2" d="M319.22,373.13H306.16a.4.4,0,0,1-.4-.39v-1.81a3,3,0,0,1,3-3h7.84a3,3,0,0,1,3,3v1.81A.39.39,0,0,1,319.22,373.13Zm-12.67-.79h12.28v-1.41a2.22,2.22,0,0,0-2.22-2.22h-7.84a2.22,2.22,0,0,0-2.22,2.22v1.41Z"/><path class="cls-1" d="M335.81,372.74H322.74v-1.81a2.61,2.61,0,0,1,2.61-2.62h7.84a2.62,2.62,0,0,1,2.62,2.62Z"/><path class="cls-2" d="M335.81,373.13H322.74a.39.39,0,0,1-.39-.39v-1.81a3,3,0,0,1,3-3h7.84a3,3,0,0,1,3,3v1.81A.38.38,0,0,1,335.81,373.13Zm-12.67-.79h12.27v-1.41a2.21,2.21,0,0,0-2.22-2.22h-7.84a2.21,2.21,0,0,0-2.21,2.22v1.41Z"/><path class="cls-1" d="M352,372.74H338.92v-1.81a2.62,2.62,0,0,1,2.62-2.62h7.84a2.61,2.61,0,0,1,2.61,2.62Z"/><path class="cls-2" d="M352,373.13H338.92a.4.4,0,0,1-.39-.39v-1.81a3,3,0,0,1,3-3h7.84a3,3,0,0,1,3,3v1.81A.39.39,0,0,1,352,373.13Zm-12.67-.79H351.6v-1.41a2.22,2.22,0,0,0-2.22-2.22h-7.84a2.21,2.21,0,0,0-2.22,2.22v1.41Z"/><path class="cls-1" d="M369,372.74H355.91v-1.81a2.61,2.61,0,0,1,2.61-2.62h7.84a2.62,2.62,0,0,1,2.62,2.62Z"/><path class="cls-2" d="M369,373.13H355.91a.39.39,0,0,1-.39-.39v-1.81a3,3,0,0,1,3-3h7.84a3,3,0,0,1,3,3v1.81A.38.38,0,0,1,369,373.13Zm-12.67-.79h12.27v-1.41a2.21,2.21,0,0,0-2.22-2.22h-7.84a2.21,2.21,0,0,0-2.21,2.22v1.41Z"/><path class="cls-1" d="M230,375.75H217v-1.81a2.61,2.61,0,0,1,2.61-2.61h7.84a2.61,2.61,0,0,1,2.61,2.61v1.81Z"/><path class="cls-2" d="M230,376.15H217a.4.4,0,0,1-.4-.4v-1.81a3,3,0,0,1,3-3h7.84a3,3,0,0,1,3,3v1.81A.4.4,0,0,1,230,376.15Zm-12.67-.79h12.28v-1.42a2.22,2.22,0,0,0-2.22-2.21h-7.84a2.22,2.22,0,0,0-2.22,2.21Z"/><path class="cls-1" d="M246.21,375.75H233.14v-1.81a2.61,2.61,0,0,1,2.61-2.61h7.84a2.61,2.61,0,0,1,2.62,2.61Z"/><path class="cls-2" d="M246.21,376.15H233.14a.4.4,0,0,1-.4-.4v-1.81a3,3,0,0,1,3-3h7.84a3,3,0,0,1,3,3v1.81A.4.4,0,0,1,246.21,376.15Zm-12.68-.79h12.28v-1.42a2.22,2.22,0,0,0-2.22-2.21h-7.84a2.22,2.22,0,0,0-2.22,2.21v1.42Z"/><path class="cls-1" d="M262.79,375.75H249.72v-1.81a2.61,2.61,0,0,1,2.62-2.61h7.84a2.61,2.61,0,0,1,2.61,2.61Z"/><path class="cls-2" d="M262.79,376.15H249.72a.4.4,0,0,1-.39-.4v-1.81a3,3,0,0,1,3-3h7.84a3,3,0,0,1,3,3v1.81A.4.4,0,0,1,262.79,376.15Zm-12.67-.79h12.27v-1.42a2.21,2.21,0,0,0-2.21-2.21h-7.84a2.21,2.21,0,0,0-2.22,2.21v1.42Z"/><path class="cls-1" d="M279,375.75H265.91v-1.81a2.61,2.61,0,0,1,2.61-2.61h7.84a2.61,2.61,0,0,1,2.61,2.61v1.81Z"/><path class="cls-2" d="M279,376.15H265.91a.4.4,0,0,1-.4-.4v-1.81a3,3,0,0,1,3-3h7.84a3,3,0,0,1,3,3v1.81A.4.4,0,0,1,279,376.15Zm-12.67-.79h12.28v-1.42a2.22,2.22,0,0,0-2.22-2.21h-7.84a2.22,2.22,0,0,0-2.22,2.21v1.42Z"/><path class="cls-1" d="M295.36,375.75H282.29v-1.81a2.61,2.61,0,0,1,2.61-2.61h7.84a2.61,2.61,0,0,1,2.62,2.61Z"/><path class="cls-2" d="M295.36,376.15H282.29a.4.4,0,0,1-.4-.4v-1.81a3,3,0,0,1,3-3h7.84a3,3,0,0,1,3,3v1.81A.39.39,0,0,1,295.36,376.15Zm-12.67-.79H295v-1.42a2.21,2.21,0,0,0-2.22-2.21H284.9a2.21,2.21,0,0,0-2.21,2.21v1.42Z"/><path class="cls-1" d="M311.54,375.75H298.47v-1.81a2.61,2.61,0,0,1,2.62-2.61h7.84a2.61,2.61,0,0,1,2.61,2.61Z"/><path class="cls-2" d="M311.54,376.15H298.47a.39.39,0,0,1-.39-.4v-1.81a3,3,0,0,1,3-3h7.84a3,3,0,0,1,3,3v1.81A.4.4,0,0,1,311.54,376.15Zm-12.67-.79h12.27v-1.42a2.21,2.21,0,0,0-2.21-2.21h-7.84a2.21,2.21,0,0,0-2.22,2.21v1.42Z"/><path class="cls-1" d="M328.13,375.75H315.06v-1.81a2.61,2.61,0,0,1,2.61-2.61h7.84a2.61,2.61,0,0,1,2.62,2.61Z"/><path class="cls-2" d="M328.13,376.15H315.06a.4.4,0,0,1-.4-.4v-1.81a3,3,0,0,1,3-3h7.84a3,3,0,0,1,3,3v1.81A.4.4,0,0,1,328.13,376.15Zm-12.68-.79h12.28v-1.42a2.22,2.22,0,0,0-2.22-2.21h-7.84a2.22,2.22,0,0,0-2.22,2.21v1.42Z"/><path class="cls-1" d="M344.31,375.75H331.24v-1.81a2.61,2.61,0,0,1,2.61-2.61h7.84a2.61,2.61,0,0,1,2.62,2.61v1.81Z"/><path class="cls-2" d="M344.31,376.15H331.24a.39.39,0,0,1-.39-.4v-1.81a3,3,0,0,1,3-3h7.84a3,3,0,0,1,3,3v1.81A.41.41,0,0,1,344.31,376.15Zm-12.67-.79h12.27v-1.42a2.21,2.21,0,0,0-2.22-2.21h-7.84a2.21,2.21,0,0,0-2.21,2.21v1.42Z"/><path class="cls-1" d="M361.3,375.75H348.23v-1.81a2.61,2.61,0,0,1,2.61-2.61h7.84a2.61,2.61,0,0,1,2.61,2.61v1.81Z"/><path class="cls-2" d="M361.3,376.15H348.23a.4.4,0,0,1-.4-.4v-1.81a3,3,0,0,1,3-3h7.84a3,3,0,0,1,3,3v1.81A.4.4,0,0,1,361.3,376.15Zm-12.67-.79H360.9v-1.42a2.22,2.22,0,0,0-2.22-2.21h-7.84a2.22,2.22,0,0,0-2.22,2.21v1.42Z"/><path class="cls-1" d="M377.48,375.75H364.41v-1.81a2.61,2.61,0,0,1,2.61-2.61h7.84a2.61,2.61,0,0,1,2.62,2.61v1.81Z"/><path class="cls-2" d="M377.48,376.15H364.41a.39.39,0,0,1-.39-.4v-1.81a3,3,0,0,1,3-3h7.85a3,3,0,0,1,3,3v1.81A.39.39,0,0,1,377.48,376.15Zm-12.67-.79h12.27v-1.42a2.21,2.21,0,0,0-2.21-2.21H367a2.21,2.21,0,0,0-2.21,2.21Z"/><path class="cls-7" d="M320.1,311.85H221.42a3.18,3.18,0,0,1-3.18-3.18V223.33a3.19,3.19,0,0,1,3.18-3.18H320.1a3.18,3.18,0,0,1,3.17,3.18v85.34A3.17,3.17,0,0,1,320.1,311.85Z"/><path class="cls-2" d="M320.1,312.25H221.42a3.58,3.58,0,0,1-3.57-3.58V223.33a3.57,3.57,0,0,1,3.57-3.57H320.1a3.57,3.57,0,0,1,3.57,3.57v85.34A3.58,3.58,0,0,1,320.1,312.25Zm-98.68-91.7a2.79,2.79,0,0,0-2.78,2.78v85.34a2.78,2.78,0,0,0,2.78,2.78H320.1a2.78,2.78,0,0,0,2.78-2.78V223.33a2.79,2.79,0,0,0-2.78-2.78Z"/><path class="cls-3" d="M320.1,220.15H221.42a3.19,3.19,0,0,0-3.18,3.18v5.21h105v-5.21A3.18,3.18,0,0,0,320.1,220.15Z"/><path class="cls-2" d="M323.67,228.94H217.85v-5.61a3.57,3.57,0,0,1,3.57-3.57H320.1a3.57,3.57,0,0,1,3.57,3.57Zm-105-.8H322.88v-4.81a2.79,2.79,0,0,0-2.78-2.78H221.42a2.79,2.79,0,0,0-2.78,2.78Z"/><path class="cls-1" d="M230.68,226.4a1.81,1.81,0,1,1,1.81-1.81A1.81,1.81,0,0,1,230.68,226.4Zm0-2.83a1,1,0,1,0,1,1A1,1,0,0,0,230.68,223.57Z"/><path class="cls-1" d="M236.18,226.4a1.81,1.81,0,1,1,1.8-1.81A1.8,1.8,0,0,1,236.18,226.4Zm0-2.83a1,1,0,1,0,1,1A1,1,0,0,0,236.18,223.57Z"/><path class="cls-1" d="M225.22,226.4a1.81,1.81,0,1,1,1.81-1.81A1.81,1.81,0,0,1,225.22,226.4Zm0-2.83a1,1,0,1,0,1,1A1,1,0,0,0,225.22,223.57Z"/><path class="cls-3" d="M292.43,243.58H228.86a.4.4,0,0,1,0-.8h63.57a.4.4,0,1,1,0,.8Z"/><path class="cls-5" d="M251.19,255.13H228.86a.4.4,0,1,1,0-.79h22.33a.4.4,0,1,1,0,.79Z"/><path class="cls-3" d="M287.5,255.13H260.38a.4.4,0,1,1,0-.79H287.5a.4.4,0,0,1,0,.79Z"/><path class="cls-5" d="M269.61,290.2H228.86a.39.39,0,0,1-.4-.39.4.4,0,0,1,.4-.4h40.75a.39.39,0,0,1,.39.4A.38.38,0,0,1,269.61,290.2Z"/><path class="cls-5" d="M293,267.28H228.86a.4.4,0,0,1-.4-.4.39.39,0,0,1,.4-.39H293a.39.39,0,0,1,.4.39A.4.4,0,0,1,293,267.28Z"/><path class="cls-3" d="M249.18,278.83H228.86a.39.39,0,0,1-.4-.39.4.4,0,0,1,.4-.4h20.32a.4.4,0,0,1,.4.4A.39.39,0,0,1,249.18,278.83Z"/><path class="cls-5" d="M292.43,278.83h-37a.38.38,0,0,1-.39-.39.39.39,0,0,1,.39-.4h37a.4.4,0,0,1,.4.4A.39.39,0,0,1,292.43,278.83Z"/><path class="cls-2" d="M377,311.22H330.92a.65.65,0,0,1-.65-.65V234.08a.66.66,0,0,1,.65-.66H377a.65.65,0,0,1,.65.66v76.49A.65.65,0,0,1,377,311.22Z"/><path class="cls-2" d="M377,311.62H330.92a1,1,0,0,1-1.05-1.05V234.08a1,1,0,0,1,1.05-1.05H377a1.06,1.06,0,0,1,1.05,1.05v76.49A1.06,1.06,0,0,1,377,311.62Zm-46.11-77.8a.26.26,0,0,0-.26.26v76.49a.26.26,0,0,0,.26.25H377a.25.25,0,0,0,.25-.25V234.08a.25.25,0,0,0-.25-.26Z"/><path class="cls-5" d="M352.48,249h-15a.39.39,0,0,1-.4-.39.4.4,0,0,1,.4-.4h15a.4.4,0,0,1,.4.4A.39.39,0,0,1,352.48,249Z"/><path class="cls-1" d="M361.57,249h-5.35a.38.38,0,0,1-.39-.39.39.39,0,0,1,.39-.4h5.35a.39.39,0,0,1,.39.4A.38.38,0,0,1,361.57,249Z"/><path class="cls-1" d="M370.74,249h-4.9a.39.39,0,0,1-.39-.39.4.4,0,0,1,.39-.4h4.9a.4.4,0,0,1,.4.4A.39.39,0,0,1,370.74,249Z"/><path class="cls-5" d="M370.74,259.29h-15a.4.4,0,0,1-.4-.4.39.39,0,0,1,.4-.39h15a.39.39,0,0,1,.4.39A.4.4,0,0,1,370.74,259.29Z"/><path class="cls-1" d="M352,259.29h-5.35a.39.39,0,0,1-.39-.4.38.38,0,0,1,.39-.39H352a.39.39,0,0,1,.4.39A.4.4,0,0,1,352,259.29Z"/><path class="cls-1" d="M342.42,259.29h-4.9a.4.4,0,0,1-.4-.4.39.39,0,0,1,.4-.39h4.9a.38.38,0,0,1,.39.39A.39.39,0,0,1,342.42,259.29Z"/><path class="cls-5" d="M345.22,254.09h-7.7a.4.4,0,0,1-.4-.4.39.39,0,0,1,.4-.39h7.7a.39.39,0,0,1,.4.39A.4.4,0,0,1,345.22,254.09Z"/><path class="cls-1" d="M361.57,254.09H348.5a.4.4,0,0,1-.4-.4.39.39,0,0,1,.4-.39h13.07a.38.38,0,0,1,.39.39A.39.39,0,0,1,361.57,254.09Z"/><path class="cls-5" d="M370.74,254.09h-4.9a.4.4,0,0,1-.39-.4.39.39,0,0,1,.39-.39h4.9a.39.39,0,0,1,.4.39A.4.4,0,0,1,370.74,254.09Z"/><path class="cls-5" d="M352.48,263.86h-15a.39.39,0,0,1-.4-.39.4.4,0,0,1,.4-.4h15a.4.4,0,0,1,.4.4A.39.39,0,0,1,352.48,263.86Z"/><path class="cls-1" d="M361.57,263.86h-5.35a.38.38,0,0,1-.39-.39.39.39,0,0,1,.39-.4h5.35a.39.39,0,0,1,.39.4A.38.38,0,0,1,361.57,263.86Z"/><path class="cls-5" d="M352.48,280.36h-15a.4.4,0,1,1,0-.79h15a.4.4,0,1,1,0,.79Z"/><path class="cls-1" d="M361.57,280.36h-5.35a.4.4,0,0,1,0-.79h5.35a.4.4,0,0,1,0,.79Z"/><path class="cls-1" d="M370.74,263.86h-4.9a.39.39,0,0,1-.39-.39.4.4,0,0,1,.39-.4h4.9a.4.4,0,0,1,.4.4A.39.39,0,0,1,370.74,263.86Z"/><path class="cls-5" d="M370.74,274.16h-15a.4.4,0,0,1-.4-.4.39.39,0,0,1,.4-.39h15a.39.39,0,0,1,.4.39A.4.4,0,0,1,370.74,274.16Z"/><path class="cls-1" d="M352,274.16h-5.35a.39.39,0,0,1-.39-.4.38.38,0,0,1,.39-.39H352a.39.39,0,0,1,.4.39A.4.4,0,0,1,352,274.16Z"/><path class="cls-1" d="M342.42,274.16h-4.9a.4.4,0,0,1-.4-.4.39.39,0,0,1,.4-.39h4.9a.38.38,0,0,1,.39.39A.39.39,0,0,1,342.42,274.16Z"/><path class="cls-5" d="M352,285.94h-5.35a.4.4,0,0,1,0-.79H352a.4.4,0,1,1,0,.79Z"/><path class="cls-5" d="M342.42,285.94h-4.9a.4.4,0,1,1,0-.79h4.9a.4.4,0,0,1,0,.79Z"/><path class="cls-5" d="M345.22,269h-7.7a.4.4,0,0,1-.4-.4.39.39,0,0,1,.4-.39h7.7a.39.39,0,0,1,.4.39A.4.4,0,0,1,345.22,269Z"/><path class="cls-1" d="M361.57,269H348.5a.4.4,0,0,1-.4-.4.39.39,0,0,1,.4-.39h13.07a.38.38,0,0,1,.39.39A.39.39,0,0,1,361.57,269Z"/><path class="cls-5" d="M370.74,269h-4.9a.4.4,0,0,1-.39-.4.39.39,0,0,1,.39-.39h4.9a.39.39,0,0,1,.4.39A.4.4,0,0,1,370.74,269Z"/><path class="cls-1" d="M350.49,291.42H337.42a.4.4,0,0,1-.4-.4.39.39,0,0,1,.4-.39h13.07a.39.39,0,0,1,.4.39A.4.4,0,0,1,350.49,291.42Z"/><path class="cls-5" d="M342.34,296.55h-4.89a.4.4,0,0,1-.4-.4.39.39,0,0,1,.4-.39h4.89a.39.39,0,0,1,.4.39A.4.4,0,0,1,342.34,296.55Z"/><path class="cls-2" d="M329.48,303.87H255.25A3.85,3.85,0,0,1,251.4,300V237.6a3.84,3.84,0,0,1,3.85-3.84h74.23a3.84,3.84,0,0,1,3.85,3.84V300A3.85,3.85,0,0,1,329.48,303.87Z"/><path class="cls-1" d="M333.91,300.85H259.67a3.85,3.85,0,0,1-3.85-3.85V234.59a3.85,3.85,0,0,1,3.85-3.85h74.24a3.85,3.85,0,0,1,3.85,3.85V297A3.85,3.85,0,0,1,333.91,300.85Z"/><path class="cls-2" d="M333.91,301.25H259.67a4.25,4.25,0,0,1-4.24-4.25V234.59a4.25,4.25,0,0,1,4.24-4.25h74.24a4.25,4.25,0,0,1,4.24,4.25V297A4.25,4.25,0,0,1,333.91,301.25Zm-74.24-70.11a3.46,3.46,0,0,0-3.45,3.45V297a3.46,3.46,0,0,0,3.45,3.46h74.24a3.46,3.46,0,0,0,3.45-3.46V234.59a3.46,3.46,0,0,0-3.45-3.45Z"/><path class="cls-2" d="M335.47,155.92H256.05a5.74,5.74,0,0,1-5.74-5.74v-.7a5.74,5.74,0,0,1,5.74-5.74h79.42a5.74,5.74,0,0,1,5.74,5.74v.7A5.74,5.74,0,0,1,335.47,155.92Z"/><path class="cls-2" d="M335.47,156.31H256.05a6.14,6.14,0,0,1-6.13-6.13v-.7a6.14,6.14,0,0,1,6.13-6.13h79.42a6.14,6.14,0,0,1,6.14,6.13v.7A6.14,6.14,0,0,1,335.47,156.31Zm-79.42-12.17a5.35,5.35,0,0,0-5.34,5.34v.7a5.35,5.35,0,0,0,5.34,5.34h79.42a5.35,5.35,0,0,0,5.35-5.34v-.7a5.35,5.35,0,0,0-5.35-5.34Z"/><path class="cls-2" d="M321.94,169.81H269.59a3.54,3.54,0,0,1-3.54-3.54h0a3.53,3.53,0,0,1,3.54-3.54h52.35a3.54,3.54,0,0,1,3.54,3.54h0A3.55,3.55,0,0,1,321.94,169.81Z"/><path class="cls-2" d="M321.94,170.2H269.59a3.94,3.94,0,1,1,0-7.87h52.35a3.94,3.94,0,0,1,0,7.87Zm-52.35-7.07a3.14,3.14,0,1,0,0,6.28h52.35a3.14,3.14,0,0,0,0-6.28Z"/><path class="cls-2" d="M305.45,184.22H286.07a4.36,4.36,0,0,1-4.36-4.36h0a4.36,4.36,0,0,1,4.36-4.36h19.38a4.37,4.37,0,0,1,4.37,4.36h0A4.37,4.37,0,0,1,305.45,184.22Z"/><path class="cls-2" d="M305.45,184.62H286.07a4.76,4.76,0,0,1,0-9.52h19.38a4.76,4.76,0,0,1,0,9.52Zm-19.38-8.72a4,4,0,0,0,0,7.93h19.38a4,4,0,1,0,0-7.93Z"/><path class="cls-3" d="M336.51,153.68H257.09a5.74,5.74,0,0,1-5.74-5.74v-.7a5.73,5.73,0,0,1,5.74-5.73H336.5a5.73,5.73,0,0,1,5.74,5.73v.7A5.73,5.73,0,0,1,336.51,153.68Z"/><path class="cls-2" d="M336.51,154.08H257.09a6.15,6.15,0,0,1-6.14-6.14v-.69a6.14,6.14,0,0,1,6.14-6.14h79.42a6.14,6.14,0,0,1,6.13,6.14v.69A6.15,6.15,0,0,1,336.51,154.08ZM257.09,141.9a5.35,5.35,0,0,0-5.35,5.34v.7a5.35,5.35,0,0,0,5.35,5.34h79.42a5.35,5.35,0,0,0,5.34-5.34v-.7a5.35,5.35,0,0,0-5.34-5.34Z"/><path class="cls-1" d="M329.37,149.78H263.66a2.33,2.33,0,0,1-2.33-2.33v-.23a2.34,2.34,0,0,1,2.33-2.34h65.71a2.34,2.34,0,0,1,2.34,2.34v.23A2.33,2.33,0,0,1,329.37,149.78Zm-65.71-4.1a1.55,1.55,0,0,0-1.54,1.54v.23a1.55,1.55,0,0,0,1.54,1.54h65.71a1.54,1.54,0,0,0,1.54-1.54v-.23a1.54,1.54,0,0,0-1.54-1.54Z"/><path class="cls-3" d="M323,167.57H270.62a3.53,3.53,0,0,1-3.54-3.54h0a3.54,3.54,0,0,1,3.54-3.54H323a3.54,3.54,0,0,1,3.54,3.54h0A3.53,3.53,0,0,1,323,167.57Z"/><path class="cls-2" d="M323,168H270.62a3.94,3.94,0,1,1,0-7.87H323a3.94,3.94,0,1,1,0,7.87Zm-52.35-7.08a3.14,3.14,0,0,0,0,6.28H323a3.14,3.14,0,1,0,0-6.28Z"/><path class="cls-1" d="M280.76,165.62a1.59,1.59,0,1,1,1.59-1.59A1.59,1.59,0,0,1,280.76,165.62Zm0-2.38a.79.79,0,0,0-.79.79.79.79,0,0,0,.79.8.8.8,0,0,0,.8-.8A.79.79,0,0,0,280.76,163.24Z"/><path class="cls-1" d="M287.33,165.62a1.59,1.59,0,1,1,1.59-1.59A1.59,1.59,0,0,1,287.33,165.62Zm0-2.38a.79.79,0,0,0-.79.79.79.79,0,0,0,.79.8.8.8,0,0,0,.8-.8A.79.79,0,0,0,287.33,163.24Z"/><path class="cls-1" d="M293.47,165.62a1.59,1.59,0,1,1,1.59-1.59A1.59,1.59,0,0,1,293.47,165.62Zm0-2.38a.79.79,0,0,0-.8.79.8.8,0,1,0,1.6,0A.79.79,0,0,0,293.47,163.24Z"/><path class="cls-1" d="M300,165.62a1.59,1.59,0,1,1,1.59-1.59A1.59,1.59,0,0,1,300,165.62Zm0-2.38a.79.79,0,0,0-.79.79.79.79,0,0,0,.79.8.8.8,0,0,0,.8-.8A.79.79,0,0,0,300,163.24Z"/><path class="cls-1" d="M306.43,165.62A1.59,1.59,0,1,1,308,164,1.59,1.59,0,0,1,306.43,165.62Zm0-2.38a.79.79,0,0,0-.79.79.79.79,0,0,0,.79.8.8.8,0,0,0,.8-.8A.79.79,0,0,0,306.43,163.24Z"/><path class="cls-1" d="M313,165.62a1.59,1.59,0,1,1,1.59-1.59A1.59,1.59,0,0,1,313,165.62Zm0-2.38a.79.79,0,0,0-.79.79.79.79,0,0,0,.79.8.8.8,0,0,0,.8-.8A.79.79,0,0,0,313,163.24Z"/><circle class="cls-2" cx="294.04" cy="116.86" r="19.03"/><path class="cls-2" d="M294,136.29a19.43,19.43,0,1,1,19.43-19.42A19.45,19.45,0,0,1,294,136.29Zm0-38.06a18.64,18.64,0,1,0,18.64,18.63A18.65,18.65,0,0,0,294,98.23Z"/><circle class="cls-5" cx="296.8" cy="114.46" r="19.03"/><path class="cls-2" d="M296.8,133.89a19.43,19.43,0,1,1,19.43-19.43A19.45,19.45,0,0,1,296.8,133.89Zm0-38.07a18.64,18.64,0,1,0,18.63,18.64A18.66,18.66,0,0,0,296.8,95.82Z"/><path class="cls-1" d="M305.25,124.06a8.46,8.46,0,1,0-16.91,0S305.25,124.1,305.25,124.06Z"/><path class="cls-2" d="M297.71,124.48h-6.38c-3.39,0-3.39,0-3.39-.41a8.86,8.86,0,0,1,17.71,0c0,.41,0,.41-2.7.42Zm7.53-.42Zm-16.5-.39c2.28,0,13.87,0,16.11,0a8.06,8.06,0,0,0-16.11,0Z"/><path class="cls-1" d="M292.05,109.63a4.8,4.8,0,1,0,4.8-4.8A4.8,4.8,0,0,0,292.05,109.63Z"/><path class="cls-2" d="M296.85,114.83a5.2,5.2,0,1,1,5.2-5.2A5.2,5.2,0,0,1,296.85,114.83Zm0-9.61a4.41,4.41,0,1,0,4.41,4.41A4.42,4.42,0,0,0,296.85,105.22Z"/><path class="cls-5" d="M306.49,182H287.11a4.36,4.36,0,0,1-4.36-4.36h0a4.36,4.36,0,0,1,4.36-4.36h19.38a4.36,4.36,0,0,1,4.36,4.36h0A4.36,4.36,0,0,1,306.49,182Z"/><path class="cls-2" d="M306.49,182.38H287.1a4.76,4.76,0,0,1,0-9.51h19.39a4.76,4.76,0,0,1,0,9.51Zm-19.39-8.72a4,4,0,0,0,0,7.93h19.39a4,4,0,0,0,0-7.93Z"/><path class="cls-2" d="M321.94,252.72c-18-.68-23.71-11.21-24.52-12.92h-.12c-.82,1.71-6.53,12.24-24.52,12.92,0,0-3.82,37.06,24,43.71h1.1C325.76,289.78,321.94,252.72,321.94,252.72Z"/><path class="cls-2" d="M297.91,296.83h-1.19c-27.87-6.66-24.38-43.77-24.34-44.14a.38.38,0,0,1,.38-.35c17.59-.67,23.23-10.7,24.18-12.7a.39.39,0,0,1,.36-.23h.12a.41.41,0,0,1,.36.23c1,2,6.58,12,24.17,12.7a.38.38,0,0,1,.38.35c0,.37,3.53,37.48-24.33,44.14Zm-1.06-.79h1c25.73-6.19,24-39.21,23.71-42.94-16.46-.74-22.62-9.61-24.21-12.55-1.6,2.94-7.75,11.81-24.22,12.55C272.86,256.83,271.13,289.85,296.85,296Z"/><path class="cls-3" d="M321.94,247.87c-18-.68-23.71-11.21-24.52-12.92h-.12c-.82,1.71-6.53,12.24-24.52,12.92,0,0-3.82,37.06,24,43.71h1.1C325.76,284.93,321.94,247.87,321.94,247.87Z"/><path class="cls-2" d="M297.91,292h-1.19c-27.87-6.66-24.38-43.77-24.34-44.14a.4.4,0,0,1,.38-.36c17.59-.66,23.23-10.69,24.18-12.69a.39.39,0,0,1,.36-.23h.12a.41.41,0,0,1,.36.23c1,2,6.58,12,24.17,12.69a.4.4,0,0,1,.38.36c0,.37,3.53,37.48-24.33,44.14Zm-1.05-.79h1c25.73-6.19,24-39.21,23.71-42.94-16.46-.74-22.62-9.61-24.21-12.55-1.6,2.94-7.75,11.81-24.22,12.55C272.86,252,271.13,285,296.86,291.19Z"/><path class="cls-8" d="M291,259.9h2.36v-3.21a4.18,4.18,0,1,1,8.35,0v3.21h2.36v-3.21a6.54,6.54,0,1,0-13.07,0v3.21Z"/><path class="cls-2" d="M304.06,260.29H301.7a.39.39,0,0,1-.4-.39v-3.21a3.78,3.78,0,1,0-7.55,0v3.21a.39.39,0,0,1-.4.39H291a.38.38,0,0,1-.39-.39v-3.21a6.93,6.93,0,1,1,13.85,0v3.21A.38.38,0,0,1,304.06,260.29Zm-2-.79h1.56v-2.81a6.14,6.14,0,1,0-12.27,0v2.81H293v-2.81a4.57,4.57,0,1,1,9.14,0v2.81Z"/><path class="cls-1" d="M288.35,276.17H306.7a.53.53,0,0,0,.53-.53V260.45a.53.53,0,0,0-.53-.53H288.35a.53.53,0,0,0-.53.53v15.19A.53.53,0,0,0,288.35,276.17Z"/><path class="cls-2" d="M306.7,276.57H288.35a.93.93,0,0,1-.93-.93V260.45a.93.93,0,0,1,.93-.93H306.7a.93.93,0,0,1,.93.93v15.19A.93.93,0,0,1,306.7,276.57Zm-18.35-16.26a.13.13,0,0,0-.13.14v15.19a.13.13,0,0,0,.13.14H306.7a.14.14,0,0,0,.14-.14V260.45a.14.14,0,0,0-.14-.14Z"/><path class="cls-2" d="M296.74,268.06a1.79,1.79,0,1,1,1.64,0l.75,2.7a.54.54,0,0,1-.52.69h-2.09a.54.54,0,0,1-.52-.69Z"/><path class="cls-2" d="M298.61,271.81h-2.09a.91.91,0,0,1-.74-.38.92.92,0,0,1-.16-.82l.66-2.36a2.18,2.18,0,1,1,2.56-.05l.67,2.42a.93.93,0,0,1-.15.82A1,1,0,0,1,298.61,271.81Zm-1.08-6.73a1.38,1.38,0,0,0-1.39,1.38,1.37,1.37,0,0,0,.78,1.24.41.41,0,0,1,.2.47l-.74,2.66a.16.16,0,0,0,.14.18h2.09a.14.14,0,0,0,.12-.06.14.14,0,0,0,0-.12l-.75-2.7a.4.4,0,0,1,.19-.46,1.38,1.38,0,0,0-.66-2.59Z"/><path class="cls-8" d="M121.86,305.75H202.1a1.56,1.56,0,0,0,1.56-1.56V246.48a1.56,1.56,0,0,0-1.56-1.57H121.86a1.57,1.57,0,0,0-1.57,1.57v57.71A1.56,1.56,0,0,0,121.86,305.75Z"/><path class="cls-2" d="M125,250.56h83.36v-7.84a2.41,2.41,0,0,0-2.41-2.41H126.83a1.86,1.86,0,0,0-1.86,1.86Z"/><path class="cls-2" d="M208.72,251H124.57v-8.78a2.26,2.26,0,0,1,2.26-2.26h79.09a2.8,2.8,0,0,1,2.8,2.81V251Zm-83.36-.79h82.57v-7.44a2,2,0,0,0-2-2H126.83a1.47,1.47,0,0,0-1.47,1.47v8Z"/><path class="cls-1" d="M196,247.29a2,2,0,1,1,2-2A2,2,0,0,1,196,247.29Zm0-3.16a1.19,1.19,0,1,0,1.18,1.18A1.18,1.18,0,0,0,196,244.13Z"/><path class="cls-1" d="M202.1,247.29a2,2,0,1,1,2-2A2,2,0,0,1,202.1,247.29Zm0-3.16a1.19,1.19,0,0,0,0,2.37,1.19,1.19,0,0,0,0-2.37Z"/><path class="cls-1" d="M189.85,247.29a2,2,0,1,1,2-2A2,2,0,0,1,189.85,247.29Zm0-3.16a1.19,1.19,0,1,0,1.18,1.18A1.18,1.18,0,0,0,189.85,244.13Z"/><path class="cls-1" d="M125.2,300.72H208a.27.27,0,0,0,.27-.27V250.83a.27.27,0,0,0-.27-.27H125.2a.27.27,0,0,0-.27.27v49.62A.27.27,0,0,0,125.2,300.72Z"/><path class="cls-2" d="M208,301.12H125.2a.67.67,0,0,1-.67-.67V250.83a.67.67,0,0,1,.67-.67H208a.67.67,0,0,1,.67.67v49.62A.67.67,0,0,1,208,301.12Zm-82.7-.79h82.58V251H125.33Z"/><path class="cls-1" d="M200.33,289.14H182.18a.13.13,0,0,1-.13-.14V260.82a.13.13,0,0,1,.13-.13h18.15a.13.13,0,0,1,.14.13V289A.14.14,0,0,1,200.33,289.14Z"/><path class="cls-8" d="M200.33,289.53H182.18a.53.53,0,0,1-.53-.53V260.82a.53.53,0,0,1,.53-.53h18.15a.54.54,0,0,1,.54.53V289A.53.53,0,0,1,200.33,289.53Zm-17.89-.79h17.63V261.08H182.44Z"/><line class="cls-9" x1="182.5" y1="261.23" x2="200.29" y2="288.78"/><path class="cls-8" d="M200.29,289.17A.38.38,0,0,1,200,289l-17.8-27.55a.4.4,0,0,1,.67-.43l17.79,27.55a.39.39,0,0,1-.33.61Z"/><line class="cls-9" x1="199.93" y1="261.14" x2="182.18" y2="289.14"/><path class="cls-8" d="M182.18,289.53a.39.39,0,0,1-.21-.06.38.38,0,0,1-.12-.54l17.74-28a.4.4,0,0,1,.67.42l-17.75,28A.38.38,0,0,1,182.18,289.53Z"/><path class="cls-3" d="M174.36,263.12H136a.39.39,0,0,1-.39-.4.38.38,0,0,1,.39-.39h38.38a.39.39,0,0,1,.39.39A.4.4,0,0,1,174.36,263.12Z"/><path class="cls-5" d="M149.46,268.94H136a.39.39,0,0,1-.39-.4.38.38,0,0,1,.39-.39h13.48a.39.39,0,0,1,.4.39A.4.4,0,0,1,149.46,268.94Z"/><path class="cls-3" d="M171.38,268.94H155a.4.4,0,0,1-.4-.4.39.39,0,0,1,.4-.39h16.37a.39.39,0,0,1,.39.39A.4.4,0,0,1,171.38,268.94Z"/><path class="cls-5" d="M160.58,286.61H136a.39.39,0,0,1-.39-.4.38.38,0,0,1,.39-.39h24.6a.38.38,0,0,1,.39.39A.39.39,0,0,1,160.58,286.61Z"/><path class="cls-5" d="M174.69,275.06H136a.39.39,0,0,1-.39-.4.38.38,0,0,1,.39-.39h38.71a.39.39,0,0,1,.4.39A.4.4,0,0,1,174.69,275.06Z"/><path class="cls-3" d="M148.25,280.88H136a.39.39,0,0,1-.39-.4.38.38,0,0,1,.39-.39h12.27a.38.38,0,0,1,.39.39A.39.39,0,0,1,148.25,280.88Z"/><path class="cls-5" d="M174.36,280.88H152a.4.4,0,0,1-.4-.4.39.39,0,0,1,.4-.39h22.34a.39.39,0,0,1,.39.39A.4.4,0,0,1,174.36,280.88Z"/><path class="cls-1" d="M156,274a12.18,12.18,0,0,0-.17-2.39h0A12.18,12.18,0,0,1,156,274Z"/><path class="cls-2" d="M72.77,264.61H134a1.17,1.17,0,0,0,1.18-1.17V220.49a1.18,1.18,0,0,0-1.18-1.18H72.77a1.17,1.17,0,0,0-1.17,1.18v42.95A1.17,1.17,0,0,0,72.77,264.61Z"/><path class="cls-2" d="M134,265H72.77a1.58,1.58,0,0,1-1.57-1.57V220.49a1.57,1.57,0,0,1,1.57-1.57H134a1.57,1.57,0,0,1,1.57,1.57v42.95A1.57,1.57,0,0,1,134,265Zm-61.22-45.3a.78.78,0,0,0-.78.78v42.95a.78.78,0,0,0,.78.78H134a.78.78,0,0,0,.78-.78V220.49a.78.78,0,0,0-.78-.78Z"/><path class="cls-5" d="M75.16,223.52h63.56V217.7a1.82,1.82,0,0,0-1.81-1.82H76.56a1.41,1.41,0,0,0-1.4,1.41v6.23Z"/><path class="cls-2" d="M139.12,223.91H74.76v-6.62a1.8,1.8,0,0,1,1.8-1.8h60.35a2.22,2.22,0,0,1,2.21,2.21Zm-63.56-.79h62.76V217.7a1.42,1.42,0,0,0-1.41-1.42H76.56a1,1,0,0,0-1,1Z"/><path class="cls-1" d="M83.51,221.18a1.57,1.57,0,1,1,1.57-1.57A1.57,1.57,0,0,1,83.51,221.18Zm0-2.35a.78.78,0,0,0,0,1.56.78.78,0,1,0,0-1.56Z"/><path class="cls-1" d="M88.09,221.18a1.57,1.57,0,1,1,1.57-1.57A1.57,1.57,0,0,1,88.09,221.18Zm0-2.35a.78.78,0,1,0,0,1.56.78.78,0,0,0,0-1.56Z"/><path class="cls-1" d="M79,221.18a1.57,1.57,0,1,1,1.57-1.57A1.56,1.56,0,0,1,79,221.18Zm0-2.35a.78.78,0,1,0,.78.78A.78.78,0,0,0,79,218.83Z"/><path class="cls-1" d="M75.34,260.87H138.5a.2.2,0,0,0,.2-.21V223.72a.2.2,0,0,0-.2-.2H75.34a.2.2,0,0,0-.21.2v36.94A.21.21,0,0,0,75.34,260.87Z"/><path class="cls-2" d="M138.5,261.27H75.34a.6.6,0,0,1-.6-.6v-37a.6.6,0,0,1,.6-.6H138.5a.6.6,0,0,1,.6.6v37A.6.6,0,0,1,138.5,261.27Zm-63-.8H138.3V223.91H75.53Z"/><path class="cls-3" d="M130.44,233H104.25a.4.4,0,0,1-.4-.4.39.39,0,0,1,.4-.39h26.19a.39.39,0,0,1,.39.39A.4.4,0,0,1,130.44,233Z"/><path class="cls-5" d="M113.45,237.3h-9.2a.39.39,0,0,1-.4-.39.4.4,0,0,1,.4-.4h9.2a.39.39,0,0,1,.39.4A.38.38,0,0,1,113.45,237.3Z"/><path class="cls-3" d="M128.4,237.3H117.23a.39.39,0,0,1-.4-.39.4.4,0,0,1,.4-.4H128.4a.4.4,0,0,1,.4.4A.39.39,0,0,1,128.4,237.3Z"/><path class="cls-5" d="M121,250.46H104.25a.4.4,0,1,1,0-.79H121a.4.4,0,1,1,0,.79Z"/><path class="cls-5" d="M130.67,241.86H104.25a.4.4,0,1,1,0-.79h26.42a.4.4,0,0,1,.39.4A.39.39,0,0,1,130.67,241.86Z"/><path class="cls-3" d="M112.62,246.2h-8.37a.4.4,0,0,1,0-.8h8.37a.4.4,0,1,1,0,.8Z"/><path class="cls-5" d="M130.44,246.2H115.19a.4.4,0,0,1,0-.8h15.24a.4.4,0,0,1,0,.8Z"/><path class="cls-2" d="M89.56,240v-9.64A9.64,9.64,0,1,0,99.19,240Z"/><path class="cls-2" d="M89.56,250a10,10,0,1,1,0-20.07.4.4,0,0,1,.39.4v9.24h9.24a.4.4,0,0,1,.4.4A10,10,0,0,1,89.56,250Zm-.4-19.27a9.24,9.24,0,1,0,9.63,9.63H89.56a.39.39,0,0,1-.4-.39Z"/><path class="cls-3" d="M88.72,240.08v-9.64a9.64,9.64,0,1,0,9.64,9.64Z"/><path class="cls-2" d="M88.72,250.12a10,10,0,0,1,0-20.07h.4v9.64h9.64v.39A10.05,10.05,0,0,1,88.72,250.12Zm-.4-19.27A9.24,9.24,0,1,0,98,240.48H88.32Z"/><circle class="cls-2" cx="137.48" cy="217.49" r="14.32" transform="translate(-118 186.91) rotate(-50.88)"/><path class="cls-2" d="M137.47,232.22a14.72,14.72,0,1,1,14.72-14.72A14.73,14.73,0,0,1,137.47,232.22Zm0-28.64A13.92,13.92,0,1,0,151.4,217.5,13.94,13.94,0,0,0,137.47,203.58Z"/><circle class="cls-2" cx="139.09" cy="215.98" r="14.32"/><path class="cls-2" d="M139.1,230.7A14.72,14.72,0,1,1,153.81,216,14.73,14.73,0,0,1,139.1,230.7Zm0-28.64A13.93,13.93,0,1,0,153,216,13.94,13.94,0,0,0,139.1,202.06Z"/><path class="cls-2" d="M139,230.7c-3,0-4.67-7.58-4.67-14.71S136,201.27,139,201.27s4.66,7.58,4.66,14.72S142,230.7,139,230.7Zm0-28.64c-1.83,0-3.88,5.72-3.88,13.93s2.05,13.92,3.88,13.92,3.87-5.72,3.87-13.92S140.84,202.06,139,202.06Z"/><rect class="cls-2" x="125.44" y="211" width="27.08" height="0.79"/><rect class="cls-2" x="125.44" y="220.69" width="27.08" height="0.79"/></g></g></svg>