<svg xmlns="http://www.w3.org/2000/svg" viewBox="0 0 500 500"><defs><style>.cls-1{fill:#779ce8;}.cls-2{fill:#407bff;}.cls-3{fill:#2aafeb;}.cls-4{fill:#f97d8c;stroke:#779ce8;stroke-linejoin:round;stroke-width:0.75px;}.cls-5{fill:#d7e4f9;}.cls-6{fill:#f2f1f6;}.cls-7{fill:#fff;}.cls-8{fill:#cacae5;}.cls-9{fill:none;}</style></defs><g id="Layer_5" data-name="Layer 5"><g id="OBJECTS"><path class="cls-1" d="M176.09,340.28h-2.51a.33.33,0,0,1-.32-.32.32.32,0,0,1,.32-.31h2.51a.31.31,0,0,1,.32.31A.32.32,0,0,1,176.09,340.28Zm-5,0h-2.51a.33.33,0,0,1-.32-.32.32.32,0,0,1,.32-.31h2.51a.31.31,0,0,1,.32.31A.32.32,0,0,1,171.06,340.28Zm-5,0h-2.51a.32.32,0,0,1-.31-.32.31.31,0,0,1,.31-.31H166a.31.31,0,0,1,.32.31A.32.32,0,0,1,166,340.28Zm-5,0h-2.52a.32.32,0,0,1-.31-.32.31.31,0,0,1,.31-.31H161a.31.31,0,0,1,.31.31A.32.32,0,0,1,161,340.28Zm-5,0h-2.52a.32.32,0,0,1-.31-.32.31.31,0,0,1,.31-.31H156a.31.31,0,0,1,.31.31A.32.32,0,0,1,156,340.28Zm-5,0h-2.52a.32.32,0,0,1-.31-.32.31.31,0,0,1,.31-.31H151a.31.31,0,0,1,.31.31A.32.32,0,0,1,151,340.28Zm26.53-1.13a.31.31,0,0,1-.31-.31v-2.52a.32.32,0,0,1,.63,0v2.52A.31.31,0,0,1,177.48,339.15Zm0-5a.31.31,0,0,1-.31-.31v-2.52a.32.32,0,0,1,.63,0v2.52A.31.31,0,0,1,177.48,334.12Zm0-5a.31.31,0,0,1-.31-.31v-2.52a.32.32,0,0,1,.63,0v2.52A.31.31,0,0,1,177.48,329.09Z"/><path class="cls-1" d="M338.74,342.62h-2.51a.32.32,0,1,1,0-.63h2.51a.32.32,0,0,1,0,.63Zm-5,0H331.2a.32.32,0,1,1,0-.63h2.51a.32.32,0,1,1,0,.63Zm-5,0h-2.51a.32.32,0,1,1,0-.63h2.51a.32.32,0,1,1,0,.63Zm-5,0h-2.51a.32.32,0,1,1,0-.63h2.51a.32.32,0,1,1,0,.63Zm-5,0h-2.51a.32.32,0,1,1,0-.63h2.51a.32.32,0,1,1,0,.63Zm-5,0h-2.51a.32.32,0,1,1,0-.63h2.51a.32.32,0,1,1,0,.63Zm-3.9-1.12a.32.32,0,0,1-.32-.32v-2.51a.32.32,0,1,1,.63,0v2.51A.31.31,0,0,1,309.69,341.5Zm0-5a.32.32,0,0,1-.32-.32v-2.51a.32.32,0,1,1,.63,0v2.51A.31.31,0,0,1,309.69,336.47Zm0-5a.32.32,0,0,1-.32-.32v-2.51a.32.32,0,1,1,.63,0v2.51A.31.31,0,0,1,309.69,331.44Z"/><path class="cls-1" d="M110.91,309.66a.31.31,0,0,1-.32-.31v-2.52a.32.32,0,0,1,.63,0v2.52A.31.31,0,0,1,110.91,309.66Zm0-5a.31.31,0,0,1-.32-.3v0a.31.31,0,0,1,.32-.31h2.49a.32.32,0,0,1,0,.63h-2.49Zm17.57,0H126a.32.32,0,0,1,0-.63h2.51a.32.32,0,1,1,0,.63Zm-5,0h-2.52a.32.32,0,0,1,0-.63h2.52a.32.32,0,0,1,0,.63Zm-5,0h-2.52a.32.32,0,0,1,0-.63h2.52a.32.32,0,0,1,0,.63Zm10.35-2.22a.33.33,0,0,1-.32-.32V301a.32.32,0,0,1,.32-.31.31.31,0,0,1,.31.31v1.08A.32.32,0,0,1,128.78,302.39Z"/><path class="cls-1" d="M142.11,246.81a.31.31,0,0,1-.32-.31v-2.35a.32.32,0,0,1,.63,0v2.35A.31.31,0,0,1,142.11,246.81Zm0-4.86a.31.31,0,0,1-.32-.31v-2.52a.32.32,0,0,1,.63,0v2.52A.31.31,0,0,1,142.11,242Zm0-5a.31.31,0,0,1-.32-.31V234.1a.32.32,0,1,1,.63,0v2.51A.31.31,0,0,1,142.11,236.92Zm0-5a.32.32,0,0,1-.32-.32v-2.51a.32.32,0,1,1,.63,0v2.51A.32.32,0,0,1,142.11,231.9Zm-1.6-3.44H138a.32.32,0,1,1,0-.63h2.51a.32.32,0,1,1,0,.63Zm-5,0H133a.32.32,0,0,1,0-.63h2.51a.32.32,0,1,1,0,.63Zm-5,0h-2.51a.32.32,0,0,1,0-.63h2.51a.32.32,0,1,1,0,.63Zm-5,0h-2.52a.32.32,0,0,1,0-.63h2.52a.32.32,0,0,1,0,.63Zm-5,0h-2.52a.32.32,0,0,1,0-.63h2.52a.32.32,0,0,1,0,.63Zm-5,0h-2.52a.32.32,0,0,1,0-.63h2.52a.32.32,0,0,1,0,.63Zm-5,0h-2.52a.32.32,0,0,1,0-.63h2.52a.32.32,0,0,1,0,.63Zm-5,0h-2.52a.32.32,0,0,1,0-.63h2.52a.32.32,0,0,1,0,.63Zm-5,0H97.76a.32.32,0,0,1,0-.63h2.52a.32.32,0,0,1,0,.63ZM97.72,226a.31.31,0,0,1-.31-.32v-2.51a.32.32,0,1,1,.63,0v2.51A.32.32,0,0,1,97.72,226Zm0-5a.31.31,0,0,1-.31-.32v-2.51a.32.32,0,1,1,.63,0v2.51A.32.32,0,0,1,97.72,221Zm0-5a.31.31,0,0,1-.31-.32V213.1a.32.32,0,1,1,.63,0v2.51A.32.32,0,0,1,97.72,215.93Z"/><path class="cls-1" d="M244.53,212.39a.31.31,0,0,1-.31-.31v-2.51a.32.32,0,1,1,.63,0v2.51A.31.31,0,0,1,244.53,212.39Zm0-5a.32.32,0,0,1-.31-.32v-1.42a.32.32,0,0,1,.63,0v1.42A.32.32,0,0,1,244.53,207.37Z"/><path class="cls-1" d="M197.55,196.28H195a.32.32,0,1,1,0-.63h2.51a.32.32,0,1,1,0,.63Zm-5,0H190a.32.32,0,0,1,0-.63h2.51a.32.32,0,1,1,0,.63Zm-5,0H185a.32.32,0,0,1,0-.63h2.51a.32.32,0,1,1,0,.63Zm-5,0H180a.32.32,0,0,1,0-.63h2.52a.32.32,0,0,1,0,.63Zm-5,0h-2.52a.32.32,0,0,1,0-.63h2.52a.32.32,0,0,1,0,.63Zm-5,0h-2.52a.32.32,0,0,1,0-.63h2.52a.32.32,0,0,1,0,.63Zm-5,0h-2.52a.32.32,0,0,1,0-.63h2.52a.32.32,0,0,1,0,.63Zm-5,0h-2.52a.32.32,0,0,1,0-.63h2.52a.32.32,0,0,1,0,.63Zm-5,0H154.8a.32.32,0,0,1,0-.63h2.52a.32.32,0,0,1,0,.63Zm-5,0h-2.52a.32.32,0,0,1,0-.63h2.52a.32.32,0,0,1,0,.63Zm-5,0h-2.51a.32.32,0,1,1,0-.63h2.51a.32.32,0,0,1,0,.63Zm50.66-2.15a.32.32,0,0,1-.32-.31V191.3a.32.32,0,0,1,.32-.31.31.31,0,0,1,.31.31v2.52A.31.31,0,0,1,197.92,194.13Zm0-5a.32.32,0,0,1-.32-.31V187.4a.32.32,0,0,1,.32-.32H199a.32.32,0,1,1,0,.63h-.81v1.08A.31.31,0,0,1,197.92,189.1Zm16.21-1.39h-2.51a.32.32,0,1,1,0-.63h2.51a.32.32,0,0,1,0,.63Zm-5,0h-2.51a.32.32,0,1,1,0-.63h2.51a.32.32,0,0,1,.32.32A.31.31,0,0,1,209.1,187.71Zm-5,0h-2.51a.32.32,0,1,1,0-.63h2.51a.32.32,0,1,1,0,.63Z"/><path class="cls-1" d="M301.19,201.55h-.63a.31.31,0,1,1,0-.62h.63a.31.31,0,1,1,0,.62Zm-3.15,0h-2.51a.31.31,0,1,1,0-.62H298a.31.31,0,1,1,0,.62Zm-5,0h-.39a.31.31,0,0,1-.31-.31v-2.12a.32.32,0,1,1,.63,0v1.81H293a.31.31,0,1,1,0,.62Zm-.39-4.63a.32.32,0,0,1-.31-.32v-2.51a.32.32,0,1,1,.63,0v2.51A.32.32,0,0,1,292.62,196.92Zm0-5a.31.31,0,0,1-.31-.32v-1.44h-.44a.32.32,0,1,1,0-.63h.75a.31.31,0,0,1,.32.31v1.76A.32.32,0,0,1,292.62,191.89Zm-3.27-1.76h-2.51a.32.32,0,1,1,0-.63h2.51a.32.32,0,0,1,0,.63Zm-5,0h-2.51a.32.32,0,1,1,0-.63h2.51a.32.32,0,1,1,0,.63Zm-5,0h-2.51a.32.32,0,1,1,0-.63h2.51a.32.32,0,1,1,0,.63Zm-5,0h-2.51a.32.32,0,1,1,0-.63h2.51a.32.32,0,1,1,0,.63Z"/><path class="cls-1" d="M405.12,237.22a.31.31,0,0,1-.31-.31v-2.52a.32.32,0,0,1,.63,0v2.52A.31.31,0,0,1,405.12,237.22Zm0-5a.31.31,0,0,1-.31-.31v-.44h-1.45a.32.32,0,0,1,0-.63h1.76a.31.31,0,0,1,.32.31v.76A.31.31,0,0,1,405.12,232.19Zm-4.27-.75h-2.51a.32.32,0,1,1,0-.63h2.51a.32.32,0,0,1,0,.63Zm-5,0h-2.51a.32.32,0,1,1,0-.63h2.51a.32.32,0,0,1,0,.63Zm-5,0h-2.51a.32.32,0,1,1,0-.63h2.51a.32.32,0,1,1,0,.63Zm-5,0h-2.51a.32.32,0,1,1,0-.63h2.51a.32.32,0,1,1,0,.63Zm-5,0h-1.54a.31.31,0,0,1-.31-.32v-1a.32.32,0,1,1,.63,0v.66h1.22a.32.32,0,1,1,0,.63ZM379.19,228a.32.32,0,0,1-.31-.32v-2.51a.32.32,0,1,1,.63,0v2.51A.32.32,0,0,1,379.19,228Zm0-5a.33.33,0,0,1-.31-.27H377a.32.32,0,1,1,0-.63h2.24a.31.31,0,0,1,.32.31v.27A.32.32,0,0,1,379.19,222.92Zm-4.76-.27h-2.51a.32.32,0,1,1,0-.63h2.51a.32.32,0,1,1,0,.63Zm-5,0h-2.51a.32.32,0,0,1,0-.63h2.51a.32.32,0,1,1,0,.63Z"/><path class="cls-1" d="M385.35,308.78a.31.31,0,0,1-.32-.31v-1.21a.32.32,0,0,1,.63,0v1.21A.31.31,0,0,1,385.35,308.78Zm0-3.72a.31.31,0,0,1-.32-.31v-2.51a.32.32,0,1,1,.63,0v2.51A.31.31,0,0,1,385.35,305.06Zm5-2.53h-2.52a.32.32,0,0,1,0-.63h2.52a.32.32,0,0,1,0,.63Zm2.24-.27a.32.32,0,0,1-.32-.32v-2.51a.32.32,0,1,1,.63,0v2.51A.31.31,0,0,1,392.6,302.26Zm0-5a.32.32,0,0,1-.32-.32V294.4a.32.32,0,1,1,.63,0v2.51A.31.31,0,0,1,392.6,297.23Z"/><path class="cls-2" d="M337.73,195.61a1.1,1.1,0,0,1-.31,0L331,193.64a1.06,1.06,0,0,1-.71-1.32l1.27-4.22a.44.44,0,0,0-.2-.49,18.55,18.55,0,0,1-3.8-3.1.41.41,0,0,0-.52-.09l-3.88,2.08a1.07,1.07,0,0,1-1.44-.43l-3.16-5.88a1.09,1.09,0,0,1-.08-.81,1,1,0,0,1,.51-.63l3.89-2.09a.42.42,0,0,0,.2-.48,18.65,18.65,0,0,1-.49-4.88.43.43,0,0,0-.3-.44l-4.22-1.26h0a1.07,1.07,0,0,1-.71-1.33l1.92-6.39a1.08,1.08,0,0,1,1.32-.72l4.22,1.27a.44.44,0,0,0,.5-.19,18.28,18.28,0,0,1,3.1-3.8.43.43,0,0,0,.09-.52L326.45,154a1.09,1.09,0,0,1-.08-.81,1.05,1.05,0,0,1,.52-.63l5.88-3.16a1,1,0,0,1,.81-.08,1.06,1.06,0,0,1,.63.51l2.08,3.88a.44.44,0,0,0,.49.21,18.19,18.19,0,0,1,4.88-.49.42.42,0,0,0,.43-.3l1.27-4.22a1,1,0,0,1,.51-.63,1,1,0,0,1,.81-.09l6.4,1.93a1.06,1.06,0,0,1,.63.51,1.09,1.09,0,0,1,.08.81l-1.27,4.22a.41.41,0,0,0,.2.49,18.23,18.23,0,0,1,3.79,3.1.43.43,0,0,0,.52.1l3.89-2.09a1.08,1.08,0,0,1,.81-.08,1.06,1.06,0,0,1,.63.51l3.16,5.88a1.09,1.09,0,0,1,.08.81,1,1,0,0,1-.52.63l-3.88,2.09a.44.44,0,0,0-.21.49,18.54,18.54,0,0,1,.5,4.87.43.43,0,0,0,.3.44l4.22,1.27a1.06,1.06,0,0,1,.71,1.32l-1.92,6.39a1.07,1.07,0,0,1-1.33.72l-4.22-1.27a.42.42,0,0,0-.49.19,18.28,18.28,0,0,1-3.1,3.8.43.43,0,0,0-.09.52l2.09,3.88a1.07,1.07,0,0,1-.44,1.44l-5.88,3.16a1.06,1.06,0,0,1-1.44-.43l-2.09-3.88a.42.42,0,0,0-.48-.21,18.23,18.23,0,0,1-4.88.49.41.41,0,0,0-.43.3l-1.27,4.22a1,1,0,0,1-.52.63A1,1,0,0,1,337.73,195.61Zm-10.46-11.87a1,1,0,0,1,.78.34,18.19,18.19,0,0,0,3.67,3,1.07,1.07,0,0,1,.47,1.21l-1.27,4.22a.43.43,0,0,0,.29.54L337.6,195a.41.41,0,0,0,.34,0,.46.46,0,0,0,.21-.26l1.27-4.22a1,1,0,0,1,1.05-.75,17.74,17.74,0,0,0,4.71-.47,1.08,1.08,0,0,1,1.19.52l2.08,3.88a.44.44,0,0,0,.59.18l5.88-3.16a.44.44,0,0,0,.18-.59L353,186.18a1.08,1.08,0,0,1,.22-1.28,17.59,17.59,0,0,0,3-3.66,1,1,0,0,1,1.2-.47l4.22,1.27a.44.44,0,0,0,.55-.3l1.92-6.39a.43.43,0,0,0-.29-.54l-4.22-1.27a1.06,1.06,0,0,1-.75-1.06,17.79,17.79,0,0,0-.48-4.71,1.06,1.06,0,0,1,.53-1.18l3.88-2.09a.46.46,0,0,0,.21-.26.42.42,0,0,0,0-.33L359.8,158a.4.4,0,0,0-.26-.21.48.48,0,0,0-.33,0l-3.88,2.09a1,1,0,0,1-1.27-.22,18.19,18.19,0,0,0-3.67-3,1.06,1.06,0,0,1-.47-1.21l1.27-4.22a.47.47,0,0,0,0-.33.45.45,0,0,0-.26-.21l-6.4-1.92a.43.43,0,0,0-.33,0,.49.49,0,0,0-.21.26l-1.27,4.22a1.06,1.06,0,0,1-1.05.75,17.74,17.74,0,0,0-4.71.47,1.06,1.06,0,0,1-1.19-.52l-2.09-3.88a.4.4,0,0,0-.25-.21.47.47,0,0,0-.33,0l-5.88,3.16a.41.41,0,0,0-.21.26.38.38,0,0,0,0,.33l2.09,3.88a1.08,1.08,0,0,1-.22,1.28,17.65,17.65,0,0,0-3,3.67,1.07,1.07,0,0,1-1.2.47l-4.22-1.27a.45.45,0,0,0-.34,0,.49.49,0,0,0-.21.26L318,168.45a.42.42,0,0,0,0,.33.37.37,0,0,0,.25.21l4.22,1.27a1.07,1.07,0,0,1,.75,1.06,17.75,17.75,0,0,0,.48,4.71,1.07,1.07,0,0,1-.53,1.19l-3.88,2.08a.49.49,0,0,0-.21.26.42.42,0,0,0,0,.33l3.16,5.88a.44.44,0,0,0,.59.18l3.88-2.09A1,1,0,0,1,327.27,183.74Zm13.77-.81a11.3,11.3,0,0,1-3.89-.7,11.9,11.9,0,0,1-7.22-10.57h0a11.11,11.11,0,0,1,14.95-10.22A11.9,11.9,0,0,1,352.1,172,11.1,11.1,0,0,1,341,182.93Zm-10.48-11.26a11.37,11.37,0,0,0,6.81,10,10.46,10.46,0,0,0,14.1-9.64,11.36,11.36,0,0,0-6.8-10,10.47,10.47,0,0,0-14.11,9.63Z"/><path class="cls-3" d="M71.17,355.45a.67.67,0,0,1-.34-.09.72.72,0,0,1-.37-.43L68,347a.1.1,0,0,0-.11-.08,28.83,28.83,0,0,1-8.83-.76.1.1,0,0,0-.12.05l-3.83,7.36a.73.73,0,0,1-1,.32l-10.69-5.56a.74.74,0,0,1-.32-1L46.89,340a.11.11,0,0,0,0-.13,28.94,28.94,0,0,1-5.7-6.78A.09.09,0,0,0,41,333l-7.91,2.5a.76.76,0,0,1-.94-.49l-3.63-11.49a.75.75,0,0,1,.05-.57.76.76,0,0,1,.43-.36l7.91-2.5A.13.13,0,0,0,37,320a28.47,28.47,0,0,1,.77-8.82.1.1,0,0,0-.06-.12l-7.36-3.83a.75.75,0,0,1-.32-1l5.56-10.7a.76.76,0,0,1,1-.32L44,299a.12.12,0,0,0,.14,0,28.5,28.5,0,0,1,6.78-5.69.13.13,0,0,0,.05-.13l-2.5-7.91a.73.73,0,0,1,.48-.93l11.5-3.64a.73.73,0,0,1,.56.05.73.73,0,0,1,.37.44l2.5,7.91a.09.09,0,0,0,.11.07,28.75,28.75,0,0,1,8.82.77.12.12,0,0,0,.13-.05l3.82-7.37a.74.74,0,0,1,1-.31l10.7,5.56a.74.74,0,0,1,.32,1l-3.83,7.36a.11.11,0,0,0,0,.13,28.94,28.94,0,0,1,5.7,6.78.09.09,0,0,0,.12.05l7.91-2.5a.74.74,0,0,1,.93.48l3.64,11.5a.73.73,0,0,1-.49.93L94.86,316a.11.11,0,0,0-.07.11A28.84,28.84,0,0,1,94,325a.1.1,0,0,0,.06.12l7.36,3.83a.74.74,0,0,1,.31,1L96.2,340.6a.75.75,0,0,1-1,.31l-7.36-3.82a.1.1,0,0,0-.13,0,28.54,28.54,0,0,1-6.78,5.7.13.13,0,0,0,0,.13l2.5,7.91a.73.73,0,0,1-.05.56.72.72,0,0,1-.43.37l-11.5,3.63A.57.57,0,0,1,71.17,355.45Zm-3.31-9.14a.74.74,0,0,1,.7.52l2.5,7.91a.12.12,0,0,0,.14.07l11.5-3.63a.12.12,0,0,0,.07-.14l-2.5-7.91a.74.74,0,0,1,.33-.86,28.1,28.1,0,0,0,6.63-5.57.72.72,0,0,1,.89-.17l7.36,3.83a.13.13,0,0,0,.16-.05l5.56-10.7a.11.11,0,0,0,0-.15l-7.36-3.83a.73.73,0,0,1-.38-.83,27.85,27.85,0,0,0,.75-8.63.74.74,0,0,1,.51-.75l7.91-2.51a.13.13,0,0,0,.08-.14L99,301.28a.12.12,0,0,0-.14-.08L91,303.7a.74.74,0,0,1-.85-.32,27.94,27.94,0,0,0-5.58-6.63.76.76,0,0,1-.17-.9l3.83-7.36a.1.1,0,0,0,0-.15l-10.7-5.56a.11.11,0,0,0-.15.05l-3.83,7.36a.73.73,0,0,1-.83.37,28.16,28.16,0,0,0-8.63-.75.71.71,0,0,1-.75-.51l-2.5-7.91a.14.14,0,0,0-.06-.07s-.05,0-.09,0L49.12,285a.12.12,0,0,0-.08.14l2.5,7.91a.74.74,0,0,1-.32.86,27.9,27.9,0,0,0-6.63,5.57.73.73,0,0,1-.9.17l-7.36-3.83a.12.12,0,0,0-.15.05l-5.56,10.7a.11.11,0,0,0,.05.15L38,310.5a.73.73,0,0,1,.37.83,28.47,28.47,0,0,0-.75,8.63.71.71,0,0,1-.51.75l-7.91,2.5a.13.13,0,0,0-.07.15l3.63,11.49a.15.15,0,0,0,.15.08l7.91-2.5a.73.73,0,0,1,.85.32,28.13,28.13,0,0,0,5.57,6.63.74.74,0,0,1,.17.9l-3.82,7.36a.11.11,0,0,0,.05.15l10.69,5.56a.12.12,0,0,0,.16-.05l3.82-7.36a.73.73,0,0,1,.83-.37,28.54,28.54,0,0,0,8.64.75Zm-1.9-11a17.32,17.32,0,1,1,4.82-.68h0A17.7,17.7,0,0,1,66,335.29Zm0-34A16.69,16.69,0,1,0,70.6,334h0A16.69,16.69,0,0,0,66,301.28Z"/><path class="cls-3" d="M433.09,336.05a.66.66,0,0,1-.63-.46l-2-6.31a23.75,23.75,0,0,1-7.09-.63l-3.08,5.89a.66.66,0,0,1-.88.28l-8.54-4.44a.65.65,0,0,1-.28-.88l3.05-5.88a23.66,23.66,0,0,1-4.57-5.46l-6.34,2a.65.65,0,0,1-.82-.42l-2.9-9.18a.65.65,0,0,1,.42-.82l6.32-2a23.75,23.75,0,0,1,.63-7.09l-5.89-3.08a.67.67,0,0,1-.32-.38.69.69,0,0,1,0-.51l4.44-8.54a.66.66,0,0,1,.88-.28l5.88,3.06a23.42,23.42,0,0,1,5.46-4.57l-2-6.34a.67.67,0,0,1,.05-.5.68.68,0,0,1,.38-.33l9.18-2.9a.67.67,0,0,1,.5.05.61.61,0,0,1,.32.38l2,6.32a23.74,23.74,0,0,1,7.09.62l3.08-5.88a.68.68,0,0,1,.38-.33.67.67,0,0,1,.5.05l8.55,4.44a.64.64,0,0,1,.27.88l-3.05,5.88a23.57,23.57,0,0,1,4.57,5.45l6.34-2a.65.65,0,0,1,.82.43l2.91,9.18h0a.67.67,0,0,1,0,.5.67.67,0,0,1-.38.32l-6.32,2a23.45,23.45,0,0,1-.63,7.09l5.89,3.08a.65.65,0,0,1,.28.88l-4.44,8.54a.61.61,0,0,1-.38.32.62.62,0,0,1-.5,0l-5.88-3.05A23.66,23.66,0,0,1,440.9,326l2,6.34a.66.66,0,0,1-.43.82l-9.18,2.9A.63.63,0,0,1,433.09,336.05Zm-2.65-7.42a.65.65,0,0,1,.62.46l2,6.32,9.21-2.89-2-6.35a.64.64,0,0,1,.29-.75,22.26,22.26,0,0,0,5.28-4.44.64.64,0,0,1,.79-.15l5.88,3.05,4.47-8.55-5.89-3.09a.66.66,0,0,1-.33-.73,22.14,22.14,0,0,0,.6-6.88.64.64,0,0,1,.45-.66l6.64-2.13-.3.1-2.9-9.18-6.35,2a.66.66,0,0,1-.76-.29,22.26,22.26,0,0,0-4.44-5.28.66.66,0,0,1-.15-.79l3.06-5.88L438.08,278l-3.1,5.89a.63.63,0,0,1-.73.33,22.38,22.38,0,0,0-6.87-.59.66.66,0,0,1-.67-.46l-2-6.31-9.21,2.88,2,6.35a.66.66,0,0,1-.29.76,22.66,22.66,0,0,0-5.28,4.43.64.64,0,0,1-.79.15l-5.88-3.05L400.77,297l5.89,3.1a.64.64,0,0,1,.33.73,22.7,22.7,0,0,0-.6,6.87.65.65,0,0,1-.45.67l-6.32,2,2.89,9.22,6.35-2a.64.64,0,0,1,.75.28,22.3,22.3,0,0,0,4.44,5.28.66.66,0,0,1,.15.8l-3.05,5.87,8.55,4.48,3.09-5.89a.63.63,0,0,1,.73-.33,22.41,22.41,0,0,0,6.88.59ZM428.93,320a13.91,13.91,0,1,1,3.86-.55A13.89,13.89,0,0,1,428.93,320Zm0-27.16a13.27,13.27,0,1,0,3.69,26h0a13.27,13.27,0,0,0-3.69-26Z"/><path class="cls-3" d="M309.4,370.52h-129a.32.32,0,0,1-.32-.32.31.31,0,0,1,.32-.31h129a.31.31,0,0,1,.31.31A.32.32,0,0,1,309.4,370.52Z"/><path class="cls-4" d="M285,378.93H204.77a.32.32,0,1,1,0-.63H285a.32.32,0,0,1,0,.63Z"/><path class="cls-5" d="M145.71,371.86H59.22a.8.8,0,0,1-.8-.8V313.25A2.29,2.29,0,0,1,60.71,311h83.51a2.29,2.29,0,0,1,2.29,2.29v57.81A.8.8,0,0,1,145.71,371.86Z"/><path class="cls-1" d="M145.71,372.18H59.22a1.12,1.12,0,0,1-1.11-1.12V313.25a2.6,2.6,0,0,1,2.6-2.6h83.51a2.61,2.61,0,0,1,2.61,2.6v57.81A1.12,1.12,0,0,1,145.71,372.18Zm-85-60.9a2,2,0,0,0-2,2v57.81a.49.49,0,0,0,.49.49h86.49a.49.49,0,0,0,.49-.49V313.25a2,2,0,0,0-2-2Z"/><polyline class="cls-6" points="140.07 356.91 140.07 366.02 64.86 366.02 64.86 316.81 140.07 316.81 140.07 328.18"/><path class="cls-1" d="M140.07,366.34H64.86a.32.32,0,0,1-.31-.32V316.81a.31.31,0,0,1,.31-.32h75.21a.31.31,0,0,1,.31.32v11.37a.31.31,0,1,1-.62,0V317.12H65.18v48.59h74.58v-8.8a.31.31,0,0,1,.62,0V366A.31.31,0,0,1,140.07,366.34Z"/><path class="cls-1" d="M140.07,348.66a.32.32,0,0,1-.31-.32V332.47a.31.31,0,1,1,.62,0v15.87A.31.31,0,0,1,140.07,348.66Z"/><path class="cls-1" d="M102.47,314.94a1,1,0,1,1,1-1A1,1,0,0,1,102.47,314.94Zm0-1.35a.36.36,0,1,0,.35.36A.36.36,0,0,0,102.47,313.59Z"/><path class="cls-1" d="M157.86,379.29H47.08A3.08,3.08,0,0,1,44,376.22V371.4H160.93v4.82A3.08,3.08,0,0,1,157.86,379.29Z"/><path class="cls-1" d="M157.86,379.6H47.08a3.39,3.39,0,0,1-3.39-3.38V371.4a.31.31,0,0,1,.31-.31H160.93a.31.31,0,0,1,.31.31v4.82A3.39,3.39,0,0,1,157.86,379.6ZM44.32,371.72v4.5A2.75,2.75,0,0,0,47.08,379H157.86a2.75,2.75,0,0,0,2.75-2.75v-4.5Z"/><path class="cls-1" d="M159.81,377.75H45.12a.31.31,0,1,1,0-.62H159.81a.32.32,0,0,1,.32.31A.31.31,0,0,1,159.81,377.75Z"/><rect class="cls-7" x="91.31" y="371.9" width="22.32" height="2.46"/><path class="cls-1" d="M113.62,374.67H91.31a.31.31,0,0,1-.32-.31V371.9a.32.32,0,0,1,.32-.32h22.31a.32.32,0,0,1,.32.32v2.46A.31.31,0,0,1,113.62,374.67Zm-22-.62h21.69v-1.84H91.62Z"/><path class="cls-8" d="M118.57,360.63H81.49A1.61,1.61,0,0,1,79.88,359V327.75a1.61,1.61,0,0,1,1.61-1.61h37.08a1.61,1.61,0,0,1,1.61,1.61V359A1.61,1.61,0,0,1,118.57,360.63Z"/><path class="cls-7" d="M121,357.9H84.44A1.89,1.89,0,0,1,82.55,356v-30.7a1.89,1.89,0,0,1,1.89-1.89H121a1.89,1.89,0,0,1,1.89,1.89V356A1.89,1.89,0,0,1,121,357.9Z"/><path class="cls-1" d="M121,358.22H84.44a2.21,2.21,0,0,1-2.2-2.21v-30.7a2.21,2.21,0,0,1,2.2-2.21H121a2.21,2.21,0,0,1,2.21,2.21V356A2.21,2.21,0,0,1,121,358.22ZM84.44,323.73a1.58,1.58,0,0,0-1.58,1.58V356a1.58,1.58,0,0,0,1.58,1.58H121a1.58,1.58,0,0,0,1.58-1.58v-30.7a1.58,1.58,0,0,0-1.58-1.58Z"/><path class="cls-2" d="M114.81,345.3H90.5a1.75,1.75,0,0,1-1.76-1.75v-.22a1.75,1.75,0,0,1,1.76-1.75h24.31a1.75,1.75,0,0,1,1.76,1.75v.22A1.75,1.75,0,0,1,114.81,345.3Z"/><path class="cls-1" d="M114.81,345.62H90.5a2.07,2.07,0,0,1-2.07-2.07v-.22a2.07,2.07,0,0,1,2.07-2.07h24.31a2.07,2.07,0,0,1,2.07,2.07v.22A2.07,2.07,0,0,1,114.81,345.62ZM90.5,341.89a1.44,1.44,0,0,0-1.44,1.44v.22A1.44,1.44,0,0,0,90.5,345h24.31a1.44,1.44,0,0,0,1.44-1.44v-.22a1.44,1.44,0,0,0-1.44-1.44Z"/><path class="cls-7" d="M112.63,344.15H92.51a.76.76,0,0,1-.75-.75v-.07a.75.75,0,0,1,.75-.75h20.12a.75.75,0,0,1,.75.75v.07A.76.76,0,0,1,112.63,344.15Zm-20.12-1.26a.44.44,0,0,0-.43.44v.07a.43.43,0,0,0,.43.43h20.12a.43.43,0,0,0,.43-.43v-.07a.44.44,0,0,0-.43-.44Z"/><path class="cls-2" d="M110.67,349.56h-16a1.08,1.08,0,0,1-1.08-1.09h0a1.08,1.08,0,0,1,1.08-1.08h16a1.08,1.08,0,0,1,1.08,1.08h0A1.08,1.08,0,0,1,110.67,349.56Z"/><path class="cls-1" d="M110.67,349.87h-16a1.4,1.4,0,1,1,0-2.79h16a1.4,1.4,0,1,1,0,2.79Zm-16-2.17a.77.77,0,0,0,0,1.54h16a.77.77,0,0,0,0-1.54Z"/><path class="cls-7" d="M97.75,349a.52.52,0,1,1,.52-.52A.52.52,0,0,1,97.75,349Zm0-.72a.2.2,0,0,0-.21.2.21.21,0,0,0,.21.21.2.2,0,0,0,.2-.21A.2.2,0,0,0,97.75,348.27Z"/><path class="cls-7" d="M99.76,349a.52.52,0,1,1,.52-.52A.52.52,0,0,1,99.76,349Zm0-.72a.2.2,0,0,0-.21.2.21.21,0,0,0,.21.21.21.21,0,1,0,0-.41Z"/><path class="cls-7" d="M101.64,349a.52.52,0,1,1,.52-.52A.52.52,0,0,1,101.64,349Zm0-.72a.2.2,0,0,0-.21.2.21.21,0,0,0,.21.21.2.2,0,0,0,.2-.21A.2.2,0,0,0,101.64,348.27Z"/><path class="cls-7" d="M103.65,349a.52.52,0,1,1,.52-.52A.52.52,0,0,1,103.65,349Zm0-.72a.2.2,0,0,0-.21.2.21.21,0,0,0,.21.21.21.21,0,1,0,0-.41Z"/><path class="cls-7" d="M105.6,349a.52.52,0,1,1,.53-.52A.52.52,0,0,1,105.6,349Zm0-.72a.2.2,0,0,0-.2.2.2.2,0,0,0,.2.21.21.21,0,0,0,.21-.21A.2.2,0,0,0,105.6,348.27Z"/><path class="cls-7" d="M107.62,349a.52.52,0,1,1,.52-.52A.52.52,0,0,1,107.62,349Zm0-.72a.2.2,0,0,0-.21.2.21.21,0,0,0,.21.21.2.2,0,0,0,.2-.21A.2.2,0,0,0,107.62,348.27Z"/><circle class="cls-3" cx="102.66" cy="333.3" r="5.83"/><path class="cls-1" d="M102.66,339.44a6.14,6.14,0,1,1,6.14-6.14A6.16,6.16,0,0,1,102.66,339.44Zm0-11.65a5.51,5.51,0,1,0,5.51,5.51A5.52,5.52,0,0,0,102.66,327.79Z"/><path class="cls-7" d="M105.24,336.24a2.59,2.59,0,1,0-5.17,0Z"/><path class="cls-1" d="M102.91,336.56H101c-1.22,0-1.22,0-1.22-.32a2.91,2.91,0,1,1,5.81,0C105.56,336.56,105.56,336.56,102.91,336.56Zm2.33-.32Zm-4.84-.31h4.51a2.28,2.28,0,0,0-4.51,0Z"/><path class="cls-7" d="M101.2,331.82a1.47,1.47,0,1,0,1.47-1.47A1.47,1.47,0,0,0,101.2,331.82Z"/><path class="cls-1" d="M102.67,333.6a1.78,1.78,0,1,1,1.79-1.78A1.78,1.78,0,0,1,102.67,333.6Zm0-2.94a1.16,1.16,0,1,0,1.16,1.16A1.15,1.15,0,0,0,102.67,330.66Z"/><path class="cls-3" d="M105.62,354H99.69a1.34,1.34,0,0,1-1.34-1.34h0a1.34,1.34,0,0,1,1.34-1.33h5.93a1.34,1.34,0,0,1,1.34,1.33h0A1.34,1.34,0,0,1,105.62,354Z"/><path class="cls-1" d="M105.62,354.28H99.69a1.65,1.65,0,0,1,0-3.3h5.93a1.65,1.65,0,1,1,0,3.3Zm-5.93-2.67a1,1,0,0,0,0,2h5.93a1,1,0,1,0,0-2Z"/><path class="cls-5" d="M428.81,371.86H342.32a.8.8,0,0,1-.8-.8V313.25a2.29,2.29,0,0,1,2.29-2.29h83.51a2.29,2.29,0,0,1,2.29,2.29v57.81A.8.8,0,0,1,428.81,371.86Z"/><path class="cls-1" d="M428.81,372.18H342.32a1.12,1.12,0,0,1-1.11-1.12V313.25a2.6,2.6,0,0,1,2.6-2.6h83.51a2.61,2.61,0,0,1,2.61,2.6v57.81A1.12,1.12,0,0,1,428.81,372.18Zm-85-60.9a2,2,0,0,0-2,2v57.81a.49.49,0,0,0,.49.49h86.49a.49.49,0,0,0,.49-.49V313.25a2,2,0,0,0-2-2Z"/><polyline class="cls-6" points="347.96 326.85 347.96 316.81 423.17 316.81 423.17 366.02 347.96 366.02 347.96 356.8"/><path class="cls-1" d="M423.17,366.34H348a.32.32,0,0,1-.31-.32V356.8a.32.32,0,0,1,.63,0v8.91h74.58V317.12H348.28v9.72a.32.32,0,1,1-.63,0v-10a.31.31,0,0,1,.31-.32h75.21a.31.31,0,0,1,.31.32V366A.31.31,0,0,1,423.17,366.34Z"/><path class="cls-1" d="M348,348.4a.31.31,0,0,1-.31-.32v-16a.32.32,0,1,1,.63,0v16A.32.32,0,0,1,348,348.4Z"/><path class="cls-1" d="M385.57,314.94a1,1,0,1,1,1-1A1,1,0,0,1,385.57,314.94Zm0-1.35a.36.36,0,0,0,0,.72.36.36,0,0,0,0-.72Z"/><path class="cls-1" d="M441,379.29H330.18a3.08,3.08,0,0,1-3.08-3.07V371.4H444v4.82A3.08,3.08,0,0,1,441,379.29Z"/><path class="cls-1" d="M441,379.6H330.18a3.39,3.39,0,0,1-3.39-3.38V371.4a.31.31,0,0,1,.31-.31H444a.31.31,0,0,1,.31.31v4.82A3.39,3.39,0,0,1,441,379.6Zm-113.54-7.88v4.5a2.76,2.76,0,0,0,2.76,2.75H441a2.75,2.75,0,0,0,2.75-2.75v-4.5Z"/><path class="cls-1" d="M442.91,377.75H328.22a.31.31,0,0,1,0-.62H442.91a.31.31,0,1,1,0,.62Z"/><rect class="cls-7" x="374.41" y="371.9" width="22.32" height="2.46"/><path class="cls-1" d="M396.72,374.67H374.41a.31.31,0,0,1-.32-.31V371.9a.32.32,0,0,1,.32-.32h22.31a.32.32,0,0,1,.32.32v2.46A.31.31,0,0,1,396.72,374.67Zm-22-.62h21.69v-1.84H374.72Z"/><path class="cls-8" d="M401.67,360.63H364.59A1.61,1.61,0,0,1,363,359V327.75a1.61,1.61,0,0,1,1.61-1.61h37.08a1.61,1.61,0,0,1,1.61,1.61V359A1.61,1.61,0,0,1,401.67,360.63Z"/><path class="cls-7" d="M404.06,357.9H367.54a1.89,1.89,0,0,1-1.89-1.89v-30.7a1.89,1.89,0,0,1,1.89-1.89h36.52a1.89,1.89,0,0,1,1.89,1.89V356A1.89,1.89,0,0,1,404.06,357.9Z"/><path class="cls-1" d="M404.06,358.22H367.54a2.21,2.21,0,0,1-2.2-2.21v-30.7a2.21,2.21,0,0,1,2.2-2.21h36.52a2.21,2.21,0,0,1,2.21,2.21V356A2.21,2.21,0,0,1,404.06,358.22Zm-36.52-34.49a1.58,1.58,0,0,0-1.58,1.58V356a1.58,1.58,0,0,0,1.58,1.58h36.52a1.58,1.58,0,0,0,1.58-1.58v-30.7a1.58,1.58,0,0,0-1.58-1.58Z"/><path class="cls-2" d="M397.91,345.3H373.6a1.75,1.75,0,0,1-1.76-1.75v-.22a1.75,1.75,0,0,1,1.76-1.75h24.31a1.75,1.75,0,0,1,1.76,1.75v.22A1.75,1.75,0,0,1,397.91,345.3Z"/><path class="cls-1" d="M397.91,345.62H373.6a2.07,2.07,0,0,1-2.07-2.07v-.22a2.07,2.07,0,0,1,2.07-2.07h24.31a2.07,2.07,0,0,1,2.07,2.07v.22A2.07,2.07,0,0,1,397.91,345.62Zm-24.31-3.73a1.44,1.44,0,0,0-1.44,1.44v.22A1.44,1.44,0,0,0,373.6,345h24.31a1.44,1.44,0,0,0,1.44-1.44v-.22a1.44,1.44,0,0,0-1.44-1.44Z"/><path class="cls-7" d="M395.73,344.15H375.61a.76.76,0,0,1-.75-.75v-.07a.75.75,0,0,1,.75-.75h20.12a.75.75,0,0,1,.75.75v.07A.76.76,0,0,1,395.73,344.15Zm-20.12-1.26a.44.44,0,0,0-.43.44v.07a.43.43,0,0,0,.43.43h20.12a.43.43,0,0,0,.43-.43v-.07a.44.44,0,0,0-.43-.44Z"/><path class="cls-2" d="M393.77,349.56h-16a1.08,1.08,0,0,1-1.08-1.09h0a1.08,1.08,0,0,1,1.08-1.08h16a1.08,1.08,0,0,1,1.08,1.08h0A1.08,1.08,0,0,1,393.77,349.56Z"/><path class="cls-1" d="M393.77,349.87h-16a1.4,1.4,0,1,1,0-2.79h16a1.4,1.4,0,1,1,0,2.79Zm-16-2.17a.77.77,0,0,0,0,1.54h16a.77.77,0,1,0,0-1.54Z"/><path class="cls-7" d="M380.85,349a.52.52,0,1,1,0-1,.52.52,0,1,1,0,1Zm0-.72a.2.2,0,0,0-.21.2.21.21,0,0,0,.21.21.2.2,0,0,0,.2-.21A.2.2,0,0,0,380.85,348.27Z"/><path class="cls-7" d="M382.86,349a.52.52,0,1,1,.52-.52A.52.52,0,0,1,382.86,349Zm0-.72a.2.2,0,0,0-.21.2.21.21,0,0,0,.21.21.21.21,0,1,0,0-.41Z"/><path class="cls-7" d="M384.74,349a.52.52,0,1,1,.52-.52A.52.52,0,0,1,384.74,349Zm0-.72a.2.2,0,0,0-.21.2.21.21,0,0,0,.21.21.2.2,0,0,0,.2-.21A.2.2,0,0,0,384.74,348.27Z"/><path class="cls-7" d="M386.75,349a.52.52,0,1,1,.52-.52A.52.52,0,0,1,386.75,349Zm0-.72a.2.2,0,0,0-.21.2.21.21,0,0,0,.21.21.21.21,0,1,0,0-.41Z"/><path class="cls-7" d="M388.71,349a.52.52,0,1,1,.52-.52A.52.52,0,0,1,388.71,349Zm0-.72a.2.2,0,0,0-.21.2.21.21,0,0,0,.21.21.2.2,0,0,0,.2-.21A.2.2,0,0,0,388.71,348.27Z"/><path class="cls-7" d="M390.72,349a.52.52,0,1,1,0-1,.52.52,0,1,1,0,1Zm0-.72a.2.2,0,0,0-.21.2.21.21,0,0,0,.21.21.2.2,0,0,0,.2-.21A.2.2,0,0,0,390.72,348.27Z"/><circle class="cls-3" cx="385.75" cy="333.3" r="5.83"/><path class="cls-1" d="M385.75,339.44a6.14,6.14,0,1,1,6.15-6.14A6.15,6.15,0,0,1,385.75,339.44Zm0-11.65a5.51,5.51,0,1,0,5.52,5.51A5.52,5.52,0,0,0,385.75,327.79Z"/><path class="cls-7" d="M388.34,336.24a2.59,2.59,0,1,0-5.17,0Z"/><path class="cls-1" d="M386,336.56h-1.94c-1.22,0-1.22,0-1.22-.32a2.91,2.91,0,1,1,5.81,0C388.66,336.56,388.66,336.56,386,336.56Zm2.33-.32Zm-4.84-.31H388a2.28,2.28,0,0,0-4.51,0Z"/><path class="cls-7" d="M384.3,331.82a1.47,1.47,0,1,0,1.47-1.47A1.47,1.47,0,0,0,384.3,331.82Z"/><path class="cls-1" d="M385.77,333.6a1.78,1.78,0,1,1,1.79-1.78A1.78,1.78,0,0,1,385.77,333.6Zm0-2.94a1.16,1.16,0,1,0,1.16,1.16A1.15,1.15,0,0,0,385.77,330.66Z"/><path class="cls-3" d="M388.72,354h-5.93a1.34,1.34,0,0,1-1.34-1.34h0a1.34,1.34,0,0,1,1.34-1.33h5.93a1.34,1.34,0,0,1,1.34,1.33h0A1.34,1.34,0,0,1,388.72,354Z"/><path class="cls-1" d="M388.72,354.28h-5.93a1.65,1.65,0,0,1,0-3.3h5.93a1.65,1.65,0,0,1,0,3.3Zm-5.93-2.67a1,1,0,0,0,0,2h5.93a1,1,0,0,0,0-2Z"/><path class="cls-3" d="M172.75,167.08l-2.24-7.1a.83.83,0,0,0-1-.54l-4.68,1.48a.84.84,0,0,1-.95-.36,20.44,20.44,0,0,0-3.46-4.11.82.82,0,0,1-.18-1l2.26-4.35a.85.85,0,0,0-.35-1.13l-6.61-3.43a.84.84,0,0,0-1.12.35l-2.27,4.36a.81.81,0,0,1-.92.42,19.9,19.9,0,0,0-5.35-.46.82.82,0,0,1-.84-.58L143.51,146a.83.83,0,0,0-1-.54l-7.09,2.24a.84.84,0,0,0-.55,1l1.48,4.68a.82.82,0,0,1-.35,1,19.91,19.91,0,0,0-4.11,3.46.83.83,0,0,1-1,.18l-4.36-2.26a.84.84,0,0,0-1.13.35l-3.43,6.61a.83.83,0,0,0,.36,1.12l4.36,2.27a.83.83,0,0,1,.42.92,20.32,20.32,0,0,0-.47,5.35.82.82,0,0,1-.57.84l-4.68,1.48a.84.84,0,0,0-.55,1l2.24,7.09a.85.85,0,0,0,1,.55l4.68-1.48a.83.83,0,0,1,1,.35,19.86,19.86,0,0,0,3.45,4.11.84.84,0,0,1,.19,1l-2.27,4.36a.83.83,0,0,0,.36,1.12l6.6,3.44a.84.84,0,0,0,1.13-.36l2.26-4.36a.85.85,0,0,1,.93-.42,20.28,20.28,0,0,0,5.35.47.81.81,0,0,1,.83.57l1.48,4.68a.84.84,0,0,0,1.05.55l7.1-2.25a.82.82,0,0,0,.54-1l-1.48-4.69a.84.84,0,0,1,.36-.95,20.13,20.13,0,0,0,4.11-3.45.84.84,0,0,1,1-.19l4.36,2.27a.83.83,0,0,0,1.12-.36l3.43-6.6a.85.85,0,0,0-.35-1.13l-4.36-2.26a.83.83,0,0,1-.42-.93,19.87,19.87,0,0,0,.46-5.35.83.83,0,0,1,.57-.84l4.69-1.48A.82.82,0,0,0,172.75,167.08Zm-21.59,15.43a12,12,0,0,1-16.35-10.83c-.17-4.57,3.38-9.93,7.66-11.55A12,12,0,0,1,158.81,171C159,175.53,155.43,180.89,151.16,182.51Z"/><path class="cls-1" d="M150.83,197.72a1.16,1.16,0,0,1-1.1-.8l-1.48-4.68a.49.49,0,0,0-.52-.36,20.23,20.23,0,0,1-5.43-.47.52.52,0,0,0-.58.26L139.46,196a1.18,1.18,0,0,1-.68.56,1.14,1.14,0,0,1-.87-.07l-6.61-3.43a1.16,1.16,0,0,1-.49-1.55l2.27-4.36a.51.51,0,0,0-.12-.62,20.66,20.66,0,0,1-3.51-4.18.52.52,0,0,0-.59-.22l-4.68,1.48a1.15,1.15,0,0,1-1.44-.75l-2.25-7.1a1.15,1.15,0,0,1,.75-1.44l4.68-1.48a.51.51,0,0,0,.36-.52,20.27,20.27,0,0,1,.47-5.44.49.49,0,0,0-.26-.57l-4.36-2.27a1.15,1.15,0,0,1-.48-1.55l3.43-6.6a1.15,1.15,0,0,1,1.55-.49l4.35,2.26a.52.52,0,0,0,.62-.11,20.34,20.34,0,0,1,4.18-3.51.49.49,0,0,0,.22-.59l-1.48-4.69a1.16,1.16,0,0,1,.75-1.44l7.1-2.24a1.16,1.16,0,0,1,1.44.75l1.48,4.68a.51.51,0,0,0,.52.36,20.27,20.27,0,0,1,5.44.47.5.5,0,0,0,.57-.26l2.27-4.36a1.14,1.14,0,0,1,1.55-.49l6.6,3.43a1.17,1.17,0,0,1,.57.68,1.15,1.15,0,0,1-.08.87l-2.26,4.36a.5.5,0,0,0,.11.62,20.39,20.39,0,0,1,3.51,4.18.52.52,0,0,0,.59.22l4.69-1.48a1.15,1.15,0,0,1,.87.08,1.11,1.11,0,0,1,.57.67l2.24,7.09a1.12,1.12,0,0,1-.08.88,1.18,1.18,0,0,1-.67.57l-4.68,1.48a.51.51,0,0,0-.36.52,20.23,20.23,0,0,1-.47,5.43.52.52,0,0,0,.26.58l4.36,2.27a1.15,1.15,0,0,1,.49,1.55l-3.43,6.6a1.12,1.12,0,0,1-.68.56,1.1,1.1,0,0,1-.87-.07l-4.36-2.27a.51.51,0,0,0-.62.12,20.39,20.39,0,0,1-4.18,3.51.52.52,0,0,0-.22.59L159,194a1.16,1.16,0,0,1-.75,1.45l-7.09,2.24A1.41,1.41,0,0,1,150.83,197.72Zm-3.07-6.47a1.14,1.14,0,0,1,1.09.8l1.48,4.68a.53.53,0,0,0,.66.34l7.09-2.24a.52.52,0,0,0,.34-.66l-1.48-4.68a1.16,1.16,0,0,1,.49-1.31,20,20,0,0,0,4-3.4,1.15,1.15,0,0,1,1.37-.26l4.36,2.27a.53.53,0,0,0,.7-.22l3.43-6.61a.52.52,0,0,0-.22-.7L166.76,177a1.14,1.14,0,0,1-.58-1.27,19.86,19.86,0,0,0,.46-5.27,1.14,1.14,0,0,1,.79-1.15l4.68-1.48a.57.57,0,0,0,.31-.26.55.55,0,0,0,0-.4l-2.24-7.09a.51.51,0,0,0-.65-.34l-4.69,1.48a1.15,1.15,0,0,1-1.31-.49,19.65,19.65,0,0,0-3.4-4,1.15,1.15,0,0,1-.25-1.38l2.26-4.36a.5.5,0,0,0,0-.4.51.51,0,0,0-.26-.3l-6.6-3.43a.51.51,0,0,0-.4,0,.55.55,0,0,0-.3.26l-2.27,4.36a1.14,1.14,0,0,1-1.27.58,19.83,19.83,0,0,0-5.26-.46,1.15,1.15,0,0,1-1.16-.79l-1.48-4.68a.51.51,0,0,0-.65-.34l-7.1,2.24a.54.54,0,0,0-.34.65l1.48,4.69a1.14,1.14,0,0,1-.48,1.31,19.71,19.71,0,0,0-4.05,3.4,1.15,1.15,0,0,1-1.38.25L126.34,156a.53.53,0,0,0-.71.22l-3.43,6.6a.56.56,0,0,0,0,.4.5.5,0,0,0,.25.3l4.36,2.27a1.14,1.14,0,0,1,.58,1.27,19.86,19.86,0,0,0-.45,5.27,1.15,1.15,0,0,1-.8,1.15L121.43,175a.53.53,0,0,0-.34.65l2.24,7.1a.53.53,0,0,0,.66.34l4.68-1.48a1.13,1.13,0,0,1,1.31.49,19.92,19.92,0,0,0,3.4,4,1.16,1.16,0,0,1,.26,1.38l-2.27,4.36a.53.53,0,0,0,.22.7L138.2,196a.53.53,0,0,0,.39,0,.55.55,0,0,0,.31-.25l2.26-4.36a1.15,1.15,0,0,1,1.27-.59,19.46,19.46,0,0,0,5.27.46Zm-1-7.61a12.34,12.34,0,0,1-12.28-11.95,13.23,13.23,0,0,1,7.86-11.86A12.33,12.33,0,0,1,159.13,171a13.23,13.23,0,0,1-7.86,11.86A12.82,12.82,0,0,1,146.78,183.64Zm.06-24a12,12,0,0,0-4.26.79c-4.14,1.57-7.62,6.83-7.45,11.25a11.7,11.7,0,0,0,15.92,10.55l.11.29-.11-.29c4.13-1.57,7.62-6.83,7.45-11.25a11.7,11.7,0,0,0-11.66-11.34Z"/><path class="cls-5" d="M148.25,201.19H61.76a.8.8,0,0,1-.8-.8V142.58a2.28,2.28,0,0,1,2.29-2.29h83.51a2.28,2.28,0,0,1,2.29,2.29v57.81A.8.8,0,0,1,148.25,201.19Z"/><path class="cls-1" d="M148.25,201.5H61.76a1.11,1.11,0,0,1-1.11-1.11V142.58a2.6,2.6,0,0,1,2.6-2.61h83.51a2.61,2.61,0,0,1,2.61,2.61v57.81A1.12,1.12,0,0,1,148.25,201.5Zm-85-60.9a2,2,0,0,0-2,2v57.81a.49.49,0,0,0,.49.49h86.49a.49.49,0,0,0,.49-.49V142.58a2,2,0,0,0-2-2Z"/><polyline class="cls-6" points="142.61 186.24 142.61 195.35 67.4 195.35 67.4 146.13 142.61 146.13 142.61 157.51"/><path class="cls-1" d="M142.61,195.66H67.4a.31.31,0,0,1-.31-.31V146.13a.31.31,0,0,1,.31-.31h75.21a.31.31,0,0,1,.31.31v11.38a.31.31,0,0,1-.62,0V146.45H67.72V195H142.3v-8.79a.31.31,0,1,1,.62,0v9.11A.31.31,0,0,1,142.61,195.66Z"/><path class="cls-1" d="M142.61,178a.31.31,0,0,1-.31-.31V161.79a.31.31,0,0,1,.62,0v15.88A.31.31,0,0,1,142.61,178Z"/><path class="cls-1" d="M105,144.27a1,1,0,1,1,1-1A1,1,0,0,1,105,144.27Zm0-1.35a.36.36,0,0,0-.36.36.36.36,0,0,0,.36.36.37.37,0,0,0,.36-.36A.36.36,0,0,0,105,142.92Z"/><path class="cls-1" d="M160.4,208.61H49.62a3.07,3.07,0,0,1-3.08-3.07v-4.81H163.47v4.81A3.07,3.07,0,0,1,160.4,208.61Z"/><path class="cls-1" d="M160.4,208.93H49.62a3.39,3.39,0,0,1-3.39-3.39v-4.81a.31.31,0,0,1,.31-.32H163.47a.31.31,0,0,1,.31.32v4.81A3.39,3.39,0,0,1,160.4,208.93ZM46.86,201v4.5a2.77,2.77,0,0,0,2.76,2.76H160.4a2.76,2.76,0,0,0,2.75-2.76V201Z"/><path class="cls-1" d="M162.35,207.08H47.66a.32.32,0,0,1,0-.63H162.35a.32.32,0,1,1,0,.63Z"/><rect class="cls-7" x="93.85" y="201.22" width="22.32" height="2.46"/><path class="cls-1" d="M116.16,204H93.85a.32.32,0,0,1-.32-.32v-2.46a.31.31,0,0,1,.32-.31h22.31a.31.31,0,0,1,.32.31v2.46A.32.32,0,0,1,116.16,204Zm-22-.63h21.69v-1.83H94.16Z"/><path class="cls-8" d="M121.11,190H84a1.61,1.61,0,0,1-1.61-1.61V157.08A1.61,1.61,0,0,1,84,155.47h37.08a1.61,1.61,0,0,1,1.61,1.61v31.26A1.61,1.61,0,0,1,121.11,190Z"/><path class="cls-7" d="M123.5,187.23H87a1.9,1.9,0,0,1-1.89-1.9V154.64a1.9,1.9,0,0,1,1.89-1.9H123.5a1.9,1.9,0,0,1,1.89,1.9v30.69A1.9,1.9,0,0,1,123.5,187.23Z"/><path class="cls-1" d="M123.5,187.54H87a2.21,2.21,0,0,1-2.2-2.21V154.64a2.21,2.21,0,0,1,2.2-2.21H123.5a2.21,2.21,0,0,1,2.21,2.21v30.7A2.21,2.21,0,0,1,123.5,187.54ZM87,153.06a1.57,1.57,0,0,0-1.57,1.58v30.7A1.57,1.57,0,0,0,87,186.91H123.5a1.57,1.57,0,0,0,1.58-1.57v-30.7a1.58,1.58,0,0,0-1.58-1.58Z"/><path class="cls-2" d="M117.35,174.63H93a1.76,1.76,0,0,1-1.76-1.76v-.21A1.76,1.76,0,0,1,93,170.9h24.31a1.76,1.76,0,0,1,1.76,1.76v.21A1.76,1.76,0,0,1,117.35,174.63Z"/><path class="cls-1" d="M117.35,174.94H93A2.07,2.07,0,0,1,91,172.87v-.21A2.07,2.07,0,0,1,93,170.59h24.31a2.07,2.07,0,0,1,2.07,2.07v.21A2.07,2.07,0,0,1,117.35,174.94ZM93,171.22a1.43,1.43,0,0,0-1.44,1.44v.21A1.44,1.44,0,0,0,93,174.32h24.31a1.44,1.44,0,0,0,1.44-1.45v-.21a1.43,1.43,0,0,0-1.44-1.44Z"/><path class="cls-7" d="M115.17,173.47H95.05a.75.75,0,0,1-.75-.75v-.07a.76.76,0,0,1,.75-.75h20.12a.76.76,0,0,1,.75.75v.07A.75.75,0,0,1,115.17,173.47Zm-20.12-1.25a.43.43,0,0,0-.43.43v.07a.44.44,0,0,0,.43.44h20.12a.44.44,0,0,0,.43-.44v-.07a.43.43,0,0,0-.43-.43Z"/><path class="cls-2" d="M113.21,178.88h-16a1.08,1.08,0,0,1-1.08-1.08h0a1.08,1.08,0,0,1,1.08-1.09h16a1.08,1.08,0,0,1,1.08,1.09h0A1.08,1.08,0,0,1,113.21,178.88Z"/><path class="cls-1" d="M113.21,179.2h-16a1.4,1.4,0,0,1,0-2.8h16a1.4,1.4,0,1,1,0,2.8Zm-16-2.17a.77.77,0,1,0,0,1.54h16a.77.77,0,0,0,0-1.54Z"/><path class="cls-7" d="M100.29,178.32a.52.52,0,1,1,0-1,.52.52,0,0,1,0,1Zm0-.73a.21.21,0,0,0-.21.21.21.21,0,1,0,.41,0A.2.2,0,0,0,100.29,177.59Z"/><path class="cls-7" d="M102.3,178.32a.52.52,0,1,1,.52-.52A.52.52,0,0,1,102.3,178.32Zm0-.73a.21.21,0,0,0-.21.21.21.21,0,0,0,.21.21.22.22,0,0,0,.21-.21A.21.21,0,0,0,102.3,177.59Z"/><path class="cls-7" d="M104.18,178.32a.52.52,0,1,1,.52-.52A.52.52,0,0,1,104.18,178.32Zm0-.73a.21.21,0,0,0-.21.21.21.21,0,0,0,.21.21.22.22,0,0,0,.21-.21A.21.21,0,0,0,104.18,177.59Z"/><path class="cls-7" d="M106.19,178.32a.52.52,0,1,1,.52-.52A.52.52,0,0,1,106.19,178.32Zm0-.73a.21.21,0,0,0-.21.21.21.21,0,1,0,.42,0A.21.21,0,0,0,106.19,177.59Z"/><path class="cls-7" d="M108.15,178.32a.52.52,0,1,1,.52-.52A.52.52,0,0,1,108.15,178.32Zm0-.73a.21.21,0,0,0-.21.21.21.21,0,1,0,.41,0A.2.2,0,0,0,108.15,177.59Z"/><path class="cls-7" d="M110.16,178.32a.52.52,0,0,1,0-1,.52.52,0,0,1,0,1Zm0-.73a.21.21,0,0,0-.21.21.21.21,0,1,0,.41,0A.2.2,0,0,0,110.16,177.59Z"/><circle class="cls-3" cx="105.2" cy="162.62" r="5.83"/><path class="cls-1" d="M105.2,168.76a6.14,6.14,0,1,1,6.14-6.14A6.15,6.15,0,0,1,105.2,168.76Zm0-11.65a5.51,5.51,0,1,0,5.51,5.51A5.52,5.52,0,0,0,105.2,157.11Z"/><path class="cls-7" d="M107.78,165.56a2.59,2.59,0,1,0-5.17,0Z"/><path class="cls-1" d="M105.48,165.88h-2c-1.24,0-1.24,0-1.24-.32a2.91,2.91,0,0,1,5.81,0C108.1,165.88,108.1,165.88,105.48,165.88Zm2.3-.32Zm-4.84-.31h4.51a2.28,2.28,0,0,0-4.51,0Z"/><path class="cls-7" d="M103.74,161.15a1.47,1.47,0,1,0,1.47-1.48A1.47,1.47,0,0,0,103.74,161.15Z"/><path class="cls-1" d="M105.21,162.93a1.79,1.79,0,1,1,1.79-1.78A1.78,1.78,0,0,1,105.21,162.93Zm0-2.94a1.16,1.16,0,1,0,1.16,1.16A1.15,1.15,0,0,0,105.21,160Z"/><path class="cls-3" d="M108.16,183.29h-5.93a1.33,1.33,0,0,1-1.34-1.33h0a1.34,1.34,0,0,1,1.34-1.34h5.93A1.34,1.34,0,0,1,109.5,182h0A1.33,1.33,0,0,1,108.16,183.29Z"/><path class="cls-1" d="M108.16,183.61h-5.93a1.65,1.65,0,0,1,0-3.3h5.93a1.65,1.65,0,0,1,0,3.3Zm-5.93-2.67a1,1,0,0,0,0,2h5.93a1,1,0,0,0,0-2Z"/><path class="cls-5" d="M431.35,201.19H344.86a.8.8,0,0,1-.8-.8V142.58a2.28,2.28,0,0,1,2.29-2.29h83.52a2.28,2.28,0,0,1,2.28,2.29v57.81A.8.8,0,0,1,431.35,201.19Z"/><path class="cls-1" d="M431.35,201.5H344.86a1.11,1.11,0,0,1-1.11-1.11V142.58a2.6,2.6,0,0,1,2.6-2.61h83.52a2.61,2.61,0,0,1,2.6,2.61v57.81A1.12,1.12,0,0,1,431.35,201.5Zm-85-60.9a2,2,0,0,0-2,2v57.81a.49.49,0,0,0,.49.49h86.49a.49.49,0,0,0,.49-.49V142.58a2,2,0,0,0-2-2Z"/><polyline class="cls-6" points="350.5 156.17 350.5 146.13 425.71 146.13 425.71 195.35 350.5 195.35 350.5 186.13"/><path class="cls-1" d="M425.71,195.66H350.5a.31.31,0,0,1-.31-.31v-9.22a.32.32,0,1,1,.63,0V195H425.4V146.45H350.82v9.72a.32.32,0,0,1-.63,0v-10a.31.31,0,0,1,.31-.31h75.21a.31.31,0,0,1,.31.31v49.22A.31.31,0,0,1,425.71,195.66Z"/><path class="cls-1" d="M350.5,177.72a.31.31,0,0,1-.31-.31v-16a.32.32,0,0,1,.63,0v16A.31.31,0,0,1,350.5,177.72Z"/><path class="cls-1" d="M388.11,144.27a1,1,0,1,1,1-1A1,1,0,0,1,388.11,144.27Zm0-1.35a.36.36,0,0,0-.36.36.36.36,0,0,0,.36.36.37.37,0,0,0,.36-.36A.36.36,0,0,0,388.11,142.92Z"/><path class="cls-1" d="M443.5,208.61H332.72a3.07,3.07,0,0,1-3.08-3.07v-4.81H446.57v4.81A3.07,3.07,0,0,1,443.5,208.61Z"/><path class="cls-1" d="M443.5,208.93H332.72a3.39,3.39,0,0,1-3.39-3.39v-4.81a.31.31,0,0,1,.31-.32H446.57a.31.31,0,0,1,.31.32v4.81A3.39,3.39,0,0,1,443.5,208.93ZM330,201v4.5a2.77,2.77,0,0,0,2.76,2.76H443.5a2.76,2.76,0,0,0,2.75-2.76V201Z"/><path class="cls-1" d="M445.45,207.08H330.76a.32.32,0,0,1,0-.63H445.45a.32.32,0,1,1,0,.63Z"/><rect class="cls-7" x="376.95" y="201.22" width="22.32" height="2.46"/><path class="cls-1" d="M399.26,204H377a.32.32,0,0,1-.32-.32v-2.46a.31.31,0,0,1,.32-.31h22.31a.31.31,0,0,1,.32.31v2.46A.32.32,0,0,1,399.26,204Zm-22-.63H399v-1.83H377.26Z"/><path class="cls-8" d="M404.21,190H367.13a1.61,1.61,0,0,1-1.61-1.61V157.08a1.61,1.61,0,0,1,1.61-1.61h37.08a1.61,1.61,0,0,1,1.61,1.61v31.26A1.61,1.61,0,0,1,404.21,190Z"/><path class="cls-7" d="M406.6,187.23H370.08a1.9,1.9,0,0,1-1.89-1.9V154.64a1.9,1.9,0,0,1,1.89-1.9H406.6a1.9,1.9,0,0,1,1.89,1.9v30.69A1.9,1.9,0,0,1,406.6,187.23Z"/><path class="cls-1" d="M406.6,187.54H370.08a2.21,2.21,0,0,1-2.2-2.21V154.64a2.21,2.21,0,0,1,2.2-2.21H406.6a2.21,2.21,0,0,1,2.21,2.21v30.7A2.21,2.21,0,0,1,406.6,187.54Zm-36.52-34.48a1.57,1.57,0,0,0-1.57,1.58v30.7a1.57,1.57,0,0,0,1.57,1.57H406.6a1.57,1.57,0,0,0,1.58-1.57v-30.7a1.58,1.58,0,0,0-1.58-1.58Z"/><path class="cls-2" d="M400.45,174.63H376.14a1.76,1.76,0,0,1-1.76-1.76v-.21a1.76,1.76,0,0,1,1.76-1.76h24.31a1.76,1.76,0,0,1,1.76,1.76v.21A1.76,1.76,0,0,1,400.45,174.63Z"/><path class="cls-1" d="M400.45,174.94H376.14a2.07,2.07,0,0,1-2.07-2.07v-.21a2.07,2.07,0,0,1,2.07-2.07h24.31a2.07,2.07,0,0,1,2.07,2.07v.21A2.07,2.07,0,0,1,400.45,174.94Zm-24.31-3.72a1.43,1.43,0,0,0-1.44,1.44v.21a1.44,1.44,0,0,0,1.44,1.45h24.31a1.44,1.44,0,0,0,1.44-1.45v-.21a1.43,1.43,0,0,0-1.44-1.44Z"/><path class="cls-7" d="M398.27,173.47H378.15a.74.74,0,0,1-.74-.75v-.07a.75.75,0,0,1,.74-.75h20.12a.76.76,0,0,1,.75.75v.07A.75.75,0,0,1,398.27,173.47Zm-20.12-1.25a.43.43,0,0,0-.43.43v.07a.44.44,0,0,0,.43.44h20.12a.44.44,0,0,0,.43-.44v-.07a.43.43,0,0,0-.43-.43Z"/><path class="cls-2" d="M396.31,178.88h-16a1.08,1.08,0,0,1-1.08-1.08h0a1.08,1.08,0,0,1,1.08-1.09h16a1.08,1.08,0,0,1,1.08,1.09h0A1.08,1.08,0,0,1,396.31,178.88Z"/><path class="cls-1" d="M396.31,179.2h-16a1.4,1.4,0,0,1,0-2.8h16a1.4,1.4,0,0,1,0,2.8Zm-16-2.17a.77.77,0,1,0,0,1.54h16a.77.77,0,0,0,0-1.54Z"/><path class="cls-7" d="M383.39,178.32a.52.52,0,1,1,.52-.52A.52.52,0,0,1,383.39,178.32Zm0-.73a.21.21,0,0,0-.21.21.21.21,0,1,0,.41,0A.2.2,0,0,0,383.39,177.59Z"/><path class="cls-7" d="M385.4,178.32a.52.52,0,1,1,.52-.52A.52.52,0,0,1,385.4,178.32Zm0-.73a.21.21,0,0,0-.21.21.21.21,0,0,0,.21.21.22.22,0,0,0,.21-.21A.21.21,0,0,0,385.4,177.59Z"/><path class="cls-7" d="M387.28,178.32a.52.52,0,1,1,.52-.52A.52.52,0,0,1,387.28,178.32Zm0-.73a.21.21,0,0,0-.21.21.21.21,0,0,0,.21.21.22.22,0,0,0,.21-.21A.21.21,0,0,0,387.28,177.59Z"/><path class="cls-7" d="M389.29,178.32a.52.52,0,1,1,.52-.52A.52.52,0,0,1,389.29,178.32Zm0-.73a.21.21,0,0,0-.21.21.21.21,0,0,0,.21.21.22.22,0,0,0,.21-.21A.21.21,0,0,0,389.29,177.59Z"/><path class="cls-7" d="M391.25,178.32a.52.52,0,1,1,.52-.52A.52.52,0,0,1,391.25,178.32Zm0-.73a.21.21,0,0,0-.21.21.21.21,0,1,0,.41,0A.2.2,0,0,0,391.25,177.59Z"/><path class="cls-7" d="M393.26,178.32a.52.52,0,1,1,.52-.52A.52.52,0,0,1,393.26,178.32Zm0-.73a.21.21,0,0,0-.21.21.21.21,0,1,0,.41,0A.2.2,0,0,0,393.26,177.59Z"/><circle class="cls-3" cx="388.3" cy="162.62" r="5.83"/><path class="cls-1" d="M388.3,168.76a6.14,6.14,0,1,1,6.14-6.14A6.14,6.14,0,0,1,388.3,168.76Zm0-11.65a5.51,5.51,0,1,0,5.51,5.51A5.52,5.52,0,0,0,388.3,157.11Z"/><path class="cls-7" d="M390.88,165.56a2.59,2.59,0,1,0-5.17,0Z"/><path class="cls-1" d="M388.58,165.88h-1.95c-1.24,0-1.24,0-1.24-.32a2.91,2.91,0,0,1,5.81,0C391.2,165.88,391.2,165.88,388.58,165.88Zm2.3-.32Zm-4.84-.31h4.51a2.28,2.28,0,0,0-4.51,0Z"/><path class="cls-7" d="M386.84,161.15a1.47,1.47,0,1,0,1.47-1.48A1.47,1.47,0,0,0,386.84,161.15Z"/><path class="cls-1" d="M388.31,162.93a1.79,1.79,0,1,1,1.79-1.78A1.78,1.78,0,0,1,388.31,162.93Zm0-2.94a1.16,1.16,0,1,0,1.16,1.16A1.15,1.15,0,0,0,388.31,160Z"/><path class="cls-3" d="M391.26,183.29h-5.93A1.32,1.32,0,0,1,384,182h0a1.33,1.33,0,0,1,1.33-1.34h5.93A1.34,1.34,0,0,1,392.6,182h0A1.33,1.33,0,0,1,391.26,183.29Z"/><path class="cls-1" d="M391.26,183.61h-5.93a1.65,1.65,0,1,1,0-3.3h5.93a1.65,1.65,0,1,1,0,3.3Zm-5.93-2.67a1,1,0,0,0,0,2h5.93a1,1,0,0,0,0-2Z"/><rect class="cls-5" x="310.77" y="183.33" width="51.45" height="89.76"/><rect class="cls-7" x="306.99" y="177.84" width="51.45" height="91.46"/><path class="cls-1" d="M358.43,269.62H307a.32.32,0,0,1-.32-.32V177.84a.31.31,0,0,1,.32-.31h51.44a.31.31,0,0,1,.32.31V269.3A.32.32,0,0,1,358.43,269.62ZM307.3,269h50.82V178.16H307.3V269Z"/><rect class="cls-4" x="307.07" y="177.85" width="51.32" height="7.36"/><path class="cls-1" d="M358.7,185.52H306.76v-8H358.7Zm-51.32-.63h50.69v-6.72H307.38v6.72Z"/><path class="cls-7" d="M345.66,182.78a1.12,1.12,0,1,1,1.12-1.12A1.12,1.12,0,0,1,345.66,182.78Zm0-1.76a.65.65,0,1,0,.65.64A.64.64,0,0,0,345.66,181Z"/><path class="cls-7" d="M350.25,182.78a1.12,1.12,0,1,1,1.12-1.12A1.12,1.12,0,0,1,350.25,182.78Zm0-1.76a.65.65,0,1,0,.65.64A.65.65,0,0,0,350.25,181Z"/><path class="cls-7" d="M354.92,182.78a1.12,1.12,0,1,1,1.11-1.12A1.12,1.12,0,0,1,354.92,182.78Zm0-1.76a.65.65,0,1,0,.64.64A.65.65,0,0,0,354.92,181Z"/><path class="cls-4" d="M331.13,196H315.5a.32.32,0,1,1,0-.63h15.63a.32.32,0,0,1,0,.63Z"/><path class="cls-2" d="M340.62,196H335a.32.32,0,0,1,0-.63h5.59a.32.32,0,0,1,0,.63Z"/><path class="cls-2" d="M350.2,196h-5.12a.32.32,0,0,1,0-.63h5.12a.32.32,0,1,1,0,.63Z"/><path class="cls-4" d="M350.2,208.1H334.57a.32.32,0,0,1,0-.63H350.2a.32.32,0,1,1,0,.63Z"/><path class="cls-2" d="M330.67,208.1h-5.59a.32.32,0,1,1,0-.63h5.59a.32.32,0,0,1,0,.63Z"/><path class="cls-2" d="M320.61,208.1H315.5a.32.32,0,1,1,0-.63h5.11a.32.32,0,1,1,0,.63Z"/><path class="cls-4" d="M323.54,202h-8a.32.32,0,1,1,0-.63h8a.32.32,0,0,1,.32.32A.31.31,0,0,1,323.54,202Z"/><path class="cls-2" d="M340.62,202H327a.32.32,0,0,1,0-.63h13.66a.32.32,0,0,1,0,.63Z"/><path class="cls-4" d="M350.2,202h-5.12a.32.32,0,0,1,0-.63h5.12a.32.32,0,1,1,0,.63Z"/><path class="cls-4" d="M331.13,213.48H315.5a.32.32,0,1,1,0-.63h15.63a.32.32,0,0,1,0,.63Z"/><path class="cls-2" d="M340.62,213.48H335a.32.32,0,0,1,0-.63h5.59a.32.32,0,0,1,0,.63Z"/><path class="cls-4" d="M331.13,232.87H315.5a.31.31,0,1,1,0-.62h15.63a.31.31,0,0,1,0,.62Z"/><path class="cls-2" d="M340.62,232.87H335a.31.31,0,0,1,0-.62h5.59a.31.31,0,0,1,0,.62Z"/><path class="cls-2" d="M350.2,213.48h-5.12a.32.32,0,0,1,0-.63h5.12a.32.32,0,1,1,0,.63Z"/><path class="cls-4" d="M350.2,225.58H334.57a.32.32,0,0,1,0-.63H350.2a.32.32,0,1,1,0,.63Z"/><path class="cls-2" d="M330.67,225.58h-5.59a.32.32,0,1,1,0-.63h5.59a.32.32,0,0,1,0,.63Z"/><path class="cls-2" d="M320.61,225.58H315.5a.32.32,0,1,1,0-.63h5.11a.32.32,0,1,1,0,.63Z"/><path class="cls-4" d="M348.94,239.43h-5.59a.31.31,0,0,1,0-.62h5.59a.31.31,0,1,1,0,.62Z"/><path class="cls-4" d="M338.89,239.43h-5.12a.31.31,0,0,1,0-.62h5.12a.31.31,0,0,1,0,.62Z"/><path class="cls-4" d="M323.54,219.47h-8a.32.32,0,1,1,0-.63h8a.32.32,0,0,1,.32.32A.31.31,0,0,1,323.54,219.47Z"/><path class="cls-2" d="M340.62,219.47H327a.32.32,0,0,1,0-.63h13.66a.32.32,0,0,1,0,.63Z"/><path class="cls-4" d="M350.2,219.47h-5.12a.32.32,0,0,1,0-.63h5.12a.32.32,0,1,1,0,.63Z"/><path class="cls-2" d="M347.32,245.87H333.67a.32.32,0,1,1,0-.63h13.65a.32.32,0,0,1,0,.63Z"/><path class="cls-4" d="M338.81,251.9h-5.12a.31.31,0,0,1-.31-.31.32.32,0,0,1,.31-.32h5.12a.32.32,0,0,1,.31.32A.31.31,0,0,1,338.81,251.9Z"/><path class="cls-1" d="M372.75,292.07h64.78a1.24,1.24,0,0,0,1.24-1.25V245.38a1.24,1.24,0,0,0-1.24-1.25H372.75a1.25,1.25,0,0,0-1.25,1.25v45.44A1.25,1.25,0,0,0,372.75,292.07Z"/><path class="cls-1" d="M437.53,292.38H372.75a1.56,1.56,0,0,1-1.56-1.56V245.38a1.56,1.56,0,0,1,1.56-1.56h64.78a1.56,1.56,0,0,1,1.56,1.56v45.44A1.56,1.56,0,0,1,437.53,292.38Zm-64.78-47.93a.93.93,0,0,0-.93.93v45.44a.94.94,0,0,0,.93.94h64.78a.94.94,0,0,0,.93-.94V245.38a.93.93,0,0,0-.93-.93Z"/><path class="cls-3" d="M375.27,248.58h67.27v-6.16a1.92,1.92,0,0,0-1.93-1.92H376.76a1.49,1.49,0,0,0-1.49,1.49Z"/><path class="cls-1" d="M442.85,248.89H375V242a1.81,1.81,0,0,1,1.8-1.8h63.85a2.23,2.23,0,0,1,2.24,2.23v6.47Zm-67.26-.63h66.63v-5.84a1.61,1.61,0,0,0-1.61-1.6H376.76a1.17,1.17,0,0,0-1.17,1.17v6.27Z"/><path class="cls-7" d="M384.11,246a1.56,1.56,0,1,1,1.56-1.55A1.56,1.56,0,0,1,384.11,246Zm0-2.48a.93.93,0,0,0,0,1.86.93.93,0,1,0,0-1.86Z"/><path class="cls-7" d="M389,246a1.56,1.56,0,1,1,1.55-1.55A1.56,1.56,0,0,1,389,246Zm0-2.48a.93.93,0,1,0,.92.93A.92.92,0,0,0,389,243.52Z"/><path class="cls-7" d="M379.3,246a1.56,1.56,0,1,1,1.56-1.55A1.55,1.55,0,0,1,379.3,246Zm0-2.48a.93.93,0,1,0,.93.93A.93.93,0,0,0,379.3,243.52Z"/><path class="cls-7" d="M375.46,288.11H442.3a.22.22,0,0,0,.22-.22V248.8a.22.22,0,0,0-.22-.22H375.46a.21.21,0,0,0-.21.22v39.09A.21.21,0,0,0,375.46,288.11Z"/><path class="cls-1" d="M442.3,288.42H375.46a.53.53,0,0,1-.53-.53V248.8a.53.53,0,0,1,.53-.53H442.3a.53.53,0,0,1,.53.53v39.09A.53.53,0,0,1,442.3,288.42Zm-66.74-.63H442.2V248.9H375.56Z"/><path class="cls-2" d="M433.75,258.48H403.51a.32.32,0,1,1,0-.63h30.24a.32.32,0,0,1,0,.63Z"/><path class="cls-4" d="M414.13,263.06H403.51a.31.31,0,1,1,0-.62h10.62a.31.31,0,0,1,0,.62Z"/><path class="cls-2" d="M431.4,263.06H418.5a.31.31,0,1,1,0-.62h12.9a.31.31,0,0,1,0,.62Z"/><path class="cls-4" d="M422.89,277H403.51a.32.32,0,1,1,0-.63h19.38a.32.32,0,0,1,0,.63Z"/><path class="cls-4" d="M434,267.89h-30.5a.32.32,0,1,1,0-.63H434a.32.32,0,1,1,0,.63Z"/><path class="cls-2" d="M413.17,272.47h-9.66a.31.31,0,1,1,0-.62h9.66a.31.31,0,1,1,0,.62Z"/><path class="cls-4" d="M433.75,272.47h-17.6a.31.31,0,1,1,0-.62h17.6a.31.31,0,0,1,0,.62Z"/><path class="cls-1" d="M390.07,266.4v-10a10,10,0,1,0,10.05,10Z"/><path class="cls-1" d="M390.07,276.76a10.36,10.36,0,0,1,0-20.72.31.31,0,0,1,.32.31v9.74h9.73a.31.31,0,0,1,.31.31A10.37,10.37,0,0,1,390.07,276.76Zm-.31-20.09a9.73,9.73,0,1,0,10,10h-9.73a.31.31,0,0,1-.31-.31Z"/><path class="cls-2" d="M389.2,266.53v-10a10,10,0,1,0,10.05,10Z"/><path class="cls-1" d="M389.2,276.89a10.36,10.36,0,0,1,0-20.72h.32v10h10v.32A10.37,10.37,0,0,1,389.2,276.89Zm-.31-20.09a9.73,9.73,0,1,0,10,10h-10Z"/><path class="cls-4" d="M397.57,263a5,5,0,0,0-5-5v5Z"/><path class="cls-1" d="M397.88,263.28h-5.66v-5.66h.32a5.35,5.35,0,0,1,5.34,5.35Zm-5-.63h4.39a4.72,4.72,0,0,0-4.39-4.39Z"/><circle class="cls-1" cx="439.58" cy="241.42" r="15.58"/><path class="cls-1" d="M439.57,257.3a15.9,15.9,0,1,1,15.89-15.9A15.91,15.91,0,0,1,439.57,257.3Zm0-31.17a15.27,15.27,0,1,0,15.26,15.27A15.29,15.29,0,0,0,439.57,226.13Z"/><circle class="cls-4" cx="440.98" cy="239.9" r="15.58"/><path class="cls-1" d="M441,255.78a15.9,15.9,0,1,1,15.89-15.89A15.91,15.91,0,0,1,441,255.78Zm0-31.16a15.27,15.27,0,1,0,15.26,15.27A15.29,15.29,0,0,0,441,224.62Z"/><path class="cls-7" d="M446.71,236.56h-.94a5.22,5.22,0,0,0-10.29,0H434a4.35,4.35,0,0,0,0,8.66h12.7a4.35,4.35,0,0,0,0-8.66Z"/><path class="cls-1" d="M446.71,245.54H434a4.66,4.66,0,0,1,0-9.3h1.21a5.54,5.54,0,0,1,10.81,0h.68a4.67,4.67,0,0,1,0,9.3ZM434,236.87a4,4,0,0,0,0,8h12.7a4,4,0,0,0,0-8h-.94a.3.3,0,0,1-.31-.26,4.9,4.9,0,0,0-9.67,0,.31.31,0,0,1-.31.26Z"/><rect class="cls-7" x="225.45" y="322.03" width="38.85" height="27.63"/><path class="cls-1" d="M264.3,350H225.45a.31.31,0,0,1-.32-.31V322a.32.32,0,0,1,.32-.32H264.3a.31.31,0,0,1,.31.32v27.63A.31.31,0,0,1,264.3,350Zm-38.54-.63H264v-27H225.76Z"/><path class="cls-1" d="M322.58,321.82H167.16a5.45,5.45,0,0,1-5.32-5.57V215.44a5.45,5.45,0,0,1,5.32-5.57H322.58a5.45,5.45,0,0,1,5.33,5.57V316.25A5.45,5.45,0,0,1,322.58,321.82Z"/><path class="cls-1" d="M322.58,322.13H167.16a5.77,5.77,0,0,1-5.64-5.88V215.44a5.77,5.77,0,0,1,5.64-5.89H322.58a5.77,5.77,0,0,1,5.64,5.89V316.25A5.77,5.77,0,0,1,322.58,322.13ZM167.16,210.18a5.15,5.15,0,0,0-5,5.26V316.25a5.15,5.15,0,0,0,5,5.26H322.58a5.14,5.14,0,0,0,5-5.26V215.44a5.14,5.14,0,0,0-5-5.26Z"/><path class="cls-7" d="M322.58,324.9H167.16a5.45,5.45,0,0,1-5.32-5.57V218.52a5.45,5.45,0,0,1,5.32-5.58H322.58a5.46,5.46,0,0,1,5.33,5.58V319.33A5.45,5.45,0,0,1,322.58,324.9Z"/><path class="cls-1" d="M322.58,325.21H167.16a5.77,5.77,0,0,1-5.64-5.88V218.52a5.77,5.77,0,0,1,5.64-5.89H322.58a5.77,5.77,0,0,1,5.64,5.89V319.33A5.77,5.77,0,0,1,322.58,325.21ZM167.16,213.26a5.15,5.15,0,0,0-5,5.26V319.33a5.14,5.14,0,0,0,5,5.25H322.58a5.14,5.14,0,0,0,5-5.25V218.52a5.14,5.14,0,0,0-5-5.26Z"/><path class="cls-5" d="M318.1,249.24V225.72a1.78,1.78,0,0,0-1.74-1.81H173.09a1.77,1.77,0,0,0-1.73,1.81v87.67H318.1V290.14"/><path class="cls-5" d="M318.1,313.71H171.36a.32.32,0,0,1-.32-.32V225.72a2.09,2.09,0,0,1,2.06-2.12H316.36a2.09,2.09,0,0,1,2.05,2.12v23.52a.32.32,0,0,1-.63,0V225.72a1.46,1.46,0,0,0-1.42-1.49H173.1a1.46,1.46,0,0,0-1.43,1.49v87.36H317.78V290.14a.32.32,0,0,1,.63,0v23.25A.31.31,0,0,1,318.1,313.71Z"/><path class="cls-1" d="M318.24,277.34a.31.31,0,0,1-.31-.31V260.17a.32.32,0,0,1,.63,0V277A.31.31,0,0,1,318.24,277.34Z"/><path class="cls-7" d="M244.87,220h0a1.78,1.78,0,0,1-1.78-1.78h0a1.79,1.79,0,0,1,1.78-1.79h0a1.79,1.79,0,0,1,1.79,1.79h0A1.79,1.79,0,0,1,244.87,220Z"/><path class="cls-1" d="M244.87,220.33a2.1,2.1,0,1,1,2.1-2.1A2.11,2.11,0,0,1,244.87,220.33Zm0-3.57a1.47,1.47,0,1,0,1.47,1.47A1.47,1.47,0,0,0,244.87,216.76Z"/><path class="cls-3" d="M315.88,320.8h0A1.79,1.79,0,0,1,314.1,319h0a1.78,1.78,0,0,1,1.78-1.78h0a1.78,1.78,0,0,1,1.79,1.78h0A1.79,1.79,0,0,1,315.88,320.8Z"/><path class="cls-1" d="M315.88,321.11A2.1,2.1,0,1,1,318,319,2.11,2.11,0,0,1,315.88,321.11Zm0-3.57a1.47,1.47,0,1,0,1.47,1.47A1.47,1.47,0,0,0,315.88,317.54Z"/><path class="cls-1" d="M309,320a1,1,0,1,1,1-1A1,1,0,0,1,309,320Zm0-1.41a.39.39,0,0,0-.4.39.4.4,0,1,0,.79,0A.39.39,0,0,0,309,318.62Z"/><path class="cls-1" d="M304.92,320a1,1,0,0,1,0-2,1,1,0,1,1,0,2Zm0-1.41a.39.39,0,0,0-.4.39.4.4,0,0,0,.4.4.39.39,0,0,0,.39-.4A.38.38,0,0,0,304.92,318.62Z"/><rect class="cls-1" x="225.52" y="324.9" width="38.71" height="7.12"/><path class="cls-1" d="M264.23,332.34H225.52a.31.31,0,0,1-.32-.31V324.9a.31.31,0,0,1,.32-.31h38.71a.31.31,0,0,1,.31.31V332A.31.31,0,0,1,264.23,332.34Zm-38.4-.63h38.08v-6.49H225.83Z"/><path class="cls-7" d="M312.85,350.38c-.14-.1-.29-.19-.44-.28a15.89,15.89,0,0,0-8.46-2.38H184.16l-.57,0A10.81,10.81,0,0,0,174,354l-2.42,5.76H318.17A11.45,11.45,0,0,0,312.85,350.38Z"/><path class="cls-1" d="M318.17,360.08H171.58a.3.3,0,0,1-.26-.14.32.32,0,0,1,0-.3l2.42-5.75a11.15,11.15,0,0,1,9.87-6.47h.08l.5,0H304a16.17,16.17,0,0,1,8.63,2.43l.12.07.33.22h0a11.73,11.73,0,0,1,5.45,9.65A.31.31,0,0,1,318.17,360.08Zm-146.12-.63h145.8a11.17,11.17,0,0,0-5.17-8.81h0l-.31-.2-.13-.08A15.56,15.56,0,0,0,304,348H183.61a10.5,10.5,0,0,0-9.32,6.09Z"/><path class="cls-7" d="M197.41,354H187v-1.43a2.08,2.08,0,0,1,2.08-2.08h6.22a2.08,2.08,0,0,1,2.07,2.08Z"/><path class="cls-1" d="M197.41,354.34H187a.31.31,0,0,1-.31-.32v-1.43a2.39,2.39,0,0,1,2.39-2.39h6.22a2.39,2.39,0,0,1,2.38,2.39V354A.31.31,0,0,1,197.41,354.34Zm-10-.63h9.73v-1.12a1.75,1.75,0,0,0-1.75-1.76h-6.23a1.75,1.75,0,0,0-1.75,1.76Z"/><path class="cls-7" d="M210.25,354H199.88v-1.43a2.08,2.08,0,0,1,2.07-2.08h6.23a2.08,2.08,0,0,1,2.07,2.08V354Z"/><path class="cls-1" d="M210.25,354.34H199.88a.31.31,0,0,1-.31-.32v-1.43A2.39,2.39,0,0,1,202,350.2h6.22a2.39,2.39,0,0,1,2.38,2.39V354A.31.31,0,0,1,210.25,354.34Zm-10.05-.63h9.73v-1.12a1.75,1.75,0,0,0-1.75-1.76H202a1.75,1.75,0,0,0-1.75,1.76v1.12Z"/><path class="cls-7" d="M223.41,354H213v-1.43a2.08,2.08,0,0,1,2.07-2.08h6.22a2.08,2.08,0,0,1,2.08,2.08Z"/><path class="cls-1" d="M223.41,354.34H213a.31.31,0,0,1-.31-.32v-1.43a2.39,2.39,0,0,1,2.38-2.39h6.23a2.39,2.39,0,0,1,2.38,2.39V354A.31.31,0,0,1,223.41,354.34Zm-10.06-.63h9.74v-1.12a1.76,1.76,0,0,0-1.76-1.76h-6.22a1.76,1.76,0,0,0-1.76,1.76v1.12Z"/><path class="cls-7" d="M236.25,354H225.88v-1.43a2.08,2.08,0,0,1,2.07-2.08h6.22a2.08,2.08,0,0,1,2.08,2.08Z"/><path class="cls-1" d="M236.25,354.34H225.88a.31.31,0,0,1-.31-.32v-1.43A2.39,2.39,0,0,1,228,350.2h6.23a2.39,2.39,0,0,1,2.38,2.39V354A.31.31,0,0,1,236.25,354.34Zm-10.06-.63h9.74v-1.12a1.76,1.76,0,0,0-1.76-1.76H228a1.76,1.76,0,0,0-1.76,1.76v1.12Z"/><path class="cls-7" d="M249.25,354H238.88v-1.43a2.08,2.08,0,0,1,2.07-2.08h6.22a2.08,2.08,0,0,1,2.08,2.08Z"/><path class="cls-1" d="M249.25,354.34H238.88a.31.31,0,0,1-.31-.32v-1.43A2.39,2.39,0,0,1,241,350.2h6.22a2.39,2.39,0,0,1,2.39,2.39V354A.31.31,0,0,1,249.25,354.34Zm-10.06-.63h9.74v-1.12a1.76,1.76,0,0,0-1.76-1.76H241a1.76,1.76,0,0,0-1.76,1.76v1.12Z"/><path class="cls-7" d="M262.09,354H251.72v-1.43a2.08,2.08,0,0,1,2.07-2.08H260a2.08,2.08,0,0,1,2.08,2.08V354Z"/><path class="cls-1" d="M262.09,354.34H251.72a.32.32,0,0,1-.32-.32v-1.43a2.4,2.4,0,0,1,2.39-2.39H260a2.39,2.39,0,0,1,2.39,2.39V354A.31.31,0,0,1,262.09,354.34ZM252,353.71h9.74v-1.12a1.76,1.76,0,0,0-1.76-1.76h-6.22a1.76,1.76,0,0,0-1.76,1.76v1.12Z"/><path class="cls-7" d="M275.25,354H264.88v-1.43a2.08,2.08,0,0,1,2.07-2.08h6.22a2.08,2.08,0,0,1,2.08,2.08Z"/><path class="cls-1" d="M275.25,354.34H264.88a.32.32,0,0,1-.32-.32v-1.43A2.4,2.4,0,0,1,267,350.2h6.22a2.39,2.39,0,0,1,2.39,2.39V354A.31.31,0,0,1,275.25,354.34Zm-10.06-.63h9.74v-1.12a1.76,1.76,0,0,0-1.76-1.76H267a1.76,1.76,0,0,0-1.76,1.76v1.12Z"/><path class="cls-7" d="M288.09,354H277.72v-1.43a2.08,2.08,0,0,1,2.07-2.08H286a2.08,2.08,0,0,1,2.08,2.08Z"/><path class="cls-1" d="M288.09,354.34H277.72a.32.32,0,0,1-.32-.32v-1.43a2.4,2.4,0,0,1,2.39-2.39H286a2.39,2.39,0,0,1,2.39,2.39V354A.31.31,0,0,1,288.09,354.34ZM278,353.71h9.74v-1.12a1.76,1.76,0,0,0-1.76-1.76h-6.22a1.76,1.76,0,0,0-1.76,1.76v1.12Z"/><path class="cls-7" d="M301.56,354H291.2v-1.43a2.07,2.07,0,0,1,2.07-2.08h6.22a2.07,2.07,0,0,1,2.07,2.08Z"/><path class="cls-1" d="M301.56,354.34H291.2a.32.32,0,0,1-.32-.32v-1.43a2.39,2.39,0,0,1,2.39-2.39h6.22a2.39,2.39,0,0,1,2.39,2.39V354A.32.32,0,0,1,301.56,354.34Zm-10.05-.63h9.74v-1.12a1.76,1.76,0,0,0-1.76-1.76h-6.22a1.76,1.76,0,0,0-1.76,1.76v1.12Z"/><path class="cls-7" d="M191.31,356.42H181V355a2.06,2.06,0,0,1,2.07-2.07h6.22a2.07,2.07,0,0,1,2.07,2.07v1.44Z"/><path class="cls-1" d="M191.31,356.73H181a.31.31,0,0,1-.32-.31V355a2.39,2.39,0,0,1,2.39-2.39h6.22a2.39,2.39,0,0,1,2.39,2.39v1.44A.31.31,0,0,1,191.31,356.73Zm-10.05-.63H191V355a1.76,1.76,0,0,0-1.76-1.76H183a1.76,1.76,0,0,0-1.76,1.76Z"/><path class="cls-7" d="M204.15,356.42H193.79V355a2.06,2.06,0,0,1,2.07-2.07h6.22a2.07,2.07,0,0,1,2.07,2.07Z"/><path class="cls-1" d="M204.15,356.73H193.79a.31.31,0,0,1-.32-.31V355a2.39,2.39,0,0,1,2.39-2.39h6.22a2.39,2.39,0,0,1,2.39,2.39v1.44A.31.31,0,0,1,204.15,356.73Zm-10.05-.63h9.74V355a1.76,1.76,0,0,0-1.76-1.76h-6.22A1.76,1.76,0,0,0,194.1,355v1.12Z"/><path class="cls-7" d="M217.31,356.42H207V355a2.06,2.06,0,0,1,2.07-2.07h6.22a2.07,2.07,0,0,1,2.07,2.07Z"/><path class="cls-1" d="M217.31,356.73H207a.31.31,0,0,1-.32-.31V355a2.39,2.39,0,0,1,2.39-2.39h6.22a2.39,2.39,0,0,1,2.39,2.39v1.44A.31.31,0,0,1,217.31,356.73Zm-10.05-.63H217V355a1.76,1.76,0,0,0-1.76-1.76H209a1.76,1.76,0,0,0-1.76,1.76v1.12Z"/><path class="cls-7" d="M230.15,356.42H219.78V355a2.07,2.07,0,0,1,2.08-2.07h6.22a2.07,2.07,0,0,1,2.07,2.07v1.44Z"/><path class="cls-1" d="M230.15,356.73H219.78a.31.31,0,0,1-.31-.31V355a2.39,2.39,0,0,1,2.39-2.39h6.22a2.39,2.39,0,0,1,2.39,2.39v1.44A.31.31,0,0,1,230.15,356.73Zm-10.05-.63h9.74V355a1.76,1.76,0,0,0-1.76-1.76h-6.22A1.76,1.76,0,0,0,220.1,355v1.12Z"/><path class="cls-7" d="M243.15,356.42H232.78V355a2.07,2.07,0,0,1,2.08-2.07h6.22a2.07,2.07,0,0,1,2.07,2.07Z"/><path class="cls-1" d="M243.15,356.73H232.78a.31.31,0,0,1-.31-.31V355a2.39,2.39,0,0,1,2.39-2.39h6.22a2.4,2.4,0,0,1,2.39,2.39v1.44A.31.31,0,0,1,243.15,356.73Zm-10.05-.63h9.74V355a1.76,1.76,0,0,0-1.76-1.76h-6.22A1.76,1.76,0,0,0,233.1,355v1.12Z"/><path class="cls-7" d="M256,356.42H245.62V355a2.07,2.07,0,0,1,2.08-2.07h6.22A2.07,2.07,0,0,1,256,355Z"/><path class="cls-1" d="M256,356.73H245.62a.31.31,0,0,1-.31-.31V355a2.39,2.39,0,0,1,2.39-2.39h6.22a2.4,2.4,0,0,1,2.39,2.39v1.44A.31.31,0,0,1,256,356.73Zm-10.05-.63h9.74V355a1.76,1.76,0,0,0-1.76-1.76H247.7a1.76,1.76,0,0,0-1.76,1.76v1.12Z"/><path class="cls-7" d="M269.15,356.42H258.78V355a2.07,2.07,0,0,1,2.08-2.07h6.22a2.07,2.07,0,0,1,2.07,2.07Z"/><path class="cls-1" d="M269.15,356.73H258.78a.31.31,0,0,1-.31-.31V355a2.39,2.39,0,0,1,2.39-2.39h6.22a2.4,2.4,0,0,1,2.39,2.39v1.44A.33.33,0,0,1,269.15,356.73Zm-10-.63h9.74V355a1.76,1.76,0,0,0-1.76-1.76h-6.22A1.76,1.76,0,0,0,259.1,355v1.12Z"/><path class="cls-7" d="M282,356.42H271.62V355a2.07,2.07,0,0,1,2.08-2.07h6.22A2.07,2.07,0,0,1,282,355v1.44Z"/><path class="cls-1" d="M282,356.73H271.62a.31.31,0,0,1-.31-.31V355a2.39,2.39,0,0,1,2.39-2.39h6.22a2.4,2.4,0,0,1,2.39,2.39v1.44A.33.33,0,0,1,282,356.73Zm-10.05-.63h9.74V355a1.76,1.76,0,0,0-1.76-1.76H273.7a1.76,1.76,0,0,0-1.76,1.76v1.12Z"/><path class="cls-7" d="M295.47,356.42H285.1V355a2.07,2.07,0,0,1,2.07-2.07h6.22a2.08,2.08,0,0,1,2.08,2.07v1.44Z"/><path class="cls-1" d="M295.47,356.73H285.1a.31.31,0,0,1-.31-.31V355a2.39,2.39,0,0,1,2.38-2.39h6.22a2.39,2.39,0,0,1,2.39,2.39v1.44A.31.31,0,0,1,295.47,356.73Zm-10.05-.63h9.73V355a1.76,1.76,0,0,0-1.76-1.76h-6.22a1.76,1.76,0,0,0-1.76,1.76v1.12Z"/><path class="cls-7" d="M308.31,356.42H297.94V355a2.07,2.07,0,0,1,2.07-2.07h6.22a2.08,2.08,0,0,1,2.08,2.07v1.44Z"/><path class="cls-1" d="M308.31,356.73H297.94a.31.31,0,0,1-.31-.31V355a2.39,2.39,0,0,1,2.38-2.39h6.22a2.39,2.39,0,0,1,2.39,2.39v1.44A.31.31,0,0,1,308.31,356.73Zm-10.06-.63H308V355a1.76,1.76,0,0,0-1.76-1.76H300a1.76,1.76,0,0,0-1.76,1.76Z"/><path class="cls-6" d="M262.78,305.71H184.49A2.51,2.51,0,0,1,182,303.2V235.48a2.52,2.52,0,0,1,2.52-2.52h78.29a2.52,2.52,0,0,1,2.52,2.52V303.2A2.51,2.51,0,0,1,262.78,305.71Z"/><path class="cls-1" d="M262.78,306H184.49a2.84,2.84,0,0,1-2.84-2.83V235.48a2.84,2.84,0,0,1,2.84-2.83h78.29a2.84,2.84,0,0,1,2.84,2.83V303.2A2.84,2.84,0,0,1,262.78,306Zm-78.29-72.75a2.21,2.21,0,0,0-2.21,2.2V303.2a2.21,2.21,0,0,0,2.21,2.2h78.29a2.21,2.21,0,0,0,2.21-2.2V235.48a2.21,2.21,0,0,0-2.21-2.2Z"/><path class="cls-2" d="M262.78,233H184.49a2.52,2.52,0,0,0-2.52,2.52v4.13H265.3v-4.13A2.52,2.52,0,0,0,262.78,233Z"/><path class="cls-1" d="M265.62,239.93h-84v-4.45a2.84,2.84,0,0,1,2.84-2.83h78.29a2.84,2.84,0,0,1,2.84,2.83Zm-83.34-.63H265v-3.82a2.21,2.21,0,0,0-2.21-2.2H184.49a2.21,2.21,0,0,0-2.21,2.2Z"/><path class="cls-7" d="M191.84,237.92a1.44,1.44,0,1,1,1.43-1.44A1.44,1.44,0,0,1,191.84,237.92Zm0-2.24a.81.81,0,1,0,.8.8A.8.8,0,0,0,191.84,235.68Z"/><path class="cls-7" d="M196.2,237.92a1.44,1.44,0,1,1,1.43-1.44A1.44,1.44,0,0,1,196.2,237.92Zm0-2.24a.81.81,0,1,0,.8.8A.8.8,0,0,0,196.2,235.68Z"/><path class="cls-7" d="M187.51,237.92a1.44,1.44,0,1,1,1.43-1.44A1.44,1.44,0,0,1,187.51,237.92Zm0-2.24a.81.81,0,1,0,.8.8A.8.8,0,0,0,187.51,235.68Z"/><path class="cls-2" d="M240.83,251.54H190.39a.31.31,0,0,1,0-.62h50.44a.31.31,0,1,1,0,.62Z"/><path class="cls-4" d="M208.11,260.71H190.39a.32.32,0,0,1,0-.63h17.72a.32.32,0,0,1,0,.63Z"/><path class="cls-2" d="M236.91,260.71H215.4a.32.32,0,1,1,0-.63h21.51a.32.32,0,1,1,0,.63Z"/><path class="cls-4" d="M222.72,288.54H190.39a.32.32,0,0,1,0-.63h32.33a.32.32,0,1,1,0,.63Z"/><path class="cls-4" d="M241.27,270.35H190.39a.32.32,0,0,1,0-.63h50.88a.32.32,0,1,1,0,.63Z"/><path class="cls-2" d="M206.51,279.52H190.39a.32.32,0,0,1,0-.63h16.12a.32.32,0,1,1,0,.63Z"/><path class="cls-4" d="M240.83,279.52H211.47a.32.32,0,0,1,0-.63h29.36a.32.32,0,0,1,0,.63Z"/><path class="cls-1" d="M308,305.22H271.37a.52.52,0,0,1-.52-.52V244a.52.52,0,0,1,.52-.52H308a.52.52,0,0,1,.52.52V304.7A.53.53,0,0,1,308,305.22Z"/><path class="cls-1" d="M308,305.53H271.37a.83.83,0,0,1-.83-.83V244a.83.83,0,0,1,.83-.83H308a.83.83,0,0,1,.83.83V304.7A.83.83,0,0,1,308,305.53ZM271.37,243.8a.21.21,0,0,0-.21.21V304.7a.2.2,0,0,0,.21.2H308a.2.2,0,0,0,.2-.2V244a.21.21,0,0,0-.2-.21Z"/><path class="cls-4" d="M288.48,255.84H276.6a.31.31,0,0,1,0-.62h11.88a.31.31,0,0,1,0,.62Z"/><path class="cls-7" d="M295.68,255.84h-4.24a.31.31,0,0,1,0-.62h4.24a.31.31,0,1,1,0,.62Z"/><path class="cls-7" d="M303,255.84h-3.88a.31.31,0,1,1,0-.62H303a.31.31,0,1,1,0,.62Z"/><path class="cls-4" d="M303,264H291.09a.32.32,0,0,1,0-.63H303a.32.32,0,1,1,0,.63Z"/><path class="cls-7" d="M288.13,264h-4.25a.32.32,0,0,1,0-.63h4.25a.32.32,0,0,1,0,.63Z"/><path class="cls-7" d="M280.49,264H276.6a.32.32,0,0,1,0-.63h3.89a.32.32,0,0,1,0,.63Z"/><path class="cls-4" d="M282.71,259.89H276.6a.32.32,0,0,1,0-.63h6.11a.32.32,0,1,1,0,.63Z"/><path class="cls-7" d="M295.68,259.89H285.31a.32.32,0,0,1,0-.63h10.37a.32.32,0,1,1,0,.63Z"/><path class="cls-4" d="M303,259.89h-3.88a.32.32,0,1,1,0-.63H303a.32.32,0,1,1,0,.63Z"/><path class="cls-4" d="M288.48,267.64H276.6a.32.32,0,0,1,0-.63h11.88a.32.32,0,0,1,0,.63Z"/><path class="cls-7" d="M295.68,267.64h-4.24a.32.32,0,0,1,0-.63h4.24a.32.32,0,1,1,0,.63Z"/><path class="cls-4" d="M288.48,280.73H276.6a.32.32,0,0,1,0-.63h11.88a.32.32,0,0,1,0,.63Z"/><path class="cls-7" d="M295.68,280.73h-4.24a.32.32,0,0,1,0-.63h4.24a.32.32,0,1,1,0,.63Z"/><path class="cls-7" d="M303,267.64h-3.88a.32.32,0,1,1,0-.63H303a.32.32,0,1,1,0,.63Z"/><path class="cls-4" d="M303,275.81H291.09a.32.32,0,0,1,0-.63H303a.32.32,0,1,1,0,.63Z"/><path class="cls-7" d="M288.13,275.81h-4.25a.32.32,0,0,1,0-.63h4.25a.32.32,0,0,1,0,.63Z"/><path class="cls-7" d="M280.49,275.81H276.6a.32.32,0,0,1,0-.63h3.89a.32.32,0,0,1,0,.63Z"/><path class="cls-4" d="M288.13,285.16h-4.25a.32.32,0,0,1,0-.63h4.25a.32.32,0,0,1,0,.63Z"/><path class="cls-4" d="M280.49,285.16H276.6a.32.32,0,0,1,0-.63h3.89a.32.32,0,0,1,0,.63Z"/><path class="cls-4" d="M282.71,271.68H276.6a.31.31,0,0,1,0-.62h6.11a.31.31,0,1,1,0,.62Z"/><path class="cls-7" d="M295.68,271.68H285.31a.31.31,0,1,1,0-.62h10.37a.31.31,0,1,1,0,.62Z"/><path class="cls-4" d="M303,271.68h-3.88a.31.31,0,1,1,0-.62H303a.31.31,0,1,1,0,.62Z"/><path class="cls-7" d="M286.89,289.5H276.52a.31.31,0,0,1,0-.62h10.37a.31.31,0,1,1,0,.62Z"/><path class="cls-4" d="M280.43,293.57h-3.89a.31.31,0,1,1,0-.62h3.89a.31.31,0,1,1,0,.62Z"/><path class="cls-1" d="M270.23,299.38h-58.9a3.06,3.06,0,0,1-3.06-3.05V246.81a3.06,3.06,0,0,1,3.06-3.06h58.9a3.06,3.06,0,0,1,3,3.06v49.52A3.06,3.06,0,0,1,270.23,299.38Z"/><path class="cls-7" d="M273.74,297h-58.9a3.06,3.06,0,0,1-3.06-3.06V244.41a3.06,3.06,0,0,1,3.06-3h58.9a3.06,3.06,0,0,1,3.05,3v49.52A3.06,3.06,0,0,1,273.74,297Z"/><path class="cls-1" d="M273.74,297.3h-58.9a3.37,3.37,0,0,1-3.37-3.36V244.42a3.37,3.37,0,0,1,3.37-3.37h58.9a3.38,3.38,0,0,1,3.37,3.37v49.52A3.38,3.38,0,0,1,273.74,297.3Zm-58.9-55.62a2.74,2.74,0,0,0-2.74,2.73v49.52a2.74,2.74,0,0,0,2.74,2.74h58.9a2.74,2.74,0,0,0,2.74-2.74V244.41a2.74,2.74,0,0,0-2.74-2.73Z"/><path class="cls-1" d="M275,182H212a4.55,4.55,0,0,1-4.56-4.55v-.55a4.56,4.56,0,0,1,4.56-4.56h63a4.56,4.56,0,0,1,4.55,4.56v.55A4.55,4.55,0,0,1,275,182Z"/><path class="cls-1" d="M275,182.31H212a4.87,4.87,0,0,1-4.87-4.87v-.55A4.87,4.87,0,0,1,212,172h63a4.88,4.88,0,0,1,4.87,4.87v.55A4.88,4.88,0,0,1,275,182.31Zm-63-9.66a4.24,4.24,0,0,0-4.24,4.24v.55a4.24,4.24,0,0,0,4.24,4.24h63a4.24,4.24,0,0,0,4.24-4.24v-.55a4.24,4.24,0,0,0-4.24-4.24Z"/><path class="cls-1" d="M264.24,193H222.7a2.8,2.8,0,0,1-2.8-2.81h0a2.8,2.8,0,0,1,2.8-2.81h41.54a2.81,2.81,0,0,1,2.81,2.81h0A2.81,2.81,0,0,1,264.24,193Z"/><path class="cls-1" d="M264.24,193.33H222.7a3.12,3.12,0,1,1,0-6.24h41.54a3.12,3.12,0,0,1,0,6.24Zm-41.54-5.62a2.5,2.5,0,0,0,0,5h41.54a2.5,2.5,0,1,0,0-5Z"/><path class="cls-1" d="M251.16,204.45H235.79a3.46,3.46,0,0,1-3.47-3.46h0a3.46,3.46,0,0,1,3.47-3.46h15.37a3.46,3.46,0,0,1,3.46,3.46h0A3.46,3.46,0,0,1,251.16,204.45Z"/><path class="cls-1" d="M251.16,204.77H235.79a3.78,3.78,0,1,1,0-7.55h15.37a3.78,3.78,0,1,1,0,7.55Zm-15.37-6.92a3.15,3.15,0,1,0,0,6.29h15.37a3.15,3.15,0,1,0,0-6.29Z"/><path class="cls-2" d="M275.8,180.22h-63a4.56,4.56,0,0,1-4.56-4.55v-.56a4.56,4.56,0,0,1,4.56-4.55h63a4.55,4.55,0,0,1,4.55,4.55v.56A4.55,4.55,0,0,1,275.8,180.22Z"/><path class="cls-1" d="M275.8,180.53h-63a4.87,4.87,0,0,1-4.87-4.86v-.56a4.87,4.87,0,0,1,4.87-4.86h63a4.87,4.87,0,0,1,4.87,4.86v.56A4.87,4.87,0,0,1,275.8,180.53Zm-63-9.66a4.25,4.25,0,0,0-4.24,4.24v.56a4.25,4.25,0,0,0,4.24,4.24h63a4.25,4.25,0,0,0,4.24-4.24v-.56a4.25,4.25,0,0,0-4.24-4.24Z"/><path class="cls-7" d="M270.14,177.13H218a1.85,1.85,0,0,1-1.86-1.85v-.19a1.85,1.85,0,0,1,1.86-1.85h52.13a1.85,1.85,0,0,1,1.85,1.85v.19A1.85,1.85,0,0,1,270.14,177.13ZM218,173.87a1.23,1.23,0,0,0-1.23,1.22v.19A1.23,1.23,0,0,0,218,176.5h52.13a1.22,1.22,0,0,0,1.22-1.22v-.19a1.22,1.22,0,0,0-1.22-1.22Z"/><path class="cls-2" d="M265.06,191.24H223.52a2.8,2.8,0,0,1-2.8-2.81h0a2.8,2.8,0,0,1,2.8-2.8h41.54a2.8,2.8,0,0,1,2.81,2.8h0A2.81,2.81,0,0,1,265.06,191.24Z"/><path class="cls-1" d="M265.06,191.55H223.52a3.12,3.12,0,0,1,0-6.24h41.54a3.12,3.12,0,0,1,0,6.24Zm-41.54-5.61a2.5,2.5,0,0,0,0,5h41.54a2.5,2.5,0,1,0,0-5Z"/><path class="cls-7" d="M231.57,189.69a1.26,1.26,0,1,1,1.26-1.26A1.26,1.26,0,0,1,231.57,189.69Zm0-1.89a.63.63,0,1,0,.63.63A.63.63,0,0,0,231.57,187.8Z"/><path class="cls-7" d="M236.78,189.69a1.26,1.26,0,1,1,1.26-1.26A1.26,1.26,0,0,1,236.78,189.69Zm0-1.89a.63.63,0,0,0,0,1.26.63.63,0,1,0,0-1.26Z"/><path class="cls-7" d="M241.65,189.69a1.26,1.26,0,1,1,1.26-1.26A1.26,1.26,0,0,1,241.65,189.69Zm0-1.89a.63.63,0,0,0,0,1.26.63.63,0,1,0,0-1.26Z"/><path class="cls-7" d="M246.87,189.69a1.26,1.26,0,1,1,0-2.52,1.26,1.26,0,0,1,0,2.52Zm0-1.89a.63.63,0,1,0,.63.63A.63.63,0,0,0,246.87,187.8Z"/><path class="cls-7" d="M251.94,189.69a1.26,1.26,0,1,1,0-2.52,1.26,1.26,0,0,1,0,2.52Zm0-1.89a.63.63,0,1,0,.63.63A.63.63,0,0,0,251.94,187.8Z"/><path class="cls-7" d="M257.15,189.69a1.26,1.26,0,1,1,1.26-1.26A1.26,1.26,0,0,1,257.15,189.69Zm0-1.89a.63.63,0,1,0,.63.63A.63.63,0,0,0,257.15,187.8Z"/><circle class="cls-1" cx="242.11" cy="151.01" r="15.1"/><path class="cls-1" d="M242.11,166.43A15.42,15.42,0,1,1,257.52,151,15.44,15.44,0,0,1,242.11,166.43Zm0-30.21A14.79,14.79,0,1,0,256.89,151,14.81,14.81,0,0,0,242.11,136.22Z"/><circle class="cls-4" cx="244.29" cy="149.1" r="15.1"/><path class="cls-1" d="M244.29,164.51a15.42,15.42,0,1,1,15.42-15.41A15.42,15.42,0,0,1,244.29,164.51Zm0-30.2a14.79,14.79,0,1,0,14.79,14.79A14.8,14.8,0,0,0,244.29,134.31Z"/><path class="cls-7" d="M251,156.72a6.71,6.71,0,0,0-13.42,0S251,156.75,251,156.72Z"/><path class="cls-1" d="M245,157.05H240c-2.69,0-2.69,0-2.69-.33a7,7,0,1,1,14,0c0,.32,0,.32-2.15.33Zm6-.33h0Zm-13.09-.31c1.81,0,11,0,12.78,0a6.4,6.4,0,0,0-12.78,0Z"/><path class="cls-7" d="M240.52,145.27a3.82,3.82,0,1,0,3.82-3.81A3.82,3.82,0,0,0,240.52,145.27Z"/><path class="cls-1" d="M244.34,149.4a4.13,4.13,0,1,1,4.12-4.13A4.14,4.14,0,0,1,244.34,149.4Zm0-7.63a3.5,3.5,0,1,0,3.49,3.5A3.5,3.5,0,0,0,244.34,141.77Z"/><path class="cls-4" d="M252,202.68H236.6a3.46,3.46,0,0,1-3.46-3.46h0a3.46,3.46,0,0,1,3.46-3.46H252a3.46,3.46,0,0,1,3.46,3.46h0A3.46,3.46,0,0,1,252,202.68Z"/><path class="cls-1" d="M252,203H236.6a3.78,3.78,0,0,1,0-7.55H252a3.78,3.78,0,1,1,0,7.55Zm-15.38-6.92a3.15,3.15,0,0,0,0,6.29H252a3.15,3.15,0,1,0,0-6.29Z"/><path class="cls-1" d="M264.24,258.8c-14.28-.54-18.81-8.89-19.45-10.25h-.1c-.64,1.36-5.18,9.71-19.46,10.25,0,0-3,29.4,19.07,34.68h.87C267.27,288.2,264.24,258.8,264.24,258.8Z"/><path class="cls-1" d="M245.17,293.8h-.94c-22.11-5.28-19.34-34.72-19.31-35a.31.31,0,0,1,.3-.28c14-.53,18.43-8.49,19.19-10.08a.31.31,0,0,1,.28-.18h.1a.31.31,0,0,1,.28.18c.75,1.59,5.22,9.55,19.18,10.08a.3.3,0,0,1,.3.28c0,.3,2.81,29.74-19.3,35Zm-.83-.63h.8c20.41-4.91,19-31.11,18.81-34.07-13.06-.59-17.95-7.62-19.21-10-1.27,2.34-6.15,9.37-19.22,10C225.3,262.06,223.93,288.26,244.34,293.17Z"/><path class="cls-2" d="M264.24,255c-14.28-.54-18.81-8.89-19.45-10.25h-.1c-.64,1.36-5.18,9.71-19.46,10.25,0,0-3,29.4,19.07,34.68h.87C267.27,284.35,264.24,255,264.24,255Z"/><path class="cls-1" d="M245.17,290h-.94c-22.11-5.28-19.34-34.72-19.31-35a.31.31,0,0,1,.3-.28c14-.53,18.43-8.49,19.19-10.08a.31.31,0,0,1,.28-.18h.1a.31.31,0,0,1,.28.18c.75,1.59,5.22,9.55,19.18,10.08a.3.3,0,0,1,.3.28c0,.3,2.81,29.74-19.3,35Zm-.83-.63h.8c20.41-4.91,19-31.11,18.81-34.07-13.06-.59-17.95-7.62-19.21-10-1.27,2.34-6.15,9.37-19.22,10C225.3,258.21,223.93,284.41,244.34,289.32Z"/><path class="cls-8" d="M239.69,264.5h1.87V262a3.31,3.31,0,1,1,6.62,0v2.55h1.88V262a5.19,5.19,0,1,0-10.37,0v2.55Z"/><path class="cls-1" d="M250.06,264.81h-1.88a.31.31,0,0,1-.31-.31V262a3,3,0,0,0-6,0v2.55a.31.31,0,0,1-.31.31h-1.87a.31.31,0,0,1-.32-.31V262a5.5,5.5,0,0,1,11,0v2.55A.31.31,0,0,1,250.06,264.81Zm-1.56-.63h1.24V262a4.87,4.87,0,0,0-9.74,0v2.23h1.25V262a3.63,3.63,0,1,1,7.25,0v2.23Z"/><path class="cls-7" d="M237.59,277.41h14.56a.42.42,0,0,0,.42-.42V264.93a.42.42,0,0,0-.42-.42H237.59a.42.42,0,0,0-.42.42V277A.42.42,0,0,0,237.59,277.41Z"/><path class="cls-1" d="M252.15,277.72H237.59a.73.73,0,0,1-.73-.73V264.93a.74.74,0,0,1,.73-.74h14.56a.74.74,0,0,1,.74.74V277A.74.74,0,0,1,252.15,277.72Zm-14.56-12.9a.1.1,0,0,0-.1.11V277a.1.1,0,0,0,.1.11h14.56a.11.11,0,0,0,.11-.11V264.93a.11.11,0,0,0-.11-.11Z"/><path class="cls-1" d="M244.25,271a1.42,1.42,0,1,1,1.3,0l.6,2.14a.44.44,0,0,1-.42.55h-1.65a.44.44,0,0,1-.42-.55Z"/><path class="cls-1" d="M245.73,273.94h-1.65a.73.73,0,0,1-.6-.29.76.76,0,0,1-.12-.65l.52-1.88a1.71,1.71,0,0,1-.74-1.41,1.73,1.73,0,0,1,3.46,0,1.75,1.75,0,0,1-.68,1.37l.53,1.92a.76.76,0,0,1-.12.65A.74.74,0,0,1,245.73,273.94Zm-.86-5.34a1.1,1.1,0,0,0-.48,2.09.32.32,0,0,1,.16.37l-.59,2.11a.14.14,0,0,0,0,.1.12.12,0,0,0,.1,0h1.65a.1.1,0,0,0,.09,0,.08.08,0,0,0,0-.1l-.59-2.15a.32.32,0,0,1,.15-.36,1.09,1.09,0,0,0,.57-1A1.11,1.11,0,0,0,244.87,268.6Z"/><path class="cls-8" d="M105.49,300.88h63.67a1.25,1.25,0,0,0,1.24-1.24V253.85a1.24,1.24,0,0,0-1.24-1.24H105.49a1.24,1.24,0,0,0-1.24,1.24v45.79A1.25,1.25,0,0,0,105.49,300.88Z"/><path class="cls-1" d="M108,257.08H174.1v-6.22a1.92,1.92,0,0,0-1.91-1.91H109.44a1.48,1.48,0,0,0-1.48,1.48Z"/><path class="cls-1" d="M174.41,257.4H107.64v-7a1.8,1.8,0,0,1,1.8-1.79h62.75a2.22,2.22,0,0,1,2.22,2.22v6.54Zm-66.14-.63h65.51v-5.91a1.59,1.59,0,0,0-1.59-1.59H109.44a1.17,1.17,0,0,0-1.17,1.16v6.34Z"/><path class="cls-7" d="M164.29,254.49a1.57,1.57,0,1,1,1.56-1.57A1.57,1.57,0,0,1,164.29,254.49Zm0-2.5a.94.94,0,1,0,.93.93A.94.94,0,0,0,164.29,252Z"/><path class="cls-7" d="M169.16,254.49a1.57,1.57,0,1,1,1.57-1.57A1.56,1.56,0,0,1,169.16,254.49Zm0-2.5a.94.94,0,1,0,.94.93A.93.93,0,0,0,169.16,252Z"/><path class="cls-7" d="M159.44,254.49a1.57,1.57,0,1,1,1.56-1.57A1.56,1.56,0,0,1,159.44,254.49Zm0-2.5a.94.94,0,1,0,.93.93A.94.94,0,0,0,159.44,252Z"/><path class="cls-7" d="M108.15,296.89h65.71a.22.22,0,0,0,.22-.22V257.3a.21.21,0,0,0-.22-.21H108.15a.21.21,0,0,0-.22.21v39.37A.22.22,0,0,0,108.15,296.89Z"/><path class="cls-1" d="M173.86,297.2H108.15a.53.53,0,0,1-.53-.53V257.3a.53.53,0,0,1,.53-.53h65.71a.53.53,0,0,1,.53.53v39.37A.53.53,0,0,1,173.86,297.2Zm-65.61-.63h65.52V257.4H108.25Z"/><path class="cls-7" d="M167.76,287.69h-14.4a.1.1,0,0,1-.11-.1V265.23a.11.11,0,0,1,.11-.11h14.4a.11.11,0,0,1,.11.11v22.36A.1.1,0,0,1,167.76,287.69Z"/><path class="cls-8" d="M167.76,288h-14.4a.42.42,0,0,1-.43-.42V265.23a.42.42,0,0,1,.43-.42h14.4a.42.42,0,0,1,.42.42v22.36A.42.42,0,0,1,167.76,288Zm-14.2-.63h14V265.44h-14Z"/><line class="cls-9" x1="153.61" y1="265.55" x2="167.72" y2="287.41"/><path class="cls-8" d="M167.72,287.72a.31.31,0,0,1-.26-.14l-14.12-21.86a.31.31,0,0,1,.53-.34L168,287.24a.31.31,0,0,1-.1.43A.26.26,0,0,1,167.72,287.72Z"/><line class="cls-9" x1="167.44" y1="265.48" x2="153.36" y2="287.69"/><path class="cls-8" d="M153.35,288a.33.33,0,0,1-.16-.05.31.31,0,0,1-.1-.43l14.08-22.22a.31.31,0,0,1,.53.34l-14.08,22.21A.31.31,0,0,1,153.35,288Z"/><path class="cls-2" d="M147.15,267.05H116.7a.32.32,0,1,1,0-.63h30.45a.32.32,0,0,1,0,.63Z"/><path class="cls-4" d="M127.39,271.67H116.7a.32.32,0,1,1,0-.63h10.69a.32.32,0,1,1,0,.63Z"/><path class="cls-2" d="M144.78,271.67h-13a.32.32,0,0,1,0-.63h13a.32.32,0,0,1,.32.31A.32.32,0,0,1,144.78,271.67Z"/><path class="cls-4" d="M136.21,285.69H116.7a.32.32,0,1,1,0-.63h19.51a.32.32,0,1,1,0,.63Z"/><path class="cls-4" d="M147.41,276.52H116.7a.31.31,0,1,1,0-.62h30.71a.31.31,0,1,1,0,.62Z"/><path class="cls-2" d="M126.43,281.14H116.7a.32.32,0,0,1,0-.63h9.73a.32.32,0,1,1,0,.63Z"/><path class="cls-4" d="M147.15,281.14H129.42a.32.32,0,0,1,0-.63h17.73a.32.32,0,0,1,0,.63Z"/><path class="cls-7" d="M132.57,275.7a9.39,9.39,0,0,0-.13-1.9h0A9.39,9.39,0,0,1,132.57,275.7Z"/><path class="cls-1" d="M66.55,268.24h48.57a.94.94,0,0,0,.93-.94V233.23a.93.93,0,0,0-.93-.93H66.55a.92.92,0,0,0-.93.93V267.3A.93.93,0,0,0,66.55,268.24Z"/><path class="cls-1" d="M115.12,268.55H66.55a1.25,1.25,0,0,1-1.25-1.25V233.23A1.25,1.25,0,0,1,66.55,232h48.57a1.25,1.25,0,0,1,1.25,1.25V267.3A1.25,1.25,0,0,1,115.12,268.55ZM66.55,232.61a.62.62,0,0,0-.62.62V267.3a.62.62,0,0,0,.62.62h48.57a.62.62,0,0,0,.62-.62V233.23a.62.62,0,0,0-.62-.62Z"/><path class="cls-4" d="M68.44,235.63h50.43V231a1.44,1.44,0,0,0-1.44-1.44H69.56a1.12,1.12,0,0,0-1.12,1.12v4.94Z"/><path class="cls-1" d="M119.19,235.94H68.13v-5.25a1.43,1.43,0,0,1,1.43-1.43h47.87a1.76,1.76,0,0,1,1.76,1.75Zm-50.43-.63h49.8V231a1.13,1.13,0,0,0-1.13-1.12H69.56a.8.8,0,0,0-.8.8Z"/><path class="cls-7" d="M75.07,233.78a1.25,1.25,0,1,1,1.24-1.25A1.25,1.25,0,0,1,75.07,233.78Zm0-1.87a.62.62,0,1,0,0,1.24.62.62,0,0,0,0-1.24Z"/><path class="cls-7" d="M78.7,233.78a1.25,1.25,0,1,1,1.24-1.25A1.24,1.24,0,0,1,78.7,233.78Zm0-1.87a.62.62,0,1,0,.62.62A.62.62,0,0,0,78.7,231.91Z"/><path class="cls-7" d="M71.46,233.78a1.25,1.25,0,1,1,1.24-1.25A1.24,1.24,0,0,1,71.46,233.78Zm0-1.87a.62.62,0,1,0,.62.62A.62.62,0,0,0,71.46,231.91Z"/><path class="cls-7" d="M68.58,265.27h50.11a.18.18,0,0,0,.17-.17V235.79a.17.17,0,0,0-.17-.16H68.58a.16.16,0,0,0-.16.16V265.1A.17.17,0,0,0,68.58,265.27Z"/><path class="cls-1" d="M118.69,265.58H68.58a.47.47,0,0,1-.47-.48V235.79a.47.47,0,0,1,.47-.47h50.11a.47.47,0,0,1,.48.47V265.1A.47.47,0,0,1,118.69,265.58Zm-50-.63h49.81v-29H68.73Z"/><path class="cls-2" d="M112.3,243.13H91.52a.32.32,0,0,1,0-.63H112.3a.32.32,0,0,1,0,.63Z"/><path class="cls-4" d="M98.82,246.57h-7.3a.32.32,0,0,1,0-.63h7.3a.32.32,0,0,1,0,.63Z"/><path class="cls-2" d="M110.69,246.57h-8.87a.32.32,0,0,1,0-.63h8.87a.32.32,0,0,1,0,.63Z"/><path class="cls-4" d="M104.84,257H91.52a.32.32,0,0,1,0-.63h13.32a.32.32,0,0,1,0,.63Z"/><path class="cls-4" d="M112.48,250.18h-21a.31.31,0,1,1,0-.62h21a.31.31,0,1,1,0,.62Z"/><path class="cls-2" d="M98.16,253.62H91.52a.31.31,0,0,1-.31-.31.32.32,0,0,1,.31-.32h6.64a.32.32,0,0,1,.32.32A.31.31,0,0,1,98.16,253.62Z"/><path class="cls-4" d="M112.3,253.62H100.21a.31.31,0,0,1-.32-.31.32.32,0,0,1,.32-.32H112.3a.32.32,0,0,1,.31.32A.31.31,0,0,1,112.3,253.62Z"/><path class="cls-1" d="M79.86,248.67V241a7.65,7.65,0,1,0,7.65,7.64Z"/><path class="cls-1" d="M79.86,256.64a8,8,0,0,1,0-15.93.32.32,0,0,1,.32.32v7.33h7.33a.31.31,0,0,1,.32.31A8,8,0,0,1,79.86,256.64Zm-.31-15.29A7.33,7.33,0,1,0,87.19,249H79.86a.31.31,0,0,1-.31-.32Z"/><path class="cls-2" d="M79.2,248.77v-7.64a7.65,7.65,0,1,0,7.65,7.64Z"/><path class="cls-1" d="M79.2,256.73a8,8,0,0,1,0-15.92h.32v7.65h7.64v.31A8,8,0,0,1,79.2,256.73Zm-.31-15.28a7.33,7.33,0,1,0,7.64,7.64H78.89Z"/><circle class="cls-1" cx="117.89" cy="230.85" r="11.36" transform="translate(-135.59 176.64) rotate(-50.88)"/><path class="cls-1" d="M117.88,242.53a11.68,11.68,0,1,1,11.68-11.67A11.69,11.69,0,0,1,117.88,242.53Zm0-22.72a11,11,0,1,0,11.05,11.05A11.06,11.06,0,0,0,117.88,219.81Z"/><circle class="cls-1" cx="119.17" cy="229.65" r="11.36"/><path class="cls-1" d="M119.17,241.33a11.68,11.68,0,1,1,11.68-11.67A11.69,11.69,0,0,1,119.17,241.33Zm0-22.72a11,11,0,1,0,11,11A11,11,0,0,0,119.17,218.61Z"/><path class="cls-1" d="M119.1,241.33c-2.4,0-3.7-6-3.7-11.67S116.7,218,119.1,218s3.7,6,3.7,11.68S121.5,241.33,119.1,241.33Zm0-22.72c-1.45,0-3.07,4.54-3.07,11s1.62,11,3.07,11,3.07-4.54,3.07-11S120.55,218.61,119.1,218.61Z"/><rect class="cls-1" x="108.34" y="225.7" width="21.49" height="0.63"/><rect class="cls-1" x="108.34" y="233.38" width="21.49" height="0.63"/></g></g></svg>