<svg xmlns="http://www.w3.org/2000/svg" viewBox="0 0 592 500"><defs><style>.cls-1,.cls-4{fill:#fff;}.cls-2{fill:#d7e4f9;}.cls-3{fill:#25292b;}.cls-10,.cls-4,.cls-6,.cls-8,.cls-9{stroke:#779ce8;stroke-width:0.75px;}.cls-4{stroke-miterlimit:10;}.cls-5{fill:#1760fc;}.cls-6,.cls-7{fill:#779ce8;}.cls-10,.cls-6,.cls-8,.cls-9{stroke-linejoin:round;}.cls-8{fill:#f97d8c;}.cls-9{fill:#b06bf2;}.cls-10,.cls-9{stroke-linecap:round;}.cls-10{fill:#55c2f9;}</style></defs><g id="Layer_1" data-name="Layer 1"><rect class="cls-1" x="14.1" y="-20.45" width="672.51" height="557.68"/></g><g id="Layer_3" data-name="Layer 3"><g id="OBJECTS"><path class="cls-2" d="M439.28,405.85c-55.71,47.91-153,57.65-211.94,10.91-28.54-27.14-27.89-68.57-30.72-105.09-5.52-25.74-11.84-51.14-30.51-70.7-43.29-36.28-73.44-72.25-41.25-129.13,66.86-92.28,231.35-84.67,306.93-6.48C497.36,184.54,515.83,328.22,439.28,405.85Z"/><path class="cls-3" d="M223,171.44h0a.42.42,0,0,1-.37-.22l-4-6.94a.42.42,0,0,1,0-.43l4-6.95a.44.44,0,0,1,.37-.21h0a.44.44,0,0,1,.37.21l4,6.95a.42.42,0,0,1,0,.43l-4,6.94A.42.42,0,0,1,223,171.44Zm-3.52-7.38,3.52,6.1,3.53-6.1L223,158Z"/><path class="cls-3" d="M211.8,163.11a2.43,2.43,0,1,1,2.42-2.42A2.43,2.43,0,0,1,211.8,163.11Zm0-4a1.57,1.57,0,1,0,1.57,1.57A1.57,1.57,0,0,0,211.8,159.12Z"/><path class="cls-3" d="M219,154.2a2.12,2.12,0,1,1,2.11-2.12A2.12,2.12,0,0,1,219,154.2Zm0-3.39a1.27,1.27,0,1,0,1.26,1.27A1.27,1.27,0,0,0,219,150.81Z"/><path class="cls-3" d="M209.8,155.17a1.57,1.57,0,1,1,1.57-1.57A1.57,1.57,0,0,1,209.8,155.17Zm0-2.28a.72.72,0,1,0,.72.71A.72.72,0,0,0,209.8,152.89Z"/><path class="cls-3" d="M378.26,140.93h0a.44.44,0,0,1-.37-.21l-3.07-5.32a.47.47,0,0,1,0-.43l3.07-5.31a.42.42,0,0,1,.37-.22h0a.42.42,0,0,1,.37.22l3.08,5.31a.47.47,0,0,1,0,.43l-3.08,5.32A.44.44,0,0,1,378.26,140.93Zm-2.58-5.74,2.58,4.46,2.59-4.46-2.59-4.47Z"/><path class="cls-3" d="M371,133a2.43,2.43,0,1,1,2.43-2.43A2.43,2.43,0,0,1,371,133Zm0-4a1.58,1.58,0,1,0,1.58,1.57A1.58,1.58,0,0,0,371,129Z"/><path class="cls-3" d="M378.14,127a2.12,2.12,0,1,1,2.12-2.12A2.12,2.12,0,0,1,378.14,127Zm0-3.38a1.27,1.27,0,0,0,0,2.53,1.27,1.27,0,1,0,0-2.53Z"/><path class="cls-3" d="M371,124.71a1.57,1.57,0,1,1,1.57-1.57A1.56,1.56,0,0,1,371,124.71Zm0-2.29a.72.72,0,1,0,.72.72A.72.72,0,0,0,371,122.42Z"/><path class="cls-3" d="M442.38,335.52h0a.44.44,0,0,1-.37-.21l-4-6.95a.4.4,0,0,1,0-.42l4-6.95a.44.44,0,0,1,.37-.21h0a.44.44,0,0,1,.37.21l4,6.95a.4.4,0,0,1,0,.42l-4,6.95A.44.44,0,0,1,442.38,335.52Zm-3.52-7.37,3.52,6.1,3.53-6.1-3.53-6.1Z"/><path class="cls-3" d="M452.22,339.46a2.43,2.43,0,1,1,2.43-2.43A2.43,2.43,0,0,1,452.22,339.46Zm0-4A1.58,1.58,0,1,0,453.8,337,1.57,1.57,0,0,0,452.22,335.46Z"/><path class="cls-3" d="M438.58,318.28a2.12,2.12,0,1,1,2.12-2.11A2.12,2.12,0,0,1,438.58,318.28Zm0-3.38a1.27,1.27,0,1,0,1.27,1.27A1.27,1.27,0,0,0,438.58,314.9Z"/><path class="cls-3" d="M450.66,326.27a1.57,1.57,0,1,1,1.56-1.57A1.57,1.57,0,0,1,450.66,326.27Zm0-2.29a.72.72,0,1,0,.71.72A.72.72,0,0,0,450.66,324Z"/><path class="cls-3" d="M451.14,318.28h0a.44.44,0,0,1-.37-.21l-2.52-4.36a.42.42,0,0,1,0-.43l2.52-4.36a.44.44,0,0,1,.37-.21h0a.44.44,0,0,1,.37.21l2.52,4.36a.42.42,0,0,1,0,.43l-2.52,4.36A.44.44,0,0,1,451.14,318.28Zm-2-4.79,2,3.52,2-3.52-2-3.51Z"/><path class="cls-3" d="M429.32,334.62a1.57,1.57,0,1,1,1.56-1.56A1.56,1.56,0,0,1,429.32,334.62Zm0-2.28a.72.72,0,1,0,.71.72A.72.72,0,0,0,429.32,332.34Z"/><path class="cls-4" d="M207.94,252.33s6.56,154.92,6,180.4H180.2l-17.26-179.1Z"/><polygon class="cls-4" points="130.07 254.15 125.54 337.08 101.42 432.73 137.56 432.73 173.93 336.69 189.39 253.2 130.07 254.15"/><path class="cls-1" d="M172.07,342.07l-1-.19c5.51-27.12,10.14-54.81,13.75-82.3l0-.39,11.5-1,.08,1-10.71.92C182.17,287.48,177.56,315.06,172.07,342.07Z"/><path class="cls-5" d="M104.19,432.82h28.72l7.59,6.7S163,438.89,163,455.33H104.19Z"/><path class="cls-3" d="M106.17,453.43h.11l55.29-.21a.38.38,0,0,0,.39-.39.39.39,0,0,0-.39-.39h0l-55.4.21a.38.38,0,0,0-.39.39A.39.39,0,0,0,106.17,453.43Z"/><path class="cls-3" d="M121.68,442.09c-2-.21-3.24-1-3.46-2.23-.28-1.59,1.29-2.73,2.72-3.22A14.28,14.28,0,0,1,134.27,439a22.43,22.43,0,0,1,5.32-9,5.8,5.8,0,0,1,2.93-1.86,2.62,2.62,0,0,1,3.08,1.71c.29,1.25-.6,2.36-1.41,3.19a62.64,62.64,0,0,1-8.89,7.51.38.38,0,0,1-.37,0l-.14.08a31.34,31.34,0,0,1-9.85,1.58A32.05,32.05,0,0,1,121.68,442.09Zm12.41-2.24a13.49,13.49,0,0,0-12.9-2.47c-.91.31-2.41,1.16-2.2,2.34s2,1.51,2.77,1.59A30.7,30.7,0,0,0,134.21,440,.35.35,0,0,1,134.09,439.85Zm8.58-10.93a5.09,5.09,0,0,0-2.52,1.64,21.49,21.49,0,0,0-5.23,9l.2.18a61.94,61.94,0,0,0,8.51-7.23c.67-.69,1.41-1.58,1.2-2.46a1.76,1.76,0,0,0-1.78-1.16A2.33,2.33,0,0,0,142.67,428.92Z"/><path class="cls-5" d="M182.82,432.59h28.73l7.58,6.7s22.48-.64,22.48,15.8H182.82Z"/><path class="cls-3" d="M184.81,453.19h.1l55.29-.2a.4.4,0,0,0,0-.79h0l-55.4.21a.39.39,0,1,0,0,.78Z"/><path class="cls-3" d="M200.31,441.85c-2-.21-3.24-1-3.46-2.23-.28-1.59,1.29-2.73,2.72-3.22a14.27,14.27,0,0,1,13.34,2.36,22.14,22.14,0,0,1,5.32-9,5.71,5.71,0,0,1,2.93-1.86,2.62,2.62,0,0,1,3.07,1.7c.3,1.25-.6,2.36-1.41,3.19a63.12,63.12,0,0,1-8.88,7.51.4.4,0,0,1-.38,0,.29.29,0,0,1-.14.08,31.35,31.35,0,0,1-9.85,1.59A29.54,29.54,0,0,1,200.31,441.85Zm12.41-2.23a13.45,13.45,0,0,0-12.89-2.48c-.92.32-2.41,1.16-2.2,2.34s2,1.51,2.76,1.6a30.73,30.73,0,0,0,12.46-1.27A.41.41,0,0,1,212.72,439.62Zm8.58-10.94a5.16,5.16,0,0,0-2.51,1.64,21.45,21.45,0,0,0-5.23,9l.2.18a61.06,61.06,0,0,0,8.5-7.23c.67-.68,1.42-1.58,1.21-2.46a1.76,1.76,0,0,0-1.78-1.15A2.38,2.38,0,0,0,221.3,428.68Z"/><path class="cls-5" d="M203.33,215.92l4.61,36.41-4.53,18.56-14-17.69-20.12,17.69-39.2-16.74.47-15.24a18.08,18.08,0,0,1-21.68-18.42l4.81-56.17c.31-7.84,6.07-19.55,13.62-21.66L153.13,135l22.52,4.12,15.3,4.7a18.07,18.07,0,0,1,12.6,14.88L208,192.18l21.08,5.45.78,18.29Z"/><path class="cls-3" d="M137.56,209.85h-.05a.46.46,0,0,1-.41-.51l3.83-37.29a.48.48,0,0,1,.51-.42.47.47,0,0,1,.42.52L138,209.43A.47.47,0,0,1,137.56,209.85Z"/><path class="cls-3" d="M132,239a.47.47,0,0,1-.14-.92l46.21-14.67-5.37-19.19-47.06,8.29a.48.48,0,0,1-.55-.38.48.48,0,0,1,.38-.55L173,203.17a.47.47,0,0,1,.53.34l5.61,20a.47.47,0,0,1-.31.58l-46.65,14.8A.35.35,0,0,1,132,239Z"/><path class="cls-3" d="M196.8,196.09a.47.47,0,0,1-.47-.41l-3.48-29.45a.46.46,0,0,1,.41-.52.48.48,0,0,1,.52.41l3.48,29.45a.47.47,0,0,1-.41.52Z"/><path class="cls-3" d="M174.15,157.24a.46.46,0,0,1-.29-.1l-8.37-6.4c-.81,0-4.71.35-5.51,5.15a.47.47,0,0,1-.32.37.47.47,0,0,1-.48-.11c-.08-.09-8.72-8.77-8-19.88a.48.48,0,0,1,.5-.44.46.46,0,0,1,.43.5c-.6,9,5.19,16.33,7.11,18.5a6.59,6.59,0,0,1,6.42-5,.45.45,0,0,1,.27.1l8.49,6.5a.47.47,0,0,1,.09.66A.46.46,0,0,1,174.15,157.24Z"/><path class="cls-3" d="M176.41,157.24h-.06a.47.47,0,0,1-.4-.54l1-6.79a.44.44,0,0,1,.18-.31.49.49,0,0,1,.35-.09,8,8,0,0,1,3.24,1.28c-.11-2.55-.76-8-4.22-10.35a.48.48,0,0,1-.13-.65.46.46,0,0,1,.65-.13c5,3.33,4.67,12.14,4.65,12.51a.46.46,0,0,1-.39.45.49.49,0,0,1-.52-.31c-.35-1-2-1.55-2.95-1.78l-.93,6.31A.48.48,0,0,1,176.41,157.24Z"/><path class="cls-1" d="M223.77,199.43l-13.41,1.65,3.72,2.9a3.14,3.14,0,0,1-1.92,5.61h-.3a3.11,3.11,0,0,1-3,4.18,3.3,3.3,0,0,1-1-.16,3.15,3.15,0,0,1-.45,3.05,3.2,3.2,0,0,1-2.49,1.2,3.13,3.13,0,0,1-1.91-.65l-2.82-2.2-.38.56c-6.53,8.14-14.7,4.85-14.7,4.85l-6.4,1.85-4.84-16.82,13-2.81,10.93-7.21a8.12,8.12,0,0,1,4.47-1.35h21.47v5.36Z"/><path class="cls-3" d="M207.92,214.07a.48.48,0,0,1-.3-.11l-5.5-4.5a.47.47,0,0,1-.07-.66.46.46,0,0,1,.66-.06l5.5,4.49a.49.49,0,0,1,.07.67A.48.48,0,0,1,207.92,214.07Z"/><path class="cls-3" d="M211.86,210.05a.5.5,0,0,1-.3-.11L206,205.28a.47.47,0,1,1,.6-.72l5.6,4.66a.48.48,0,0,1,.06.66A.5.5,0,0,1,211.86,210.05Z"/><path class="cls-3" d="M266.36,173.3l-27.8,49.17a4.07,4.07,0,0,1-3.55,2.07H208.83a4.08,4.08,0,0,1-3.55-6.08l27.8-49.16a4.08,4.08,0,0,1,3.55-2.07h26.18A4.07,4.07,0,0,1,266.36,173.3Z"/><path class="cls-1" d="M254.49,200.3a3,3,0,0,1-2.15,1.57,3.4,3.4,0,0,1,.85,1.39,3.5,3.5,0,0,1-3.69,4.55,3.42,3.42,0,0,1,.77,1.31,3.48,3.48,0,0,1-3.18,4.56,3.75,3.75,0,0,1,.39.74,3.24,3.24,0,0,1-.06,2.74,3.83,3.83,0,0,1-5.21,1.27l-4.41-2.11a4.32,4.32,0,0,1-2.08-2.23,3.24,3.24,0,0,1,.07-2.74,3.36,3.36,0,0,1,2.85-1.75,3.66,3.66,0,0,1-.49-1,3.47,3.47,0,0,1,.2-2.67,3.52,3.52,0,0,1,3.48-1.88,3.36,3.36,0,0,1-.77-1.31,3.42,3.42,0,0,1,.21-2.67,3.51,3.51,0,0,1,3.57-1.88,2.3,2.3,0,0,1-.18-.43,2.91,2.91,0,0,1,.18-2.27,3,3,0,0,1,4-1.29l4.35,2.08a3,3,0,0,1,1.3,4Z"/><path class="cls-3" d="M247.09,214.15a.52.52,0,0,1-.21,0L238.44,210a.46.46,0,0,1-.22-.62.47.47,0,0,1,.63-.22l8.44,4.08a.47.47,0,0,1,.22.63A.46.46,0,0,1,247.09,214.15Z"/><path class="cls-3" d="M249.5,208.28a.46.46,0,0,1-.2-.05l-7.68-3.75a.47.47,0,0,1-.21-.63.48.48,0,0,1,.63-.22l7.67,3.76a.48.48,0,0,1,.22.63A.49.49,0,0,1,249.5,208.28Z"/><path class="cls-3" d="M252.34,202.34a.46.46,0,0,1-.2-.05l-7.51-3.67a.47.47,0,1,1,.42-.84l7.5,3.67a.47.47,0,0,1-.21.89Z"/><path class="cls-1" d="M149.58,113.54c1,4.15,3.58,6.76,7.43,6.28l-4.32,15.86,21.61,18.74,2.1-19.77a15.18,15.18,0,0,0,5.91-3.35c3.19-2.74,8.56-9.52,9-15.92l.83-12.61c-5.25,0-12-1.49-17.24-2.83-4.58-1.19-7.92-2.29-7.92-2.29a7.1,7.1,0,0,1-.53,1.79c-1.41,3.27-5.06,6.54-5.06,6.54V106s0,0,0,0a.23.23,0,0,1-.07-.07,7.93,7.93,0,0,0-4.6-2.53,7.22,7.22,0,0,0-2.81.12C149.75,104.57,148.48,109.09,149.58,113.54Z"/><ellipse class="cls-3" cx="188.18" cy="113.16" rx="2.31" ry="2.08" transform="translate(62.83 293.45) rotate(-86.21)"/><ellipse class="cls-3" cx="174.89" cy="110.33" rx="2.31" ry="2.09" transform="matrix(0.32, -0.95, 0.95, 0.32, 14.91, 241.34)"/><path class="cls-3" d="M186.81,107.66a5,5,0,0,1,4.59,1.17.66.66,0,0,1,.08.9.65.65,0,0,1-.9.08,2.92,2.92,0,0,0-.38-.32l-.19-.14,0,0-.11-.06-.44-.22-.23-.08,0,0-.13,0a4.15,4.15,0,0,0-.48-.11l-.25,0h-.14a4,4,0,0,0-.49,0l-.25,0-.12,0h0a.64.64,0,1,1-.45-1.2Z"/><path class="cls-3" d="M178.5,106.74a.64.64,0,0,1-.9,0l0,0h0l-.1-.06-.22-.13a4.68,4.68,0,0,0-.45-.2h0l-.12,0-.24-.06a4,4,0,0,0-.48-.09l-.14,0h-.28a4.19,4.19,0,0,0-.5,0l-.12,0h0l-.23.06a3.68,3.68,0,0,0-.47.15.64.64,0,0,1-.39-1.22,5,5,0,0,1,4.69.66A.63.63,0,0,1,178.5,106.74Z"/><path class="cls-3" d="M173.71,125.06a4,4,0,0,1-2.3-2.29,4.82,4.82,0,0,1,.23-3.42.41.41,0,0,1,.52-.2l7.25,3.14a.45.45,0,0,1,.22.23.44.44,0,0,1,0,.32s-1.33,2.67-4,2.67A4.71,4.71,0,0,1,173.71,125.06Zm-1.48-5a3.78,3.78,0,0,0-.06,2.44,3.25,3.25,0,0,0,1.87,1.82,3.52,3.52,0,0,0,4.63-1.47Z"/><path class="cls-3" d="M156.11,117.89a.48.48,0,0,1-.26-.07,4.19,4.19,0,0,1,1.41-7.7,3.38,3.38,0,0,0-.2-2.52,2.35,2.35,0,0,0-2.22-1.28,1.76,1.76,0,0,0-1.55,1.71.51.51,0,0,1-.47.52.49.49,0,0,1-.53-.47,2.73,2.73,0,0,1,2.45-2.75,3.37,3.37,0,0,1,3.2,1.8,4.46,4.46,0,0,1,.17,3.61.52.52,0,0,1-.42.32,3.2,3.2,0,0,0-1.32,5.91.5.5,0,0,1-.26.92Z"/><path class="cls-3" d="M174.08,135.19a4.18,4.18,0,0,1-1.09-.13c-2.33-.65-5.5-4.39-5.63-4.55a.49.49,0,0,1,.06-.7.5.5,0,0,1,.7.06s3.1,3.67,5.14,4.23c1.66.47,5.12-.84,6.32-1.38a.5.5,0,1,1,.41.91A18,18,0,0,1,174.08,135.19Z"/><path class="cls-5" d="M174.29,116.49a8.13,8.13,0,1,1,3.06-15.66,8.12,8.12,0,0,1,4.48,10.58h0A8.14,8.14,0,0,1,174.29,116.49Zm0-15.27a7.14,7.14,0,0,0-6.57,9.92,7,7,0,0,0,3.89,3.83,7.13,7.13,0,1,0,2.68-13.75Z"/><path class="cls-5" d="M192.11,121.57A8.12,8.12,0,0,1,189,106a8.13,8.13,0,0,1,10.7,10.54h0A8.13,8.13,0,0,1,192.11,121.57Zm0-15.26a7.16,7.16,0,1,0,2.68.53A6.92,6.92,0,0,0,192.12,106.31Z"/><rect class="cls-5" x="162.36" y="98.68" width="0.99" height="9.72" transform="translate(-8.56 192.18) rotate(-59.79)"/><rect class="cls-5" x="182.47" y="110.18" width="0.99" height="3.45" transform="translate(8.04 236) rotate(-66.8)"/><path class="cls-6" d="M153.87,103.54a7.42,7.42,0,0,1,2.81-.12,8,8,0,0,1,4.6,2.53l.09,0s3.65-3.27,5.06-6.54a7,7,0,0,0,.53-1.79s3.34,1.1,7.92,2.29c5.2,1.34,12,2.79,17.24,2.83,3.34,0,6.07-.52,7.38-2,5.93-6.78,1.61-13.77-4.94-13.12-6.27.64-10.51.53-17.36-3.8s-14-3.6-16.16,1.94C161,85.78,149.73,86.13,153.87,103.54Z"/><path class="cls-3" d="M185,122a.4.4,0,0,1-.15,0l-6.2-2a.5.5,0,1,1,.31-1l5.49,1.81-.81-10.34a.5.5,0,0,1,.46-.54.51.51,0,0,1,.54.46l.86,11.09a.5.5,0,0,1-.19.43A.51.51,0,0,1,185,122Z"/><path class="cls-3" d="M359.43,300.84H245.78a4.62,4.62,0,0,1-4.63-4.62V227.43a4.63,4.63,0,0,1,4.63-4.63H359.44a4.63,4.63,0,0,1,4.62,4.63v68.79A4.62,4.62,0,0,1,359.43,300.84ZM245.78,223.5a3.94,3.94,0,0,0-3.94,3.93v68.79a3.93,3.93,0,0,0,3.94,3.93H359.44a3.93,3.93,0,0,0,3.93-3.93V227.43a3.93,3.93,0,0,0-3.93-3.93Z"/><path class="cls-3" d="M363.72,232H241.49v-4.6a4.29,4.29,0,0,1,4.29-4.28H359.43a4.29,4.29,0,0,1,4.29,4.28Z"/><rect class="cls-1" x="249.25" y="234.9" width="17.91" height="17.91"/><rect class="cls-1" x="249.25" y="256.52" width="17.91" height="17.91"/><rect class="cls-1" x="249.25" y="277.51" width="17.91" height="17.91"/><polygon class="cls-5" points="256.47 249.74 250.07 243.34 253.33 240.08 256.47 243.22 263.08 236.61 266.34 239.87 256.47 249.74"/><polygon class="cls-5" points="256.47 272.04 250.07 265.63 253.33 262.38 256.47 265.52 263.08 258.91 266.33 262.17 256.47 272.04"/><polygon class="cls-5" points="256.47 292.45 250.07 286.05 253.33 282.79 256.47 285.93 263.08 279.32 266.34 282.58 256.47 292.45"/><rect class="cls-1" x="270.15" y="236.03" width="85.92" height="3.54"/><rect class="cls-1" x="270.15" y="242.74" width="85.92" height="3.54"/><rect class="cls-1" x="270.15" y="249.33" width="38.66" height="3.54"/><rect class="cls-1" x="270.15" y="257.05" width="85.92" height="3.54"/><rect class="cls-1" x="270.15" y="263.77" width="85.92" height="3.54"/><rect class="cls-1" x="270.15" y="270.35" width="38.66" height="3.54"/><rect class="cls-1" x="270.15" y="278.44" width="85.92" height="3.54"/><rect class="cls-1" x="270.15" y="285.16" width="85.92" height="3.54"/><rect class="cls-1" x="270.15" y="291.74" width="38.66" height="3.54"/><path class="cls-1" d="M464.07,260l-6.16,18.43c-8.43,25.2-36.29,32-55.38,13.52l-14-13.52c-23.3-22.55-16.28-64.23,12-71.13l20.12-4.91C448.92,195.51,474.35,229.27,464.07,260Z"/><ellipse class="cls-3" cx="412.39" cy="213.82" rx="27.35" ry="10.73" transform="translate(-38.95 103.92) rotate(-13.72)"/><path class="cls-1" d="M451.83,186.27c0,20.46-20.07,27.21-44.84,27.21s-44.84-6.75-44.84-27.21,20.07-39.66,44.84-39.66S451.83,165.81,451.83,186.27Z"/><path class="cls-7" d="M387.81,198.36s-19.92-.24-25.63-11c0-.37,0-.74,0-1.12,0-10.18,5-20.06,13-27.41h50.15S443,198.36,387.81,198.36Z"/><ellipse class="cls-1" cx="375.17" cy="173.34" rx="6.64" ry="7.55"/><ellipse class="cls-1" cx="398.43" cy="173.34" rx="6.64" ry="7.55"/><path class="cls-3" d="M384.51,188.62c-6.19,0-6.29-5.57-6.29-5.63a.32.32,0,0,1,.31-.31h0a.3.3,0,0,1,.3.31c0,.2.11,5,5.68,5s5.66-4.82,5.67-5a.3.3,0,0,1,.3-.31h0a.32.32,0,0,1,.31.31C390.79,183.05,390.69,188.62,384.51,188.62Z"/><path class="cls-3" d="M436.38,207.16a.28.28,0,0,1-.15,0,.31.31,0,0,1-.12-.41,45.72,45.72,0,0,0-5.68-51.59.3.3,0,0,1,0-.43.31.31,0,0,1,.43,0A46.32,46.32,0,0,1,436.65,207,.32.32,0,0,1,436.38,207.16Z"/><path class="cls-3" d="M408.56,151.38a.34.34,0,0,1-.17,0,.29.29,0,0,1-.08-.42,28.66,28.66,0,0,0,3.38-24.1.3.3,0,0,1,.2-.38.3.3,0,0,1,.38.2,29.23,29.23,0,0,1-3.45,24.61A.31.31,0,0,1,408.56,151.38Z"/><circle class="cls-7" cx="411.95" cy="124.83" r="8.53"/><ellipse class="cls-7" cx="444.61" cy="238.83" rx="12.99" ry="16.46"/><path class="cls-3" d="M400.33,264A72.11,72.11,0,0,1,368,256.39a7.84,7.84,0,1,1,7-14,55.92,55.92,0,0,0,65.18-10.94,7.85,7.85,0,0,1,11.24,10.95A72.19,72.19,0,0,1,412.06,263,71,71,0,0,1,400.33,264Z"/><path class="cls-7" d="M287.31,206.41a18.06,18.06,0,0,1,5.64,0,18.43,18.43,0,0,1,15.52,21l-.12.82a4.13,4.13,0,0,1-8.16-1.22l.12-.82a10.2,10.2,0,1,0-20.17-3l-.12.82a4.13,4.13,0,0,1-8.16-1.22l.12-.82A18.49,18.49,0,0,1,287.31,206.41Z"/><path class="cls-7" d="M371.37,241.65a17.1,17.1,0,0,1-22.83,15.48l-.72-.26a3.82,3.82,0,1,1,2.57-7.19l.72.25a9.44,9.44,0,0,0,6.36-17.78l-.73-.26a3.82,3.82,0,0,1,2.58-7.2l.72.26A17.11,17.11,0,0,1,371.37,241.65Z"/><rect class="cls-7" x="248.59" y="327.15" width="54.09" height="54.09"/><path class="cls-5" d="M421.84,319.94H241.49v-8.82a4.28,4.28,0,0,1,4.29-4.28H417.56a4.28,4.28,0,0,1,4.28,4.28v8.82Z"/><path class="cls-3" d="M417.56,421.48H245.78a4.8,4.8,0,0,1-4.8-4.79V311.12a4.8,4.8,0,0,1,4.8-4.79H417.56a4.8,4.8,0,0,1,4.79,4.79V416.69A4.8,4.8,0,0,1,417.56,421.48ZM245.78,307.35a3.77,3.77,0,0,0-3.77,3.77V416.69a3.78,3.78,0,0,0,3.77,3.77H417.56a3.78,3.78,0,0,0,3.77-3.77V311.12a3.77,3.77,0,0,0-3.77-3.77Z"/><path class="cls-1" d="M415.26,313.34a2.13,2.13,0,0,1-.62,1.5,2.11,2.11,0,0,1-1.5.62H402.81a2.13,2.13,0,0,1-2.12-2.12,2.12,2.12,0,0,1,2.12-2.13h10.33A2.12,2.12,0,0,1,415.26,313.34Z"/><path class="cls-3" d="M398.09,313.34a2.13,2.13,0,0,1-2.12,2.12H385.65a2.12,2.12,0,0,1-2.13-2.12,2.12,2.12,0,0,1,2.13-2.13H396A2.12,2.12,0,0,1,398.09,313.34Z"/><path class="cls-5" d="M380.64,313.34a2.1,2.1,0,0,1-.63,1.5,2.07,2.07,0,0,1-1.5.62H368.19a2.13,2.13,0,0,1,0-4.25h10.32A2.13,2.13,0,0,1,380.64,313.34Z"/><polygon class="cls-1" points="269.09 374.26 251.26 356.44 259.78 347.92 269.09 357.23 292.18 334.13 300.7 342.65 269.09 374.26"/><path class="cls-1" d="M412.3,391.76H249.81a1.22,1.22,0,0,1-1.22-1.22v-.68a1.22,1.22,0,0,1,1.22-1.22H412.3a1.22,1.22,0,0,1,1.22,1.22v.68A1.22,1.22,0,0,1,412.3,391.76Z"/><path class="cls-1" d="M412.47,402.81H250a1.22,1.22,0,0,1-1.22-1.22v-.68a1.22,1.22,0,0,1,1.22-1.22H412.47a1.22,1.22,0,0,1,1.22,1.22v.68A1.22,1.22,0,0,1,412.47,402.81Z"/><path class="cls-1" d="M363.26,413.19H249.9a1.22,1.22,0,0,1-1.22-1.22v-.69a1.22,1.22,0,0,1,1.22-1.21H363.26a1.22,1.22,0,0,1,1.22,1.21V412A1.22,1.22,0,0,1,363.26,413.19Z"/><path class="cls-1" d="M377.1,370.23a10.11,10.11,0,0,1-10.1-10.1V338.54a8.18,8.18,0,0,0-16.35,0v17.67a8.9,8.9,0,0,1-8.89,8.9h-.32a8.9,8.9,0,0,1-8.89-8.9V336.66a7.39,7.39,0,0,0-14.77,0v36.61a.76.76,0,0,1-1.51,0V336.66a8.9,8.9,0,0,1,17.79,0v19.55a7.39,7.39,0,0,0,7.38,7.38h.32a7.39,7.39,0,0,0,7.38-7.38V338.54a9.69,9.69,0,0,1,19.37,0v21.59a8.59,8.59,0,0,0,17.18,0v-5.2a9.82,9.82,0,1,1,19.64,0v21.24a.75.75,0,0,1-.75.76.76.76,0,0,1-.76-.76V354.93a8.31,8.31,0,1,0-16.62,0v5.2A10.11,10.11,0,0,1,377.1,370.23Z"/><circle class="cls-5" cx="324.51" cy="328.39" r="4.63"/><circle class="cls-5" cx="349.48" cy="346.94" r="4.63"/><circle class="cls-5" cx="368.51" cy="337.03" r="4.63"/><circle class="cls-5" cx="376.64" cy="368.89" r="4.63"/><circle class="cls-5" cx="404.58" cy="374.71" r="4.63"/><circle class="cls-5" cx="316.99" cy="373.58" r="4.63"/><path class="cls-3" d="M245.67,166.27a.47.47,0,0,1-.47-.47v-5.64a.47.47,0,0,1,.94,0v5.64A.47.47,0,0,1,245.67,166.27Zm93.2-5.55a.47.47,0,0,1,0-.94,12.62,12.62,0,0,0,5.22-1.34.47.47,0,1,1,.43.83,13.39,13.39,0,0,1-5.62,1.45ZM333.3,160a.4.4,0,0,1-.15,0,13.57,13.57,0,0,1-5-3,.47.47,0,1,1,.65-.69,12.5,12.5,0,0,0,4.61,2.79.48.48,0,0,1,.3.6A.47.47,0,0,1,333.3,160Zm15.32-4.26a.46.46,0,0,1-.37-.76,12.47,12.47,0,0,0,2.36-4.85.47.47,0,0,1,.91.22,13.36,13.36,0,0,1-2.53,5.22A.5.5,0,0,1,348.62,155.78Zm-103-.79a.47.47,0,0,1-.47-.47v-5.64a.47.47,0,1,1,.94,0v5.64A.47.47,0,0,1,245.67,155Zm79.71-2.48a.47.47,0,0,1-.44-.29,13.49,13.49,0,0,1-.95-5v-.71a.47.47,0,0,1,.94,0v.71a12.67,12.67,0,0,0,.88,4.64.47.47,0,0,1-.26.61Zm-40.21-1h-.44a13.42,13.42,0,0,1-4-.62.47.47,0,1,1,.28-.9,12.56,12.56,0,0,0,3.76.58h.44a11.71,11.71,0,0,0,1.19-.06.46.46,0,0,1,.51.42.46.46,0,0,1-.42.51A10.86,10.86,0,0,1,285.17,151.55Zm6.56-1.78a.45.45,0,0,1-.4-.23.47.47,0,0,1,.16-.64,12.74,12.74,0,0,0,4-3.66.48.48,0,0,1,.65-.12.47.47,0,0,1,.12.66,13.68,13.68,0,0,1-4.26,3.93A.53.53,0,0,1,291.73,149.77ZM276,148.17a.44.44,0,0,1-.32-.13,13.6,13.6,0,0,1-3.36-4.72.47.47,0,1,1,.87-.37,12.63,12.63,0,0,0,3.12,4.4.46.46,0,0,1,0,.66A.5.5,0,0,1,276,148.17Zm75.45-3a.47.47,0,0,1-.47-.47V139a.47.47,0,1,1,.94,0v5.64A.47.47,0,0,1,351.43,145.14Zm-105.76-1.43a.47.47,0,0,1-.47-.47V137.6a.47.47,0,0,1,.94,0v5.64A.47.47,0,0,1,245.67,143.71Zm78.79-2.36a.47.47,0,0,1-.47-.47v-5.64a.47.47,0,0,1,.94,0v5.64A.47.47,0,0,1,324.46,141.35ZM298,140.81h-.08a.46.46,0,0,1-.38-.54,13.64,13.64,0,0,0,.19-2.21v-3.34a.47.47,0,0,1,.94,0v3.34a13.39,13.39,0,0,1-.21,2.37A.47.47,0,0,1,298,140.81Zm-26.28-2.71a.47.47,0,0,1-.47-.47V132a.47.47,0,0,1,.94,0v5.64A.47.47,0,0,1,271.71,138.1Zm79.72-4.24a.47.47,0,0,1-.47-.47v-5.64a.47.47,0,1,1,.94,0v5.64A.47.47,0,0,1,351.43,133.86Zm-105.76-1.43a.47.47,0,0,1-.47-.47v-5.64a.47.47,0,1,1,.94,0V132A.47.47,0,0,1,245.67,132.43Zm78.79-2.36a.47.47,0,0,1-.47-.47V124a.47.47,0,0,1,.94,0v5.64A.47.47,0,0,1,324.46,130.07Zm-26.27-.53a.47.47,0,0,1-.47-.47v-5.64a.47.47,0,1,1,.94,0v5.64A.47.47,0,0,1,298.19,129.54Zm-26.48-2.72a.47.47,0,0,1-.47-.47v-5.64a.47.47,0,0,1,.94,0v5.64A.47.47,0,0,1,271.71,126.82Zm79.72-4.24a.47.47,0,0,1-.47-.47v-5.64a.47.47,0,1,1,.94,0v5.64A.47.47,0,0,1,351.43,122.58Zm-105.76-1.43a.48.48,0,0,1-.47-.47V115a.47.47,0,0,1,.94,0v5.64A.48.48,0,0,1,245.67,121.15Zm78.79-2.36a.47.47,0,0,1-.47-.47v-5.07c0-.19,0-.37,0-.55a.47.47,0,0,1,.94,0c0,.19,0,.39,0,.59v5.07A.47.47,0,0,1,324.46,118.79Zm-26.27-.53a.47.47,0,0,1-.47-.47v-4.54a10.56,10.56,0,0,1,0-1.13.47.47,0,1,1,.93.08c0,.34,0,.7,0,1v4.54A.47.47,0,0,1,298.19,118.26Zm-26.48-2.72a.47.47,0,0,1-.47-.47v-5.64a.47.47,0,1,1,.94,0v5.64A.47.47,0,0,1,271.71,115.54Zm79.72-4.24a.47.47,0,0,1-.47-.47v-5.64a.47.47,0,1,1,.94,0v5.64A.47.47,0,0,1,351.43,111.3Zm-105.76-1.44a.47.47,0,0,1-.47-.47v-5.64a.47.47,0,1,1,.94,0v5.64A.47.47,0,0,1,245.67,109.86Zm161.8-.12a.47.47,0,0,1-.4-.22,6.64,6.64,0,0,0-4.21-2.93.47.47,0,0,1,.2-.92,7.58,7.58,0,0,1,4.8,3.35.47.47,0,0,1-.14.65A.59.59,0,0,1,407.47,109.74Zm-84.46-2a.47.47,0,0,1-.42-.25,12.68,12.68,0,0,0-3.45-4.15.47.47,0,1,1,.58-.74,13.55,13.55,0,0,1,3.71,4.46.46.46,0,0,1-.21.63A.5.5,0,0,1,323,107.74Zm-23.12-.46a.47.47,0,0,1-.41-.7,13.8,13.8,0,0,1,3.88-4.31.47.47,0,0,1,.55.77,12.68,12.68,0,0,0-3.61,4A.47.47,0,0,1,299.89,107.28Zm97.44-.83h-5.64a.47.47,0,1,1,0-.94h5.64a.47.47,0,1,1,0,.94Zm-11.12-1.1a.41.41,0,0,1-.19,0,13.15,13.15,0,0,1-4.62-3.51.48.48,0,0,1,.73-.61,12.11,12.11,0,0,0,4.27,3.27.46.46,0,0,1,.24.62A.48.48,0,0,1,386.21,105.35Zm-114.5-1.09a.47.47,0,0,1-.47-.47v-2.12a12.64,12.64,0,0,0-.45-3.35.47.47,0,0,1,.32-.58.48.48,0,0,1,.58.33,13.65,13.65,0,0,1,.49,3.6v2.12A.47.47,0,0,1,271.71,104.26ZM314.38,101h-.11a12.72,12.72,0,0,0-2.83-.32h-.23a12.13,12.13,0,0,0-2.34.22.48.48,0,0,1-.55-.38.47.47,0,0,1,.37-.55,14.15,14.15,0,0,1,2.52-.23h.23a14.18,14.18,0,0,1,3.05.34.48.48,0,0,1,.35.57A.47.47,0,0,1,314.38,101Zm37.05-1a.47.47,0,0,1-.47-.47V93.91a.47.47,0,1,1,.94,0v5.64A.47.47,0,0,1,351.43,100ZM246.15,98.63l-.13,0a.47.47,0,0,1-.33-.58,13.39,13.39,0,0,1,2.73-5.11.47.47,0,0,1,.72.61,12.4,12.4,0,0,0-2.54,4.76A.48.48,0,0,1,246.15,98.63ZM379.24,97a.46.46,0,0,1-.45-.35,12.9,12.9,0,0,1-.38-3.1,11.75,11.75,0,0,0-.26-2.51.48.48,0,0,1,.36-.56.47.47,0,0,1,.56.37,12.82,12.82,0,0,1,.28,2.7,12,12,0,0,0,.35,2.87.47.47,0,0,1-.35.57ZM268.62,93.72a.45.45,0,0,1-.36-.16A12.61,12.61,0,0,0,264,90.29a.47.47,0,1,1,.4-.86A13.8,13.8,0,0,1,269,93a.46.46,0,0,1-.06.66A.43.43,0,0,1,268.62,93.72Zm-15.38-3.41a.47.47,0,0,1-.2-.89,13.41,13.41,0,0,1,5.65-1.24.48.48,0,0,1,.48.47.46.46,0,0,1-.46.47,12.47,12.47,0,0,0-5.27,1.15A.48.48,0,0,1,253.24,90.31Zm99.27-1.41a.71.71,0,0,1-.2,0,.48.48,0,0,1-.23-.63,13.1,13.1,0,0,1,3.49-4.63.49.49,0,0,1,.67.06.47.47,0,0,1-.06.66,12,12,0,0,0-3.24,4.3A.48.48,0,0,1,352.51,88.9Zm23.73-2.59a.47.47,0,0,1-.37-.18,12.06,12.06,0,0,0-4.17-3.4.47.47,0,1,1,.41-.84,13,13,0,0,1,4.5,3.66.47.47,0,0,1-.08.66A.43.43,0,0,1,376.24,86.31Zm-15.39-4.43a.47.47,0,0,1-.11-.92,12.82,12.82,0,0,1,3.15-.39h2.52a.5.5,0,0,1,.5.47.45.45,0,0,1-.45.47h-2.57a11.91,11.91,0,0,0-2.92.36Z"/><circle class="cls-8" cx="311.36" cy="100.23" r="15.76"/><path class="cls-1" d="M305.59,107.08a.85.85,0,0,1-.54-.19l-7.54-6a.87.87,0,0,1,0-1.36L305,93.57A.87.87,0,1,1,306,94.93l-6.59,5.26,6.69,5.34a.87.87,0,0,1,.13,1.22A.84.84,0,0,1,305.59,107.08Z"/><path class="cls-1" d="M317.13,107.08a.85.85,0,0,1-.68-.33.86.86,0,0,1,.14-1.22l6.68-5.34-6.59-5.26a.87.87,0,0,1-.13-1.22.86.86,0,0,1,1.22-.14l7.44,5.94a.88.88,0,0,1,0,1.36l-7.54,6A.85.85,0,0,1,317.13,107.08Z"/><path class="cls-1" d="M309.66,108.67a.79.79,0,0,1-.37,0,.87.87,0,0,1-.57-1.09l4.66-15.16a.87.87,0,0,1,1.66.51l-4.66,15.16A.87.87,0,0,1,309.66,108.67Z"/><path class="cls-9" d="M314.91,179.12h2.43a13.76,13.76,0,0,0-1.35-5.94l-2.19,1.06a11.3,11.3,0,0,0-3.12-3.9l1.52-1.9a14,14,0,0,0-2.59-1.64,13.55,13.55,0,0,0-2.89-1l-.54,2.37a11.3,11.3,0,0,0-5,0l-.54-2.37a13.36,13.36,0,0,0-2.89,1,14,14,0,0,0-2.59,1.64l1.52,1.9a11.3,11.3,0,0,0-3.12,3.9l-2.19-1.06a13.76,13.76,0,0,0-1.35,5.94h2.43a11.23,11.23,0,0,0,1.11,4.87l-2.19,1.06a13.77,13.77,0,0,0,3.79,4.74l1.52-1.9a11.16,11.16,0,0,0,4.5,2.17l-.54,2.37a13.57,13.57,0,0,0,6.08,0l-.54-2.37a11.16,11.16,0,0,0,4.5-2.17l1.52,1.9a13.65,13.65,0,0,0,3.79-4.74L313.8,184A11.23,11.23,0,0,0,314.91,179.12Zm-11.23,7.7a7.53,7.53,0,1,1,7.53-7.53A7.53,7.53,0,0,1,303.68,186.82Z"/><path class="cls-10" d="M350.45,200.36h4.73a22.68,22.68,0,0,0-.26-3.29,21,21,0,0,0-.77-3.22,19.53,19.53,0,0,0-1.27-3.06,19.92,19.92,0,0,0-1.73-2.82l-3.82,2.78a16.37,16.37,0,0,0-8.17-5.94l1.46-4.49a21.14,21.14,0,0,0-13,0l1.46,4.49a16.33,16.33,0,0,0-8.17,5.94L317.07,188a19.92,19.92,0,0,0-1.73,2.82,19.53,19.53,0,0,0-1.27,3.06,21,21,0,0,0-.77,3.22,21.36,21.36,0,0,0-.26,3.29h4.73a16.24,16.24,0,0,0,3.12,9.61l-3.82,2.77a21,21,0,0,0,10.53,7.66l1.46-4.49a16.52,16.52,0,0,0,5.05.79,16.23,16.23,0,0,0,5.05-.8l1.46,4.5a21.1,21.1,0,0,0,10.53-7.66L347.33,210A16.24,16.24,0,0,0,350.45,200.36Zm-16.34,8.82a9.34,9.34,0,1,1,9.34-9.34A9.34,9.34,0,0,1,334.11,209.18Z"/><circle class="cls-5" cx="324.16" cy="171.39" r="5.59"/><path class="cls-3" d="M517.08,455.09H74.92a.38.38,0,0,1,0-.76H517.08a.38.38,0,0,1,0,.76Z"/></g></g></svg>