<svg xmlns="http://www.w3.org/2000/svg" xmlns:xlink="http://www.w3.org/1999/xlink" viewBox="0 0 500 500"><defs><style>.cls-1,.cls-100{fill:none;}.cls-2{clip-path:url(#clip-path);}.cls-3{opacity:0.32;}.cls-4{fill:url(#radial-gradient);}.cls-5{fill:url(#radial-gradient-2);}.cls-6{fill:url(#radial-gradient-3);}.cls-7,.cls-86,.cls-87,.cls-90,.cls-93,.cls-94,.cls-95,.cls-96,.cls-97{isolation:isolate;}.cls-8{fill:url(#radial-gradient-4);}.cls-9{fill:url(#radial-gradient-5);}.cls-10{fill:url(#radial-gradient-6);}.cls-11{fill:url(#radial-gradient-7);}.cls-12{fill:url(#radial-gradient-8);}.cls-13{fill:url(#radial-gradient-9);}.cls-14{fill:url(#radial-gradient-10);}.cls-15{fill:url(#radial-gradient-11);}.cls-16{fill:url(#radial-gradient-12);}.cls-17{fill:url(#radial-gradient-13);}.cls-18{fill:url(#radial-gradient-14);}.cls-19{fill:url(#radial-gradient-15);}.cls-20{fill:url(#radial-gradient-16);}.cls-21{fill:url(#radial-gradient-17);}.cls-22{fill:url(#radial-gradient-18);}.cls-23{fill:url(#radial-gradient-19);}.cls-24{fill:url(#radial-gradient-20);}.cls-25{fill:url(#radial-gradient-21);}.cls-26{fill:url(#radial-gradient-22);}.cls-27{fill:url(#radial-gradient-23);}.cls-28{fill:url(#radial-gradient-24);}.cls-29{fill:url(#radial-gradient-25);}.cls-30{fill:url(#radial-gradient-26);}.cls-31{fill:url(#radial-gradient-27);}.cls-32{fill:url(#radial-gradient-28);}.cls-33{fill:url(#radial-gradient-29);}.cls-34{fill:url(#radial-gradient-30);}.cls-35{fill:url(#radial-gradient-31);}.cls-36{fill:url(#radial-gradient-32);}.cls-37{fill:url(#radial-gradient-33);}.cls-38{fill:url(#radial-gradient-34);}.cls-39{fill:url(#radial-gradient-35);}.cls-40{fill:url(#radial-gradient-36);}.cls-41{fill:url(#radial-gradient-37);}.cls-42{fill:url(#radial-gradient-38);}.cls-43{fill:url(#radial-gradient-39);}.cls-44{fill:url(#radial-gradient-40);}.cls-45{fill:url(#radial-gradient-41);}.cls-46{fill:url(#radial-gradient-42);}.cls-47{fill:url(#radial-gradient-43);}.cls-48{fill:url(#radial-gradient-44);}.cls-49{fill:url(#radial-gradient-45);}.cls-50{fill:url(#radial-gradient-46);}.cls-51{fill:url(#radial-gradient-47);}.cls-52{fill:url(#radial-gradient-48);}.cls-53{fill:url(#radial-gradient-49);}.cls-54{fill:url(#radial-gradient-51);}.cls-55{fill:url(#radial-gradient-52);}.cls-56{fill:url(#radial-gradient-53);}.cls-57{fill:url(#radial-gradient-55);}.cls-58{fill:url(#radial-gradient-56);}.cls-59{fill:url(#radial-gradient-58);}.cls-60{fill:url(#radial-gradient-59);}.cls-61{fill:url(#radial-gradient-60);}.cls-62{fill:url(#radial-gradient-62);}.cls-63{fill:url(#radial-gradient-63);}.cls-64{fill:url(#radial-gradient-64);}.cls-65{fill:url(#radial-gradient-65);}.cls-66{fill:url(#radial-gradient-66);}.cls-67{fill:url(#radial-gradient-67);}.cls-68{fill:url(#radial-gradient-68);}.cls-69{fill:url(#radial-gradient-69);}.cls-70{fill:url(#radial-gradient-70);}.cls-71{fill:url(#radial-gradient-71);}.cls-72{fill:url(#radial-gradient-72);}.cls-73{fill:url(#radial-gradient-73);}.cls-74{fill:url(#radial-gradient-74);}.cls-75{fill:url(#radial-gradient-75);}.cls-76{fill:url(#radial-gradient-76);}.cls-77{fill:url(#radial-gradient-77);}.cls-78{fill:url(#radial-gradient-78);}.cls-79{fill:url(#radial-gradient-82);}.cls-80{opacity:0.69;}.cls-81{fill:#e0e0e0;}.cls-82{fill:#d7e4f9;}.cls-83{fill:#779ce8;}.cls-84{fill:#fafafa;}.cls-85,.cls-94,.cls-95,.cls-96,.cls-97{fill:#fff;}.cls-86,.cls-90{fill:#ebebeb;}.cls-86{opacity:0.4;}.cls-87{fill:#f0f0f0;opacity:0.6;}.cls-88{fill:#55c2f9;stroke-linecap:round;stroke-linejoin:round;opacity:0.47;}.cls-100,.cls-88{stroke:#779ce8;stroke-width:0.75px;}.cls-89{fill:#b06bf2;opacity:0.45;}.cls-90,.cls-94{opacity:0.9;}.cls-91{fill:#407bff;}.cls-92{fill:#263238;}.cls-93,.cls-96{opacity:0.3;}.cls-95{opacity:0.2;}.cls-97{opacity:0.8;}.cls-98{fill:#e24b65;}.cls-99{fill:#1760fc;}.cls-100{stroke-miterlimit:10;}.cls-101{fill:#4073bf;}</style><clipPath id="clip-path"><rect class="cls-1" x="1.4" y="246.48" width="500" height="253"/></clipPath><radialGradient id="radial-gradient" cx="255.55" cy="106.1" r="663.67" gradientTransform="matrix(1, 0, 0, -1, 0.71, 500.8)" gradientUnits="userSpaceOnUse"><stop offset="0" stop-color="#acc3fe"/><stop offset="1" stop-color="#c3d2ff" stop-opacity="0"/></radialGradient><radialGradient id="radial-gradient-2" cx="255.55" cy="106.1" r="663.67" xlink:href="#radial-gradient"/><radialGradient id="radial-gradient-3" cx="255.55" cy="106.1" r="663.67" xlink:href="#radial-gradient"/><radialGradient id="radial-gradient-4" cx="255.55" cy="106.1" r="663.67" xlink:href="#radial-gradient"/><radialGradient id="radial-gradient-5" cx="255.55" cy="106.1" r="663.67" xlink:href="#radial-gradient"/><radialGradient id="radial-gradient-6" cx="255.55" cy="106.1" r="663.67" xlink:href="#radial-gradient"/><radialGradient id="radial-gradient-7" cx="255.55" cy="106.1" r="663.67" xlink:href="#radial-gradient"/><radialGradient id="radial-gradient-8" cx="255.55" cy="106.1" r="663.67" xlink:href="#radial-gradient"/><radialGradient id="radial-gradient-9" cx="255.55" cy="106.1" r="663.67" xlink:href="#radial-gradient"/><radialGradient id="radial-gradient-10" cx="255.55" cy="106.1" r="663.67" xlink:href="#radial-gradient"/><radialGradient id="radial-gradient-11" cx="255.55" cy="106.1" r="663.67" xlink:href="#radial-gradient"/><radialGradient id="radial-gradient-12" cx="255.55" cy="106.1" r="663.67" xlink:href="#radial-gradient"/><radialGradient id="radial-gradient-13" cx="255.55" cy="106.1" r="663.66" xlink:href="#radial-gradient"/><radialGradient id="radial-gradient-14" cx="255.55" cy="106.1" r="663.66" xlink:href="#radial-gradient"/><radialGradient id="radial-gradient-15" cx="255.55" cy="106.1" r="663.67" xlink:href="#radial-gradient"/><radialGradient id="radial-gradient-16" cx="255.55" cy="106.1" r="663.67" xlink:href="#radial-gradient"/><radialGradient id="radial-gradient-17" cx="255.55" cy="106.1" r="663.67" xlink:href="#radial-gradient"/><radialGradient id="radial-gradient-18" cx="255.55" cy="106.1" r="663.67" xlink:href="#radial-gradient"/><radialGradient id="radial-gradient-19" cx="255.55" cy="106.1" r="663.67" xlink:href="#radial-gradient"/><radialGradient id="radial-gradient-20" cx="255.55" cy="106.1" r="663.66" xlink:href="#radial-gradient"/><radialGradient id="radial-gradient-21" cx="255.55" cy="106.1" r="663.67" xlink:href="#radial-gradient"/><radialGradient id="radial-gradient-22" cx="255.55" cy="106.1" r="663.66" xlink:href="#radial-gradient"/><radialGradient id="radial-gradient-23" cx="255.55" cy="106.1" r="663.67" xlink:href="#radial-gradient"/><radialGradient id="radial-gradient-24" cx="255.55" cy="106.1" r="663.67" xlink:href="#radial-gradient"/><radialGradient id="radial-gradient-25" cx="255.55" cy="106.1" r="663.67" xlink:href="#radial-gradient"/><radialGradient id="radial-gradient-26" cx="255.55" cy="106.1" r="663.67" xlink:href="#radial-gradient"/><radialGradient id="radial-gradient-27" cx="255.55" cy="106.1" r="663.67" xlink:href="#radial-gradient"/><radialGradient id="radial-gradient-28" cx="255.55" cy="106.1" r="663.67" xlink:href="#radial-gradient"/><radialGradient id="radial-gradient-29" cx="255.55" cy="106.1" r="663.67" xlink:href="#radial-gradient"/><radialGradient id="radial-gradient-30" cx="255.55" cy="106.1" r="663.67" xlink:href="#radial-gradient"/><radialGradient id="radial-gradient-31" cx="255.55" cy="106.1" r="663.67" xlink:href="#radial-gradient"/><radialGradient id="radial-gradient-32" cx="255.55" cy="106.1" r="663.67" xlink:href="#radial-gradient"/><radialGradient id="radial-gradient-33" cx="255.55" cy="106.1" r="663.67" xlink:href="#radial-gradient"/><radialGradient id="radial-gradient-34" cx="255.55" cy="106.1" r="663.67" xlink:href="#radial-gradient"/><radialGradient id="radial-gradient-35" cx="255.55" cy="106.1" r="663.67" xlink:href="#radial-gradient"/><radialGradient id="radial-gradient-36" cx="255.55" cy="106.1" r="663.67" xlink:href="#radial-gradient"/><radialGradient id="radial-gradient-37" cx="255.55" cy="106.1" r="663.67" xlink:href="#radial-gradient"/><radialGradient id="radial-gradient-38" cx="255.55" cy="106.1" r="663.67" xlink:href="#radial-gradient"/><radialGradient id="radial-gradient-39" cx="255.55" cy="106.1" r="663.67" xlink:href="#radial-gradient"/><radialGradient id="radial-gradient-40" cx="255.55" cy="106.1" r="663.67" xlink:href="#radial-gradient"/><radialGradient id="radial-gradient-41" cx="255.55" cy="106.1" r="663.67" xlink:href="#radial-gradient"/><radialGradient id="radial-gradient-42" cx="255.55" cy="106.1" r="663.67" xlink:href="#radial-gradient"/><radialGradient id="radial-gradient-43" cx="255.55" cy="106.1" r="663.67" xlink:href="#radial-gradient"/><radialGradient id="radial-gradient-44" cx="255.55" cy="106.1" r="663.67" xlink:href="#radial-gradient"/><radialGradient id="radial-gradient-45" cx="255.55" cy="106.1" r="663.67" xlink:href="#radial-gradient"/><radialGradient id="radial-gradient-46" cx="255.55" cy="106.1" r="663.67" xlink:href="#radial-gradient"/><radialGradient id="radial-gradient-47" cx="255.55" cy="106.1" r="663.67" xlink:href="#radial-gradient"/><radialGradient id="radial-gradient-48" cx="255.55" cy="106.1" r="663.67" xlink:href="#radial-gradient"/><radialGradient id="radial-gradient-49" cx="255.55" cy="106.1" r="663.67" xlink:href="#radial-gradient"/><radialGradient id="radial-gradient-51" cx="255.55" cy="106.1" r="663.67" xlink:href="#radial-gradient"/><radialGradient id="radial-gradient-52" cx="255.55" cy="106.1" r="663.67" xlink:href="#radial-gradient"/><radialGradient id="radial-gradient-53" cx="255.55" cy="106.1" r="663.66" xlink:href="#radial-gradient"/><radialGradient id="radial-gradient-55" cx="255.55" cy="106.1" r="663.67" xlink:href="#radial-gradient"/><radialGradient id="radial-gradient-56" cx="255.55" cy="106.1" r="663.67" xlink:href="#radial-gradient"/><radialGradient id="radial-gradient-58" cx="255.55" cy="106.1" r="663.67" xlink:href="#radial-gradient"/><radialGradient id="radial-gradient-59" cx="255.55" cy="106.1" r="663.67" xlink:href="#radial-gradient"/><radialGradient id="radial-gradient-60" cx="255.55" cy="106.1" r="663.67" xlink:href="#radial-gradient"/><radialGradient id="radial-gradient-62" cx="255.55" cy="106.1" r="663.67" xlink:href="#radial-gradient"/><radialGradient id="radial-gradient-63" cx="255.55" cy="106.1" r="663.67" xlink:href="#radial-gradient"/><radialGradient id="radial-gradient-64" cx="255.55" cy="106.1" r="663.66" xlink:href="#radial-gradient"/><radialGradient id="radial-gradient-65" cx="255.55" cy="106.1" r="663.67" xlink:href="#radial-gradient"/><radialGradient id="radial-gradient-66" cx="255.55" cy="106.1" r="663.66" xlink:href="#radial-gradient"/><radialGradient id="radial-gradient-67" cx="255.55" cy="106.1" r="663.67" xlink:href="#radial-gradient"/><radialGradient id="radial-gradient-68" cx="255.55" cy="106.1" r="663.67" xlink:href="#radial-gradient"/><radialGradient id="radial-gradient-69" cx="255.55" cy="106.1" r="663.67" xlink:href="#radial-gradient"/><radialGradient id="radial-gradient-70" cx="255.55" cy="106.1" r="663.67" xlink:href="#radial-gradient"/><radialGradient id="radial-gradient-71" cx="255.55" cy="106.1" r="663.67" xlink:href="#radial-gradient"/><radialGradient id="radial-gradient-72" cx="255.55" cy="106.1" r="663.66" xlink:href="#radial-gradient"/><radialGradient id="radial-gradient-73" cx="255.55" cy="106.1" r="663.67" xlink:href="#radial-gradient"/><radialGradient id="radial-gradient-74" cx="255.55" cy="106.1" r="663.66" xlink:href="#radial-gradient"/><radialGradient id="radial-gradient-75" cx="255.55" cy="106.1" r="663.67" xlink:href="#radial-gradient"/><radialGradient id="radial-gradient-76" cx="255.55" cy="106.1" r="663.67" xlink:href="#radial-gradient"/><radialGradient id="radial-gradient-77" cx="255.55" cy="106.1" r="663.67" xlink:href="#radial-gradient"/><radialGradient id="radial-gradient-78" cx="255.55" cy="106.1" r="663.67" xlink:href="#radial-gradient"/><radialGradient id="radial-gradient-82" cx="255.55" cy="106.1" r="663.67" xlink:href="#radial-gradient"/></defs><g id="Layer_2" data-name="Layer 2"><g class="cls-2"><g class="cls-3"><polygon class="cls-4" points="337.99 321.17 340.3 319.82 380.94 343.29 378.63 344.63 337.99 321.17"/><polygon class="cls-5" points="124.56 445.2 126.86 443.86 167.5 467.32 165.2 468.66 124.56 445.2"/><polygon class="cls-6" points="-3.82 371.08 -1.51 369.74 38.63 392.91 36.32 394.25 -3.82 371.08"/><g class="cls-7"><polygon class="cls-8" points="209.62 247.05 211.92 245.71 252.06 268.88 249.75 270.22 209.62 247.05"/><polygon class="cls-9" points="166.93 271.85 169.24 270.51 209.38 293.68 207.07 295.02 166.93 271.85"/><polygon class="cls-10" points="295.03 296.36 297.34 295.02 337.98 318.49 335.67 319.82 295.03 296.36"/><polygon class="cls-11" points="124.25 296.65 126.56 295.31 166.69 318.49 164.39 319.83 124.25 296.65"/><polygon class="cls-12" points="252.35 321.17 254.66 319.83 295.3 343.29 292.99 344.63 252.35 321.17"/><polygon class="cls-13" points="166.71 321.17 169.01 319.83 209.66 343.29 207.35 344.63 166.71 321.17"/><polygon class="cls-14" points="81.54 321.47 83.88 320.12 124.01 343.29 121.68 344.65 81.54 321.47"/><polygon class="cls-15" points="380.95 345.97 383.26 344.63 423.9 368.09 421.59 369.43 380.95 345.97"/><polygon class="cls-16" points="295.31 345.97 297.62 344.63 338.26 368.09 335.95 369.43 295.31 345.97"/><polygon class="cls-17" points="209.67 345.97 211.97 344.63 252.62 368.09 250.31 369.43 209.67 345.97"/><polygon class="cls-18" points="124 345.99 126.33 344.63 166.97 368.09 164.64 369.45 124 345.99"/><polygon class="cls-19" points="38.86 346.28 41.2 344.92 81.33 368.09 79 369.45 38.86 346.28"/><polygon class="cls-20" points="338.27 370.77 340.58 369.43 381.22 392.89 378.91 394.24 338.27 370.77"/><polygon class="cls-21" points="252.63 370.77 254.94 369.43 295.57 392.9 293.27 394.24 252.63 370.77"/><polygon class="cls-22" points="166.96 370.79 169.29 369.43 209.93 392.9 207.6 394.25 166.96 370.79"/><polygon class="cls-23" points="81.32 370.79 83.65 369.43 124.29 392.9 121.96 394.25 81.32 370.79"/><polygon class="cls-24" points="295.59 395.57 297.89 394.24 338.54 417.7 336.23 419.04 295.59 395.57"/><polygon class="cls-25" points="209.92 395.59 212.25 394.24 252.89 417.7 250.56 419.06 209.92 395.59"/><polygon class="cls-26" points="124.28 395.59 126.61 394.24 167.25 417.7 164.92 419.06 124.28 395.59"/><polygon class="cls-27" points="294.25 247.05 254.38 270.22 252.07 271.56 211.69 295.02 209.39 296.36 169.01 319.83 166.71 321.17 126.33 344.63 124 345.99 83.65 369.43 81.32 370.79 40.95 394.25 38.64 395.59 -1.24 418.76 -3.56 417.43 36.32 394.25 38.63 392.91 79 369.45 81.33 368.09 121.68 344.65 124.01 343.29 164.39 319.83 166.69 318.49 207.07 295.02 209.38 293.68 249.75 270.22 252.06 268.88 291.93 245.71 294.25 247.05"/><polygon class="cls-28" points="338.58 420.39 340.88 419.05 381.5 442.5 379.19 443.84 338.58 420.39"/><polygon class="cls-29" points="252.88 420.39 255.21 419.04 295.85 442.5 293.52 443.86 252.88 420.39"/><polygon class="cls-30" points="167.24 420.39 169.57 419.04 210.21 442.5 207.88 443.86 167.24 420.39"/><polygon class="cls-31" points="337.21 271.85 297.34 295.02 295.03 296.36 254.66 319.83 252.35 321.17 211.97 344.63 209.67 345.97 169.29 369.43 166.96 370.79 126.61 394.24 124.28 395.59 83.91 419.06 81.6 420.39 41.72 443.57 39.4 442.23 79.28 419.06 81.58 417.72 121.96 394.25 124.29 392.9 164.64 369.45 166.97 368.09 207.35 344.63 209.66 343.29 250.03 319.83 252.34 318.49 292.71 295.02 295.02 293.68 334.89 270.51 337.21 271.85"/><polygon class="cls-32" points="81.6 420.39 83.91 419.06 124.55 442.52 122.24 443.86 81.6 420.39"/><polygon class="cls-33" points="295.87 445.21 298.2 443.86 338.81 467.31 336.48 468.66 295.87 445.21"/><polygon class="cls-34" points="210.2 445.2 212.53 443.84 253.17 467.31 250.84 468.66 210.2 445.2"/><polygon class="cls-35" points="380.17 296.65 340.3 319.83 337.99 321.17 297.62 344.63 295.31 345.97 254.94 369.43 252.63 370.77 212.25 394.24 209.92 395.59 169.57 419.04 167.24 420.39 126.86 443.86 124.56 445.2 84.68 468.37 82.36 467.03 122.24 443.86 124.55 442.52 164.92 419.06 167.25 417.7 207.6 394.25 209.93 392.9 250.31 369.43 252.62 368.09 292.99 344.63 295.3 343.29 335.67 319.83 337.98 318.49 377.85 295.31 380.17 296.65"/><polygon class="cls-36" points="423.13 321.45 383.26 344.63 380.95 345.97 340.57 369.43 338.27 370.77 297.89 394.24 295.59 395.57 255.21 419.04 252.88 420.39 212.53 443.84 210.2 445.2 169.82 468.66 167.52 470 127.64 493.17 125.32 491.83 165.2 468.66 167.5 467.32 207.88 443.86 210.21 442.5 250.56 419.06 252.89 417.7 293.27 394.24 295.57 392.9 335.95 369.43 338.26 368.09 378.63 344.63 380.94 343.29 420.81 320.12 423.13 321.45"/><polygon class="cls-37" points="167.52 470 169.82 468.66 210.47 492.13 208.16 493.46 167.52 470"/><polygon class="cls-38" points="466.12 346.27 426.24 369.45 423.94 370.79 383.56 394.25 381.26 395.59 340.88 419.05 338.58 420.39 298.2 443.86 295.87 445.21 255.52 468.66 253.19 470.02 212.81 493.48 210.51 494.82 170.63 517.99 168.28 516.64 208.16 493.46 210.47 492.13 250.84 468.66 253.17 467.31 293.52 443.86 295.85 442.5 336.23 419.04 338.54 417.7 378.91 394.24 381.21 392.89 421.59 369.43 423.9 368.09 463.77 344.92 466.12 346.27"/></g><polygon class="cls-39" points="423.94 370.79 426.24 369.45 466.86 392.89 464.55 394.23 423.94 370.79"/><polygon class="cls-40" points="381.26 395.59 383.56 394.25 424.18 417.7 421.87 419.04 381.26 395.59"/><polygon class="cls-41" points="253.19 470.02 255.52 468.66 296.13 492.11 293.8 493.46 253.19 470.02"/><polygon class="cls-42" points="210.51 494.82 212.81 493.48 253.43 516.93 251.12 518.27 210.51 494.82"/><polygon class="cls-43" points="509.08 371.08 469.2 394.25 466.9 395.59 426.52 419.05 424.22 420.39 383.84 443.86 381.54 445.2 341.16 468.66 338.83 470.02 298.48 493.46 296.15 494.82 255.77 518.28 253.47 519.62 213.59 542.8 211.24 541.44 251.12 518.27 253.43 516.93 293.8 493.46 296.13 492.11 336.48 468.66 338.81 467.31 379.19 443.84 381.5 442.5 421.87 419.04 424.18 417.7 464.55 394.23 466.86 392.89 506.73 369.72 509.08 371.08"/><polygon class="cls-44" points="469.2 394.25 509.31 417.41 507.01 418.75 466.9 395.59 469.2 394.25"/><polygon class="cls-45" points="252.07 271.56 254.38 270.22 295.02 293.68 292.71 295.02 252.07 271.56"/><polygon class="cls-46" points="426.52 419.05 466.63 442.21 464.33 443.55 424.22 420.39 426.52 419.05"/><polygon class="cls-47" points="209.39 296.36 211.7 295.02 252.34 318.49 250.03 319.83 209.39 296.36"/><polygon class="cls-48" points="383.84 443.86 423.95 467.01 421.65 468.35 381.54 445.2 383.84 443.86"/><polygon class="cls-49" points="341.16 468.66 381.27 491.82 378.94 493.17 338.83 470.02 341.16 468.66"/><polygon class="cls-50" points="298.48 493.46 338.59 516.62 336.26 517.98 296.15 494.82 298.48 493.46"/><polygon class="cls-51" points="38.64 395.59 40.94 394.25 81.58 417.72 79.28 419.06 38.64 395.59"/><path class="cls-52" d="M259.38,265.93c4.08,2.36,4.08,6.18.05,8.52a16.26,16.26,0,0,1-14.74,0c-4.05-2.34-4.07-6.18,0-8.54A16.29,16.29,0,0,1,259.38,265.93Z"/><path class="cls-53" d="M302.34,290.73c4.08,2.36,4.07,6.18.05,8.52a16.23,16.23,0,0,1-14.74,0c-4-2.34-4.07-6.18,0-8.54A16.29,16.29,0,0,1,302.34,290.73Z"/><path class="cls-44" d="M345.33,315.55c4.05,2.34,4.07,6.18.05,8.52a16.29,16.29,0,0,1-14.74,0c-4.08-2.36-4.08-6.18,0-8.54A16.26,16.26,0,0,1,345.33,315.55Z"/><path class="cls-54" d="M388.29,340.36c4.08,2.35,4.07,6.18,0,8.52a16.26,16.26,0,0,1-14.74,0c-4.08-2.35-4.07-6.18,0-8.53A16.23,16.23,0,0,1,388.29,340.36Z"/><path class="cls-55" d="M431.25,365.16c4.08,2.36,4.07,6.18.05,8.52a16.26,16.26,0,0,1-14.74,0c-4.08-2.36-4.07-6.18,0-8.54A16.23,16.23,0,0,1,431.25,365.16Z"/><path class="cls-56" d="M474.21,390c4.08,2.36,4.07,6.18.05,8.52a16.26,16.26,0,0,1-14.74,0c-4.08-2.36-4.08-6.18,0-8.54A16.26,16.26,0,0,1,474.21,390Z"/><path class="cls-31" d="M216.67,290.75c4.08,2.36,4.1,6.16.05,8.52a16.17,16.17,0,0,1-14.71,0c-4-2.34-4.1-6.16,0-8.52A16.23,16.23,0,0,1,216.67,290.75Z"/><path class="cls-57" d="M259.63,315.55c4.08,2.36,4.1,6.17.05,8.52a16.17,16.17,0,0,1-14.71,0c-4.05-2.34-4.1-6.16-.05-8.52A16.26,16.26,0,0,1,259.63,315.55Z"/><path class="cls-58" d="M302.62,340.37c4.05,2.34,4.1,6.17.05,8.52a16.23,16.23,0,0,1-14.71,0c-4.08-2.35-4.1-6.16,0-8.52A16.23,16.23,0,0,1,302.62,340.37Z"/><path class="cls-42" d="M345.58,365.18c4.08,2.35,4.1,6.16.05,8.52a16.23,16.23,0,0,1-14.71,0c-4.08-2.36-4.1-6.17-.05-8.52A16.17,16.17,0,0,1,345.58,365.18Z"/><path class="cls-59" d="M388.54,390c4.08,2.35,4.1,6.16,0,8.52a16.17,16.17,0,0,1-14.71,0c-4.08-2.36-4.1-6.16-.05-8.52A16.17,16.17,0,0,1,388.54,390Z"/><path class="cls-60" d="M431.5,414.78c4.08,2.36,4.1,6.17.05,8.52a16.17,16.17,0,0,1-14.71,0c-4.08-2.35-4.1-6.16,0-8.52A16.23,16.23,0,0,1,431.5,414.78Z"/><path class="cls-61" d="M46,390c4.08,2.36,4.07,6.18,0,8.52a16.17,16.17,0,0,1-14.71,0c-4.06-2.34-4.1-6.16-.05-8.52A16.29,16.29,0,0,1,46,390Z"/><path class="cls-9" d="M88.91,414.77C93,417.12,93,421,89,423.29a16.23,16.23,0,0,1-14.71,0c-4.06-2.34-4.1-6.17,0-8.52A16.29,16.29,0,0,1,88.91,414.77Z"/><path class="cls-62" d="M131.9,439.59c4,2.34,4.07,6.18,0,8.52a16.26,16.26,0,0,1-14.71,0c-4.09-2.36-4.11-6.17,0-8.52A16.23,16.23,0,0,1,131.9,439.59Z"/><path class="cls-63" d="M174.86,464.39c4.08,2.35,4.07,6.18,0,8.52a16.17,16.17,0,0,1-14.71,0c-4.08-2.36-4.1-6.16,0-8.52A16.23,16.23,0,0,1,174.86,464.39Z"/><path class="cls-64" d="M217.82,489.19c4.08,2.36,4.07,6.18.05,8.52a16.19,16.19,0,0,1-14.72,0c-4.08-2.35-4.1-6.16,0-8.52A16.26,16.26,0,0,1,217.82,489.19Z"/><path class="cls-65" d="M88.63,365.16c4.08,2.36,4.1,6.16.05,8.52a16.17,16.17,0,0,1-14.71,0c-4-2.34-4.1-6.16,0-8.52A16.23,16.23,0,0,1,88.63,365.16Z"/><path class="cls-66" d="M131.59,390c4.08,2.36,4.1,6.17,0,8.52a16.17,16.17,0,0,1-14.71,0c-4.05-2.34-4.1-6.16-.05-8.52A16.26,16.26,0,0,1,131.59,390Z"/><path class="cls-67" d="M174.58,414.78c4,2.34,4.1,6.17,0,8.52a16.23,16.23,0,0,1-14.71,0c-4.08-2.35-4.11-6.16,0-8.52A16.23,16.23,0,0,1,174.58,414.78Z"/><path class="cls-68" d="M217.54,439.59c4.08,2.35,4.1,6.16.05,8.52a16.23,16.23,0,0,1-14.71,0c-4.08-2.36-4.11-6.17,0-8.53A16.2,16.2,0,0,1,217.54,439.59Z"/><path class="cls-69" d="M260.5,464.39c4.08,2.35,4.1,6.16.05,8.52a16.17,16.17,0,0,1-14.71,0c-4.08-2.36-4.11-6.16-.05-8.52A16.17,16.17,0,0,1,260.5,464.39Z"/><path class="cls-70" d="M303.46,489.19c4.08,2.36,4.1,6.17.05,8.52a16.17,16.17,0,0,1-14.71,0c-4.08-2.35-4.11-6.16-.05-8.52A16.23,16.23,0,0,1,303.46,489.19Z"/><path class="cls-71" d="M131.31,340.36c4.08,2.35,4.1,6.16.05,8.52a16.23,16.23,0,0,1-14.71,0c-4.05-2.34-4.1-6.17-.05-8.52A16.23,16.23,0,0,1,131.31,340.36Z"/><path class="cls-72" d="M174.27,365.16c4.08,2.36,4.1,6.16,0,8.52a16.17,16.17,0,0,1-14.71,0c-4.05-2.34-4.1-6.16-.05-8.52A16.23,16.23,0,0,1,174.27,365.16Z"/><path class="cls-73" d="M217.26,390c4.05,2.34,4.1,6.16.05,8.52a16.23,16.23,0,0,1-14.71,0c-4.08-2.36-4.11-6.16,0-8.52A16.17,16.17,0,0,1,217.26,390Z"/><path class="cls-74" d="M260.22,414.78c4.08,2.36,4.1,6.17,0,8.52a16.17,16.17,0,0,1-14.71,0c-4.08-2.35-4.1-6.16-.05-8.52A16.23,16.23,0,0,1,260.22,414.78Z"/><path class="cls-75" d="M303.18,439.59c4.08,2.35,4.1,6.16.05,8.52a16.23,16.23,0,0,1-14.71,0c-4.08-2.36-4.1-6.17,0-8.53A16.2,16.2,0,0,1,303.18,439.59Z"/><path class="cls-76" d="M346.14,464.39c4.08,2.35,4.1,6.16.05,8.52a16.17,16.17,0,0,1-14.71,0c-4.08-2.36-4.1-6.16-.05-8.52A16.17,16.17,0,0,1,346.14,464.39Z"/><path class="cls-77" d="M174,315.55c4.08,2.36,4.1,6.17,0,8.52a16.17,16.17,0,0,1-14.71,0c-4.05-2.34-4.1-6.16-.05-8.52A16.26,16.26,0,0,1,174,315.55Z"/><path class="cls-78" d="M217,340.36c4.08,2.35,4.1,6.16.05,8.52a16.23,16.23,0,0,1-14.71,0c-4-2.34-4.1-6.17,0-8.52A16.23,16.23,0,0,1,217,340.36Z"/><path class="cls-42" d="M259.94,365.18c4.05,2.34,4.1,6.16.05,8.52a16.26,16.26,0,0,1-14.71,0c-4.08-2.36-4.1-6.17-.05-8.53A16.2,16.2,0,0,1,259.94,365.18Z"/><path class="cls-35" d="M302.9,390c4.08,2.35,4.1,6.16.05,8.52a16.17,16.17,0,0,1-14.71,0c-4.08-2.36-4.1-6.16-.05-8.52A16.17,16.17,0,0,1,302.9,390Z"/><path class="cls-21" d="M345.86,414.78c4.08,2.36,4.1,6.17.05,8.52a16.17,16.17,0,0,1-14.71,0c-4.08-2.35-4.1-6.16-.05-8.52A16.23,16.23,0,0,1,345.86,414.78Z"/><path class="cls-79" d="M388.82,439.58c4.08,2.36,4.1,6.17.05,8.53a16.23,16.23,0,0,1-14.71,0c-4.08-2.36-4.1-6.17-.05-8.53A16.23,16.23,0,0,1,388.82,439.58Z"/></g></g><g id="Background_Complete" data-name="Background Complete" class="cls-80"><path class="cls-81" d="M350,297.41H91.47A10,10,0,0,1,81.4,286.78l9.21-176.4a11.35,11.35,0,0,1,11.18-10.63H360.31a10,10,0,0,1,10.08,10.63l-9.21,176.4A11.37,11.37,0,0,1,350,297.41Z"/><path class="cls-82" d="M349.16,297.41H90.64a10,10,0,0,1-10.07-10.63l9.21-176.4A11.36,11.36,0,0,1,101,99.75H359.48a10,10,0,0,1,10.08,10.63l-9.21,176.4A11.37,11.37,0,0,1,349.16,297.41Z"/><path class="cls-83" d="M359.2,105.06H100.68a8.44,8.44,0,0,0-.87,0c-6.67.54-6.57,10.59.1,10.59h259c6.67,0,7.82-10,1.2-10.59A8.19,8.19,0,0,0,359.2,105.06Z"/><path class="cls-84" d="M106.76,110.38a2.6,2.6,0,0,1-2.57,2.43,2.29,2.29,0,0,1-2.31-2.43,2.6,2.6,0,0,1,2.57-2.44A2.29,2.29,0,0,1,106.76,110.38Z"/><path class="cls-84" d="M115.05,110.38a2.6,2.6,0,0,1-2.57,2.43,2.29,2.29,0,0,1-2.31-2.43,2.6,2.6,0,0,1,2.57-2.44A2.29,2.29,0,0,1,115.05,110.38Z"/><path class="cls-84" d="M123.34,110.38a2.6,2.6,0,0,1-2.57,2.43,2.29,2.29,0,0,1-2.31-2.43,2.6,2.6,0,0,1,2.57-2.44A2.29,2.29,0,0,1,123.34,110.38Z"/><path class="cls-85" d="M344.49,279.8H97.15A3.63,3.63,0,0,1,93.49,276l7.58-145.07a4.1,4.1,0,0,1,4.05-3.85H352.47a3.61,3.61,0,0,1,3.65,3.85L348.55,276A4.11,4.11,0,0,1,344.49,279.8Z"/><path class="cls-82" d="M427.81,165.69h-246a10.71,10.71,0,0,0-10.53,10l-8.87,169.89a9.43,9.43,0,0,0,9.49,10h246a10.69,10.69,0,0,0,10.53-10l8.87-169.89A9.43,9.43,0,0,0,427.81,165.69Z"/><path class="cls-85" d="M418.07,352.26a7.11,7.11,0,0,0,7-6.67L434,175.7a6.28,6.28,0,0,0-6.33-6.67h-246a7.11,7.11,0,0,0-7,6.67l-8.87,169.89a6.28,6.28,0,0,0,6.32,6.67Z"/><path class="cls-86" d="M203.31,299H392.42a12.16,12.16,0,0,0,12-11.37l3.92-75.13a10.7,10.7,0,0,0-10.77-11.36H208.42a12.15,12.15,0,0,0-12,11.36l-3.92,75.13A10.71,10.71,0,0,0,203.31,299Z"/><path class="cls-87" d="M326.67,322.37l-1.56,29.9H265.06l1.56-29.9a10.05,10.05,0,0,1,9.93-9.43h41.18A8.86,8.86,0,0,1,326.67,322.37Z"/><path class="cls-87" d="M250.78,322.37l-1.56,29.9H189.17l1.56-29.9a10.05,10.05,0,0,1,9.93-9.43h41.17A8.87,8.87,0,0,1,250.78,322.37Z"/><path class="cls-88" d="M402.56,322.37,401,352.27H341l1.56-29.9a10,10,0,0,1,9.93-9.43h41.17A8.86,8.86,0,0,1,402.56,322.37Z"/><path class="cls-89" d="M300.39,260.08h80.76a8.42,8.42,0,0,0,8.29-7.88h0a7.42,7.42,0,0,0-7.47-7.88H301.21a8.41,8.41,0,0,0-8.29,7.88h0A7.42,7.42,0,0,0,300.39,260.08Z"/><path class="cls-90" d="M326.53,284H379.9a8.42,8.42,0,0,0,8.29-7.88h0a7.42,7.42,0,0,0-7.47-7.88H327.36a8.43,8.43,0,0,0-8.3,7.88h0A7.43,7.43,0,0,0,326.53,284Z"/><path class="cls-82" d="M217.68,185.9H200.26a2.27,2.27,0,0,1-2.28-2.41h0a2.57,2.57,0,0,1,2.53-2.41h17.42a2.27,2.27,0,0,1,2.29,2.41h0A2.58,2.58,0,0,1,217.68,185.9Z"/><path class="cls-82" d="M228,183.49a3.57,3.57,0,0,0,3.6,3.8,4,4,0,0,0,4-3.8,3.57,3.57,0,0,0-3.6-3.8A4,4,0,0,0,228,183.49Z"/><path class="cls-82" d="M399.87,187.38h7.89a2,2,0,0,0,1.95-1.85l.21-4.08a1.73,1.73,0,0,0-1.75-1.85h-7.89a2,2,0,0,0-1.95,1.85l-.21,4.08A1.73,1.73,0,0,0,399.87,187.38Z"/><path class="cls-82" d="M368,184.69h19.48a1.28,1.28,0,0,0,1.27-1.2h0a1.13,1.13,0,0,0-1.14-1.21H368.15a1.28,1.28,0,0,0-1.26,1.21h0A1.13,1.13,0,0,0,368,184.69Z"/><path class="cls-82" d="M334.25,184.69h19.48a1.29,1.29,0,0,0,1.27-1.2h0a1.14,1.14,0,0,0-1.14-1.21H334.37a1.29,1.29,0,0,0-1.27,1.21h0A1.14,1.14,0,0,0,334.25,184.69Z"/><path class="cls-82" d="M300.46,184.69H320a1.29,1.29,0,0,0,1.27-1.2h0a1.14,1.14,0,0,0-1.15-1.21H300.59a1.29,1.29,0,0,0-1.27,1.21h0A1.14,1.14,0,0,0,300.46,184.69Z"/><path class="cls-82" d="M266.68,184.69h19.49a1.28,1.28,0,0,0,1.26-1.2h0a1.13,1.13,0,0,0-1.14-1.21H266.81a1.28,1.28,0,0,0-1.27,1.21h0A1.14,1.14,0,0,0,266.68,184.69Z"/></g><g id="Connection"><path class="cls-91" d="M115.41,237.05a1,1,0,0,1-1-1h0a1,1,0,0,1,1-1h0a1,1,0,0,1,1,1h0a1,1,0,0,1-1,1h0Zm279.8-.28a1,1,0,0,1-.95-1h0a1,1,0,0,1,1-1h0a1,1,0,0,1,1,1h0a1,1,0,0,1-1,1h-.05Zm-279.53-5.71a1,1,0,0,1-1-1.05h0a1,1,0,0,1,1-.95h0a1,1,0,0,1,1,1h0a1,1,0,0,1-1,1h0Zm279.8-.28a1,1,0,0,1-1-1h0a1,1,0,0,1,1.05-1h0a1,1,0,0,1,.95,1h0a1,1,0,0,1-1,1h0Zm-279.54-5.72a1,1,0,0,1-1-1h0a1,1,0,0,1,1-1h0a1,1,0,0,1,1,1h0a1,1,0,0,1-1,.95h0Zm279.8-.27a1,1,0,0,1-.95-1h0a1,1,0,0,1,1-1h0a1,1,0,0,1,1,1h0a1,1,0,0,1-1,1h-.05Zm-5.94-2a1,1,0,0,1,1-1h0a1,1,0,0,1,1,1h0a1,1,0,0,1-1,1h0A1,1,0,0,1,389.8,222.82Zm-6,0a1,1,0,0,1,1-1h0a1,1,0,0,1,1,1h0a1,1,0,0,1-1,1h0A1,1,0,0,1,383.8,222.82Zm-6,0a1,1,0,0,1,1-1h0a1,1,0,0,1,1,1h0a1,1,0,0,1-1,1h0A1,1,0,0,1,377.8,222.82Zm-6,0a1,1,0,0,1,1-1h0a1,1,0,0,1,1,1h0a1,1,0,0,1-1,1h0A1,1,0,0,1,371.8,222.82Zm-6,0a1,1,0,0,1,1-1h0a1,1,0,0,1,1,1h0a1,1,0,0,1-1,1h0A1,1,0,0,1,365.8,222.82Zm-6,0a1,1,0,0,1,1-1h0a1,1,0,0,1,1,1h0a1,1,0,0,1-1,1h0A1,1,0,0,1,359.8,222.82Zm-6,0a1,1,0,0,1,1-1h0a1,1,0,0,1,1,1h0a1,1,0,0,1-1,1h0A1,1,0,0,1,353.8,222.82Zm-6,0a1,1,0,0,1,1-1h0a1,1,0,0,1,1,1h0a1,1,0,0,1-1,1h0A1,1,0,0,1,347.8,222.82Zm-6,0a1,1,0,0,1,1-1h0a1,1,0,0,1,1,1h0a1,1,0,0,1-1,1h0A1,1,0,0,1,341.8,222.82Zm-6,0a1,1,0,0,1,1-1h0a1,1,0,0,1,1,1h0a1,1,0,0,1-1,1h0A1,1,0,0,1,335.8,222.82Zm-6,0a1,1,0,0,1,1-1h0a1,1,0,0,1,1,1h0a1,1,0,0,1-1,1h0A1,1,0,0,1,329.8,222.82Zm-6,0a1,1,0,0,1,1-1h0a1,1,0,0,1,1,1h0a1,1,0,0,1-1,1h0A1,1,0,0,1,323.8,222.82Zm-6,0a1,1,0,0,1,1-1h0a1,1,0,0,1,1,1h0a1,1,0,0,1-1,1h0A1,1,0,0,1,317.8,222.82Zm-6,0a1,1,0,0,1,1-1h0a1,1,0,0,1,1,1h0a1,1,0,0,1-1,1h0A1,1,0,0,1,311.8,222.82Zm-6,0a1,1,0,0,1,1-1h0a1,1,0,0,1,1,1h0a1,1,0,0,1-1,1h0A1,1,0,0,1,305.8,222.82Zm-6,0a1,1,0,0,1,1-1h0a1,1,0,0,1,1,1h0a1,1,0,0,1-1,1h0A1,1,0,0,1,299.8,222.82Zm-6,0a1,1,0,0,1,1-1h0a1,1,0,0,1,1,1h0a1,1,0,0,1-1,1h0A1,1,0,0,1,293.8,222.82Zm-6,0a1,1,0,0,1,1-1h0a1,1,0,0,1,1,1h0a1,1,0,0,1-1,1h0A1,1,0,0,1,287.8,222.82Zm-6,0a1,1,0,0,1,1-1h0a1,1,0,0,1,1,1h0a1,1,0,0,1-1,1h0A1,1,0,0,1,281.8,222.82Zm-6,0a1,1,0,0,1,1-1h0a1,1,0,0,1,1,1h0a1,1,0,0,1-1,1h0A1,1,0,0,1,275.8,222.82Zm-6,0a1,1,0,0,1,1-1h0a1,1,0,0,1,1,1h0a1,1,0,0,1-1,1h0A1,1,0,0,1,269.8,222.82Zm-6,0a1,1,0,0,1,1-1h0a1,1,0,0,1,1,1h0a1,1,0,0,1-1,1h0A1,1,0,0,1,263.8,222.82Zm-6,0a1,1,0,0,1,1-1h0a1,1,0,0,1,1,1h0a1,1,0,0,1-1,1h0A1,1,0,0,1,257.8,222.82Zm-6,0a1,1,0,0,1,1-1h0a1,1,0,0,1,1,1h0a1,1,0,0,1-1,1h0A1,1,0,0,1,251.8,222.82Zm-6,0a1,1,0,0,1,1-1h0a1,1,0,0,1,1,1h0a1,1,0,0,1-1,1h0A1,1,0,0,1,245.8,222.82Zm-6,0a1,1,0,0,1,1-1h0a1,1,0,0,1,1,1h0a1,1,0,0,1-1,1h0A1,1,0,0,1,239.8,222.82Zm-6,0a1,1,0,0,1,1-1h0a1,1,0,0,1,1,1h0a1,1,0,0,1-1,1h0A1,1,0,0,1,233.8,222.82Zm-6,0a1,1,0,0,1,1-1h0a1,1,0,0,1,1,1h0a1,1,0,0,1-1,1h0A1,1,0,0,1,227.8,222.82Zm-6,0a1,1,0,0,1,1-1h0a1,1,0,0,1,1,1h0a1,1,0,0,1-1,1h0A1,1,0,0,1,221.8,222.82Zm-6,0a1,1,0,0,1,1-1h0a1,1,0,0,1,1,1h0a1,1,0,0,1-1,1h0A1,1,0,0,1,215.8,222.82Zm-6,0a1,1,0,0,1,1-1h0a1,1,0,0,1,1,1h0a1,1,0,0,1-1,1h0A1,1,0,0,1,209.8,222.82Zm-6,0a1,1,0,0,1,1-1h0a1,1,0,0,1,1,1h0a1,1,0,0,1-1,1h0A1,1,0,0,1,203.8,222.82Zm-6,0a1,1,0,0,1,1-1h0a1,1,0,0,1,1,1h0a1,1,0,0,1-1,1h0A1,1,0,0,1,197.8,222.82Zm-6,0a1,1,0,0,1,1-1h0a1,1,0,0,1,1,1h0a1,1,0,0,1-1,1h0A1,1,0,0,1,191.8,222.82Zm-6,0a1,1,0,0,1,1-1h0a1,1,0,0,1,1,1h0a1,1,0,0,1-1,1h0A1,1,0,0,1,185.8,222.82Zm-6,0a1,1,0,0,1,1-1h0a1,1,0,0,1,1,1h0a1,1,0,0,1-1,1h0A1,1,0,0,1,179.8,222.82Zm-6,0a1,1,0,0,1,1-1h0a1,1,0,0,1,1,1h0a1,1,0,0,1-1,1h0A1,1,0,0,1,173.8,222.82Zm-6,0a1,1,0,0,1,1-1h0a1,1,0,0,1,1,1h0a1,1,0,0,1-1,1h0A1,1,0,0,1,167.8,222.82Zm-6,0a1,1,0,0,1,1-1h0a1,1,0,0,1,1,1h0a1,1,0,0,1-1,1h0A1,1,0,0,1,161.8,222.82Zm-6,0a1,1,0,0,1,1-1h0a1,1,0,0,1,1,1h0a1,1,0,0,1-1,1h0A1,1,0,0,1,155.8,222.82Zm-6,0a1,1,0,0,1,1-1h0a1,1,0,0,1,1,1h0a1,1,0,0,1-1,1h0A1,1,0,0,1,149.8,222.82Zm-6,0a1,1,0,0,1,1-1h0a1,1,0,0,1,1,1h0a1,1,0,0,1-1,1h0A1,1,0,0,1,143.8,222.82Zm-6,0a1,1,0,0,1,1-1h0a1,1,0,0,1,1,1h0a1,1,0,0,1-1,1h0A1,1,0,0,1,137.8,222.82Zm-6,0a1,1,0,0,1,1-1h0a1,1,0,0,1,1,1h0a1,1,0,0,1-1,1h0A1,1,0,0,1,131.8,222.82Zm-6,0a1,1,0,0,1,1-1h0a1,1,0,0,1,1,1h0a1,1,0,0,1-1,1h0A1,1,0,0,1,125.8,222.82Zm-6,0a1,1,0,0,1,1-1h0a1,1,0,0,1,1,1h0a1,1,0,0,1-1,1h0A1,1,0,0,1,119.8,222.82Z"/><path class="cls-91" d="M256.3,278.29a1,1,0,0,1-1-1h0a1,1,0,0,1,1-.95h0a1,1,0,0,1,1,1h0a1,1,0,0,1-1,1h-.05Zm.27-6a1,1,0,0,1-1-1h0a1,1,0,0,1,1.05-1h0a1,1,0,0,1,.95,1.05h0a1,1,0,0,1-1,.95h0Zm.26-6a1,1,0,0,1-.95-1.05h0a1,1,0,0,1,1-.95h0a1,1,0,0,1,.95,1h0a1,1,0,0,1-1,1h-.05Zm.27-6a1,1,0,0,1-1-1h0a1,1,0,0,1,1-1h0a1,1,0,0,1,1,1.05h0a1,1,0,0,1-1,.95h0Zm.26-6a1,1,0,0,1-1-1h0a1,1,0,0,1,1.05-1h0a1,1,0,0,1,.95,1h0a1,1,0,0,1-1,1h0Zm.26-6a1,1,0,0,1-.95-1h0a1,1,0,0,1,1-.95h0a1,1,0,0,1,1,1h0a1,1,0,0,1-1,.95h-.05Zm.27-6a1,1,0,0,1-1-1h0a1,1,0,0,1,1.05-1h0a1,1,0,0,1,.95,1h0a1,1,0,0,1-1,1h0Zm.26-6a1,1,0,0,1-.95-1.05h0a1,1,0,0,1,1-.95h0a1,1,0,0,1,1,1h0a1,1,0,0,1-1,1h-.05Zm.27-6a1,1,0,0,1-1-1h0a1,1,0,0,1,1.05-1h0a1,1,0,0,1,.95,1h0a1,1,0,0,1-1,1h0Z"/></g><g id="Smartphone"><path class="cls-92" d="M414.7,343.15H371.31a3.08,3.08,0,0,1-3.1-3.23L372.05,253a3.42,3.42,0,0,1,3.38-3.24h43.39a3.08,3.08,0,0,1,3.09,3.24l-3.83,86.92A3.42,3.42,0,0,1,414.7,343.15Z"/><path class="cls-91" d="M413.17,343.15H369.78a3.08,3.08,0,0,1-3.1-3.23L370.51,253a3.43,3.43,0,0,1,3.38-3.24h43.4a3.08,3.08,0,0,1,3.09,3.24l-3.83,86.92A3.42,3.42,0,0,1,413.17,343.15Z"/><path class="cls-93" d="M394.57,341.31h-6a.72.72,0,0,1-.72-.75v-.2a.8.8,0,0,1,.78-.75h6a.71.71,0,0,1,.72.75v.2A.8.8,0,0,1,394.57,341.31Z"/><path class="cls-94" d="M371.14,337.61a1.57,1.57,0,0,1-1.59-1.66l3.61-81.83a1.75,1.75,0,0,1,1.73-1.66h41.16a1.57,1.57,0,0,1,1.58,1.66L414,336a1.74,1.74,0,0,1-1.73,1.66Z"/><path class="cls-91" d="M388.84,308h-6.4a1.16,1.16,0,0,1-.85-.36,1.19,1.19,0,0,1-.33-.87l.49-11.16a.16.16,0,0,0,0-.13.22.22,0,0,0-.13-.05H378.2a1.15,1.15,0,0,1-1.09-.74,1.19,1.19,0,0,1,.3-1.33l8.34-8a1.34,1.34,0,0,1,.89-.34,1.15,1.15,0,0,1,.82.36l7.64,8a1.2,1.2,0,0,1,.23,1.3,1.25,1.25,0,0,1-1.14.76h-3.38a.25.25,0,0,0-.24.23l-.49,11.15A1.26,1.26,0,0,1,388.84,308Zm-2.23-22a.25.25,0,0,0-.17.07l-8.34,8a.21.21,0,0,0-.06.24.15.15,0,0,0,.16.11h3.38a1.16,1.16,0,0,1,1.17,1.23l-.49,11.15a.14.14,0,0,0,.05.13.15.15,0,0,0,.13.06h6.4a.26.26,0,0,0,.24-.23l.49-11.16a1.26,1.26,0,0,1,1.24-1.18h3.37a.25.25,0,0,0,.23-.16.19.19,0,0,0,0-.21l-7.64-8A.17.17,0,0,0,386.61,286Z"/><path class="cls-91" d="M401.2,308h0a1.16,1.16,0,0,1-.82-.37l-7.64-8a1.18,1.18,0,0,1-.23-1.29,1.25,1.25,0,0,1,1.14-.76H397a.26.26,0,0,0,.24-.23l.49-11.15A1.26,1.26,0,0,1,399,285h6.4a1.18,1.18,0,0,1,1.18,1.23l-.49,11.15a.18.18,0,0,0,0,.14.2.2,0,0,0,.13.05h3.38a1.15,1.15,0,0,1,1.09.73,1.21,1.21,0,0,1-.3,1.34l-8.34,8A1.27,1.27,0,0,1,401.2,308Zm-7.77-9.05,7.64,8c0,.05.05.05.13.06a.25.25,0,0,0,.17-.07l8.34-8a.22.22,0,0,0,.06-.25.15.15,0,0,0-.16-.1h-3.38a1.18,1.18,0,0,1-.85-.36,1.17,1.17,0,0,1-.32-.87l.49-11.15a.23.23,0,0,0-.05-.14.18.18,0,0,0-.13,0H399a.25.25,0,0,0-.24.23l-.49,11.15a1.26,1.26,0,0,1-1.24,1.19h-3.38a.24.24,0,0,0-.22.15.19.19,0,0,0,0,.21Z"/><polygon class="cls-95" points="396.99 249.76 387.17 249.76 369.7 343.15 379.53 343.15 396.99 249.76"/><polygon class="cls-96" points="408.28 249.76 405.82 249.76 388.36 343.15 390.82 343.15 408.28 249.76"/><path class="cls-93" d="M396.09,251a.58.58,0,0,1-.58.54A.52.52,0,0,1,395,251a.57.57,0,0,1,.57-.55A.53.53,0,0,1,396.09,251Z"/></g><g id="Notebook"><path class="cls-92" d="M344.53,403.51H179.06a3.83,3.83,0,0,1-3.85-4L180,291.35a4.26,4.26,0,0,1,4.21-4H349.66a3.84,3.84,0,0,1,3.85,4l-4.77,108.13A4.26,4.26,0,0,1,344.53,403.51Z"/><path class="cls-91" d="M342.63,403.51H177.15a3.83,3.83,0,0,1-3.85-4l4.77-108.13a4.25,4.25,0,0,1,4.2-4H347.75a3.83,3.83,0,0,1,3.85,4l-4.77,108.13A4.26,4.26,0,0,1,342.63,403.51Z"/><path class="cls-92" d="M344.46,405.26H179A4.28,4.28,0,0,0,175,408a.93.93,0,0,0,.88,1.26H347.16a1,1,0,0,0,1-1.26A3.83,3.83,0,0,0,344.46,405.26Z"/><path class="cls-91" d="M315.42,405.26H150A4.28,4.28,0,0,0,146,408a.93.93,0,0,0,.88,1.26H318.13a1,1,0,0,0,1-1.26A3.84,3.84,0,0,0,315.42,405.26Z"/><path class="cls-97" d="M247.55,407.53H217.62a1.9,1.9,0,0,0-1.58,1.76H249A1.71,1.71,0,0,0,247.55,407.53Z"/><path class="cls-94" d="M181.35,397.15a1.51,1.51,0,0,1-1.52-1.59l4.42-100.29a1.68,1.68,0,0,1,1.66-1.59H343.55a1.51,1.51,0,0,1,1.52,1.59l-4.42,100.29a1.68,1.68,0,0,1-1.66,1.59Z"/><path class="cls-91" d="M254,364.35H243.22a1.64,1.64,0,0,1-1.64-1.71l.83-18.71a.66.66,0,0,0-.18-.47.61.61,0,0,0-.46-.2h-5.66a1.6,1.6,0,0,1-1.52-1,1.72,1.72,0,0,1,.42-1.88L249,327a1.7,1.7,0,0,1,2.39,0l12.81,13.41a1.65,1.65,0,0,1,.31,1.81,1.72,1.72,0,0,1-1.6,1.06h-5.66a.75.75,0,0,0-.74.71l-.83,18.71A1.76,1.76,0,0,1,254,364.35Zm-3.74-36.87a.75.75,0,0,0-.51.21l-14,13.41a.68.68,0,0,0-.18.77.61.61,0,0,0,.59.39h5.66a1.64,1.64,0,0,1,1.64,1.71l-.83,18.71a.61.61,0,0,0,.17.47.63.63,0,0,0,.47.2H254a.75.75,0,0,0,.74-.71l.83-18.71a1.76,1.76,0,0,1,1.74-1.67h5.66a.72.72,0,0,0,.68-.46.66.66,0,0,0-.11-.72l-12.82-13.4A.63.63,0,0,0,250.21,327.48Z"/><path class="cls-91" d="M274.69,364.35a1.61,1.61,0,0,1-1.19-.51l-12.81-13.4a1.63,1.63,0,0,1-.32-1.81,1.76,1.76,0,0,1,1.61-1.06h5.66a.75.75,0,0,0,.74-.71l.82-18.71a1.76,1.76,0,0,1,1.74-1.67h10.74a1.62,1.62,0,0,1,1.63,1.71l-.82,18.71a.63.63,0,0,0,.63.67h5.67a1.6,1.6,0,0,1,1.51,1,1.71,1.71,0,0,1-.42,1.88l-14,13.4A1.72,1.72,0,0,1,274.69,364.35Zm-13.28-14.6,12.81,13.4a.71.71,0,0,0,1,0l14-13.41a.69.69,0,0,0,.19-.77.61.61,0,0,0-.59-.39h-5.66a1.64,1.64,0,0,1-1.64-1.71l.83-18.71a.66.66,0,0,0-.18-.47.61.61,0,0,0-.46-.2H270.94a.74.74,0,0,0-.73.71l-.83,18.71a1.76,1.76,0,0,1-1.74,1.67H262a.74.74,0,0,0-.69.46.67.67,0,0,0,.12.72Z"/><polygon class="cls-95" points="238.09 287.32 212.05 287.32 190.33 403.51 216.36 403.51 238.09 287.32"/><polygon class="cls-95" points="247.72 287.32 244.66 287.32 222.93 403.51 225.99 403.51 247.72 287.32"/><polygon class="cls-96" points="335.24 287.32 323.25 287.32 301.52 403.51 313.51 403.51 335.24 287.32"/><path class="cls-93" d="M266,290.67a1.25,1.25,0,0,1-1.23,1.18,1.11,1.11,0,0,1-1.12-1.18,1.24,1.24,0,0,1,1.22-1.17A1.12,1.12,0,0,1,266,290.67Z"/></g><g id="Tablet"><path class="cls-92" d="M152,366H71.58a3.84,3.84,0,0,1-3.85-4L72.5,253.79a4.26,4.26,0,0,1,4.21-4h80.43a3.83,3.83,0,0,1,3.85,4l-4.77,108.14A4.25,4.25,0,0,1,152,366Z"/><path class="cls-91" d="M150.11,366H69.68a3.82,3.82,0,0,1-3.85-4l4.76-108.14a4.26,4.26,0,0,1,4.21-4h80.44a3.84,3.84,0,0,1,3.85,4l-4.77,108.14A4.26,4.26,0,0,1,150.11,366Z"/><path class="cls-93" d="M113.75,363.66h-7.5a.89.89,0,0,1-.9-.93v-.24a1,1,0,0,1,1-.94h7.5a.89.89,0,0,1,.89.94v.24A1,1,0,0,1,113.75,363.66Z"/><path class="cls-94" d="M71.37,359.05a2,2,0,0,1-2-2.06l4.49-101.81A2.17,2.17,0,0,1,76,253.12H153.7a2,2,0,0,1,2,2.06L151.18,357a2.17,2.17,0,0,1-2.15,2.06Z"/><path class="cls-91" d="M105.11,322.7H95.72a1.49,1.49,0,0,1-1.49-1.56L95,304.78a.5.5,0,0,0-.49-.51h-5a1.47,1.47,0,0,1-1.38-.93,1.53,1.53,0,0,1,.38-1.7l12.24-11.73a1.58,1.58,0,0,1,1.13-.44,1.5,1.5,0,0,1,1,.46l11.2,11.72a1.51,1.51,0,0,1,.29,1.65,1.6,1.6,0,0,1-1.46,1h-5a.6.6,0,0,0-.59.56l-.72,16.36A1.6,1.6,0,0,1,105.11,322.7Zm-3.28-32.23a.61.61,0,0,0-.4.16L89.19,302.36a.55.55,0,0,0-.14.61.46.46,0,0,0,.46.3h4.95A1.49,1.49,0,0,1,96,304.83l-.72,16.36a.46.46,0,0,0,.13.36.48.48,0,0,0,.36.15h9.39a.59.59,0,0,0,.58-.56l.72-16.36a1.61,1.61,0,0,1,1.59-1.51h5a.59.59,0,0,0,.54-.37.52.52,0,0,0-.09-.56l-11.21-11.72a.47.47,0,0,0-.34-.15Z"/><path class="cls-91" d="M123.24,322.7h0a1.5,1.5,0,0,1-1-.46L111,310.52a1.51,1.51,0,0,1-.29-1.65,1.59,1.59,0,0,1,1.46-1h4.95a.6.6,0,0,0,.59-.56l.72-16.35a1.61,1.61,0,0,1,1.58-1.52h9.39a1.45,1.45,0,0,1,1.08.46,1.48,1.48,0,0,1,.41,1.1l-.72,16.36a.46.46,0,0,0,.13.36.49.49,0,0,0,.36.15h4.95a1.47,1.47,0,0,1,1.39.93,1.58,1.58,0,0,1-.38,1.71l-12.24,11.72A1.56,1.56,0,0,1,123.24,322.7Zm-11.12-13.8a.59.59,0,0,0-.54.37.51.51,0,0,0,.09.56l11.21,11.72a.45.45,0,0,0,.34.15.65.65,0,0,0,.42-.16l12.24-11.72a.56.56,0,0,0,.14-.61.45.45,0,0,0-.45-.31h-5a1.47,1.47,0,0,1-1.49-1.56l.72-16.35a.5.5,0,0,0-.13-.37.48.48,0,0,0-.36-.15H120a.6.6,0,0,0-.58.56l-.72,16.36a1.61,1.61,0,0,1-1.59,1.52h-4.95Z"/><polygon class="cls-95" points="130.62 249.76 104.58 249.76 82.86 365.95 108.89 365.95 130.62 249.76"/><polygon class="cls-96" points="140.25 249.76 137.18 249.76 115.46 365.95 118.52 365.95 140.25 249.76"/><path class="cls-93" d="M115.63,251.26a.71.71,0,0,1-.71.68.64.64,0,0,1-.65-.68.72.72,0,0,1,.71-.68A.64.64,0,0,1,115.63,251.26Z"/></g><rect class="cls-98" x="238.04" y="181.76" width="2.87" height="4.3"/><rect class="cls-98" x="233.16" y="181.76" width="2.87" height="4.3"/><rect class="cls-98" x="243.01" y="181.76" width="2.87" height="4.3"/><rect class="cls-98" x="247.97" y="181.76" width="2.87" height="4.3"/><rect class="cls-98" x="252.94" y="181.76" width="2.87" height="4.3"/><rect class="cls-98" x="257.9" y="181.76" width="2.87" height="4.3"/><rect class="cls-98" x="262.86" y="181.76" width="2.87" height="4.3"/><rect class="cls-98" x="267.83" y="181.76" width="2.87" height="4.3"/><rect class="cls-98" x="272.79" y="181.76" width="2.87" height="4.3"/><rect class="cls-98" x="238.04" y="242.48" width="2.87" height="4.3"/><rect class="cls-98" x="233.14" y="242.48" width="2.87" height="4.3"/><rect class="cls-98" x="243.01" y="242.48" width="2.87" height="4.3"/><rect class="cls-98" x="247.97" y="242.48" width="2.87" height="4.3"/><rect class="cls-98" x="252.94" y="242.48" width="2.87" height="4.3"/><rect class="cls-98" x="257.9" y="242.48" width="2.87" height="4.3"/><rect class="cls-98" x="262.86" y="242.48" width="2.87" height="4.3"/><rect class="cls-98" x="267.83" y="242.48" width="2.87" height="4.3"/><rect class="cls-98" x="273.18" y="242.48" width="2.87" height="4.3"/><rect class="cls-98" x="282.5" y="197.89" width="4.3" height="2.87"/><rect class="cls-98" x="282.5" y="192.6" width="4.3" height="2.87"/><rect class="cls-98" x="282.5" y="202.85" width="4.3" height="2.87"/><rect class="cls-98" x="282.5" y="207.82" width="4.3" height="2.87"/><rect class="cls-98" x="282.5" y="212.78" width="4.3" height="2.87"/><rect class="cls-98" x="282.5" y="217.75" width="4.3" height="2.87"/><rect class="cls-98" x="282.5" y="222.71" width="4.3" height="2.87"/><rect class="cls-98" x="282.5" y="227.67" width="4.3" height="2.87"/><rect class="cls-98" x="282.5" y="232.36" width="4.3" height="2.87"/><rect class="cls-98" x="222.1" y="197.89" width="4.3" height="2.87"/><rect class="cls-98" x="222.1" y="192.65" width="4.3" height="2.87"/><rect class="cls-98" x="222.1" y="202.85" width="4.3" height="2.87"/><rect class="cls-98" x="222.1" y="207.82" width="4.3" height="2.87"/><rect class="cls-98" x="222.1" y="212.78" width="4.3" height="2.87"/><rect class="cls-98" x="222.1" y="217.75" width="4.3" height="2.87"/><rect class="cls-98" x="222.1" y="222.71" width="4.3" height="2.87"/><rect class="cls-98" x="222.1" y="227.67" width="4.3" height="2.87"/><rect class="cls-98" x="222.1" y="232.47" width="4.3" height="2.87"/><path class="cls-99" d="M275.32,242.68h-41.9a7.51,7.51,0,0,1-7.51-7.51V193.26a7.5,7.5,0,0,1,7.51-7.5h41.9a7.5,7.5,0,0,1,7.51,7.5v41.91A7.51,7.51,0,0,1,275.32,242.68Z"/><path class="cls-100" d="M270,237.39H238.7a7.5,7.5,0,0,1-7.5-7.51V198.55a7.5,7.5,0,0,1,7.5-7.51H270a7.5,7.5,0,0,1,7.5,7.51v31.33A7.5,7.5,0,0,1,270,237.39Z"/><path class="cls-101" d="M238.15,237.39a7,7,0,0,1-7-6.95V198a7,7,0,0,1,7-7h.64a7,7,0,0,0-5.44,6.79v32.44a7,7,0,0,0,7,6.95"/><path class="cls-100" d="M267.37,237.39H238.15a7,7,0,0,1-7-6.95V198a7,7,0,0,1,7-7h32.44a7,7,0,0,1,7,7v32.45a7,7,0,0,1-7,6.95"/><path class="cls-100" d="M225.91,231.26V192.71a7,7,0,0,1,7-7h43a7,7,0,0,1,6.95,7v43a7,7,0,0,1-6.95,7h-43a7,7,0,0,1-7-7"/><circle class="cls-82" cx="231.43" cy="189.11" r="0.69"/><circle class="cls-82" cx="235.84" cy="188.01" r="0.39"/><circle class="cls-82" cx="236.96" cy="188.01" r="0.39"/><circle class="cls-82" cx="238.08" cy="188.01" r="0.39"/><circle class="cls-82" cx="239.2" cy="188.01" r="0.39"/><circle class="cls-82" cx="240.31" cy="188.01" r="0.39"/><circle class="cls-82" cx="241.43" cy="188.01" r="0.39"/><circle class="cls-82" cx="242.55" cy="188.01" r="0.39"/><circle class="cls-82" cx="243.67" cy="188.01" r="0.39"/><circle class="cls-82" cx="244.78" cy="188.01" r="0.39"/><circle class="cls-82" cx="245.9" cy="188.01" r="0.39"/><circle class="cls-82" cx="236.94" cy="189.11" r="0.39"/><circle class="cls-82" cx="238.06" cy="189.11" r="0.39"/><circle class="cls-82" cx="239.18" cy="189.11" r="0.39"/><circle class="cls-82" cx="240.3" cy="189.11" r="0.39"/><circle class="cls-82" cx="241.41" cy="189.11" r="0.39"/><circle class="cls-82" cx="242.53" cy="189.11" r="0.39"/><circle class="cls-82" cx="243.65" cy="189.11" r="0.39"/><circle class="cls-82" cx="244.76" cy="189.11" r="0.39"/><circle class="cls-82" cx="245.88" cy="189.11" r="0.39"/><circle class="cls-82" cx="247" cy="189.11" r="0.39"/><circle class="cls-82" cx="229.39" cy="239.2" r="0.39"/><circle class="cls-82" cx="279.64" cy="239.2" r="0.39"/><circle class="cls-82" cx="279.64" cy="189.4" r="0.39"/><path class="cls-100" d="M275,200.25c0,.58,0,1.2,0,1.89"/><path class="cls-100" d="M267.78,193.12s3.56-.29,5.46,1.82a6.31,6.31,0,0,1,1.66,3.67"/><path class="cls-85" d="M236,221.82V208.29h2.77v11.23h5.84v2.3Z"/><path class="cls-85" d="M246.54,221.82V208.29h2.77v11.23h5.84v2.3Z"/><path class="cls-85" d="M257.05,221.82V208.29h4.25l2.2,6.21c.09.29.19.66.31,1.12s.24,1,.36,1.49.23,1,.34,1.56.19.93.26,1.3h-.54c.07-.36.16-.79.26-1.29s.22-1,.34-1.55.24-1,.36-1.5.22-.84.32-1.13l2.16-6.21h4.26v13.53h-2.78v-6.38c0-.29,0-.66,0-1.11s0-.91,0-1.43,0-1,0-1.54,0-1,0-1.47h.18c-.12.51-.25,1-.38,1.56s-.28,1.06-.43,1.56-.27,1-.4,1.38l-.33,1.05-2.24,6.38h-2.33l-2.28-6.38c-.09-.28-.2-.62-.33-1s-.26-.87-.4-1.37-.29-1-.43-1.56-.29-1.06-.41-1.58h.21c0,.44,0,.92,0,1.43s0,1,0,1.55,0,1,0,1.44,0,.82,0,1.13v6.38Z"/></g></svg>