<svg xmlns="http://www.w3.org/2000/svg" xmlns:xlink="http://www.w3.org/1999/xlink" viewBox="0 0 592 500"><defs><style>.cls-1,.cls-100{fill:none;}.cls-2,.cls-94,.cls-95,.cls-96,.cls-97{fill:#fff;}.cls-3{clip-path:url(#clip-path);}.cls-4{opacity:0.32;}.cls-5{fill:url(#radial-gradient);}.cls-6{fill:url(#radial-gradient-2);}.cls-7{fill:url(#radial-gradient-3);}.cls-8,.cls-86,.cls-87,.cls-90,.cls-93,.cls-94,.cls-95,.cls-96,.cls-97{isolation:isolate;}.cls-9{fill:url(#radial-gradient-4);}.cls-10{fill:url(#radial-gradient-5);}.cls-11{fill:url(#radial-gradient-6);}.cls-12{fill:url(#radial-gradient-7);}.cls-13{fill:url(#radial-gradient-8);}.cls-14{fill:url(#radial-gradient-9);}.cls-15{fill:url(#radial-gradient-10);}.cls-16{fill:url(#radial-gradient-11);}.cls-17{fill:url(#radial-gradient-12);}.cls-18{fill:url(#radial-gradient-13);}.cls-19{fill:url(#radial-gradient-14);}.cls-20{fill:url(#radial-gradient-15);}.cls-21{fill:url(#radial-gradient-16);}.cls-22{fill:url(#radial-gradient-17);}.cls-23{fill:url(#radial-gradient-18);}.cls-24{fill:url(#radial-gradient-19);}.cls-25{fill:url(#radial-gradient-20);}.cls-26{fill:url(#radial-gradient-21);}.cls-27{fill:url(#radial-gradient-22);}.cls-28{fill:url(#radial-gradient-23);}.cls-29{fill:url(#radial-gradient-24);}.cls-30{fill:url(#radial-gradient-25);}.cls-31{fill:url(#radial-gradient-26);}.cls-32{fill:url(#radial-gradient-27);}.cls-33{fill:url(#radial-gradient-28);}.cls-34{fill:url(#radial-gradient-29);}.cls-35{fill:url(#radial-gradient-30);}.cls-36{fill:url(#radial-gradient-31);}.cls-37{fill:url(#radial-gradient-32);}.cls-38{fill:url(#radial-gradient-33);}.cls-39{fill:url(#radial-gradient-34);}.cls-40{fill:url(#radial-gradient-35);}.cls-41{fill:url(#radial-gradient-36);}.cls-42{fill:url(#radial-gradient-37);}.cls-43{fill:url(#radial-gradient-38);}.cls-44{fill:url(#radial-gradient-39);}.cls-45{fill:url(#radial-gradient-40);}.cls-46{fill:url(#radial-gradient-41);}.cls-47{fill:url(#radial-gradient-42);}.cls-48{fill:url(#radial-gradient-43);}.cls-49{fill:url(#radial-gradient-44);}.cls-50{fill:url(#radial-gradient-45);}.cls-51{fill:url(#radial-gradient-46);}.cls-52{fill:url(#radial-gradient-47);}.cls-53{fill:url(#radial-gradient-48);}.cls-54{fill:url(#radial-gradient-49);}.cls-55{fill:url(#radial-gradient-51);}.cls-56{fill:url(#radial-gradient-52);}.cls-57{fill:url(#radial-gradient-53);}.cls-58{fill:url(#radial-gradient-55);}.cls-59{fill:url(#radial-gradient-56);}.cls-60{fill:url(#radial-gradient-58);}.cls-61{fill:url(#radial-gradient-59);}.cls-62{fill:url(#radial-gradient-60);}.cls-63{fill:url(#radial-gradient-62);}.cls-64{fill:url(#radial-gradient-63);}.cls-65{fill:url(#radial-gradient-64);}.cls-66{fill:url(#radial-gradient-65);}.cls-67{fill:url(#radial-gradient-66);}.cls-68{fill:url(#radial-gradient-67);}.cls-69{fill:url(#radial-gradient-68);}.cls-70{fill:url(#radial-gradient-69);}.cls-71{fill:url(#radial-gradient-70);}.cls-72{fill:url(#radial-gradient-71);}.cls-73{fill:url(#radial-gradient-72);}.cls-74{fill:url(#radial-gradient-73);}.cls-75{fill:url(#radial-gradient-74);}.cls-76{fill:url(#radial-gradient-75);}.cls-77{fill:url(#radial-gradient-76);}.cls-78{fill:url(#radial-gradient-77);}.cls-79{fill:url(#radial-gradient-78);}.cls-80{fill:url(#radial-gradient-82);}.cls-81{opacity:0.69;}.cls-82{fill:#e0e0e0;}.cls-83{fill:#d7e4f9;}.cls-84{fill:#779ce8;}.cls-85{fill:#fafafa;}.cls-86,.cls-90{fill:#ebebeb;}.cls-86{opacity:0.4;}.cls-87{fill:#f0f0f0;opacity:0.6;}.cls-88{fill:#55c2f9;stroke-linecap:round;stroke-linejoin:round;opacity:0.47;}.cls-100,.cls-88{stroke:#779ce8;stroke-width:0.75px;}.cls-89{fill:#b06bf2;opacity:0.45;}.cls-90,.cls-94{opacity:0.9;}.cls-91{fill:#407bff;}.cls-92{fill:#263238;}.cls-93,.cls-96{opacity:0.3;}.cls-95{opacity:0.2;}.cls-97{opacity:0.8;}.cls-98{fill:#e24b65;}.cls-99{fill:#1760fc;}.cls-100{stroke-miterlimit:10;}.cls-101{fill:#4073bf;}</style><clipPath id="clip-path"><rect class="cls-1" y="222.5" width="547.4" height="276.98"/></clipPath><radialGradient id="radial-gradient" cx="278.59" cy="116.04" r="726.58" gradientTransform="matrix(1, 0, 0, -1, 0.44, 500.8)" gradientUnits="userSpaceOnUse"><stop offset="0" stop-color="#acc3fe"/><stop offset="1" stop-color="#c3d2ff" stop-opacity="0"/></radialGradient><radialGradient id="radial-gradient-2" cx="278.59" cy="116.04" r="726.58" xlink:href="#radial-gradient"/><radialGradient id="radial-gradient-3" cx="278.59" cy="116.04" r="726.58" xlink:href="#radial-gradient"/><radialGradient id="radial-gradient-4" cx="278.59" cy="116.04" r="726.58" xlink:href="#radial-gradient"/><radialGradient id="radial-gradient-5" cx="278.59" cy="116.04" r="726.58" xlink:href="#radial-gradient"/><radialGradient id="radial-gradient-6" cx="278.59" cy="116.04" r="726.58" xlink:href="#radial-gradient"/><radialGradient id="radial-gradient-7" cx="278.59" cy="116.04" r="726.58" xlink:href="#radial-gradient"/><radialGradient id="radial-gradient-8" cx="278.59" cy="116.04" r="726.58" xlink:href="#radial-gradient"/><radialGradient id="radial-gradient-9" cx="278.59" cy="116.04" r="726.58" xlink:href="#radial-gradient"/><radialGradient id="radial-gradient-10" cx="278.59" cy="116.04" r="726.58" xlink:href="#radial-gradient"/><radialGradient id="radial-gradient-11" cx="278.59" cy="116.04" r="726.58" xlink:href="#radial-gradient"/><radialGradient id="radial-gradient-12" cx="278.59" cy="116.04" r="726.58" xlink:href="#radial-gradient"/><radialGradient id="radial-gradient-13" cx="278.59" cy="116.04" r="726.58" xlink:href="#radial-gradient"/><radialGradient id="radial-gradient-14" cx="278.59" cy="116.04" r="726.58" xlink:href="#radial-gradient"/><radialGradient id="radial-gradient-15" cx="278.59" cy="116.04" r="726.58" xlink:href="#radial-gradient"/><radialGradient id="radial-gradient-16" cx="278.59" cy="116.04" r="726.58" xlink:href="#radial-gradient"/><radialGradient id="radial-gradient-17" cx="278.59" cy="116.04" r="726.58" xlink:href="#radial-gradient"/><radialGradient id="radial-gradient-18" cx="278.59" cy="116.04" r="726.58" xlink:href="#radial-gradient"/><radialGradient id="radial-gradient-19" cx="278.59" cy="116.04" r="726.58" xlink:href="#radial-gradient"/><radialGradient id="radial-gradient-20" cx="278.59" cy="116.04" r="726.58" xlink:href="#radial-gradient"/><radialGradient id="radial-gradient-21" cx="278.59" cy="116.04" r="726.58" xlink:href="#radial-gradient"/><radialGradient id="radial-gradient-22" cx="278.59" cy="116.04" r="726.58" xlink:href="#radial-gradient"/><radialGradient id="radial-gradient-23" cx="278.59" cy="116.04" r="726.58" xlink:href="#radial-gradient"/><radialGradient id="radial-gradient-24" cx="278.59" cy="116.04" r="726.58" xlink:href="#radial-gradient"/><radialGradient id="radial-gradient-25" cx="278.59" cy="116.04" r="726.58" xlink:href="#radial-gradient"/><radialGradient id="radial-gradient-26" cx="278.59" cy="116.04" r="726.58" xlink:href="#radial-gradient"/><radialGradient id="radial-gradient-27" cx="278.59" cy="116.04" r="726.58" xlink:href="#radial-gradient"/><radialGradient id="radial-gradient-28" cx="278.59" cy="116.04" r="726.58" xlink:href="#radial-gradient"/><radialGradient id="radial-gradient-29" cx="278.59" cy="116.04" r="726.58" xlink:href="#radial-gradient"/><radialGradient id="radial-gradient-30" cx="278.59" cy="116.04" r="726.58" xlink:href="#radial-gradient"/><radialGradient id="radial-gradient-31" cx="278.59" cy="116.04" r="726.58" xlink:href="#radial-gradient"/><radialGradient id="radial-gradient-32" cx="278.59" cy="116.04" r="726.58" xlink:href="#radial-gradient"/><radialGradient id="radial-gradient-33" cx="278.59" cy="116.04" r="726.58" xlink:href="#radial-gradient"/><radialGradient id="radial-gradient-34" cx="278.59" cy="116.04" r="726.58" xlink:href="#radial-gradient"/><radialGradient id="radial-gradient-35" cx="278.59" cy="116.04" r="726.58" xlink:href="#radial-gradient"/><radialGradient id="radial-gradient-36" cx="278.59" cy="116.04" r="726.58" xlink:href="#radial-gradient"/><radialGradient id="radial-gradient-37" cx="278.59" cy="116.04" r="726.58" xlink:href="#radial-gradient"/><radialGradient id="radial-gradient-38" cx="278.59" cy="116.04" r="726.58" xlink:href="#radial-gradient"/><radialGradient id="radial-gradient-39" cx="278.59" cy="116.04" r="726.58" xlink:href="#radial-gradient"/><radialGradient id="radial-gradient-40" cx="278.59" cy="116.04" r="726.58" xlink:href="#radial-gradient"/><radialGradient id="radial-gradient-41" cx="278.59" cy="116.04" r="726.58" xlink:href="#radial-gradient"/><radialGradient id="radial-gradient-42" cx="278.59" cy="116.04" r="726.58" xlink:href="#radial-gradient"/><radialGradient id="radial-gradient-43" cx="278.59" cy="116.04" r="726.58" xlink:href="#radial-gradient"/><radialGradient id="radial-gradient-44" cx="278.59" cy="116.04" r="726.58" xlink:href="#radial-gradient"/><radialGradient id="radial-gradient-45" cx="278.59" cy="116.04" r="726.58" xlink:href="#radial-gradient"/><radialGradient id="radial-gradient-46" cx="278.59" cy="116.04" r="726.58" xlink:href="#radial-gradient"/><radialGradient id="radial-gradient-47" cx="278.59" cy="116.04" r="726.58" xlink:href="#radial-gradient"/><radialGradient id="radial-gradient-48" cx="278.59" cy="116.04" r="726.58" xlink:href="#radial-gradient"/><radialGradient id="radial-gradient-49" cx="278.59" cy="116.04" r="726.58" xlink:href="#radial-gradient"/><radialGradient id="radial-gradient-51" cx="278.59" cy="116.04" r="726.58" xlink:href="#radial-gradient"/><radialGradient id="radial-gradient-52" cx="278.59" cy="116.04" r="726.58" xlink:href="#radial-gradient"/><radialGradient id="radial-gradient-53" cx="278.59" cy="116.04" r="726.58" xlink:href="#radial-gradient"/><radialGradient id="radial-gradient-55" cx="278.59" cy="116.04" r="726.59" xlink:href="#radial-gradient"/><radialGradient id="radial-gradient-56" cx="278.59" cy="116.04" r="726.58" xlink:href="#radial-gradient"/><radialGradient id="radial-gradient-58" cx="278.59" cy="116.04" r="726.58" xlink:href="#radial-gradient"/><radialGradient id="radial-gradient-59" cx="278.59" cy="116.04" r="726.58" xlink:href="#radial-gradient"/><radialGradient id="radial-gradient-60" cx="278.59" cy="116.04" r="726.58" xlink:href="#radial-gradient"/><radialGradient id="radial-gradient-62" cx="278.59" cy="116.04" r="726.58" xlink:href="#radial-gradient"/><radialGradient id="radial-gradient-63" cx="278.59" cy="116.04" r="726.58" xlink:href="#radial-gradient"/><radialGradient id="radial-gradient-64" cx="278.59" cy="116.04" r="726.58" xlink:href="#radial-gradient"/><radialGradient id="radial-gradient-65" cx="278.59" cy="116.04" r="726.58" xlink:href="#radial-gradient"/><radialGradient id="radial-gradient-66" cx="278.59" cy="116.04" r="726.58" xlink:href="#radial-gradient"/><radialGradient id="radial-gradient-67" cx="278.59" cy="116.04" r="726.58" xlink:href="#radial-gradient"/><radialGradient id="radial-gradient-68" cx="278.59" cy="116.04" r="726.58" xlink:href="#radial-gradient"/><radialGradient id="radial-gradient-69" cx="278.59" cy="116.04" r="726.58" xlink:href="#radial-gradient"/><radialGradient id="radial-gradient-70" cx="278.59" cy="116.04" r="726.58" xlink:href="#radial-gradient"/><radialGradient id="radial-gradient-71" cx="278.59" cy="116.04" r="726.58" xlink:href="#radial-gradient"/><radialGradient id="radial-gradient-72" cx="278.59" cy="116.04" r="726.58" xlink:href="#radial-gradient"/><radialGradient id="radial-gradient-73" cx="278.59" cy="116.04" r="726.58" xlink:href="#radial-gradient"/><radialGradient id="radial-gradient-74" cx="278.59" cy="116.04" r="726.58" xlink:href="#radial-gradient"/><radialGradient id="radial-gradient-75" cx="278.59" cy="116.04" r="726.58" xlink:href="#radial-gradient"/><radialGradient id="radial-gradient-76" cx="278.59" cy="116.04" r="726.58" xlink:href="#radial-gradient"/><radialGradient id="radial-gradient-77" cx="278.59" cy="116.04" r="726.58" xlink:href="#radial-gradient"/><radialGradient id="radial-gradient-78" cx="278.59" cy="116.04" r="726.58" xlink:href="#radial-gradient"/><radialGradient id="radial-gradient-82" cx="278.59" cy="116.04" r="726.58" xlink:href="#radial-gradient"/></defs><g id="Layer_3" data-name="Layer 3"><rect class="cls-2" x="-4.27" y="-1.72" width="602.96" height="500"/></g><g id="Layer_2" data-name="Layer 2"><g class="cls-3"><g class="cls-4"><polygon class="cls-5" points="368.5 304.26 371.02 302.79 415.52 328.48 412.99 329.95 368.5 304.26"/><polygon class="cls-6" points="134.84 440.05 137.36 438.59 181.85 464.27 179.33 465.74 134.84 440.05"/><polygon class="cls-7" points="-5.71 358.91 -3.19 357.44 40.76 382.81 38.23 384.28 -5.71 358.91"/><g class="cls-8"><polygon class="cls-9" points="227.95 223.12 230.48 221.65 274.42 247.02 271.9 248.49 227.95 223.12"/><polygon class="cls-10" points="181.23 250.27 183.75 248.8 227.69 274.17 225.17 275.64 181.23 250.27"/><polygon class="cls-11" points="321.47 277.11 323.99 275.64 368.48 301.33 365.96 302.79 321.47 277.11"/><polygon class="cls-12" points="134.5 277.43 137.02 275.96 180.97 301.33 178.44 302.8 134.5 277.43"/><polygon class="cls-13" points="274.74 304.26 277.26 302.8 321.76 328.48 319.23 329.95 274.74 304.26"/><polygon class="cls-14" points="180.98 304.26 183.51 302.8 228 328.48 225.47 329.95 180.98 304.26"/><polygon class="cls-15" points="87.74 304.6 90.3 303.11 134.24 328.48 131.68 329.97 87.74 304.6"/><polygon class="cls-16" points="415.53 331.42 418.06 329.95 462.55 355.64 460.02 357.1 415.53 331.42"/><polygon class="cls-17" points="321.77 331.42 324.3 329.95 368.79 355.64 366.27 357.1 321.77 331.42"/><polygon class="cls-18" points="228.01 331.42 230.54 329.95 275.03 355.64 272.51 357.1 228.01 331.42"/><polygon class="cls-19" points="134.22 331.43 136.78 329.95 181.27 355.64 178.72 357.12 134.22 331.43"/><polygon class="cls-20" points="41.02 331.75 43.57 330.27 87.51 355.64 84.96 357.12 41.02 331.75"/><polygon class="cls-21" points="368.81 358.57 371.33 357.1 415.82 382.79 413.3 384.26 368.81 358.57"/><polygon class="cls-22" points="275.05 358.57 277.57 357.1 322.06 382.79 319.54 384.26 275.05 358.57"/><polygon class="cls-23" points="181.26 358.59 183.81 357.1 228.3 382.79 225.75 384.28 181.26 358.59"/><polygon class="cls-24" points="87.5 358.59 90.05 357.1 134.54 382.79 131.99 384.28 87.5 358.59"/><polygon class="cls-25" points="322.08 385.73 324.6 384.26 369.1 409.95 366.57 411.41 322.08 385.73"/><polygon class="cls-26" points="228.29 385.74 230.84 384.26 275.34 409.95 272.78 411.43 228.29 385.74"/><polygon class="cls-27" points="134.53 385.74 137.08 384.26 181.58 409.95 179.02 411.43 134.53 385.74"/><polygon class="cls-28" points="320.62 223.12 276.96 248.49 274.44 249.95 230.23 275.64 227.71 277.11 183.51 302.8 180.98 304.26 136.78 329.95 134.22 331.43 90.05 357.1 87.5 358.59 43.3 384.28 40.77 385.74 -2.88 411.11 -5.42 409.65 38.23 384.28 40.76 382.81 84.96 357.12 87.51 355.64 131.69 329.97 134.24 328.48 178.44 302.8 180.97 301.33 225.17 275.64 227.69 274.18 271.9 248.49 274.42 247.02 318.07 221.65 320.62 223.12"/><polygon class="cls-29" points="369.14 412.9 371.67 411.43 416.13 437.1 413.61 438.57 369.14 412.9"/><polygon class="cls-30" points="275.32 412.9 277.88 411.41 322.37 437.1 319.81 438.58 275.32 412.9"/><polygon class="cls-31" points="181.56 412.9 184.12 411.41 228.61 437.1 226.06 438.58 181.56 412.9"/><polygon class="cls-32" points="367.65 250.27 323.99 275.64 321.47 277.11 277.26 302.8 274.74 304.26 230.54 329.95 228.01 331.42 183.81 357.1 181.26 358.59 137.08 384.26 134.53 385.74 90.33 411.43 87.8 412.9 44.15 438.27 41.61 436.8 85.26 411.43 87.79 409.96 131.99 384.28 134.54 382.79 178.72 357.12 181.27 355.64 225.47 329.95 228 328.48 272.2 302.8 274.73 301.33 318.93 275.64 321.45 274.17 365.11 248.8 367.65 250.27"/><polygon class="cls-33" points="87.8 412.9 90.33 411.43 134.82 437.12 132.3 438.58 87.8 412.9"/><polygon class="cls-34" points="322.38 440.07 324.94 438.58 369.4 464.25 366.85 465.74 322.38 440.07"/><polygon class="cls-35" points="228.6 440.05 231.15 438.57 275.64 464.25 273.09 465.74 228.6 440.05"/><polygon class="cls-36" points="414.68 277.42 371.02 302.8 368.5 304.26 324.3 329.95 321.77 331.42 277.57 357.1 275.05 358.57 230.84 384.26 228.29 385.74 184.12 411.41 181.56 412.9 137.36 438.59 134.84 440.05 91.18 465.42 88.64 463.96 132.3 438.59 134.82 437.12 179.02 411.43 181.58 409.95 225.75 384.28 228.3 382.79 272.51 357.1 275.03 355.64 319.23 329.95 321.76 328.48 365.96 302.8 368.48 301.33 412.14 275.96 414.68 277.42"/><polygon class="cls-37" points="461.71 304.58 418.06 329.95 415.53 331.42 371.33 357.1 368.81 358.57 324.6 384.26 322.08 385.73 277.88 411.41 275.32 412.9 231.15 438.57 228.59 440.05 184.39 465.74 181.87 467.21 138.21 492.58 135.67 491.11 179.33 465.74 181.85 464.27 226.06 438.58 228.61 437.1 272.78 411.43 275.34 409.95 319.54 384.26 322.06 382.79 366.27 357.1 368.79 355.64 412.99 329.95 415.52 328.48 459.17 303.11 461.71 304.58"/><polygon class="cls-38" points="181.87 467.21 184.39 465.74 228.88 491.43 226.36 492.89 181.87 467.21"/><polygon class="cls-39" points="508.78 331.75 465.12 357.12 462.6 358.59 418.39 384.27 415.87 385.74 371.67 411.43 369.14 412.9 324.94 438.58 322.38 440.07 278.21 465.74 275.66 467.22 231.46 492.91 228.93 494.38 185.28 519.75 182.71 518.26 226.36 492.89 228.88 491.43 273.09 465.74 275.64 464.26 319.81 438.58 322.37 437.1 366.57 411.41 369.1 409.95 413.3 384.26 415.82 382.79 460.02 357.1 462.55 355.64 506.2 330.27 508.78 331.75"/></g><polygon class="cls-40" points="462.6 358.59 465.12 357.12 509.58 382.79 507.06 384.26 462.6 358.59"/><polygon class="cls-41" points="415.87 385.74 418.39 384.27 462.86 409.94 460.33 411.41 415.87 385.74"/><polygon class="cls-42" points="275.66 467.22 278.21 465.74 322.67 491.41 320.12 492.89 275.66 467.22"/><polygon class="cls-43" points="228.93 494.38 231.46 492.91 275.92 518.58 273.39 520.05 228.93 494.38"/><polygon class="cls-44" points="555.81 358.9 512.15 384.27 509.63 385.74 465.43 411.43 462.9 412.89 418.7 438.58 416.18 440.05 371.97 465.74 369.42 467.22 325.25 492.89 322.69 494.38 278.49 520.07 275.96 521.53 232.31 546.9 229.74 545.42 273.39 520.05 275.92 518.58 320.12 492.89 322.67 491.41 366.85 465.74 369.4 464.25 413.61 438.57 416.13 437.1 460.33 411.41 462.85 409.94 507.06 384.26 509.58 382.79 553.24 357.42 555.81 358.9"/><polygon class="cls-45" points="512.15 384.27 556.06 409.63 553.54 411.09 509.63 385.74 512.15 384.27"/><polygon class="cls-46" points="274.44 249.95 276.96 248.49 321.45 274.17 318.93 275.64 274.44 249.95"/><polygon class="cls-47" points="465.43 411.43 509.34 436.78 506.81 438.25 462.9 412.89 465.43 411.43"/><polygon class="cls-48" points="227.71 277.11 230.23 275.64 274.73 301.33 272.2 302.8 227.71 277.11"/><polygon class="cls-49" points="418.7 438.58 462.61 463.94 460.09 465.4 416.18 440.05 418.7 438.58"/><polygon class="cls-50" points="371.97 465.74 415.88 491.09 413.33 492.57 369.42 467.22 371.97 465.74"/><polygon class="cls-51" points="325.25 492.89 369.16 518.25 366.6 519.73 322.69 494.38 325.25 492.89"/><polygon class="cls-52" points="40.77 385.74 43.29 384.28 87.79 409.96 85.26 411.43 40.77 385.74"/><path class="cls-53" d="M282.44,243.79c4.47,2.58,4.46,6.77.05,9.33s-11.67,2.6-16.13,0-4.46-6.77,0-9.35S278,241.23,282.44,243.79Z"/><path class="cls-54" d="M329.47,270.94c4.47,2.58,4.46,6.77,0,9.33s-11.66,2.6-16.13,0-4.46-6.77,0-9.35S325,268.38,329.47,270.94Z"/><path class="cls-45" d="M376.53,298.12c4.44,2.56,4.46,6.76.06,9.33s-11.7,2.57-16.14,0-4.46-6.76,0-9.34S372.07,295.54,376.53,298.12Z"/><path class="cls-55" d="M423.57,325.27c4.46,2.58,4.46,6.77.05,9.33s-11.67,2.6-16.14,0-4.46-6.77,0-9.35S419.1,322.69,423.57,325.27Z"/><path class="cls-56" d="M470.6,352.43c4.47,2.58,4.46,6.76,0,9.33s-11.67,2.59-16.13,0-4.46-6.76,0-9.34S466.13,349.85,470.6,352.43Z"/><path class="cls-57" d="M517.63,379.58c4.47,2.58,4.46,6.77,0,9.33s-11.66,2.6-16.13,0-4.46-6.77,0-9.35S513.16,377,517.63,379.58Z"/><path class="cls-32" d="M235.68,271c4.47,2.58,4.49,6.75,0,9.33s-11.63,2.58-16.1,0-4.49-6.75,0-9.33S231.24,268.4,235.68,271Z"/><path class="cls-58" d="M282.71,298.12c4.47,2.58,4.49,6.75.06,9.33s-11.64,2.58-16.11,0-4.49-6.75-.05-9.33S278.28,295.56,282.71,298.12Z"/><path class="cls-59" d="M329.78,325.29c4.43,2.56,4.49,6.75.05,9.33s-11.67,2.56-16.11,0-4.49-6.75-.05-9.33S325.31,322.71,329.78,325.29Z"/><path class="cls-43" d="M376.81,352.44c4.47,2.58,4.49,6.75.05,9.33s-11.64,2.58-16.1,0-4.49-6.75-.06-9.33S372.34,349.86,376.81,352.44Z"/><path class="cls-60" d="M423.84,379.6c4.47,2.58,4.49,6.75.05,9.33s-11.63,2.58-16.1,0-4.49-6.75-.05-9.33S419.37,377,423.84,379.6Z"/><path class="cls-61" d="M470.87,406.75c4.47,2.58,4.49,6.75.06,9.33s-11.64,2.58-16.11,0-4.49-6.75-.05-9.33S466.41,404.17,470.87,406.75Z"/><path class="cls-62" d="M48.77,379.58c4.47,2.58,4.46,6.77.06,9.33s-11.64,2.58-16.11,0-4.49-6.75,0-9.33S44.34,377,48.77,379.58Z"/><path class="cls-10" d="M95.81,406.74c4.46,2.58,4.46,6.76,0,9.32s-11.64,2.58-16.11,0-4.49-6.75,0-9.33S91.37,404.17,95.81,406.74Z"/><path class="cls-63" d="M142.87,433.91c4.44,2.56,4.46,6.76,0,9.33s-11.67,2.56-16.1,0-4.49-6.75-.06-9.33S138.4,431.33,142.87,433.91Z"/><path class="cls-64" d="M189.9,461.06c4.47,2.58,4.46,6.77,0,9.33s-11.63,2.58-16.1,0-4.49-6.75,0-9.33S185.43,458.48,189.9,461.06Z"/><path class="cls-65" d="M236.93,488.22c4.47,2.58,4.46,6.76.06,9.33s-11.64,2.57-16.11,0-4.49-6.75,0-9.33S232.47,485.64,236.93,488.22Z"/><path class="cls-66" d="M95.5,352.43c4.47,2.58,4.49,6.75,0,9.33s-11.63,2.58-16.1,0-4.49-6.75,0-9.33S91.06,349.87,95.5,352.43Z"/><path class="cls-67" d="M142.53,379.58c4.47,2.58,4.49,6.75.06,9.33s-11.64,2.58-16.11,0-4.49-6.75,0-9.33S138.1,377,142.53,379.58Z"/><path class="cls-68" d="M189.6,406.75c4.43,2.57,4.49,6.75.05,9.33s-11.67,2.56-16.11,0-4.49-6.75,0-9.33S185.13,404.17,189.6,406.75Z"/><path class="cls-69" d="M236.63,433.91c4.47,2.58,4.49,6.75.05,9.33s-11.64,2.57-16.1,0-4.49-6.75-.06-9.33S232.16,431.33,236.63,433.91Z"/><path class="cls-70" d="M283.66,461.06c4.47,2.58,4.49,6.75,0,9.33s-11.63,2.58-16.1,0-4.49-6.75-.05-9.33S279.19,458.48,283.66,461.06Z"/><path class="cls-71" d="M330.69,488.22c4.47,2.58,4.49,6.74.06,9.33s-11.64,2.57-16.11,0-4.49-6.75-.05-9.33S326.23,485.64,330.69,488.22Z"/><path class="cls-72" d="M142.23,325.27c4.47,2.58,4.49,6.75.05,9.33s-11.64,2.58-16.1,0-4.5-6.75-.06-9.33S137.79,322.71,142.23,325.27Z"/><path class="cls-73" d="M189.26,352.43c4.47,2.58,4.49,6.75.05,9.33s-11.63,2.58-16.1,0-4.49-6.75-.05-9.33S184.82,349.87,189.26,352.43Z"/><path class="cls-74" d="M236.32,379.6c4.44,2.56,4.49,6.75.06,9.33s-11.67,2.56-16.11,0-4.49-6.75-.05-9.33S231.86,377,236.32,379.6Z"/><path class="cls-75" d="M283.36,406.75c4.46,2.58,4.49,6.75.05,9.33s-11.64,2.58-16.11,0-4.49-6.75-.05-9.33S278.89,404.17,283.36,406.75Z"/><path class="cls-76" d="M330.39,433.91c4.47,2.58,4.49,6.75.05,9.33s-11.64,2.57-16.1,0-4.49-6.75-.06-9.33S325.92,431.33,330.39,433.91Z"/><path class="cls-77" d="M377.42,461.06c4.47,2.58,4.49,6.75.05,9.33s-11.63,2.58-16.1,0-4.49-6.75-.05-9.33S373,458.48,377.42,461.06Z"/><path class="cls-78" d="M189,298.12c4.47,2.58,4.5,6.75.06,9.33s-11.64,2.58-16.11,0-4.49-6.75-.05-9.33S184.52,295.56,189,298.12Z"/><path class="cls-79" d="M236,325.27c4.46,2.58,4.49,6.75,0,9.33s-11.64,2.58-16.1,0-4.5-6.75-.06-9.33S231.55,322.71,236,325.27Z"/><path class="cls-43" d="M283.05,352.44c4.44,2.57,4.49,6.75.05,9.33s-11.67,2.56-16.1,0-4.49-6.75-.06-9.33S278.58,349.86,283.05,352.44Z"/><path class="cls-36" d="M330.08,379.6c4.47,2.58,4.49,6.75.05,9.33s-11.63,2.58-16.1,0-4.49-6.75,0-9.33S325.61,377,330.08,379.6Z"/><path class="cls-22" d="M377.11,406.75c4.47,2.58,4.49,6.75.06,9.33s-11.64,2.58-16.11,0-4.49-6.75-.05-9.33S372.65,404.17,377.11,406.75Z"/><path class="cls-80" d="M424.15,433.91c4.47,2.58,4.49,6.74.05,9.33s-11.64,2.57-16.1,0-4.5-6.75-.06-9.33S419.68,431.33,424.15,433.91Z"/></g></g><g id="Background_Complete" data-name="Background Complete" class="cls-81"><path class="cls-82" d="M381.64,278.25h-283a11,11,0,0,1-11-11.64L97.66,73.49a12.45,12.45,0,0,1,12.25-11.64h283a11,11,0,0,1,11,11.64L393.88,266.61A12.44,12.44,0,0,1,381.64,278.25Z"/><path class="cls-83" d="M380.73,278.25H97.7a11,11,0,0,1-11-11.64L96.76,73.49A12.44,12.44,0,0,1,109,61.85H392a11,11,0,0,1,11,11.64L393,266.61A12.45,12.45,0,0,1,380.73,278.25Z"/><path class="cls-84" d="M391.72,67.67h-283c-.32,0-.64,0-1,0-7.31.59-7.2,11.6.1,11.6H391.36c7.3,0,8.56-11,1.31-11.6C392.36,67.68,392,67.67,391.72,67.67Z"/><path class="cls-85" d="M115.35,73.49a2.85,2.85,0,0,1-2.81,2.67A2.51,2.51,0,0,1,110,73.49a2.85,2.85,0,0,1,2.81-2.67A2.52,2.52,0,0,1,115.35,73.49Z"/><path class="cls-85" d="M124.42,73.49a2.84,2.84,0,0,1-2.8,2.67,2.51,2.51,0,0,1-2.53-2.67,2.84,2.84,0,0,1,2.8-2.67A2.51,2.51,0,0,1,124.42,73.49Z"/><path class="cls-85" d="M133.5,73.49a2.85,2.85,0,0,1-2.81,2.67,2.52,2.52,0,0,1-2.53-2.67A2.85,2.85,0,0,1,131,70.82,2.51,2.51,0,0,1,133.5,73.49Z"/><path class="cls-2" d="M375.62,259H104.83a4,4,0,0,1-4-4.22l8.29-158.82a4.5,4.5,0,0,1,4.44-4.22H384.35a4,4,0,0,1,4,4.22l-8.29,158.82A4.5,4.5,0,0,1,375.62,259Z"/><path class="cls-83" d="M466.83,134.05H197.55A11.72,11.72,0,0,0,186,145l-9.71,186A10.33,10.33,0,0,0,186.7,342H456A11.72,11.72,0,0,0,467.51,331l9.71-186A10.33,10.33,0,0,0,466.83,134.05Z"/><path class="cls-2" d="M456.17,338.31a7.79,7.79,0,0,0,7.68-7.31l9.71-186a6.87,6.87,0,0,0-6.92-7.31H197.36a7.79,7.79,0,0,0-7.68,7.31L180,331a6.88,6.88,0,0,0,6.93,7.31Z"/><path class="cls-86" d="M221.05,280h207a13.3,13.3,0,0,0,13.09-12.45l4.29-82.25a11.72,11.72,0,0,0-11.79-12.44h-207a13.29,13.29,0,0,0-13.09,12.44l-4.3,82.25A11.72,11.72,0,0,0,221.05,280Z"/><path class="cls-87" d="M356.11,305.58l-1.71,32.73H288.66l1.71-32.73a11,11,0,0,1,10.87-10.33h45.08A9.72,9.72,0,0,1,356.11,305.58Z"/><path class="cls-87" d="M273,305.58l-1.71,32.73H205.57l1.71-32.73a11,11,0,0,1,10.87-10.33h45.08A9.71,9.71,0,0,1,273,305.58Z"/><path class="cls-88" d="M439.2,305.58l-1.71,32.73H371.75l1.71-32.73a11,11,0,0,1,10.87-10.33H429.4A9.72,9.72,0,0,1,439.2,305.58Z"/><path class="cls-89" d="M327.33,237.39h88.42a9.23,9.23,0,0,0,9.08-8.63h0a8.13,8.13,0,0,0-8.18-8.63H328.23a9.23,9.23,0,0,0-9.08,8.63h0A8.13,8.13,0,0,0,327.33,237.39Z"/><path class="cls-90" d="M356,263.6h58.42a9.23,9.23,0,0,0,9.08-8.63h0a8.13,8.13,0,0,0-8.18-8.63H356.86a9.22,9.22,0,0,0-9.08,8.63h0A8.13,8.13,0,0,0,356,263.6Z"/><path class="cls-83" d="M236.79,156.17H217.72a2.49,2.49,0,0,1-2.5-2.64h0a2.81,2.81,0,0,1,2.77-2.64h19.07a2.49,2.49,0,0,1,2.5,2.64h0A2.81,2.81,0,0,1,236.79,156.17Z"/><path class="cls-83" d="M248.09,153.53a3.9,3.9,0,0,0,3.94,4.16,4.43,4.43,0,0,0,4.38-4.16,3.92,3.92,0,0,0-4-4.16A4.44,4.44,0,0,0,248.09,153.53Z"/><path class="cls-83" d="M436.25,157.79h8.63a2.17,2.17,0,0,0,2.14-2l.23-4.47a1.91,1.91,0,0,0-1.92-2h-8.64a2.17,2.17,0,0,0-2.13,2l-.24,4.47A1.92,1.92,0,0,0,436.25,157.79Z"/><path class="cls-83" d="M401.39,154.85h21.33a1.4,1.4,0,0,0,1.38-1.32h0a1.24,1.24,0,0,0-1.25-1.32H401.52a1.41,1.41,0,0,0-1.38,1.32h0A1.24,1.24,0,0,0,401.39,154.85Z"/><path class="cls-83" d="M364.4,154.85h21.33a1.41,1.41,0,0,0,1.39-1.32h0a1.24,1.24,0,0,0-1.25-1.32H364.54a1.42,1.42,0,0,0-1.39,1.32h0A1.24,1.24,0,0,0,364.4,154.85Z"/><path class="cls-83" d="M327.42,154.85h21.33a1.41,1.41,0,0,0,1.39-1.32h0a1.25,1.25,0,0,0-1.25-1.32H327.55a1.41,1.41,0,0,0-1.38,1.32h0A1.24,1.24,0,0,0,327.42,154.85Z"/><path class="cls-83" d="M290.43,154.85h21.33a1.41,1.41,0,0,0,1.39-1.32h0a1.24,1.24,0,0,0-1.25-1.32H290.57a1.42,1.42,0,0,0-1.39,1.32h0A1.24,1.24,0,0,0,290.43,154.85Z"/></g><g id="Connection"><path class="cls-91" d="M124.82,212.17a1.09,1.09,0,0,1-1-1.14h0a1.1,1.1,0,0,1,1.14-1.05h0a1.12,1.12,0,0,1,1,1.15h0a1.11,1.11,0,0,1-1.1,1h-.05Zm306.32-.31a1.09,1.09,0,0,1-1-1.14h0a1.11,1.11,0,0,1,1.14-1.05h0a1.12,1.12,0,0,1,1.05,1.15h0a1.09,1.09,0,0,1-1.09,1h-.06Zm-306-6.25a1.11,1.11,0,0,1-1-1.15h0a1.1,1.1,0,0,1,1.15-1h0a1.09,1.09,0,0,1,1,1.14h0a1.09,1.09,0,0,1-1.09,1.05h0Zm306.33-.31a1.09,1.09,0,0,1-1.05-1.14h0a1.1,1.1,0,0,1,1.15-1h0a1.1,1.1,0,0,1,1,1.14h0a1.11,1.11,0,0,1-1.1,1.05h0ZM125.4,199a1.09,1.09,0,0,1-1-1.14h0a1.08,1.08,0,0,1,1.14-1h0a1.1,1.1,0,0,1,1,1.14h0a1.1,1.1,0,0,1-1.1,1h0Zm306.32-.3a1.09,1.09,0,0,1-1-1.14h0a1.08,1.08,0,0,1,1.14-1h0a1.09,1.09,0,0,1,1.05,1.13h0a1.09,1.09,0,0,1-1.09,1.05h-.06Zm-6.5-2.15a1.09,1.09,0,0,1,1.09-1.1h0a1.1,1.1,0,0,1,1.1,1.1h0a1.09,1.09,0,0,1-1.1,1.09h0A1.09,1.09,0,0,1,425.22,196.59Zm-6.57,0a1.09,1.09,0,0,1,1.09-1.1h0a1.1,1.1,0,0,1,1.1,1.1h0a1.09,1.09,0,0,1-1.1,1.09h0A1.09,1.09,0,0,1,418.65,196.59Zm-6.57,0a1.1,1.1,0,0,1,1.1-1.1h0a1.1,1.1,0,0,1,1.09,1.1h0a1.09,1.09,0,0,1-1.09,1.09h0A1.09,1.09,0,0,1,412.08,196.59Zm-6.57,0a1.1,1.1,0,0,1,1.1-1.1h0a1.1,1.1,0,0,1,1.09,1.1h0a1.09,1.09,0,0,1-1.09,1.09h0A1.09,1.09,0,0,1,405.51,196.59Zm-6.57,0a1.1,1.1,0,0,1,1.1-1.1h0a1.1,1.1,0,0,1,1.09,1.1h0a1.09,1.09,0,0,1-1.09,1.09h0A1.09,1.09,0,0,1,398.94,196.59Zm-6.57,0a1.1,1.1,0,0,1,1.1-1.1h0a1.1,1.1,0,0,1,1.09,1.1h0a1.09,1.09,0,0,1-1.09,1.09h0A1.09,1.09,0,0,1,392.37,196.59Zm-6.56,0a1.09,1.09,0,0,1,1.09-1.1h0a1.11,1.11,0,0,1,1.1,1.1h0a1.1,1.1,0,0,1-1.1,1.09h0A1.09,1.09,0,0,1,385.81,196.59Zm-6.57,0a1.1,1.1,0,0,1,1.09-1.1h0a1.11,1.11,0,0,1,1.1,1.1h0a1.1,1.1,0,0,1-1.1,1.09h0A1.09,1.09,0,0,1,379.24,196.59Zm-6.57,0a1.09,1.09,0,0,1,1.09-1.1h0a1.1,1.1,0,0,1,1.1,1.1h0a1.09,1.09,0,0,1-1.1,1.09h0A1.09,1.09,0,0,1,372.67,196.59Zm-6.57,0a1.1,1.1,0,0,1,1.09-1.1h0a1.1,1.1,0,0,1,1.1,1.1h0a1.09,1.09,0,0,1-1.1,1.09h0A1.09,1.09,0,0,1,366.1,196.59Zm-6.57,0a1.1,1.1,0,0,1,1.1-1.1h0a1.1,1.1,0,0,1,1.09,1.1h0a1.09,1.09,0,0,1-1.09,1.09h0A1.09,1.09,0,0,1,359.53,196.59Zm-6.57,0a1.1,1.1,0,0,1,1.1-1.1h0a1.1,1.1,0,0,1,1.09,1.1h0a1.09,1.09,0,0,1-1.09,1.09h0A1.1,1.1,0,0,1,353,196.59Zm-6.57,0a1.1,1.1,0,0,1,1.1-1.1h0a1.1,1.1,0,0,1,1.09,1.1h0a1.09,1.09,0,0,1-1.09,1.09h0A1.09,1.09,0,0,1,346.39,196.59Zm-6.57,0a1.1,1.1,0,0,1,1.1-1.1h0a1.1,1.1,0,0,1,1.09,1.1h0a1.09,1.09,0,0,1-1.09,1.09h0A1.09,1.09,0,0,1,339.82,196.59Zm-6.56,0a1.09,1.09,0,0,1,1.09-1.1h0a1.1,1.1,0,0,1,1.09,1.1h0a1.09,1.09,0,0,1-1.09,1.09h0A1.09,1.09,0,0,1,333.26,196.59Zm-6.57,0a1.09,1.09,0,0,1,1.09-1.1h0a1.11,1.11,0,0,1,1.1,1.1h0a1.1,1.1,0,0,1-1.1,1.09h0A1.09,1.09,0,0,1,326.69,196.59Zm-6.57,0a1.09,1.09,0,0,1,1.09-1.1h0a1.1,1.1,0,0,1,1.1,1.1h0a1.09,1.09,0,0,1-1.1,1.09h0A1.09,1.09,0,0,1,320.12,196.59Zm-6.57,0a1.09,1.09,0,0,1,1.09-1.1h0a1.1,1.1,0,0,1,1.1,1.1h0a1.09,1.09,0,0,1-1.1,1.09h0A1.09,1.09,0,0,1,313.55,196.59Zm-6.57,0a1.1,1.1,0,0,1,1.1-1.1h0a1.1,1.1,0,0,1,1.09,1.1h0a1.09,1.09,0,0,1-1.09,1.09h0A1.09,1.09,0,0,1,307,196.59Zm-6.57,0a1.1,1.1,0,0,1,1.1-1.1h0a1.1,1.1,0,0,1,1.09,1.1h0a1.09,1.09,0,0,1-1.09,1.09h0A1.09,1.09,0,0,1,300.41,196.59Zm-6.57,0a1.1,1.1,0,0,1,1.1-1.1h0a1.1,1.1,0,0,1,1.09,1.1h0a1.09,1.09,0,0,1-1.09,1.09h0A1.09,1.09,0,0,1,293.84,196.59Zm-6.57,0a1.1,1.1,0,0,1,1.1-1.1h0a1.1,1.1,0,0,1,1.09,1.1h0a1.09,1.09,0,0,1-1.09,1.09h0A1.09,1.09,0,0,1,287.27,196.59Zm-6.56,0a1.09,1.09,0,0,1,1.09-1.1h0a1.1,1.1,0,0,1,1.09,1.1h0a1.09,1.09,0,0,1-1.09,1.09h0A1.09,1.09,0,0,1,280.71,196.59Zm-6.57,0a1.09,1.09,0,0,1,1.09-1.1h0a1.11,1.11,0,0,1,1.1,1.1h0a1.1,1.1,0,0,1-1.1,1.09h0A1.09,1.09,0,0,1,274.14,196.59Zm-6.57,0a1.09,1.09,0,0,1,1.09-1.1h0a1.1,1.1,0,0,1,1.1,1.1h0a1.09,1.09,0,0,1-1.1,1.09h0A1.09,1.09,0,0,1,267.57,196.59Zm-6.57,0a1.09,1.09,0,0,1,1.09-1.1h0a1.1,1.1,0,0,1,1.1,1.1h0a1.09,1.09,0,0,1-1.1,1.09h0A1.09,1.09,0,0,1,261,196.59Zm-6.57,0a1.09,1.09,0,0,1,1.09-1.1h0a1.1,1.1,0,0,1,1.1,1.1h0a1.09,1.09,0,0,1-1.1,1.09h0A1.09,1.09,0,0,1,254.43,196.59Zm-6.57,0a1.1,1.1,0,0,1,1.1-1.1h0a1.1,1.1,0,0,1,1.09,1.1h0a1.09,1.09,0,0,1-1.09,1.09h0A1.09,1.09,0,0,1,247.86,196.59Zm-6.57,0a1.1,1.1,0,0,1,1.1-1.1h0a1.1,1.1,0,0,1,1.09,1.1h0a1.09,1.09,0,0,1-1.09,1.09h0A1.09,1.09,0,0,1,241.29,196.59Zm-6.57,0a1.1,1.1,0,0,1,1.1-1.1h0a1.1,1.1,0,0,1,1.09,1.1h0a1.09,1.09,0,0,1-1.09,1.09h0A1.09,1.09,0,0,1,234.72,196.59Zm-6.57,0a1.11,1.11,0,0,1,1.1-1.1h0a1.1,1.1,0,0,1,1.09,1.1h0a1.09,1.09,0,0,1-1.09,1.09h0A1.1,1.1,0,0,1,228.15,196.59Zm-6.56,0a1.09,1.09,0,0,1,1.09-1.1h0a1.11,1.11,0,0,1,1.1,1.1h0a1.1,1.1,0,0,1-1.1,1.09h0A1.09,1.09,0,0,1,221.59,196.59Zm-6.57,0a1.1,1.1,0,0,1,1.09-1.1h0a1.1,1.1,0,0,1,1.1,1.1h0a1.09,1.09,0,0,1-1.1,1.09h0A1.09,1.09,0,0,1,215,196.59Zm-6.57,0a1.09,1.09,0,0,1,1.09-1.1h0a1.1,1.1,0,0,1,1.1,1.1h0a1.09,1.09,0,0,1-1.1,1.09h0A1.09,1.09,0,0,1,208.45,196.59Zm-6.57,0a1.09,1.09,0,0,1,1.09-1.1h0a1.1,1.1,0,0,1,1.1,1.1h0a1.09,1.09,0,0,1-1.1,1.09h0A1.09,1.09,0,0,1,201.88,196.59Zm-6.57,0a1.1,1.1,0,0,1,1.1-1.1h0a1.1,1.1,0,0,1,1.09,1.1h0a1.09,1.09,0,0,1-1.09,1.09h0A1.09,1.09,0,0,1,195.31,196.59Zm-6.57,0a1.1,1.1,0,0,1,1.1-1.1h0a1.1,1.1,0,0,1,1.09,1.1h0a1.09,1.09,0,0,1-1.09,1.09h0A1.09,1.09,0,0,1,188.74,196.59Zm-6.57,0a1.1,1.1,0,0,1,1.1-1.1h0a1.1,1.1,0,0,1,1.09,1.1h0a1.09,1.09,0,0,1-1.09,1.09h0A1.09,1.09,0,0,1,182.17,196.59Zm-6.57,0a1.1,1.1,0,0,1,1.1-1.1h0a1.1,1.1,0,0,1,1.09,1.1h0a1.09,1.09,0,0,1-1.09,1.09h0A1.09,1.09,0,0,1,175.6,196.59Zm-6.56,0a1.09,1.09,0,0,1,1.09-1.1h0a1.11,1.11,0,0,1,1.1,1.1h0a1.1,1.1,0,0,1-1.1,1.09h0A1.09,1.09,0,0,1,169,196.59Zm-6.57,0a1.09,1.09,0,0,1,1.09-1.1h0a1.11,1.11,0,0,1,1.1,1.1h0a1.1,1.1,0,0,1-1.1,1.09h0A1.09,1.09,0,0,1,162.47,196.59Zm-6.57,0a1.09,1.09,0,0,1,1.09-1.1h0a1.1,1.1,0,0,1,1.1,1.1h0a1.09,1.09,0,0,1-1.1,1.09h0A1.09,1.09,0,0,1,155.9,196.59Zm-6.57,0a1.09,1.09,0,0,1,1.09-1.1h0a1.1,1.1,0,0,1,1.1,1.1h0a1.09,1.09,0,0,1-1.1,1.09h0A1.09,1.09,0,0,1,149.33,196.59Zm-6.57,0a1.1,1.1,0,0,1,1.1-1.1h0a1.1,1.1,0,0,1,1.09,1.1h0a1.09,1.09,0,0,1-1.09,1.09h0A1.09,1.09,0,0,1,142.76,196.59Zm-6.57,0a1.1,1.1,0,0,1,1.1-1.1h0a1.1,1.1,0,0,1,1.09,1.1h0a1.09,1.09,0,0,1-1.09,1.09h0A1.09,1.09,0,0,1,136.19,196.59Zm-6.57,0a1.1,1.1,0,0,1,1.1-1.1h0a1.1,1.1,0,0,1,1.09,1.1h0a1.09,1.09,0,0,1-1.09,1.09h0A1.09,1.09,0,0,1,129.62,196.59Z"/><path class="cls-91" d="M279.06,257.32a1.1,1.1,0,0,1-1-1.14h0a1.09,1.09,0,0,1,1.14-1h0a1.1,1.1,0,0,1,1,1.14h0a1.1,1.1,0,0,1-1.09,1.05h-.06Zm.3-6.56a1.1,1.1,0,0,1-1.05-1.14h0a1.11,1.11,0,0,1,1.15-1.05h0a1.1,1.1,0,0,1,1,1.15h0a1.1,1.1,0,0,1-1.1,1h0Zm.28-6.56a1.1,1.1,0,0,1-1-1.15h0a1.09,1.09,0,0,1,1.14-1h0a1.08,1.08,0,0,1,1,1.14h0a1.08,1.08,0,0,1-1.08,1h-.06Zm.3-6.57a1.1,1.1,0,0,1-1.05-1.14h0a1.1,1.1,0,0,1,1.14-1.05h0a1.12,1.12,0,0,1,1.05,1.15h0a1.09,1.09,0,0,1-1.1,1h0Zm.28-6.56a1.11,1.11,0,0,1-1.05-1.15h0a1.12,1.12,0,0,1,1.15-1h0a1.08,1.08,0,0,1,1,1.14h0a1.08,1.08,0,0,1-1.09,1h0Zm.29-6.56a1.1,1.1,0,0,1-1-1.14h0a1.07,1.07,0,0,1,1.14-1h0a1.1,1.1,0,0,1,1.05,1.14h0a1.09,1.09,0,0,1-1.1,1h-.05Zm.29-6.56a1.1,1.1,0,0,1-1.05-1.14h0a1.12,1.12,0,0,1,1.15-1.05h0a1.08,1.08,0,0,1,1,1.15h0a1.08,1.08,0,0,1-1.09,1h-.05Zm.29-6.56a1.1,1.1,0,0,1-1-1.15h0a1.09,1.09,0,0,1,1.14-1h0a1.1,1.1,0,0,1,1.05,1.14h0a1.11,1.11,0,0,1-1.1,1h-.05Zm.29-6.57a1.1,1.1,0,0,1-1.05-1.14h0a1.12,1.12,0,0,1,1.15-1.05h0a1.08,1.08,0,0,1,1,1.15h0a1.08,1.08,0,0,1-1.09,1h-.05Z"/></g><g id="Smartphone"><path class="cls-92" d="M452.48,328.33H405a3.36,3.36,0,0,1-3.38-3.54l4.19-95.16a3.75,3.75,0,0,1,3.7-3.54H457a3.37,3.37,0,0,1,3.39,3.54l-4.2,95.16A3.74,3.74,0,0,1,452.48,328.33Z"/><path class="cls-91" d="M450.81,328.33H403.3a3.37,3.37,0,0,1-3.39-3.54l4.2-95.16a3.74,3.74,0,0,1,3.7-3.54h47.5a3.37,3.37,0,0,1,3.39,3.54l-4.19,95.16A3.76,3.76,0,0,1,450.81,328.33Z"/><path class="cls-93" d="M430.44,326.32h-6.6a.79.79,0,0,1-.79-.83v-.21a.87.87,0,0,1,.86-.82h6.6a.79.79,0,0,1,.79.82v.21A.87.87,0,0,1,430.44,326.32Z"/><path class="cls-94" d="M404.79,322.26a1.71,1.71,0,0,1-1.73-1.81L407,230.86A1.92,1.92,0,0,1,408.9,229H454a1.73,1.73,0,0,1,1.73,1.82l-3.95,89.59a1.91,1.91,0,0,1-1.89,1.81Z"/><path class="cls-91" d="M424.17,289.79h-7a1.25,1.25,0,0,1-.93-.4,1.27,1.27,0,0,1-.36-.95l.54-12.21a.21.21,0,0,0-.05-.14.18.18,0,0,0-.14-.06h-3.7a1.25,1.25,0,0,1-1.19-.8,1.33,1.33,0,0,1,.32-1.47l9.14-8.75a1.46,1.46,0,0,1,1-.38,1.29,1.29,0,0,1,.9.4l8.36,8.75a1.28,1.28,0,0,1,.25,1.42A1.37,1.37,0,0,1,430,276h-3.69a.28.28,0,0,0-.27.25l-.53,12.21A1.38,1.38,0,0,1,424.17,289.79Zm-2.44-24.06a.26.26,0,0,0-.18.07l-9.14,8.75a.26.26,0,0,0-.07.27.18.18,0,0,0,.18.11h3.7a1.3,1.3,0,0,1,1.29,1.35L417,288.49a.17.17,0,0,0,0,.15.21.21,0,0,0,.14.05h7a.27.27,0,0,0,.26-.25l.54-12.21a1.38,1.38,0,0,1,1.35-1.3H430a.25.25,0,0,0,.24-.16.19.19,0,0,0,0-.23l-8.36-8.75A.17.17,0,0,0,421.73,265.73Z"/><path class="cls-91" d="M437.7,289.79h0a1.29,1.29,0,0,1-.9-.4l-8.37-8.75a1.3,1.3,0,0,1-.24-1.42,1.35,1.35,0,0,1,1.25-.83h3.69a.27.27,0,0,0,.27-.25l.53-12.21a1.38,1.38,0,0,1,1.36-1.3h7a1.26,1.26,0,0,1,.93.4,1.31,1.31,0,0,1,.36,1L443,278.19a.17.17,0,0,0,.05.15.2.2,0,0,0,.14.06h3.7a1.25,1.25,0,0,1,1.19.8,1.32,1.32,0,0,1-.33,1.46l-9.13,8.75A1.34,1.34,0,0,1,437.7,289.79Zm-8.51-9.9,8.37,8.75s.05,0,.14.06a.24.24,0,0,0,.18-.08l9.14-8.75a.25.25,0,0,0,.07-.26.17.17,0,0,0-.18-.12h-3.7a1.25,1.25,0,0,1-.93-.4,1.27,1.27,0,0,1-.36-.95l.54-12.21a.17.17,0,0,0,0-.14.18.18,0,0,0-.14-.06h-7a.26.26,0,0,0-.26.25l-.54,12.21a1.37,1.37,0,0,1-1.36,1.3h-3.69a.25.25,0,0,0-.24.17.2.2,0,0,0,0,.23Z"/><polygon class="cls-95" points="433.1 226.09 422.34 226.09 403.22 328.33 413.98 328.33 433.1 226.09"/><polygon class="cls-96" points="445.45 226.09 442.76 226.09 423.64 328.33 426.33 328.33 445.45 226.09"/><path class="cls-93" d="M432.1,227.41a.63.63,0,0,1-.62.6.57.57,0,0,1-.58-.6.64.64,0,0,1,.63-.6A.56.56,0,0,1,432.1,227.41Z"/></g><g id="Notebook"><path class="cls-92" d="M375.66,394.41H194.5a4.2,4.2,0,0,1-4.22-4.41l5.22-118.39a4.67,4.67,0,0,1,4.61-4.4H381.27a4.2,4.2,0,0,1,4.22,4.4L380.27,390A4.67,4.67,0,0,1,375.66,394.41Z"/><path class="cls-91" d="M373.57,394.41H192.41a4.2,4.2,0,0,1-4.22-4.41l5.22-118.39a4.67,4.67,0,0,1,4.61-4.4H379.18a4.2,4.2,0,0,1,4.22,4.4L378.18,390A4.67,4.67,0,0,1,373.57,394.41Z"/><path class="cls-92" d="M375.58,396.33H194.41a4.69,4.69,0,0,0-4.32,3,1,1,0,0,0,1,1.38H378.54a1.12,1.12,0,0,0,1.09-1.38A4.19,4.19,0,0,0,375.58,396.33Z"/><path class="cls-91" d="M343.79,396.33H162.63a4.68,4.68,0,0,0-4.32,3,1,1,0,0,0,1,1.38H346.76a1.13,1.13,0,0,0,1.09-1.38A4.2,4.2,0,0,0,343.79,396.33Z"/><path class="cls-97" d="M269.48,398.81H236.72a2.07,2.07,0,0,0-1.73,1.93h36.06A1.87,1.87,0,0,0,269.48,398.81Z"/><path class="cls-94" d="M197,387.45a1.66,1.66,0,0,1-1.67-1.74l4.85-109.8a1.84,1.84,0,0,1,1.81-1.74H374.59a1.66,1.66,0,0,1,1.66,1.74l-4.84,109.8a1.85,1.85,0,0,1-1.82,1.74Z"/><path class="cls-91" d="M276.5,351.54H264.74a1.78,1.78,0,0,1-1.79-1.88l.91-20.48a.76.76,0,0,0-.19-.52.72.72,0,0,0-.51-.21H257a1.74,1.74,0,0,1-1.66-1.11,1.86,1.86,0,0,1,.46-2l15.32-14.68a1.87,1.87,0,0,1,2.62,0l14,14.68a1.81,1.81,0,0,1,.35,2,1.91,1.91,0,0,1-1.76,1.16h-6.2a.83.83,0,0,0-.81.78l-.9,20.48A1.93,1.93,0,0,1,276.5,351.54Zm-4.1-40.36a.78.78,0,0,0-.56.23l-15.32,14.67a.77.77,0,0,0-.21.85.68.68,0,0,0,.65.43h6.2a1.74,1.74,0,0,1,1.29.55,1.78,1.78,0,0,1,.5,1.32L264,349.71a.7.7,0,0,0,.19.52.68.68,0,0,0,.51.21h11.75a.81.81,0,0,0,.81-.77l.91-20.49a1.92,1.92,0,0,1,1.9-1.82h6.2a.83.83,0,0,0,.75-.5.73.73,0,0,0-.13-.79l-14-14.68A.67.67,0,0,0,272.4,311.18Z"/><path class="cls-91" d="M299.19,351.54a1.78,1.78,0,0,1-1.29-.55l-14-14.68a1.81,1.81,0,0,1-.35-2,1.92,1.92,0,0,1,1.76-1.16h6.2a.82.82,0,0,0,.81-.78l.9-20.48a1.94,1.94,0,0,1,1.91-1.83h11.75a1.8,1.8,0,0,1,1.3.55,1.84,1.84,0,0,1,.49,1.32l-.9,20.49a.67.67,0,0,0,.18.51.69.69,0,0,0,.51.22h6.2a1.74,1.74,0,0,1,1.66,1.11,1.86,1.86,0,0,1-.46,2.05L300.51,351A1.92,1.92,0,0,1,299.19,351.54Zm-14.53-16,14,14.68a.76.76,0,0,0,1.06,0l15.33-14.67a.77.77,0,0,0,.2-.85.67.67,0,0,0-.65-.43h-6.2a1.75,1.75,0,0,1-1.29-.55,1.73,1.73,0,0,1-.49-1.32l.9-20.48a.7.7,0,0,0-.19-.52.68.68,0,0,0-.51-.21H295.1a.82.82,0,0,0-.81.77l-.9,20.49a1.93,1.93,0,0,1-1.91,1.82h-6.2a.83.83,0,0,0-.75.5.73.73,0,0,0,.13.79Z"/><polygon class="cls-95" points="259.13 267.21 230.63 267.21 206.84 394.41 235.34 394.41 259.13 267.21"/><polygon class="cls-95" points="269.67 267.21 266.32 267.21 242.53 394.41 245.88 394.41 269.67 267.21"/><polygon class="cls-96" points="365.49 267.21 352.36 267.21 328.57 394.41 341.7 394.41 365.49 267.21"/><path class="cls-93" d="M289.72,270.88a1.35,1.35,0,0,1-1.34,1.28,1.22,1.22,0,0,1-1.23-1.28,1.37,1.37,0,0,1,1.35-1.29A1.21,1.21,0,0,1,289.72,270.88Z"/></g><g id="Tablet"><path class="cls-92" d="M164.9,353.3H76.84a4.2,4.2,0,0,1-4.22-4.41L77.84,230.5a4.67,4.67,0,0,1,4.6-4.41h88.07a4.19,4.19,0,0,1,4.21,4.41L169.5,348.89A4.66,4.66,0,0,1,164.9,353.3Z"/><path class="cls-91" d="M162.81,353.3H74.75a4.2,4.2,0,0,1-4.22-4.41L75.75,230.5a4.67,4.67,0,0,1,4.61-4.41h88.06a4.2,4.2,0,0,1,4.22,4.41l-5.22,118.39A4.68,4.68,0,0,1,162.81,353.3Z"/><path class="cls-93" d="M123,350.79h-8.21a1,1,0,0,1-1-1v-.26a1.08,1.08,0,0,1,1.07-1h8.21a1,1,0,0,1,1,1v.26A1.09,1.09,0,0,1,123,350.79Z"/><path class="cls-94" d="M76.6,345.74a2.14,2.14,0,0,1-2.15-2.26L79.36,232a2.39,2.39,0,0,1,2.36-2.26h85a2.14,2.14,0,0,1,2.15,2.26L164,343.48a2.38,2.38,0,0,1-2.36,2.26Z"/><path class="cls-91" d="M113.54,305.94H103.26a1.63,1.63,0,0,1-1.18-.5,1.61,1.61,0,0,1-.45-1.2l.79-17.91a.55.55,0,0,0-.15-.4.52.52,0,0,0-.39-.17H96.46a1.61,1.61,0,0,1-1.52-1,1.7,1.7,0,0,1,.42-1.87l13.4-12.83a1.73,1.73,0,0,1,1.23-.49,1.61,1.61,0,0,1,1.15.51l12.27,12.83a1.63,1.63,0,0,1,.31,1.8,1.73,1.73,0,0,1-1.6,1.06H116.7a.67.67,0,0,0-.64.62l-.79,17.91A1.75,1.75,0,0,1,113.54,305.94ZM110,270.66a.62.62,0,0,0-.44.18l-13.4,12.83a.61.61,0,0,0-.16.67.52.52,0,0,0,.5.33h5.42a1.62,1.62,0,0,1,1.63,1.71l-.79,17.9a.59.59,0,0,0,.15.41.55.55,0,0,0,.39.16h10.28a.66.66,0,0,0,.64-.61l.79-17.91a1.75,1.75,0,0,1,1.73-1.66h5.42a.64.64,0,0,0,.59-.4.56.56,0,0,0-.09-.62l-12.27-12.83a.53.53,0,0,0-.38-.16Z"/><path class="cls-91" d="M133.39,305.94h0a1.65,1.65,0,0,1-1.15-.5l-12.26-12.83a1.62,1.62,0,0,1-.32-1.8,1.74,1.74,0,0,1,1.6-1.07h5.42a.65.65,0,0,0,.64-.61l.79-17.91a1.76,1.76,0,0,1,1.73-1.66h10.28a1.64,1.64,0,0,1,1.19.5,1.73,1.73,0,0,1,.45,1.21l-.8,17.91a.59.59,0,0,0,.15.4.55.55,0,0,0,.39.16h5.42a1.6,1.6,0,0,1,1.52,1,1.71,1.71,0,0,1-.42,1.87l-13.4,12.83A1.71,1.71,0,0,1,133.39,305.94Zm-12.17-15.1a.63.63,0,0,0-.59.4.53.53,0,0,0,.1.61L133,304.69a.55.55,0,0,0,.38.16.7.7,0,0,0,.46-.18l13.39-12.83a.59.59,0,0,0,.16-.67.5.5,0,0,0-.5-.33h-5.42a1.62,1.62,0,0,1-1.63-1.71l.79-17.91a.5.5,0,0,0-.15-.4.55.55,0,0,0-.39-.16H129.8a.66.66,0,0,0-.64.61l-.79,17.91a1.75,1.75,0,0,1-1.73,1.66Z"/><polygon class="cls-95" points="141.47 226.09 112.96 226.09 89.18 353.3 117.68 353.3 141.47 226.09"/><polygon class="cls-96" points="152.01 226.09 148.66 226.09 124.87 353.3 128.22 353.3 152.01 226.09"/><path class="cls-93" d="M125.06,227.73a.78.78,0,0,1-.78.75.71.71,0,0,1-.71-.75.8.8,0,0,1,.78-.75A.71.71,0,0,1,125.06,227.73Z"/></g><rect class="cls-98" x="259.08" y="151.64" width="3.14" height="4.71"/><rect class="cls-98" x="253.73" y="151.64" width="3.14" height="4.71"/><rect class="cls-98" x="264.51" y="151.64" width="3.14" height="4.71"/><rect class="cls-98" x="269.95" y="151.64" width="3.14" height="4.71"/><rect class="cls-98" x="275.38" y="151.64" width="3.14" height="4.71"/><rect class="cls-98" x="280.82" y="151.64" width="3.14" height="4.71"/><rect class="cls-98" x="286.25" y="151.64" width="3.14" height="4.71"/><rect class="cls-98" x="291.69" y="151.64" width="3.14" height="4.71"/><rect class="cls-98" x="297.12" y="151.64" width="3.14" height="4.71"/><rect class="cls-98" x="259.08" y="218.12" width="3.14" height="4.71"/><rect class="cls-98" x="253.7" y="218.12" width="3.14" height="4.71"/><rect class="cls-98" x="264.51" y="218.12" width="3.14" height="4.71"/><rect class="cls-98" x="269.95" y="218.12" width="3.14" height="4.71"/><rect class="cls-98" x="275.38" y="218.12" width="3.14" height="4.71"/><rect class="cls-98" x="280.82" y="218.12" width="3.14" height="4.71"/><rect class="cls-98" x="286.25" y="218.12" width="3.14" height="4.71"/><rect class="cls-98" x="291.69" y="218.12" width="3.14" height="4.71"/><rect class="cls-98" x="297.54" y="218.12" width="3.14" height="4.71"/><rect class="cls-98" x="307.75" y="169.3" width="4.71" height="3.14"/><rect class="cls-98" x="307.75" y="163.5" width="4.71" height="3.14"/><rect class="cls-98" x="307.75" y="174.73" width="4.71" height="3.14"/><rect class="cls-98" x="307.75" y="180.17" width="4.71" height="3.14"/><rect class="cls-98" x="307.75" y="185.6" width="4.71" height="3.14"/><rect class="cls-98" x="307.75" y="191.04" width="4.71" height="3.14"/><rect class="cls-98" x="307.75" y="196.47" width="4.71" height="3.14"/><rect class="cls-98" x="307.75" y="201.91" width="4.71" height="3.14"/><rect class="cls-98" x="307.75" y="207.04" width="4.71" height="3.14"/><rect class="cls-98" x="241.63" y="169.3" width="4.71" height="3.14"/><rect class="cls-98" x="241.63" y="163.56" width="4.71" height="3.14"/><rect class="cls-98" x="241.63" y="174.73" width="4.71" height="3.14"/><rect class="cls-98" x="241.63" y="180.17" width="4.71" height="3.14"/><rect class="cls-98" x="241.63" y="185.6" width="4.71" height="3.14"/><rect class="cls-98" x="241.63" y="191.04" width="4.71" height="3.14"/><rect class="cls-98" x="241.63" y="196.47" width="4.71" height="3.14"/><rect class="cls-98" x="241.63" y="201.91" width="4.71" height="3.14"/><rect class="cls-98" x="241.63" y="207.16" width="4.71" height="3.14"/><path class="cls-99" d="M299.89,218.33H254a8.22,8.22,0,0,1-8.22-8.22V164.23A8.22,8.22,0,0,1,254,156h45.88a8.22,8.22,0,0,1,8.22,8.21v45.88A8.22,8.22,0,0,1,299.89,218.33Z"/><path class="cls-100" d="M294.1,212.54H259.8a8.22,8.22,0,0,1-8.22-8.21V170a8.22,8.22,0,0,1,8.22-8.22h34.3a8.22,8.22,0,0,1,8.22,8.22v34.31A8.22,8.22,0,0,1,294.1,212.54Z"/><path class="cls-101" d="M259.19,212.54a7.61,7.61,0,0,1-7.61-7.61V169.41a7.61,7.61,0,0,1,7.61-7.6h.71a7.59,7.59,0,0,0-6,7.42v35.52a7.61,7.61,0,0,0,7.6,7.61"/><path class="cls-100" d="M291.18,212.54h-32a7.61,7.61,0,0,1-7.61-7.61V169.41a7.61,7.61,0,0,1,7.61-7.61h35.52a7.61,7.61,0,0,1,7.61,7.61v35.52a7.61,7.61,0,0,1-7.61,7.61"/><path class="cls-100" d="M245.79,205.83V163.62a7.61,7.61,0,0,1,7.61-7.6h47.1a7.61,7.61,0,0,1,7.61,7.6v47.1a7.61,7.61,0,0,1-7.61,7.61H253.4a7.61,7.61,0,0,1-7.61-7.61"/><circle class="cls-83" cx="251.84" cy="159.69" r="0.75"/><circle class="cls-83" cx="256.67" cy="158.49" r="0.43"/><circle class="cls-83" cx="257.89" cy="158.49" r="0.43"/><circle class="cls-83" cx="259.12" cy="158.49" r="0.43"/><circle class="cls-83" cx="260.34" cy="158.49" r="0.43"/><circle class="cls-83" cx="261.56" cy="158.49" r="0.43"/><circle class="cls-83" cx="262.79" cy="158.49" r="0.43"/><circle class="cls-83" cx="264.01" cy="158.49" r="0.43"/><circle class="cls-83" cx="265.23" cy="158.49" r="0.43"/><circle class="cls-83" cx="266.46" cy="158.49" r="0.43"/><circle class="cls-83" cx="267.68" cy="158.49" r="0.43"/><circle class="cls-83" cx="257.87" cy="159.69" r="0.43"/><circle class="cls-83" cx="259.1" cy="159.69" r="0.43"/><circle class="cls-83" cx="260.32" cy="159.69" r="0.43"/><circle class="cls-83" cx="261.54" cy="159.69" r="0.43"/><circle class="cls-83" cx="262.77" cy="159.69" r="0.43"/><circle class="cls-83" cx="263.99" cy="159.69" r="0.43"/><circle class="cls-83" cx="265.21" cy="159.69" r="0.43"/><circle class="cls-83" cx="266.44" cy="159.69" r="0.43"/><circle class="cls-83" cx="267.66" cy="159.69" r="0.43"/><circle class="cls-83" cx="268.88" cy="159.69" r="0.43"/><circle class="cls-83" cx="249.61" cy="214.53" r="0.43"/><circle class="cls-83" cx="304.62" cy="214.53" r="0.43"/><circle class="cls-83" cx="304.62" cy="160" r="0.43"/><path class="cls-100" d="M299.55,171.88c0,.63,0,1.32.05,2.07"/><path class="cls-100" d="M291.63,164.07s3.91-.31,6,2a6.88,6.88,0,0,1,1.82,4"/><path class="cls-2" d="M256.87,195.49V180.68h3V193h6.39v2.51Z"/><path class="cls-2" d="M268.38,195.49V180.68h3V193h6.39v2.51Z"/><path class="cls-2" d="M279.89,195.49V180.68h4.65l2.41,6.8c.1.32.21.73.34,1.23s.26,1,.39,1.63.26,1.15.37,1.7.21,1,.29,1.43h-.59c.07-.39.17-.86.28-1.41s.24-1.11.38-1.7.26-1.13.39-1.64.24-.92.34-1.24l2.37-6.8h4.67v14.81h-3.05v-7c0-.32,0-.72,0-1.21s0-1,0-1.56,0-1.13.05-1.69,0-1.1,0-1.61h.19q-.19.83-.42,1.71c-.15.58-.31,1.15-.46,1.7s-.31,1.06-.45,1.52-.25.84-.35,1.14l-2.46,7h-2.55l-2.5-7c-.1-.3-.22-.68-.36-1.13s-.28-1-.44-1.51l-.47-1.7c-.16-.59-.31-1.17-.45-1.73h.23q0,.72,0,1.56c0,.57,0,1.13.05,1.7s0,1.09,0,1.58,0,.9,0,1.23v7Z"/></g></svg>