<svg id="Layer_1" data-name="Layer 1" xmlns="http://www.w3.org/2000/svg" xmlns:xlink="http://www.w3.org/1999/xlink" viewBox="0 0 592 500"><defs><style>.cls-1{fill:#7d97f4;}.cls-2,.cls-5,.cls-7{fill:#fff;}.cls-3{fill:url(#linear-gradient);}.cls-4{fill:#bdd0fb;}.cls-5,.cls-8{opacity:0.6;}.cls-6{fill:url(#linear-gradient-2);}.cls-7{stroke:#769ae6;stroke-miterlimit:10;stroke-width:2px;}.cls-9{fill:url(#linear-gradient-3);}.cls-10{fill:url(#linear-gradient-4);}.cls-11{fill:url(#linear-gradient-5);}.cls-12{fill:url(#linear-gradient-6);}.cls-13{fill:url(#linear-gradient-7);}.cls-14{fill:url(#linear-gradient-8);}.cls-15{fill:url(#linear-gradient-9);}.cls-16{fill:url(#linear-gradient-10);}.cls-17{fill:url(#linear-gradient-11);}.cls-18{fill:url(#linear-gradient-12);}.cls-19{fill:url(#linear-gradient-13);}.cls-20{clip-path:url(#clip-path);}.cls-21{fill:url(#linear-gradient-14);}.cls-22{clip-path:url(#clip-path-2);}.cls-23{fill:url(#linear-gradient-15);}.cls-24{clip-path:url(#clip-path-3);}.cls-25{fill:url(#linear-gradient-16);}.cls-26{opacity:0.38;}.cls-27{fill:#91b3fa;}.cls-28{fill:#f97d8c;stroke:#779ce8;stroke-linejoin:round;stroke-width:0.75px;}.cls-29{fill:#3a3792;}.cls-30{fill:url(#linear-gradient-17);}.cls-31{fill:#407bff;}.cls-32{fill:url(#linear-gradient-18);}.cls-33{fill:url(#linear-gradient-19);}.cls-34{fill:url(#linear-gradient-20);}.cls-35{fill:url(#linear-gradient-21);}.cls-36{fill:url(#linear-gradient-22);}.cls-37{fill:url(#linear-gradient-23);}.cls-38{fill:url(#linear-gradient-24);}.cls-39{fill:url(#linear-gradient-25);}.cls-40{fill:url(#linear-gradient-26);}.cls-41{fill:url(#linear-gradient-27);}.cls-42{fill:url(#linear-gradient-28);}.cls-43{fill:url(#linear-gradient-29);}.cls-44{fill:url(#linear-gradient-30);}.cls-45{fill:url(#linear-gradient-31);}.cls-46{fill:url(#linear-gradient-32);}.cls-47{fill:url(#linear-gradient-33);}.cls-48{fill:url(#linear-gradient-34);}.cls-49{fill:url(#linear-gradient-35);}.cls-50{fill:url(#linear-gradient-36);}.cls-51{fill:url(#linear-gradient-37);}.cls-52{fill:url(#linear-gradient-38);}.cls-53{fill:url(#linear-gradient-39);}.cls-54{fill:url(#linear-gradient-40);}.cls-55{fill:url(#linear-gradient-41);}.cls-56{fill:url(#linear-gradient-42);}.cls-57{fill:url(#linear-gradient-43);}.cls-58{fill:url(#linear-gradient-44);}.cls-59{fill:url(#linear-gradient-45);}.cls-60{fill:url(#linear-gradient-46);}.cls-61{fill:url(#linear-gradient-47);}.cls-62{fill:url(#linear-gradient-48);}.cls-63{fill:url(#linear-gradient-49);}.cls-64{fill:url(#linear-gradient-50);}.cls-65{fill:url(#linear-gradient-51);}.cls-66{fill:url(#linear-gradient-52);}.cls-67{fill:url(#linear-gradient-53);}.cls-68{fill:url(#linear-gradient-54);}.cls-69{fill:url(#linear-gradient-55);}.cls-70{fill:url(#linear-gradient-56);}.cls-71{fill:url(#linear-gradient-57);}.cls-72{fill:url(#linear-gradient-58);}.cls-73{fill:url(#linear-gradient-59);}.cls-74{fill:url(#linear-gradient-60);}.cls-75{fill:url(#linear-gradient-61);}.cls-76{fill:url(#linear-gradient-62);}.cls-77{fill:url(#linear-gradient-63);}.cls-78{fill:url(#linear-gradient-64);}.cls-79{fill:url(#linear-gradient-65);}.cls-80{fill:url(#linear-gradient-66);}.cls-81{fill:url(#linear-gradient-67);}.cls-82{fill:url(#linear-gradient-68);}.cls-83{fill:url(#linear-gradient-69);}.cls-84{fill:url(#linear-gradient-70);}.cls-85{fill:url(#linear-gradient-71);}.cls-86{fill:url(#linear-gradient-72);}.cls-87{fill:url(#linear-gradient-73);}.cls-88{fill:url(#linear-gradient-74);}.cls-89{fill:url(#linear-gradient-75);}.cls-90{fill:url(#linear-gradient-76);}.cls-91{fill:url(#linear-gradient-77);}.cls-92{fill:url(#linear-gradient-78);}.cls-93{fill:url(#linear-gradient-79);}.cls-94{fill:url(#linear-gradient-80);}.cls-95{fill:url(#linear-gradient-81);}.cls-96{fill:url(#linear-gradient-82);}.cls-97{fill:url(#linear-gradient-83);}.cls-98{fill:url(#linear-gradient-84);}.cls-99{fill:url(#linear-gradient-85);}.cls-100{fill:url(#linear-gradient-86);}.cls-101{fill:url(#linear-gradient-87);}.cls-102{fill:url(#linear-gradient-88);}.cls-103{fill:url(#linear-gradient-89);}.cls-104{fill:url(#linear-gradient-90);}.cls-105{fill:url(#linear-gradient-91);}.cls-106{fill:url(#linear-gradient-92);}.cls-107{fill:url(#linear-gradient-93);}.cls-108{fill:url(#linear-gradient-94);}.cls-109{fill:url(#linear-gradient-95);}.cls-110{fill:url(#linear-gradient-96);}.cls-111{fill:url(#linear-gradient-97);}.cls-112{fill:url(#linear-gradient-98);}.cls-113{fill:url(#linear-gradient-99);}.cls-114{fill:url(#linear-gradient-100);}.cls-115{fill:url(#linear-gradient-101);}.cls-116{fill:url(#linear-gradient-102);}.cls-117{fill:url(#linear-gradient-103);}.cls-118{fill:url(#linear-gradient-104);}.cls-119{fill:url(#linear-gradient-105);}.cls-120{fill:url(#linear-gradient-106);}.cls-121{fill:url(#linear-gradient-107);}.cls-122{fill:url(#linear-gradient-108);}.cls-123{fill:url(#linear-gradient-109);}.cls-124{fill:url(#linear-gradient-110);}.cls-125{fill:url(#linear-gradient-111);}.cls-126{fill:url(#linear-gradient-112);}.cls-127{fill:url(#linear-gradient-113);}.cls-128{fill:url(#linear-gradient-114);}.cls-129{fill:url(#linear-gradient-115);}.cls-130{fill:url(#linear-gradient-116);}.cls-131{fill:url(#linear-gradient-117);}.cls-132{fill:url(#linear-gradient-118);}.cls-133{fill:url(#linear-gradient-119);}.cls-134{fill:url(#linear-gradient-120);}.cls-135{fill:url(#linear-gradient-121);}.cls-136{fill:url(#linear-gradient-122);}.cls-137{fill:url(#linear-gradient-123);}.cls-138{fill:url(#linear-gradient-124);}.cls-139{fill:url(#linear-gradient-125);}.cls-140{fill:url(#linear-gradient-126);}.cls-141{fill:url(#linear-gradient-127);}.cls-142{fill:url(#linear-gradient-128);}.cls-143{fill:url(#linear-gradient-129);}.cls-144{fill:url(#linear-gradient-130);}.cls-145{fill:url(#linear-gradient-131);}.cls-146{fill:url(#linear-gradient-132);}.cls-147{fill:url(#linear-gradient-133);}.cls-148{fill:url(#linear-gradient-134);}.cls-149{fill:url(#linear-gradient-135);}.cls-150{fill:url(#linear-gradient-136);}.cls-151{fill:url(#linear-gradient-137);}.cls-152{fill:url(#linear-gradient-138);}.cls-153{fill:url(#linear-gradient-139);}.cls-154{fill:url(#linear-gradient-140);}.cls-155{fill:url(#linear-gradient-141);}.cls-156{fill:url(#linear-gradient-142);}.cls-157{fill:url(#linear-gradient-143);}.cls-158{fill:url(#linear-gradient-144);}.cls-159{fill:url(#linear-gradient-145);}.cls-160{fill:url(#linear-gradient-146);}.cls-161{fill:url(#linear-gradient-147);}.cls-162{fill:url(#linear-gradient-148);}.cls-163{fill:url(#linear-gradient-149);}.cls-164{fill:url(#linear-gradient-150);}.cls-165{fill:url(#linear-gradient-151);}.cls-166{fill:url(#linear-gradient-152);}.cls-167{fill:url(#linear-gradient-153);}.cls-168{fill:url(#linear-gradient-154);}.cls-169{fill:url(#linear-gradient-155);}.cls-170{fill:url(#linear-gradient-156);}.cls-171{fill:url(#linear-gradient-157);}.cls-172{fill:url(#linear-gradient-158);}.cls-173{fill:url(#linear-gradient-159);}.cls-174{fill:url(#linear-gradient-160);}.cls-175{fill:url(#linear-gradient-161);}.cls-176{fill:url(#linear-gradient-162);}.cls-177{fill:url(#linear-gradient-163);}.cls-178{fill:url(#linear-gradient-164);}.cls-179{fill:url(#linear-gradient-165);}.cls-180{fill:url(#linear-gradient-166);}.cls-181{fill:url(#linear-gradient-167);}.cls-182{fill:url(#linear-gradient-168);}.cls-183{fill:url(#linear-gradient-169);}.cls-184{fill:url(#linear-gradient-170);}.cls-185{fill:url(#linear-gradient-171);}.cls-186{fill:url(#linear-gradient-172);}.cls-187{fill:url(#linear-gradient-173);}.cls-188{fill:url(#linear-gradient-174);}.cls-189{fill:url(#linear-gradient-175);}.cls-190{fill:url(#linear-gradient-176);}.cls-191{fill:url(#linear-gradient-177);}.cls-192{fill:url(#linear-gradient-178);}.cls-193{fill:url(#linear-gradient-179);}.cls-194{fill:url(#linear-gradient-180);}.cls-195{fill:url(#linear-gradient-181);}.cls-196{fill:url(#linear-gradient-182);}.cls-197{fill:url(#linear-gradient-183);}.cls-198{fill:url(#linear-gradient-184);}.cls-199{fill:url(#linear-gradient-185);}.cls-200{fill:url(#linear-gradient-186);}.cls-201{fill:url(#linear-gradient-187);}.cls-202{fill:url(#linear-gradient-188);}.cls-203{fill:url(#linear-gradient-189);}.cls-204{fill:url(#linear-gradient-190);}.cls-205{fill:url(#linear-gradient-191);}.cls-206{fill:url(#linear-gradient-192);}.cls-207{fill:url(#linear-gradient-193);}.cls-208{fill:url(#linear-gradient-194);}.cls-209{fill:url(#linear-gradient-195);}.cls-210{fill:url(#linear-gradient-196);}.cls-211{fill:url(#linear-gradient-197);}.cls-212{fill:url(#linear-gradient-198);}.cls-213{fill:url(#linear-gradient-199);}.cls-214{fill:url(#linear-gradient-200);}.cls-215{fill:url(#linear-gradient-201);}.cls-216{fill:url(#linear-gradient-202);}.cls-217{fill:url(#linear-gradient-203);}.cls-218{fill:url(#linear-gradient-204);}.cls-219{fill:url(#linear-gradient-205);}.cls-220{fill:url(#linear-gradient-206);}.cls-221{fill:url(#linear-gradient-207);}.cls-222{fill:url(#linear-gradient-208);}.cls-223{fill:url(#linear-gradient-209);}.cls-224{fill:url(#linear-gradient-210);}.cls-225{fill:url(#linear-gradient-211);}.cls-226{fill:url(#linear-gradient-212);}.cls-227{fill:url(#linear-gradient-213);}.cls-228{fill:url(#linear-gradient-214);}.cls-229{fill:url(#linear-gradient-215);}.cls-230{fill:url(#linear-gradient-216);}.cls-231{fill:url(#linear-gradient-217);}.cls-232{fill:url(#linear-gradient-218);}.cls-233{fill:url(#linear-gradient-219);}.cls-234{fill:url(#linear-gradient-220);}.cls-235{fill:url(#linear-gradient-221);}.cls-236{fill:url(#linear-gradient-222);}.cls-237{fill:url(#linear-gradient-223);}.cls-238{fill:url(#linear-gradient-224);}.cls-239{fill:url(#linear-gradient-225);}.cls-240{fill:url(#linear-gradient-226);}.cls-241{fill:url(#linear-gradient-227);}.cls-242{fill:url(#linear-gradient-228);}.cls-243{fill:url(#linear-gradient-229);}.cls-244{fill:url(#linear-gradient-230);}.cls-245{fill:url(#linear-gradient-231);}.cls-246{fill:url(#linear-gradient-232);}.cls-247{fill:url(#linear-gradient-233);}.cls-248{fill:url(#linear-gradient-234);}.cls-249{fill:url(#linear-gradient-235);}.cls-250{fill:url(#linear-gradient-236);}.cls-251{fill:url(#linear-gradient-237);}.cls-252{fill:url(#linear-gradient-238);}.cls-253{fill:url(#linear-gradient-239);}.cls-254{fill:url(#linear-gradient-240);}.cls-255{fill:url(#linear-gradient-241);}.cls-256{fill:#faf3fe;}</style><linearGradient id="linear-gradient" x1="44.82" y1="249.82" x2="556.22" y2="249.82" gradientUnits="userSpaceOnUse"><stop offset="0" stop-color="#dae3fe"/><stop offset="1" stop-color="#e9effd"/></linearGradient><linearGradient id="linear-gradient-2" x1="96.98" y1="363.22" x2="238.22" y2="363.22" xlink:href="#linear-gradient"/><linearGradient id="linear-gradient-3" x1="182.51" y1="294.04" x2="198.13" y2="294.04" xlink:href="#linear-gradient"/><linearGradient id="linear-gradient-4" x1="208.62" y1="265.32" x2="224.24" y2="265.32" xlink:href="#linear-gradient"/><linearGradient id="linear-gradient-5" x1="234.73" y1="304" x2="250.35" y2="304" xlink:href="#linear-gradient"/><linearGradient id="linear-gradient-6" x1="260.84" y1="272.13" x2="276.46" y2="272.13" xlink:href="#linear-gradient"/><linearGradient id="linear-gradient-7" x1="286.94" y1="279.76" x2="302.57" y2="279.76" xlink:href="#linear-gradient"/><linearGradient id="linear-gradient-8" x1="313.05" y1="288.06" x2="328.68" y2="288.06" xlink:href="#linear-gradient"/><linearGradient id="linear-gradient-9" x1="339.16" y1="255.03" x2="354.79" y2="255.03" xlink:href="#linear-gradient"/><linearGradient id="linear-gradient-10" x1="365.27" y1="261.5" x2="380.9" y2="261.5" xlink:href="#linear-gradient"/><linearGradient id="linear-gradient-11" x1="391.38" y1="271.3" x2="407.01" y2="271.3" xlink:href="#linear-gradient"/><linearGradient id="linear-gradient-12" x1="417.49" y1="305.13" x2="433.12" y2="305.13" xlink:href="#linear-gradient"/><linearGradient id="linear-gradient-13" x1="443.6" y1="283.58" x2="459.23" y2="283.58" xlink:href="#linear-gradient"/><clipPath id="clip-path"><path class="cls-1" d="M76.46,158.65A19.36,19.36,0,1,0,95.82,178,19.36,19.36,0,0,0,76.46,158.65Zm0,30.39a11,11,0,1,1,11-11A11,11,0,0,1,76.46,189Z"/></clipPath><linearGradient id="linear-gradient-14" x1="78.01" y1="162.25" x2="79.03" y2="303.35" gradientUnits="userSpaceOnUse"><stop offset="0" stop-color="#4042e2"/><stop offset="1" stop-color="#4f52ff"/></linearGradient><clipPath id="clip-path-2"><path class="cls-1" d="M123.65,158.65A19.36,19.36,0,1,0,143,178,19.36,19.36,0,0,0,123.65,158.65Zm0,30.39a11,11,0,1,1,11-11A11,11,0,0,1,123.65,189Z"/></clipPath><linearGradient id="linear-gradient-15" x1="125.23" y1="161.91" x2="126.25" y2="303.01" xlink:href="#linear-gradient-14"/><clipPath id="clip-path-3"><path class="cls-1" d="M170.85,158.65A19.36,19.36,0,1,0,190.21,178,19.36,19.36,0,0,0,170.85,158.65Zm0,30.39a11,11,0,1,1,11-11A11,11,0,0,1,170.85,189Z"/></clipPath><linearGradient id="linear-gradient-16" x1="172.35" y1="161.57" x2="173.36" y2="302.67" xlink:href="#linear-gradient-14"/><linearGradient id="linear-gradient-17" x1="-6870.67" y1="-367.08" x2="-6899.99" y2="-247.94" gradientTransform="translate(7261.89 402.23)" gradientUnits="userSpaceOnUse"><stop offset="0" stop-color="#09005d"/><stop offset="1" stop-color="#1a0f91"/></linearGradient><linearGradient id="linear-gradient-18" x1="416.67" y1="174.35" x2="530.84" y2="174.35" xlink:href="#linear-gradient"/><linearGradient id="linear-gradient-19" x1="417.57" y1="186.29" x2="528.85" y2="186.29" xlink:href="#linear-gradient"/><linearGradient id="linear-gradient-20" x1="458.9" y1="230.66" x2="529.86" y2="230.66" xlink:href="#linear-gradient"/><linearGradient id="linear-gradient-21" x1="459.46" y1="238.09" x2="528.63" y2="238.09" xlink:href="#linear-gradient"/><linearGradient id="linear-gradient-22" x1="-9099.73" y1="267.74" x2="-9090.52" y2="290.84" gradientTransform="matrix(-1, 0, 0, 1, -8933, 0)" xlink:href="#linear-gradient-17"/><linearGradient id="linear-gradient-23" x1="-9118.73" y1="281.09" x2="-9101.72" y2="319.8" gradientTransform="matrix(-1, 0, 0, 1, -8933, 0)" gradientUnits="userSpaceOnUse"><stop offset="0" stop-color="#a22b25"/><stop offset="1" stop-color="#c0423c"/></linearGradient><linearGradient id="linear-gradient-24" x1="-8863.46" y1="-182.31" x2="-8882.3" y2="-125.6" gradientTransform="matrix(-1, 0, 0, 1, -8933, 0)" xlink:href="#linear-gradient-17"/><linearGradient id="linear-gradient-25" x1="-9099.06" y1="446.43" x2="-9087.83" y2="315.09" xlink:href="#linear-gradient-23"/><linearGradient id="linear-gradient-26" x1="-8893.53" y1="-192.3" x2="-8912.37" y2="-135.6" gradientTransform="matrix(-1, 0, 0, 1, -8933, 0)" xlink:href="#linear-gradient-17"/><linearGradient id="linear-gradient-27" x1="-9076.46" y1="448.38" x2="-9065.22" y2="317.01" xlink:href="#linear-gradient-23"/><linearGradient id="linear-gradient-28" x1="182.61" y1="303.56" x2="157.09" y2="325.07" xlink:href="#linear-gradient-14"/><linearGradient id="linear-gradient-29" x1="-9067.83" y1="316.54" x2="-9095.93" y2="361.49" gradientTransform="matrix(-1, 0, 0, 1, -8933, 0)" xlink:href="#linear-gradient-14"/><linearGradient id="linear-gradient-30" x1="167.53" y1="287.73" x2="162.86" y2="307.08" gradientTransform="matrix(1, 0, 0, 1, 0, 0)" xlink:href="#linear-gradient-23"/><linearGradient id="linear-gradient-31" x1="173.71" y1="302.58" x2="161.2" y2="317.59" gradientTransform="matrix(1, 0, 0, 1, 0, 0)" xlink:href="#linear-gradient-23"/><linearGradient id="linear-gradient-32" x1="-8591.69" y1="1125.2" x2="-8601.2" y2="1109.52" xlink:href="#linear-gradient-23"/><linearGradient id="linear-gradient-33" x1="-9101.66" y1="268.51" x2="-9092.45" y2="291.61" gradientTransform="matrix(-1, 0, 0, 1, -8933, 0)" xlink:href="#linear-gradient-17"/><linearGradient id="linear-gradient-34" x1="-8588.25" y1="1123.11" x2="-8597.76" y2="1107.43" xlink:href="#linear-gradient-23"/><linearGradient id="linear-gradient-35" x1="-9122.09" y1="282.57" x2="-9105.08" y2="321.27" xlink:href="#linear-gradient-23"/><linearGradient id="linear-gradient-36" x1="189.97" y1="237.38" x2="196.81" y2="276.9" gradientTransform="matrix(1, 0, 0, 1, 0, 0)" xlink:href="#linear-gradient-23"/><linearGradient id="linear-gradient-37" x1="206.02" y1="378.87" x2="272.34" y2="378.87" xlink:href="#linear-gradient"/><linearGradient id="linear-gradient-38" x1="206.9" y1="382.27" x2="265.3" y2="382.27" xlink:href="#linear-gradient"/><linearGradient id="linear-gradient-39" x1="191.97" y1="399.72" x2="277.04" y2="399.72" xlink:href="#linear-gradient"/><linearGradient id="linear-gradient-40" x1="193.77" y1="390.15" x2="276.07" y2="390.15" xlink:href="#linear-gradient"/><linearGradient id="linear-gradient-41" x1="357.21" y1="408.25" x2="358.35" y2="408.25" xlink:href="#linear-gradient"/><linearGradient id="linear-gradient-42" x1="355.89" y1="406.11" x2="357.06" y2="406.11" xlink:href="#linear-gradient"/><linearGradient id="linear-gradient-43" x1="354.51" y1="404.02" x2="355.71" y2="404.02" xlink:href="#linear-gradient"/><linearGradient id="linear-gradient-44" x1="353.06" y1="401.97" x2="354.29" y2="401.97" xlink:href="#linear-gradient"/><linearGradient id="linear-gradient-45" x1="351.55" y1="399.96" x2="352.81" y2="399.96" xlink:href="#linear-gradient"/><linearGradient id="linear-gradient-46" x1="349.98" y1="398" x2="351.26" y2="398" xlink:href="#linear-gradient"/><linearGradient id="linear-gradient-47" x1="348.35" y1="396.09" x2="349.66" y2="396.09" xlink:href="#linear-gradient"/><linearGradient id="linear-gradient-48" x1="346.67" y1="394.23" x2="348.01" y2="394.23" xlink:href="#linear-gradient"/><linearGradient id="linear-gradient-49" x1="344.93" y1="392.42" x2="346.3" y2="392.42" xlink:href="#linear-gradient"/><linearGradient id="linear-gradient-50" x1="343.14" y1="390.66" x2="344.53" y2="390.66" xlink:href="#linear-gradient"/><linearGradient id="linear-gradient-51" x1="341.3" y1="388.95" x2="342.72" y2="388.95" xlink:href="#linear-gradient"/><linearGradient id="linear-gradient-52" x1="339.42" y1="387.29" x2="340.86" y2="387.29" xlink:href="#linear-gradient"/><linearGradient id="linear-gradient-53" x1="337.49" y1="385.68" x2="338.96" y2="385.68" xlink:href="#linear-gradient"/><linearGradient id="linear-gradient-54" x1="335.52" y1="384.12" x2="337.01" y2="384.12" xlink:href="#linear-gradient"/><linearGradient id="linear-gradient-55" x1="333.51" y1="382.62" x2="335.02" y2="382.62" xlink:href="#linear-gradient"/><linearGradient id="linear-gradient-56" x1="331.47" y1="381.17" x2="333" y2="381.17" xlink:href="#linear-gradient"/><linearGradient id="linear-gradient-57" x1="329.38" y1="379.77" x2="330.94" y2="379.77" xlink:href="#linear-gradient"/><linearGradient id="linear-gradient-58" x1="327.27" y1="378.42" x2="328.84" y2="378.42" xlink:href="#linear-gradient"/><linearGradient id="linear-gradient-59" x1="325.12" y1="377.12" x2="326.71" y2="377.12" xlink:href="#linear-gradient"/><linearGradient id="linear-gradient-60" x1="322.94" y1="375.88" x2="324.55" y2="375.88" xlink:href="#linear-gradient"/><linearGradient id="linear-gradient-61" x1="320.73" y1="374.69" x2="322.36" y2="374.69" xlink:href="#linear-gradient"/><linearGradient id="linear-gradient-62" x1="318.49" y1="373.55" x2="320.14" y2="373.55" xlink:href="#linear-gradient"/><linearGradient id="linear-gradient-63" x1="316.23" y1="372.46" x2="317.9" y2="372.46" xlink:href="#linear-gradient"/><linearGradient id="linear-gradient-64" x1="313.94" y1="371.42" x2="315.63" y2="371.42" xlink:href="#linear-gradient"/><linearGradient id="linear-gradient-65" x1="311.64" y1="370.44" x2="313.34" y2="370.44" xlink:href="#linear-gradient"/><linearGradient id="linear-gradient-66" x1="309.31" y1="369.5" x2="311.02" y2="369.5" xlink:href="#linear-gradient"/><linearGradient id="linear-gradient-67" x1="306.96" y1="368.62" x2="308.69" y2="368.62" xlink:href="#linear-gradient"/><linearGradient id="linear-gradient-68" x1="304.6" y1="367.79" x2="306.34" y2="367.79" xlink:href="#linear-gradient"/><linearGradient id="linear-gradient-69" x1="302.22" y1="367.01" x2="303.96" y2="367.01" xlink:href="#linear-gradient"/><linearGradient id="linear-gradient-70" x1="299.82" y1="366.28" x2="301.58" y2="366.28" xlink:href="#linear-gradient"/><linearGradient id="linear-gradient-71" x1="297.41" y1="365.6" x2="299.17" y2="365.6" xlink:href="#linear-gradient"/><linearGradient id="linear-gradient-72" x1="294.98" y1="364.97" x2="296.76" y2="364.97" xlink:href="#linear-gradient"/><linearGradient id="linear-gradient-73" x1="292.54" y1="364.39" x2="294.33" y2="364.39" xlink:href="#linear-gradient"/><linearGradient id="linear-gradient-74" x1="290.09" y1="363.87" x2="291.89" y2="363.87" xlink:href="#linear-gradient"/><linearGradient id="linear-gradient-75" x1="287.63" y1="363.39" x2="289.44" y2="363.39" xlink:href="#linear-gradient"/><linearGradient id="linear-gradient-76" x1="285.16" y1="362.97" x2="286.97" y2="362.97" xlink:href="#linear-gradient"/><linearGradient id="linear-gradient-77" x1="282.68" y1="362.6" x2="284.5" y2="362.6" xlink:href="#linear-gradient"/><linearGradient id="linear-gradient-78" x1="280.2" y1="362.28" x2="282.03" y2="362.28" xlink:href="#linear-gradient"/><linearGradient id="linear-gradient-79" x1="277.71" y1="362.01" x2="279.54" y2="362.01" xlink:href="#linear-gradient"/><linearGradient id="linear-gradient-80" x1="275.21" y1="361.79" x2="277.05" y2="361.79" xlink:href="#linear-gradient"/><linearGradient id="linear-gradient-81" x1="272.71" y1="361.62" x2="274.56" y2="361.62" xlink:href="#linear-gradient"/><linearGradient id="linear-gradient-82" x1="270.21" y1="361.49" x2="272.07" y2="361.49" xlink:href="#linear-gradient"/><linearGradient id="linear-gradient-83" x1="267.71" y1="361.41" x2="269.57" y2="361.41" xlink:href="#linear-gradient"/><linearGradient id="linear-gradient-84" x1="265.2" y1="361.37" x2="267.07" y2="361.37" xlink:href="#linear-gradient"/><linearGradient id="linear-gradient-85" x1="262.7" y1="361.38" x2="264.57" y2="361.38" xlink:href="#linear-gradient"/><linearGradient id="linear-gradient-86" x1="260.19" y1="361.43" x2="262.07" y2="361.43" xlink:href="#linear-gradient"/><linearGradient id="linear-gradient-87" x1="257.69" y1="361.52" x2="259.58" y2="361.52" xlink:href="#linear-gradient"/><linearGradient id="linear-gradient-88" x1="255.19" y1="361.65" x2="257.08" y2="361.65" xlink:href="#linear-gradient"/><linearGradient id="linear-gradient-89" x1="252.69" y1="361.82" x2="254.59" y2="361.82" xlink:href="#linear-gradient"/><linearGradient id="linear-gradient-90" x1="250.2" y1="362.03" x2="252.1" y2="362.03" xlink:href="#linear-gradient"/><linearGradient id="linear-gradient-91" x1="247.71" y1="362.28" x2="249.61" y2="362.28" xlink:href="#linear-gradient"/><linearGradient id="linear-gradient-92" x1="245.22" y1="362.56" x2="247.13" y2="362.56" xlink:href="#linear-gradient"/><linearGradient id="linear-gradient-93" x1="242.73" y1="362.88" x2="244.65" y2="362.88" xlink:href="#linear-gradient"/><linearGradient id="linear-gradient-94" x1="240.26" y1="363.24" x2="242.18" y2="363.24" xlink:href="#linear-gradient"/><linearGradient id="linear-gradient-95" x1="237.79" y1="363.63" x2="239.71" y2="363.63" xlink:href="#linear-gradient"/><linearGradient id="linear-gradient-96" x1="235.32" y1="364.05" x2="237.24" y2="364.05" xlink:href="#linear-gradient"/><linearGradient id="linear-gradient-97" x1="232.86" y1="364.51" x2="234.78" y2="364.51" xlink:href="#linear-gradient"/><linearGradient id="linear-gradient-98" x1="230.41" y1="364.99" x2="232.33" y2="364.99" xlink:href="#linear-gradient"/><linearGradient id="linear-gradient-99" x1="227.96" y1="365.51" x2="229.88" y2="365.51" xlink:href="#linear-gradient"/><linearGradient id="linear-gradient-100" x1="225.52" y1="366.06" x2="227.44" y2="366.06" xlink:href="#linear-gradient"/><linearGradient id="linear-gradient-101" x1="223.09" y1="366.64" x2="225" y2="366.64" xlink:href="#linear-gradient"/><linearGradient id="linear-gradient-102" x1="220.66" y1="367.24" x2="222.58" y2="367.24" xlink:href="#linear-gradient"/><linearGradient id="linear-gradient-103" x1="218.24" y1="367.87" x2="220.16" y2="367.87" xlink:href="#linear-gradient"/><linearGradient id="linear-gradient-104" x1="215.83" y1="368.53" x2="217.74" y2="368.53" xlink:href="#linear-gradient"/><linearGradient id="linear-gradient-105" x1="213.42" y1="369.22" x2="215.34" y2="369.22" xlink:href="#linear-gradient"/><linearGradient id="linear-gradient-106" x1="211.02" y1="369.92" x2="212.94" y2="369.92" xlink:href="#linear-gradient"/><linearGradient id="linear-gradient-107" x1="208.63" y1="370.66" x2="210.54" y2="370.66" xlink:href="#linear-gradient"/><linearGradient id="linear-gradient-108" x1="206.24" y1="371.41" x2="208.16" y2="371.41" xlink:href="#linear-gradient"/><linearGradient id="linear-gradient-109" x1="203.86" y1="372.19" x2="205.78" y2="372.19" xlink:href="#linear-gradient"/><linearGradient id="linear-gradient-110" x1="201.49" y1="372.99" x2="203.41" y2="372.99" xlink:href="#linear-gradient"/><linearGradient id="linear-gradient-111" x1="199.13" y1="373.81" x2="201.05" y2="373.81" xlink:href="#linear-gradient"/><linearGradient id="linear-gradient-112" x1="196.77" y1="374.65" x2="198.69" y2="374.65" xlink:href="#linear-gradient"/><linearGradient id="linear-gradient-113" x1="194.42" y1="375.51" x2="196.34" y2="375.51" xlink:href="#linear-gradient"/><linearGradient id="linear-gradient-114" x1="192.08" y1="376.39" x2="194" y2="376.39" xlink:href="#linear-gradient"/><linearGradient id="linear-gradient-115" x1="189.74" y1="377.29" x2="191.66" y2="377.29" xlink:href="#linear-gradient"/><linearGradient id="linear-gradient-116" x1="187.42" y1="378.2" x2="189.33" y2="378.2" xlink:href="#linear-gradient"/><linearGradient id="linear-gradient-117" x1="185.09" y1="379.14" x2="187.01" y2="379.14" xlink:href="#linear-gradient"/><linearGradient id="linear-gradient-118" x1="182.78" y1="380.08" x2="184.69" y2="380.08" xlink:href="#linear-gradient"/><linearGradient id="linear-gradient-119" x1="180.47" y1="381.05" x2="182.38" y2="381.05" xlink:href="#linear-gradient"/><linearGradient id="linear-gradient-120" x1="178.16" y1="382.02" x2="180.08" y2="382.02" xlink:href="#linear-gradient"/><linearGradient id="linear-gradient-121" x1="175.86" y1="382.99" x2="177.77" y2="382.99" xlink:href="#linear-gradient"/><linearGradient id="linear-gradient-122" x1="173.56" y1="383.98" x2="175.47" y2="383.98" xlink:href="#linear-gradient"/><linearGradient id="linear-gradient-123" x1="171.25" y1="384.96" x2="173.17" y2="384.96" xlink:href="#linear-gradient"/><linearGradient id="linear-gradient-124" x1="168.95" y1="385.94" x2="170.88" y2="385.94" xlink:href="#linear-gradient"/><linearGradient id="linear-gradient-125" x1="166.65" y1="386.92" x2="168.57" y2="386.92" xlink:href="#linear-gradient"/><linearGradient id="linear-gradient-126" x1="164.34" y1="387.89" x2="166.27" y2="387.89" xlink:href="#linear-gradient"/><linearGradient id="linear-gradient-127" x1="162.03" y1="388.86" x2="163.97" y2="388.86" xlink:href="#linear-gradient"/><linearGradient id="linear-gradient-128" x1="159.72" y1="389.81" x2="161.65" y2="389.81" xlink:href="#linear-gradient"/><linearGradient id="linear-gradient-129" x1="157.4" y1="390.75" x2="159.34" y2="390.75" xlink:href="#linear-gradient"/><linearGradient id="linear-gradient-130" x1="155.07" y1="391.67" x2="157.01" y2="391.67" xlink:href="#linear-gradient"/><linearGradient id="linear-gradient-131" x1="152.73" y1="392.57" x2="154.68" y2="392.57" xlink:href="#linear-gradient"/><linearGradient id="linear-gradient-132" x1="150.39" y1="393.45" x2="152.34" y2="393.45" xlink:href="#linear-gradient"/><linearGradient id="linear-gradient-133" x1="148.04" y1="394.31" x2="149.99" y2="394.31" xlink:href="#linear-gradient"/><linearGradient id="linear-gradient-134" x1="145.67" y1="395.13" x2="147.64" y2="395.13" xlink:href="#linear-gradient"/><linearGradient id="linear-gradient-135" x1="143.3" y1="395.93" x2="145.26" y2="395.93" xlink:href="#linear-gradient"/><linearGradient id="linear-gradient-136" x1="140.92" y1="396.69" x2="142.88" y2="396.69" xlink:href="#linear-gradient"/><linearGradient id="linear-gradient-137" x1="138.52" y1="397.41" x2="140.49" y2="397.41" xlink:href="#linear-gradient"/><linearGradient id="linear-gradient-138" x1="136.11" y1="398.09" x2="138.08" y2="398.09" xlink:href="#linear-gradient"/><linearGradient id="linear-gradient-139" x1="133.69" y1="398.72" x2="135.66" y2="398.72" xlink:href="#linear-gradient"/><linearGradient id="linear-gradient-140" x1="131.26" y1="399.31" x2="133.23" y2="399.31" xlink:href="#linear-gradient"/><linearGradient id="linear-gradient-141" x1="128.81" y1="399.84" x2="130.79" y2="399.84" xlink:href="#linear-gradient"/><linearGradient id="linear-gradient-142" x1="126.36" y1="400.32" x2="128.34" y2="400.32" xlink:href="#linear-gradient"/><linearGradient id="linear-gradient-143" x1="123.89" y1="400.74" x2="125.87" y2="400.74" xlink:href="#linear-gradient"/><linearGradient id="linear-gradient-144" x1="121.41" y1="401.1" x2="123.39" y2="401.1" xlink:href="#linear-gradient"/><linearGradient id="linear-gradient-145" x1="118.93" y1="401.38" x2="120.91" y2="401.38" xlink:href="#linear-gradient"/><linearGradient id="linear-gradient-146" x1="116.43" y1="401.6" x2="118.42" y2="401.6" xlink:href="#linear-gradient"/><linearGradient id="linear-gradient-147" x1="113.94" y1="401.75" x2="115.92" y2="401.75" xlink:href="#linear-gradient"/><linearGradient id="linear-gradient-148" x1="111.44" y1="401.82" x2="113.42" y2="401.82" xlink:href="#linear-gradient"/><linearGradient id="linear-gradient-149" x1="108.94" y1="401.81" x2="110.92" y2="401.81" xlink:href="#linear-gradient"/><linearGradient id="linear-gradient-150" x1="106.44" y1="401.73" x2="108.42" y2="401.73" xlink:href="#linear-gradient"/><linearGradient id="linear-gradient-151" x1="103.94" y1="401.55" x2="105.92" y2="401.55" xlink:href="#linear-gradient"/><linearGradient id="linear-gradient-152" x1="101.46" y1="401.27" x2="103.43" y2="401.27" xlink:href="#linear-gradient"/><linearGradient id="linear-gradient-153" x1="98.99" y1="400.9" x2="100.95" y2="400.9" xlink:href="#linear-gradient"/><linearGradient id="linear-gradient-154" x1="96.53" y1="400.44" x2="98.49" y2="400.44" xlink:href="#linear-gradient"/><linearGradient id="linear-gradient-155" x1="94.1" y1="399.89" x2="96.05" y2="399.89" xlink:href="#linear-gradient"/><linearGradient id="linear-gradient-156" x1="91.68" y1="399.25" x2="93.63" y2="399.25" xlink:href="#linear-gradient"/><linearGradient id="linear-gradient-157" x1="89.29" y1="398.53" x2="91.23" y2="398.53" xlink:href="#linear-gradient"/><linearGradient id="linear-gradient-158" x1="86.93" y1="397.72" x2="88.85" y2="397.72" xlink:href="#linear-gradient"/><linearGradient id="linear-gradient-159" x1="84.6" y1="396.83" x2="86.51" y2="396.83" xlink:href="#linear-gradient"/><linearGradient id="linear-gradient-160" x1="82.3" y1="395.86" x2="84.2" y2="395.86" xlink:href="#linear-gradient"/><linearGradient id="linear-gradient-161" x1="80.03" y1="394.81" x2="81.92" y2="394.81" xlink:href="#linear-gradient"/><linearGradient id="linear-gradient-162" x1="77.8" y1="393.69" x2="79.68" y2="393.69" xlink:href="#linear-gradient"/><linearGradient id="linear-gradient-163" x1="75.61" y1="392.5" x2="77.47" y2="392.5" xlink:href="#linear-gradient"/><linearGradient id="linear-gradient-164" x1="73.46" y1="391.23" x2="75.31" y2="391.23" xlink:href="#linear-gradient"/><linearGradient id="linear-gradient-165" x1="71.35" y1="389.9" x2="73.19" y2="389.9" xlink:href="#linear-gradient"/><linearGradient id="linear-gradient-166" x1="69.29" y1="388.5" x2="71.1" y2="388.5" xlink:href="#linear-gradient"/><linearGradient id="linear-gradient-167" x1="67.26" y1="387.04" x2="69.07" y2="387.04" xlink:href="#linear-gradient"/><linearGradient id="linear-gradient-168" x1="65.29" y1="385.51" x2="67.07" y2="385.51" xlink:href="#linear-gradient"/><linearGradient id="linear-gradient-169" x1="63.36" y1="383.93" x2="65.13" y2="383.93" xlink:href="#linear-gradient"/><linearGradient id="linear-gradient-170" x1="61.49" y1="382.28" x2="63.24" y2="382.28" xlink:href="#linear-gradient"/><linearGradient id="linear-gradient-171" x1="59.66" y1="380.58" x2="61.4" y2="380.58" xlink:href="#linear-gradient"/><linearGradient id="linear-gradient-172" x1="57.89" y1="378.82" x2="59.6" y2="378.82" xlink:href="#linear-gradient"/><linearGradient id="linear-gradient-173" x1="56.17" y1="377.02" x2="57.87" y2="377.02" xlink:href="#linear-gradient"/><linearGradient id="linear-gradient-174" x1="54.51" y1="375.15" x2="56.19" y2="375.15" xlink:href="#linear-gradient"/><linearGradient id="linear-gradient-175" x1="52.9" y1="373.24" x2="54.56" y2="373.24" xlink:href="#linear-gradient"/><linearGradient id="linear-gradient-176" x1="51.36" y1="371.28" x2="53" y2="371.28" xlink:href="#linear-gradient"/><linearGradient id="linear-gradient-177" x1="49.87" y1="369.28" x2="51.49" y2="369.28" xlink:href="#linear-gradient"/><linearGradient id="linear-gradient-178" x1="48.45" y1="367.23" x2="50.05" y2="367.23" xlink:href="#linear-gradient"/><linearGradient id="linear-gradient-179" x1="47.09" y1="365.13" x2="48.67" y2="365.13" xlink:href="#linear-gradient"/><linearGradient id="linear-gradient-180" x1="45.8" y1="363" x2="47.36" y2="363" xlink:href="#linear-gradient"/><linearGradient id="linear-gradient-181" x1="44.58" y1="360.82" x2="46.11" y2="360.82" xlink:href="#linear-gradient"/><linearGradient id="linear-gradient-182" x1="43.43" y1="358.61" x2="44.93" y2="358.61" xlink:href="#linear-gradient"/><linearGradient id="linear-gradient-183" x1="42.35" y1="356.36" x2="43.83" y2="356.36" xlink:href="#linear-gradient"/><linearGradient id="linear-gradient-184" x1="41.34" y1="354.07" x2="42.79" y2="354.07" xlink:href="#linear-gradient"/><linearGradient id="linear-gradient-185" x1="40.41" y1="351.76" x2="41.84" y2="351.76" xlink:href="#linear-gradient"/><linearGradient id="linear-gradient-186" x1="39.56" y1="349.41" x2="40.96" y2="349.41" xlink:href="#linear-gradient"/><linearGradient id="linear-gradient-187" x1="38.79" y1="347.03" x2="40.16" y2="347.03" xlink:href="#linear-gradient"/><linearGradient id="linear-gradient-188" x1="38.11" y1="344.63" x2="39.44" y2="344.63" xlink:href="#linear-gradient"/><linearGradient id="linear-gradient-189" x1="37.51" y1="342.21" x2="38.81" y2="342.21" xlink:href="#linear-gradient"/><linearGradient id="linear-gradient-190" x1="36.99" y1="339.76" x2="38.26" y2="339.76" xlink:href="#linear-gradient"/><linearGradient id="linear-gradient-191" x1="36.56" y1="337.3" x2="37.8" y2="337.3" xlink:href="#linear-gradient"/><linearGradient id="linear-gradient-192" x1="36.23" y1="334.83" x2="37.44" y2="334.83" xlink:href="#linear-gradient"/><linearGradient id="linear-gradient-193" x1="35.99" y1="332.34" x2="37.16" y2="332.34" xlink:href="#linear-gradient"/><linearGradient id="linear-gradient-194" x1="35.84" y1="329.84" x2="36.98" y2="329.84" xlink:href="#linear-gradient"/><linearGradient id="linear-gradient-195" x1="35.78" y1="327.34" x2="36.89" y2="327.34" xlink:href="#linear-gradient"/><linearGradient id="linear-gradient-196" x1="35.8" y1="324.84" x2="36.91" y2="324.84" xlink:href="#linear-gradient"/><linearGradient id="linear-gradient-197" x1="35.91" y1="322.34" x2="37.05" y2="322.34" xlink:href="#linear-gradient"/><linearGradient id="linear-gradient-198" x1="36.11" y1="319.85" x2="37.27" y2="319.85" xlink:href="#linear-gradient"/><linearGradient id="linear-gradient-199" x1="36.41" y1="317.37" x2="37.59" y2="317.37" xlink:href="#linear-gradient"/><linearGradient id="linear-gradient-200" x1="36.8" y1="314.9" x2="38" y2="314.9" xlink:href="#linear-gradient"/><linearGradient id="linear-gradient-201" x1="37.28" y1="312.44" x2="38.51" y2="312.44" xlink:href="#linear-gradient"/><linearGradient id="linear-gradient-202" x1="37.85" y1="310.01" x2="39.1" y2="310.01" xlink:href="#linear-gradient"/><linearGradient id="linear-gradient-203" x1="38.5" y1="307.6" x2="39.77" y2="307.6" xlink:href="#linear-gradient"/><linearGradient id="linear-gradient-204" x1="39.24" y1="305.21" x2="40.53" y2="305.21" xlink:href="#linear-gradient"/><linearGradient id="linear-gradient-205" x1="40.06" y1="302.85" x2="41.37" y2="302.85" xlink:href="#linear-gradient"/><linearGradient id="linear-gradient-206" x1="40.97" y1="300.53" x2="42.3" y2="300.53" xlink:href="#linear-gradient"/><linearGradient id="linear-gradient-207" x1="41.95" y1="298.23" x2="43.29" y2="298.23" xlink:href="#linear-gradient"/><linearGradient id="linear-gradient-208" x1="43" y1="295.96" x2="44.37" y2="295.96" xlink:href="#linear-gradient"/><linearGradient id="linear-gradient-209" x1="44.13" y1="293.74" x2="45.52" y2="293.74" xlink:href="#linear-gradient"/><linearGradient id="linear-gradient-210" x1="45.34" y1="291.55" x2="46.73" y2="291.55" xlink:href="#linear-gradient"/><linearGradient id="linear-gradient-211" x1="46.61" y1="289.4" x2="48.02" y2="289.4" xlink:href="#linear-gradient"/><linearGradient id="linear-gradient-212" x1="47.95" y1="287.29" x2="49.38" y2="287.29" xlink:href="#linear-gradient"/><linearGradient id="linear-gradient-213" x1="49.35" y1="285.23" x2="50.8" y2="285.23" xlink:href="#linear-gradient"/><linearGradient id="linear-gradient-214" x1="50.82" y1="283.21" x2="52.28" y2="283.21" xlink:href="#linear-gradient"/><linearGradient id="linear-gradient-215" x1="52.35" y1="281.23" x2="53.82" y2="281.23" xlink:href="#linear-gradient"/><linearGradient id="linear-gradient-216" x1="53.95" y1="279.31" x2="55.42" y2="279.31" xlink:href="#linear-gradient"/><linearGradient id="linear-gradient-217" x1="55.6" y1="277.43" x2="57.08" y2="277.43" xlink:href="#linear-gradient"/><linearGradient id="linear-gradient-218" x1="57.3" y1="275.61" x2="58.79" y2="275.61" xlink:href="#linear-gradient"/><linearGradient id="linear-gradient-219" x1="59.07" y1="273.83" x2="60.56" y2="273.83" xlink:href="#linear-gradient"/><linearGradient id="linear-gradient-220" x1="60.88" y1="272.12" x2="62.39" y2="272.12" xlink:href="#linear-gradient"/><linearGradient id="linear-gradient-221" x1="62.75" y1="270.46" x2="64.26" y2="270.46" xlink:href="#linear-gradient"/><linearGradient id="linear-gradient-222" x1="64.66" y1="268.85" x2="66.18" y2="268.85" xlink:href="#linear-gradient"/><linearGradient id="linear-gradient-223" x1="66.63" y1="267.31" x2="68.15" y2="267.31" xlink:href="#linear-gradient"/><linearGradient id="linear-gradient-224" x1="68.64" y1="265.82" x2="70.17" y2="265.82" xlink:href="#linear-gradient"/><linearGradient id="linear-gradient-225" x1="70.7" y1="264.4" x2="72.23" y2="264.4" xlink:href="#linear-gradient"/><linearGradient id="linear-gradient-226" x1="72.8" y1="263.05" x2="74.33" y2="263.05" xlink:href="#linear-gradient"/><linearGradient id="linear-gradient-227" x1="74.94" y1="261.76" x2="76.48" y2="261.76" xlink:href="#linear-gradient"/><linearGradient id="linear-gradient-228" x1="77.13" y1="260.54" x2="78.67" y2="260.54" xlink:href="#linear-gradient"/><linearGradient id="linear-gradient-229" x1="79.35" y1="259.39" x2="80.89" y2="259.39" xlink:href="#linear-gradient"/><linearGradient id="linear-gradient-230" x1="81.61" y1="258.32" x2="83.15" y2="258.32" xlink:href="#linear-gradient"/><linearGradient id="linear-gradient-231" x1="83.9" y1="257.32" x2="85.44" y2="257.32" xlink:href="#linear-gradient"/><linearGradient id="linear-gradient-232" x1="86.22" y1="256.39" x2="87.77" y2="256.39" xlink:href="#linear-gradient"/><linearGradient id="linear-gradient-233" x1="88.58" y1="255.55" x2="90.12" y2="255.55" xlink:href="#linear-gradient"/><linearGradient id="linear-gradient-234" x1="90.96" y1="254.79" x2="92.51" y2="254.79" xlink:href="#linear-gradient"/><linearGradient id="linear-gradient-235" x1="93.37" y1="254.12" x2="94.91" y2="254.12" xlink:href="#linear-gradient"/><linearGradient id="linear-gradient-236" x1="95.8" y1="253.52" x2="97.34" y2="253.52" xlink:href="#linear-gradient"/><linearGradient id="linear-gradient-237" x1="98.26" y1="253.02" x2="99.79" y2="253.02" xlink:href="#linear-gradient"/><linearGradient id="linear-gradient-238" x1="100.73" y1="252.61" x2="102.26" y2="252.61" xlink:href="#linear-gradient"/><linearGradient id="linear-gradient-239" x1="103.21" y1="252.29" x2="104.74" y2="252.29" xlink:href="#linear-gradient"/><linearGradient id="linear-gradient-240" x1="105.7" y1="252.06" x2="107.22" y2="252.06" xlink:href="#linear-gradient"/><linearGradient id="linear-gradient-241" x1="108.21" y1="251.93" x2="109.72" y2="251.93" xlink:href="#linear-gradient"/></defs><rect class="cls-2" x="-1.47" y="-26.58" width="672.51" height="557.68"/><path class="cls-3" d="M541.75,267c-8.87-9.72-19.35-19.2-22.09-32.4-4.73-22.83,15.5-42.31,22.13-64.61a58,58,0,0,0-6.25-46.44c-8.47-13.46-22.86-22.54-38.07-24-26.18-2.54-51.79,16.12-77.57,10.72C399.26,105.94,383,86.84,362,84.8c-24.66-2.41-45.11,19.14-68.66,27.25-28.17,9.7-58.7-.44-86.39-11.57s-56.83-23.54-86-18.21c-32.49,5.92-59.73,35.89-64.07,70.48-4.31,34.28,31.81,61.8,1.06,103-9.6,12.86-16,30.77-11.75,46.54,4.13,15.32,21.69,25,21.82,40.94.1,12.58-11.1,22.59-12,35.13C55.2,389.08,62.51,399,71.5,404.13s19.42,6.35,29.56,7.51l-3,3.4c51.08,4.85,102.48,3.77,153.76,2.69l242.58-5.13c8.31-.18,16.82-.39,24.57-3.59s14.69-10.05,15.86-18.76c2-14.82-12.62-27.68-11.27-42.58,1.73-19,27-26.37,31.86-44.8C558.84,289.85,550.62,276.73,541.75,267Z"/><path class="cls-1" d="M243.76,417.57H91c-4.87,0-8.82-3.15-8.82-7V293.05c0-3.87,3.93-7,8.8-7l154-.33c4.9,0,8.87,3.16,8.84,7.06l-1.22,117.82C252.56,414.45,248.61,417.57,243.76,417.57Z"/><path class="cls-4" d="M236.27,294.69l-136.63.67c-4.94,0-8.92,3.23-8.9,7.16l1,98.82c0,3.87,3.93,7,8.79,7.09l132.76,1.93c5,.07,9-3.08,9.11-7l2.93-101.41C245.35,297.93,241.29,294.67,236.27,294.69Z"/><path class="cls-5" d="M230.72,303.86v.75a2.46,2.46,0,0,1-2.68,2.13H122.76a2.46,2.46,0,0,1-2.68-2.13v-.75a2.46,2.46,0,0,1,2.68-2.14H228A2.46,2.46,0,0,1,230.72,303.86Z"/><path class="cls-5" d="M219,313.29h0a2.48,2.48,0,0,1-2.63,2l-92.07,1.33a2.46,2.46,0,0,1-2.72-2.13v-.17a2.44,2.44,0,0,1,2.63-2.14L216.25,311C217.81,311,219.05,312.06,219,313.29Z"/><path class="cls-6" d="M228.37,404.26h-.08l-124.53-1.19a7.43,7.43,0,0,1-5.32-2.13A4.89,4.89,0,0,1,97,397.4l3.2-69.77c.07-3.06,3.21-5.51,7-5.45l124.32,1.93a7.48,7.48,0,0,1,5.28,2.14,4.92,4.92,0,0,1,1.44,3.52h0l-3,69C235.16,401.82,232.09,404.26,228.37,404.26ZM107,323.18c-3.18,0-5.8,2-5.86,4.48L98,397.43a3.89,3.89,0,0,0,1.17,2.82,6.53,6.53,0,0,0,4.62,1.82l124.53,1.19h.07c3.18,0,5.8-2,5.86-4.49l3-69a3.86,3.86,0,0,0-1.17-2.81,6.46,6.46,0,0,0-4.57-1.83l-124.31-1.93Zm130.67,6.58h0Z"/><path class="cls-2" d="M236.1,336.64H100.48a.5.5,0,0,1,0-1H236.1a.5.5,0,1,1,0,1Z"/><polygon class="cls-7" points="264.26 329.58 255.99 403.82 352.01 403.82 339.51 329.58 264.26 329.58"/><path class="cls-7" d="M103,146.69v170a25.79,25.79,0,0,0,25.13,25.79c62.09,1.6,279.28,5.48,338.39,4.61a19,19,0,0,0,18.69-18.44c1.14-39.49,3-134.47-3.86-178.56a19.53,19.53,0,0,0-18.68-16.53c-52-1.67-282.26-6.95-341.34-5.63A18.76,18.76,0,0,0,103,146.69Z"/><path class="cls-7" d="M113.62,145.86V307.39a14.94,14.94,0,0,0,14.72,14.94L458,326.4a14.55,14.55,0,0,0,14.76-14.49l.55-160.08a10.63,10.63,0,0,0-10.38-10.67l-337.48-6.82A11.52,11.52,0,0,0,113.62,145.86Z"/><path class="cls-1" d="M475.21,332.81h0l-361.6-6.16a.25.25,0,0,1,0-.5l361.59,6.16a.26.26,0,0,1,.25.26A.25.25,0,0,1,475.21,332.81Z"/><path class="cls-1" d="M298,340.34a4,4,0,1,1,4-4A4,4,0,0,1,298,340.34Zm0-7.53a3.52,3.52,0,1,0,3.51,3.52A3.52,3.52,0,0,0,298,332.81Z"/><path class="cls-7" d="M372.7,419H232.15c-3.81,0-6.68-2.72-5.94-5.64l1.8-7.13c.54-2.15,2.9-3.72,5.7-3.81l135.5-4.23c2.92-.09,5.52,1.46,6.15,3.69l3.26,11.36C379.46,416.2,376.58,419,372.7,419Z"/><path class="cls-1" d="M307.81,404.15a.25.25,0,0,1-.25-.24.26.26,0,0,1,.25-.26l5.8-.08h0a.25.25,0,0,1,.25.24.26.26,0,0,1-.25.26l-5.8.08Z"/><path class="cls-1" d="M231.41,414.87h0a.25.25,0,0,1-.21-.28l.83-5.19a5.58,5.58,0,0,1,5.44-4.71l61.58-.9h0a.25.25,0,0,1,0,.5l-61.58.9a5.1,5.1,0,0,0-5,4.29l-.82,5.18A.26.26,0,0,1,231.41,414.87Z"/><g class="cls-8"><rect class="cls-2" x="156.4" y="248.61" width="15.63" height="67.62"/><rect class="cls-9" x="182.51" y="271.85" width="15.63" height="44.38"/><rect class="cls-10" x="208.62" y="214.42" width="15.63" height="101.81"/><rect class="cls-11" x="234.73" y="291.77" width="15.63" height="24.46"/><rect class="cls-12" x="260.84" y="228.03" width="15.63" height="88.2"/><rect class="cls-13" x="286.94" y="243.3" width="15.63" height="72.93"/><rect class="cls-14" x="313.05" y="259.9" width="15.63" height="56.33"/><rect class="cls-15" x="339.16" y="193.83" width="15.63" height="122.39"/><rect class="cls-16" x="365.27" y="206.78" width="15.63" height="109.45"/><rect class="cls-17" x="391.38" y="226.37" width="15.63" height="89.86"/><rect class="cls-18" x="417.49" y="294.04" width="15.63" height="22.19"/><rect class="cls-19" x="443.6" y="250.93" width="15.63" height="65.29"/></g><path class="cls-4" d="M76.46,158.65A19.36,19.36,0,1,0,95.82,178,19.36,19.36,0,0,0,76.46,158.65Zm0,30.39a11,11,0,1,1,11-11A11,11,0,0,1,76.46,189Z"/><path class="cls-1" d="M76.46,158.65A19.36,19.36,0,1,0,95.82,178,19.36,19.36,0,0,0,76.46,158.65Zm0,30.39a11,11,0,1,1,11-11A11,11,0,0,1,76.46,189Z"/><g class="cls-20"><rect class="cls-21" x="49.42" y="173.76" width="57.51" height="24.34"/></g><path class="cls-4" d="M123.65,158.65A19.36,19.36,0,1,0,143,178,19.36,19.36,0,0,0,123.65,158.65Zm0,30.39a11,11,0,1,1,11-11A11,11,0,0,1,123.65,189Z"/><path class="cls-1" d="M123.65,158.65A19.36,19.36,0,1,0,143,178,19.36,19.36,0,0,0,123.65,158.65Zm0,30.39a11,11,0,1,1,11-11A11,11,0,0,1,123.65,189Z"/><g class="cls-22"><rect class="cls-23" x="96.62" y="164.35" width="57.51" height="33.74"/></g><path class="cls-4" d="M170.85,158.65A19.36,19.36,0,1,0,190.21,178,19.36,19.36,0,0,0,170.85,158.65Zm0,30.39a11,11,0,1,1,11-11A11,11,0,0,1,170.85,189Z"/><path class="cls-1" d="M170.85,158.65A19.36,19.36,0,1,0,190.21,178,19.36,19.36,0,0,0,170.85,158.65Zm0,30.39a11,11,0,1,1,11-11A11,11,0,0,1,170.85,189Z"/><g class="cls-24"><rect class="cls-25" x="143.81" y="185.92" width="57.51" height="12.17"/></g><path class="cls-1" d="M49.93,214.59c18.34-.27,109.06-1.86,127.68-2.18a3.27,3.27,0,0,1,3.34,3.28v8.49a3.28,3.28,0,0,1-3.28,3.29H50a3.28,3.28,0,0,1-3.28-3.29v-6.3A3.29,3.29,0,0,1,49.93,214.59Z"/><path class="cls-4" d="M73.06,221.13h0a3.31,3.31,0,0,0,3.36,3.31l74-1.29a3.31,3.31,0,0,0,3.16-4.09l-.34-1.37a3.3,3.3,0,0,0-3.33-2.52l-73.65,2.66A3.29,3.29,0,0,0,73.06,221.13Z"/><path class="cls-2" d="M56.53,221.59,45.16,233.17a1.16,1.16,0,0,0,.08,1.71l.09.08a1.09,1.09,0,0,0,1.53-.14l10.42-12.56Z"/><g class="cls-26"><path class="cls-27" d="M68.22,212.32a7.53,7.53,0,1,1-10-3.43A7.46,7.46,0,0,1,68.22,212.32Z"/></g><path class="cls-2" d="M57.88,208.13A8.23,8.23,0,1,0,69,212,8.31,8.31,0,0,0,57.88,208.13Zm6.56,13.76a7,7,0,1,1,3.43-9.41A7.09,7.09,0,0,1,64.44,221.89Z"/><circle class="cls-28" cx="295.54" cy="211.04" r="96.18" transform="translate(-62.67 270.79) rotate(-45)"/><circle class="cls-2" cx="295.54" cy="211.04" r="82.08"/><path class="cls-29" d="M295.54,294.5a83.48,83.48,0,1,1,59-24.45A82.88,82.88,0,0,1,295.54,294.5Zm0-164.17A80.71,80.71,0,1,0,376.25,211,80.81,80.81,0,0,0,295.54,130.33Z"/><circle class="cls-2" cx="295.54" cy="211.04" r="50.04" transform="translate(1.87 424.68) rotate(-71.57)"/><path class="cls-29" d="M295.54,262.46A51.42,51.42,0,1,1,347,211,51.48,51.48,0,0,1,295.54,262.46Zm0-100.09A48.67,48.67,0,1,0,344.2,211,48.73,48.73,0,0,0,295.54,162.37Z"/><circle class="cls-2" cx="295.54" cy="211.04" r="19.39" transform="translate(22.25 450.19) rotate(-76.72)"/><path class="cls-4" d="M295.54,231.8A20.76,20.76,0,1,1,316.3,211,20.78,20.78,0,0,1,295.54,231.8Zm0-38.77a18,18,0,1,0,18,18A18,18,0,0,0,295.54,193Z"/><rect class="cls-30" x="362.52" y="75.11" width="3.67" height="138.81" transform="translate(519.8 504.34) rotate(-135)"/><path class="cls-31" d="M315.81,186c1.49-1.48,8.5,5.53,7,7l-26,20.45a1,1,0,0,1-1.45-1.46Z"/><path class="cls-31" d="M414.67,96.79l13.2,1.31-18.12,18.13a28,28,0,0,1-22.59,8.07h0Z"/><path class="cls-31" d="M412.08,94.2,410.76,81,392.64,99.12a28,28,0,0,0-8.07,22.59h0Z"/><path class="cls-1" d="M404.63,163.68l.66,36.22c0,3.82,2.55,6.88,5.62,6.88h127.5c3.1,0,5.62-3.13,5.62-7V166.72c0-3.78-2.41-6.88-5.44-7l-128.16-3.15C407.22,156.44,404.57,159.68,404.63,163.68Z"/><path class="cls-2" d="M411,168.48l1.68,32.25c.07,1.74,1.23,3.1,2.62,3.07l120.57-1.55c1.41,0,2.54-1.46,2.54-3.21V172.78a3,3,0,0,0-2.45-3.21l-122.26-4.45C412.22,165,411,166.58,411,168.48Z"/><path class="cls-32" d="M416.67,172.72V176a1.87,1.87,0,0,0,1.67,2.05l110.87-1.24a1.89,1.89,0,0,0,1.63-2h0a1.9,1.9,0,0,0-1.61-2.06l-110.87-2A1.87,1.87,0,0,0,416.67,172.72Z"/><path class="cls-33" d="M417.57,185v3a1.87,1.87,0,0,0,1.71,2.06l108-2.52a1.9,1.9,0,0,0,1.59-2.05v-.93a1.88,1.88,0,0,0-1.66-2.06l-108,.46A1.9,1.9,0,0,0,417.57,185Z"/><path class="cls-1" d="M451.41,224l.42,22.51c0,2.38,1.58,4.28,3.49,4.28h79.25c1.93,0,3.49-1.95,3.49-4.35V225.92c0-2.35-1.49-4.27-3.38-4.35l-79.66-2C453,219.53,451.38,221.55,451.41,224Z"/><path class="cls-2" d="M455.4,227l1.05,20.05a1.8,1.8,0,0,0,1.62,1.91L533,248a1.84,1.84,0,0,0,1.57-2V229.69a1.85,1.85,0,0,0-1.52-2l-76-2.77A1.83,1.83,0,0,0,455.4,227Z"/><path class="cls-34" d="M458.9,229.65v2a1.16,1.16,0,0,0,1,1.27l68.91-.77a1.17,1.17,0,0,0,1-1.27h0a1.18,1.18,0,0,0-1-1.28L460,228.37A1.16,1.16,0,0,0,458.9,229.65Z"/><path class="cls-35" d="M459.46,237.3v1.86a1.15,1.15,0,0,0,1.06,1.27l67.12-1.56a1.19,1.19,0,0,0,1-1.28V237a1.17,1.17,0,0,0-1-1.28l-67.12.28A1.19,1.19,0,0,0,459.46,237.3Z"/><path class="cls-36" d="M161.27,280.17s-3.1,1.51-3.67,3.24c-.46,1.39-3.89,1.57-4.23,4.31a3.14,3.14,0,0,1-2.63,2.76c-3.51.54-8.91,2.36-9.77,8.45-.66,4.64,1.7,6.41,4.19,7a3.51,3.51,0,0,1,2.67,4.06c-.35,1.77.17,3.81,3.24,5.43,6.86,3.62,13.72-8.58,13.72-8.58l1.4-21.3Z"/><path class="cls-37" d="M193.58,268.93s-8.83,24.08-23.88,31.6c0,0,5,8.18,7.62,8.67,0,0,16.08-20.57,17.72-37.43Z"/><path class="cls-38" d="M133.06,413.76l-.44,3.65a1.52,1.52,0,0,1-1.33,1.32,23.83,23.83,0,0,1-4.88.08,1.3,1.3,0,0,1-1.09-1.68,13.39,13.39,0,0,1,2.45-4.77h4A1.25,1.25,0,0,1,133.06,413.76Z"/><path class="cls-39" d="M164.79,371l.68,4s-2.29,23.19-2.7,32.46a7.24,7.24,0,0,0,1.08,4.13l4,6.47-10.12-6-.2-1.24,1.66-2.27-2.17-26a7.94,7.94,0,0,1,.9-4.41l2.1-3.93Z"/><path class="cls-40" d="M168.49,419h-3.22a2,2,0,0,1-1.55-.76c-1-1.31-3.09-3.86-4.09-3.93-1.34-.09-1.17,4.69-1.17,4.69h-.75l-1-5.93a3.5,3.5,0,0,1,1.84-3.67h0a5,5,0,0,0,2,3.27c1.66,1,6.77,4.6,6.77,4.6a4.67,4.67,0,0,1,1.31,0A.86.86,0,0,1,168.49,419Z"/><path class="cls-41" d="M150.93,372.9s-13.41,25.44-15.55,31.25a54.81,54.81,0,0,0-2.9,11.11c0,.72-.94,1.4-3.4,1.4a2.33,2.33,0,0,1-2.19-1,1.41,1.41,0,0,1-.06-1.38c.78-1.57,3.24-6.59,4.15-8.87,1.09-2.72,3.43-15,4.72-19.31s2.73-8.93,8.33-13.2C144,372.9,147.87,369.14,150.93,372.9Z"/><path class="cls-42" d="M159.4,331.21c3.46-14.66-5.3-22.95-5.3-22.95,5.53-5.31,15.6-7.73,15.6-7.73s9.62,7,8.48,12.53c-.67,3.23-6.76,19.32-6.76,19.32A13.4,13.4,0,0,1,159.4,331.21Z"/><path class="cls-43" d="M151.73,338.47c1.41-4.24,7.67-7.26,7.67-7.26a13.4,13.4,0,0,0,12,1.17,24.15,24.15,0,0,1,.39,9.31c-.87,4.49-6.34,33.32-6.34,33.32-8.62,1.74-21.87-1.76-21.87-1.76C149.09,363.51,150.32,342.71,151.73,338.47Z"/><path class="cls-44" d="M163.42,290.85l-2.82,12.63c-.27,1.11.75.93,1.87.72,1.85-.35,4.22-1.06,5-2.5a1.28,1.28,0,0,0,.14-.47l1.21-8.77a1.59,1.59,0,0,0-.92-1.65l-2.34-1A1.56,1.56,0,0,0,163.42,290.85Z"/><path class="cls-45" d="M154.1,308.26s-19.64,14-2.52,28.8a4.45,4.45,0,0,0,1.94,1.12,21.45,21.45,0,0,1,3.54,2.41.67.67,0,0,0,1-.18h0a.93.93,0,0,0,.05-.87l-2.43-5.14a1.88,1.88,0,0,0-2.44-.11h0a.92.92,0,0,1-1.4-.31c-1.32-2.7-3.82-10.63,6.4-19.59a1.09,1.09,0,0,0,.25-1.34C157.75,311.67,156.11,308.92,154.1,308.26Z"/><path class="cls-46" d="M166.72,278.82s3.33,1.4,5.59,6.22.58,7-1.55,7.34a10,10,0,0,1-8.66-2.85C158.74,286.42,162.39,277.15,166.72,278.82Z"/><path class="cls-47" d="M164.36,287s-2.52-7,3.73-7.13l1.47,1s2.29-3.91-1.47-5.77-8.16-.33-9.76,4.74-1.88,8.46.79,10.88,3.76-.32,3.76-.32-1.45-2.27-.86-3.48,1.95.25,1.95.25Z"/><path class="cls-48" d="M163.66,287.74s-1.27-3.63-3-2.18,1.38,3.35,2.58,4Z"/><path class="cls-49" d="M194.43,273.31c.13.43-1.43,1.09-2.34-.67,0-.84-.55-4.43-.05-5.12a67.72,67.72,0,0,1,7.86-8.21,1.25,1.25,0,0,1,.15,1.72l-2.51,2.61a12.54,12.54,0,0,1,1.47,2.9,3.59,3.59,0,0,1-.36,2.6c-.44.79-1,1.82-1.61,2.63A3.46,3.46,0,0,1,194.43,273.31Z"/><path class="cls-50" d="M195.6,271.5l-.25,0a26.33,26.33,0,0,1,1.21-4.71,1.18,1.18,0,0,0,.24-.87.68.68,0,0,0-.35-.39l-2.2,1.87-.7,1.9-.24-.09.73-2,2.38-2,.08,0a.94.94,0,0,1,.54.59,1.36,1.36,0,0,1-.26,1.06A25.36,25.36,0,0,0,195.6,271.5Z"/><path class="cls-1" d="M280.16,418.92h-91.6c-2.92,0-5.29-1.11-5.29-2.48V374.92c0-1.37,2.36-2.48,5.28-2.48l92.33-.12c2.93,0,5.31,1.12,5.3,2.5l-.73,41.64C285.43,417.82,283.07,418.92,280.16,418.92Z"/><path class="cls-4" d="M275.67,375.5l-81.9.23c-3,0-5.35,1.15-5.33,2.54l.57,34.92c0,1.37,2.35,2.48,5.26,2.51l79.58.68c3,0,5.42-1.09,5.47-2.49l1.75-35.84C281.11,376.64,278.68,375.49,275.67,375.5Z"/><path class="cls-51" d="M272.34,378.74V379c0,.42-.72.76-1.61.76h-63.1c-.89,0-1.61-.34-1.61-.76v-.26c0-.42.72-.76,1.61-.76h63.1C271.62,378,272.34,378.32,272.34,378.74Z"/><path class="cls-52" d="M265.3,382.07h0c-.05.4-.73.71-1.58.71l-55.18.48c-.9,0-1.64-.34-1.64-.76v-.06c0-.41.71-.75,1.58-.75l55.19-.41C264.6,381.27,265.35,381.63,265.3,382.07Z"/><path class="cls-53" d="M270.93,414.55h-.05l-74.64-.43a5.48,5.48,0,0,1-3.8-1.21,1.58,1.58,0,0,1-.47-1.13l1.93-24.67c0-1.27,1.89-2.22,4.3-2.22h.09l74.51.68a5.56,5.56,0,0,1,3.77,1.21,1.53,1.53,0,0,1,.46,1.13v0l-1.79,24.39C275.19,413.59,273.35,414.55,270.93,414.55ZM198.2,385.89c-2,0-3.28.75-3.3,1.28L193,411.84a.57.57,0,0,0,.2.38,4.57,4.57,0,0,0,3.07.9l74.65.42h0c2,0,3.29-.76,3.31-1.28l1.79-24.4a.55.55,0,0,0-.19-.4,4.62,4.62,0,0,0-3-.9l-74.51-.68Zm78.33,2h0Z"/><path class="cls-54" d="M275.57,390.65h-81.3a.51.51,0,0,1-.5-.5.5.5,0,0,1,.5-.5h81.3a.5.5,0,0,1,.5.5A.51.51,0,0,1,275.57,390.65Z"/><path class="cls-55" d="M357.65,408.76l-.38-.64h0a.38.38,0,0,1,.66-.38h0l.38.65a.39.39,0,0,1-.14.52.37.37,0,0,1-.51-.14Z"/><path class="cls-56" d="M356.36,406.63,356,406h0a.39.39,0,0,1,.12-.53.38.38,0,0,1,.53.12h0l.4.64a.38.38,0,0,1-.64.4Z"/><path class="cls-57" d="M355,404.54l-.42-.61h0a.39.39,0,1,1,.64-.43h0l.42.62a.39.39,0,1,1-.64.44Z"/><path class="cls-58" d="M353.58,402.5l-.44-.6h0a.39.39,0,1,1,.63-.46h0l.44.61a.39.39,0,0,1-.08.55.39.39,0,0,1-.55-.09Z"/><path class="cls-59" d="M352.09,400.5l-.45-.59h0a.41.41,0,0,1,.07-.56.4.4,0,0,1,.56.07h0l.45.6a.39.39,0,0,1-.07.56.4.4,0,0,1-.56-.08Z"/><path class="cls-60" d="M350.55,398.55l-.48-.58h0a.41.41,0,0,1,.63-.51h0l.47.58a.4.4,0,1,1-.62.51Z"/><path class="cls-61" d="M349,396.65l-.5-.57h0a.41.41,0,0,1,.62-.54h0l.49.57a.41.41,0,0,1,0,.58.4.4,0,0,1-.57,0Z"/><path class="cls-62" d="M347.29,394.79l-.51-.55h0a.41.41,0,0,1,0-.59.43.43,0,0,1,.59,0h0l.51.55a.41.41,0,0,1,0,.58.4.4,0,0,1-.58,0Z"/><path class="cls-63" d="M345.58,393l-.53-.53h0a.43.43,0,0,1,0-.6.41.41,0,0,1,.59,0h0l.53.54a.42.42,0,0,1,0,.59.41.41,0,0,1-.59,0Z"/><path class="cls-64" d="M343.81,391.22l-.54-.51h0a.42.42,0,1,1,.59-.61h0l.54.53a.42.42,0,0,1,0,.6.43.43,0,0,1-.6,0Z"/><path class="cls-65" d="M342,389.52l-.55-.5h0a.42.42,0,1,1,.57-.63h0l.55.51a.42.42,0,0,1,0,.6.43.43,0,0,1-.61,0Z"/><path class="cls-66" d="M340.14,387.86l-.56-.49h0a.44.44,0,0,1,.57-.66h0l.57.5a.43.43,0,1,1-.57.65Z"/><path class="cls-67" d="M338.24,386.26l-.58-.47h0a.44.44,0,1,1,.55-.68h0l.59.48a.44.44,0,0,1,.06.62.45.45,0,0,1-.62.06Z"/><path class="cls-68" d="M336.29,384.7l-.59-.45h0a.45.45,0,0,1,.54-.71h0l.6.46a.45.45,0,0,1-.55.71Z"/><path class="cls-69" d="M334.31,383.2l-.61-.44h0a.45.45,0,1,1,.53-.73h0l.61.45a.46.46,0,0,1,.1.63.45.45,0,0,1-.63.09Z"/><path class="cls-70" d="M332.28,381.75l-.61-.42h0a.47.47,0,0,1-.11-.64.45.45,0,0,1,.63-.11h0l.61.43a.45.45,0,0,1,.12.63.46.46,0,0,1-.64.12Z"/><path class="cls-71" d="M330.22,380.36l-.62-.41h0a.47.47,0,0,1-.13-.64.46.46,0,0,1,.64-.14h0l.63.42a.46.46,0,0,1-.51.77Z"/><path class="cls-72" d="M328.13,379l-.64-.39h0a.47.47,0,0,1,.49-.8h0l.64.4a.48.48,0,0,1,.15.65.47.47,0,0,1-.64.14Z"/><path class="cls-73" d="M326,377.72l-.65-.38h0a.47.47,0,1,1,.48-.81h0l.65.38a.47.47,0,0,1-.48.81Z"/><path class="cls-74" d="M323.84,376.48l-.65-.36h0a.48.48,0,0,1,.47-.83h0l.65.37a.47.47,0,1,1-.46.83Z"/><path class="cls-75" d="M321.65,375.29l-.66-.35h0a.48.48,0,0,1-.21-.65.47.47,0,0,1,.65-.2h0l.66.35a.47.47,0,0,1,.2.65.49.49,0,0,1-.65.2Z"/><path class="cls-76" d="M319.44,374.15l-.67-.33h0a.49.49,0,0,1,.44-.88h0l.67.34a.49.49,0,0,1-.43.87Z"/><path class="cls-77" d="M317.19,373.06l-.67-.31h0a.5.5,0,0,1,.42-.9h0l.69.33a.48.48,0,0,1,.23.65.49.49,0,0,1-.65.24Z"/><path class="cls-78" d="M314.93,372l-.68-.3h0a.5.5,0,0,1-.25-.66.49.49,0,0,1,.65-.25h0l.68.3a.5.5,0,1,1-.4.91Z"/><path class="cls-79" d="M312.64,371.05l-.69-.29h0a.5.5,0,0,1,.38-.93h0l.7.29a.5.5,0,0,1,.27.66.52.52,0,0,1-.66.27Z"/><path class="cls-80" d="M310.33,370.11l-.69-.27h0a.51.51,0,0,1,.37-.94h0l.7.27a.51.51,0,0,1,.29.66.5.5,0,0,1-.65.28Z"/><path class="cls-81" d="M308,369.23l-.71-.26h0a.51.51,0,0,1-.3-.65.5.5,0,0,1,.65-.3h0l.71.26a.51.51,0,0,1,.3.65.52.52,0,0,1-.65.3Z"/><path class="cls-82" d="M305.66,368.39l-.71-.24h0a.51.51,0,0,1-.32-.65.52.52,0,0,1,.65-.32h0l.71.24a.51.51,0,0,1,.32.65.51.51,0,0,1-.65.31Z"/><path class="cls-83" d="M303.29,367.61l-.71-.22h0a.53.53,0,0,1-.34-.65.52.52,0,0,1,.65-.33h0l.72.22a.52.52,0,0,1-.32,1Z"/><path class="cls-84" d="M300.91,366.88l-.72-.21h0a.52.52,0,0,1-.35-.64.51.51,0,0,1,.64-.35h0l.73.21a.52.52,0,1,1-.3,1Z"/><path class="cls-85" d="M298.52,366.2l-.73-.19h0a.52.52,0,0,1-.37-.63.53.53,0,0,1,.64-.37h0l.73.2a.52.52,0,1,1-.27,1Z"/><path class="cls-86" d="M296.11,365.57l-.73-.18h0a.53.53,0,0,1,.25-1h0l.73.19a.52.52,0,1,1-.25,1Z"/><path class="cls-87" d="M293.68,365l-.72-.16h0a.54.54,0,0,1-.4-.63.53.53,0,0,1,.63-.4h0l.74.17a.51.51,0,0,1,.39.62.52.52,0,0,1-.62.4Z"/><path class="cls-88" d="M291.25,364.46l-.73-.15h0a.53.53,0,1,1,.22-1h0l.73.15a.54.54,0,0,1,.42.62.53.53,0,0,1-.63.41Z"/><path class="cls-89" d="M288.81,364l-.74-.13h0a.53.53,0,1,1,.19-1.05h0l.74.14a.53.53,0,0,1,.43.62.52.52,0,0,1-.62.42Z"/><path class="cls-90" d="M286.35,363.56l-.74-.12h0a.54.54,0,0,1,.17-1.06h0l.75.12a.54.54,0,1,1-.18,1.06Z"/><path class="cls-91" d="M283.89,363.18l-.74-.1h0a.54.54,0,0,1,.14-1.07h0l.74.11a.54.54,0,1,1-.15,1.06Z"/><path class="cls-92" d="M281.42,362.86l-.74-.09h0a.54.54,0,0,1-.47-.6.53.53,0,0,1,.6-.47h0l.75.09a.53.53,0,0,1,.47.6.54.54,0,0,1-.6.47Z"/><path class="cls-93" d="M278.94,362.59l-.74-.08h0a.53.53,0,0,1-.49-.59.54.54,0,0,1,.59-.49h0l.75.08a.53.53,0,0,1,.49.59.55.55,0,0,1-.59.49Z"/><path class="cls-94" d="M276.46,362.36l-.74-.05h0a.56.56,0,0,1-.51-.59.55.55,0,0,1,.59-.5h0l.75.06a.54.54,0,0,1-.08,1.08Z"/><path class="cls-95" d="M274,362.19l-.75,0h0a.56.56,0,0,1-.52-.58.55.55,0,0,1,.58-.52h0l.76,0a.55.55,0,0,1-.07,1.1Z"/><path class="cls-96" d="M271.49,362.06l-.75,0h0a.56.56,0,0,1-.53-.57.54.54,0,0,1,.57-.53h0l.75,0a.55.55,0,1,1-.05,1.1Z"/><path class="cls-97" d="M269,362l-.75,0h0a.55.55,0,0,1-.54-.57.54.54,0,0,1,.56-.54h0l.75,0a.54.54,0,0,1,.54.57.56.56,0,0,1-.57.54Z"/><path class="cls-98" d="M266.51,361.93h-.75a.56.56,0,0,1-.56-.56.57.57,0,0,1,.56-.56h.76a.55.55,0,0,1,.55.56.54.54,0,0,1-.56.55Z"/><path class="cls-99" d="M264,361.94h-.75a.57.57,0,0,1-.57-.56.56.56,0,0,1,.55-.57H264a.54.54,0,0,1,.56.55.56.56,0,0,1-.55.57Z"/><path class="cls-100" d="M261.52,362l-.74,0h0a.56.56,0,1,1,0-1.12h0l.76,0a.54.54,0,0,1,.57.54.56.56,0,0,1-.54.58Z"/><path class="cls-101" d="M259,362.07l-.74,0h0a.57.57,0,0,1,0-1.13h0l.76,0a.57.57,0,0,1,.59.54.57.57,0,0,1-.54.59Z"/><path class="cls-102" d="M256.54,362.19l-.74.05h0a.57.57,0,1,1-.07-1.14h0l.75,0a.57.57,0,0,1,.6.53.56.56,0,0,1-.53.6Z"/><path class="cls-103" d="M254.06,362.36l-.75.06h0a.57.57,0,1,1-.09-1.14h0l.75-.06a.57.57,0,1,1,.09,1.14Z"/><path class="cls-104" d="M251.57,362.57l-.74.07h0a.58.58,0,0,1-.63-.52.57.57,0,0,1,.52-.63h0l.75-.07a.58.58,0,0,1,.63.52.59.59,0,0,1-.52.63Z"/><path class="cls-105" d="M249.09,362.81l-.74.08h0a.58.58,0,0,1-.13-1.15h0l.75-.08a.58.58,0,1,1,.12,1.15Z"/><path class="cls-106" d="M246.62,363.09l-.75.09h0a.58.58,0,0,1-.65-.5.58.58,0,0,1,.51-.65h0l.75-.09a.57.57,0,0,1,.64.5.58.58,0,0,1-.5.65Z"/><path class="cls-107" d="M244.14,363.41l-.74.1h0a.59.59,0,0,1-.16-1.16h0l.75-.1a.58.58,0,0,1,.65.5.58.58,0,0,1-.5.66Z"/><path class="cls-108" d="M241.67,363.76l-.74.11h0a.59.59,0,0,1-.67-.49.6.6,0,0,1,.5-.67h0l.74-.11a.59.59,0,0,1,.18,1.16Z"/><path class="cls-109" d="M239.21,364.15l-.74.12h0a.6.6,0,0,1-.68-.49.59.59,0,0,1,.49-.67h0L239,363a.59.59,0,0,1,.68.48.6.6,0,0,1-.49.68Z"/><path class="cls-110" d="M236.75,364.56l-.73.14h0a.6.6,0,0,1-.68-.48.58.58,0,0,1,.48-.68h0l.74-.14a.6.6,0,0,1,.68.48.58.58,0,0,1-.48.68Z"/><path class="cls-111" d="M234.3,365l-.74.15h0a.59.59,0,0,1-.22-1.16h0l.74-.14a.58.58,0,0,1,.69.46.59.59,0,0,1-.47.69Z"/><path class="cls-112" d="M231.85,365.5l-.73.15h0a.6.6,0,0,1-.7-.46.59.59,0,0,1,.46-.7h0l.74-.15a.58.58,0,0,1,.69.46.59.59,0,0,1-.46.7Z"/><path class="cls-113" d="M229.41,366l-.73.16h0a.6.6,0,0,1-.71-.45.6.6,0,0,1,.46-.71h0l.73-.16a.59.59,0,1,1,.25,1.16Z"/><path class="cls-114" d="M227,366.55l-.73.17h0a.59.59,0,1,1-.27-1.15h0l.73-.17a.59.59,0,0,1,.27,1.15Z"/><path class="cls-115" d="M224.55,367.13l-.73.17h0a.6.6,0,0,1-.72-.43.6.6,0,0,1,.44-.72h0l.73-.18a.6.6,0,0,1,.72.44.59.59,0,0,1-.44.71Z"/><path class="cls-116" d="M222.13,367.72l-.73.19h0a.59.59,0,0,1-.29-1.15h0l.73-.19a.59.59,0,1,1,.29,1.15Z"/><path class="cls-117" d="M219.71,368.35l-.72.2h0a.61.61,0,0,1-.73-.43.59.59,0,0,1,.42-.72h0l.73-.19a.6.6,0,0,1,.31,1.15Z"/><path class="cls-118" d="M217.31,369l-.72.2h0a.6.6,0,0,1-.32-1.15h0l.73-.2a.59.59,0,0,1,.73.41.6.6,0,0,1-.41.74Z"/><path class="cls-119" d="M214.91,369.69l-.72.2h0a.59.59,0,1,1-.33-1.14h0l.72-.21a.6.6,0,0,1,.74.4.59.59,0,0,1-.4.74Z"/><path class="cls-120" d="M212.51,370.39l-.72.22h0a.6.6,0,1,1-.34-1.15h0l.72-.22a.6.6,0,0,1,.34,1.15Z"/><path class="cls-121" d="M210.12,371.12l-.71.22h0a.6.6,0,1,1-.35-1.14h0l.72-.23a.6.6,0,0,1,.35,1.15Z"/><path class="cls-122" d="M207.74,371.87l-.71.23h0a.6.6,0,0,1-.76-.39.6.6,0,0,1,.39-.75h0l.71-.23a.6.6,0,1,1,.37,1.14Z"/><path class="cls-123" d="M205.37,372.64l-.71.24h0a.6.6,0,0,1-.76-.38.61.61,0,0,1,.38-.76h0l.72-.24a.61.61,0,0,1,.76.38.6.6,0,0,1-.38.76Z"/><path class="cls-124" d="M203,373.44l-.71.24h0a.6.6,0,1,1-.39-1.14h0l.71-.24a.6.6,0,1,1,.39,1.14Z"/><path class="cls-125" d="M200.64,374.26l-.71.25h0a.6.6,0,0,1-.4-1.14h0l.71-.25a.6.6,0,0,1,.4,1.14Z"/><path class="cls-126" d="M198.29,375.09l-.71.26h0a.6.6,0,0,1-.77-.36.62.62,0,0,1,.36-.78h0l.71-.25a.6.6,0,0,1,.41,1.13Z"/><path class="cls-127" d="M195.94,376l-.7.26h0a.6.6,0,1,1-.42-1.13h0l.7-.27a.61.61,0,0,1,.78.36.6.6,0,0,1-.36.78Z"/><path class="cls-128" d="M193.61,376.83l-.71.26h0a.6.6,0,0,1-.43-1.13h0l.71-.27a.61.61,0,0,1,.78.35.61.61,0,0,1-.35.79Z"/><path class="cls-129" d="M191.27,377.72l-.7.27h0a.61.61,0,0,1-.44-1.13h0l.7-.27a.61.61,0,1,1,.44,1.13Z"/><path class="cls-130" d="M189,378.63l-.7.28h0a.61.61,0,0,1-.79-.34.6.6,0,0,1,.34-.79h0l.7-.28a.61.61,0,0,1,.45,1.13Z"/><path class="cls-131" d="M186.63,379.56l-.7.28h0a.6.6,0,0,1-.79-.33.61.61,0,0,1,.33-.8h0l.7-.28a.61.61,0,0,1,.46,1.13Z"/><path class="cls-132" d="M184.31,380.51l-.69.28a.61.61,0,0,1-.47-1.13h0l.7-.28a.61.61,0,1,1,.46,1.13Z"/><path class="cls-133" d="M182,381.46l-.7.29a.61.61,0,1,1-.47-1.12h0l.7-.29a.6.6,0,0,1,.79.32A.61.61,0,0,1,182,381.46Z"/><path class="cls-134" d="M179.7,382.43l-.69.3a.61.61,0,0,1-.48-1.13h0l.7-.29a.6.6,0,0,1,.8.32A.61.61,0,0,1,179.7,382.43Z"/><path class="cls-135" d="M177.4,383.41l-.69.29a.61.61,0,1,1-.48-1.12h0l.69-.3a.61.61,0,1,1,.48,1.13Z"/><path class="cls-136" d="M175.1,384.39l-.69.3a.61.61,0,0,1-.48-1.13h0l.69-.3a.61.61,0,0,1,.48,1.13Z"/><path class="cls-137" d="M172.8,385.38l-.69.29a.62.62,0,0,1-.81-.32.63.63,0,0,1,.33-.81h0l.69-.29a.62.62,0,0,1,.81.32A.63.63,0,0,1,172.8,385.38Z"/><path class="cls-138" d="M170.5,386.36l-.69.3a.63.63,0,0,1-.81-.33.62.62,0,0,1,.33-.81h0l.69-.29a.61.61,0,1,1,.48,1.13Z"/><path class="cls-139" d="M168.2,387.34l-.69.3a.62.62,0,1,1-.48-1.14h0l.69-.29a.61.61,0,1,1,.48,1.13Z"/><path class="cls-140" d="M165.89,388.32l-.69.29a.62.62,0,0,1-.48-1.14h0l.69-.29a.62.62,0,0,1,.48,1.14Z"/><path class="cls-141" d="M163.58,389.29l-.69.28a.61.61,0,0,1-.81-.33.62.62,0,0,1,.33-.81h0l.69-.29a.62.62,0,0,1,.47,1.15Z"/><path class="cls-142" d="M161.27,390.24l-.7.29a.62.62,0,1,1-.47-1.15h0l.69-.28a.62.62,0,1,1,.47,1.14Z"/><path class="cls-143" d="M159,391.19l-.7.28a.63.63,0,0,1-.81-.35.62.62,0,0,1,.35-.81h0l.69-.28h0a.62.62,0,0,1,.46,1.16Z"/><path class="cls-144" d="M156.62,392.11l-.7.28a.62.62,0,1,1-.46-1.16h0l.69-.27h0a.62.62,0,0,1,.45,1.15Z"/><path class="cls-145" d="M154.28,393l-.7.27a.62.62,0,0,1-.8-.36.61.61,0,0,1,.35-.8h0l.7-.27h0a.62.62,0,1,1,.44,1.16Z"/><path class="cls-146" d="M151.94,393.91l-.71.26a.63.63,0,0,1-.8-.37.62.62,0,0,1,.37-.8h0l.7-.26h0a.61.61,0,0,1,.8.37A.62.62,0,0,1,151.94,393.91Z"/><path class="cls-147" d="M149.58,394.77l-.71.25a.62.62,0,1,1-.42-1.17h0l.71-.26h0a.63.63,0,1,1,.42,1.18Z"/><path class="cls-148" d="M147.21,395.6l-.71.25a.62.62,0,0,1-.79-.39.61.61,0,0,1,.39-.79h0l.71-.24h0a.62.62,0,0,1,.4,1.18Z"/><path class="cls-149" d="M144.83,396.41l-.71.23a.63.63,0,0,1-.39-1.19h0l.71-.23h0a.61.61,0,0,1,.78.4.62.62,0,0,1-.4.79Z"/><path class="cls-150" d="M142.44,397.17l-.72.23a.63.63,0,0,1-.78-.42.64.64,0,0,1,.41-.78h0l.71-.22h0a.62.62,0,0,1,.78.41.61.61,0,0,1-.41.78Z"/><path class="cls-151" d="M140,397.9l-.72.21a.62.62,0,1,1-.35-1.19h0l.72-.21h0a.62.62,0,1,1,.35,1.19Z"/><path class="cls-152" d="M137.62,398.59l-.72.2a.62.62,0,1,1-.33-1.2h0l.72-.2h0a.61.61,0,0,1,.76.44.62.62,0,0,1-.44.76Z"/><path class="cls-153" d="M135.19,399.23l-.73.19a.62.62,0,0,1-.3-1.21h0l.73-.18h0a.62.62,0,0,1,.75.45.61.61,0,0,1-.45.75Z"/><path class="cls-154" d="M132.75,399.83,132,400a.62.62,0,0,1-.27-1.21h0l.73-.17h0a.62.62,0,0,1,.75.47.63.63,0,0,1-.47.74Z"/><path class="cls-155" d="M130.29,400.37l-.73.16a.63.63,0,0,1-.74-.48.63.63,0,0,1,.49-.74h0l.73-.15h0a.63.63,0,0,1,.74.48.62.62,0,0,1-.49.73Z"/><path class="cls-156" d="M127.83,400.86l-.75.14a.62.62,0,0,1-.22-1.22h0l.73-.13h0a.61.61,0,0,1,.22,1.21Z"/><path class="cls-157" d="M125.35,401.29l-.75.12a.61.61,0,0,1-.7-.52.6.6,0,0,1,.51-.7h0l.74-.12h0a.62.62,0,0,1,.7.52.61.61,0,0,1-.51.7Z"/><path class="cls-158" d="M122.86,401.66l-.75.1a.62.62,0,0,1-.16-1.23h0l.74-.09h0a.61.61,0,0,1,.69.53.62.62,0,0,1-.53.69Z"/><path class="cls-159" d="M120.36,402l-.76.08a.62.62,0,0,1-.12-1.23h0l.75-.08h0a.63.63,0,0,1,.68.55.62.62,0,0,1-.55.68Z"/><path class="cls-160" d="M117.85,402.19l-.76.06A.62.62,0,0,1,117,401h0l.74-.06h0a.62.62,0,1,1,.09,1.23Z"/><path class="cls-161" d="M115.33,402.35l-.75,0a.61.61,0,0,1-.64-.59.62.62,0,0,1,.58-.64h0l.74,0h0a.62.62,0,0,1,0,1.23Z"/><path class="cls-162" d="M112.81,402.43h-.75a.62.62,0,0,1,0-1.23h.76a.62.62,0,0,1,0,1.23Z"/><path class="cls-163" d="M110.29,402.43h-.75a.62.62,0,0,1,0-1.23h0l.74,0h0a.61.61,0,1,1,0,1.22Z"/><path class="cls-164" d="M107.77,402.36l-.75,0a.62.62,0,0,1,.06-1.23h0l.74,0h0a.62.62,0,1,1-.07,1.23Z"/><path class="cls-165" d="M105.25,402.19l-.75-.07a.61.61,0,0,1,.11-1.22h0l.74.07h0a.61.61,0,0,1-.12,1.22Z"/><path class="cls-166" d="M102.74,401.92l-.75-.09a.62.62,0,0,1-.53-.69.61.61,0,0,1,.69-.52h0l.73.09h0a.62.62,0,0,1,.53.69.61.61,0,0,1-.69.52Z"/><path class="cls-167" d="M100.24,401.56l-.74-.12a.61.61,0,0,1-.5-.7.6.6,0,0,1,.7-.5h0l.73.12h0a.62.62,0,0,1,.5.7.61.61,0,0,1-.71.5Z"/><path class="cls-168" d="M97.76,401.11,97,401a.61.61,0,1,1,.25-1.19h0l.73.15h0a.61.61,0,0,1-.25,1.19Z"/><path class="cls-169" d="M95.3,400.57l-.74-.18a.61.61,0,0,1-.44-.74.6.6,0,0,1,.73-.44h0l.72.18h0a.61.61,0,0,1-.29,1.18Z"/><path class="cls-170" d="M92.85,399.94l-.73-.21a.61.61,0,0,1,.34-1.17h0l.72.2h0a.61.61,0,0,1-.33,1.17Z"/><path class="cls-171" d="M90.43,399.22l-.72-.23a.61.61,0,1,1,.38-1.16h0l.71.22h0a.6.6,0,1,1-.37,1.15Z"/><path class="cls-172" d="M88,398.42l-.71-.26a.61.61,0,0,1,.41-1.14h0l.7.25h0a.6.6,0,0,1,.37.77.61.61,0,0,1-.78.37Z"/><path class="cls-173" d="M85.68,397.53l-.7-.28a.62.62,0,0,1-.34-.79.6.6,0,0,1,.79-.33h0l.7.27h0a.6.6,0,0,1,.34.78.62.62,0,0,1-.79.34Z"/><path class="cls-174" d="M83.35,396.56l-.69-.3a.61.61,0,0,1-.31-.8.62.62,0,0,1,.8-.31h0l.68.3h0a.6.6,0,1,1-.49,1.1Z"/><path class="cls-175" d="M81.06,395.52l-.69-.33a.6.6,0,1,1,.53-1.08h0l.67.32h0a.6.6,0,0,1-.52,1.09Z"/><path class="cls-176" d="M78.8,394.4l-.67-.35a.6.6,0,0,1,.55-1.07h0l.66.35h0a.6.6,0,0,1-.55,1.07Z"/><path class="cls-177" d="M76.58,393.21l-.66-.38a.59.59,0,0,1-.23-.81.6.6,0,0,1,.82-.23h0l.65.37h0a.6.6,0,0,1-.59,1Z"/><path class="cls-178" d="M74.4,391.94l-.65-.39a.6.6,0,0,1,.62-1h0l.63.38h0a.6.6,0,1,1-.62,1Z"/><path class="cls-179" d="M72.26,390.61l-.63-.41a.6.6,0,0,1,.65-1h0l.63.4h0a.59.59,0,0,1,.18.82.6.6,0,0,1-.83.18Z"/><path class="cls-180" d="M70.16,389.21l-.62-.43a.61.61,0,0,1-.15-.84.62.62,0,0,1,.84-.15h0l.61.42h0a.6.6,0,1,1-.69,1Z"/><path class="cls-181" d="M68.11,387.74l-.61-.45a.6.6,0,0,1-.12-.84.61.61,0,0,1,.84-.12h0l.6.44h0a.61.61,0,0,1,.12.84.59.59,0,0,1-.84.12Z"/><path class="cls-182" d="M66.11,386.21l-.6-.47a.6.6,0,0,1,.75-.93h0l.58.47h0a.6.6,0,0,1,.1.84.59.59,0,0,1-.84.09Z"/><path class="cls-183" d="M64.15,384.62l-.58-.48a.6.6,0,0,1-.07-.84.59.59,0,0,1,.84-.07h0l.57.48h0a.6.6,0,0,1,.07.84.59.59,0,0,1-.84.08Z"/><path class="cls-184" d="M62.24,383l-.56-.51a.59.59,0,0,1,.8-.88h0l.56.5h0a.59.59,0,0,1,.05.84.6.6,0,0,1-.85.05Z"/><path class="cls-185" d="M60.39,381.27l-.55-.52a.6.6,0,0,1,0-.84.59.59,0,0,1,.84,0h0l.54.52h0a.59.59,0,0,1-.82.86Z"/><path class="cls-186" d="M58.59,379.51l-.53-.54a.59.59,0,1,1,.84-.83h0l.52.53h0a.59.59,0,1,1-.84.83Z"/><path class="cls-187" d="M56.84,377.69l-.51-.55a.59.59,0,0,1,0-.84.6.6,0,0,1,.84,0h0l.51.55h0a.59.59,0,0,1-.87.81Z"/><path class="cls-188" d="M55.15,375.83l-.5-.57a.6.6,0,0,1,.06-.84.59.59,0,0,1,.83.06h0l.49.57h0a.59.59,0,0,1-.06.84.6.6,0,0,1-.83-.06Z"/><path class="cls-189" d="M53.51,373.91l-.47-.58a.6.6,0,0,1,.08-.84.59.59,0,0,1,.83.09h0l.48.58h0a.59.59,0,0,1-.08.83.6.6,0,0,1-.84-.08Z"/><path class="cls-190" d="M51.94,371.94l-.46-.6a.59.59,0,1,1,.93-.71h0l.45.59h0a.59.59,0,1,1-.93.72Z"/><path class="cls-191" d="M50.42,369.93l-.44-.61a.59.59,0,0,1,.14-.83.58.58,0,0,1,.82.14h0l.44.61h0a.59.59,0,0,1-.13.82.6.6,0,0,1-.83-.13Z"/><path class="cls-192" d="M49,367.87l-.42-.63a.58.58,0,1,1,1-.65h0l.41.62h0a.59.59,0,0,1-1,.66Z"/><path class="cls-193" d="M47.59,365.77l-.41-.64a.59.59,0,0,1,1-.63h0l.4.63h0a.59.59,0,1,1-1,.63Z"/><path class="cls-194" d="M46.26,363.62l-.38-.65a.59.59,0,0,1,1-.6h0l.38.64h0a.59.59,0,0,1-.21.8.6.6,0,0,1-.81-.21Z"/><path class="cls-195" d="M45,361.43l-.36-.66a.59.59,0,0,1,1-.56h0l.36.66h0a.59.59,0,0,1-1,.57Z"/><path class="cls-196" d="M43.83,359.21l-.34-.68a.58.58,0,0,1,.26-.78.59.59,0,0,1,.78.26h0l.34.67h0a.59.59,0,0,1-.26.79.59.59,0,0,1-.78-.26Z"/><path class="cls-197" d="M42.72,356.94l-.32-.68a.58.58,0,0,1,.28-.77.57.57,0,0,1,.77.28h0l.32.68h0a.58.58,0,1,1-1.05.5Z"/><path class="cls-198" d="M41.68,354.65l-.29-.7a.58.58,0,0,1,.3-.76.59.59,0,0,1,.76.31h0l.29.69h0a.58.58,0,0,1-1.07.46Z"/><path class="cls-199" d="M40.73,352.32l-.28-.71a.58.58,0,0,1,.33-.74.56.56,0,0,1,.74.33h0l.26.69h0a.57.57,0,0,1-1.07.42Z"/><path class="cls-200" d="M39.84,350l-.24-.71a.57.57,0,0,1,.35-.73.58.58,0,0,1,.73.35h0l.24.7h0a.59.59,0,0,1-.36.73.57.57,0,0,1-.72-.36Z"/><path class="cls-201" d="M39,347.56l-.22-.72a.57.57,0,0,1,1.09-.34h0l.22.71h0a.57.57,0,0,1-.37.72.59.59,0,0,1-.72-.38Z"/><path class="cls-202" d="M38.33,345.15l-.2-.73a.57.57,0,1,1,1.09-.3h0l.2.72h0a.56.56,0,0,1-.4.69.55.55,0,0,1-.69-.39Z"/><path class="cls-203" d="M37.69,342.71l-.17-.74a.57.57,0,0,1,1.1-.26h0l.17.72h0a.56.56,0,0,1-.42.68.58.58,0,0,1-.68-.42Z"/><path class="cls-204" d="M37.15,340.24,37,339.5a.56.56,0,0,1,1.1-.22h0l.15.73h0a.58.58,0,0,1-.44.67.57.57,0,0,1-.66-.45Z"/><path class="cls-205" d="M36.69,337.76l-.12-.74a.56.56,0,0,1,1.11-.18h0l.12.74h0a.56.56,0,0,1-1.11.17Z"/><path class="cls-206" d="M36.33,335.27l-.1-.75a.56.56,0,0,1,1.11-.14h0l.09.74h0a.55.55,0,0,1-1.1.14Z"/><path class="cls-207" d="M36.05,332.76,36,332a.55.55,0,0,1,1.1-.1h0l.07.74h0a.56.56,0,0,1-1.11.09Z"/><path class="cls-208" d="M35.87,330.24l0-.75a.55.55,0,0,1,.52-.58.56.56,0,0,1,.58.53h0l0,.75h0a.54.54,0,0,1-.52.58.56.56,0,0,1-.58-.52Z"/><path class="cls-209" d="M35.79,327.72V327a.56.56,0,0,1,.55-.56.55.55,0,0,1,.55.55h0v.75h0a.56.56,0,0,1-.55.56.55.55,0,0,1-.55-.55Z"/><path class="cls-210" d="M35.8,325.2l0-.76a.55.55,0,0,1,1.09,0h0l0,.75h0a.55.55,0,0,1-.56.53.54.54,0,0,1-.53-.56Z"/><path class="cls-211" d="M35.91,322.68l.05-.75a.55.55,0,1,1,1.09.07h0l0,.74h0a.55.55,0,0,1-1.09-.07Z"/><path class="cls-212" d="M36.11,320.17l.08-.76a.55.55,0,0,1,.6-.48.55.55,0,0,1,.48.6h0l-.08.74h0a.54.54,0,0,1-1.08-.11Z"/><path class="cls-213" d="M36.41,317.66l.11-.74a.54.54,0,1,1,1.07.15h0l-.11.74h0a.53.53,0,0,1-.61.45.54.54,0,0,1-.46-.61Z"/><path class="cls-214" d="M36.81,315.17l.13-.74a.53.53,0,0,1,.62-.43.53.53,0,0,1,.44.62h0l-.14.73h0a.53.53,0,1,1-1-.19Z"/><path class="cls-215" d="M37.29,312.7l.16-.74a.54.54,0,0,1,.64-.41.53.53,0,0,1,.4.64h0l-.16.73h0a.53.53,0,0,1-.63.41.54.54,0,0,1-.41-.64Z"/><path class="cls-216" d="M37.86,310.24l.19-.73a.53.53,0,1,1,1,.27h0l-.19.72h0a.52.52,0,0,1-.64.38.53.53,0,0,1-.39-.64Z"/><path class="cls-217" d="M38.52,307.81l.22-.72a.52.52,0,0,1,.65-.36.53.53,0,0,1,.36.66h0l-.21.72h0a.53.53,0,1,1-1-.3Z"/><path class="cls-218" d="M39.27,305.4l.24-.71a.51.51,0,0,1,.66-.33.52.52,0,0,1,.34.66h0l-.23.7h0a.53.53,0,0,1-.67.33.53.53,0,0,1-.33-.66Z"/><path class="cls-219" d="M40.1,303l.26-.71a.52.52,0,0,1,1,.36h0l-.26.7h0a.53.53,0,0,1-.68.31.52.52,0,0,1-.3-.67Z"/><path class="cls-220" d="M41,300.68l.28-.7a.52.52,0,1,1,1,.39h0l-.28.69h0a.52.52,0,0,1-.68.29.53.53,0,0,1-.29-.68Z"/><path class="cls-221" d="M42,298.36l.31-.69a.52.52,0,0,1,1,.43h0l-.31.68h0a.52.52,0,1,1-.95-.42Z"/><path class="cls-222" d="M43.06,296.08l.33-.68a.52.52,0,0,1,.93.45h0l-.32.67h0a.51.51,0,1,1-.92-.45Z"/><path class="cls-223" d="M44.19,293.83l.36-.67a.51.51,0,0,1,.69-.21.53.53,0,0,1,.22.7h0l-.35.66h0a.5.5,0,0,1-.69.21.51.51,0,0,1-.22-.69Z"/><path class="cls-224" d="M45.4,291.62l.38-.65a.51.51,0,0,1,.7-.19.52.52,0,0,1,.19.7h0l-.37.65h0a.51.51,0,0,1-.7.19.52.52,0,0,1-.19-.7Z"/><path class="cls-225" d="M46.68,289.45l.4-.64a.5.5,0,0,1,.7-.16.51.51,0,0,1,.17.7h0l-.39.63h0a.51.51,0,0,1-.87-.53Z"/><path class="cls-226" d="M48,287.33l.42-.63a.5.5,0,0,1,.7-.15.51.51,0,0,1,.14.71h0l-.41.62h0a.52.52,0,0,1-.71.14.51.51,0,0,1-.14-.7Z"/><path class="cls-227" d="M49.45,285.24l.43-.61a.5.5,0,0,1,.82.58h0l-.43.61h0a.51.51,0,0,1-.7.12.5.5,0,0,1-.12-.71Z"/><path class="cls-228" d="M50.92,283.21l.46-.61a.5.5,0,0,1,.7-.09.51.51,0,0,1,.1.7h0l-.44.6h0a.5.5,0,1,1-.8-.6Z"/><path class="cls-229" d="M52.46,281.22l.48-.59a.49.49,0,0,1,.7-.08.5.5,0,0,1,.07.7h0l-.47.58h0a.5.5,0,1,1-.78-.62Z"/><path class="cls-230" d="M54.07,279.27l.49-.57a.49.49,0,0,1,.74.64h0l-.48.57h0a.48.48,0,0,1-.69.06.5.5,0,0,1-.06-.7Z"/><path class="cls-231" d="M55.72,277.38l.51-.56a.5.5,0,0,1,.69,0,.49.49,0,0,1,0,.69h0l-.5.55h0a.49.49,0,0,1-.73-.66Z"/><path class="cls-232" d="M57.44,275.54,58,275a.48.48,0,0,1,.68,0,.49.49,0,0,1,0,.68h0l-.52.54h0a.48.48,0,1,1-.7-.67Z"/><path class="cls-233" d="M59.21,273.75l.54-.52a.48.48,0,1,1,.67.68h0l-.54.52h0a.48.48,0,0,1-.67-.69Z"/><path class="cls-234" d="M61,272l.55-.51a.48.48,0,0,1,.67,0,.47.47,0,0,1,0,.67h0l-.55.51h0a.46.46,0,0,1-.67,0,.47.47,0,0,1,0-.67Z"/><path class="cls-235" d="M62.91,270.34l.57-.49a.47.47,0,1,1,.62.71h0l-.56.48h0a.48.48,0,0,1-.67-.05.46.46,0,0,1,0-.66Z"/><path class="cls-236" d="M64.84,268.73l.59-.48A.46.46,0,1,1,66,269h0l-.58.47h0a.46.46,0,1,1-.58-.72Z"/><path class="cls-237" d="M66.81,267.17l.6-.46a.47.47,0,0,1,.65.09.46.46,0,0,1-.09.64h0l-.6.45h0a.46.46,0,1,1-.56-.73Z"/><path class="cls-238" d="M68.83,265.67l.62-.44A.46.46,0,0,1,70,266h0l-.6.43h0a.45.45,0,0,1-.63-.1.46.46,0,0,1,.1-.64Z"/><path class="cls-239" d="M70.9,264.24l.63-.42a.45.45,0,0,1,.62.12.45.45,0,0,1-.12.63h0l-.62.41h0a.45.45,0,0,1-.5-.75Z"/><path class="cls-240" d="M73,262.87l.64-.4a.45.45,0,1,1,.47.76h0l-.63.39h0a.44.44,0,0,1-.61-.15.44.44,0,0,1,.14-.61Z"/><path class="cls-241" d="M75.16,261.56l.66-.37a.44.44,0,1,1,.44.76h0l-.65.38h0a.45.45,0,0,1-.61-.16.44.44,0,0,1,.16-.6Z"/><path class="cls-242" d="M77.36,260.33,78,260a.44.44,0,0,1,.6.17.45.45,0,0,1-.18.6h0l-.65.35h0a.43.43,0,0,1-.59-.17.44.44,0,0,1,.18-.6Z"/><path class="cls-243" d="M79.59,259.17l.68-.34a.43.43,0,0,1,.38.78h0l-.67.33h0a.45.45,0,0,1-.59-.2.44.44,0,0,1,.2-.58Z"/><path class="cls-244" d="M81.86,258.08l.69-.31a.43.43,0,0,1,.35.78h0l-.68.31h0a.42.42,0,0,1-.57-.21.43.43,0,0,1,.21-.57Z"/><path class="cls-245" d="M84.16,257.07l.7-.29a.42.42,0,1,1,.32.78h0l-.69.29h0a.43.43,0,0,1-.56-.23.42.42,0,0,1,.23-.55Z"/><path class="cls-246" d="M86.5,256.13l.7-.26a.42.42,0,1,1,.3.78h0l-.7.27h0a.43.43,0,0,1-.54-.24.43.43,0,0,1,.25-.55Z"/><path class="cls-247" d="M88.86,255.28l.72-.24a.41.41,0,1,1,.26.78h0l-.71.24h0a.43.43,0,0,1-.53-.26.42.42,0,0,1,.26-.53Z"/><path class="cls-248" d="M91.26,254.51l.72-.22a.4.4,0,0,1,.51.28.41.41,0,0,1-.28.51h0l-.71.21h0a.41.41,0,1,1-.23-.78Z"/><path class="cls-249" d="M93.68,253.82l.73-.19a.4.4,0,0,1,.49.29.4.4,0,0,1-.29.49h0l-.72.19h0a.4.4,0,1,1-.2-.78Z"/><path class="cls-250" d="M96.12,253.21l.74-.16a.4.4,0,0,1,.17.78h0l-.73.17h0a.41.41,0,1,1-.18-.79Z"/><path class="cls-251" d="M98.58,252.7l.74-.14a.41.41,0,0,1,.47.32.4.4,0,0,1-.32.46h0l-.74.14h0a.4.4,0,1,1-.15-.78Z"/><path class="cls-252" d="M101.06,252.28l.75-.11a.39.39,0,1,1,.11.77h0l-.74.11h0a.38.38,0,0,1-.45-.33.39.39,0,0,1,.33-.44Z"/><path class="cls-253" d="M103.56,251.94l.75-.08a.38.38,0,0,1,.42.35.38.38,0,0,1-.34.42h0l-.74.09h0a.39.39,0,0,1-.08-.78Z"/><path class="cls-254" d="M106.06,251.7l.75,0a.39.39,0,0,1,.06.77h0l-.75.05h0a.37.37,0,0,1-.41-.35.38.38,0,0,1,.35-.42Z"/><path class="cls-255" d="M108.57,251.56l.76,0a.38.38,0,1,1,0,.75h0l-.75,0h0a.37.37,0,0,1-.39-.37.38.38,0,0,1,.36-.39Z"/><path class="cls-256" d="M447.29,342l-.74.07h0a.31.31,0,0,1-.33-.29.3.3,0,0,1,.28-.33h0l.75-.06a.32.32,0,0,1,.34.28.31.31,0,0,1-.29.33Z"/><path class="cls-256" d="M444.81,342.28l-.74.09h0a.31.31,0,0,1-.36-.27.32.32,0,0,1,.28-.36h0l.75-.09a.32.32,0,0,1,.35.28.31.31,0,0,1-.27.35Z"/><path class="cls-256" d="M442.34,342.62l-.74.11h0a.32.32,0,0,1-.37-.27.31.31,0,0,1,.27-.37h0l.75-.12a.33.33,0,0,1,.1.65Z"/><path class="cls-256" d="M439.88,343l-.74.13h0a.34.34,0,0,1-.39-.27.33.33,0,0,1,.28-.39h0l.74-.13a.33.33,0,0,1,.11.66Z"/><path class="cls-256" d="M437.42,343.46l-.73.14a.35.35,0,0,1-.41-.27.36.36,0,0,1,.28-.41h0l.74-.13a.34.34,0,0,1,.4.28A.34.34,0,0,1,437.42,343.46Z"/><path class="cls-256" d="M435,343.93l-.74.13a.35.35,0,1,1-.13-.69h0l.74-.14a.36.36,0,0,1,.13.7Z"/><path class="cls-256" d="M432.5,344.38l-.74.13a.36.36,0,0,1-.42-.29.36.36,0,0,1,.29-.42h0l.74-.13h0a.36.36,0,0,1,.41.3A.35.35,0,0,1,432.5,344.38Z"/><path class="cls-256" d="M430,344.81l-.74.11a.36.36,0,0,1-.43-.3.38.38,0,0,1,.31-.43h0l.74-.11h0a.36.36,0,0,1,.42.31A.38.38,0,0,1,430,344.81Z"/><path class="cls-256" d="M427.55,345.18l-.75.09a.38.38,0,1,1-.1-.75h0l.74-.09h0a.37.37,0,0,1,.42.33A.38.38,0,0,1,427.55,345.18Z"/><path class="cls-256" d="M425.05,345.47l-.75.07a.39.39,0,1,1-.07-.78h0l.75-.06h0a.39.39,0,0,1,.07.77Z"/><path class="cls-256" d="M422.53,345.66l-.75,0a.4.4,0,0,1-.42-.38.41.41,0,0,1,.39-.42h0l.75,0h0a.4.4,0,0,1,0,.8Z"/><path class="cls-256" d="M420,345.71l-.76,0a.39.39,0,0,1-.39-.41.41.41,0,0,1,.41-.4h0l.74,0h0a.41.41,0,0,1,0,.81Z"/><path class="cls-256" d="M417.49,345.6l-.76-.07a.4.4,0,0,1-.37-.44.41.41,0,0,1,.44-.37h0l.74.07h0a.41.41,0,0,1,.37.44A.4.4,0,0,1,417.49,345.6Z"/><path class="cls-256" d="M415,345.31l-.75-.12a.41.41,0,0,1-.34-.47.41.41,0,0,1,.47-.34h0l.74.12h0a.41.41,0,0,1-.13.81Z"/><path class="cls-256" d="M412.48,344.84l-.73-.18a.42.42,0,1,1,.19-.81h0l.72.18h0a.41.41,0,0,1,.3.5A.42.42,0,0,1,412.48,344.84Z"/><path class="cls-256" d="M410,344.18l-.72-.23a.41.41,0,0,1-.27-.52.42.42,0,0,1,.52-.28h0l.71.22h0a.41.41,0,0,1-.25.79Z"/><path class="cls-256" d="M407.65,343.35l-.71-.28a.41.41,0,0,1-.23-.54.42.42,0,0,1,.55-.24h0l.69.28h0a.42.42,0,0,1-.31.78Z"/><path class="cls-256" d="M405.32,342.36l-.68-.33a.42.42,0,1,1,.36-.76h0l.67.33h0a.42.42,0,0,1,.2.56A.43.43,0,0,1,405.32,342.36Z"/><path class="cls-256" d="M403.07,341.21l-.66-.38a.41.41,0,0,1-.16-.58.43.43,0,0,1,.58-.16h0l.64.37h0a.44.44,0,0,1,.16.58A.43.43,0,0,1,403.07,341.21Z"/><path class="cls-256" d="M400.9,339.91l-.64-.42a.44.44,0,0,1-.12-.6.43.43,0,0,1,.6-.12h0l.61.41h0a.43.43,0,0,1-.47.72Z"/><path class="cls-256" d="M398.82,338.46l-.6-.46a.43.43,0,0,1-.08-.61.42.42,0,0,1,.6-.08h0l.59.45h0a.44.44,0,0,1-.53.69Z"/><path class="cls-256" d="M396.85,336.87l-.57-.5a.44.44,0,0,1,.57-.66h0l.56.49h0a.43.43,0,0,1-.57.65Z"/><path class="cls-256" d="M395,335.15l-.53-.54a.44.44,0,0,1,.62-.62h0l.52.53h0a.43.43,0,0,1,0,.61A.44.44,0,0,1,395,335.15Z"/><path class="cls-256" d="M393.26,333.3l-.5-.57a.44.44,0,1,1,.67-.58h0l.48.56h0a.45.45,0,0,1-.05.62A.43.43,0,0,1,393.26,333.3Z"/><path class="cls-256" d="M391.66,331.34l-.45-.61a.44.44,0,1,1,.71-.53h0l.44.6h0a.44.44,0,0,1-.71.53Z"/><path class="cls-256" d="M390.21,329.26l-.41-.64a.46.46,0,0,1,.14-.62.45.45,0,0,1,.62.14h0l.39.63h0a.45.45,0,0,1-.76.47Z"/><path class="cls-256" d="M388.92,327.08l-.36-.67a.45.45,0,1,1,.8-.42h0l.35.65h0a.45.45,0,0,1-.19.61A.44.44,0,0,1,388.92,327.08Z"/><path class="cls-256" d="M387.79,324.81l-.3-.7a.45.45,0,1,1,.83-.36h0l.29.68h0a.44.44,0,0,1-.23.59A.45.45,0,0,1,387.79,324.81Z"/><path class="cls-256" d="M386.84,322.46l-.25-.72a.46.46,0,0,1,.86-.3h0l.24.7h0a.45.45,0,0,1-.28.58A.45.45,0,0,1,386.84,322.46Z"/><path class="cls-256" d="M386.06,320.05l-.2-.74a.46.46,0,0,1,.33-.56.45.45,0,0,1,.56.32h0l.2.72h0a.46.46,0,0,1-.32.56A.46.46,0,0,1,386.06,320.05Z"/><path class="cls-256" d="M385.46,317.59l-.15-.75a.46.46,0,0,1,.37-.54.46.46,0,0,1,.54.36h0l.14.73h0a.47.47,0,0,1-.37.54A.46.46,0,0,1,385.46,317.59Z"/><path class="cls-256" d="M385,315.09l-.1-.75a.47.47,0,0,1,.93-.12h0l.09.74h0a.46.46,0,0,1-.4.51A.45.45,0,0,1,385,315.09Z"/><path class="cls-256" d="M384.77,312.57l0-.76a.47.47,0,0,1,.93-.05h0l0,.74h0a.46.46,0,0,1-.44.49A.46.46,0,0,1,384.77,312.57Z"/><path class="cls-256" d="M384.68,310v-.76a.48.48,0,0,1,.48-.47.48.48,0,0,1,.47.48h0V310h0a.48.48,0,0,1-.95,0Z"/><path class="cls-256" d="M384.77,307.5l.06-.75a.48.48,0,0,1,.95.07h0l-.06.74h0a.46.46,0,0,1-.51.43A.47.47,0,0,1,384.77,307.5Z"/><path class="cls-256" d="M385,305l.12-.75a.48.48,0,0,1,.94.14h0l-.11.73h0a.48.48,0,0,1-1-.14Z"/><path class="cls-256" d="M385.47,302.48l.16-.74a.48.48,0,0,1,.58-.36.47.47,0,0,1,.36.57h0l-.16.72h0a.49.49,0,0,1-.58.37A.48.48,0,0,1,385.47,302.48Z"/><path class="cls-256" d="M386.08,300l.22-.73a.48.48,0,1,1,.92.28h0l-.21.71h0a.48.48,0,0,1-.61.32A.48.48,0,0,1,386.08,300Z"/><path class="cls-256" d="M386.86,297.61l.27-.71a.49.49,0,0,1,.63-.28.48.48,0,0,1,.28.63h0l-.26.69h0a.49.49,0,0,1-.63.28A.5.5,0,0,1,386.86,297.61Z"/><path class="cls-256" d="M387.82,295.26l.32-.69a.49.49,0,0,1,.65-.23.48.48,0,0,1,.24.65h0l-.32.67h0a.49.49,0,0,1-.89-.42Z"/><path class="cls-256" d="M389,293l.37-.66a.5.5,0,0,1,.67-.19.48.48,0,0,1,.19.67h0l-.36.65h0a.48.48,0,0,1-.67.19A.49.49,0,0,1,389,293Z"/><path class="cls-256" d="M390.24,290.81l.41-.64a.5.5,0,0,1,.69-.14.49.49,0,0,1,.15.68h0l-.4.62h0a.5.5,0,0,1-.83-.54Z"/><path class="cls-256" d="M391.67,288.72l.45-.61a.5.5,0,1,1,.8.59h0l-.44.6h0a.5.5,0,0,1-.7.1A.48.48,0,0,1,391.67,288.72Z"/><path class="cls-256" d="M393.22,286.72l.48-.58a.5.5,0,0,1,.7-.07.52.52,0,0,1,.07.71h0l-.47.57h0a.49.49,0,0,1-.7.06.5.5,0,0,1-.07-.7Z"/><path class="cls-256" d="M394.87,284.81l.52-.56a.5.5,0,0,1,.72.68h0l-.51.55h0a.5.5,0,1,1-.73-.67Z"/><path class="cls-256" d="M396.62,283l.53-.53a.49.49,0,0,1,.7,0,.48.48,0,0,1,0,.69h0l-.53.52h0a.5.5,0,0,1-.7-.7Z"/><path class="cls-256" d="M398.43,281.24l.56-.51a.49.49,0,1,1,.66.72h0l-.55.51h0a.49.49,0,0,1-.66-.72Z"/><path class="cls-256" d="M400.31,279.56l.57-.49a.5.5,0,0,1,.69.05.49.49,0,0,1-.06.69h0l-.56.49h0a.49.49,0,0,1-.63-.74Z"/><path class="cls-256" d="M402.23,277.94l.59-.47a.48.48,0,0,1,.68.07.5.5,0,0,1-.07.68h0l-.57.47h0a.48.48,0,0,1-.68-.07.5.5,0,0,1,.07-.68Z"/><path class="cls-256" d="M404.19,276.37l.6-.46a.48.48,0,0,1,.59.76h0l-.59.46h0a.48.48,0,0,1-.67-.08.5.5,0,0,1,.08-.68Z"/><path class="cls-256" d="M406.18,274.84l.61-.45a.47.47,0,0,1,.66.09.48.48,0,0,1-.09.67h0l-.6.45h0a.48.48,0,1,1-.58-.76Z"/><path class="cls-256" d="M408.19,273.34l.61-.44a.47.47,0,0,1,.66.1.48.48,0,0,1-.1.66l-.6.44a.48.48,0,1,1-.57-.76Z"/><path class="cls-256" d="M410.21,271.86l.61-.44a.47.47,0,0,1,.55.76l-.6.44a.47.47,0,0,1-.56-.76Z"/><path class="cls-256" d="M412.23,270.39l.61-.44a.45.45,0,0,1,.65.1.46.46,0,0,1-.1.65l-.61.44a.47.47,0,0,1-.65-.1.47.47,0,0,1,.1-.65Z"/><path class="cls-256" d="M414.25,268.91l.61-.44h0a.46.46,0,0,1,.55.74l-.61.45a.46.46,0,0,1-.55-.74Z"/><path class="cls-256" d="M416.26,267.42l.59-.45h0a.47.47,0,0,1,.65.09.46.46,0,0,1-.09.64l-.6.46a.46.46,0,0,1-.64-.09.45.45,0,0,1,.08-.64h0Z"/><path class="cls-256" d="M418.23,265.9l.59-.46h0a.46.46,0,0,1,.57.71l-.59.47a.46.46,0,1,1-.57-.71h0Z"/><path class="cls-256" d="M420.18,264.35l.57-.48h0a.45.45,0,0,1,.57.7l-.58.48a.45.45,0,0,1-.63-.06.46.46,0,0,1,.05-.64Z"/><path class="cls-256" d="M422.08,262.74l.56-.49h0a.45.45,0,0,1,.59.68l-.57.49a.45.45,0,0,1-.59-.67h0Z"/><path class="cls-256" d="M423.94,261.09l.54-.51h0a.45.45,0,1,1,.61.65l-.56.51a.45.45,0,1,1-.61-.65Z"/><path class="cls-256" d="M425.74,259.37l.52-.53h0a.44.44,0,0,1,.62.62l-.53.54a.45.45,0,0,1-.63,0,.44.44,0,0,1,0-.62h0Z"/><path class="cls-256" d="M427.46,257.59l.5-.55h0a.44.44,0,0,1,.65.59l-.51.56a.44.44,0,0,1-.65-.59Z"/><path class="cls-256" d="M429.1,255.73l.48-.58h0a.44.44,0,0,1,.68.55l-.49.59a.44.44,0,1,1-.67-.56Z"/><path class="cls-256" d="M430.65,253.79l.44-.6h0a.44.44,0,0,1,.61-.1.44.44,0,0,1,.09.61l-.45.61a.43.43,0,0,1-.6.09.42.42,0,0,1-.1-.6h0Z"/><path class="cls-256" d="M432.08,251.77l.4-.63h0a.44.44,0,0,1,.6-.13.43.43,0,0,1,.12.59l-.41.64a.42.42,0,0,1-.59.13.44.44,0,0,1-.13-.6h0Z"/><path class="cls-256" d="M433.37,249.66l.36-.65h0a.42.42,0,0,1,.58-.16.42.42,0,0,1,.17.57l-.37.67a.43.43,0,1,1-.75-.41h0Z"/><path class="cls-256" d="M434.51,247.47l.31-.67h0a.42.42,0,0,1,.56-.21.42.42,0,0,1,.21.56l-.32.69a.42.42,0,0,1-.56.21.43.43,0,0,1-.21-.56h0Z"/><path class="cls-256" d="M435.47,245.2l.26-.7h0a.43.43,0,0,1,.54-.25.42.42,0,0,1,.25.54l-.26.72a.43.43,0,0,1-.54.25.42.42,0,0,1-.25-.54h0Z"/><path class="cls-256" d="M436.25,242.86c.07-.24.13-.48.19-.71v0a.41.41,0,0,1,.8.22c-.06.25-.13.49-.2.74h0a.42.42,0,0,1-.51.29.43.43,0,0,1-.29-.52Z"/><path class="cls-256" d="M436.79,240.47l.11-.73v0a.4.4,0,0,1,.47-.34.4.4,0,0,1,.34.46l-.1.76a.42.42,0,0,1-.47.35.41.41,0,0,1-.35-.47h0Z"/><path class="cls-256" d="M437.05,238l0-.74h0a.41.41,0,0,1,.43-.4.41.41,0,0,1,.39.42l0,.77a.41.41,0,0,1-.43.39.4.4,0,0,1-.39-.42h0Z"/><path class="cls-256" d="M437,235.57l-.05-.74h0a.41.41,0,0,1,.38-.43.4.4,0,0,1,.43.37l.06.76a.41.41,0,0,1-.37.44.41.41,0,0,1-.44-.38h0Z"/><path class="cls-256" d="M436.78,233.12l-.13-.73h0a.4.4,0,0,1,.33-.46.4.4,0,0,1,.46.32l.13.75a.4.4,0,0,1-.79.15h0Z"/><path class="cls-256" d="M436.28,230.71l-.2-.71h0a.38.38,0,0,1,.27-.48.39.39,0,0,1,.48.27l.21.73a.4.4,0,0,1-.76.22h0Z"/><path class="cls-256" d="M435.54,228.36l-.27-.69h0a.38.38,0,0,1,.21-.49.39.39,0,0,1,.5.21l.28.71a.38.38,0,0,1-.22.5.39.39,0,0,1-.5-.21h0Z"/><path class="cls-256" d="M434.56,226.1l-.34-.65h0a.37.37,0,0,1,.66-.35l.35.68a.36.36,0,0,1-.15.5.38.38,0,0,1-.51-.15h0Z"/><path class="cls-256" d="M433.35,224l-.41-.61h0a.36.36,0,0,1,.1-.5.36.36,0,0,1,.5.09l.43.64a.36.36,0,0,1-.6.41h0Z"/><path class="cls-256" d="M431.89,222l-.48-.55h0a.35.35,0,0,1,0-.5.35.35,0,0,1,.49,0l.51.58a.35.35,0,0,1-.53.47h0Z"/><path class="cls-256" d="M430.2,220.21l-.55-.48h0a.36.36,0,0,1,0-.49.35.35,0,0,1,.48,0l.58.5a.34.34,0,0,1,0,.49.35.35,0,0,1-.49,0h0Z"/><path class="cls-256" d="M428.27,218.7l-.62-.39h0a.33.33,0,1,1,.35-.56l.65.4a.33.33,0,0,1-.35.57h0Z"/><path class="cls-256" d="M426.13,217.52l-.67-.28h0a.33.33,0,0,1,.25-.6l.71.29a.33.33,0,1,1-.25.61h0Z"/><path class="cls-256" d="M423.83,216.72l-.72-.16h0a.32.32,0,0,1-.23-.38.31.31,0,0,1,.37-.24l.75.17a.3.3,0,0,1,.24.37.32.32,0,0,1-.37.25h0Z"/><path class="cls-256" d="M421.41,216.34h-.06a.3.3,0,0,1-.29-.32.32.32,0,0,1,.33-.29h.07a.31.31,0,0,1,0,.62h0Z"/></svg>