<svg id="Layer_1" data-name="Layer 1" xmlns="http://www.w3.org/2000/svg" viewBox="0 0 592 500"><defs><style>.cls-1{fill:#fff;}.cls-2{opacity:0.59;}.cls-3{fill:#d7e4f9;}.cls-4{fill:#407bff;}.cls-5{fill:#779ce8;}.cls-10,.cls-11,.cls-12,.cls-6,.cls-8,.cls-9{fill:none;}.cls-6,.cls-9{stroke:#1c1c1b;}.cls-10,.cls-12,.cls-6,.cls-8,.cls-9{stroke-linecap:round;stroke-linejoin:round;}.cls-7{fill:#f97d8c;}.cls-12,.cls-8{stroke:#000;}.cls-9{stroke-dasharray:4;}.cls-10{stroke:#1d1d1b;}.cls-11{stroke:#779ce8;stroke-miterlimit:10;stroke-width:0.75px;}.cls-12{stroke-width:3px;}</style></defs><rect class="cls-1" x="-78.32" y="2.6" width="672.51" height="557.68"/><g id="OBJECTS"><g class="cls-2"><path class="cls-3" d="M239.5,114.77a31.31,31.31,0,0,0-7.44-21.48,35.77,35.77,0,0,0-23.77-12.05c-6.67-.63-13.38.49-19.94,1.89-17.9,3.81-33.25,17.43-46.21,30-6.52,6.31-12.48,13.55-15.28,22.17-17.24,53.05,64.33,24.76,83.42,14.53,12.86-6.88,25.92-16.71,28.73-31A28.65,28.65,0,0,0,239.5,114.77Z"/><path class="cls-3" d="M489.38,327.67a225.64,225.64,0,0,0,16-53.5c12.18-73.46-12.31-176.39-100.5-182.88-35.5-2.62-70.88,11.24-99.08,32.95-23.43,18-42.66,41.43-67.65,57.26-39.74,25.18-99.09,27.58-131.21,64.12C83,272.91,77,313.47,87.85,348.16s36.76,63.46,67.84,82.27,67.07,28.32,103.15,32.62c37.12,4.43,75.84,3.35,110.38-11,19.26-8,36.72-19.86,52.5-33.47C450.55,393.76,474.15,362.47,489.38,327.67Z"/></g><rect class="cls-3" x="257.61" y="132.96" width="50.43" height="2.81"/><rect class="cls-3" x="228.84" y="132.96" width="20.3" height="2.81"/><rect class="cls-3" x="210.4" y="132.96" width="13.08" height="2.81"/><rect class="cls-3" x="201.19" y="132.96" width="5.23" height="2.81"/><rect class="cls-3" x="139.81" y="132.96" width="54.12" height="2.81"/><rect class="cls-3" x="275.04" y="145.47" width="44.21" height="2.81"/><rect class="cls-3" x="207.08" y="145.47" width="57.46" height="2.81"/><rect class="cls-3" x="191.17" y="145.47" width="6.49" height="2.81"/><rect class="cls-3" x="150.34" y="145.47" width="28.93" height="2.81"/><rect class="cls-3" x="124.47" y="145.47" width="16.86" height="2.81"/><rect class="cls-3" x="246.95" y="165.95" width="50.43" height="2.81"/><rect class="cls-3" x="218.18" y="165.95" width="20.3" height="2.81"/><rect class="cls-3" x="199.75" y="165.95" width="13.08" height="2.81"/><rect class="cls-3" x="190.54" y="165.95" width="5.23" height="2.81"/><rect class="cls-3" x="129.15" y="165.95" width="54.12" height="2.81"/><rect class="cls-3" x="264.39" y="178.46" width="32.99" height="2.81"/><rect class="cls-3" x="206.53" y="178.46" width="47.36" height="2.81"/><rect class="cls-3" x="188.37" y="178.46" width="5.37" height="2.81"/><rect class="cls-3" x="139.68" y="178.46" width="40.15" height="2.81"/><polygon class="cls-3" points="134 181.27 122.6 181.27 122.68 178.46 134.08 178.46 134 181.27"/><rect class="cls-3" x="264.39" y="204.81" width="32.99" height="2.81"/><rect class="cls-3" x="206.53" y="204.81" width="47.36" height="2.81"/><rect class="cls-3" x="188.37" y="204.81" width="5.37" height="2.81"/><polygon class="cls-3" points="179.84 207.62 139.69 207.24 139.69 204.43 179.84 204.81 179.84 207.62"/><polygon class="cls-3" points="134 207.24 122.6 207.24 122.68 204.43 134.08 204.43 134 207.24"/><polygon class="cls-3" points="302.83 200 301.43 197.64 305.78 194.5 301.65 191.51 303.05 189.16 310.43 194.5 302.83 200"/><polygon class="cls-3" points="318.06 140.84 310.46 135.33 317.84 129.99 319.24 132.35 315.11 135.33 319.46 138.48 318.06 140.84"/><polygon class="cls-3" points="127.11 139.98 125.72 137.63 130.07 134.48 125.94 131.49 127.34 129.14 134.72 134.48 127.11 139.98"/><rect class="cls-3" x="482.3" y="156.98" width="50.43" height="2.81"/><rect class="cls-3" x="453.53" y="156.98" width="20.3" height="2.81"/><rect class="cls-3" x="435.09" y="156.98" width="13.08" height="2.81"/><rect class="cls-3" x="425.88" y="156.98" width="5.23" height="2.81"/><rect class="cls-3" x="364.5" y="156.98" width="54.12" height="2.81"/><rect class="cls-3" x="499.73" y="169.48" width="44.21" height="2.81"/><rect class="cls-3" x="431.77" y="169.48" width="57.46" height="2.81"/><rect class="cls-3" x="415.86" y="169.48" width="6.49" height="2.81"/><rect class="cls-3" x="375.03" y="169.48" width="28.93" height="2.81"/><rect class="cls-3" x="349.16" y="169.48" width="16.86" height="2.81"/><rect class="cls-3" x="471.64" y="189.96" width="50.43" height="2.81"/><rect class="cls-3" x="442.88" y="189.96" width="20.3" height="2.81"/><rect class="cls-3" x="424.44" y="189.96" width="13.08" height="2.81"/><rect class="cls-3" x="415.23" y="189.96" width="5.23" height="2.81"/><rect class="cls-3" x="353.84" y="189.96" width="54.12" height="2.81"/><rect class="cls-3" x="489.08" y="202.47" width="32.99" height="2.81"/><rect class="cls-3" x="431.22" y="202.47" width="47.36" height="2.81"/><rect class="cls-3" x="413.06" y="202.47" width="5.37" height="2.81"/><rect class="cls-3" x="364.38" y="202.47" width="40.15" height="2.81"/><polygon class="cls-3" points="358.69 205.28 347.29 205.28 347.37 202.47 358.77 202.47 358.69 205.28"/><rect class="cls-3" x="489.08" y="228.82" width="32.99" height="2.81"/><rect class="cls-3" x="431.22" y="228.82" width="47.36" height="2.81"/><rect class="cls-3" x="413.06" y="228.82" width="5.37" height="2.81"/><polygon class="cls-3" points="404.53 231.64 364.38 231.25 364.38 228.44 404.53 228.82 404.53 231.64"/><polygon class="cls-3" points="358.69 231.25 347.29 231.25 347.37 228.44 358.77 228.44 358.69 231.25"/><polygon class="cls-3" points="527.52 224.01 526.12 221.66 530.47 218.51 526.34 215.52 527.74 213.17 535.12 218.51 527.52 224.01"/><polygon class="cls-3" points="542.75 164.85 535.15 159.35 542.53 154.01 543.93 156.36 539.8 159.35 544.15 162.49 542.75 164.85"/><polygon class="cls-3" points="351.81 163.99 350.41 161.64 354.76 158.49 350.63 155.5 352.03 153.15 359.41 158.49 351.81 163.99"/><rect class="cls-3" x="442.05" y="252.7" width="49.58" height="2.8"/><rect class="cls-3" x="413.76" y="252.7" width="19.96" height="2.8"/><rect class="cls-3" x="395.63" y="252.7" width="12.87" height="2.8"/><rect class="cls-3" x="386.58" y="252.7" width="5.14" height="2.8"/><rect class="cls-3" x="326.22" y="252.7" width="53.21" height="2.8"/><rect class="cls-3" x="459.19" y="265.14" width="43.47" height="2.8"/><rect class="cls-3" x="392.37" y="265.14" width="56.5" height="2.8"/><rect class="cls-3" x="376.72" y="265.14" width="6.38" height="2.8"/><rect class="cls-3" x="336.58" y="265.14" width="28.45" height="2.8"/><rect class="cls-3" x="311.14" y="265.14" width="16.57" height="2.8"/><rect class="cls-3" x="442.05" y="300.05" width="49.58" height="2.8"/><rect class="cls-3" x="413.76" y="300.05" width="19.96" height="2.8"/><rect class="cls-3" x="395.63" y="300.05" width="12.87" height="2.8"/><rect class="cls-3" x="386.58" y="300.05" width="5.14" height="2.8"/><rect class="cls-3" x="326.22" y="300.05" width="53.21" height="2.8"/><rect class="cls-3" x="459.19" y="312.49" width="32.44" height="2.8"/><rect class="cls-3" x="402.3" y="312.49" width="46.57" height="2.8"/><rect class="cls-3" x="384.45" y="312.49" width="5.28" height="2.8"/><rect class="cls-3" x="336.58" y="312.49" width="39.48" height="2.8"/><polygon class="cls-3" points="330.99 315.29 319.78 315.29 319.86 312.49 331.06 312.49 330.99 315.29"/><rect class="cls-3" x="475.15" y="326.26" width="16.49" height="2.8"/><rect class="cls-3" x="413.76" y="326.26" width="53.06" height="2.8"/><rect class="cls-3" x="389.01" y="326.26" width="15.07" height="2.8"/><rect class="cls-3" x="326.22" y="326.26" width="54.31" height="2.8"/><rect class="cls-3" x="459.19" y="338.7" width="32.44" height="2.8"/><rect class="cls-3" x="402.3" y="338.7" width="46.57" height="2.8"/><rect class="cls-3" x="384.45" y="338.7" width="5.28" height="2.8"/><polygon class="cls-3" points="376.06 341.5 336.58 341.12 336.58 338.32 376.06 338.7 376.06 341.5"/><polygon class="cls-3" points="330.99 341.12 319.78 341.12 319.86 338.32 331.06 338.32 330.99 341.12"/><polygon class="cls-3" points="496.99 333.91 495.62 331.57 499.89 328.44 495.83 325.47 497.21 323.13 504.47 328.44 496.99 333.91"/><polygon class="cls-3" points="501.49 260.53 494.01 255.06 501.27 249.75 502.65 252.09 498.59 255.06 502.87 258.19 501.49 260.53"/><polygon class="cls-3" points="313.74 259.68 312.37 257.34 316.65 254.21 312.59 251.24 313.96 248.9 321.22 254.21 313.74 259.68"/><rect class="cls-3" x="225.54" y="236.24" width="49.59" height="2.8"/><rect class="cls-3" x="197.26" y="236.24" width="19.96" height="2.8"/><rect class="cls-3" x="179.13" y="236.24" width="12.87" height="2.8"/><rect class="cls-3" x="170.07" y="236.24" width="5.14" height="2.8"/><rect class="cls-3" x="109.72" y="236.24" width="53.21" height="2.8"/><rect class="cls-3" x="242.69" y="248.68" width="43.47" height="2.8"/><rect class="cls-3" x="175.86" y="248.68" width="56.5" height="2.8"/><rect class="cls-3" x="160.22" y="248.68" width="6.38" height="2.8"/><rect class="cls-3" x="120.07" y="248.68" width="28.45" height="2.8"/><rect class="cls-3" x="94.64" y="248.68" width="16.57" height="2.8"/><rect class="cls-3" x="233.3" y="271.53" width="49.59" height="2.8"/><rect class="cls-3" x="205.01" y="271.53" width="19.96" height="2.8"/><rect class="cls-3" x="186.88" y="271.53" width="12.87" height="2.8"/><rect class="cls-3" x="177.82" y="271.53" width="5.14" height="2.8"/><rect class="cls-3" x="127.45" y="271.53" width="30.72" height="2.8"/><rect class="cls-3" x="162.77" y="271.53" width="7.91" height="2.8"/><rect class="cls-3" x="250.44" y="283.97" width="32.44" height="2.8"/><rect class="cls-3" x="193.55" y="283.97" width="46.57" height="2.8"/><rect class="cls-3" x="175.69" y="283.97" width="5.28" height="2.8"/><rect class="cls-3" x="127.82" y="283.97" width="39.48" height="2.8"/><rect class="cls-3" x="266.4" y="297.74" width="16.49" height="2.8"/><rect class="cls-3" x="205.01" y="297.74" width="53.06" height="2.8"/><rect class="cls-3" x="180.26" y="297.74" width="15.07" height="2.8"/><rect class="cls-3" x="127.45" y="297.74" width="7.75" height="2.8"/><rect class="cls-3" x="142.39" y="297.74" width="29.4" height="2.8"/><rect class="cls-3" x="250.44" y="310.18" width="32.44" height="2.8"/><rect class="cls-3" x="193.55" y="310.18" width="46.57" height="2.8"/><rect class="cls-3" x="175.69" y="310.18" width="5.28" height="2.8"/><polygon class="cls-3" points="167.31 312.98 127.83 312.59 127.83 309.8 167.31 310.18 167.31 312.98"/><polygon class="cls-3" points="288.24 305.39 286.86 303.05 291.14 299.92 287.08 296.95 288.45 294.61 295.71 299.92 288.24 305.39"/><polygon class="cls-3" points="284.99 244.06 277.51 238.59 284.77 233.28 286.14 235.62 282.08 238.59 286.36 241.72 284.99 244.06"/><polygon class="cls-3" points="97.23 243.21 95.86 240.87 100.14 237.74 96.08 234.77 97.45 232.43 104.71 237.74 97.23 243.21"/><path class="cls-4" d="M329.08,433.46H100.61c-4.46,0-5.47-2.22-2.25-5l109.79-88.61,232.76-3.49h0a7.89,7.89,0,0,1-2.6,5.84L343,428.49C339.76,431.24,333.54,433.46,329.08,433.46Z"/><path class="cls-1" d="M329.08,430H100.61c-4.46,0-5.47-2.23-2.25-5l109.79-88.61H440.91L343,425A24.73,24.73,0,0,1,329.08,430Z"/><path class="cls-3" d="M350.22,399.31H151.91c-3.13,0-3.84-1.57-1.58-3.51l53.44-45.67a17.41,17.41,0,0,1,9.77-3.5H411.85c3.14,0,3.85,1.57,1.59,3.5L360,395.8A17.35,17.35,0,0,1,350.22,399.31Z"/><path class="cls-5" d="M222.37,350.49H212c-1,0-1.2-.49-.49-1.1l6.59-5.63a5.42,5.42,0,0,1,3.06-1.1h10.34c1,0,1.21.49.5,1.1l-6.59,5.63A5.45,5.45,0,0,1,222.37,350.49Z"/><path class="cls-5" d="M236.89,350.49h-9.14c-1,0-1.21-.49-.5-1.1l6.59-5.63a5.42,5.42,0,0,1,3.06-1.1h9.15c1,0,1.21.49.5,1.1l-6.6,5.63A5.39,5.39,0,0,1,236.89,350.49Z"/><path class="cls-5" d="M251.41,350.49h-9.15c-1,0-1.2-.49-.49-1.1l6.59-5.63a5.42,5.42,0,0,1,3.06-1.1h9.15c1,0,1.21.49.5,1.1l-6.6,5.63A5.39,5.39,0,0,1,251.41,350.49Z"/><path class="cls-5" d="M265.93,350.49h-9.15c-1,0-1.2-.49-.49-1.1l6.59-5.63a5.42,5.42,0,0,1,3.06-1.1h9.15c1,0,1.2.49.49,1.1L269,349.39A5.39,5.39,0,0,1,265.93,350.49Z"/><path class="cls-5" d="M280.45,350.49H271.3c-1,0-1.2-.49-.49-1.1l6.59-5.63a5.42,5.42,0,0,1,3.06-1.1h9.15c1,0,1.2.49.49,1.1l-6.59,5.63A5.42,5.42,0,0,1,280.45,350.49Z"/><path class="cls-5" d="M295,350.49h-9.15c-1,0-1.2-.49-.49-1.1l6.59-5.63a5.42,5.42,0,0,1,3.06-1.1h9.15c1,0,1.2.49.49,1.1L298,349.39A5.42,5.42,0,0,1,295,350.49Z"/><path class="cls-5" d="M309.49,350.49h-9.15c-1,0-1.2-.49-.49-1.1l6.59-5.63a5.42,5.42,0,0,1,3.06-1.1h9.15c1,0,1.2.49.49,1.1l-6.59,5.63A5.42,5.42,0,0,1,309.49,350.49Z"/><path class="cls-5" d="M324,350.49h-9.15c-1,0-1.21-.49-.5-1.1l6.6-5.63a5.42,5.42,0,0,1,3.06-1.1h9.15c1,0,1.2.49.49,1.1l-6.59,5.63A5.42,5.42,0,0,1,324,350.49Z"/><path class="cls-5" d="M338.53,350.49h-9.15c-1,0-1.21-.49-.5-1.1l6.59-5.63a5.45,5.45,0,0,1,3.07-1.1h9.15c1,0,1.2.49.49,1.1l-6.59,5.63A5.42,5.42,0,0,1,338.53,350.49Z"/><path class="cls-5" d="M353,350.49H343.9c-1,0-1.21-.49-.5-1.1l6.59-5.63a5.45,5.45,0,0,1,3.07-1.1h9.14c1,0,1.21.49.5,1.1l-6.59,5.63A5.43,5.43,0,0,1,353,350.49Z"/><path class="cls-5" d="M367.56,350.49h-9.14c-1,0-1.21-.49-.5-1.1l6.59-5.63a5.45,5.45,0,0,1,3.07-1.1h9.14c1,0,1.21.49.5,1.1l-6.59,5.63A5.43,5.43,0,0,1,367.56,350.49Z"/><path class="cls-5" d="M382.08,350.49h-9.14c-1,0-1.21-.49-.5-1.1l6.59-5.63a5.45,5.45,0,0,1,3.07-1.1h9.14c1,0,1.21.49.5,1.1l-6.59,5.63A5.43,5.43,0,0,1,382.08,350.49Z"/><path class="cls-5" d="M403.65,350.49H386.84c-1,0-1.21-.49-.5-1.1l6.59-5.63a5.45,5.45,0,0,1,3.07-1.1h16.81c1,0,1.2.49.5,1.1l-6.6,5.63A5.42,5.42,0,0,1,403.65,350.49Z"/><path class="cls-5" d="M219.15,359.44h-17.6c-1,0-1.2-.49-.49-1.09l6.59-5.64a5.49,5.49,0,0,1,3.06-1.09h17.6c1,0,1.21.49.5,1.09l-6.59,5.64A5.49,5.49,0,0,1,219.15,359.44Z"/><path class="cls-5" d="M233.67,359.44h-9.14c-1,0-1.21-.49-.5-1.09l6.59-5.64a5.49,5.49,0,0,1,3.07-1.09h9.14c1,0,1.21.49.5,1.09l-6.59,5.64A5.49,5.49,0,0,1,233.67,359.44Z"/><path class="cls-5" d="M248.19,359.44h-9.14c-1,0-1.21-.49-.5-1.09l6.59-5.64a5.49,5.49,0,0,1,3.07-1.09h9.14c1,0,1.21.49.5,1.09l-6.59,5.64A5.52,5.52,0,0,1,248.19,359.44Z"/><path class="cls-5" d="M262.71,359.44h-9.14c-1,0-1.21-.49-.5-1.09l6.59-5.64a5.49,5.49,0,0,1,3.07-1.09h9.14c1,0,1.21.49.5,1.09l-6.59,5.64A5.52,5.52,0,0,1,262.71,359.44Z"/><path class="cls-5" d="M277.23,359.44h-9.14c-1,0-1.21-.49-.5-1.09l6.59-5.64a5.49,5.49,0,0,1,3.07-1.09h9.14c1,0,1.21.49.5,1.09l-6.59,5.64A5.52,5.52,0,0,1,277.23,359.44Z"/><path class="cls-5" d="M291.75,359.44H282.6c-1,0-1.2-.49-.49-1.09l6.59-5.64a5.49,5.49,0,0,1,3.06-1.09h9.15c1,0,1.21.49.5,1.09l-6.59,5.64A5.52,5.52,0,0,1,291.75,359.44Z"/><path class="cls-5" d="M306.27,359.44h-9.15c-1,0-1.2-.49-.49-1.09l6.59-5.64a5.49,5.49,0,0,1,3.06-1.09h9.15c1,0,1.21.49.5,1.09l-6.6,5.64A5.49,5.49,0,0,1,306.27,359.44Z"/><path class="cls-5" d="M320.79,359.44h-9.15c-1,0-1.2-.49-.5-1.09l6.6-5.64a5.49,5.49,0,0,1,3.06-1.09H330c1,0,1.2.49.49,1.09l-6.59,5.64A5.49,5.49,0,0,1,320.79,359.44Z"/><path class="cls-5" d="M335.31,359.44h-9.15c-1,0-1.2-.49-.49-1.09l6.59-5.64a5.49,5.49,0,0,1,3.06-1.09h9.15c1,0,1.2.49.49,1.09l-6.59,5.64A5.49,5.49,0,0,1,335.31,359.44Z"/><path class="cls-5" d="M349.83,359.44h-9.15c-1,0-1.2-.49-.49-1.09l6.59-5.64a5.49,5.49,0,0,1,3.06-1.09H359c1,0,1.2.49.49,1.09l-6.59,5.64A5.49,5.49,0,0,1,349.83,359.44Z"/><path class="cls-5" d="M364.35,359.44H355.2c-1,0-1.2-.49-.5-1.09l6.59-5.64a5.52,5.52,0,0,1,3.07-1.09h9.15c1,0,1.2.49.49,1.09l-6.59,5.64A5.49,5.49,0,0,1,364.35,359.44Z"/><path class="cls-5" d="M378.87,359.44h-9.15c-1,0-1.21-.49-.5-1.09l6.6-5.64a5.46,5.46,0,0,1,3.06-1.09H388c1,0,1.2.49.49,1.09l-6.59,5.64A5.49,5.49,0,0,1,378.87,359.44Z"/><path class="cls-5" d="M198.2,377.36H180.6c-1,0-1.21-.5-.5-1.1l6.59-5.64a5.49,5.49,0,0,1,3.07-1.09h17.6c1,0,1.2.49.49,1.09l-6.59,5.64A5.5,5.5,0,0,1,198.2,377.36Z"/><path class="cls-5" d="M212.72,377.36h-9.15c-1,0-1.21-.5-.5-1.1l6.59-5.64a5.52,5.52,0,0,1,3.07-1.09h9.15c1,0,1.2.49.49,1.09l-6.59,5.64A5.5,5.5,0,0,1,212.72,377.36Z"/><path class="cls-5" d="M227.23,377.36h-9.14c-1,0-1.21-.5-.5-1.1l6.59-5.64a5.52,5.52,0,0,1,3.07-1.09h9.14c1,0,1.21.49.5,1.09l-6.59,5.64A5.5,5.5,0,0,1,227.23,377.36Z"/><path class="cls-5" d="M241.75,377.36h-9.14c-1,0-1.21-.5-.5-1.1l6.59-5.64a5.52,5.52,0,0,1,3.07-1.09h9.14c1,0,1.21.49.5,1.09l-6.59,5.64A5.5,5.5,0,0,1,241.75,377.36Z"/><path class="cls-5" d="M256.27,377.36h-9.14c-1,0-1.21-.5-.5-1.1l6.59-5.64a5.49,5.49,0,0,1,3.07-1.09h9.14c1,0,1.21.49.5,1.09l-6.59,5.64A5.5,5.5,0,0,1,256.27,377.36Z"/><path class="cls-5" d="M270.79,377.36h-9.14c-1,0-1.21-.5-.5-1.1l6.59-5.64a5.52,5.52,0,0,1,3.07-1.09H280c1,0,1.21.49.5,1.09l-6.59,5.64A5.5,5.5,0,0,1,270.79,377.36Z"/><path class="cls-5" d="M285.31,377.36h-9.14c-1,0-1.21-.5-.5-1.1l6.59-5.64a5.49,5.49,0,0,1,3.07-1.09h9.14c1,0,1.21.49.5,1.09l-6.59,5.64A5.5,5.5,0,0,1,285.31,377.36Z"/><path class="cls-5" d="M299.83,377.36h-9.14c-1,0-1.21-.5-.5-1.1l6.59-5.64a5.49,5.49,0,0,1,3.07-1.09H309c1,0,1.21.49.5,1.09l-6.59,5.64A5.5,5.5,0,0,1,299.83,377.36Z"/><path class="cls-5" d="M314.35,377.36h-9.14c-1,0-1.21-.5-.5-1.1l6.59-5.64a5.49,5.49,0,0,1,3.07-1.09h9.14c1,0,1.21.49.5,1.09l-6.59,5.64A5.5,5.5,0,0,1,314.35,377.36Z"/><path class="cls-5" d="M328.87,377.36h-9.14c-1,0-1.21-.5-.5-1.1l6.59-5.64a5.49,5.49,0,0,1,3.07-1.09H338c1,0,1.21.49.5,1.09l-6.59,5.64A5.5,5.5,0,0,1,328.87,377.36Z"/><path class="cls-5" d="M343.39,377.36h-9.14c-1,0-1.21-.5-.5-1.1l6.59-5.64a5.49,5.49,0,0,1,3.07-1.09h9.14c1,0,1.21.49.5,1.09l-6.59,5.64A5.53,5.53,0,0,1,343.39,377.36Z"/><path class="cls-5" d="M357.91,377.36h-9.14c-1,0-1.21-.5-.5-1.1l6.59-5.64a5.49,5.49,0,0,1,3.07-1.09h9.14c1,0,1.21.49.5,1.09L361,376.26A5.53,5.53,0,0,1,357.91,377.36Z"/><path class="cls-5" d="M372.21,377.36h-9.14c-1,0-1.21-.5-.5-1.1l12.49-10.68a5.49,5.49,0,0,1,3.07-1.09h9.14c1,0,1.21.49.5,1.09l-12.49,10.68A5.5,5.5,0,0,1,372.21,377.36Z"/><path class="cls-5" d="M393.17,359.44H384c-1,0-1.21-.49-.5-1.09l6.59-5.64a5.49,5.49,0,0,1,3.06-1.09h9.15c1,0,1.21.49.5,1.09l-6.59,5.64A5.52,5.52,0,0,1,393.17,359.44Z"/><path class="cls-5" d="M200.22,368.4h-9.14c-1,0-1.21-.49-.5-1.1l6.59-5.63a5.43,5.43,0,0,1,3.07-1.1h9.14c1,0,1.21.49.5,1.1l-6.59,5.63A5.43,5.43,0,0,1,200.22,368.4Z"/><path class="cls-5" d="M214.74,368.4H205.6c-1,0-1.21-.49-.5-1.1l6.59-5.63a5.43,5.43,0,0,1,3.07-1.1h9.14c1,0,1.21.49.5,1.1l-6.59,5.63A5.45,5.45,0,0,1,214.74,368.4Z"/><path class="cls-5" d="M229.26,368.4h-9.14c-1,0-1.21-.49-.5-1.1l6.59-5.63a5.43,5.43,0,0,1,3.07-1.1h9.14c1,0,1.21.49.5,1.1l-6.59,5.63A5.45,5.45,0,0,1,229.26,368.4Z"/><path class="cls-5" d="M243.78,368.4h-9.15c-1,0-1.2-.49-.49-1.1l6.59-5.63a5.42,5.42,0,0,1,3.06-1.1h9.15c1,0,1.21.49.5,1.1l-6.59,5.63A5.45,5.45,0,0,1,243.78,368.4Z"/><path class="cls-5" d="M258.3,368.4h-9.15c-1,0-1.2-.49-.49-1.1l6.59-5.63a5.43,5.43,0,0,1,3.07-1.1h9.14c1,0,1.21.49.5,1.1l-6.59,5.63A5.45,5.45,0,0,1,258.3,368.4Z"/><path class="cls-5" d="M272.82,368.4h-9.15c-1,0-1.2-.49-.49-1.1l6.59-5.63a5.42,5.42,0,0,1,3.06-1.1H282c1,0,1.2.49.5,1.1l-6.6,5.63A5.42,5.42,0,0,1,272.82,368.4Z"/><path class="cls-5" d="M287.34,368.4h-9.15c-1,0-1.2-.49-.49-1.1l6.59-5.63a5.42,5.42,0,0,1,3.06-1.1h9.15c1,0,1.2.49.49,1.1l-6.59,5.63A5.42,5.42,0,0,1,287.34,368.4Z"/><path class="cls-5" d="M301.86,368.4h-9.15c-1,0-1.2-.49-.49-1.1l6.59-5.63a5.42,5.42,0,0,1,3.06-1.1H311c1,0,1.2.49.49,1.1l-6.59,5.63A5.42,5.42,0,0,1,301.86,368.4Z"/><path class="cls-5" d="M316.38,368.4h-9.15c-1,0-1.21-.49-.5-1.1l6.6-5.63a5.42,5.42,0,0,1,3.06-1.1h9.15c1,0,1.2.49.49,1.1l-6.59,5.63A5.42,5.42,0,0,1,316.38,368.4Z"/><path class="cls-5" d="M330.9,368.4h-9.15c-1,0-1.2-.49-.5-1.1l6.6-5.63a5.42,5.42,0,0,1,3.06-1.1h9.15c1,0,1.2.49.49,1.1L334,367.3A5.42,5.42,0,0,1,330.9,368.4Z"/><path class="cls-5" d="M345.42,368.4h-9.15c-1,0-1.21-.49-.5-1.1l6.59-5.63a5.45,5.45,0,0,1,3.07-1.1h9.14c1,0,1.21.49.5,1.1l-6.59,5.63A5.42,5.42,0,0,1,345.42,368.4Z"/><path class="cls-5" d="M359.93,368.4h-9.14c-1,0-1.21-.49-.5-1.1l6.59-5.63a5.45,5.45,0,0,1,3.07-1.1h9.15c1,0,1.2.49.49,1.1L363,367.3A5.43,5.43,0,0,1,359.93,368.4Z"/><path class="cls-5" d="M382.69,368.4H365.6c-1,0-1.21-.49-.5-1.1l6.59-5.63a5.43,5.43,0,0,1,3.07-1.1h17.09c1,0,1.21.49.5,1.1l-6.59,5.63A5.43,5.43,0,0,1,382.69,368.4Z"/><path class="cls-5" d="M182.27,386.31H170.12c-1,0-1.21-.49-.5-1.1l6.59-5.63a5.45,5.45,0,0,1,3.07-1.1h12.15c1,0,1.21.49.5,1.1l-6.59,5.63A5.45,5.45,0,0,1,182.27,386.31Z"/><path class="cls-5" d="M193.78,386.31h-5.87c-1,0-1.21-.49-.5-1.1l6.59-5.63a5.43,5.43,0,0,1,3.07-1.1h5.87c1,0,1.21.49.5,1.1l-6.59,5.63A5.43,5.43,0,0,1,193.78,386.31Z"/><path class="cls-5" d="M208.3,386.31h-9.14c-1,0-1.21-.49-.5-1.1l6.59-5.63a5.43,5.43,0,0,1,3.07-1.1h9.14c1,0,1.21.49.5,1.1l-6.59,5.63A5.43,5.43,0,0,1,208.3,386.31Z"/><path class="cls-5" d="M222.82,386.31h-9.14c-1,0-1.21-.49-.5-1.1l6.59-5.63a5.43,5.43,0,0,1,3.07-1.1H232c1,0,1.21.49.5,1.1l-6.59,5.63A5.43,5.43,0,0,1,222.82,386.31Z"/><path class="cls-5" d="M237.34,386.31H228.2c-1,0-1.21-.49-.5-1.1l6.59-5.63a5.43,5.43,0,0,1,3.07-1.1h9.14c1,0,1.21.49.5,1.1l-6.59,5.63A5.43,5.43,0,0,1,237.34,386.31Z"/><path class="cls-5" d="M251.86,386.31h-9.14c-1,0-1.21-.49-.5-1.1l6.59-5.63a5.43,5.43,0,0,1,3.07-1.1H261c1,0,1.21.49.5,1.1l-6.59,5.63A5.43,5.43,0,0,1,251.86,386.31Z"/><path class="cls-5" d="M266.38,386.31h-9.14c-1,0-1.21-.49-.5-1.1l6.59-5.63a5.43,5.43,0,0,1,3.07-1.1h9.14c1,0,1.21.49.5,1.1l-6.59,5.63A5.43,5.43,0,0,1,266.38,386.31Z"/><path class="cls-5" d="M280.9,386.31h-9.14c-1,0-1.21-.49-.5-1.1l6.59-5.63a5.43,5.43,0,0,1,3.07-1.1h9.14c1,0,1.21.49.5,1.1L284,385.21A5.45,5.45,0,0,1,280.9,386.31Z"/><path class="cls-5" d="M295.42,386.31h-9.14c-1,0-1.21-.49-.5-1.1l6.59-5.63a5.43,5.43,0,0,1,3.07-1.1h9.14c1,0,1.21.49.5,1.1l-6.59,5.63A5.43,5.43,0,0,1,295.42,386.31Z"/><path class="cls-5" d="M309.94,386.31H300.8c-1,0-1.21-.49-.5-1.1l6.59-5.63a5.43,5.43,0,0,1,3.07-1.1h9.14c1,0,1.21.49.5,1.1L313,385.21A5.45,5.45,0,0,1,309.94,386.31Z"/><path class="cls-5" d="M324.46,386.31h-9.14c-1,0-1.21-.49-.5-1.1l6.59-5.63a5.42,5.42,0,0,1,3.06-1.1h9.15c1,0,1.21.49.5,1.1l-6.6,5.63A5.39,5.39,0,0,1,324.46,386.31Z"/><path class="cls-5" d="M361.74,386.31H329.83c-1,0-1.2-.49-.49-1.1l6.59-5.63a5.42,5.42,0,0,1,3.06-1.1H370.9c1,0,1.2.49.49,1.1l-6.59,5.63A5.42,5.42,0,0,1,361.74,386.31Z"/><path class="cls-5" d="M168.79,395.27h-9.15c-1,0-1.2-.5-.49-1.1l6.59-5.64a5.49,5.49,0,0,1,3.06-1.09H178c1,0,1.2.49.49,1.09l-6.59,5.64A5.5,5.5,0,0,1,168.79,395.27Z"/><path class="cls-5" d="M183.31,395.27h-9.15c-1,0-1.2-.5-.5-1.1l6.59-5.64a5.52,5.52,0,0,1,3.07-1.09h9.15c1,0,1.2.49.49,1.09l-6.59,5.64A5.5,5.5,0,0,1,183.31,395.27Z"/><path class="cls-5" d="M197.83,395.27h-9.15c-1,0-1.21-.5-.5-1.1l6.6-5.64a5.46,5.46,0,0,1,3.06-1.09H207c1,0,1.2.49.49,1.09l-6.59,5.64A5.5,5.5,0,0,1,197.83,395.27Z"/><path class="cls-5" d="M212.35,395.27H203.2c-1,0-1.21-.5-.5-1.1l6.59-5.64a5.52,5.52,0,0,1,3.07-1.09h9.14c1,0,1.21.49.5,1.09l-6.59,5.64A5.5,5.5,0,0,1,212.35,395.27Z"/><path class="cls-5" d="M328.38,395.27h-9.14c-1,0-1.21-.5-.5-1.1l6.59-5.64a5.52,5.52,0,0,1,3.07-1.09h9.14c1,0,1.21.49.5,1.09l-6.59,5.64A5.5,5.5,0,0,1,328.38,395.27Z"/><path class="cls-5" d="M284.94,395.27H217.72c-1,0-1.21-.5-.5-1.1l6.59-5.64a5.52,5.52,0,0,1,3.07-1.09H294.1c1,0,1.21.49.5,1.09L288,394.17A5.5,5.5,0,0,1,284.94,395.27Z"/><path class="cls-5" d="M299.46,395.27h-9.14c-1,0-1.21-.5-.5-1.1l6.59-5.64a5.49,5.49,0,0,1,3.07-1.09h9.14c1,0,1.21.49.5,1.09l-6.59,5.64A5.5,5.5,0,0,1,299.46,395.27Z"/><path class="cls-5" d="M319.3,390.82h-9.15c-1,0-1.2-.49-.49-1.1l1.39-1.19a5.49,5.49,0,0,1,3.06-1.09h9.15c1,0,1.21.49.5,1.09l-1.4,1.19A5.42,5.42,0,0,1,319.3,390.82Z"/><path class="cls-5" d="M314,395.35h-9.14c-1,0-1.21-.49-.5-1.1l2-1.72a5.5,5.5,0,0,1,3.07-1.1h9.14c1,0,1.21.5.5,1.1l-2,1.72A5.45,5.45,0,0,1,314,395.35Z"/><path class="cls-5" d="M351.26,395.27h-17.1c-1,0-1.2-.5-.49-1.1l6.59-5.64a5.49,5.49,0,0,1,3.06-1.09h17.1c1,0,1.21.49.5,1.09l-6.6,5.64A5.47,5.47,0,0,1,351.26,395.27Z"/><path class="cls-3" d="M254,424.14h-67.9c-2.4,0-3-1.2-1.22-2.69l18.68-16a13.36,13.36,0,0,1,7.5-2.68H279c2.41,0,2.95,1.2,1.22,2.68l-18.68,16A13.3,13.3,0,0,1,254,424.14Z"/><path class="cls-4" d="M440.61,336.39H208.35V185a8.68,8.68,0,0,1,8.68-8.69H431.92a8.69,8.69,0,0,1,8.69,8.69V336.39Z"/><rect class="cls-1" x="216.21" y="187.67" width="216.54" height="143.51"/><path class="cls-4" d="M468.19,61.43H371.4a1.31,1.31,0,0,1-1.31-1.31V46.61a1.31,1.31,0,0,1,1.31-1.31h96.76a1.34,1.34,0,0,1,1.34,1.33V60.12A1.31,1.31,0,0,1,468.19,61.43Z"/><rect class="cls-4" x="370.09" y="53.09" width="99.41" height="61.12"/><line class="cls-6" x1="391.03" y1="62.2" x2="447.57" y2="62.2"/><line class="cls-6" x1="391.03" y1="70.8" x2="447.57" y2="70.8"/><line class="cls-6" x1="391.03" y1="79.39" x2="447.57" y2="79.39"/><line class="cls-6" x1="391.03" y1="87.99" x2="447.57" y2="87.99"/><polyline class="cls-6" points="379.25 58.55 384.33 62.24 379.25 66.06"/><path class="cls-4" d="M440.1,91H343.32A1.31,1.31,0,0,1,342,89.66V76.15a1.3,1.3,0,0,1,1.31-1.31h96.76a1.34,1.34,0,0,1,1.33,1.33V89.66A1.31,1.31,0,0,1,440.1,91Z"/><rect class="cls-7" x="342.01" y="82.63" width="99.41" height="61.12"/><line class="cls-6" x1="362.94" y1="91.73" x2="419.48" y2="91.73"/><line class="cls-6" x1="362.94" y1="100.33" x2="419.48" y2="100.33"/><line class="cls-6" x1="362.94" y1="108.93" x2="419.48" y2="108.93"/><line class="cls-6" x1="362.94" y1="117.52" x2="419.48" y2="117.52"/><polyline class="cls-6" points="351.17 88.09 356.25 91.78 351.17 95.59"/><path class="cls-4" d="M265.49,118.38a4.14,4.14,0,0,1,8.27-.42c0,.15,0,.29,0,.43a25.59,25.59,0,0,0,4.61-1.49,3.26,3.26,0,0,1-.29-.36,4.14,4.14,0,1,1,7-4.49c.08.13.13.26.2.4a26,26,0,0,0,3.27-3.61,3.66,3.66,0,0,1-.46-.18,4.14,4.14,0,1,1,3.78-7.37c.15.08.28.18.42.27a25.35,25.35,0,0,0,1-4.79,3.2,3.2,0,0,1-.54.08,4.14,4.14,0,1,1-.41-8.27,5.25,5.25,0,0,1,.56,0,24.89,24.89,0,0,0-1.51-4.71,3.65,3.65,0,0,1-.48.38,4.14,4.14,0,0,1-4.49-7,5.68,5.68,0,0,1,.55-.28,25.5,25.5,0,0,0-3.7-3.34,2.67,2.67,0,0,1-.24.61,4.14,4.14,0,1,1-7.36-3.78A4.62,4.62,0,0,1,276,70a25.55,25.55,0,0,0-4.9-1,3.86,3.86,0,0,1,.11.68,4.14,4.14,0,1,1-8.27.41,4.64,4.64,0,0,1,0-.65,24.54,24.54,0,0,0-4.76,1.55,3.82,3.82,0,0,1,.43.53,4.14,4.14,0,0,1-7,4.49,4.25,4.25,0,0,1-.29-.56,25.44,25.44,0,0,0-3.32,3.71,5,5,0,0,1,.6.24,4.14,4.14,0,1,1-3.78,7.36,4.19,4.19,0,0,1-.5-.31,25.66,25.66,0,0,0-1,4.84,3.69,3.69,0,0,1,.58-.09,4.14,4.14,0,0,1,.41,8.27,4.35,4.35,0,0,1-.51,0,25.08,25.08,0,0,0,1.53,4.65,4.54,4.54,0,0,1,.41-.33,4.14,4.14,0,1,1,4.49,7,3.17,3.17,0,0,1-.41.21,24.81,24.81,0,0,0,3.63,3.24c.05-.14.1-.29.17-.44a4.14,4.14,0,0,1,7.37,3.78,3.37,3.37,0,0,1-.24.37,24.88,24.88,0,0,0,4.75,1A2.24,2.24,0,0,1,265.49,118.38Zm-14-23.66a16.87,16.87,0,1,1,17.69,16A16.87,16.87,0,0,1,251.47,94.72Z"/><circle class="cls-8" cx="268.33" cy="93.89" r="14.34"/><path class="cls-4" d="M185.73,96.37a3.82,3.82,0,0,1-.59,0,28.2,28.2,0,0,0,1.75,5.33c.16-.13.3-.26.47-.38a4.74,4.74,0,1,1,5.14,8,4.16,4.16,0,0,1-.47.24,29.26,29.26,0,0,0,4.15,3.71c.07-.17.12-.34.2-.51a4.74,4.74,0,0,1,8.43,4.33,3.74,3.74,0,0,1-.27.42,28.94,28.94,0,0,0,5.43,1.14,3,3,0,0,1-.07-.51,4.74,4.74,0,1,1,9.46-.47,3.85,3.85,0,0,1,0,.48,28.48,28.48,0,0,0,5.27-1.71,3.22,3.22,0,0,1-.32-.41,4.74,4.74,0,1,1,8-5.14,4.93,4.93,0,0,1,.23.46,28.71,28.71,0,0,0,3.74-4.13,4.73,4.73,0,1,1,3.8-8.64,3.3,3.3,0,0,1,.48.31,28.59,28.59,0,0,0,1.19-5.48c-.21,0-.41.08-.62.09A4.74,4.74,0,0,1,240.6,84c.22,0,.42,0,.64,0a28.25,28.25,0,0,0-1.73-5.39,3.93,3.93,0,0,1-.55.44,4.74,4.74,0,1,1-5.14-8,4.15,4.15,0,0,1,.63-.32,28.43,28.43,0,0,0-4.23-3.83,6.71,6.71,0,0,1-.27.7,4.74,4.74,0,0,1-8.44-4.33,5.23,5.23,0,0,1,.41-.63,29,29,0,0,0-5.61-1.19,4,4,0,0,1,.12.78,4.74,4.74,0,1,1-9.47.47,4.59,4.59,0,0,1,0-.75,28.93,28.93,0,0,0-5.45,1.77,4.09,4.09,0,0,1,.49.61,4.74,4.74,0,1,1-8,5.14,3.53,3.53,0,0,1-.33-.64,28.37,28.37,0,0,0-3.8,4.25,4.37,4.37,0,0,1,.68.27,4.74,4.74,0,1,1-4.33,8.43,4.17,4.17,0,0,1-.56-.37A28.48,28.48,0,0,0,184.59,87a4.92,4.92,0,0,1,.67-.1,4.74,4.74,0,1,1,.47,9.47ZM209,75.89a14.74,14.74,0,1,1-10,18.29A14.76,14.76,0,0,1,209,75.89Z"/><path class="cls-9" d="M400.51,149.93V250.3a9.89,9.89,0,0,1-9.89,9.89H367.2"/><path class="cls-9" d="M276.19,264.85H141.65a9.89,9.89,0,0,1-9.89-9.89V206.27"/><path class="cls-9" d="M371,285H471.33a9.88,9.88,0,0,1,9.89,9.88V359.2"/><path class="cls-9" d="M276.19,289.25H172.37a9.88,9.88,0,0,0-9.88,9.89v36.67"/><path class="cls-9" d="M239.8,112.78,240.26,220a9.88,9.88,0,0,0,9.93,9.84l35-.16"/><rect class="cls-7" x="427.16" y="365.97" width="7.91" height="6.41"/><rect class="cls-7" x="441.97" y="365.97" width="20.67" height="6.41"/><rect class="cls-7" x="480.73" y="365.97" width="25.84" height="6.41"/><rect class="cls-7" x="512.6" y="365.97" width="18.09" height="6.41"/><rect class="cls-7" x="458.33" y="377.36" width="12.06" height="6.41"/><rect class="cls-7" x="427.16" y="377.36" width="23.42" height="6.41"/><rect class="cls-7" x="503.99" y="377.36" width="20.67" height="6.41"/><path class="cls-6" d="M532,362.56h0a4.64,4.64,0,0,1,4.58,4.7v3.34a4.76,4.76,0,0,0,1.34,3.32l1.38,1.41-.95,1a4.74,4.74,0,0,0-1.34,3.32v2.84a4.64,4.64,0,0,1-4.58,4.69h-.76"/><path class="cls-6" d="M426.53,362.56h0a4.65,4.65,0,0,0-4.59,4.7v3.34a4.76,4.76,0,0,1-1.34,3.32l-1.38,1.41.95,1a4.74,4.74,0,0,1,1.34,3.32v2.84a4.64,4.64,0,0,0,4.59,4.69h.75"/><line class="cls-6" x1="471" y1="365.68" x2="481.34" y2="384.06"/><rect class="cls-7" x="58.23" y="183.49" width="22.72" height="6.41"/><rect class="cls-7" x="87.22" y="183.49" width="26.74" height="6.41"/><rect class="cls-7" x="118.55" y="183.49" width="15.79" height="6.41"/><rect class="cls-7" x="157.86" y="183.49" width="18.09" height="6.41"/><rect class="cls-7" x="61.38" y="194.89" width="42.82" height="6.41"/><rect class="cls-7" x="110.23" y="194.89" width="33.02" height="6.41"/><rect class="cls-7" x="164.21" y="194.89" width="11.49" height="6.41"/><path class="cls-6" d="M177.22,180.08h0a4.64,4.64,0,0,1,4.58,4.7v3.34a4.75,4.75,0,0,0,1.35,3.32l1.37,1.42-.94,1a4.75,4.75,0,0,0-1.35,3.32V200a4.64,4.64,0,0,1-4.58,4.7h-.75"/><path class="cls-6" d="M55.15,180.08h0a4.64,4.64,0,0,0-4.58,4.7v3.34a4.74,4.74,0,0,1-1.34,3.32l-1.38,1.42.95,1a4.74,4.74,0,0,1,1.34,3.32V200a4.64,4.64,0,0,0,4.58,4.7h.76"/><line class="cls-6" x1="145.08" y1="183.2" x2="155.42" y2="201.58"/><path class="cls-4" d="M92.2,354.43c0-4.59,4-8.31,9-8.31a10,10,0,0,1,2.14.24,10.69,10.69,0,0,1-.23-2.21c0-6.16,5.4-11.16,12.07-11.16a12.48,12.48,0,0,1,8.85,3.57,16.45,16.45,0,0,1,15.38-9.82c8.8,0,16,6.39,16.42,14.43a12.66,12.66,0,0,1,3.92-.61c6.62,0,12,5,12,11.09s-5.38,11.09-12,11.09H100.6v0C95.91,362.44,92.2,358.84,92.2,354.43Z"/><path class="cls-10" d="M99.78,349.21a6.07,6.07,0,0,0-4.39,3.47,5.37,5.37,0,0,0,.73,5.3"/><path class="cls-10" d="M167.38,353.35a9.38,9.38,0,0,1-1.86,3.48"/><path class="cls-10" d="M163.1,344c3.09.67,4.71,3.54,4.68,6.55"/><path class="cls-10" d="M137.49,330.18a12.77,12.77,0,0,1,9.53,2,10.85,10.85,0,0,1,4.66,7.93"/><polyline class="cls-11" points="489.59 128.13 502.95 142.03 522.47 113.43"/><polyline class="cls-11" points="94.01 102.12 107.37 116.02 126.89 87.42"/><polyline class="cls-11" points="66.2 295.88 79.56 309.77 99.08 281.17"/><polyline class="cls-11" points="510.22 290.5 523.59 304.39 543.1 275.79"/><polyline class="cls-11" points="299.21 49.35 312.57 63.24 332.08 34.64"/><circle class="cls-7" cx="326.56" cy="259.68" r="60.02"/><path class="cls-12" d="M304.79,272.21c8.44,5.87,19.53,5.53,28.08,0,9.86-6.36,14.6-17.62,14.47-28.49s-4.77-22.8-15.14-29a25.83,25.83,0,0,0-27.33.58c-12.51,8.36-16,25.06-12.59,38.31"/><path class="cls-3" d="M352.07,308.61l-65,.4a6.75,6.75,0,0,1-6.79-6.71L280,251.77a6.77,6.77,0,0,1,6.71-6.8l65-.4a6.75,6.75,0,0,1,6.79,6.71l.31,50.54A6.75,6.75,0,0,1,352.07,308.61Z"/><path class="cls-6" d="M354.66,311.19l-65,.4a6.74,6.74,0,0,1-6.79-6.71l-.31-50.53a6.75,6.75,0,0,1,6.71-6.79l65-.4a6.75,6.75,0,0,1,6.79,6.71l.32,50.53A6.75,6.75,0,0,1,354.66,311.19Z"/><path class="cls-4" d="M328.63,266.35a9.32,9.32,0,1,1-9.37-9.25A9.31,9.31,0,0,1,328.63,266.35Z"/><polygon class="cls-4" points="324.77 292.67 313.53 292.74 314.98 270.27 323.04 270.22 324.77 292.67"/></g></svg>