<svg id="Layer_1" data-name="Layer 1" xmlns="http://www.w3.org/2000/svg" viewBox="0 0 500 500"><defs><style>.cls-1{opacity:0.59;}.cls-2{fill:#d7e4f9;}.cls-3{fill:#407bff;}.cls-4{fill:#fff;}.cls-5{fill:#779ce8;}.cls-10,.cls-11,.cls-12,.cls-6,.cls-8,.cls-9{fill:none;}.cls-6,.cls-9{stroke:#1c1c1b;}.cls-10,.cls-12,.cls-6,.cls-8,.cls-9{stroke-linecap:round;stroke-linejoin:round;}.cls-7{fill:#f97d8c;}.cls-12,.cls-8{stroke:#000;}.cls-9{stroke-dasharray:4;}.cls-10{stroke:#1d1d1b;}.cls-11{stroke:#779ce8;stroke-miterlimit:10;stroke-width:0.75px;}.cls-12{stroke-width:3px;}</style></defs><g id="OBJECTS"><g class="cls-1"><path class="cls-2" d="M198.61,154.47a24.43,24.43,0,0,0-5.8-16.76,27.92,27.92,0,0,0-18.55-9.41c-5.21-.49-10.45.38-15.57,1.47-14,3-25.94,13.61-36.06,23.4-5.09,4.93-9.74,10.58-11.93,17.3-13.45,41.41,50.21,19.33,65.11,11.35,10-5.37,20.23-13,22.42-24.22A20.58,20.58,0,0,0,198.61,154.47Z"/><path class="cls-2" d="M393.63,320.63a176.29,176.29,0,0,0,12.49-41.76c9.5-57.33-9.61-137.66-78.44-142.73-27.7-2-55.31,8.77-77.32,25.72-18.29,14.09-33.3,32.33-52.8,44.69-31,19.65-77.33,21.52-102.4,50-18.72,21.3-23.34,53-14.9,80s28.68,49.52,53,64.2,52.34,22.11,80.49,25.47c29,3.45,59.19,2.61,86.15-8.56,15-6.22,28.66-15.5,41-26.12A200.89,200.89,0,0,0,393.63,320.63Z"/></g><rect class="cls-2" x="212.75" y="168.67" width="39.36" height="2.2"/><rect class="cls-2" x="190.29" y="168.67" width="15.84" height="2.2"/><rect class="cls-2" x="175.9" y="168.67" width="10.21" height="2.2"/><rect class="cls-2" x="168.71" y="168.67" width="4.08" height="2.2"/><rect class="cls-2" x="120.81" y="168.67" width="42.24" height="2.2"/><rect class="cls-2" x="226.35" y="178.43" width="34.51" height="2.2"/><rect class="cls-2" x="173.31" y="178.43" width="44.84" height="2.2"/><rect class="cls-2" x="160.89" y="178.43" width="5.06" height="2.2"/><rect class="cls-2" x="129.03" y="178.43" width="22.58" height="2.2"/><rect class="cls-2" x="108.84" y="178.43" width="13.16" height="2.2"/><rect class="cls-2" x="204.43" y="194.41" width="39.36" height="2.2"/><rect class="cls-2" x="181.98" y="194.41" width="15.84" height="2.2"/><rect class="cls-2" x="167.59" y="194.41" width="10.21" height="2.2"/><rect class="cls-2" x="160.4" y="194.41" width="4.08" height="2.2"/><rect class="cls-2" x="112.49" y="194.41" width="42.24" height="2.2"/><rect class="cls-2" x="218.04" y="204.17" width="25.75" height="2.2"/><rect class="cls-2" x="172.88" y="204.17" width="36.96" height="2.2"/><rect class="cls-2" x="158.71" y="204.17" width="4.19" height="2.2"/><rect class="cls-2" x="120.71" y="204.17" width="31.34" height="2.2"/><polygon class="cls-2" points="116.28 206.37 107.38 206.37 107.44 204.17 116.34 204.17 116.28 206.37"/><rect class="cls-2" x="218.04" y="224.74" width="25.75" height="2.2"/><rect class="cls-2" x="172.88" y="224.74" width="36.96" height="2.2"/><rect class="cls-2" x="158.71" y="224.74" width="4.19" height="2.2"/><polygon class="cls-2" points="152.05 226.94 120.71 226.64 120.71 224.44 152.05 224.74 152.05 226.94"/><polygon class="cls-2" points="116.28 226.64 107.38 226.64 107.44 224.44 116.34 224.44 116.28 226.64"/><polygon class="cls-2" points="248.04 220.98 246.95 219.15 250.34 216.69 247.12 214.36 248.21 212.52 253.97 216.69 248.04 220.98"/><polygon class="cls-2" points="259.93 174.81 253.99 170.52 259.75 166.35 260.84 168.19 257.62 170.52 261.02 172.97 259.93 174.81"/><polygon class="cls-2" points="110.9 174.14 109.81 172.31 113.21 169.85 109.98 167.52 111.08 165.68 116.84 169.85 110.9 174.14"/><rect class="cls-2" x="388.1" y="187.41" width="39.36" height="2.2"/><rect class="cls-2" x="365.65" y="187.41" width="15.84" height="2.2"/><rect class="cls-2" x="351.26" y="187.41" width="10.21" height="2.2"/><rect class="cls-2" x="344.07" y="187.41" width="4.08" height="2.2"/><rect class="cls-2" x="296.17" y="187.41" width="42.24" height="2.2"/><rect class="cls-2" x="401.71" y="197.17" width="34.51" height="2.2"/><rect class="cls-2" x="348.67" y="197.17" width="44.84" height="2.2"/><rect class="cls-2" x="336.25" y="197.17" width="5.06" height="2.2"/><rect class="cls-2" x="304.39" y="197.17" width="22.58" height="2.2"/><rect class="cls-2" x="284.2" y="197.17" width="13.16" height="2.2"/><rect class="cls-2" x="379.79" y="213.15" width="39.36" height="2.2"/><rect class="cls-2" x="357.34" y="213.15" width="15.84" height="2.2"/><rect class="cls-2" x="342.95" y="213.15" width="10.21" height="2.2"/><rect class="cls-2" x="335.76" y="213.15" width="4.08" height="2.2"/><rect class="cls-2" x="287.85" y="213.15" width="42.24" height="2.2"/><rect class="cls-2" x="393.4" y="222.91" width="25.75" height="2.2"/><rect class="cls-2" x="348.24" y="222.91" width="36.96" height="2.2"/><rect class="cls-2" x="334.07" y="222.91" width="4.19" height="2.2"/><rect class="cls-2" x="296.07" y="222.91" width="31.34" height="2.2"/><polygon class="cls-2" points="291.63 225.11 282.74 225.11 282.8 222.91 291.69 222.91 291.63 225.11"/><rect class="cls-2" x="393.4" y="243.48" width="25.75" height="2.2"/><rect class="cls-2" x="348.24" y="243.48" width="36.96" height="2.2"/><rect class="cls-2" x="334.07" y="243.48" width="4.19" height="2.2"/><polygon class="cls-2" points="327.41 245.68 296.07 245.38 296.07 243.18 327.41 243.48 327.41 245.68"/><polygon class="cls-2" points="291.63 245.38 282.74 245.38 282.8 243.18 291.69 243.18 291.63 245.38"/><polygon class="cls-2" points="423.4 239.72 422.31 237.89 425.7 235.43 422.48 233.1 423.57 231.26 429.33 235.43 423.4 239.72"/><polygon class="cls-2" points="435.29 193.55 429.35 189.26 435.11 185.09 436.2 186.93 432.98 189.26 436.38 191.72 435.29 193.55"/><polygon class="cls-2" points="286.26 192.88 285.17 191.05 288.57 188.59 285.34 186.26 286.43 184.42 292.2 188.59 286.26 192.88"/><rect class="cls-2" x="356.69" y="262.12" width="38.7" height="2.18"/><rect class="cls-2" x="334.62" y="262.12" width="15.58" height="2.18"/><rect class="cls-2" x="320.47" y="262.12" width="10.04" height="2.18"/><rect class="cls-2" x="313.4" y="262.12" width="4.01" height="2.18"/><rect class="cls-2" x="266.29" y="262.12" width="41.53" height="2.18"/><rect class="cls-2" x="370.07" y="271.82" width="33.93" height="2.18"/><rect class="cls-2" x="317.92" y="271.82" width="44.09" height="2.18"/><rect class="cls-2" x="305.71" y="271.82" width="4.98" height="2.18"/><rect class="cls-2" x="274.38" y="271.82" width="22.2" height="2.18"/><rect class="cls-2" x="254.53" y="271.82" width="12.94" height="2.18"/><rect class="cls-2" x="356.69" y="299.07" width="38.7" height="2.18"/><rect class="cls-2" x="334.62" y="299.07" width="15.58" height="2.18"/><rect class="cls-2" x="320.47" y="299.07" width="10.04" height="2.18"/><rect class="cls-2" x="313.4" y="299.07" width="4.01" height="2.18"/><rect class="cls-2" x="266.29" y="299.07" width="41.53" height="2.18"/><rect class="cls-2" x="370.07" y="308.78" width="25.32" height="2.18"/><rect class="cls-2" x="325.67" y="308.78" width="36.34" height="2.18"/><rect class="cls-2" x="311.74" y="308.78" width="4.12" height="2.18"/><rect class="cls-2" x="274.38" y="308.78" width="30.81" height="2.18"/><polygon class="cls-2" points="270.01 310.96 261.27 310.96 261.33 308.78 270.07 308.78 270.01 310.96"/><rect class="cls-2" x="382.52" y="319.53" width="12.87" height="2.18"/><rect class="cls-2" x="334.62" y="319.53" width="41.41" height="2.18"/><rect class="cls-2" x="315.3" y="319.53" width="11.76" height="2.18"/><rect class="cls-2" x="266.29" y="319.53" width="42.39" height="2.18"/><rect class="cls-2" x="370.07" y="329.23" width="25.32" height="2.18"/><rect class="cls-2" x="325.67" y="329.23" width="36.34" height="2.18"/><rect class="cls-2" x="311.74" y="329.23" width="4.12" height="2.18"/><polygon class="cls-2" points="305.19 331.42 274.38 331.12 274.38 328.94 305.19 329.24 305.19 331.42"/><polygon class="cls-2" points="270.01 331.12 261.27 331.12 261.33 328.94 270.07 328.94 270.01 331.12"/><polygon class="cls-2" points="399.57 325.5 398.5 323.67 401.83 321.23 398.67 318.91 399.74 317.08 405.4 321.23 399.57 325.5"/><polygon class="cls-2" points="403.08 268.23 397.25 263.96 402.91 259.81 403.99 261.64 400.82 263.96 404.16 266.4 403.08 268.23"/><polygon class="cls-2" points="256.56 267.56 255.48 265.73 258.82 263.29 255.65 260.97 256.73 259.15 262.39 263.29 256.56 267.56"/><rect class="cls-2" x="187.72" y="249.27" width="38.7" height="2.18"/><rect class="cls-2" x="165.64" y="249.27" width="15.58" height="2.18"/><rect class="cls-2" x="151.5" y="249.27" width="10.04" height="2.18"/><rect class="cls-2" x="144.43" y="249.27" width="4.01" height="2.18"/><rect class="cls-2" x="97.32" y="249.27" width="41.53" height="2.18"/><rect class="cls-2" x="201.1" y="258.97" width="33.93" height="2.18"/><rect class="cls-2" x="148.95" y="258.97" width="44.09" height="2.18"/><rect class="cls-2" x="136.74" y="258.97" width="4.98" height="2.18"/><rect class="cls-2" x="105.41" y="258.97" width="22.2" height="2.18"/><rect class="cls-2" x="85.55" y="258.97" width="12.94" height="2.18"/><rect class="cls-2" x="193.77" y="276.81" width="38.7" height="2.18"/><rect class="cls-2" x="171.69" y="276.81" width="15.58" height="2.18"/><rect class="cls-2" x="157.55" y="276.81" width="10.04" height="2.18"/><rect class="cls-2" x="150.48" y="276.81" width="4.01" height="2.18"/><rect class="cls-2" x="111.17" y="276.81" width="23.98" height="2.18"/><rect class="cls-2" x="138.73" y="276.81" width="6.17" height="2.18"/><rect class="cls-2" x="207.15" y="286.52" width="25.32" height="2.18"/><rect class="cls-2" x="162.75" y="286.52" width="36.34" height="2.18"/><rect class="cls-2" x="148.81" y="286.52" width="4.12" height="2.18"/><rect class="cls-2" x="111.46" y="286.52" width="30.81" height="2.18"/><rect class="cls-2" x="219.6" y="297.27" width="12.87" height="2.18"/><rect class="cls-2" x="171.69" y="297.27" width="41.41" height="2.18"/><rect class="cls-2" x="152.38" y="297.27" width="11.76" height="2.18"/><rect class="cls-2" x="111.17" y="297.27" width="6.05" height="2.18"/><rect class="cls-2" x="122.82" y="297.27" width="22.94" height="2.18"/><rect class="cls-2" x="207.15" y="306.97" width="25.32" height="2.18"/><rect class="cls-2" x="162.75" y="306.97" width="36.34" height="2.18"/><rect class="cls-2" x="148.81" y="306.97" width="4.12" height="2.18"/><polygon class="cls-2" points="142.27 309.16 111.46 308.86 111.46 306.68 142.27 306.97 142.27 309.16"/><polygon class="cls-2" points="236.65 303.24 235.58 301.41 238.91 298.97 235.75 296.65 236.82 294.82 242.48 298.97 236.65 303.24"/><polygon class="cls-2" points="234.11 255.38 228.28 251.1 233.94 246.96 235.01 248.79 231.85 251.1 235.18 253.55 234.11 255.38"/><polygon class="cls-2" points="87.58 254.71 86.51 252.88 89.85 250.44 86.68 248.12 87.75 246.3 93.42 250.44 87.58 254.71"/><path class="cls-3" d="M268.53,403.19H90.22c-3.48,0-4.27-1.74-1.76-3.88l85.68-69.15,181.66-2.73h0a6.18,6.18,0,0,1-2,4.56l-74.41,67.32A19.23,19.23,0,0,1,268.53,403.19Z"/><path class="cls-4" d="M268.53,400.46H90.22c-3.48,0-4.27-1.73-1.76-3.88l85.68-69.15H355.8l-76.43,69.15A19.23,19.23,0,0,1,268.53,400.46Z"/><path class="cls-2" d="M285,376.53H130.26c-2.45,0-3-1.22-1.24-2.73l41.7-35.64a13.6,13.6,0,0,1,7.64-2.73H333.12c2.45,0,3,1.22,1.24,2.73l-41.7,35.64A13.59,13.59,0,0,1,285,376.53Z"/><path class="cls-5" d="M185.24,338.44h-8.06c-.77,0-1-.39-.39-.86l5.14-4.4a4.31,4.31,0,0,1,2.4-.85h8.06c.77,0,1,.38.39.85l-5.14,4.4A4.32,4.32,0,0,1,185.24,338.44Z"/><path class="cls-5" d="M196.58,338.44h-7.14c-.77,0-.94-.39-.39-.86l5.14-4.4a4.31,4.31,0,0,1,2.4-.85h7.13c.77,0,.95.38.39.85l-5.14,4.4A4.31,4.31,0,0,1,196.58,338.44Z"/><path class="cls-5" d="M207.91,338.44h-7.14c-.77,0-.94-.39-.39-.86l5.15-4.4a4.25,4.25,0,0,1,2.39-.85h7.14c.76,0,.94.38.38.85l-5.14,4.4A4.26,4.26,0,0,1,207.91,338.44Z"/><path class="cls-5" d="M219.24,338.44H212.1c-.77,0-.94-.39-.39-.86l5.15-4.4a4.25,4.25,0,0,1,2.39-.85h7.14c.76,0,.94.38.38.85l-5.14,4.4A4.26,4.26,0,0,1,219.24,338.44Z"/><path class="cls-5" d="M230.57,338.44h-7.14c-.76,0-.94-.39-.38-.86l5.14-4.4a4.25,4.25,0,0,1,2.39-.85h7.14c.77,0,.94.38.39.85l-5.15,4.4A4.26,4.26,0,0,1,230.57,338.44Z"/><path class="cls-5" d="M241.9,338.44h-7.13c-.77,0-1-.39-.39-.86l5.14-4.4a4.3,4.3,0,0,1,2.39-.85h7.14c.77,0,.94.38.39.85l-5.14,4.4A4.32,4.32,0,0,1,241.9,338.44Z"/><path class="cls-5" d="M253.23,338.44H246.1c-.77,0-.94-.39-.39-.86l5.14-4.4a4.31,4.31,0,0,1,2.4-.85h7.13c.77,0,.94.38.39.85l-5.14,4.4A4.32,4.32,0,0,1,253.23,338.44Z"/><path class="cls-5" d="M264.57,338.44h-7.14c-.77,0-.94-.39-.39-.86l5.14-4.4a4.31,4.31,0,0,1,2.4-.85h7.13c.77,0,1,.38.39.85l-5.14,4.4A4.31,4.31,0,0,1,264.57,338.44Z"/><path class="cls-5" d="M275.9,338.44h-7.14c-.77,0-.94-.39-.39-.86l5.15-4.4a4.25,4.25,0,0,1,2.39-.85h7.14c.76,0,.94.38.38.85l-5.14,4.4A4.29,4.29,0,0,1,275.9,338.44Z"/><path class="cls-5" d="M287.23,338.44h-7.14c-.77,0-.94-.39-.39-.86l5.15-4.4a4.25,4.25,0,0,1,2.39-.85h7.14c.77,0,.94.38.39.85l-5.15,4.4A4.26,4.26,0,0,1,287.23,338.44Z"/><path class="cls-5" d="M298.56,338.44h-7.14c-.76,0-.94-.39-.38-.86l5.14-4.4a4.28,4.28,0,0,1,2.39-.85h7.14c.77,0,.94.38.39.85l-5.15,4.4A4.26,4.26,0,0,1,298.56,338.44Z"/><path class="cls-5" d="M309.89,338.44h-7.13c-.77,0-.95-.39-.39-.86l5.14-4.4a4.3,4.3,0,0,1,2.39-.85H317c.77,0,.94.38.39.85l-5.14,4.4A4.32,4.32,0,0,1,309.89,338.44Z"/><path class="cls-5" d="M326.72,338.44H313.6c-.76,0-.94-.39-.38-.86l5.14-4.4a4.25,4.25,0,0,1,2.39-.85h13.12c.77,0,.94.38.39.85l-5.15,4.4A4.26,4.26,0,0,1,326.72,338.44Z"/><path class="cls-5" d="M182.73,345.42H169c-.77,0-.94-.38-.39-.85l5.14-4.4a4.32,4.32,0,0,1,2.4-.86h13.73c.77,0,.94.39.39.86l-5.15,4.4A4.25,4.25,0,0,1,182.73,345.42Z"/><path class="cls-5" d="M194.06,345.42h-7.13c-.77,0-.94-.38-.39-.85l5.14-4.4a4.32,4.32,0,0,1,2.4-.86h7.13c.77,0,.94.39.39.86l-5.14,4.4A4.31,4.31,0,0,1,194.06,345.42Z"/><path class="cls-5" d="M205.4,345.42h-7.14c-.77,0-.94-.38-.39-.85l5.14-4.4a4.32,4.32,0,0,1,2.4-.86h7.13c.77,0,1,.39.39.86l-5.14,4.4A4.3,4.3,0,0,1,205.4,345.42Z"/><path class="cls-5" d="M216.73,345.42h-7.14c-.77,0-.94-.38-.39-.85l5.15-4.4a4.26,4.26,0,0,1,2.39-.86h7.14c.76,0,.94.39.38.86l-5.14,4.4A4.28,4.28,0,0,1,216.73,345.42Z"/><path class="cls-5" d="M228.06,345.42h-7.14c-.77,0-.94-.38-.39-.85l5.15-4.4a4.26,4.26,0,0,1,2.39-.86h7.14c.77,0,.94.39.39.86l-5.15,4.4A4.25,4.25,0,0,1,228.06,345.42Z"/><path class="cls-5" d="M239.39,345.42h-7.14c-.76,0-.94-.38-.38-.85l5.14-4.4a4.26,4.26,0,0,1,2.39-.86h7.14c.77,0,.94.39.39.86l-5.15,4.4A4.25,4.25,0,0,1,239.39,345.42Z"/><path class="cls-5" d="M250.72,345.42h-7.13c-.77,0-1-.38-.39-.85l5.14-4.4a4.31,4.31,0,0,1,2.39-.86h7.14c.77,0,.94.39.39.86l-5.14,4.4A4.31,4.31,0,0,1,250.72,345.42Z"/><path class="cls-5" d="M262.05,345.42h-7.13c-.77,0-.94-.38-.39-.85l5.14-4.4a4.32,4.32,0,0,1,2.4-.86h7.13c.77,0,.94.39.39.86l-5.14,4.4A4.31,4.31,0,0,1,262.05,345.42Z"/><path class="cls-5" d="M273.39,345.42h-7.14c-.77,0-.94-.38-.39-.85l5.14-4.4a4.32,4.32,0,0,1,2.4-.86h7.13c.77,0,1,.39.39.86l-5.14,4.4A4.28,4.28,0,0,1,273.39,345.42Z"/><path class="cls-5" d="M284.72,345.42h-7.14c-.77,0-.94-.38-.39-.85l5.15-4.4a4.26,4.26,0,0,1,2.39-.86h7.14c.76,0,.94.39.38.86l-5.14,4.4A4.25,4.25,0,0,1,284.72,345.42Z"/><path class="cls-5" d="M296.05,345.42h-7.14c-.77,0-.94-.38-.39-.85l5.15-4.4a4.26,4.26,0,0,1,2.39-.86h7.14c.77,0,.94.39.39.86l-5.15,4.4A4.25,4.25,0,0,1,296.05,345.42Z"/><path class="cls-5" d="M307.38,345.42h-7.14c-.76,0-.94-.38-.38-.85l5.14-4.4a4.26,4.26,0,0,1,2.39-.86h7.14c.77,0,.94.39.39.86l-5.15,4.4A4.25,4.25,0,0,1,307.38,345.42Z"/><path class="cls-5" d="M166.38,359.4H152.64c-.76,0-.94-.38-.38-.86l5.14-4.39a4.19,4.19,0,0,1,2.39-.86h13.74c.76,0,.94.38.39.86l-5.15,4.39A4.19,4.19,0,0,1,166.38,359.4Z"/><path class="cls-5" d="M177.71,359.4h-7.14c-.77,0-.94-.38-.39-.86l5.15-4.39a4.19,4.19,0,0,1,2.39-.86h7.14c.77,0,.94.38.39.86l-5.15,4.39A4.19,4.19,0,0,1,177.71,359.4Z"/><path class="cls-5" d="M189,359.4H181.9c-.76,0-.94-.38-.38-.86l5.14-4.39a4.19,4.19,0,0,1,2.39-.86h7.14c.77,0,.94.38.39.86l-5.15,4.39A4.19,4.19,0,0,1,189,359.4Z"/><path class="cls-5" d="M200.37,359.4h-7.13c-.77,0-1-.38-.39-.86l5.14-4.39a4.24,4.24,0,0,1,2.39-.86h7.14c.77,0,.94.38.39.86l-5.14,4.39A4.24,4.24,0,0,1,200.37,359.4Z"/><path class="cls-5" d="M211.7,359.4h-7.13c-.77,0-.95-.38-.39-.86l5.14-4.39a4.24,4.24,0,0,1,2.39-.86h7.14c.77,0,.94.38.39.86l-5.14,4.39A4.24,4.24,0,0,1,211.7,359.4Z"/><path class="cls-5" d="M223,359.4H215.9c-.77,0-.94-.38-.39-.86l5.15-4.39a4.19,4.19,0,0,1,2.39-.86h7.13c.77,0,.95.38.39.86l-5.14,4.39A4.24,4.24,0,0,1,223,359.4Z"/><path class="cls-5" d="M234.37,359.4h-7.14c-.77,0-.94-.38-.39-.86l5.15-4.39a4.19,4.19,0,0,1,2.39-.86h7.14c.76,0,.94.38.38.86l-5.14,4.39A4.19,4.19,0,0,1,234.37,359.4Z"/><path class="cls-5" d="M245.7,359.4h-7.14c-.77,0-.94-.38-.39-.86l5.15-4.39a4.19,4.19,0,0,1,2.39-.86h7.14c.77,0,.94.38.39.86l-5.15,4.39A4.19,4.19,0,0,1,245.7,359.4Z"/><path class="cls-5" d="M257,359.4h-7.14c-.76,0-.94-.38-.38-.86l5.14-4.39a4.19,4.19,0,0,1,2.39-.86h7.14c.77,0,.94.38.39.86l-5.15,4.39A4.19,4.19,0,0,1,257,359.4Z"/><path class="cls-5" d="M268.36,359.4h-7.13c-.77,0-1-.38-.39-.86l5.14-4.39a4.21,4.21,0,0,1,2.39-.86h7.14c.77,0,.94.38.39.86l-5.14,4.39A4.24,4.24,0,0,1,268.36,359.4Z"/><path class="cls-5" d="M279.69,359.4h-7.13c-.77,0-.94-.38-.39-.86l5.14-4.39a4.24,4.24,0,0,1,2.4-.86h7.13c.77,0,.94.38.39.86l-5.14,4.39A4.24,4.24,0,0,1,279.69,359.4Z"/><path class="cls-5" d="M291,359.4h-7.14c-.77,0-.94-.38-.39-.86l5.14-4.39a4.24,4.24,0,0,1,2.4-.86h7.13c.77,0,.95.38.39.86l-5.14,4.39A4.24,4.24,0,0,1,291,359.4Z"/><path class="cls-5" d="M302.19,359.4h-7.14c-.77,0-.94-.38-.39-.86l9.75-8.33a4.31,4.31,0,0,1,2.4-.85h7.13c.77,0,.94.38.39.85l-9.75,8.33A4.19,4.19,0,0,1,302.19,359.4Z"/><path class="cls-5" d="M318.54,345.42h-7.13c-.77,0-.94-.38-.39-.85l5.14-4.4a4.32,4.32,0,0,1,2.4-.86h7.13c.77,0,.94.39.39.86l-5.14,4.4A4.31,4.31,0,0,1,318.54,345.42Z"/><path class="cls-5" d="M168,352.41h-7.14c-.77,0-.94-.38-.39-.85l5.15-4.4a4.26,4.26,0,0,1,2.39-.86h7.14c.76,0,.94.39.39.86l-5.15,4.4A4.25,4.25,0,0,1,168,352.41Z"/><path class="cls-5" d="M179.29,352.41h-7.14c-.77,0-.94-.38-.39-.85l5.15-4.4a4.26,4.26,0,0,1,2.39-.86h7.14c.77,0,.94.39.39.86l-5.15,4.4A4.25,4.25,0,0,1,179.29,352.41Z"/><path class="cls-5" d="M190.62,352.41h-7.14c-.76,0-.94-.38-.38-.85l5.14-4.4a4.29,4.29,0,0,1,2.39-.86h7.14c.77,0,.94.39.39.86l-5.15,4.4A4.25,4.25,0,0,1,190.62,352.41Z"/><path class="cls-5" d="M202,352.41h-7.13c-.77,0-.95-.38-.39-.85l5.14-4.4a4.31,4.31,0,0,1,2.39-.86h7.14c.77,0,.94.39.39.86l-5.14,4.4A4.31,4.31,0,0,1,202,352.41Z"/><path class="cls-5" d="M213.28,352.41h-7.13c-.77,0-.94-.38-.39-.85l5.14-4.4a4.32,4.32,0,0,1,2.4-.86h7.13c.77,0,.95.39.39.86l-5.14,4.4A4.31,4.31,0,0,1,213.28,352.41Z"/><path class="cls-5" d="M224.62,352.41h-7.14c-.77,0-.94-.38-.39-.85l5.14-4.4a4.32,4.32,0,0,1,2.4-.86h7.13c.77,0,1,.39.39.86l-5.14,4.4A4.28,4.28,0,0,1,224.62,352.41Z"/><path class="cls-5" d="M236,352.41h-7.14c-.77,0-.94-.38-.39-.85l5.15-4.4a4.26,4.26,0,0,1,2.39-.86h7.14c.76,0,.94.39.38.86l-5.14,4.4A4.25,4.25,0,0,1,236,352.41Z"/><path class="cls-5" d="M247.28,352.41h-7.14c-.77,0-.94-.38-.39-.85l5.15-4.4a4.26,4.26,0,0,1,2.39-.86h7.14c.77,0,.94.39.39.86l-5.15,4.4A4.25,4.25,0,0,1,247.28,352.41Z"/><path class="cls-5" d="M258.61,352.41h-7.14c-.76,0-.94-.38-.38-.85l5.14-4.4a4.29,4.29,0,0,1,2.39-.86h7.14c.77,0,.94.39.39.86l-5.15,4.4A4.25,4.25,0,0,1,258.61,352.41Z"/><path class="cls-5" d="M269.94,352.41h-7.13c-.77,0-.95-.38-.39-.85l5.14-4.4a4.32,4.32,0,0,1,2.4-.86h7.13c.77,0,.94.39.39.86l-5.14,4.4A4.31,4.31,0,0,1,269.94,352.41Z"/><path class="cls-5" d="M281.27,352.41h-7.13c-.77,0-.94-.38-.39-.85l5.14-4.4a4.32,4.32,0,0,1,2.4-.86h7.13c.77,0,.94.39.39.86l-5.14,4.4A4.31,4.31,0,0,1,281.27,352.41Z"/><path class="cls-5" d="M292.61,352.41h-7.14c-.77,0-.94-.38-.39-.85l5.15-4.4a4.26,4.26,0,0,1,2.39-.86h7.13c.77,0,.95.39.39.86l-5.14,4.4A4.28,4.28,0,0,1,292.61,352.41Z"/><path class="cls-5" d="M310.37,352.41H297c-.77,0-.95-.38-.39-.85l5.14-4.4a4.31,4.31,0,0,1,2.39-.86h13.35c.76,0,.94.39.38.86l-5.14,4.4A4.28,4.28,0,0,1,310.37,352.41Z"/><path class="cls-5" d="M154,366.39h-9.48c-.77,0-.95-.38-.39-.86l5.14-4.39a4.24,4.24,0,0,1,2.39-.86h9.49c.76,0,.94.38.39.86l-5.15,4.39A4.19,4.19,0,0,1,154,366.39Z"/><path class="cls-5" d="M162.93,366.39h-4.58c-.77,0-.95-.38-.39-.86l5.14-4.39a4.24,4.24,0,0,1,2.4-.86h4.58c.77,0,.95.38.39.86l-5.14,4.39A4.24,4.24,0,0,1,162.93,366.39Z"/><path class="cls-5" d="M174.27,366.39h-7.14c-.77,0-.94-.38-.39-.86l5.14-4.39a4.24,4.24,0,0,1,2.4-.86h7.13c.77,0,1,.38.39.86l-5.14,4.39A4.21,4.21,0,0,1,174.27,366.39Z"/><path class="cls-5" d="M185.6,366.39h-7.14c-.77,0-.94-.38-.39-.86l5.15-4.39a4.19,4.19,0,0,1,2.39-.86h7.14c.76,0,.94.38.38.86L188,365.53A4.19,4.19,0,0,1,185.6,366.39Z"/><path class="cls-5" d="M196.93,366.39h-7.14c-.76,0-.94-.38-.39-.86l5.15-4.39a4.19,4.19,0,0,1,2.39-.86h7.14c.77,0,.94.38.39.86l-5.15,4.39A4.19,4.19,0,0,1,196.93,366.39Z"/><path class="cls-5" d="M208.26,366.39h-7.14c-.76,0-.94-.38-.38-.86l5.14-4.39a4.21,4.21,0,0,1,2.39-.86h7.14c.77,0,.94.38.39.86l-5.15,4.39A4.19,4.19,0,0,1,208.26,366.39Z"/><path class="cls-5" d="M219.59,366.39h-7.13c-.77,0-1-.38-.39-.86l5.14-4.39a4.24,4.24,0,0,1,2.39-.86h7.14c.77,0,.94.38.39.86L222,365.53A4.19,4.19,0,0,1,219.59,366.39Z"/><path class="cls-5" d="M230.92,366.39h-7.13c-.77,0-.94-.38-.39-.86l5.14-4.39a4.24,4.24,0,0,1,2.4-.86h7.13c.77,0,1,.38.39.86l-5.14,4.39A4.24,4.24,0,0,1,230.92,366.39Z"/><path class="cls-5" d="M242.26,366.39h-7.14c-.77,0-.94-.38-.39-.86l5.15-4.39a4.19,4.19,0,0,1,2.39-.86h7.14c.76,0,.94.38.38.86l-5.14,4.39A4.21,4.21,0,0,1,242.26,366.39Z"/><path class="cls-5" d="M253.59,366.39h-7.14c-.77,0-.94-.38-.39-.86l5.15-4.39a4.19,4.19,0,0,1,2.39-.86h7.14c.76,0,.94.38.39.86L256,365.53A4.19,4.19,0,0,1,253.59,366.39Z"/><path class="cls-5" d="M264.92,366.39h-7.14c-.77,0-.94-.38-.39-.86l5.15-4.39a4.19,4.19,0,0,1,2.39-.86h7.14c.77,0,.94.38.39.86l-5.15,4.39A4.19,4.19,0,0,1,264.92,366.39Z"/><path class="cls-5" d="M294,366.39h-24.9c-.76,0-.94-.38-.38-.86l5.14-4.39a4.21,4.21,0,0,1,2.39-.86h24.9c.77,0,.94.38.39.86l-5.15,4.39A4.19,4.19,0,0,1,294,366.39Z"/><path class="cls-5" d="M143.43,373.38h-7.14c-.77,0-.94-.38-.39-.86l5.14-4.39a4.24,4.24,0,0,1,2.4-.86h7.13c.77,0,1,.38.39.86l-5.14,4.39A4.24,4.24,0,0,1,143.43,373.38Z"/><path class="cls-5" d="M154.76,373.38h-7.14c-.77,0-.94-.38-.39-.86l5.15-4.39a4.19,4.19,0,0,1,2.39-.86h7.14c.76,0,.94.38.38.86l-5.14,4.39A4.21,4.21,0,0,1,154.76,373.38Z"/><path class="cls-5" d="M166.09,373.38H159c-.77,0-.94-.38-.39-.86l5.15-4.39a4.19,4.19,0,0,1,2.39-.86h7.14c.77,0,.94.38.39.86l-5.15,4.39A4.19,4.19,0,0,1,166.09,373.38Z"/><path class="cls-5" d="M177.42,373.38h-7.14c-.76,0-.94-.38-.38-.86l5.14-4.39a4.19,4.19,0,0,1,2.39-.86h7.14c.77,0,.94.38.39.86l-5.15,4.39A4.19,4.19,0,0,1,177.42,373.38Z"/><path class="cls-5" d="M268,373.38h-7.13c-.77,0-1-.38-.39-.86l5.14-4.39a4.24,4.24,0,0,1,2.39-.86h7.14c.77,0,.94.38.39.86l-5.14,4.39A4.24,4.24,0,0,1,268,373.38Z"/><path class="cls-5" d="M234.08,373.38H181.62c-.77,0-1-.38-.39-.86l5.14-4.39a4.21,4.21,0,0,1,2.39-.86h52.47c.77,0,.94.38.39.86l-5.15,4.39A4.19,4.19,0,0,1,234.08,373.38Z"/><path class="cls-5" d="M245.41,373.38h-7.14c-.76,0-.94-.38-.39-.86l5.15-4.39a4.19,4.19,0,0,1,2.39-.86h7.14c.77,0,.94.38.39.86l-5.15,4.39A4.19,4.19,0,0,1,245.41,373.38Z"/><path class="cls-5" d="M260.89,369.91h-7.14c-.76,0-.94-.38-.38-.86l1.08-.92a4.24,4.24,0,0,1,2.4-.86H264c.77,0,.94.38.39.86l-1.09.92A4.19,4.19,0,0,1,260.89,369.91Z"/><path class="cls-5" d="M256.76,373.44h-7.14c-.77,0-.94-.38-.39-.85l1.57-1.34a4.21,4.21,0,0,1,2.39-.86h7.14c.77,0,.94.38.39.86l-1.57,1.34A4.28,4.28,0,0,1,256.76,373.44Z"/><path class="cls-5" d="M285.83,373.38H272.49c-.76,0-.94-.38-.38-.86l5.14-4.39a4.19,4.19,0,0,1,2.39-.86H293c.77,0,.95.38.39.86l-5.14,4.39A4.24,4.24,0,0,1,285.83,373.38Z"/><path class="cls-2" d="M209.94,395.91H157c-1.88,0-2.31-.93-.95-2.09l14.57-12.46a10.42,10.42,0,0,1,5.86-2.09h53c1.88,0,2.3.93,1,2.09l-14.58,12.46A10.41,10.41,0,0,1,209.94,395.91Z"/><path class="cls-3" d="M355.57,327.43H174.3V209.29a6.78,6.78,0,0,1,6.78-6.78H348.79a6.79,6.79,0,0,1,6.78,6.78V327.43Z"/><rect class="cls-4" x="180.43" y="211.36" width="169" height="112"/><path class="cls-3" d="M377.09,112.84H301.56a1,1,0,0,1-1-1V101.28a1,1,0,0,1,1-1h75.51a1,1,0,0,1,1,1v10.53A1,1,0,0,1,377.09,112.84Z"/><rect class="cls-3" x="300.53" y="106.33" width="77.58" height="47.7"/><line class="cls-6" x1="316.87" y1="113.44" x2="361" y2="113.44"/><line class="cls-6" x1="316.87" y1="120.15" x2="361" y2="120.15"/><line class="cls-6" x1="316.87" y1="126.86" x2="361" y2="126.86"/><line class="cls-6" x1="316.87" y1="133.57" x2="361" y2="133.57"/><polyline class="cls-6" points="307.68 110.59 311.65 113.48 307.68 116.45"/><path class="cls-3" d="M355.17,135.89H279.64a1,1,0,0,1-1-1V124.33a1,1,0,0,1,1-1h75.51a1,1,0,0,1,1,1v10.53A1,1,0,0,1,355.17,135.89Z"/><rect class="cls-7" x="278.61" y="129.38" width="77.58" height="47.7"/><line class="cls-6" x1="294.95" y1="136.49" x2="339.08" y2="136.49"/><line class="cls-6" x1="294.95" y1="143.2" x2="339.08" y2="143.2"/><line class="cls-6" x1="294.95" y1="149.91" x2="339.08" y2="149.91"/><line class="cls-6" x1="294.95" y1="156.62" x2="339.08" y2="156.62"/><polyline class="cls-6" points="285.76 133.65 289.73 136.53 285.76 139.5"/><path class="cls-3" d="M218.89,157.28a3.23,3.23,0,1,1,6.46-.32c0,.11,0,.22,0,.33a18.92,18.92,0,0,0,3.6-1.16,1.93,1.93,0,0,1-.22-.28,3.23,3.23,0,1,1,5.43-3.51c.06.1.1.21.16.32a20,20,0,0,0,2.54-2.82,2.13,2.13,0,0,1-.35-.14,3.23,3.23,0,1,1,2.95-5.75,3.53,3.53,0,0,1,.32.21,19.29,19.29,0,0,0,.81-3.74,3.07,3.07,0,0,1-.42.07,3.23,3.23,0,1,1-.32-6.46,3,3,0,0,1,.43,0,19.87,19.87,0,0,0-1.17-3.67,2.72,2.72,0,0,1-.38.29,3.23,3.23,0,0,1-3.5-5.43,3.42,3.42,0,0,1,.43-.21,19.31,19.31,0,0,0-2.89-2.61,3.8,3.8,0,0,1-.18.47,3.23,3.23,0,1,1-5.76-2.94,2.65,2.65,0,0,1,.28-.43,19.37,19.37,0,0,0-3.82-.82,3.23,3.23,0,1,1-6.37.85,2.9,2.9,0,0,1,0-.51,19.4,19.4,0,0,0-3.71,1.21,2.78,2.78,0,0,1,.33.42,3.23,3.23,0,0,1-5.43,3.5,2.58,2.58,0,0,1-.22-.44,19.25,19.25,0,0,0-2.59,2.9,4.37,4.37,0,0,1,.46.18,3.23,3.23,0,1,1-2.95,5.75,3.52,3.52,0,0,1-.38-.24,18.94,18.94,0,0,0-.79,3.78,3.4,3.4,0,0,1,.46-.07,3.23,3.23,0,0,1,.32,6.45,2.82,2.82,0,0,1-.41,0,20.16,20.16,0,0,0,1.2,3.64,4,4,0,0,1,.32-.26,3.23,3.23,0,0,1,3.51,5.43c-.11.07-.22.11-.32.17a19.39,19.39,0,0,0,2.83,2.52,2.37,2.37,0,0,1,.13-.34,3.23,3.23,0,0,1,5.75,2.95c-.05.1-.12.19-.18.29a19.6,19.6,0,0,0,3.7.77C218.93,157.51,218.9,157.4,218.89,157.28ZM208,138.82a13.17,13.17,0,1,1,13.81,12.5A13.18,13.18,0,0,1,208,138.82Z"/><circle class="cls-8" cx="221.11" cy="138.18" r="11.19"/><path class="cls-3" d="M156.65,140.11a3.46,3.46,0,0,1-.46,0,21.71,21.71,0,0,0,1.37,4.15c.12-.1.23-.2.36-.29a3.7,3.7,0,1,1,4,6.22c-.12.07-.25.12-.37.18a22.31,22.31,0,0,0,3.24,2.9,3.25,3.25,0,0,1,.15-.4,3.7,3.7,0,1,1,6.37,3.71,22,22,0,0,0,4.24.89,2.76,2.76,0,0,1-.06-.4,3.7,3.7,0,1,1,7.39-.37c0,.13,0,.25,0,.38a23,23,0,0,0,4.12-1.33,3.65,3.65,0,0,1-.26-.32,3.7,3.7,0,1,1,6.21-4,3.13,3.13,0,0,1,.19.36,22.76,22.76,0,0,0,2.91-3.22,4.3,4.3,0,0,1-.41-.16,3.7,3.7,0,1,1,3.38-6.58c.14.07.25.16.38.24a22.64,22.64,0,0,0,.92-4.28,4,4,0,0,1-.48.07,3.7,3.7,0,0,1-.37-7.39,2.8,2.8,0,0,1,.5,0,22,22,0,0,0-1.35-4.21,2.93,2.93,0,0,1-.43.34,3.7,3.7,0,0,1-4-6.21,2.84,2.84,0,0,1,.49-.25,21.75,21.75,0,0,0-3.3-3,4.13,4.13,0,0,1-.21.55,3.7,3.7,0,0,1-6.59-3.38,3.45,3.45,0,0,1,.32-.49,21.91,21.91,0,0,0-4.37-.93,3.94,3.94,0,0,1,.09.6,3.7,3.7,0,0,1-7.39.37,3.89,3.89,0,0,1,0-.59,22.49,22.49,0,0,0-4.25,1.39,6,6,0,0,1,.38.47,3.7,3.7,0,1,1-6.22,4,4,4,0,0,1-.25-.51,22.81,22.81,0,0,0-3,3.32,3.44,3.44,0,0,1,.53.21,3.7,3.7,0,0,1-3.38,6.58c-.15-.08-.29-.18-.44-.28a22.18,22.18,0,0,0-.89,4.33,3,3,0,0,1,.52-.08,3.7,3.7,0,0,1,.37,7.39Zm18.18-16A11.51,11.51,0,1,1,167,138.4,11.52,11.52,0,0,1,174.83,124.12Z"/><path class="cls-9" d="M324.27,181.91v78.33a7.71,7.71,0,0,1-7.72,7.72H298.28"/><path class="cls-9" d="M227.25,271.59h-105a7.71,7.71,0,0,1-7.72-7.71v-38"/><path class="cls-9" d="M301.2,287.28h78.34a7.72,7.72,0,0,1,7.72,7.72v50.24"/><path class="cls-9" d="M227.25,290.64h-81a7.72,7.72,0,0,0-7.72,7.72V327"/><path class="cls-9" d="M198.84,152.92l.36,83.7a7.72,7.72,0,0,0,7.75,7.69l27.31-.13"/><rect class="cls-7" x="345.07" y="350.52" width="6.18" height="5"/><rect class="cls-7" x="356.63" y="350.52" width="16.14" height="5"/><rect class="cls-7" x="386.88" y="350.52" width="20.17" height="5"/><rect class="cls-7" x="411.75" y="350.52" width="14.12" height="5"/><rect class="cls-7" x="369.4" y="359.41" width="9.41" height="5"/><rect class="cls-7" x="345.07" y="359.41" width="18.28" height="5"/><rect class="cls-7" x="405.03" y="359.41" width="16.14" height="5"/><path class="cls-6" d="M426.87,347.86h0a3.62,3.62,0,0,1,3.57,3.66v2.61a3.72,3.72,0,0,0,1.05,2.59l1.08,1.1-.75.76a3.72,3.72,0,0,0-1,2.6v2.21a3.62,3.62,0,0,1-3.58,3.67h-.59"/><path class="cls-6" d="M344.58,347.86h0a3.62,3.62,0,0,0-3.58,3.66v2.61a3.72,3.72,0,0,1-1.05,2.59l-1.07,1.1.74.76a3.72,3.72,0,0,1,1,2.6v2.21a3.63,3.63,0,0,0,3.58,3.67h.59"/><line class="cls-6" x1="379.29" y1="350.29" x2="387.35" y2="364.63"/><rect class="cls-7" x="57.14" y="208.1" width="17.73" height="5"/><rect class="cls-7" x="79.77" y="208.1" width="20.87" height="5"/><rect class="cls-7" x="104.22" y="208.1" width="12.33" height="5"/><rect class="cls-7" x="134.9" y="208.1" width="14.12" height="5"/><rect class="cls-7" x="59.6" y="216.99" width="33.42" height="5"/><rect class="cls-7" x="97.72" y="216.99" width="25.77" height="5"/><rect class="cls-7" x="139.85" y="216.99" width="8.96" height="5"/><path class="cls-6" d="M150,205.44h0a3.62,3.62,0,0,1,3.57,3.67v2.61a3.72,3.72,0,0,0,1,2.59l1.08,1.1-.74.76a3.72,3.72,0,0,0-1.05,2.59V221a3.62,3.62,0,0,1-3.58,3.66h-.59"/><path class="cls-6" d="M54.74,205.44h0a3.62,3.62,0,0,0-3.58,3.67v2.61a3.71,3.71,0,0,1-1,2.59L49,215.41l.74.76a3.72,3.72,0,0,1,1,2.59V221a3.62,3.62,0,0,0,3.57,3.66H55"/><line class="cls-6" x1="124.93" y1="207.88" x2="132.99" y2="222.22"/><path class="cls-3" d="M83.65,341.51a6.76,6.76,0,0,1,7-6.48,7.63,7.63,0,0,1,1.67.18,8.09,8.09,0,0,1-.18-1.72c0-4.81,4.22-8.71,9.42-8.71a9.78,9.78,0,0,1,6.91,2.78,12.82,12.82,0,0,1,12-7.66c6.87,0,12.48,5,12.82,11.26a9.84,9.84,0,0,1,3.05-.48c5.17,0,9.37,3.88,9.37,8.66s-4.2,8.65-9.37,8.65H90.21A6.73,6.73,0,0,1,83.65,341.51Z"/><path class="cls-10" d="M89.57,337.44a4.73,4.73,0,0,0-3.43,2.71,4.2,4.2,0,0,0,.57,4.13"/><path class="cls-10" d="M142.33,340.67a7.33,7.33,0,0,1-1.45,2.71"/><path class="cls-10" d="M139,333.39a4.9,4.9,0,0,1,3.65,5.11"/><path class="cls-10" d="M119,322.59a9.93,9.93,0,0,1,7.44,1.54,8.44,8.44,0,0,1,3.63,6.19"/><polyline class="cls-11" points="393.8 164.9 404.23 175.74 419.45 153.42"/><polyline class="cls-11" points="85.07 144.6 95.49 155.44 110.72 133.12"/><polyline class="cls-11" points="63.36 295.81 73.79 306.66 89.02 284.34"/><polyline class="cls-11" points="409.9 291.61 420.33 302.46 435.56 280.14"/><polyline class="cls-11" points="245.21 103.41 255.64 114.25 270.87 91.93"/><circle class="cls-7" cx="266.56" cy="267.56" r="46.84"/><path class="cls-12" d="M249.57,277.34a19.68,19.68,0,0,0,21.91,0c7.7-5,11.4-13.76,11.29-22.24s-3.72-17.8-11.81-22.59a20.14,20.14,0,0,0-21.33.45c-9.77,6.53-12.52,19.56-9.82,29.9"/><path class="cls-2" d="M286.47,305.75l-50.71.31a5.26,5.26,0,0,1-5.3-5.23l-.24-39.44a5.26,5.26,0,0,1,5.23-5.3l50.71-.32a5.27,5.27,0,0,1,5.3,5.24l.25,39.44A5.28,5.28,0,0,1,286.47,305.75Z"/><path class="cls-6" d="M288.49,307.77l-50.71.31a5.26,5.26,0,0,1-5.3-5.24l-.25-39.44a5.28,5.28,0,0,1,5.24-5.3l50.71-.31a5.27,5.27,0,0,1,5.3,5.24l.24,39.44A5.27,5.27,0,0,1,288.49,307.77Z"/><path class="cls-3" d="M268.17,272.77a7.27,7.27,0,1,1-7.31-7.22A7.26,7.26,0,0,1,268.17,272.77Z"/><polygon class="cls-3" points="265.16 293.31 256.39 293.37 257.52 275.83 263.81 275.79 265.16 293.31"/></g></svg>