<svg width="31" height="31" viewBox="0 0 31 31" fill="none" xmlns="http://www.w3.org/2000/svg">
<circle cx="15.8783" cy="15.1224" r="14.6224" stroke="#5662F6"/>
<g clip-path="url(#clip0_299_46)">
<path d="M13.2662 20.1635H11.0153V12.9149H13.2662V20.1635ZM12.1395 11.9262C11.4198 11.9262 10.8359 11.33 10.8359 10.6102C10.8359 10.2645 10.9733 9.93292 11.2177 9.68845C11.4622 9.44398 11.7938 9.30664 12.1395 9.30664C12.4853 9.30664 12.8168 9.44398 13.0613 9.68845C13.3058 9.93292 13.4431 10.2645 13.4431 10.6102C13.4431 11.33 12.859 11.9262 12.1395 11.9262ZM21.6907 20.1635H19.4446V16.635C19.4446 15.794 19.4276 14.7156 18.2743 14.7156C17.104 14.7156 16.9247 15.6292 16.9247 16.5744V20.1635H14.6762V12.9149H16.835V13.9037H16.8665C17.167 13.3342 17.9011 12.7332 18.9962 12.7332C21.2743 12.7332 21.6931 14.2333 21.6931 16.1818V20.1635H21.6907Z" fill="#5662F6"/>
</g>
<defs>
<clipPath id="clip0_299_46">
<rect width="12.4082" height="12.4082" fill="white" transform="translate(10.0605 9.30615)"/>
</clipPath>
</defs>
</svg>
