<svg xmlns="http://www.w3.org/2000/svg" viewBox="0 0 120 120" fill="none">
  <path d="M60 10C32.4 10 10 32.4 10 60C10 87.6 32.4 110 60 110C87.6 110 110 87.6 110 60C110 32.4 87.6 10 60 10ZM60 90C43.4 90 30 76.6 30 60C30 43.4 43.4 30 60 30C76.6 30 90 43.4 90 60C90 76.6 76.6 90 60 90Z" fill="#5B6EF7"/>
  <path d="M60 40C49 40 40 49 40 60C40 71 49 80 60 80C71 80 80 71 80 60C80 49 71 40 60 40ZM60 70C54.5 70 50 65.5 50 60C50 54.5 54.5 50 60 50C65.5 50 70 54.5 70 60C70 65.5 65.5 70 60 70Z" fill="#5B6EF7"/>
</svg> 