<svg xmlns="http://www.w3.org/2000/svg" viewBox="0 0 120 120" fill="none">
  <path d="M60 10C32.4 10 10 32.4 10 60C10 87.6 32.4 110 60 110C87.6 110 110 87.6 110 60C110 32.4 87.6 10 60 10ZM60 100C37.9 100 20 82.1 20 60C20 37.9 37.9 20 60 20C82.1 20 100 37.9 100 60C100 82.1 82.1 100 60 100Z" fill="#10A37F"/>
  <path d="M60 30C43.4 30 30 43.4 30 60C30 76.6 43.4 90 60 90C76.6 90 90 76.6 90 60C90 43.4 76.6 30 60 30ZM60 80C49 80 40 71 40 60C40 49 49 40 60 40C71 40 80 49 80 60C80 71 71 80 60 80Z" fill="#10A37F"/>
</svg> 