<svg width="15" height="17" viewBox="0 0 15 17" fill="none" xmlns="http://www.w3.org/2000/svg">
<path fill-rule="evenodd" clip-rule="evenodd" d="M13 6.5C13 8.43 11.43 10 9.5 10H7.50001C5.57 10 4.00001 8.43 4.00001 6.5V5H13L13 6.5ZM15 4H12V0H11V4H6V0H5V4H2V4.99999H3V6.5C3 8.981 5.019 11 7.5 11H7.99999V14.5C7.99999 15.327 7.327 16 6.5 16C5.673 16 5 15.327 5 14.5C5 13.122 3.878 12 2.5 12C1.122 12 0 13.122 0 14.5V17H0.999998V14.5C0.999998 13.673 1.673 13 2.5 13C3.327 13 4 13.673 4 14.5C4 15.878 5.122 17 6.5 17C7.879 17 9 15.878 9 14.5V11H9.5C11.981 11 14 8.981 14 6.5V5H15V4Z" fill="#323E50"/>
</svg>
