<svg width="18" height="18" viewBox="0 0 18 18" fill="none" xmlns="http://www.w3.org/2000/svg">
<path d="M16.9185 8.15617C16.9185 7.49449 16.6198 6.87439 16.111 6.46165C16.1331 6.35599 16.1441 6.25447 16.1441 6.15457C16.1441 5.33035 15.5346 4.64581 14.7428 4.52791C14.761 4.43323 14.7696 4.34035 14.7696 4.24783C14.7696 3.37033 14.0781 2.65339 13.2117 2.60785C13.1975 2.60551 13.1831 2.60353 13.1682 2.60353C13.161 2.60353 13.1539 2.60443 13.1466 2.60461C13.1394 2.60443 13.1323 2.60353 13.125 2.60353C13.0425 2.60353 12.9595 2.61091 12.8719 2.62621C12.7196 1.81891 12.0163 1.21771 11.1732 1.21771C10.2172 1.21771 9.43945 1.99549 9.43945 2.95165V14.8169C9.43945 16.027 10.4239 17.0113 11.6338 17.0113C12.4366 17.0113 13.1653 16.5769 13.5501 15.887C13.6363 15.9057 13.7191 15.9172 13.8023 15.9226C14.3248 15.9559 14.8337 15.7848 15.229 15.4379C15.6243 15.091 15.8608 14.611 15.895 14.0861C15.9092 13.8674 15.8847 13.648 15.8224 13.4313C16.5057 12.9469 16.9073 12.1799 16.9073 11.3395C16.9073 10.7302 16.6879 10.1452 16.2872 9.67915C16.6904 9.27091 16.9185 8.72479 16.9185 8.15617ZM16.3677 11.3398C16.3677 11.967 16.0829 12.5422 15.5946 12.9273C15.2331 12.352 14.592 11.9846 13.8977 11.9846C13.7487 11.9846 13.6277 12.1056 13.6277 12.2546C13.6277 12.4036 13.7487 12.5246 13.8977 12.5246C14.4991 12.5246 15.0468 12.9013 15.2625 13.462C15.3363 13.6579 15.369 13.8561 15.3562 14.0514C15.3314 14.4322 15.1599 14.7805 14.8729 15.0322C14.586 15.284 14.2176 15.4091 13.8376 15.3839C13.7307 15.3769 13.6201 15.3538 13.4896 15.3115C13.3564 15.268 13.2123 15.3339 13.1574 15.4627C12.8973 16.0755 12.2991 16.4715 11.6337 16.4715C10.7214 16.4715 9.97927 15.7293 9.97927 14.8171V2.95183C9.97927 2.29357 10.5148 1.75789 11.173 1.75789C11.7847 1.75789 12.288 2.21905 12.3535 2.82133C11.8583 3.10501 11.5233 3.63763 11.5233 4.24801C11.5233 4.39723 11.6443 4.51801 11.7933 4.51801C11.9424 4.51801 12.0633 4.39723 12.0633 4.24801C12.0633 3.64627 12.5473 3.15631 13.1462 3.14461C13.7451 3.15631 14.2291 3.64627 14.2291 4.24783C14.2291 4.35979 14.208 4.47571 14.1645 4.60261C14.1542 4.63249 14.1493 4.66381 14.1499 4.69531C14.1501 4.70269 14.1504 4.70953 14.1511 4.71601C14.1501 4.71979 14.1493 4.72231 14.1493 4.72231C14.1281 4.80601 14.1483 4.89493 14.2035 4.96135C14.2588 5.02777 14.3412 5.06377 14.4287 5.05819C14.4474 5.05693 14.4661 5.05459 14.4993 5.04991C15.1082 5.04991 15.6037 5.54545 15.6037 6.15439C15.6037 6.25735 15.5852 6.36301 15.5458 6.48721C15.5092 6.60151 15.5526 6.72625 15.6522 6.79321C16.0903 7.08823 16.3558 7.57243 16.3747 8.09677C16.3747 8.09749 16.3745 8.09821 16.3745 8.09893C16.3745 9.00433 15.6379 9.74107 14.7325 9.74107C13.8271 9.74107 13.0904 9.00433 13.0904 8.09893C13.0904 7.94971 12.9694 7.82893 12.8204 7.82893C12.6714 7.82893 12.5504 7.94971 12.5504 8.09893C12.5504 9.30223 13.5292 10.2811 14.7325 10.2811C15.1336 10.2811 15.5083 10.1704 15.8316 9.98083C16.1772 10.357 16.3677 10.8382 16.3677 11.3398Z" fill="#323E50"/>
<path d="M6.87183 1.21802C6.02871 1.21802 5.32563 1.81922 5.17353 2.62652C5.08569 2.61122 5.00271 2.60384 4.92027 2.60384C4.91307 2.60384 4.90605 2.60474 4.89867 2.60492C4.89147 2.60474 4.88445 2.60384 4.87707 2.60384C4.86213 2.60384 4.84773 2.60582 4.83351 2.60816C3.96717 2.6537 3.27579 3.37064 3.27579 4.24814C3.27579 4.34066 3.28461 4.43354 3.30261 4.52822C2.51079 4.64612 1.90131 5.33066 1.90131 6.15488C1.90131 6.2546 1.91229 6.35612 1.93443 6.46196C1.42557 6.8747 1.12695 7.4948 1.12695 8.15648C1.12695 8.7251 1.35483 9.27122 1.75785 9.67982C1.35699 10.1458 1.13757 10.7308 1.13757 11.3401C1.13757 12.1806 1.53915 12.9474 2.22243 13.4319C2.15997 13.6486 2.13567 13.8681 2.15007 14.0869C2.18427 14.6116 2.42061 15.0917 2.81589 15.4386C3.21117 15.7856 3.71859 15.9568 4.24257 15.9233C4.32447 15.9179 4.40799 15.906 4.49457 15.8875C4.87941 16.5776 5.60805 17.0119 6.41085 17.0119C7.62081 17.0119 8.60523 16.0275 8.60523 14.8176V2.95196C8.60559 1.9958 7.82781 1.21802 6.87183 1.21802ZM8.06559 14.8172C8.06559 15.7294 7.32345 16.4716 6.41121 16.4716C5.74575 16.4716 5.14761 16.0756 4.88769 15.4629C4.84431 15.3608 4.74495 15.2983 4.63911 15.2983C4.61139 15.2983 4.58313 15.3025 4.55541 15.3117C4.42509 15.354 4.31457 15.377 4.20747 15.384C3.82605 15.409 3.45903 15.2839 3.17229 15.0323C2.88537 14.7807 2.71383 14.4324 2.68899 14.0515C2.67531 13.8427 2.71149 13.631 2.79663 13.4224C2.79789 13.4193 2.79753 13.4159 2.79861 13.4128C3.04017 12.8628 3.55911 12.5213 4.16607 12.5213C4.31529 12.5213 4.43607 12.4003 4.43607 12.2513C4.43607 12.1023 4.31529 11.9813 4.16607 11.9813C3.45723 11.9813 2.81589 12.3426 2.44743 12.9243C1.96125 12.5393 1.67757 11.9655 1.67757 11.34C1.67757 10.8383 1.86837 10.3572 2.21361 9.98114C2.53689 10.1707 2.91183 10.2814 3.31287 10.2814C4.51617 10.2814 5.49501 9.30254 5.49501 8.09924C5.49501 7.95002 5.37423 7.82924 5.22501 7.82924C5.07579 7.82924 4.95501 7.95002 4.95501 8.09924C4.95501 9.00464 4.21845 9.74138 3.31287 9.74138C2.40729 9.74138 1.67073 9.00464 1.67073 8.09924C1.67073 8.09888 1.67055 8.09852 1.67055 8.09816C1.68909 7.57346 1.95459 7.0889 2.39289 6.79352C2.49243 6.72656 2.53563 6.602 2.49927 6.4877C2.45967 6.36332 2.44131 6.25766 2.44131 6.1547C2.44131 5.54702 2.93469 5.0522 3.55641 5.0522C3.55767 5.0522 3.55911 5.0522 3.56037 5.0522C3.57891 5.05472 3.59745 5.05706 3.61635 5.05832C3.70365 5.06372 3.78699 5.02754 3.84207 4.96076C3.89733 4.8938 3.91713 4.80452 3.89499 4.72064C3.89499 4.72046 3.89445 4.71812 3.89355 4.71506C3.89409 4.70876 3.89463 4.703 3.89481 4.69796C3.89571 4.66556 3.89085 4.63334 3.88023 4.60274C3.83667 4.47548 3.81561 4.35938 3.81561 4.24778C3.81561 3.64622 4.29945 3.15608 4.89849 3.14456C5.49753 3.15626 5.98137 3.64622 5.98137 4.24796C5.98137 4.39718 6.10215 4.51796 6.25137 4.51796C6.40059 4.51796 6.52137 4.39718 6.52137 4.24796C6.52137 3.63758 6.18639 3.10496 5.69121 2.82128C5.75673 2.219 6.26001 1.75784 6.87165 1.75784C7.52991 1.75784 8.06541 2.29352 8.06541 2.95178L8.06559 14.8172Z" fill="#323E50"/>
</svg>
