<svg width="17" height="21" viewBox="0 0 17 21" fill="none" xmlns="http://www.w3.org/2000/svg">
<path d="M16 14.48H4.67766C3.80021 14.48 3.36148 14.48 3.00152 14.5628C2.02471 14.7873 1.26173 15.442 1 16.28" stroke="#5662F6" stroke-width="1.3"/>
<path d="M4.60156 6.08005H12.4016" stroke="#5662F6" stroke-width="1.3" stroke-linecap="round"/>
<path d="M4.60156 9.08002H9.40156" stroke="#5662F6" stroke-width="1.3" stroke-linecap="round"/>
<path d="M6.625 19.88C3.97335 19.88 2.64753 19.88 1.82376 19.0628C1 18.2456 1 16.9304 1 14.3V6.86C1 4.22956 1 2.91434 1.82376 2.09717C2.64753 1.28 3.97335 1.28 6.625 1.28H10.375C13.0266 1.28 14.3524 1.28 15.1762 2.09717C16 2.91434 16 4.22956 16 6.86M10.375 19.88C13.0266 19.88 14.3524 19.88 15.1762 19.0628C16 18.2456 16 16.9304 16 14.3V10.58" stroke="#5662F6" stroke-width="1.3" stroke-linecap="round"/>
</svg>
