<svg width="18" height="20" viewBox="0 0 18 20" fill="none" xmlns="http://www.w3.org/2000/svg">
<path d="M8.5 7.0457L7 10.0457H11L9.5 13.0457M17 10.0457C17 14.5068 11.54 17.7395 9.6414 18.7287C9.4361 18.8357 9.3334 18.8892 9.191 18.9169C9.08 18.9385 8.92 18.9385 8.809 18.9169C8.6666 18.8892 8.5639 18.8357 8.3586 18.7287C6.45996 17.7395 1 14.5068 1 10.0457V6.26331C1 5.46379 1 5.06404 1.13076 4.72041C1.24627 4.41685 1.43398 4.14598 1.67766 3.93123C1.9535 3.68814 2.3278 3.54778 3.0764 3.26705L8.4382 1.25638C8.6461 1.17842 8.75 1.13944 8.857 1.12398C8.9518 1.11028 9.0482 1.11028 9.143 1.12398C9.25 1.13944 9.3539 1.17842 9.5618 1.25638L14.9236 3.26705C15.6722 3.54778 16.0465 3.68814 16.3223 3.93123C16.566 4.14598 16.7537 4.41685 16.8692 4.72041C17 5.06404 17 5.46379 17 6.26331V10.0457Z" stroke="#5662F6" stroke-width="1.3" stroke-linecap="round" stroke-linejoin="round"/>
</svg>
