<svg width="20" height="23" viewBox="0 0 20 23" fill="none" xmlns="http://www.w3.org/2000/svg">
<path d="M18.5299 2.79478C19.3718 2.93286 19.3718 4.14447 18.5299 4.28255C17.4193 4.46518 16.5492 5.33528 16.3666 6.44592C16.2285 7.2878 15.0169 7.2878 14.8788 6.44592C14.6962 5.33528 13.8261 4.46518 12.7154 4.28255C11.8735 4.14447 11.8735 2.93286 12.7154 2.79478C13.8261 2.61214 14.6962 1.74205 14.8788 0.631413C15.0169 -0.210471 16.2285 -0.210471 16.3666 0.631413C16.5492 1.74205 17.4193 2.61214 18.5299 2.79478Z" fill="white"/>
<path d="M8.96713 3.54068C9.31083 4.01921 8.71913 4.61085 8.24063 4.26718C7.60913 3.81402 6.75934 3.81402 6.12782 4.26718C5.64929 4.61085 5.05765 4.01921 5.40132 3.54068C5.85448 2.90916 5.85448 2.0594 5.40132 1.42788C5.05765 0.949336 5.64929 0.357696 6.12782 0.701376C6.75935 1.15453 7.60913 1.15453 8.24063 0.701366C8.71913 0.357696 9.31083 0.949336 8.96713 1.42788C8.51393 2.0594 8.51393 2.90916 8.96713 3.54068Z" fill="white"/>
<path d="M16 22L12.297 18.297M14.2353 13.6176C14.2353 9.96282 11.2724 7 7.61765 7C3.96282 7 1 9.96282 1 13.6176C1 17.2724 3.96282 20.2353 7.61765 20.2353C11.2724 20.2353 14.2353 17.2724 14.2353 13.6176Z" stroke="white" stroke-width="1.3" stroke-linecap="round" stroke-linejoin="round"/>
</svg>
