<svg width="32" height="28" viewBox="0 0 32 28" fill="none" xmlns="http://www.w3.org/2000/svg">
<path d="M24.0915 0.687653L15.7897 9.29387L12.491 5.88497H3.80114L11.4195 13.8279L8.64382 16.6994H8.07012C5.85126 16.6994 3.83488 15.801 2.37533 14.3568C0.915777 12.9043 0.0214844 10.906 0.0214844 8.68933C0.0214844 4.27288 3.62397 0.687653 8.07012 0.687653H24.0915Z" fill="#87BEEF"/>
<path d="M7.30273 27.0185L15.6045 18.4123L18.9032 21.8212H27.5931L19.9747 13.8783L22.7504 11.0067H23.3241C25.5429 11.0067 27.5593 11.9051 29.0189 13.3493C30.4784 14.8018 31.3727 16.8002 31.3727 19.0168C31.3727 23.4332 27.7702 27.0185 23.3241 27.0185H7.30273Z" fill="#5662F6"/>
</svg>
