<svg width="44" height="54" viewBox="0 0 44 54" fill="none" xmlns="http://www.w3.org/2000/svg">
<path d="M3.09563 3.60185C3.12568 3.14397 3.18579 2.86924 3.18579 2.56398C3.18579 -0.213861 2.9153 0.0303447 5.86066 -0.000181069C14.7869 -0.000181069 23.6831 -0.0307068 32.6093 0.0303447C33.4208 0.0303447 34.3525 0.396653 35.0137 0.915591C37.7486 3.14397 40.4235 5.4334 43.0383 7.8144C43.5492 8.27229 43.97 9.15754 43.97 9.85963C44.0301 22.8941 44 35.8981 44.0301 48.9326C44.0301 50.3062 43.6394 50.9473 42.2268 50.7641C41.0847 50.6115 40.6639 51.1609 40.8142 52.2599C40.9945 53.603 40.4536 53.9998 39.1312 53.9998C26.7186 53.9388 14.276 53.9388 1.86339 53.9998C0.39071 53.9998 0 53.5419 0 52.0767C0.0300546 36.6612 0.0300546 21.2457 0.0300546 5.83023C0.0300546 3.78501 0.0300546 3.78501 2.07377 3.69343C2.37432 3.72396 2.67486 3.66291 3.09563 3.60185ZM4.41803 1.43453C4.41803 2.10609 4.41803 2.62503 4.41803 3.11344C4.41803 17.9489 4.44809 32.815 4.38798 47.6505C4.38798 49.1462 4.8388 49.482 6.25137 49.482C17.7623 49.421 29.2732 49.421 40.7842 49.482C42.2869 49.482 42.7377 49.1462 42.7077 47.5589C42.6475 35.5012 42.6776 23.4436 42.6776 11.4164C42.6776 10.867 42.6776 10.3175 42.6776 9.52384C39.9426 9.52384 37.3279 9.46279 34.7432 9.55437C33.541 9.5849 33.0301 9.18806 33.0902 7.90598C33.1803 5.76918 33.1202 3.66291 33.1202 1.43453C23.5027 1.43453 14.0656 1.43453 4.41803 1.43453ZM1.44262 5.12814C1.44262 20.9405 1.44262 36.6917 1.44262 52.5346C14.1557 52.5346 26.7787 52.5346 39.582 52.5346C39.5519 51.9241 39.5219 51.4051 39.4918 50.7336C38.6803 50.7336 38.0191 50.7336 37.388 50.7336C26.6585 50.7336 15.959 50.7336 5.22951 50.7336C3.18579 50.7336 3.18579 50.7336 3.18579 48.6273C3.18579 34.7991 3.18579 20.971 3.18579 7.11231C3.18579 6.47127 3.18579 5.83023 3.18579 5.09761C2.49454 5.12814 2.01366 5.12814 1.44262 5.12814ZM34.4126 2.13662C34.4126 4.21237 34.3825 5.83023 34.4426 7.41757C34.4426 7.6923 34.8333 8.21124 35.0738 8.21124C37.0273 8.27229 38.9809 8.24176 40.9344 8.24176C40.9645 8.11966 41.0246 7.99756 41.0547 7.87546C38.9809 6.04391 36.8771 4.24289 34.4126 2.13662Z" fill="white"/>
<path d="M18.845 21.368C14.2166 21.3985 10.5198 17.7354 10.4597 13.065C10.3996 8.27243 14.0362 4.51777 18.7548 4.48724C23.4133 4.45672 27.2002 8.27243 27.2002 12.9429C27.1701 17.5828 23.4433 21.3374 18.845 21.368ZM25.8176 12.9429C25.8176 8.97452 22.6319 5.7388 18.7548 5.76932C14.9379 5.79985 11.7521 9.00505 11.722 12.8818C11.6619 16.7891 14.9078 20.1164 18.7548 20.1469C22.6319 20.1469 25.7876 16.9112 25.8176 12.9429Z" fill="white"/>
<path d="M23.5018 25.367C28.3707 25.367 33.2095 25.367 38.0783 25.367C38.439 25.367 38.7997 25.2754 39.1303 25.3975C39.4909 25.5196 39.8215 25.7943 40.1521 26.008C39.8516 26.2522 39.551 26.5575 39.1904 26.7101C38.9499 26.8322 38.5893 26.7406 38.2887 26.7406C28.4308 26.7406 18.5729 26.7406 8.71495 26.7406C8.47451 26.7406 8.17397 26.8017 7.96358 26.7101C7.57287 26.5269 7.21222 26.2522 6.85156 26.008C7.24227 25.7943 7.63298 25.3975 8.02369 25.3975C13.1931 25.3364 18.3625 25.367 23.5018 25.367Z" fill="white"/>
<path d="M23.5018 31.3499C18.5428 31.3499 13.5838 31.3499 8.65484 31.3499C8.29419 31.3499 7.93353 31.4109 7.60293 31.3194C7.33244 31.2278 7.12205 30.9225 6.85156 30.7394C7.06195 30.4952 7.24227 30.1594 7.51277 30.0678C7.87342 29.9457 8.29419 30.0068 8.71495 30.0068C18.5729 30.0068 28.4308 30.0068 38.2887 30.0068C38.5292 30.0068 38.8297 29.9457 39.0401 30.0373C39.4308 30.2204 39.7915 30.4952 40.1521 30.7394C39.7614 30.953 39.3707 31.3499 38.98 31.3499C33.8106 31.3804 28.6712 31.3499 23.5018 31.3499Z" fill="white"/>
<path d="M23.5323 34.7383C28.4312 34.7383 33.3301 34.7383 38.2591 34.7383C38.7099 34.7383 39.1607 34.7078 39.6116 34.7994C39.8219 34.8604 40.1225 35.1657 40.1225 35.3489C40.0924 35.5625 39.8219 35.8678 39.5815 35.9288C39.2209 36.0204 38.8001 35.9899 38.3793 35.9899C28.4613 35.9899 18.5733 35.9899 8.65528 35.9899C8.50501 35.9899 8.32468 36.051 8.20446 35.9899C7.75364 35.8067 7.33287 35.5625 6.91211 35.3489C7.36293 35.1352 7.78369 34.7689 8.23451 34.7689C13.3137 34.7078 18.423 34.7383 23.5323 34.7383Z" fill="white"/>
<path d="M22.9019 39.3475C27.6506 39.3475 32.3992 39.3475 37.1478 39.3475C37.5386 39.3475 37.9593 39.2865 38.35 39.4086C38.5604 39.4696 38.891 39.7749 38.861 39.9886C38.861 40.1717 38.5304 40.477 38.32 40.538C37.9293 40.6296 37.5386 40.5991 37.1178 40.5991C27.6205 40.5991 18.1233 40.5991 8.62598 40.5991C8.47571 40.5991 8.29538 40.6296 8.17516 40.5991C7.72434 40.4159 7.30358 40.1717 6.88281 39.9886C7.33363 39.7749 7.7544 39.4086 8.20522 39.4086C13.1041 39.3475 18.003 39.3475 22.9019 39.3475Z" fill="white"/>
<path d="M20.0456 43.9876C23.9527 43.9876 27.8598 43.9571 31.7368 44.0181C32.2477 44.0181 32.7286 44.3844 33.2095 44.5981C32.7587 44.8423 32.2778 45.2697 31.827 45.2697C23.9827 45.3002 16.1084 45.3002 8.26413 45.2697C7.78326 45.2697 7.33244 44.8423 6.85156 44.6287C7.33244 44.415 7.81331 44.0181 8.32424 44.0181C12.2614 43.9571 16.1384 43.9876 20.0456 43.9876Z" fill="white"/>
<path d="M16.591 15.3239C18.4243 13.4008 20.1374 11.5692 21.9407 9.79872C22.2713 9.46294 22.9025 9.46294 23.4134 9.27979C23.2331 9.73767 23.173 10.3177 22.8724 10.6229C21.1894 12.4239 19.3861 14.1334 17.7331 15.9344C16.8314 16.9112 16.1402 16.9723 15.2686 15.9954C14.9981 15.6902 14.6074 15.4765 14.4271 15.1407C14.2167 14.7744 14.1866 14.3165 14.0664 13.8892C14.4872 14.0113 14.968 14.0418 15.3588 14.2555C15.7495 14.4386 16.05 14.8355 16.591 15.3239Z" fill="white"/>
</svg>
