<svg width="119" height="119" viewBox="0 0 119 119" fill="none" xmlns="http://www.w3.org/2000/svg">
<path d="M0 59.5C0 26.6391 26.6391 0 59.5 0C92.3609 0 119 26.6391 119 59.5V119H59.5C26.6391 119 0 92.3609 0 59.5Z" fill="white" fill-opacity="0.22"/>
<path d="M0 59.5C0 26.6391 26.6391 0 59.5 0C92.3609 0 119 26.6391 119 59.5V119H59.5C26.6391 119 0 92.3609 0 59.5Z" fill="black" fill-opacity="0.1"/>
<path d="M59.5 1C91.8087 1 118 27.1913 118 59.5V118H59.5C27.1913 118 1 91.8087 1 59.5C1 27.1913 27.1913 1 59.5 1Z" stroke="url(#paint0_linear_1016_3564)" stroke-opacity="0.7" stroke-width="2"/>
<defs>
<linearGradient id="paint0_linear_1016_3564" x1="-11.292" y1="-7.29635" x2="120.477" y2="119" gradientUnits="userSpaceOnUse">
<stop stop-color="white"/>
<stop offset="0.16201" stop-color="white" stop-opacity="0.69"/>
<stop offset="0.855481" stop-color="white" stop-opacity="0"/>
<stop offset="1" stop-color="white" stop-opacity="0.33"/>
</linearGradient>
</defs>
</svg>
