<svg width="53" height="56" viewBox="0 0 53 56" fill="none" xmlns="http://www.w3.org/2000/svg">
<path d="M24.5586 33.595C23.6086 33.595 22.6512 33.6025 21.7012 33.595C20.8847 33.5876 20.573 33.2066 20.7289 32.4072C21.0183 30.928 21.3301 29.4563 21.5972 27.9771C21.6418 27.7455 21.5453 27.4019 21.382 27.23C19.4597 25.213 19.5636 21.8512 21.6269 20.0283C23.8758 18.0411 27.1043 18.2951 28.893 20.6036C30.4293 22.5758 30.3477 25.2653 28.6926 27.1105C28.4106 27.4243 28.3067 27.7156 28.4032 28.1489C28.6703 29.3143 28.8856 30.4872 29.1157 31.6601C29.175 31.959 29.2789 32.0635 29.5461 31.8095C32.5298 29.0006 36.0626 27.7007 40.1446 27.9696C40.5603 27.9995 40.7236 27.8725 40.8349 27.4691C42.0669 22.8597 42.7201 18.1607 43.0392 13.4019C43.0615 13.0283 42.8833 12.9312 42.5642 12.9013C38.92 12.5427 35.3575 11.7957 31.8989 10.5705C29.6204 9.76365 27.4235 8.76259 25.3453 7.52246C25.0188 7.32822 24.7516 7.32075 24.425 7.51499C21.8941 9.02406 19.2222 10.2194 16.4242 11.1383C16.1347 11.2354 15.7265 11.2055 15.4519 11.0635C15.2738 10.9739 15.1031 10.5406 15.1699 10.3389C15.2663 10.0625 15.5484 9.77113 15.8156 9.65907C17.107 9.11371 18.4429 8.69535 19.7121 8.11264C21.2558 7.39546 22.7551 6.56622 24.2543 5.75191C24.7145 5.50538 25.1004 5.49044 25.5383 5.75938C30.652 8.87465 36.2333 10.563 42.1486 11.2204C42.6681 11.2802 43.1802 11.325 43.6998 11.3698C44.4271 11.4296 44.7314 11.706 44.672 12.4381C44.4568 14.9408 44.3158 17.4584 43.9521 19.9387C43.5662 22.5459 42.9501 25.1158 42.4158 27.6932C42.3341 28.1041 42.3786 28.2834 42.8091 28.4104C43.5736 28.642 44.3232 28.9483 45.058 29.2695C45.4216 29.4264 45.5627 29.3965 45.6814 28.9856C46.765 25.1158 47.4775 21.1788 47.908 17.1895C47.9822 16.5097 48.049 15.8298 48.1232 15.15C48.19 14.5822 48.5166 14.2909 49.0287 14.3432C49.4592 14.388 49.7486 14.769 49.7041 15.2994C49.2885 20.0806 48.5166 24.8021 47.2178 29.4339C46.9431 30.42 46.8615 30.2108 47.6705 30.9056C48.5017 31.6228 49.2662 32.4296 50.0158 33.229C50.3869 33.6249 50.3275 34.1628 49.9639 34.4616C49.6002 34.7605 49.1252 34.6783 48.7689 34.23C46.6537 31.578 43.9224 29.9568 40.5751 29.6206C35.5727 29.1276 31.5501 31.0102 28.8188 35.2685C26.3027 39.1906 26.184 43.3741 28.1879 47.5801C30.2809 51.9878 35.2462 54.7594 40.0779 54.341C41.9927 54.1767 43.8037 53.6612 45.4068 52.6527C48.717 50.5684 50.7357 47.5652 51.3072 43.6356C51.567 41.8202 51.4037 40.0347 50.8768 38.2866C50.8174 38.0774 50.7283 37.7861 50.8248 37.6367C50.9807 37.3827 51.2404 37.0913 51.5076 37.0241C51.9381 36.9195 52.2498 37.2482 52.3463 37.6516C52.5838 38.6527 52.8658 39.6612 52.9475 40.6847C53.2963 45.1148 51.9232 48.9398 48.7689 52.055C43.9966 56.7615 36.6118 57.3144 31.1641 53.4147C30.8375 53.1831 30.6075 53.1906 30.2661 53.3923C28.9301 54.1767 27.5942 54.9611 26.2211 55.6633C25.2117 56.1863 24.1875 56.0742 23.1707 55.5438C22.1019 54.9835 20.9441 54.5801 19.8902 54.0049C15.0659 51.3827 11.2214 47.6847 8.23777 43.0753C5.81822 39.3474 4.12602 35.3058 2.89398 31.0475C1.29085 25.5267 0.481855 19.8714 0.170134 14.134C0.0959148 12.8416 0.0439613 11.5491 -0.000570319 10.2567C-0.0525238 8.43388 1.36506 6.79033 3.30961 6.75298C6.74596 6.68575 10.1007 6.15533 13.3812 5.13185C15.7042 4.4072 17.9382 3.46589 20.0758 2.30794C21.0777 1.77006 22.0426 1.1724 23.0223 0.582223C24.2914 -0.187254 25.5457 -0.224607 26.7852 0.604635C32.1587 4.18308 38.1333 5.94615 44.4939 6.50645C45.2361 6.57369 45.9709 6.61851 46.7131 6.65586C48.7912 6.75298 50.283 8.54594 49.9935 10.6228C49.9268 11.1084 49.5779 11.4221 49.1474 11.3923C48.7392 11.3624 48.4572 11.0113 48.4053 10.5481C48.3533 10.07 48.3533 9.55448 48.1455 9.14359C47.8412 8.52353 47.2252 8.29194 46.5275 8.26205C43.4548 8.12011 40.4193 7.72417 37.4356 6.98457C33.3536 5.96856 29.5239 4.36237 26.0207 2.01659C25.2563 1.50858 24.5363 1.52353 23.7719 2.00912C19.8976 4.48937 15.7562 6.33463 11.2808 7.38799C8.86864 7.95576 6.4194 8.29941 3.94047 8.3517C3.60649 8.35917 3.26508 8.36664 2.94594 8.44135C2.0553 8.64306 1.55803 9.39759 1.58772 10.3613C1.7139 14.9408 2.07757 19.4904 2.89398 23.9878C4.11118 30.7039 6.15221 37.0988 9.99677 42.8063C12.4608 46.4595 15.5113 49.515 19.2964 51.7711C20.8328 52.69 22.4805 53.4072 24.091 54.2066C24.6106 54.468 25.1524 54.4382 25.6645 54.1617C26.7926 53.5417 27.9133 52.9067 29.034 52.2791C29.3383 52.1073 29.3532 51.9355 29.1305 51.6665C28.5887 51.0091 28.0618 50.3293 27.5496 49.6495C27.3864 49.4328 27.2453 49.3656 26.993 49.515C26.4512 49.8437 25.902 50.15 25.3527 50.4563C24.9742 50.6729 24.5957 50.6879 24.1875 50.4937C21.0926 49.0742 18.339 47.1767 15.9788 44.6964C14.1159 42.7316 12.5648 40.5577 11.2585 38.1745C8.50496 33.1543 6.99831 27.7306 6.21159 22.1052C5.77369 18.9824 5.58814 15.8224 5.31353 12.6697C5.23931 11.7882 5.51392 11.5865 6.39713 11.4894C7.97058 11.3176 9.53661 11.086 11.1026 10.8768C11.5331 10.817 11.8968 10.9141 12.0898 11.34C12.253 11.6986 12.1417 12.0123 11.8597 12.2439C11.7112 12.3634 11.5108 12.4381 11.3179 12.4606C10.0116 12.6623 8.70535 12.8565 7.39167 13.0283C7.03542 13.0732 6.90182 13.2076 6.91667 13.5737C7.18386 18.3549 7.7405 23.0913 8.93543 27.738C10.1526 32.4595 11.9487 36.9269 14.8507 40.8864C17.3445 44.2781 20.4617 46.9301 24.2691 48.7231C24.5066 48.8352 24.8629 48.7978 25.1227 48.7082C25.4789 48.5812 25.7832 48.3197 26.1246 48.1479C26.4586 47.976 26.5031 47.7669 26.3621 47.4232C25.568 45.5705 25.1969 43.6281 25.2488 41.6036C25.3231 38.8245 26.1543 36.2994 27.6907 33.9984C27.7649 33.8864 27.8094 33.7594 27.8688 33.6399C27.7426 33.6174 27.6164 33.5801 27.4903 33.5801C26.5106 33.5876 25.5309 33.595 24.5586 33.595ZM24.952 31.9814C25.657 31.9814 26.3621 31.9739 27.0672 31.9814C27.416 31.9888 27.5274 31.8618 27.4531 31.5107C27.2008 30.3079 27.0153 29.0902 26.7184 27.8949C26.5403 27.1777 26.7258 26.722 27.2824 26.2514C28.2473 25.4296 28.5442 24.309 28.3215 23.0764C28.0914 21.8063 27.327 20.9323 26.1469 20.499C24.566 19.9163 22.8367 20.6185 22.0277 22.0603C21.2187 23.5171 21.5824 25.3549 22.9035 26.4307C23.2894 26.7444 23.4305 27.1105 23.3191 27.611C23.0445 28.9109 22.807 30.2183 22.5324 31.5257C22.4582 31.8917 22.5695 31.9963 22.9184 31.9888C23.5937 31.9664 24.2691 31.9814 24.952 31.9814Z" fill="white"/>
</svg>
