<svg width="73" height="45" viewBox="0 0 73 45" fill="none" xmlns="http://www.w3.org/2000/svg">
<path d="M35.8263 7.91207C35.8263 6.46077 35.7485 5.30718 35.8651 4.15359C35.8651 3.74425 36.2927 3.37213 36.5259 3C36.798 3.40934 37.3034 3.78147 37.3422 4.1908C37.4588 5.3444 37.3811 6.49799 37.3811 7.94928C38.3918 7.94928 39.1303 7.94928 39.8689 7.94928C44.2613 7.94928 48.6926 7.91207 53.085 7.98649C53.8236 7.98649 54.8342 8.50747 55.2229 9.10287C59.4988 16.0244 63.6968 23.0204 67.8561 30.0164C68.2448 30.7234 68.3225 31.8398 68.0504 32.584C66.068 38.4264 60.3539 42.0733 53.707 41.9616C47.5265 41.85 42.0845 37.9054 40.3353 32.1375C40.141 31.4304 40.3742 30.4629 40.7629 29.7931C44.7277 23.0948 48.7315 16.471 52.8907 9.58664C47.7208 9.58664 42.7064 9.58664 37.4977 9.58664C37.3811 11.0751 37.3034 12.6381 37.1868 14.2382C36.9535 14.2382 36.7203 14.2754 36.4871 14.2754C34.9711 13.0102 36.3316 11.1124 35.593 9.51221C30.6564 9.51221 25.642 9.51221 20.3944 9.51221C20.7054 10.1448 20.9386 10.6286 21.2107 11.0751C24.9424 17.2896 28.674 23.5414 32.4833 29.7559C33.1442 30.835 33.183 31.7654 32.7554 32.8817C30.5787 38.5753 25.059 42.0733 18.3731 41.9988C12.4647 41.8872 6.90617 37.9427 5.11809 32.4352C4.88487 31.6909 5.00148 30.5746 5.42906 29.9047C9.35504 23.2809 13.4365 16.7315 17.2847 10.0704C18.2954 8.32141 19.4227 7.83764 21.4051 7.91207C26.1085 8.0237 30.8508 7.91207 35.8263 7.91207ZM42.1234 30.3885C50.3641 30.3885 58.216 30.3885 66.3401 30.3885C62.2586 23.6158 58.2938 17.0664 54.2123 10.2937C50.1308 17.1036 46.2048 23.6158 42.1234 30.3885ZM31.1229 30.4257C27.0025 23.6158 23.0765 17.1408 18.9562 10.2937C14.797 17.178 10.871 23.6902 6.78955 30.4257C14.9914 30.4257 22.8822 30.4257 31.1229 30.4257ZM6.78955 32.0259C7.83907 37.1612 13.903 40.9569 20.1223 40.5103C25.3699 40.1382 30.8119 35.9332 31.0062 32.0259C22.9988 32.0259 14.9914 32.0259 6.78955 32.0259ZM42.0845 32.0631C43.0952 37.0496 48.9647 40.8452 55.1063 40.5475C60.3928 40.3243 65.9125 36.1565 66.2623 32.0631C58.2549 32.0631 50.1697 32.0631 42.0845 32.0631Z" fill="white"/>
</svg>
