<svg width="16" height="16" viewBox="0 0 16 16" fill="none" xmlns="http://www.w3.org/2000/svg">
  <path d="M13.3334 6H7.33335C6.59697 6 6.00002 6.59695 6.00002 7.33333V13.3333C6.00002 14.0697 6.59697 14.6667 7.33335 14.6667H13.3334C14.0697 14.6667 14.6667 14.0697 14.6667 13.3333V7.33333C14.6667 6.59695 14.0697 6 13.3334 6Z" stroke="#666666" stroke-linecap="round" stroke-linejoin="round"/>
  <path d="M3.33335 10H2.66669C2.31305 10 1.97392 9.85953 1.7239 9.60949C1.47388 9.35944 1.33335 9.02031 1.33335 8.66667V2.66667C1.33335 2.31304 1.47388 1.97391 1.7239 1.72386C1.97392 1.47381 2.31305 1.33333 2.66669 1.33333H8.66669C9.02032 1.33333 9.35945 1.47381 9.60949 1.72386C9.85954 1.97391 10 2.31304 10 2.66667V3.33333" stroke="#666666" stroke-linecap="round" stroke-linejoin="round"/>
</svg>
