<svg width="389" height="347" viewBox="0 0 389 347" fill="none" xmlns="http://www.w3.org/2000/svg">
<circle cx="173" cy="173" r="173" fill="#F2F5F9"/>
<path d="M134.341 191.744L276.205 191.744L276.205 345.745L54.0011 345.745L54.0011 242.744" stroke="#A8C5E2" stroke-miterlimit="10"/>
<path d="M232.863 220.023C249.908 220.023 263.725 206.206 263.725 189.162C263.725 172.117 249.908 158.3 232.863 158.3C215.819 158.3 202.002 172.117 202.002 189.162C202.002 206.206 215.819 220.023 232.863 220.023Z" fill="#D3E4F2"/>
<path d="M365.986 220.023C378.316 220.023 388.311 210.028 388.311 197.698C388.311 185.368 378.316 175.373 365.986 175.373C353.656 175.373 343.66 185.368 343.66 197.698C343.66 210.028 353.656 220.023 365.986 220.023Z" fill="#D3E4F2"/>
<path d="M323.468 216.258C348.684 205.812 360.658 176.903 350.213 151.687C339.768 126.471 310.859 114.496 285.642 124.941C260.426 135.387 248.452 164.296 258.897 189.512C269.342 214.728 298.251 226.703 323.468 216.258Z" fill="#D3E4F2"/>
<path d="M232.863 220.023H365.984V189.162H227.301L232.863 220.023Z" fill="#D3E4F2"/>
<path d="M255.127 167.802C261.218 174.41 263.724 185.319 263.724 185.319" stroke="#4A7693" stroke-miterlimit="10"/>
<path d="M353.966 178.888C344.962 182.753 345.604 194.945 345.604 194.945" stroke="#4A7693" stroke-miterlimit="10"/>
<path d="M255.127 167.803C255.127 167.803 255.127 133.457 291.981 122.8" stroke="#4A7693" stroke-miterlimit="10"/>
<path d="M143.862 175.756H5.71695C4.21695 175.756 3.00195 174.54 3.00195 173.041V144.46C3.00195 142.96 4.21795 141.745 5.71695 141.745H143.862C145.361 141.745 146.577 142.961 146.577 144.46V173.041C146.578 174.54 145.362 175.756 143.862 175.756Z" fill="#D3E4F2"/>
<path d="M136.103 175.756H13.4785V184.204H136.103V175.756Z" fill="#BCCCDD"/>
<path d="M95.7287 149.349H19.8066V166.756H95.7287V149.349Z" fill="white"/>
<path d="M143.862 218.215H5.71695C4.21695 218.215 3.00195 216.999 3.00195 215.5V186.918C3.00195 185.419 4.21795 184.203 5.71695 184.203H143.862C145.361 184.203 146.577 185.418 146.577 186.918V215.499C146.578 216.999 145.362 218.215 143.862 218.215Z" fill="#D3E4F2"/>
<path d="M136.103 218.215H13.4785V226.663H136.103V218.215Z" fill="#BCCCDD"/>
<path d="M95.7287 191.808H19.8066V209.215H95.7287V191.808Z" fill="white"/>
<path d="M143.862 260.674H5.71695C4.21695 260.674 3.00195 259.458 3.00195 257.959V229.378C3.00195 227.879 4.21795 226.663 5.71695 226.663H143.862C145.361 226.663 146.577 227.879 146.577 229.378V257.96C146.578 259.459 145.362 260.674 143.862 260.674Z" fill="#D3E4F2"/>
<path d="M95.7287 234.267H19.8066V251.674H95.7287V234.267Z" fill="white"/>
<path d="M116.134 158.053C116.134 159.956 114.592 161.498 112.689 161.498C110.786 161.498 109.244 159.956 109.244 158.053C109.244 156.15 110.786 154.608 112.689 154.608C114.592 154.607 116.134 156.15 116.134 158.053Z" fill="white"/>
<path d="M130.232 158.053C130.232 159.956 128.69 161.498 126.787 161.498C124.884 161.498 123.342 159.956 123.342 158.053C123.342 156.15 124.884 154.608 126.787 154.608C128.69 154.607 130.232 156.15 130.232 158.053Z" fill="white"/>
<path d="M116.134 200.512C116.134 202.415 114.592 203.957 112.689 203.957C110.786 203.957 109.244 202.414 109.244 200.512C109.244 198.609 110.786 197.067 112.689 197.067C114.592 197.067 116.134 198.609 116.134 200.512Z" fill="white"/>
<path d="M130.232 200.512C130.232 202.415 128.69 203.957 126.787 203.957C124.884 203.957 123.342 202.414 123.342 200.512C123.342 198.609 124.884 197.067 126.787 197.067C128.69 197.067 130.232 198.609 130.232 200.512Z" fill="white"/>
<path d="M116.134 242.971C116.134 244.874 114.592 246.416 112.689 246.416C110.786 246.416 109.244 244.873 109.244 242.971C109.244 241.068 110.786 239.526 112.689 239.526C114.592 239.526 116.134 241.068 116.134 242.971Z" fill="white"/>
<path d="M130.232 242.971C130.232 244.874 128.69 246.416 126.787 246.416C124.884 246.416 123.342 244.873 123.342 242.971C123.342 241.068 124.884 239.526 126.787 239.526C128.69 239.526 130.232 241.068 130.232 242.971Z" fill="white"/>
<path d="M109.245 141.744H6.56494C4.59694 141.744 3.00195 143.339 3.00195 145.307V166.757" stroke="#4A7693" stroke-miterlimit="10"/>
<path d="M109.245 184.561H6.56494C4.59694 184.561 3.00195 186.156 3.00195 188.124V209.574" stroke="#4A7693" stroke-miterlimit="10"/>
<path d="M109.245 227.377H6.56494C4.59694 227.377 3.00195 228.972 3.00195 230.94V252.39" stroke="#4A7693" stroke-miterlimit="10"/>
<path d="M187.951 302.006C191.79 302.006 194.902 298.894 194.902 295.055C194.902 291.216 191.79 288.104 187.951 288.104C184.112 288.104 181 291.216 181 295.055C181 298.894 184.112 302.006 187.951 302.006Z" fill="#D3E4F2"/>
<path d="M222.962 296.977C222.962 299.754 220.711 302.005 217.934 302.005C215.157 302.005 212.906 299.754 212.906 296.977C212.906 294.2 215.157 291.949 217.934 291.949C220.71 291.949 222.962 294.2 222.962 296.977Z" fill="#D3E4F2"/>
<path d="M204.096 302.006C210.243 302.006 215.227 297.023 215.227 290.875C215.227 284.728 210.243 279.744 204.096 279.744C197.948 279.744 192.965 284.728 192.965 290.875C192.965 297.023 197.948 302.006 204.096 302.006Z" fill="#D3E4F2"/>
<path d="M187.95 302.006H217.932V295.055H186.697L187.95 302.006Z" fill="#D3E4F2"/>
<path d="M277.951 56.006C281.79 56.006 284.902 52.8939 284.902 49.055C284.902 45.2161 281.79 42.104 277.951 42.104C274.112 42.104 271 45.2161 271 49.055C271 52.8939 274.112 56.006 277.951 56.006Z" fill="#D3E4F2"/>
<path d="M307.934 56.0052C310.711 56.0052 312.962 53.7541 312.962 50.9772C312.962 48.2003 310.711 45.9492 307.934 45.9492C305.157 45.9492 302.906 48.2003 302.906 50.9772C302.906 53.7541 305.157 56.0052 307.934 56.0052Z" fill="#D3E4F2"/>
<path d="M294.096 56.0061C300.243 56.0061 305.227 51.0226 305.227 44.8751C305.227 38.7277 300.243 33.7441 294.096 33.7441C287.948 33.7441 282.965 38.7277 282.965 44.8751C282.965 51.0226 287.948 56.0061 294.096 56.0061Z" fill="#D3E4F2"/>
<path d="M277.951 56.0062H307.934V49.0552H276.699L277.951 56.0062Z" fill="#D3E4F2"/>
<path d="M140.422 114.744C150.597 114.744 158.845 106.496 158.845 96.3218C158.845 86.1474 150.597 77.8994 140.422 77.8994C130.248 77.8994 122 86.1474 122 96.3218C122 106.496 130.248 114.744 140.422 114.744Z" fill="#D3E4F2"/>
<path d="M219.886 114.744C227.246 114.744 233.212 108.778 233.212 101.417C233.212 94.057 227.246 88.0903 219.886 88.0903C212.525 88.0903 206.559 94.057 206.559 101.417C206.559 108.778 212.525 114.744 219.886 114.744Z" fill="#D3E4F2"/>
<path d="M183.213 114.744C199.505 114.744 212.713 101.536 212.713 85.2441C212.713 68.9517 199.505 55.7441 183.213 55.7441C166.92 55.7441 153.713 68.9517 153.713 85.2441C153.713 101.536 166.92 114.744 183.213 114.744Z" fill="#D3E4F2"/>
<path d="M140.423 114.744H219.887V96.3218H137.104L140.423 114.744Z" fill="#D3E4F2"/>
<g clip-path="url(#clip0_990_1752)">
<path d="M358.937 220.225C338.541 220.225 318.185 220.225 297.789 220.186C296.603 220.186 296.144 220.417 296.182 221.723C296.259 226.066 296.259 230.409 296.182 234.79C296.182 235.827 296.412 236.212 297.522 236.212C310.914 236.135 324.269 236.135 337.661 236.135C339.766 236.135 341.87 236.135 343.975 236.25C347.61 236.481 350.021 238.825 350.174 242.476C350.327 246.127 350.25 249.778 350.289 253.39C350.289 254.082 350.059 254.812 350.48 255.427C350.059 257.195 350.174 258.962 350.174 260.73C350.174 268.263 350.174 275.833 350.174 283.366C350.174 287.286 347.342 290.091 343.401 290.091C339.651 290.129 335.901 290.091 332.151 290.129C323.503 290.129 314.817 290.168 306.169 290.168C305.251 290.668 304.218 290.744 303.185 290.706C295.494 290.706 287.764 290.706 280.073 290.706C274.792 290.668 271.922 287.785 271.884 282.52C271.884 271.568 271.846 260.653 271.922 249.701C271.922 247.28 272.382 244.897 272.42 242.476C272.879 238.633 275.213 236.365 279.04 236.212C281.336 236.096 283.632 236.135 285.927 236.212C287.037 236.25 287.496 236.019 287.496 234.751C287.42 230.332 287.42 225.912 287.496 221.493C287.496 220.34 287.075 220.148 286.08 220.148C276.017 220.186 265.953 220.186 255.89 220.148C254.55 220.148 254.244 220.647 254.282 221.8C254.321 223.222 254.282 224.606 254.282 226.028C254.282 227.526 253.594 228.295 252.101 228.333C251.987 228.333 251.833 228.333 251.719 228.333C245.137 228.372 245.596 228.718 245.788 222.569C245.864 220.455 245.175 220.109 243.3 220.148C237.905 220.263 232.472 220.148 227.076 220.148C227.497 219.11 228.415 219.687 229.028 219.687C247.816 219.648 266.604 219.648 285.43 219.648C286.119 219.648 286.846 219.84 287.496 219.456C287.496 219.11 287.458 218.726 287.458 218.38C287.42 217.803 287.688 217.765 288.07 218.072C288.836 219.033 288.836 220.186 288.836 221.339C288.874 225.221 288.836 229.064 288.836 232.945C288.836 233.752 288.721 234.598 289.218 235.328C290.825 236.327 292.585 235.827 294.231 235.674C295.341 235.558 295.341 234.444 295.341 233.521C295.341 229.871 295.341 226.22 295.341 222.569C295.341 221.915 295.302 221.301 295.455 220.647C295.608 220.032 295.914 219.61 296.642 219.648C297.024 219.648 297.407 219.648 297.789 219.648C320.787 219.648 343.784 219.648 366.781 219.648C367.393 219.648 368.044 219.418 368.618 219.879C366.207 220.57 363.72 220.032 361.271 220.186C360.467 220.263 359.702 220.225 358.937 220.225Z" fill="#4A7693"/>
<path d="M287.727 217.919C287.612 218.072 287.497 218.226 287.344 218.341C286.119 212.692 282.943 208.542 277.701 206.044C275.214 204.852 272.612 204.545 269.895 204.506C266.987 204.468 264.959 202.739 264.959 200.317C264.959 197.704 266.949 195.859 269.857 195.744C282.752 195.283 294.002 204.737 295.877 217.688C296.107 219.187 296.604 219.609 298.135 219.609C321.514 219.533 344.932 219.494 368.312 219.456C368.503 219.456 368.695 219.494 368.886 219.494C369.001 219.571 369.039 219.648 369.001 219.725C368.963 219.802 368.924 219.84 368.886 219.84C368.771 219.879 368.657 219.879 368.542 219.879C344.818 219.879 321.055 219.879 297.331 219.84C296.107 219.84 295.839 220.263 295.839 221.377C295.877 225.797 295.839 230.216 295.877 234.597C295.915 235.942 295.456 236.48 294.117 236.327C292.127 236.096 290.099 236.826 288.147 235.942C289.601 234.982 291.247 235.443 292.816 235.443C294.385 235.443 294.959 234.866 294.92 233.291C294.844 228.564 295.073 223.798 294.844 219.071C294.576 213.307 292.05 208.465 288.147 204.391C283.364 199.357 277.433 196.936 270.546 196.897C270.354 196.897 270.163 196.897 269.972 196.897C267.752 197.012 266.298 198.088 266.222 199.703C266.107 201.586 267.446 202.892 269.742 203.161C271.12 203.315 272.535 203.392 273.913 203.661C280.801 205.044 285.431 209.118 287.803 215.728C288.071 216.458 288.454 217.227 287.727 217.919Z" fill="#244257"/>
<path d="M332.152 286.324C332.19 287.516 333.108 288.207 333.797 289.053C333.414 289.629 332.841 289.36 332.42 289.36C314.703 289.36 296.986 289.399 279.27 289.36C275.635 289.36 273.224 287.093 273.224 283.442C273.186 269.876 273.186 256.31 273.224 242.744C273.224 239.747 274.678 238.094 277.892 237.018C278.505 236.826 279.155 236.903 279.806 236.903C297.369 236.903 314.971 236.903 332.534 236.903C332.917 236.903 333.3 236.903 333.682 236.903C334.715 236.864 334.83 237.556 334.295 238.094C331.999 240.515 332.381 243.513 332.381 246.434C332.381 258.309 332.381 270.222 332.381 282.097C332.343 283.557 332.305 284.941 332.152 286.324Z" fill="#5662F6"/>
<path d="M335.672 237.288C338.618 236.673 341.641 236.673 344.587 237.057C347.534 237.48 349.447 239.555 349.447 242.514C349.485 256.195 349.524 269.915 349.447 283.596C349.447 287.17 346.998 289.322 343.44 289.361C341.45 289.361 339.498 289.361 337.508 289.361C334.524 289.361 333.644 288.746 332.496 285.94C332.037 285.326 332.151 284.595 332.151 283.904C332.151 270.222 332.151 256.541 332.151 242.86C332.19 240.054 333.338 238.248 335.672 237.288Z" fill="#5662F6"/>
<path d="M287.726 217.919C286.732 210.886 279.882 204.506 272.956 204.045C271.732 203.968 270.546 203.892 269.321 203.815C267.14 203.623 265.609 202.008 265.609 199.933C265.609 197.935 267.216 196.474 269.589 196.436C279.308 196.244 286.77 200.394 291.974 208.58C294.499 212.577 295.532 216.996 295.532 221.685C295.532 225.989 295.494 230.255 295.571 234.559C295.609 235.789 295.226 236.096 294.04 236.019C292.089 235.943 290.099 235.981 288.109 235.981C288.071 231.331 288.071 226.719 288.033 222.069C288.109 220.686 288.071 219.302 287.726 217.919Z" fill="#FEFEFE"/>
<path d="M335.672 237.287C333.146 238.901 332.496 241.246 332.534 244.166C332.61 258.078 332.534 271.99 332.534 285.94C332.419 286.056 332.304 286.209 332.151 286.325C331.577 285.594 331.807 284.711 331.807 283.903C331.807 270.876 331.845 257.809 331.769 244.781C331.769 241.937 331.883 239.286 334.218 237.018C315.43 237.018 296.642 237.018 277.854 237.018C278.466 236.48 279.193 236.711 279.882 236.711C297.789 236.711 315.697 236.711 333.605 236.711C334.332 236.711 335.174 236.403 335.672 237.287Z" fill="#153669"/>
<path d="M301.578 271.26C301.578 270.799 301.539 270.376 301.578 269.915C301.769 267.648 301.425 265.957 299.282 264.266C295.034 260.845 295.264 254.427 299.282 250.777C303.338 247.049 309.422 247.664 312.904 252.16C316.042 256.195 314.97 262.344 310.493 265.265C309.537 265.88 309.269 266.571 309.307 267.609C309.345 270.03 309.345 272.451 309.307 274.911C309.269 277.716 307.662 279.753 305.442 279.715C303.146 279.676 301.578 277.755 301.539 274.949C301.578 273.681 301.578 272.451 301.578 271.26Z" fill="#02243E"/>
</g>
<defs>
<clipPath id="clip0_990_1752">
<rect width="142.039" height="95" fill="white" transform="translate(227 195.744)"/>
</clipPath>
</defs>
</svg>
