<svg width="387" height="313" viewBox="0 0 387 313" fill="none" xmlns="http://www.w3.org/2000/svg">
<path d="M132.341 158L274.205 158L274.205 312.001L52.0011 312.001L52.0011 209" stroke="#A8C5E2" stroke-miterlimit="10"/>
<path d="M230.863 186.279C247.908 186.279 261.725 172.462 261.725 155.418C261.725 138.373 247.908 124.556 230.863 124.556C213.819 124.556 200.002 138.373 200.002 155.418C200.002 172.462 213.819 186.279 230.863 186.279Z" fill="#D3E4F2"/>
<path d="M363.986 186.279C376.316 186.279 386.311 176.284 386.311 163.954C386.311 151.624 376.316 141.628 363.986 141.628C351.656 141.628 341.66 151.624 341.66 163.954C341.66 176.284 351.656 186.279 363.986 186.279Z" fill="#D3E4F2"/>
<path d="M321.469 182.513C346.685 172.068 358.659 143.159 348.214 117.942C337.769 92.7263 308.86 80.7519 283.643 91.197C258.427 101.642 246.453 130.551 256.898 155.768C267.343 180.984 296.252 192.958 321.469 182.513Z" fill="#D3E4F2"/>
<path d="M230.863 186.279H363.984V155.417H225.301L230.863 186.279Z" fill="#D3E4F2"/>
<path d="M253.127 134.058C259.218 140.666 261.724 151.575 261.724 151.575" stroke="#4A7693" stroke-miterlimit="10"/>
<path d="M351.967 145.144C342.963 149.009 343.605 161.201 343.605 161.201" stroke="#4A7693" stroke-miterlimit="10"/>
<path d="M253.127 134.058C253.127 134.058 253.127 99.7127 289.981 89.0552" stroke="#4A7693" stroke-miterlimit="10"/>
<path d="M141.862 142.012H3.71695C2.21695 142.012 1.00195 140.796 1.00195 139.297V110.716C1.00195 109.216 2.21795 108.001 3.71695 108.001H141.862C143.361 108.001 144.577 109.217 144.577 110.716V139.297C144.578 140.796 143.362 142.012 141.862 142.012Z" fill="#D3E4F2"/>
<path d="M134.102 142.012H11.4775V150.46H134.102V142.012Z" fill="#BCCCDD"/>
<path d="M93.7277 115.605H17.8057V133.012H93.7277V115.605Z" fill="white"/>
<path d="M141.862 184.471H3.71695C2.21695 184.471 1.00195 183.255 1.00195 181.756V153.174C1.00195 151.675 2.21795 150.459 3.71695 150.459H141.862C143.361 150.459 144.577 151.674 144.577 153.174V181.755C144.578 183.255 143.362 184.471 141.862 184.471Z" fill="#D3E4F2"/>
<path d="M134.102 184.471H11.4775V192.919H134.102V184.471Z" fill="#BCCCDD"/>
<path d="M93.7277 158.064H17.8057V175.471H93.7277V158.064Z" fill="white"/>
<path d="M141.862 226.93H3.71695C2.21695 226.93 1.00195 225.714 1.00195 224.215V195.634C1.00195 194.135 2.21795 192.919 3.71695 192.919H141.862C143.361 192.919 144.577 194.135 144.577 195.634V224.216C144.578 225.715 143.362 226.93 141.862 226.93Z" fill="#D3E4F2"/>
<path d="M93.7277 200.523H17.8057V217.93H93.7277V200.523Z" fill="white"/>
<path d="M114.135 124.309C114.135 126.212 112.593 127.754 110.69 127.754C108.787 127.754 107.245 126.212 107.245 124.309C107.245 122.406 108.787 120.864 110.69 120.864C112.593 120.863 114.135 122.406 114.135 124.309Z" fill="white"/>
<path d="M128.232 124.309C128.232 126.212 126.69 127.754 124.787 127.754C122.884 127.754 121.342 126.212 121.342 124.309C121.342 122.406 122.884 120.864 124.787 120.864C126.69 120.863 128.232 122.406 128.232 124.309Z" fill="white"/>
<path d="M114.135 166.768C114.135 168.671 112.593 170.213 110.69 170.213C108.787 170.213 107.245 168.67 107.245 166.768C107.245 164.865 108.787 163.323 110.69 163.323C112.593 163.323 114.135 164.865 114.135 166.768Z" fill="white"/>
<path d="M128.232 166.768C128.232 168.671 126.69 170.213 124.787 170.213C122.884 170.213 121.342 168.67 121.342 166.768C121.342 164.865 122.884 163.323 124.787 163.323C126.69 163.323 128.232 164.865 128.232 166.768Z" fill="white"/>
<path d="M114.135 209.227C114.135 211.13 112.593 212.672 110.69 212.672C108.787 212.672 107.245 211.129 107.245 209.227C107.245 207.324 108.787 205.782 110.69 205.782C112.593 205.782 114.135 207.324 114.135 209.227Z" fill="white"/>
<path d="M128.232 209.227C128.232 211.13 126.69 212.672 124.787 212.672C122.884 212.672 121.342 211.129 121.342 209.227C121.342 207.324 122.884 205.782 124.787 205.782C126.69 205.782 128.232 207.324 128.232 209.227Z" fill="white"/>
<path d="M107.245 108H4.56494C2.59694 108 1.00195 109.595 1.00195 111.563V133.013" stroke="#4A7693" stroke-miterlimit="10"/>
<path d="M107.245 150.817H4.56494C2.59694 150.817 1.00195 152.412 1.00195 154.38V175.83" stroke="#4A7693" stroke-miterlimit="10"/>
<path d="M107.245 193.633H4.56494C2.59694 193.633 1.00195 195.228 1.00195 197.196V218.646" stroke="#4A7693" stroke-miterlimit="10"/>
<path d="M185.951 268.262C189.79 268.262 192.902 265.15 192.902 261.311C192.902 257.472 189.79 254.36 185.951 254.36C182.112 254.36 179 257.472 179 261.311C179 265.15 182.112 268.262 185.951 268.262Z" fill="#D3E4F2"/>
<path d="M220.962 263.233C220.962 266.01 218.711 268.261 215.934 268.261C213.157 268.261 210.906 266.01 210.906 263.233C210.906 260.456 213.157 258.205 215.934 258.205C218.71 258.205 220.962 260.456 220.962 263.233Z" fill="#D3E4F2"/>
<path d="M202.096 268.262C208.243 268.262 213.227 263.278 213.227 257.131C213.227 250.984 208.243 246 202.096 246C195.948 246 190.965 250.984 190.965 257.131C190.965 263.278 195.948 268.262 202.096 268.262Z" fill="#D3E4F2"/>
<path d="M185.951 268.262H215.933V261.311H184.698L185.951 268.262Z" fill="#D3E4F2"/>
<path d="M275.951 22.2621C279.79 22.2621 282.902 19.15 282.902 15.3111C282.902 11.4722 279.79 8.36011 275.951 8.36011C272.112 8.36011 269 11.4722 269 15.3111C269 19.15 272.112 22.2621 275.951 22.2621Z" fill="#D3E4F2"/>
<path d="M305.934 22.2611C308.711 22.2611 310.962 20.01 310.962 17.2331C310.962 14.4562 308.711 12.2051 305.934 12.2051C303.157 12.2051 300.906 14.4562 300.906 17.2331C300.906 20.01 303.157 22.2611 305.934 22.2611Z" fill="#D3E4F2"/>
<path d="M292.096 22.262C298.243 22.262 303.227 17.2785 303.227 11.131C303.227 4.98352 298.243 0 292.096 0C285.948 0 280.965 4.98352 280.965 11.131C280.965 17.2785 285.948 22.262 292.096 22.262Z" fill="#D3E4F2"/>
<path d="M275.951 22.262H305.934V15.311H274.699L275.951 22.262Z" fill="#D3E4F2"/>
<path d="M138.422 81C148.597 81 156.845 72.752 156.845 62.5776C156.845 52.4032 148.597 44.1553 138.422 44.1553C128.248 44.1553 120 52.4032 120 62.5776C120 72.752 128.248 81 138.422 81Z" fill="#D3E4F2"/>
<path d="M217.887 80.9999C225.247 80.9999 231.213 75.0332 231.213 67.6729C231.213 60.3126 225.247 54.3459 217.887 54.3459C210.526 54.3459 204.56 60.3126 204.56 67.6729C204.56 75.0332 210.526 80.9999 217.887 80.9999Z" fill="#D3E4F2"/>
<path d="M181.212 80.9999C197.504 80.9999 210.712 67.7923 210.712 51.5C210.712 35.2076 197.504 22 181.212 22C164.919 22 151.712 35.2076 151.712 51.5C151.712 67.7923 164.919 80.9999 181.212 80.9999Z" fill="#D3E4F2"/>
<path d="M138.423 81H217.887V62.5776H135.104L138.423 81Z" fill="#D3E4F2"/>
<g clip-path="url(#clip0_299_46)">
<path d="M356.937 186.48C336.541 186.48 316.185 186.48 295.789 186.442C294.603 186.442 294.144 186.672 294.182 187.979C294.259 192.322 294.259 196.664 294.182 201.045C294.182 202.083 294.412 202.467 295.522 202.467C308.914 202.39 322.269 202.39 335.661 202.39C337.766 202.39 339.87 202.39 341.975 202.506C345.61 202.736 348.021 205.08 348.174 208.731C348.327 212.382 348.25 216.033 348.289 219.646C348.289 220.337 348.059 221.068 348.48 221.682C348.059 223.45 348.174 225.218 348.174 226.986C348.174 234.518 348.174 242.089 348.174 249.621C348.174 253.541 345.342 256.347 341.401 256.347C337.651 256.385 333.901 256.347 330.151 256.385C321.503 256.385 312.817 256.424 304.169 256.424C303.251 256.923 302.218 257 301.185 256.962C293.494 256.962 285.764 256.962 278.073 256.962C272.792 256.923 269.922 254.041 269.884 248.776C269.884 237.823 269.846 226.909 269.922 215.956C269.922 213.535 270.382 211.152 270.42 208.731C270.879 204.888 273.213 202.621 277.04 202.467C279.336 202.352 281.632 202.39 283.927 202.467C285.037 202.506 285.496 202.275 285.496 201.007C285.42 196.587 285.42 192.168 285.496 187.748C285.496 186.595 285.075 186.403 284.08 186.403C274.017 186.442 263.953 186.442 253.89 186.403C252.55 186.403 252.244 186.903 252.282 188.056C252.321 189.478 252.282 190.861 252.282 192.283C252.282 193.782 251.594 194.551 250.101 194.589C249.987 194.589 249.833 194.589 249.719 194.589C243.137 194.627 243.596 194.973 243.788 188.824C243.864 186.711 243.175 186.365 241.3 186.403C235.905 186.519 230.472 186.403 225.076 186.403C225.497 185.366 226.415 185.942 227.028 185.942C245.816 185.904 264.604 185.904 283.43 185.904C284.119 185.904 284.846 186.096 285.496 185.712C285.496 185.366 285.458 184.981 285.458 184.636C285.42 184.059 285.688 184.021 286.07 184.328C286.836 185.289 286.836 186.442 286.836 187.595C286.874 191.476 286.836 195.319 286.836 199.201C286.836 200.008 286.721 200.853 287.218 201.583C288.825 202.583 290.585 202.083 292.231 201.929C293.341 201.814 293.341 200.699 293.341 199.777C293.341 196.126 293.341 192.475 293.341 188.824C293.341 188.171 293.302 187.556 293.455 186.903C293.608 186.288 293.914 185.865 294.642 185.904C295.024 185.904 295.407 185.904 295.789 185.904C318.787 185.904 341.784 185.904 364.781 185.904C365.393 185.904 366.044 185.673 366.618 186.134C364.207 186.826 361.72 186.288 359.271 186.442C358.467 186.519 357.702 186.48 356.937 186.48Z" fill="#4A7693"/>
<path d="M285.727 184.174C285.612 184.328 285.497 184.482 285.344 184.597C284.119 178.948 280.943 174.797 275.701 172.299C273.214 171.108 270.612 170.801 267.895 170.762C264.987 170.724 262.959 168.994 262.959 166.573C262.959 163.96 264.949 162.115 267.857 162C280.752 161.539 292.002 170.993 293.877 183.944C294.107 185.443 294.604 185.865 296.135 185.865C319.514 185.788 342.932 185.75 366.312 185.712C366.503 185.712 366.695 185.75 366.886 185.75C367.001 185.827 367.039 185.904 367.001 185.981C366.963 186.058 366.924 186.096 366.886 186.096C366.771 186.134 366.657 186.134 366.542 186.134C342.818 186.134 319.055 186.134 295.331 186.096C294.107 186.096 293.839 186.519 293.839 187.633C293.877 192.053 293.839 196.472 293.877 200.853C293.915 202.198 293.456 202.736 292.117 202.583C290.127 202.352 288.099 203.082 286.147 202.198C287.601 201.238 289.247 201.699 290.816 201.699C292.385 201.699 292.959 201.122 292.92 199.547C292.844 194.82 293.073 190.054 292.844 185.327C292.576 179.563 290.05 174.721 286.147 170.647C281.364 165.613 275.433 163.191 268.546 163.153C268.354 163.153 268.163 163.153 267.972 163.153C265.752 163.268 264.298 164.344 264.222 165.958C264.107 167.841 265.446 169.148 267.742 169.417C269.12 169.571 270.535 169.648 271.913 169.917C278.801 171.3 283.431 175.374 285.803 181.984C286.071 182.714 286.454 183.483 285.727 184.174Z" fill="#244257"/>
<path d="M330.152 252.58C330.19 253.772 331.108 254.464 331.797 255.309C331.414 255.886 330.841 255.617 330.42 255.617C312.703 255.617 294.986 255.655 277.27 255.617C273.635 255.617 271.224 253.349 271.224 249.698C271.186 236.132 271.186 222.566 271.224 209C271.224 206.003 272.678 204.35 275.892 203.274C276.505 203.082 277.155 203.159 277.806 203.159C295.369 203.159 312.971 203.159 330.534 203.159C330.917 203.159 331.3 203.159 331.682 203.159C332.715 203.121 332.83 203.812 332.295 204.35C329.999 206.771 330.381 209.769 330.381 212.69C330.381 224.565 330.381 236.478 330.381 248.353C330.343 249.814 330.305 251.197 330.152 252.58Z" fill="#5662F6"/>
<path d="M333.672 203.543C336.618 202.928 339.641 202.928 342.587 203.313C345.534 203.736 347.447 205.811 347.447 208.77C347.485 222.451 347.524 236.171 347.447 249.852C347.447 253.426 344.998 255.578 341.44 255.617C339.45 255.617 337.498 255.617 335.508 255.617C332.524 255.617 331.644 255.002 330.496 252.196C330.037 251.581 330.151 250.851 330.151 250.159C330.151 236.478 330.151 222.797 330.151 209.116C330.19 206.31 331.338 204.504 333.672 203.543Z" fill="#5662F6"/>
<path d="M285.726 184.174C284.732 177.142 277.882 170.762 270.956 170.301C269.732 170.224 268.546 170.147 267.321 170.07C265.14 169.878 263.609 168.264 263.609 166.189C263.609 164.19 265.216 162.73 267.589 162.692C277.308 162.5 284.77 166.65 289.974 174.836C292.499 178.832 293.532 183.252 293.532 187.94C293.532 192.245 293.494 196.51 293.571 200.815C293.609 202.044 293.226 202.352 292.04 202.275C290.089 202.198 288.099 202.237 286.109 202.237C286.071 197.587 286.071 192.975 286.033 188.325C286.109 186.941 286.071 185.558 285.726 184.174Z" fill="#FEFEFE"/>
<path d="M333.672 203.543C331.146 205.157 330.496 207.502 330.534 210.422C330.61 224.334 330.534 238.246 330.534 252.196C330.419 252.311 330.304 252.465 330.151 252.58C329.577 251.85 329.807 250.966 329.807 250.159C329.807 237.131 329.845 224.065 329.769 211.037C329.769 208.193 329.883 205.542 332.218 203.274C313.43 203.274 294.642 203.274 275.854 203.274C276.466 202.736 277.193 202.967 277.882 202.967C295.789 202.967 313.697 202.967 331.605 202.967C332.332 202.967 333.174 202.659 333.672 203.543Z" fill="#153669"/>
<path d="M299.578 237.516C299.578 237.055 299.539 236.632 299.578 236.171C299.769 233.903 299.425 232.212 297.282 230.522C293.034 227.101 293.264 220.683 297.282 217.032C301.338 213.305 307.422 213.92 310.904 218.416C314.042 222.451 312.97 228.6 308.493 231.521C307.537 232.136 307.269 232.827 307.307 233.865C307.345 236.286 307.345 238.707 307.307 241.167C307.269 243.972 305.662 246.009 303.442 245.971C301.146 245.932 299.578 244.011 299.539 241.205C299.578 239.937 299.578 238.707 299.578 237.516Z" fill="#02243E"/>
</g>
<defs>
<clipPath id="clip0_299_46">
<rect width="142.039" height="95" fill="white" transform="translate(225 162)"/>
</clipPath>
</defs>
</svg>
