<svg width="700" height="600" viewBox="0 0 700 600" fill="none" xmlns="http://www.w3.org/2000/svg">
  <circle cx="350" cy="300" r="270" fill="#F5F8FB" />
  
  <!-- Clouds -->
  <g fill="#D4E6F8">
    <ellipse cx="400" cy="200" rx="90" ry="60"/>
    <ellipse cx="450" cy="220" rx="60" ry="40"/>
    <ellipse cx="380" cy="220" rx="70" ry="50"/>
    <circle cx="320" cy="160" r="40"/>
    <circle cx="360" cy="170" r="20"/>
    <circle cx="250" cy="320" r="40"/>
    <circle cx="480" cy="160" r="18"/>
    <circle cx="530" cy="110" r="20"/>
    <circle cx="550" cy="130" r="10"/>
  </g>
  
  <!-- Servers -->
  <g fill="#D1E4F5" stroke="#A8BCCC" stroke-width="2">
    <rect x="50" y="250" width="140" height="40" rx="4"/>
    <rect x="50" y="300" width="140" height="40" rx="4"/>
    <rect x="50" y="350" width="140" height="40" rx="4"/>
  </g>
  <g fill="#FFFFFF">
    <rect x="60" y="260" width="80" height="20" rx="2"/>
    <rect x="60" y="310" width="80" height="20" rx="2"/>
    <rect x="60" y="360" width="80" height="20" rx="2"/>
  </g>
  <g fill="#A8BCCC">
    <circle cx="130" cy="270" r="4"/>
    <circle cx="140" cy="270" r="4"/>
    <circle cx="130" cy="320" r="4"/>
    <circle cx="140" cy="320" r="4"/>
    <circle cx="130" cy="370" r="4"/>
    <circle cx="140" cy="370" r="4"/>
  </g>
  
  <!-- Connections -->
  <line x1="120" y1="290" x2="350" y2="290" stroke="#A8BCCC" stroke-width="2"/>
  <line x1="120" y1="370" x2="120" y2="520" stroke="#A8BCCC" stroke-width="2"/>
  <line x1="120" y1="520" x2="520" y2="520" stroke="#A8BCCC" stroke-width="2"/>
  <line x1="520" y1="520" x2="520" y2="410" stroke="#A8BCCC" stroke-width="2"/>
  
  <!-- Lock -->
  <g>
    <rect x="470" y="380" width="100" height="100" rx="10" fill="#626DFF"/>
    <circle cx="520" cy="420" r="10" fill="#0D0E23"/>
    <rect x="517" y="420" width="6" height="20" rx="3" fill="#0D0E23"/>
    
    <path d="M500 380c0-20 0-40 20-40s20 20 20 40" stroke="#FFFFFF" stroke-width="8" fill="none"/>
  </g>
</svg>
