<svg width="378" height="349" viewBox="0 0 378 349" fill="none" xmlns="http://www.w3.org/2000/svg">
<circle cx="173" cy="173" r="173" fill="#F2F5F9"/>
<path d="M144.341 193.745L286.205 193.745L286.205 347.746L64.0011 347.746L64.0011 244.745" stroke="#A8C5E2" stroke-miterlimit="10"/>
<path d="M153.862 177.757H15.7169C14.2169 177.757 13.002 176.541 13.002 175.042V146.461C13.002 144.961 14.2179 143.746 15.7169 143.746H153.862C155.361 143.746 156.577 144.962 156.577 146.461V175.042C156.578 176.541 155.362 177.757 153.862 177.757Z" fill="#D3E4F2"/>
<path d="M146.103 177.757H23.4785V186.205H146.103V177.757Z" fill="#BCCCDD"/>
<path d="M105.729 151.35H29.8066V168.757H105.729V151.35Z" fill="white"/>
<path d="M153.862 220.216H15.7169C14.2169 220.216 13.002 219 13.002 217.501V188.919C13.002 187.42 14.2179 186.204 15.7169 186.204H153.862C155.361 186.204 156.577 187.419 156.577 188.919V217.5C156.578 219 155.362 220.216 153.862 220.216Z" fill="#D3E4F2"/>
<path d="M146.103 220.216H23.4785V228.664H146.103V220.216Z" fill="#BCCCDD"/>
<path d="M105.729 193.809H29.8066V211.216H105.729V193.809Z" fill="white"/>
<path d="M153.862 262.675H15.7169C14.2169 262.675 13.002 261.459 13.002 259.96V231.379C13.002 229.88 14.2179 228.664 15.7169 228.664H153.862C155.361 228.664 156.577 229.88 156.577 231.379V259.961C156.578 261.46 155.362 262.675 153.862 262.675Z" fill="#D3E4F2"/>
<path d="M105.729 236.268H29.8066V253.675H105.729V236.268Z" fill="white"/>
<path d="M126.134 160.053C126.134 161.956 124.592 163.498 122.689 163.498C120.786 163.498 119.244 161.956 119.244 160.053C119.244 158.15 120.786 156.608 122.689 156.608C124.592 156.607 126.134 158.15 126.134 160.053Z" fill="white"/>
<path d="M140.232 160.053C140.232 161.956 138.69 163.498 136.787 163.498C134.884 163.498 133.342 161.956 133.342 160.053C133.342 158.15 134.884 156.608 136.787 156.608C138.69 156.607 140.232 158.15 140.232 160.053Z" fill="white"/>
<path d="M126.134 202.513C126.134 204.416 124.592 205.958 122.689 205.958C120.786 205.958 119.244 204.415 119.244 202.513C119.244 200.61 120.786 199.068 122.689 199.068C124.592 199.068 126.134 200.61 126.134 202.513Z" fill="white"/>
<path d="M140.232 202.513C140.232 204.416 138.69 205.958 136.787 205.958C134.884 205.958 133.342 204.415 133.342 202.513C133.342 200.61 134.884 199.068 136.787 199.068C138.69 199.068 140.232 200.61 140.232 202.513Z" fill="white"/>
<path d="M126.134 244.972C126.134 246.875 124.592 248.417 122.689 248.417C120.786 248.417 119.244 246.874 119.244 244.972C119.244 243.069 120.786 241.527 122.689 241.527C124.592 241.527 126.134 243.069 126.134 244.972Z" fill="white"/>
<path d="M140.232 244.972C140.232 246.875 138.69 248.417 136.787 248.417C134.884 248.417 133.342 246.874 133.342 244.972C133.342 243.069 134.884 241.527 136.787 241.527C138.69 241.527 140.232 243.069 140.232 244.972Z" fill="white"/>
<path d="M119.245 143.745H16.5649C14.5969 143.745 13.002 145.34 13.002 147.308V168.758" stroke="#4A7693" stroke-miterlimit="10"/>
<path d="M119.245 186.562H16.5649C14.5969 186.562 13.002 188.157 13.002 190.125V211.575" stroke="#4A7693" stroke-miterlimit="10"/>
<path d="M119.245 229.378H16.5649C14.5969 229.378 13.002 230.973 13.002 232.941V254.391" stroke="#4A7693" stroke-miterlimit="10"/>
<path d="M203.1 105.758C217.462 107.181 229.437 95.2062 228.014 80.8442C226.961 70.2162 218.364 61.6192 207.736 60.5662C193.374 59.1432 181.399 71.1182 182.822 85.4802C183.876 96.1092 192.472 104.705 203.1 105.758ZM203.543 73.7132C210.319 72.4302 216.163 78.2842 214.863 85.0632C214.136 88.8502 211.076 91.8992 207.287 92.6132C200.51 93.8902 194.689 88.0372 195.987 81.2612C196.71 77.4792 199.76 74.4292 203.543 73.7132Z" fill="#E2EAF2"/>
<path d="M203.065 103.296H208.13C209.37 103.296 210.375 104.301 210.375 105.541V113.336C210.375 114.576 209.37 115.581 208.13 115.581H203.065C201.825 115.581 200.82 114.576 200.82 113.336V105.541C200.82 104.301 201.825 103.296 203.065 103.296Z" fill="#E2EAF2"/>
<path d="M217.991 99.0635L221.573 95.4825C222.45 94.6055 223.871 94.6055 224.748 95.4825L230.26 100.994C231.137 101.871 231.137 103.292 230.26 104.169L226.679 107.751C225.802 108.628 224.381 108.628 223.504 107.751L217.992 102.239C217.115 101.361 217.115 99.9395 217.991 99.0635Z" fill="#E2EAF2"/>
<path d="M225.553 85.5156V80.4506C225.553 79.2106 226.558 78.2056 227.798 78.2056H235.593C236.833 78.2056 237.838 79.2106 237.838 80.4506V85.5156C237.838 86.7556 236.833 87.7606 235.593 87.7606H227.798C226.558 87.7606 225.553 86.7556 225.553 85.5156Z" fill="#E2EAF2"/>
<path d="M221.32 70.5893L217.738 67.0073C216.861 66.1303 216.861 64.7093 217.738 63.8323L223.25 58.3203C224.127 57.4433 225.548 57.4433 226.425 58.3203L230.007 61.9023C230.884 62.7793 230.884 64.2003 230.007 65.0773L224.495 70.5893C223.618 71.4663 222.196 71.4663 221.32 70.5893Z" fill="#E2EAF2"/>
<path d="M207.771 63.0296H202.706C201.466 63.0296 200.461 62.0246 200.461 60.7846V52.9896C200.461 51.7496 201.466 50.7446 202.706 50.7446H207.771C209.011 50.7446 210.016 51.7496 210.016 52.9896V60.7846C210.016 62.0246 209.011 63.0296 207.771 63.0296Z" fill="#E2EAF2"/>
<path d="M192.847 67.2627L189.265 70.8447C188.388 71.7217 186.967 71.7217 186.09 70.8447L180.578 65.3327C179.701 64.4557 179.701 63.0347 180.578 62.1577L184.159 58.5757C185.036 57.6987 186.457 57.6987 187.334 58.5757L192.846 64.0877C193.723 64.9647 193.723 66.3867 192.847 67.2627Z" fill="#E2EAF2"/>
<path d="M185.285 80.8104V85.8754C185.285 87.1154 184.28 88.1204 183.04 88.1204H175.245C174.005 88.1204 173 87.1154 173 85.8754V80.8104C173 79.5704 174.005 78.5654 175.245 78.5654H183.04C184.28 78.5654 185.285 79.5704 185.285 80.8104Z" fill="#E2EAF2"/>
<path d="M189.519 95.7355L193.1 99.3175C193.977 100.194 193.977 101.615 193.1 102.492L187.588 108.004C186.711 108.881 185.29 108.881 184.413 108.004L180.832 104.423C179.955 103.546 179.955 102.125 180.832 101.248L186.344 95.7365C187.221 94.8595 188.643 94.8595 189.519 95.7355Z" fill="#E2EAF2"/>
<path d="M245.775 113.611H248.697C248.814 113.611 248.931 113.594 249.037 113.561C249.304 114.791 249.8 115.938 250.479 116.956C250.39 117.012 250.306 117.073 250.229 117.151L248.164 119.216C247.68 119.706 247.68 120.496 248.164 120.986L249.377 122.199C249.867 122.689 250.657 122.689 251.147 122.199L253.212 120.134C253.295 120.051 253.368 119.95 253.418 119.85C254.448 120.518 255.605 120.997 256.841 121.247C256.813 121.347 256.802 121.448 256.802 121.553V124.475C256.802 125.165 257.359 125.722 258.049 125.722H259.763C260.453 125.722 261.015 125.165 261.015 124.475V121.553C261.015 121.436 260.998 121.319 260.965 121.208C262.201 120.946 263.347 120.451 264.366 119.772C264.416 119.861 264.483 119.945 264.555 120.022L266.62 122.087C267.11 122.571 267.9 122.571 268.39 122.087L269.604 120.874C270.088 120.384 270.088 119.594 269.604 119.104L267.539 117.039C267.456 116.956 267.361 116.883 267.261 116.828C267.923 115.804 268.402 114.646 268.647 113.411C268.747 113.439 268.853 113.45 268.959 113.45H271.881C272.571 113.45 273.128 112.893 273.128 112.203V110.489C273.128 109.799 272.571 109.237 271.881 109.237H268.959C268.842 109.237 268.725 109.254 268.62 109.287C268.353 108.057 267.857 106.91 267.178 105.892C267.267 105.836 267.351 105.775 267.429 105.697L269.494 103.632C269.978 103.142 269.978 102.352 269.494 101.862L268.281 100.649C267.791 100.159 267.001 100.159 266.511 100.649L264.446 102.714C264.363 102.798 264.29 102.898 264.24 102.998C263.21 102.33 262.053 101.852 260.817 101.601C260.845 101.501 260.856 101.401 260.856 101.295V98.3735C260.856 97.6835 260.299 97.1265 259.609 97.1265H257.895C257.205 97.1265 256.643 97.6835 256.643 98.3735V101.295C256.643 101.412 256.66 101.529 256.693 101.64C255.457 101.901 254.311 102.397 253.292 103.076C253.242 102.987 253.175 102.903 253.103 102.826L251.038 100.761C250.548 100.277 249.758 100.277 249.268 100.761L248.055 101.974C247.565 102.464 247.565 103.254 248.055 103.744L250.12 105.809C250.203 105.893 250.298 105.965 250.398 106.021C249.736 107.045 249.257 108.203 249.012 109.438C248.912 109.41 248.806 109.399 248.7 109.399H245.778C245.088 109.399 244.531 109.956 244.531 110.646V112.36C244.528 113.049 245.085 113.611 245.775 113.611ZM254.663 110.583C254.986 108.919 256.327 107.572 257.997 107.255C260.986 106.687 263.569 109.27 262.99 112.264C262.673 113.934 261.32 115.275 259.65 115.592C256.662 116.154 254.096 113.572 254.663 110.583Z" fill="#E2EAF2"/>
<path d="M251.908 270.745H219.559V279.469H251.908V270.745Z" fill="#E2EAF2"/>
<path d="M251.908 284.317H212V293.041H251.908V284.317Z" fill="#BCCCDD"/>
<path d="M251.908 297.892H229.287V306.616H251.908V297.892Z" fill="#E2EAF2"/>
<path d="M251.907 311.465H236.744V320.189H251.907V311.465Z" fill="#E2EAF2"/>
<path d="M364.699 224.016H248.933L228.262 158.068C227.124 154.437 229.836 150.745 233.641 150.745H333.602C338.44 150.745 342.718 153.887 344.165 158.503L364.699 224.016Z" fill="#A2B8CC"/>
<path d="M369.699 224.016H253.933L233.262 158.068C232.124 154.437 234.836 150.745 238.641 150.745H338.602C343.44 150.745 347.718 153.887 349.165 158.503L369.699 224.016Z" fill="#BCCCDD"/>
<path d="M357.534 211.358H258.502L241.141 156.041H340.172L357.534 211.358Z" fill="white"/>
<path d="M359.424 223.262H247.096C246.147 223.262 245.377 224.032 245.377 224.981V228.476C245.377 229.425 246.147 230.195 247.096 230.195H359.423C360.372 230.195 361.142 229.425 361.142 228.476V224.981C361.143 224.032 360.373 223.262 359.424 223.262Z" fill="#A2B8CC"/>
<path d="M375.941 223.262H263.614C262.665 223.262 261.895 224.032 261.895 224.981V228.476C261.895 229.425 262.665 230.195 263.614 230.195H375.941C376.89 230.195 377.66 229.425 377.66 228.476V224.981C377.66 224.032 376.891 223.262 375.941 223.262Z" fill="#BCCCDD"/>
<path d="M253.934 224.016H369.7" stroke="#536C7F" stroke-miterlimit="10" stroke-linecap="round"/>
<path d="M275.813 150.746H235.774C233.159 150.746 231.303 153.296 232.107 155.784L246.711 200.976" stroke="#536C7F" stroke-miterlimit="10" stroke-linecap="round"/>
<path d="M323.181 172.489H266.392C264.838 172.489 263.477 171.447 263.071 169.947C262.479 167.759 264.126 165.607 266.392 165.607H323.181C324.735 165.607 326.096 166.649 326.502 168.149C327.095 170.336 325.448 172.489 323.181 172.489Z" fill="#E2EAF2"/>
<path d="M328.986 185.22H272.196C270.642 185.22 269.281 184.178 268.875 182.678C268.283 180.491 269.93 178.338 272.196 178.338H328.985C330.539 178.338 331.9 179.38 332.306 180.88C332.899 183.067 331.252 185.22 328.986 185.22Z" fill="#E2EAF2"/>
<path d="M334.791 197.95H278.001C276.447 197.95 275.086 196.908 274.68 195.408C274.088 193.22 275.735 191.068 278.001 191.068H334.79C336.344 191.068 337.705 192.11 338.111 193.61C338.704 195.797 337.057 197.95 334.791 197.95Z" fill="#E2EAF2"/>
</svg>
