<svg width="44" height="44" viewBox="0 0 44 44" fill="none" xmlns="http://www.w3.org/2000/svg">
<path d="M0 22C0 9.84974 9.84974 0 22 0C34.1503 0 44 9.84974 44 22C44 34.1503 34.1503 44 22 44C9.84974 44 0 34.1503 0 22Z" fill="#EFF0FF"/>
<path d="M19.3135 26.5H15.8125C15.6633 26.5 15.5202 26.4407 15.4148 26.3352C15.3093 26.2298 15.25 26.0867 15.25 25.9375V16.375H14.125C13.9758 16.375 13.8327 16.3157 13.7273 16.2102C13.6218 16.1048 13.5625 15.9617 13.5625 15.8125C13.5625 15.6633 13.6218 15.5202 13.7273 15.4148C13.8327 15.3093 13.9758 15.25 14.125 15.25H29.875C30.0242 15.25 30.1673 15.3093 30.2727 15.4148C30.3782 15.5202 30.4375 15.6633 30.4375 15.8125C30.4375 15.9617 30.3782 16.1048 30.2727 16.2102C30.1673 16.3157 30.0242 16.375 29.875 16.375H28.75V25.9375C28.75 26.0867 28.6907 26.2298 28.5852 26.3352C28.4798 26.4407 28.3367 26.5 28.1875 26.5H24.6932L26.6418 29.875H25.3435L23.395 26.5H20.6117L18.6632 29.875H17.365L19.3135 26.5ZM27.625 16.375H16.375V25.375H27.625V16.375ZM19.0233 22.3983C18.971 22.4505 18.9089 22.492 18.8405 22.5203C18.7722 22.5486 18.699 22.5632 18.625 22.5632C18.551 22.5632 18.4778 22.5486 18.4095 22.5203C18.3411 22.492 18.279 22.4505 18.2267 22.3983C18.1745 22.346 18.133 22.2839 18.1047 22.2155C18.0764 22.1472 18.0618 22.074 18.0618 22C18.0618 21.926 18.0764 21.8528 18.1047 21.7845C18.133 21.7161 18.1745 21.654 18.2267 21.6017L20.8221 19.0075L23.0271 20.6613L24.9362 18.274C24.9809 18.2124 25.0377 18.1605 25.103 18.1215C25.1683 18.0824 25.2409 18.057 25.3163 18.0468C25.3917 18.0367 25.4684 18.0419 25.5417 18.0622C25.6151 18.0825 25.6835 18.1175 25.743 18.165C25.8024 18.2126 25.8515 18.2717 25.8875 18.3388C25.9234 18.4059 25.9453 18.4796 25.9519 18.5554C25.9586 18.6312 25.9497 18.7076 25.926 18.7799C25.9022 18.8522 25.864 18.9189 25.8138 18.976L23.224 22.2149L20.9279 20.4925L19.0233 22.3971V22.3983Z" fill="#5662F6"/>
</svg>
