<svg width="44" height="44" viewBox="0 0 44 44" fill="none" xmlns="http://www.w3.org/2000/svg">
<path d="M0 22C0 9.84974 9.84974 0 22 0C34.1503 0 44 9.84974 44 22C44 34.1503 34.1503 44 22 44C9.84974 44 0 34.1503 0 22Z" fill="#EFF0FF"/>
<path d="M26.7217 16.2672C27.3289 16.0557 27.796 15.8157 28.0874 15.5772C28.2874 15.4143 28.3503 15.3072 28.3503 15.2643C28.3503 15.2215 28.2874 15.1143 28.0874 14.95C27.796 14.7129 27.3303 14.4729 26.7217 14.2615C25.3903 13.8 23.5474 13.53 21.5717 13.53C19.596 13.53 17.7531 13.8015 16.4217 14.2615C15.8146 14.4729 15.3474 14.7129 15.056 14.9515C14.856 15.1143 14.7931 15.22 14.7931 15.2643C14.7931 15.3072 14.856 15.4143 15.056 15.5786C15.3474 15.8157 15.8131 16.0557 16.4217 16.2672C17.7531 16.7286 19.596 16.9986 21.5717 16.9986C23.5474 16.9986 25.3903 16.7272 26.7217 16.2672ZM14.3574 21.0772V23.5929C15.0989 24.3743 17.0931 25.3257 19.5289 25.61C23.1003 26.0257 26.4817 25.2457 28.7774 23.69L28.786 21.1186C26.3403 22.5572 22.8974 23.1615 19.416 22.7543C17.2603 22.5043 15.4246 21.8543 14.356 21.0772H14.3574ZM14.3574 19.5057C15.1003 20.2857 17.0931 21.2372 19.5289 21.52C23.1074 21.9372 26.496 21.1543 28.7917 19.5915L28.8017 16.74C27.3403 17.5972 24.6503 18.1715 21.5717 18.1715C18.506 18.1715 15.8246 17.6 14.3617 16.75C14.3598 17.6681 14.3584 18.5862 14.3574 19.5043V19.5057ZM14.3603 25.1672L14.366 27.2786L14.3446 27.1329C14.7817 28.5786 17.5731 29.74 21.7303 29.74C23.9946 29.74 25.7689 29.3972 27.1331 28.7229C27.516 28.5329 27.8074 28.3729 28.0931 28.1643C28.2831 28.0257 28.4074 27.9415 28.6117 27.7615C28.8231 27.5743 29.1489 27.62 29.3374 27.8329C29.5246 28.0429 29.5489 28.3857 29.3374 28.5743C29.1089 28.7743 29.0017 28.8643 28.7789 29.0272C28.446 29.27 28.0674 29.5229 27.6303 29.74C26.1246 30.4843 24.5903 30.9286 21.7303 30.9286C16.966 30.9286 13.816 29.4215 13.2131 27.4286L13.1917 27.3572V27.2829L13.1831 24.2672C13.1797 21.3005 13.1821 18.3338 13.1903 15.3672C13.1867 15.333 13.1848 15.2987 13.1846 15.2643C13.186 13.6586 16.9403 12.3572 21.5717 12.3572C26.2031 12.3572 29.9574 13.6586 29.9574 15.2643C29.9579 15.327 29.9526 15.3897 29.9417 15.4515C29.9555 15.4964 29.9622 15.5431 29.9617 15.59L29.9289 25.7543C29.9274 26.0372 29.6674 26.2657 29.3474 26.2643C29.0274 26.2643 28.7689 26.0343 28.7703 25.75V25.2157C26.3274 26.6457 22.8903 27.2486 19.416 26.8443C17.2631 26.5929 15.4274 25.9443 14.3589 25.1672H14.3603ZM27.4174 19.4843C27.2843 19.4855 27.1562 19.4338 27.0611 19.3406C26.966 19.2474 26.9118 19.1203 26.9103 18.9872C26.9103 18.7129 27.1389 18.4915 27.4189 18.4915C27.6989 18.4915 27.9274 18.7129 27.9274 18.9872C27.9274 19.2629 27.6989 19.4843 27.4189 19.4843H27.4174ZM27.4174 23.5743C27.2843 23.5755 27.1562 23.5238 27.0611 23.4306C26.966 23.3374 26.9118 23.2103 26.9103 23.0772C26.9103 22.8029 27.1389 22.58 27.4189 22.58C27.6989 22.58 27.9274 22.8029 27.9274 23.0772C27.9274 23.3515 27.6989 23.5743 27.4189 23.5743H27.4174ZM27.4174 27.7172C27.3514 27.7177 27.2859 27.7053 27.2247 27.6805C27.1634 27.6558 27.1077 27.6192 27.0606 27.5729C27.0135 27.5266 26.976 27.4715 26.9502 27.4107C26.9244 27.3499 26.9109 27.2846 26.9103 27.2186C26.9103 26.9443 27.1389 26.7215 27.4189 26.7215C27.6989 26.7215 27.9274 26.9443 27.9274 27.2186C27.9274 27.4929 27.6989 27.7157 27.4189 27.7157L27.4174 27.7172Z" fill="#5662F6"/>
</svg>
