<svg width="44" height="44" viewBox="0 0 44 44" fill="none" xmlns="http://www.w3.org/2000/svg">
<path d="M0 22C0 9.84974 9.84974 0 22 0C34.1503 0 44 9.84974 44 22C44 34.1503 34.1503 44 22 44C9.84974 44 0 34.1503 0 22Z" fill="#EFF0FF"/>
<path fill-rule="evenodd" clip-rule="evenodd" d="M10.9352 29.0857C10.5505 28.6942 10.5532 28.0658 10.9413 27.6777L20.911 17.7081C21.0985 17.5205 21.3529 17.4152 21.6181 17.4152C21.8833 17.4152 22.1376 17.5205 22.3252 17.7081L27.3063 22.6891C27.4939 22.8768 27.5993 23.1313 27.5992 23.3967C27.599 23.6621 27.4934 23.9166 27.3056 24.104L19.66 31.7347C19.4725 31.9218 19.2184 32.0269 18.9535 32.0269H14.2449C13.9767 32.0269 13.7197 31.9191 13.5317 31.7278L10.9352 29.0857ZM13.0565 28.3909L14.6642 30.0269H18.5399L25.1842 23.3955L21.6181 19.8294L13.0565 28.3909Z" fill="#5662F6"/>
<path fill-rule="evenodd" clip-rule="evenodd" d="M16.1973 31.0355C16.1973 30.4833 16.645 30.0355 17.1973 30.0355H31.1319C31.6841 30.0355 32.1319 30.4833 32.1319 31.0355C32.1319 31.5878 31.6841 32.0355 31.1319 32.0355H17.1973C16.645 32.0355 16.1973 31.5878 16.1973 31.0355Z" fill="#5662F6"/>
<path d="M31.3756 13.4468C32.2175 13.5848 32.2175 14.7965 31.3756 14.9345C30.265 15.1172 29.3949 15.9873 29.2123 17.0979C29.0742 17.9398 27.8626 17.9398 27.7245 17.0979C27.5419 15.9873 26.6718 15.1172 25.5611 14.9345C24.7192 14.7965 24.7192 13.5848 25.5611 13.4468C26.6718 13.2641 27.5419 12.394 27.7245 11.2834C27.8626 10.4415 29.0742 10.4415 29.2123 11.2834C29.3949 12.394 30.265 13.2641 31.3756 13.4468Z" fill="#5662F6"/>
<path d="M17.0092 17.71C17.4224 17.7778 17.4224 18.3724 17.0092 18.4402C16.4642 18.5298 16.0371 18.9569 15.9475 19.5019C15.8797 19.9151 15.2851 19.9151 15.2173 19.5019C15.1277 18.9569 14.7007 18.5298 14.1556 18.4402C13.7424 18.3724 13.7424 17.7778 14.1556 17.71C14.7007 17.6204 15.1277 17.1934 15.2173 16.6483C15.2851 16.2351 15.8797 16.2351 15.9475 16.6483C16.0371 17.1934 16.4642 17.6204 17.0092 17.71Z" fill="#5662F6"/>
<path d="M21.8128 14.1927C22.1565 14.6712 21.5648 15.2628 21.0863 14.9192C20.4548 14.466 19.605 14.466 18.9735 14.9192C18.495 15.2628 17.9034 14.6712 18.247 14.1927C18.7002 13.5611 18.7002 12.7114 18.247 12.0799C17.9034 11.6013 18.495 11.0097 18.9735 11.3534C19.6051 11.8065 20.4548 11.8065 21.0863 11.3533C21.5648 11.0097 22.1565 11.6013 21.8128 12.0799C21.3596 12.7114 21.3596 13.5611 21.8128 14.1927Z" fill="#5662F6"/>
</svg>
